<svg enable-background="new 0 0 1040 1200" viewBox="0 0 1040 1200" xmlns="http://www.w3.org/2000/svg" xmlns:xlink="http://www.w3.org/1999/xlink"><linearGradient id="a" gradientTransform="matrix(-1 0 0 -1 2079.9048 2000.8896)" gradientUnits="userSpaceOnUse" x1="869.2321" x2="1890.8708" y1="2066.5493" y2="856.0553"><stop offset="0" stop-color="#ff3c2a"/><stop offset=".857" stop-color="#ffd215"/></linearGradient><linearGradient id="b" gradientTransform="matrix(-1 0 0 -1 2079.9048 2000.8896)" gradientUnits="userSpaceOnUse" x1="1833.7853" x2="1153.6635" y1="1877.9814" y2="-36.868"><stop offset="0" stop-color="#1c68ec"/><stop offset="1" stop-color="#00e9df"/></linearGradient><path d="m0 900 520 300 520-300-173.33-100-346.67 200-346.67-200zm346.67-400 173.33-100 173.33 100 173.33-100-346.66-200-346.67 200z" fill="#15244a"/><path d="m866.67 400-346.67-200v-200l520 300v600l-173.33-100zm-693.34 0v400l346.67 200v-200l-173.33-100v-200z" fill="url(#a)"/><path d="m0 900v-600l520-300v200l-346.67 200v400zm520 100 346.67-200v-400l-173.34 100v200l-173.33 100z" fill="url(#b)"/></svg>