
<svg width="1900px" height="654px" viewBox="0 0 1900 654" version="1.1" xmlns="http://www.w3.org/2000/svg" xmlns:xlink="http://www.w3.org/1999/xlink">
    <!-- Generator: Sketch 49.1 (51147) - http://www.bohemiancoding.com/sketch -->
    <desc>Created with Sketch.</desc>
    <defs>
        <linearGradient x1="100%" y1="25.6129056%" x2="51.3265444%" y2="25.6129053%" id="linearGradient-1">
            <stop stop-color="#FFFFFF" stop-opacity="0" offset="0%"></stop>
            <stop stop-color="#FFFFFF" stop-opacity="0.19" offset="100%"></stop>
        </linearGradient>
    </defs>
    <g id="Page-1" stroke="none" stroke-width="1" fill="none" fill-rule="evenodd">
        <g id="editor-2-splash_PA03" fill="url(#linearGradient-1)">
            <g id="Stacked-Group" transform="translate(-5.000000, 0.000000)">
                <g id="_SEGMENT-HERO">
                    <g id="Group-12" transform="translate(-234.000000, -165.000000)">
                        <g id="Group-20" transform="translate(1141.500000, 450.000000) scale(-1, 1) translate(-1141.500000, -450.000000) ">
                            <polygon id="Path" transform="translate(792.500000, 450.000000) scale(-1, 1) translate(-792.500000, -450.000000) " points="0 1.54202541 1585 900 1585 0"></polygon>
                            <polygon id="Path" transform="translate(1144.000000, 366.199084) scale(-1, 1) translate(-1144.000000, -366.199084) " points="5 162.390619 2283 570.708346 2283 161.689823"></polygon>
                        </g>
                        <g id="Group-20" transform="translate(95.000000, 0.000000)">
                            <polygon id="Path" transform="translate(792.500000, 450.000000) scale(-1, 1) translate(-792.500000, -450.000000) " points="0 1.54202541 1585 900 1585 0"></polygon>
                            <polygon id="Path" transform="translate(1144.000000, 366.199084) scale(-1, 1) translate(-1144.000000, -366.199084) " points="5 162.390619 2283 570.708346 2283 161.689823"></polygon>
                        </g>
                    </g>
                </g>
            </g>
        </g>
    </g>
</svg>
