<svg enable-background="new 646 2 1904 789" viewBox="646 2 1904 789" xmlns="http://www.w3.org/2000/svg" xmlns:xlink="http://www.w3.org/1999/xlink"><mask id="a" height="1902.9" maskUnits="userSpaceOnUse" width="3149.6" x="-115.4" y="-837.9"><path d="m643 1h1908v792h-1908z" fill="#fff"/></mask><linearGradient id="b"><stop offset="0" stop-color="#e34383"/><stop offset="1" stop-color="#eea655"/></linearGradient><linearGradient id="c" gradientTransform="matrix(1214 0 0 -1416 -2659824 2518075)" gradientUnits="userSpaceOnUse" x1="2192.927" x2="2193.5874" xlink:href="#b" y1="1777.5582" y2="1776.6603"/><linearGradient id="d" gradientTransform="matrix(-314.2063 1172.6339 1272.1243 340.8647 -1568068.25 -3177230.75)" gradientUnits="userSpaceOnUse" x1="2193.6191" x2="2194.2798" xlink:href="#b" y1="1777.1018" y2="1776.2037"/><linearGradient id="e" gradientTransform="matrix(-1160.954 354.9392 -385.0535 -1259.4534 3233050 1460927.25)" gradientUnits="userSpaceOnUse" x1="2193.9907" x2="2194.6514" xlink:href="#b" y1="1777.7198" y2="1776.8219"/><linearGradient id="f" gradientTransform="matrix(1214 0 0 1317 -2660829 -2339574)" gradientUnits="userSpaceOnUse" x1="2192.9519" x2="2193.6125" xlink:href="#b" y1="1777.5737" y2="1776.6758"/><path d="m643 1h1908v792h-1908z" fill="#e34383"/><g mask="url(#a)"><g transform="translate(-901 -985)"><ellipse cx="2440" cy="1133" fill="url(#c)" rx="607" ry="708"/><path d="m2640.1 656.3c-86.8 323.8 291.9 706.6 584.7 785.1 292.9 78.5 600.6-120.4 687.4-444.2s-80.3-649.9-373.2-728.4-812.1 63.7-898.9 387.5z" fill="url(#d)" opacity=".5"/><path d="m1612.5 1435.9c-320.6 98-716.4-267-805-557s99.4-604.5 420-702.5 652.3 57.6 741 347.5c88.6 290.1-35.4 814-356 912z" fill="url(#e)" opacity=".5"/><path d="m1435 733c335.2 0 607 464.8 607 768s-271.8 549-607 549-607-245.8-607-549 271.8-768 607-768z" fill="url(#f)" opacity=".5"/></g></g></svg>