<svg xmlns="http://www.w3.org/2000/svg" xmlns:xlink="http://www.w3.org/1999/xlink" width="714" height="372" viewBox="0 0 714 372"><defs><path id="a" d="M0 0h714v372H0z"/></defs><g fill="none" fill-rule="evenodd"><mask id="b" fill="#fff"><use xlink:href="#a"/></mask><use fill="#6FC0FF" fill-opacity="0" xlink:href="#a"/><g fill="#FFF" mask="url(#b)" opacity=".5"><path d="M238 137.818l119-68.744L238 .329v137.489zm237.999 0l-119-68.744v137.488l119 68.744v137.489l119 68.744V344.05l119 68.744V275.306l-119-68.744V69.074L475.999.33v137.487zm-238 274.976l119 68.745V344.05l-119-68.745v137.488zm357 68.744l-119 68.745 119 68.744V481.538z"/><path d="M356.999 69.074L238 137.817V.33L119 69.074v137.488L0 275.306v137.489l119-68.744v137.488l119-68.744v-137.49l119-68.743V69.074l118.999 68.744V.33l-119 68.744zM119 206.562zm237.998 137.489v137.488l119-68.745V275.306L357 344.05zM119 619.028l119-68.744-119-68.745v137.49z" opacity=".2"/></g></g></svg>