<svg viewBox="0 0 32 32" xmlns="http://www.w3.org/2000/svg"><path d="m14.36 16.8a.51.51 0 0 1 -.26.66 6.53 6.53 0 0 1 -5.2 0 .5.5 0 1 1 .4-.92 5.6 5.6 0 0 0 4.4 0 .51.51 0 0 1 .66.26zm-2.86-11.8a6.4 6.4 0 0 0 -4.29 1.63.5.5 0 0 0 .66.74 5.49 5.49 0 0 1 7.26 0 .46.46 0 0 0 .33.13.5.5 0 0 0 .37-.17.48.48 0 0 0 0-.7 6.4 6.4 0 0 0 -4.33-1.63zm19.5 22.8a2.49 2.49 0 0 1 -.74 1.79l-.67.67a2.52 2.52 0 0 1 -3.57 0l-6.76-6.76a1.49 1.49 0 0 1 0-2.12l-1.5-1.47a10.39 10.39 0 0 1 -6.26 2.09 10.55 10.55 0 1 1 8.4-4.23l1.51 1.47a1.49 1.49 0 0 1 2.09 0l6.76 6.76a2.48 2.48 0 0 1 .74 1.8zm-19.5-7.8a8.5 8.5 0 1 0 -8.5-8.5 8.51 8.51 0 0 0 8.5 8.5zm8.49.65.71-.71-1.44-1.4a9.39 9.39 0 0 1 -.7.71zm9 7.15a.49.49 0 0 0 -.16-.37l-6.39-6.43-1.44 1.44 6.4 6.4a.54.54 0 0 0 .75 0l.66-.67a.49.49 0 0 0 .19-.37z"/><path d="m30.5 27.5-3 3-7.5-8.41 2.5-2.09zm-13.5-16.5c-.28 0-.41.1-.5.5-.87 3.64-5.94 5-9.19 2.73-.29-.21-.46-.3-.69-.15a.49.49 0 0 0 -.15.69 6 6 0 0 0 11-3.27.5.5 0 0 0 -.47-.5z" opacity=".3"/></svg>