<svg xmlns="http://www.w3.org/2000/svg" viewBox="0 0 64 64"><defs><style>.cls-1{opacity:0.2;}</style></defs><title>i-</title><g id="OUTLINES"><path d="M2.43,41.23,30,12.25v2.9L3.88,42.61l1.78,5.8L30,54v2.05L5.21,50.36,4.08,50.1,3.75,49,2,43.19l-.34-1.12ZM30,43.16V41.1l-5.89-1.38L30,33.51v-2.9L20.26,40.87ZM61.85,54.87,47.1,6.26l-.32-1-1.05-.3L40,3.29,38.84,3,38,3.83,35,7V9.9l4.46-4.69,5.2,1.49L35,17.18v1.48L45.36,7.42l14.57,48-4,4L43.14,16.73,35,25.32v2.92l2.64-2.78,5.57,18.75L35,42.28v2.06l10,2.34,1.52,5L35,49.14v1l13,2.92L38.9,22.69l3.78-4L55,59.82,35,55.2v2l20,4.62,1.08.25.78-.78,4.5-4.47L62.2,56Z"/></g><g id="SHADING"><path class="cls-1" d="M56,60.5l-21-4v-7l12,3-9-29,5-6ZM39,4.5l-4,4V18L46,6ZM32.5,1a.5.5,0,0,0-.5.5v61a.5.5,0,0,0,1,0V1.5A.5.5,0,0,0,32.5,1Z"/></g></svg>