<svg id="Layer_1" data-name="Layer 1" xmlns="http://www.w3.org/2000/svg" viewBox="0 0 47 47"><defs><style>.cls-1{fill:#231f20;}</style></defs><path class="cls-1" d="M23.5,3.34,6,13.42V33.66L23.5,43.74,41,33.66V13.42ZM39,32.5,23.5,41.43,8,32.5V14.58L23.5,5.65,39,14.58ZM19.67,13.28a5.33,5.33,0,0,0-1.11.92,6.69,6.69,0,0,0-.78,1,5.37,5.37,0,0,0-.51,1A4.33,4.33,0,0,0,17,17a3.5,3.5,0,0,0,0,1.21,2.38,2.38,0,0,0,.44,1,2.68,2.68,0,0,0,.78.72,2.82,2.82,0,0,0,1.11.39,4.36,4.36,0,0,0,1.08,0,2.24,2.24,0,0,0,1.07-.44,2.79,2.79,0,0,0,.54-.5,4,4,0,0,0,.47-.65,5.72,5.72,0,0,1,.32-.48,2.1,2.1,0,0,1,.32-.34,1.18,1.18,0,0,1,.5-.27,2,2,0,0,1,.69,0,1.27,1.27,0,0,1,.91.47,1.23,1.23,0,0,1,.19.91,1.5,1.5,0,0,1-.28.7,4.19,4.19,0,0,1-.65.7L22,22.63A5.94,5.94,0,0,0,20.76,24a3.88,3.88,0,0,0-.5,1.34,3.14,3.14,0,0,0,0,1.06,2.24,2.24,0,0,0,.43,1,3,3,0,0,0,.86.8l.05,0a3.07,3.07,0,0,0-.42.07A3.64,3.64,0,0,0,20,28.9a3.59,3.59,0,0,0-.89,1,3.4,3.4,0,0,0-.4,2.64,3.49,3.49,0,0,0,1.54,2.07,3.25,3.25,0,0,0,1.28.47,2.92,2.92,0,0,0,.51,0A3.48,3.48,0,0,0,22.9,35a3.59,3.59,0,0,0,1.18-.57,3.42,3.42,0,0,0,1.29-3.61,3.49,3.49,0,0,0-1.54-2.07.6.6,0,0,0-.11-.06c.1,0,.21,0,.31,0a2.81,2.81,0,0,0,1.07-.49,3.28,3.28,0,0,0,.65-.64,5.9,5.9,0,0,0,.5-.7,4.79,4.79,0,0,1,.42-.58,6.39,6.39,0,0,1,.69-.68L29.13,24a9.27,9.27,0,0,0,.78-.75,5.19,5.19,0,0,0,.7-.89,5.57,5.57,0,0,0,.51-1.07A5.83,5.83,0,0,0,31.45,20a6.78,6.78,0,0,0-.16-3A6,6,0,0,0,30,14.65,7,7,0,0,0,27.87,13a9.39,9.39,0,0,0-2.75-.85,8.22,8.22,0,0,0-2.89.07A7.24,7.24,0,0,0,19.67,13.28ZM24,30.21a2.68,2.68,0,0,1,.41.85,2.34,2.34,0,0,1,0,.95,2.35,2.35,0,0,1-1,1.59,2.4,2.4,0,0,1-.85.41,2.34,2.34,0,0,1-.95.05h0a2.31,2.31,0,0,1-.9-.32,2.54,2.54,0,0,1-1.1-1.49A2.42,2.42,0,0,1,20,30.4a2.69,2.69,0,0,1,.64-.7,2.65,2.65,0,0,1,.85-.4,2.39,2.39,0,0,1,.59-.08l.37,0a2.48,2.48,0,0,1,.9.32A2.8,2.8,0,0,1,24,30.21Zm1-17a8.06,8.06,0,0,1,2.45.76,5.88,5.88,0,0,1,1.84,1.39,5.1,5.1,0,0,1,1.07,2,5.76,5.76,0,0,1,.13,2.54,5.41,5.41,0,0,1-.27,1.12,5.14,5.14,0,0,1-.43.88,4.6,4.6,0,0,1-.57.73,9.28,9.28,0,0,1-.71.69L26.7,24.8a6.67,6.67,0,0,0-.8.79,6.39,6.39,0,0,0-.5.7c-.13.2-.27.4-.43.6a2.24,2.24,0,0,1-.47.45,1.7,1.7,0,0,1-.68.32,2.7,2.7,0,0,1-.9,0,2.14,2.14,0,0,1-.83-.28,1.94,1.94,0,0,1-.58-.53,1.36,1.36,0,0,1-.25-.59,2.36,2.36,0,0,1,0-.75,2.67,2.67,0,0,1,.37-1,5.21,5.21,0,0,1,1-1.16l2.52-2.16a5.61,5.61,0,0,0,.79-.85,2.44,2.44,0,0,0,.47-1.16,2.23,2.23,0,0,0-.35-1.62,2.26,2.26,0,0,0-1.59-.89,3.08,3.08,0,0,0-.51,0,2.38,2.38,0,0,0-.55.06,2.07,2.07,0,0,0-.92.47,3.36,3.36,0,0,0-.48.51,6.27,6.27,0,0,0-.38.57,4.33,4.33,0,0,1-.36.5,2.52,2.52,0,0,1-.38.36,1.16,1.16,0,0,1-.6.24,2.76,2.76,0,0,1-.81,0,1.91,1.91,0,0,1-.73-.25,1.89,1.89,0,0,1-.51-.46,1.55,1.55,0,0,1-.26-.6,2.9,2.9,0,0,1,0-.88,3.09,3.09,0,0,1,.19-.66,4.29,4.29,0,0,1,.41-.79,6,6,0,0,1,.67-.84,4.39,4.39,0,0,1,.92-.76,6.49,6.49,0,0,1,2.22-.9A7.2,7.2,0,0,1,25,13.16Z"/></svg>