<svg id="Layer_1" data-name="Layer 1" xmlns="http://www.w3.org/2000/svg" viewBox="0 0 47 47"><defs><style>.cls-1{fill:#231f20;}</style></defs><path class="cls-1" d="M22.13,26l4-1.36-1.36-4L20.78,22Zm2.69-2-2.06.71-.71-2.07,2.06-.71ZM22,13.31a2.84,2.84,0,0,0-.14,2.16l.37,1.08-2.06.71-.51-1.47A2.83,2.83,0,0,0,17,13.88a2.91,2.91,0,0,0-.92.15,2.84,2.84,0,0,0-1.76,3.61l.5,1.46-1.21.42A2.84,2.84,0,0,0,14.55,25a2.66,2.66,0,0,0,.92-.16l1.21-.41.71,2.06-1.59.55a2.84,2.84,0,0,0,.92,5.52,2.66,2.66,0,0,0,.92-.16l1.59-.54.51,1.47a2.83,2.83,0,0,0,2.68,1.91,2.91,2.91,0,0,0,.92-.15A2.86,2.86,0,0,0,25,33.69a2.82,2.82,0,0,0,.13-2.17l-.5-1.46,2.06-.71.64,1.85A2.83,2.83,0,0,0,30,33.12,2.91,2.91,0,0,0,30.9,33a2.84,2.84,0,0,0,1.76-3.61L32,27.51l1.34-.46a2.84,2.84,0,0,0-.92-5.52,2.91,2.91,0,0,0-.92.15l-1.34.46-.71-2.06,1.73-.59a2.84,2.84,0,0,0-1.84-5.37l-1.73.59-.37-1.08A2.84,2.84,0,0,0,22,13.31ZM24,12.82a1.8,1.8,0,0,1,.6-.1A1.82,1.82,0,0,1,26.32,14l.7,2,2.67-.91a1.8,1.8,0,0,1,.6-.1,1.83,1.83,0,0,1,.59,3.57l-2.67.92,1.36,3.95,2.28-.78a1.8,1.8,0,0,1,.6-.1,1.83,1.83,0,0,1,.6,3.57l-2.29.79,1,2.8A1.83,1.83,0,0,1,30.58,32a1.8,1.8,0,0,1-.6.1,1.84,1.84,0,0,1-1.74-1.24l-1-2.8-4,1.36.83,2.41A1.84,1.84,0,0,1,23,34.18a1.7,1.7,0,0,1-.59.1A1.84,1.84,0,0,1,20.68,33l-.83-2.41-2.53.87a1.8,1.8,0,0,1-.6.1,1.84,1.84,0,0,1-.6-3.58l2.54-.87L17.3,23.2l-2.15.74a2.09,2.09,0,0,1-.6.1,1.84,1.84,0,0,1-.6-3.58l2.16-.74-.83-2.41A1.83,1.83,0,0,1,16.42,15a1.8,1.8,0,0,1,.6-.1,1.84,1.84,0,0,1,1.74,1.24l.83,2.41,3.95-1.36-.69-2A1.83,1.83,0,0,1,24,12.82ZM23.5,3.34,6,13.42V33.66L23.5,43.74,41,33.66V13.42ZM39,32.5,23.5,41.43,8,32.5V14.58L23.5,5.65,39,14.58Z"/></svg>