<svg id="Layer_1" data-name="Layer 1" xmlns="http://www.w3.org/2000/svg" viewBox="0 0 47 47"><defs><style>.cls-1{fill:#231f20;}</style></defs><path class="cls-1" d="M23.5,3.34,6,13.42V33.66L23.5,43.74,41,33.66V13.42ZM39,28.24,23.5,37.16,8,28.24V24.8l15.5,8.93L39,24.8Zm0-4.59L23.5,32.58,8,23.65V20.22l15.5,8.93L39,20.22Zm0-4.58L23.5,28,8,19.07V15.63l15.5,8.93L39,15.63Zm-.08-4.54L23.5,23.41,8.08,14.53,23.5,5.65ZM23.5,41.43,8,32.5V29.39l15.5,8.92L39,29.39V32.5ZM12.14,14.34,23.5,7.8l1,.58L13.15,14.92Zm8-1.38,6.15-3.54,1,.57-6.14,3.54Zm-1,1.75L16,16.53l-1-.57,3.18-1.82Zm-1.37,2.86L29.11,11l1,.58L18.75,18.15ZM29,14.29l1,.58-8.49,4.89-1-.58Z"/></svg>