<svg xmlns="http://www.w3.org/2000/svg" xmlns:xlink="http://www.w3.org/1999/xlink" width="1080" zoomAndPan="magnify" viewBox="0 0 810 809.999993" height="1080" preserveAspectRatio="xMidYMid meet" version="1.0"><defs><clipPath id="a28ce56149"><path d="M 105.261719 56.214844 L 704.511719 56.214844 L 704.511719 753.710938 L 105.261719 753.710938 Z M 105.261719 56.214844 " clip-rule="nonzero"/></clipPath><clipPath id="cf74030df4"><path d="M 404.996094 56.214844 L 704.734375 230.605469 L 704.734375 579.390625 L 404.996094 753.78125 L 105.261719 579.390625 L 105.261719 230.605469 Z M 404.996094 56.214844 " clip-rule="nonzero"/></clipPath></defs><g clip-path="url(#a28ce56149)"><g clip-path="url(#cf74030df4)"><path stroke-linecap="butt" transform="matrix(0.75, 0, 0, 0.75, 105.260439, 56.212176)" fill="none" stroke-linejoin="miter" d="M 399.647585 0.0035565 L 799.298673 232.524416 L 799.298673 697.571345 L 399.647585 930.092204 L 0.00170633 697.571345 L 0.00170633 232.524416 Z M 399.647585 0.0035565 " stroke="#ffffff" stroke-width="100" stroke-opacity="1" stroke-miterlimit="4"/></g></g><path stroke-linecap="butt" transform="matrix(0.649019, 0.375864, -0.375864, 0.649019, 128.111217, 235.981811)" fill="none" stroke-linejoin="miter" d="M -0.000732648 10.00143 L 432.418755 10.001839 " stroke="#ffffff" stroke-width="20" stroke-opacity="1" stroke-miterlimit="4"/><path stroke-linecap="butt" transform="matrix(0.64895, -0.375984, 0.375984, 0.64895, 401.239467, 398.507899)" fill="none" stroke-linejoin="miter" d="M 0.00167806 9.998959 L 432.278832 10.001698 " stroke="#ffffff" stroke-width="20" stroke-opacity="1" stroke-miterlimit="4"/><path stroke-linecap="butt" transform="matrix(0.000000001309, 0.75, -0.75, 0.000000001309, 412.499983, 405)" fill="none" stroke-linejoin="miter" d="M 0.000000482547 9.999977 L 432.000022 9.999978 " stroke="#ffffff" stroke-width="20" stroke-opacity="1" stroke-miterlimit="4"/></svg>