<svg xmlns="http://www.w3.org/2000/svg" xmlns:xlink="http://www.w3.org/1999/xlink" width="1080" zoomAndPan="magnify" viewBox="0 0 810 809.999993" height="1080" preserveAspectRatio="xMidYMid meet" version="1.0"><defs><clipPath id="0554730523"><path d="M 105.261719 56.214844 L 704.511719 56.214844 L 704.511719 753.710938 L 105.261719 753.710938 Z M 105.261719 56.214844 " clip-rule="nonzero"/></clipPath><clipPath id="fb4e5af3bf"><path d="M 404.996094 56.214844 L 704.734375 230.605469 L 704.734375 579.390625 L 404.996094 753.78125 L 105.261719 579.390625 L 105.261719 230.605469 Z M 404.996094 56.214844 " clip-rule="nonzero"/></clipPath><clipPath id="dbb37e7588"><path d="M 324 211 L 489 211 L 489 518 L 324 518 Z M 324 211 " clip-rule="nonzero"/></clipPath><clipPath id="4f5c114447"><path d="M 319.71875 511.8125 L 340.972656 205.800781 L 493.605469 216.402344 L 472.351562 522.414062 Z M 319.71875 511.8125 " clip-rule="nonzero"/></clipPath><clipPath id="4ec2958982"><path d="M 319.71875 511.8125 L 340.964844 205.941406 L 493.902344 216.5625 L 472.65625 522.433594 Z M 319.71875 511.8125 " clip-rule="nonzero"/></clipPath><clipPath id="db217f33b3"><path d="M 335.652344 282.410156 C 338.585938 240.175781 375.199219 208.320312 417.433594 211.25 C 459.664062 214.183594 491.523438 250.800781 488.589844 293.03125 L 477.964844 445.96875 C 475.035156 488.199219 438.417969 520.058594 396.1875 517.125 C 353.953125 514.191406 322.097656 477.578125 325.03125 435.34375 Z M 335.652344 282.410156 " clip-rule="nonzero"/></clipPath></defs><g clip-path="url(#0554730523)"><g clip-path="url(#fb4e5af3bf)"><path stroke-linecap="butt" transform="matrix(0.75, 0, 0, 0.75, 105.260439, 56.212176)" fill="none" stroke-linejoin="miter" d="M 399.647585 0.0035565 L 799.298673 232.524416 L 799.298673 697.571345 L 399.647585 930.092204 L 0.00170633 697.571345 L 0.00170633 232.524416 Z M 399.647585 0.0035565 " stroke="#ffffff" stroke-width="100" stroke-opacity="1" stroke-miterlimit="4"/></g></g><path stroke-linecap="round" transform="matrix(0.746296, -0.0744484, 0.0744484, 0.746296, 245.614575, 331.250423)" fill="none" stroke-linejoin="miter" d="M 23.093863 46.516372 C 71.640342 5.806129 120.185207 5.828149 168.733125 46.588133 " stroke="#ffffff" stroke-width="32" stroke-opacity="1" stroke-miterlimit="4"/><path stroke-linecap="round" transform="matrix(0.732925, -0.159123, 0.159123, 0.732925, 455.488925, 350.07006)" fill="none" stroke-linejoin="miter" d="M 22.879616 27.959849 C 37.02177 43.757452 64.711823 41.561454 105.941806 21.359466 " stroke="#ffffff" stroke-width="32" stroke-opacity="1" stroke-miterlimit="4"/><path stroke-linecap="round" transform="matrix(0.702497, -0.262675, 0.262675, 0.702497, 227.600572, 516.721626)" fill="none" stroke-linejoin="miter" d="M 22.972184 22.097668 C 69.609255 56.551263 116.247716 56.530126 162.887567 22.034257 " stroke="#ffffff" stroke-width="32" stroke-opacity="1" stroke-miterlimit="4"/><path stroke-linecap="round" transform="matrix(-0.563304, -0.495165, 0.495165, -0.563304, 531.227137, 586.75451)" fill="none" stroke-linejoin="miter" d="M 22.262866 21.65698 C 90.627885 58.762928 158.991004 58.749995 227.356607 21.607393 " stroke="#ffffff" stroke-width="32" stroke-opacity="1" stroke-miterlimit="4"/><g clip-path="url(#dbb37e7588)"><g clip-path="url(#4f5c114447)"><g clip-path="url(#4ec2958982)"><g clip-path="url(#db217f33b3)"><path stroke-linecap="butt" transform="matrix(0.0519678, -0.748197, 0.748197, 0.0519678, 319.719098, 511.812954)" fill="none" stroke-linejoin="miter" d="M 306.607296 -0.000635308 C 363.055481 -0.000497552 408.809959 45.756841 408.815017 102.204665 C 408.814518 158.647654 363.052344 204.407689 306.609355 204.407191 L 102.201168 204.404055 C 45.75854 204.408752 -0.00149464 158.646578 -0.000995996 102.203589 C -0.00085824 45.755404 45.756481 0.000925713 102.204666 0.00106347 Z M 306.607296 -0.000635308 " stroke="#ffffff" stroke-width="64" stroke-opacity="1" stroke-miterlimit="4"/></g></g></g></g></svg>