<svg xmlns="http://www.w3.org/2000/svg" xmlns:xlink="http://www.w3.org/1999/xlink" width="1080" zoomAndPan="magnify" viewBox="0 0 810 809.999993" height="1080" preserveAspectRatio="xMidYMid meet" version="1.0"><path fill="#ffffff" d="M 497.460938 279.480469 C 503.398438 281.519531 509.464844 283.058594 515.65625 284.089844 C 521.847656 285.125 528.085938 285.644531 534.363281 285.644531 C 540.640625 285.644531 546.878906 285.125 553.070312 284.089844 C 559.261719 283.058594 565.328125 281.519531 571.265625 279.480469 C 591.300781 271.429688 594.382812 258.246094 594.382812 251.394531 L 594.382812 234.273438 C 594.382812 227.25 591.128906 214.582031 571.09375 206.359375 C 565.199219 204.265625 559.167969 202.683594 553 201.617188 C 546.832031 200.554688 540.621094 200.023438 534.363281 200.023438 C 528.105469 200.023438 521.894531 200.554688 515.726562 201.617188 C 509.558594 202.683594 503.527344 204.265625 497.632812 206.359375 C 477.597656 214.582031 474.515625 227.25 474.515625 234.273438 L 474.515625 251.394531 C 474.515625 258.246094 477.425781 271.429688 497.460938 279.480469 Z M 503.96875 221.945312 C 508.832031 220.273438 513.800781 219.011719 518.871094 218.164062 C 523.941406 217.316406 529.050781 216.894531 534.191406 216.894531 C 539.335938 216.894531 544.441406 217.316406 549.511719 218.164062 C 554.585938 219.011719 559.550781 220.273438 564.414062 221.945312 C 581.539062 228.792969 581.539062 239.066406 564.414062 246.257812 C 554.714844 249.65625 544.726562 251.253906 534.449219 251.054688 C 523.9375 251.203125 513.722656 249.546875 503.796875 246.085938 C 487.359375 239.410156 487.1875 228.621094 503.96875 221.945312 Z M 704.65625 232.558594 L 404.996094 59.785156 L 105.332031 232.558594 L 105.332031 353.28125 L 196.429688 405.851562 L 105.332031 458.25 L 105.332031 578.113281 L 404.996094 751.574219 L 704.65625 579.140625 L 704.65625 458.25 L 613.902344 405.851562 L 704.65625 353.625 Z M 404.996094 99.339844 L 670.410156 252.082031 L 404.996094 404.652344 L 139.578125 252.082031 Z M 670.410156 559.277344 L 404.996094 712.019531 L 139.578125 559.105469 L 139.578125 497.289062 L 404.996094 650.035156 L 670.410156 497.121094 Z M 670.410156 477.769531 L 404.996094 630.339844 L 139.578125 477.769531 L 230.164062 425.542969 L 240.4375 431.535156 L 239.238281 431.535156 C 219.203125 439.753906 216.121094 452.597656 216.121094 459.617188 L 216.121094 476.742188 C 216.121094 483.59375 219.03125 496.777344 239.066406 504.824219 C 251.023438 509.113281 263.351562 511.167969 276.054688 510.988281 C 288.695312 511.152344 300.96875 509.097656 312.871094 504.824219 C 315.273438 504.089844 317.570312 503.101562 319.757812 501.863281 C 321.945312 500.621094 323.96875 499.15625 325.832031 497.46875 C 327.699219 495.78125 329.355469 493.914062 330.808594 491.863281 C 332.261719 489.808594 333.472656 487.625 334.445312 485.304688 L 368.691406 504.824219 C 348.316406 513.558594 345.0625 526.402344 345.0625 533.421875 L 345.0625 550.546875 C 345.152344 552.160156 345.371094 553.761719 345.710938 555.34375 C 346.054688 556.925781 346.519531 558.46875 347.105469 559.980469 C 347.691406 561.488281 348.394531 562.941406 349.207031 564.339844 C 350.023438 565.738281 350.945312 567.066406 351.96875 568.316406 C 352.992188 569.570312 354.109375 570.738281 355.316406 571.816406 C 356.523438 572.894531 357.808594 573.871094 359.171875 574.746094 C 360.53125 575.621094 361.953125 576.382812 363.4375 577.035156 C 364.917969 577.683594 366.441406 578.214844 368.007812 578.628906 C 373.960938 580.667969 380.039062 582.207031 386.246094 583.242188 C 392.453125 584.273438 398.703125 584.792969 404.996094 584.792969 C 411.285156 584.792969 417.535156 584.273438 423.742188 583.242188 C 429.949219 582.207031 436.03125 580.667969 441.980469 578.628906 C 443.546875 578.214844 445.070312 577.683594 446.554688 577.035156 C 448.035156 576.382812 449.457031 575.621094 450.820312 574.746094 C 452.179688 573.871094 453.464844 572.894531 454.671875 571.816406 C 455.882812 570.738281 456.996094 569.570312 458.023438 568.316406 C 459.046875 567.066406 459.964844 565.738281 460.78125 564.339844 C 461.597656 562.941406 462.296875 561.488281 462.882812 559.980469 C 463.46875 558.46875 463.933594 556.925781 464.277344 555.34375 C 464.621094 553.761719 464.835938 552.160156 464.925781 550.546875 L 464.925781 533.421875 C 464.925781 526.402344 461.671875 513.558594 441.808594 505.339844 L 476.058594 485.476562 C 477.007812 487.828125 478.207031 490.042969 479.648438 492.128906 C 481.089844 494.214844 482.746094 496.117188 484.613281 497.832031 C 486.476562 499.550781 488.507812 501.042969 490.707031 502.308594 C 492.902344 503.574219 495.210938 504.585938 497.632812 505.339844 C 503.570312 507.378906 509.636719 508.917969 515.828125 509.953125 C 522.019531 510.984375 528.257812 511.503906 534.535156 511.503906 C 540.8125 511.503906 547.046875 510.984375 553.242188 509.953125 C 559.433594 508.917969 565.5 507.378906 571.4375 505.339844 C 591.46875 497.289062 594.554688 484.105469 594.554688 477.257812 L 594.554688 460.132812 C 594.554688 453.113281 591.300781 440.269531 571.265625 432.050781 L 569.722656 432.050781 L 579.65625 426.398438 Z M 262.527344 443.523438 L 309.957031 470.75 L 307.390625 471.777344 C 297.433594 475.394531 287.160156 477.109375 276.566406 476.914062 C 266.03125 477.109375 255.8125 475.398438 245.917969 471.777344 C 228.792969 465.097656 228.792969 454.652344 245.917969 447.632812 C 251.105469 445.597656 256.46875 444.28125 262.011719 443.695312 Z M 435.644531 521.09375 C 452.769531 527.769531 452.769531 538.214844 435.644531 545.238281 C 425.972656 548.804688 415.984375 550.457031 405.679688 550.203125 C 395.148438 550.375 384.929688 548.664062 375.027344 545.066406 C 357.90625 538.386719 357.90625 527.941406 375.027344 520.921875 C 379.914062 519.082031 384.9375 517.769531 390.097656 516.984375 L 405.507812 525.886719 L 420.75 517.152344 C 425.679688 518.046875 430.472656 519.417969 435.132812 521.265625 Z M 548.492188 443.523438 C 554.363281 444.214844 560.070312 445.582031 565.613281 447.632812 C 582.738281 454.3125 582.738281 464.757812 565.613281 471.777344 C 560.734375 473.449219 555.753906 474.707031 550.667969 475.554688 C 545.582031 476.402344 540.460938 476.824219 535.304688 476.824219 C 530.148438 476.824219 525.027344 476.402344 519.941406 475.554688 C 514.855469 474.707031 509.875 473.449219 504.996094 471.777344 C 504.09375 471.480469 503.234375 471.082031 502.429688 470.578125 Z M 670.410156 333.761719 L 404.996094 486.503906 L 139.578125 333.589844 L 139.578125 271.601562 L 404.996094 424.515625 L 670.410156 271.601562 Z M 368.007812 205.164062 C 373.960938 207.203125 380.039062 208.742188 386.246094 209.773438 C 392.453125 210.808594 398.703125 211.328125 404.996094 211.328125 C 411.285156 211.328125 417.535156 210.808594 423.742188 209.773438 C 429.949219 208.742188 436.03125 207.203125 441.980469 205.164062 C 443.546875 204.765625 445.070312 204.246094 446.554688 203.609375 C 448.039062 202.96875 449.460938 202.21875 450.824219 201.351562 C 452.1875 200.488281 453.472656 199.519531 454.683594 198.449219 C 455.894531 197.378906 457.011719 196.222656 458.035156 194.972656 C 459.0625 193.726562 459.980469 192.40625 460.796875 191.011719 C 461.613281 189.617188 462.3125 188.167969 462.898438 186.664062 C 463.484375 185.160156 463.945312 183.617188 464.289062 182.039062 C 464.628906 180.460938 464.839844 178.863281 464.925781 177.25 L 464.925781 160.128906 C 464.925781 153.105469 461.671875 140.265625 441.808594 132.042969 C 435.898438 129.949219 429.855469 128.367188 423.671875 127.304688 C 417.492188 126.238281 411.265625 125.707031 404.996094 125.707031 C 398.722656 125.707031 392.496094 126.238281 386.316406 127.304688 C 380.136719 128.367188 374.089844 129.949219 368.179688 132.042969 C 348.316406 139.578125 345.0625 153.105469 345.0625 160.128906 L 345.0625 177.25 C 345.148438 178.863281 345.363281 180.460938 345.703125 182.039062 C 346.042969 183.617188 346.503906 185.160156 347.089844 186.664062 C 347.675781 188.167969 348.375 189.617188 349.191406 191.011719 C 350.007812 192.40625 350.925781 193.726562 351.953125 194.972656 C 352.980469 196.222656 354.097656 197.378906 355.304688 198.449219 C 356.515625 199.519531 357.800781 200.488281 359.164062 201.351562 C 360.527344 202.21875 361.953125 202.96875 363.433594 203.609375 C 364.917969 204.246094 366.441406 204.765625 368.007812 205.164062 Z M 374.515625 147.628906 C 384.210938 144.207031 394.199219 142.609375 404.480469 142.832031 C 414.988281 142.695312 425.207031 144.351562 435.132812 147.796875 C 452.253906 154.648438 452.253906 164.921875 435.132812 172.113281 C 425.445312 175.59375 415.457031 177.246094 405.164062 177.078125 C 394.632812 177.253906 384.414062 175.539062 374.515625 171.941406 C 357.90625 165.265625 357.90625 154.304688 374.515625 147.628906 Z M 336.5 251.394531 L 336.5 234.273438 C 336.5 227.25 333.246094 214.582031 313.210938 206.359375 C 307.355469 204.167969 301.347656 202.539062 295.1875 201.476562 C 289.027344 200.410156 282.820312 199.925781 276.566406 200.027344 C 270.289062 199.917969 264.050781 200.398438 257.863281 201.464844 C 251.671875 202.53125 245.636719 204.164062 239.753906 206.359375 C 219.71875 214.582031 216.636719 227.25 216.636719 234.273438 L 216.636719 251.394531 C 216.636719 258.246094 219.546875 271.429688 239.582031 279.480469 C 251.539062 283.769531 263.867188 285.824219 276.566406 285.644531 C 289.210938 285.804688 301.484375 283.75 313.382812 279.480469 C 333.417969 271.429688 336.5 258.246094 336.5 251.394531 Z M 276.910156 251.394531 C 266.398438 251.5625 256.179688 249.90625 246.257812 246.429688 C 229.136719 239.582031 229.136719 229.308594 246.257812 222.113281 C 256.042969 218.527344 266.148438 216.816406 276.566406 216.976562 C 287.105469 216.78125 297.320312 218.492188 307.21875 222.113281 C 324.34375 228.964844 324.34375 239.238281 307.21875 246.429688 C 297.296875 249.910156 287.078125 251.507812 276.566406 251.226562 Z M 362.1875 350.027344 C 364.179688 351.296875 366.292969 352.324219 368.523438 353.109375 C 372.417969 354.605469 376.410156 355.746094 380.507812 356.535156 C 388.742188 358.363281 397.074219 359.273438 405.507812 359.273438 C 413.941406 359.273438 422.277344 358.363281 430.507812 356.535156 C 434.605469 355.746094 438.601562 354.605469 442.496094 353.109375 C 444.722656 352.324219 446.835938 351.296875 448.832031 350.027344 C 450.050781 349.492188 451.226562 348.871094 452.359375 348.171875 C 453.488281 347.46875 454.570312 346.691406 455.59375 345.84375 C 456.617188 344.992188 457.578125 344.074219 458.476562 343.089844 C 459.375 342.105469 460.199219 341.0625 460.953125 339.964844 C 461.703125 338.867188 462.378906 337.722656 462.96875 336.527344 C 463.5625 335.335938 464.074219 334.109375 464.496094 332.84375 C 464.917969 331.582031 465.253906 330.296875 465.496094 328.988281 C 465.742188 327.679688 465.894531 326.359375 465.953125 325.027344 L 465.953125 307.902344 C 465.953125 300.882812 462.703125 288.039062 442.839844 279.820312 C 436.925781 277.722656 430.882812 276.144531 424.699219 275.078125 C 418.519531 274.015625 412.292969 273.484375 406.023438 273.484375 C 399.75 273.484375 393.523438 274.015625 387.34375 275.078125 C 381.164062 276.144531 375.117188 277.722656 369.207031 279.820312 C 349.34375 288.039062 346.089844 300.882812 346.089844 307.902344 L 346.089844 325.027344 C 346.128906 326.332031 346.253906 327.625 346.46875 328.914062 C 346.679688 330.199219 346.980469 331.464844 347.367188 332.710938 C 347.753906 333.957031 348.222656 335.167969 348.773438 336.351562 C 349.324219 337.53125 349.953125 338.671875 350.65625 339.769531 C 351.363281 340.863281 352.140625 341.910156 352.988281 342.898438 C 353.835938 343.890625 354.746094 344.820312 355.722656 345.6875 C 356.695312 346.550781 357.722656 347.351562 358.804688 348.078125 C 359.886719 348.804688 361.015625 349.453125 362.1875 350.027344 Z M 375.027344 295.574219 C 381.703125 293.007812 388.609375 291.527344 395.746094 291.121094 C 398.832031 290.953125 401.914062 290.953125 404.996094 291.121094 C 408.476562 290.867188 411.957031 290.867188 415.441406 291.121094 C 422.410156 291.539062 429.144531 293.023438 435.644531 295.574219 C 445.40625 299.511719 449.515625 304.820312 447.976562 309.789062 C 447.359375 310.992188 446.628906 312.117188 445.78125 313.171875 C 444.933594 314.222656 443.984375 315.175781 442.9375 316.03125 C 441.890625 316.882812 440.769531 317.621094 439.570312 318.242188 C 438.371094 318.867188 437.117188 319.355469 435.816406 319.71875 C 426.128906 323.199219 416.140625 324.851562 405.851562 324.683594 C 395.316406 324.859375 385.101562 323.144531 375.199219 319.546875 C 373.871094 319.308594 372.582031 318.9375 371.332031 318.429688 C 370.082031 317.925781 368.898438 317.296875 367.777344 316.542969 C 366.65625 315.792969 365.625 314.933594 364.683594 313.96875 C 363.742188 313.003906 362.910156 311.953125 362.1875 310.816406 C 360.644531 304.820312 364.753906 299.34375 374.515625 295.574219 Z M 375.027344 295.574219 " fill-opacity="1" fill-rule="nonzero"/></svg>