<svg xmlns="http://www.w3.org/2000/svg" viewBox="0 0 115 93" preserveAspectRatio="xMinYMin"><defs><style>.cls-1,.cls-2{fill:#5bc0ff}.cls-1{opacity:.2}</style></defs><title>img_games-on-dark</title><g id="Layer_15" data-name="Layer 15"><path class="cls-1" d="M70 84a.51.51 0 0 1-.06.84L59.7 90.75a4.43 4.43 0 0 1-4.4 0l-10.24-5.87A.51.51 0 0 1 45 84a25.39 25.39 0 0 0 6.38-7.77.51.51 0 0 1 .44-.27h11.35a.51.51 0 0 1 .44.27A25.39 25.39 0 0 0 70 84zM18 37.5c-2.29 0-4.18-2.09-4.46-4.8a5.37 5.37 0 0 0 0 .7c0 3 2 5.5 4.5 5.5s4.5-2.46 4.5-5.5a5.37 5.37 0 0 0 0-.7c-.36 2.71-2.25 4.8-4.54 4.8zm69.52-.39L59.44 21a3.93 3.93 0 0 0-3.89 0L27.48 37.1a3.92 3.92 0 0 0-2 3.41v31.72a4.44 4.44 0 0 0 2.23 3.85l.49.27a.51.51 0 0 0 .8-.45c-.07-2-.06-4.09 0-6.29v-2a2 2 0 0 1 0-.26v-4.3a16.84 16.84 0 0 1 5.21-12.19 14.44 14.44 0 0 1 11.57-5.79H55.8a9.44 9.44 0 0 1 9.39-8.73 1.71 1.71 0 1 1 0 3.43 6 6 0 0 0-5.94 5.3h10a14.45 14.45 0 0 1 11.6 5.84 16.78 16.78 0 0 1 5.17 12.14v12.83a.51.51 0 0 0 .77.46l.49-.27a4.44 4.44 0 0 0 2.23-3.85V40.51a3.92 3.92 0 0 0-1.99-3.41zm-24.38 24.8a2.86 2.86 0 1 0 5.34-1.41v.19a2.5 2.5 0 0 1-5 0v-.19a2.86 2.86 0 0 0-.34 1.41zM77.5 56.7a2.5 2.5 0 1 1-5 0v-.19a2.86 2.86 0 1 0 5 0c-.01.06 0 .12 0 .19zM45 66.2a1.1 1.1 0 0 1-1.1 1.1h-2.8a1.1 1.1 0 0 1-1.1-1.1v1.5a1.1 1.1 0 0 0 1.1 1.1h2.8a1.1 1.1 0 0 0 1.1-1.1zm-5-2.9h-2.9a1.1 1.1 0 0 1-1.1-1.1v1.5a1.1 1.1 0 0 0 1.1 1.1H40zm9 .4v-1.5a1.1 1.1 0 0 1-1.1 1.1H45v1.5h2.9a1.1 1.1 0 0 0 1.1-1.1zm-32-3.23a.31.31 0 0 0 0 .53l3.32 1.92h.06v-5.21a5.55 5.55 0 0 0-1.31 1.08A11.47 11.47 0 0 1 17 60.47zm76.44-.91h3.54c.43 0 .58 1.07.21 1.28L93.35 63l-.35-.5V60a.42.42 0 0 1 .42-.44zm-74.69-26a2.67 2.67 0 0 0-2.36-2.89A2.67 2.67 0 0 0 14 33.61a2.67 2.67 0 0 0 2.36 2.89 2.67 2.67 0 0 0 2.37-2.89zM30 4.22a1.87 1.87 0 0 0-1.86 0L1.51 19.6a1.88 1.88 0 0 0-.93 1.62v29.25a1.85 1.85 0 0 0 .42 1.2 1.79 1.79 0 0 0 .49.42l4.7 2.71a.86.86 0 0 0 1.29-.74V32c0-10.57 8-19.7 18.51-20.48a20 20 0 0 1 16.71 7 2.06 2.06 0 0 0 2.61.47l5.16-3zm82.73 14.69L87.88 4.55a3.79 3.79 0 0 0-3.8 0L63 16.75l13.66 7.81a.45.45 0 0 0 .67-.5 8.65 8.65 0 0 1-.23-2 9.64 9.64 0 0 1 1.13-4.45 7.5 7.5 0 0 1 14.75.1 10.3 10.3 0 0 1 .78 2 8.5 8.5 0 0 1-4 9.79 1.38 1.38 0 0 0-.69 1.21v1l.85.49c2.25 1.29 3.65 2.69 3.65 5.27v6.22a1 1 0 0 0 .6.87.88.88 0 0 0 .33.06h1.38a.18.18 0 0 0 .14-.06.21.21 0 0 0 .05-.13 1.82 1.82 0 0 1 1.81-1.81h3.57a1.62 1.62 0 0 1 1.55 1.01 1.56 1.56 0 0 1 .11.57v.32h4.57a1.43 1.43 0 0 1 1.43 1.43v8a.56.56 0 0 0 .84.49l2.83-1.64a3.84 3.84 0 0 0 1.9-3.29V22.2a3.8 3.8 0 0 0-1.94-3.29z"/><path class="cls-2" d="M97.43 59.17a.5.5 0 0 1-.18.68L93.6 62a.49.49 0 0 1-.25.07.5.5 0 0 1-.25-.93L96.75 59a.5.5 0 0 1 .68.17zm-76 1.93l-3.92-2.26a.5.5 0 1 0-.5.87L21 62a.49.49 0 0 0 .25.07.5.5 0 0 0 .25-.93zM85 14a5 5 0 0 0-5 5 .5.5 0 0 0 1 0 4 4 0 0 1 4-4 .5.5 0 0 0 0-1zm22 31.66v9.69a1.74 1.74 0 0 1-1.78 1.65H92.5a.5.5 0 0 1 0-1h12.72a.75.75 0 0 0 .81-.66v-9.68a.75.75 0 0 0-.81-.66H92.5a.5.5 0 0 1 0-1H97v-.53A1.47 1.47 0 0 1 98.48 42h3.06a1.47 1.47 0 0 1 1.46 1.47V44h2.2a1.74 1.74 0 0 1 1.8 1.66zM98 44h4v-.53a.47.47 0 0 0-.47-.47h-3.05a.47.47 0 0 0-.47.47zM18 26c2.76 0 5 2.69 5 6s-2.24 6-5 6-5-2.69-5-6 2.24-6 5-6zm0 1c-2.21 0-4 2.24-4 5s1.79 5 4 5 4-2.24 4-5-1.79-5-4-5zm50.68 55.13l-9.54 5.45a3.31 3.31 0 0 1-3.28 0l-9.54-5.45a.5.5 0 0 0-.5.87l9.54 5.45a4.32 4.32 0 0 0 4.27 0L69.18 83a.5.5 0 1 0-.5-.87zM23.54 53.47A4.72 4.72 0 0 0 21.4 53a5.31 5.31 0 0 0-4.1 2 5.4 5.4 0 0 1-4.1 2 4.75 4.75 0 0 1-3.2-1.16V29.5a17.5 17.5 0 0 1 33-8.16.5.5 0 1 0 .88-.47A18.5 18.5 0 0 0 9 29.5v26.8l.17.15a5.83 5.83 0 0 0 4 1.55A6.4 6.4 0 0 0 18 55.72 4.38 4.38 0 0 1 21.4 54a3.67 3.67 0 0 1 1.7.37.5.5 0 1 0 .45-.9zM32 26a5.07 5.07 0 0 0-4.65 3.79.5.5 0 0 0 .32.63h.16a.5.5 0 0 0 .47-.34A4.1 4.1 0 0 1 32 27a3.26 3.26 0 0 1 1.18.22.5.5 0 0 0 .36-.93A4.24 4.24 0 0 0 32 26zM6.75 52.58l-4.1-2.37A3.3 3.3 0 0 1 1 47.36V18.65a3.31 3.31 0 0 1 1.65-2.86L27.51 1.44a3.28 3.28 0 0 1 3.3 0l21.87 12.64a.5.5 0 1 0 .5-.87L31.31.57a4.32 4.32 0 0 0-4.3 0L2.15 14.92A4.31 4.31 0 0 0 0 18.65v28.71a4.31 4.31 0 0 0 2.15 3.72l4.1 2.37a.49.49 0 0 0 .25.07.5.5 0 0 0 .25-.93zM49 60.1v2.8a1.1 1.1 0 0 1-1.1 1.1H45v2.9a1.1 1.1 0 0 1-1.1 1.1h-2.8a1.1 1.1 0 0 1-1.1-1.1V64h-2.9a1.1 1.1 0 0 1-1.1-1.1v-2.8a1.1 1.1 0 0 1 1.1-1.1H40v-2.9a1.1 1.1 0 0 1 1.1-1.1h2.8a1.1 1.1 0 0 1 1.1 1.1V59h2.9a1.1 1.1 0 0 1 1.1 1.1zm-1 0a.1.1 0 0 0-.1-.1H44v-3.9a.1.1 0 0 0-.1-.1h-2.8a.1.1 0 0 0-.1.1V60h-3.9a.1.1 0 0 0-.1.1v2.8a.1.1 0 0 0 .1.1H41v3.9a.1.1 0 0 0 .1.1h2.8a.1.1 0 0 0 .1-.1V63h3.9a.1.1 0 0 0 .1-.1zm64.85-45.17L88 .57a4.31 4.31 0 0 0-4.3 0L61.83 13.21a.5.5 0 1 0 .5.87L84.19 1.44a3.32 3.32 0 0 1 3.3 0l24.86 14.35a3.31 3.31 0 0 1 1.65 2.86v28.71a3.31 3.31 0 0 1-1.65 2.86L109.29 52a.5.5 0 0 0 .5.87l3.06-1.78a4.31 4.31 0 0 0 2.15-3.73V18.65a4.31 4.31 0 0 0-2.15-3.72zM78 57a3 3 0 1 1-3-3 3 3 0 0 1 3 3zm-1 0a2 2 0 1 0-2 2 2 2 0 0 0 2-2zm10.86-24.28L59.64 16.59a4.32 4.32 0 0 0-4.27 0L27.14 32.72A4.24 4.24 0 0 0 25 36.39v32.26a4.24 4.24 0 0 0 2.14 3.67l.39.22a.5.5 0 1 0 .49-.87l-.39-.22a3.24 3.24 0 0 1-1.63-2.8V36.39a3.24 3.24 0 0 1 1.64-2.8l28.22-16.13a3.31 3.31 0 0 1 3.28 0l28.22 16.13a3.24 3.24 0 0 1 1.64 2.8v32.26a3.24 3.24 0 0 1-1.64 2.8l-1 .55a.5.5 0 0 0 .5.87l1-.55A4.24 4.24 0 0 0 90 68.65V36.39a4.24 4.24 0 0 0-2.14-3.67zM85 66.3c0 6.79.07 13.21-2.71 16a4.88 4.88 0 0 1-3.6 1.41c-4.89 0-10.86-5-14-11.71H50.15c-3 6.59-9 11.71-13.85 11.71a4.93 4.93 0 0 1-3.63-1.42c-2.73-2.74-2.69-9-2.66-15.7V64.5a.74.74 0 0 1 0-.14v-4.3A15.24 15.24 0 0 1 45.38 45H57a.46.46 0 0 1 0-.05 8.21 8.21 0 0 1 8.2-8.2.5.5 0 0 1 0 1 7.21 7.21 0 0 0-7.2 7.2.46.46 0 0 1 0 .05h11.6A15.24 15.24 0 0 1 85 60.05v6.25zm-1 0v-6.25A14.24 14.24 0 0 0 69.6 46H45.38A14.24 14.24 0 0 0 31 60.05v4.3a.76.76 0 0 1 0 .13v2.12c0 6.45-.06 12.54 2.37 15a3.91 3.91 0 0 0 2.92 1.12c4.57 0 10.31-5 13.06-11.41l.13-.3h15.89l.13.29c2.89 6.4 8.69 11.42 13.2 11.42a3.87 3.87 0 0 0 2.89-1.12c2.48-2.5 2.41-9 2.41-15.29zM93 19a8 8 0 0 1-5 7.42.47.47 0 0 1 0 .08v3a.5.5 0 0 1-1 0v-2.77a7.73 7.73 0 0 1-4 0V27a.5.5 0 0 1-1 0v-.5a.47.47 0 0 1 0-.08A8 8 0 1 1 93 19zm-1 0a7 7 0 1 0-7 7 7 7 0 0 0 7-7zM69 61a3 3 0 1 1-3-3 3 3 0 0 1 3 3zm-1 0a2 2 0 1 0-2 2 2 2 0 0 0 2-2z"/></g></svg>