<svg xmlns="http://www.w3.org/2000/svg" viewBox="0 0 115 93" preserveAspectRatio="xMinYMin"><defs><style>.cls-1,.cls-2{fill:#5bc0ff}.cls-1{opacity:.2}</style></defs><title>img_forum-on-dark</title><g id="Layer_15" data-name="Layer 15"><path class="cls-1" d="M16.45 37.62a3.88 3.88 0 0 0 3.4 4.57l2 .21a.21.21 0 0 1 .18.21v1.12a.22.22 0 0 1-.23.21l-2.44-.27a3.89 3.89 0 0 0-3.17 1.13A4.12 4.12 0 0 0 15 47.31l-.46 4.36a4.08 4.08 0 0 0 3.63 4.5l2.88.31a1 1 0 0 1 .92 1v11.17a7.36 7.36 0 0 0 .28 2l-.27.48-11.06 6.34s-1.24.75-1.87.48a2 2 0 0 1-.92-.9c-.32-.7.25-1.44.56-2.09l7.08-12.36-.27-.85-13.1-7.6a3.79 3.79 0 0 1-1.9-3.29V22.15a3.8 3.8 0 0 1 1.9-3.29l4.16-2.4c0 .15-.09.28-.13.44a3.92 3.92 0 0 0 1.86 4.39 4 4 0 0 0 1.56.47l4.7.5a3.89 3.89 0 0 0 4.1-2.66 8.74 8.74 0 0 1 1.5-2.77c.91-1.14 2.33-1.6 4.33-1.39s3.39.85 4 1.87a6.28 6.28 0 0 1 .79 3.81 5.26 5.26 0 0 1-1.39 3 7 7 0 0 1-1.76 1.44l-2.59 1.61c-2.81 1.75-4.59 3.38-5.44 5a19.81 19.81 0 0 0-1.64 5.45zm26-17.43a.2.2 0 0 0 .3.18L50.34 16a.21.21 0 0 0 0-.36L31.06 4.51a3.79 3.79 0 0 0-3.8 0l-.26.17a21.34 21.34 0 0 1 11 5 13.22 13.22 0 0 1 4.41 10.51zm41.06-1.73a3.11 3.11 0 0 1-.11-.53L81.84 7.79a4.48 4.48 0 0 1 .26-2.22L64.35 15.83l21.83 12.48zm-47 46.05a2.1 2.1 0 0 1 .19.47 2.53 2.53 0 0 1-.15 2.5A13.87 13.87 0 0 0 32.94 72l1.07.65a13.83 13.83 0 0 1 3.39-4.18 2.56 2.56 0 0 0 .16-2.5 2.69 2.69 0 0 0-1.1-1.46zm53-24.14v31.26a3.7 3.7 0 0 1-1.63 3.07.91.91 0 0 1-.24.16.87.87 0 0 1-.23.16L59.6 90.91a4.22 4.22 0 0 1-4.2 0L27.6 75a4.39 4.39 0 0 1-.84-.63.41.41 0 0 1-.11-.07 3.71 3.71 0 0 1-1.15-2.69v-.09a.66.66 0 0 1 0-.14v-4a.66.66 0 0 0 0 .14V40.37a3.73 3.73 0 0 1 1.89-3.24L55.61 21a3.81 3.81 0 0 1 3.78 0l28.22 16.13a3.73 3.73 0 0 1 1.89 3.24zM88 44.6a3.56 3.56 0 0 0-2.76-3.52 3.43 3.43 0 0 0-.71-.08 1.49 1.49 0 0 0-1.23-1.69 1.43 1.43 0 0 0-.15-.83 1.51 1.51 0 0 0-2-.67 7.37 7.37 0 0 0-3.16 3 1.49 1.49 0 0 0 .58 2 1.42 1.42 0 0 0 .73.19h.14a1.53 1.53 0 0 0 .83 1.09 1.61 1.61 0 0 0 .64.14H81a1.92 1.92 0 0 0 0 .24v1.34c0 2.18 0 4.2-.1 6.06a.19.19 0 0 1-.38 0 23.61 23.61 0 0 0-46.68 5v7.25a2.34 2.34 0 0 1-.76 1.7 19.39 19.39 0 0 0-4.63 6.63l27 15.4a4.22 4.22 0 0 0 4.2 0l21.4-12.2V69.5a2.58 2.58 0 0 1 .74-1.77C88 61.39 88 53.22 88 44.6zm24.6-25.74L97.3 10l-.22-.12.92 5.88a4.73 4.73 0 0 1 0 .52l.67 21.47a4.42 4.42 0 0 1-3.77 4.52h-.2v.1l2.46-.37a4.44 4.44 0 0 1 5 3.72l.75 5a4.45 4.45 0 0 1-3.73 5l-5.35.8a5 5 0 0 1-.67 0h-.2v12a7.36 7.36 0 0 1-.28 2l.27.48 11.09 6.35s1.24.75 1.87.48a2 2 0 0 0 .92-.9c.32-.7-.25-1.44-.56-2.09L99.23 62.6l.27-.85 13.1-7.6a3.79 3.79 0 0 0 1.9-3.29V22.15a3.8 3.8 0 0 0-1.9-3.29zM84.68 41.52a2 2 0 0 1 .7 1.49c0 9.23 0 17.2-7.12 23.21a2.23 2.23 0 0 1-1.08.55 2.74 2.74 0 0 0 .82.84 2.15 2.15 0 0 0 1.29-.61c7.21-6.1 7.21-14.18 7.21-23.53a2 2 0 0 0-1.82-1.95z"/><path class="cls-2" d="M87.86 32.72L59.64 16.59a4.32 4.32 0 0 0-4.27 0L27.14 32.72A4.24 4.24 0 0 0 25 36.39v32.26a4.24 4.24 0 0 0 2.14 3.67l28.22 16.13a4.32 4.32 0 0 0 4.27 0l28.23-16.13A4.24 4.24 0 0 0 90 68.65V36.39a4.24 4.24 0 0 0-2.14-3.67zM89 68.65a3.24 3.24 0 0 1-1.64 2.8L59.14 87.59a3.31 3.31 0 0 1-3.28 0L27.64 71.45a3.24 3.24 0 0 1-1.64-2.8V36.39a3.24 3.24 0 0 1 1.64-2.8l28.22-16.14a3.31 3.31 0 0 1 3.28 0l28.22 16.14a3.24 3.24 0 0 1 1.64 2.8zM25.16 2.22a.5.5 0 0 1 .18-.68L27 .57a4.32 4.32 0 0 1 4.3 0l21.88 12.65a.5.5 0 0 1-.25.93.49.49 0 0 1-.25-.07L30.81 1.44a3.28 3.28 0 0 0-3.3 0l-1.67 1a.5.5 0 0 1-.68-.22zm-2.72 65.15a.5.5 0 0 1-.19.68L11.17 74.4a4 4 0 0 1-1.8.6 1.3 1.3 0 0 1-.52-.1 2.51 2.51 0 0 1-1.18-1.16A2.36 2.36 0 0 1 8 71.61l.19-.37 7-12.2-.14-.46-12.9-7.5A4.31 4.31 0 0 1 0 47.36V18.65a4.31 4.31 0 0 1 2.15-3.72l3.63-2.09a.5.5 0 1 1 .5.87l-3.63 2.08A3.3 3.3 0 0 0 1 18.65v28.71a3.3 3.3 0 0 0 1.65 2.86l13.1 7.6a.5.5 0 0 1 .23.28l.27.85a.5.5 0 0 1 0 .4L9.12 71.71c0 .1-.12.24-.2.38-.3.55-.49.94-.34 1.25a1.52 1.52 0 0 0 .66.65 2.54 2.54 0 0 0 1.41-.45l11.1-6.36a.5.5 0 0 1 .69.19zm-5.91-16.79a1.89 1.89 0 0 0 1.68 2.08l2.85.3A.5.5 0 0 1 21 54h-.05l-2.85-.3a2.89 2.89 0 0 1-2.56-3.18l.46-4.8a2.88 2.88 0 0 1 3.17-2.55l1.84.2a.5.5 0 0 1 .44.55.51.51 0 0 1-.55.44l-1.84-.2A1.88 1.88 0 0 0 17 45.83zm10.6-24.81l-2.58 1.62c-2.47 1.54-4.06 3-4.73 4.22a18.31 18.31 0 0 0-1.4 4.87 1.88 1.88 0 0 0 1.65 2.22l1 .11a.5.5 0 0 1-.05 1h-.06l-1-.11a2.88 2.88 0 0 1-2.53-3.4 18.89 18.89 0 0 1 1.5-5.15c.77-1.44 2.43-2.94 5.09-4.6l2.59-1.62a8 8 0 0 0 2-1.63 6.19 6.19 0 0 0 1.61-3.56 7.2 7.2 0 0 0-.91-4.4c-.75-1.34-2.31-2.13-4.73-2.4s-4.09.33-5.22 1.77a9.84 9.84 0 0 0-1.67 3.07 2.9 2.9 0 0 1-3 2l-4.78-.51a2.89 2.89 0 0 1-2.51-3.63c1.26-4.87 3.84-8.29 7.66-10.18a17.85 17.85 0 0 1 10.07-1.53 21.25 21.25 0 0 1 12.23 5c3.13 2.82 4.46 6.66 4 11.42a.48.48 0 0 1-.5.48.52.52 0 0 1-.5-.52c.47-4.49-.75-8-3.62-10.64A20.27 20.27 0 0 0 25 4.92a16.85 16.85 0 0 0-9.5 1.43c-3.55 1.76-6 5-7.14 9.54A1.89 1.89 0 0 0 10 18.26l4.78.51a1.88 1.88 0 0 0 2-1.29 10.86 10.86 0 0 1 1.83-3.38c1.31-1.72 3.39-2.44 6.08-2.1s4.58 1.27 5.48 2.88a8.18 8.18 0 0 1 1 5A7.15 7.15 0 0 1 29.35 24a9 9 0 0 1-2.22 1.78zM93.2 3.21a1.94 1.94 0 0 0-1.44-.35l-5.82.87a1.93 1.93 0 0 0-1.27.76 1.91 1.91 0 0 0-.36 1.43l1.52 10.15a1 1 0 0 0 0 .22l3.36 12.21a.5.5 0 0 1-1 .27l-3.36-12.2a2 2 0 0 1-.08-.37L83.33 6.06a2.93 2.93 0 0 1 2.47-3.33l5.82-.87A2.93 2.93 0 0 1 95 4.32l1.52 10.15a3.39 3.39 0 0 1 0 .36l.67 21.45a2.93 2.93 0 0 1-2.5 3l-.6.09H94a.5.5 0 0 1-.07-1l.6-.09a1.93 1.93 0 0 0 1.64-2l-.67-21.43a2.25 2.25 0 0 0 0-.23L94 4.47a1.92 1.92 0 0 0-.8-1.26zm7.27 46.42l-.75-5a1.94 1.94 0 0 0-.72-1.28 1.9 1.9 0 0 0-1.46-.35l-3.46.52a.5.5 0 0 1-.15-1l3.46-.52a2.89 2.89 0 0 1 2.16.54 2.92 2.92 0 0 1 1.16 1.93l.75 5a2.9 2.9 0 0 1-.54 2.18A2.93 2.93 0 0 1 99 52.81l-4.92.74H94a.5.5 0 0 1-.07-1l4.92-.74a1.93 1.93 0 0 0 1.63-2.18zm14.52-31v28.73a4.31 4.31 0 0 1-2.15 3.72l-12.93 7.5-.14.46 7 12.17.21.4a2.36 2.36 0 0 1 .37 2.14 2.51 2.51 0 0 1-1.18 1.15 1.3 1.3 0 0 1-.52.1 4.07 4.07 0 0 1-1.81-.61l-11.1-6.34a.5.5 0 1 1 .5-.87l11.09 6.35a2.49 2.49 0 0 0 1.43.45 1.52 1.52 0 0 0 .66-.64c.14-.32 0-.7-.34-1.26l-.21-.41-7.07-12.33a.5.5 0 0 1 0-.4l.2-.84a.5.5 0 0 1 .23-.28l13.1-7.6a3.3 3.3 0 0 0 1.67-2.86V18.65a3.3 3.3 0 0 0-1.65-2.86L97 7a.5.5 0 1 1 .5-.87l15.3 8.83a4.3 4.3 0 0 1 2.2 3.69zM61.64 13.9a.5.5 0 0 1 .18-.68L83.69.57a4.25 4.25 0 0 1 3-.48.5.5 0 0 1-.21 1 3.26 3.26 0 0 0-2.33.36L62.32 14.08a.49.49 0 0 1-.25.07.5.5 0 0 1-.43-.25zm.58 43.1h-9.44a1.23 1.23 0 0 0-.93.43 1.2 1.2 0 0 0-.28 1 6 6 0 0 0 11.87 0 1.2 1.2 0 0 0-.28-1 1.23 1.23 0 0 0-.94-.43zm-4.72 5.5a5 5 0 0 1-4.95-4.26.2.2 0 0 1 0-.16.23.23 0 0 1 .17-.08h9.45a.23.23 0 0 1 .17.08.21.21 0 0 1 0 .16 5 5 0 0 1-4.84 4.26zm12.5-10a.5.5 0 0 1-1 0 2.5 2.5 0 0 0-5 0 .5.5 0 0 1-1 0 3.5 3.5 0 0 1 7 0zm-18.5.5a.5.5 0 0 1-.5-.5 2.5 2.5 0 0 0-5 0 .5.5 0 0 1-1 0 3.5 3.5 0 0 1 7 0 .5.5 0 0 1-.5.5zm33-12a2.5 2.5 0 0 0-2.5 2.5v1.34c0 5.85 0 10.52-2 14.36V56c0-12.68-10.09-23-22.5-23S35 43.31 35 56v8.52l-.28.22a18.76 18.76 0 0 0-4.6 5.65.5.5 0 0 0 .88.47 17.81 17.81 0 0 1 4.36-5.36 1.8 1.8 0 0 1 .84-.5 2.24 2.24 0 0 1 .8 1.19 2 2 0 0 1-.07 1.94 14.08 14.08 0 0 0-3.42 4.2.5.5 0 0 0 .88.47c.19-.35.39-.69.61-1v1.7a.5.5 0 0 0 1 0v-3a14.45 14.45 0 0 1 1.62-1.61l.08-.09a3 3 0 0 0 .24-2.93 3.14 3.14 0 0 0-1.33-1.76l-.13-.11h-.14a1.79 1.79 0 0 0-.34 0v-8c0-12.13 9.64-22 21.5-22S79 43.87 79 56v4.8a14 14 0 0 1-2.28 2.44l-.08.09a3 3 0 0 0-.23 2.93A3.15 3.15 0 0 0 77.73 68l.12.08H78a2.15 2.15 0 0 0 1-.29v5.66a.5.5 0 0 0 1 0v-6.34c7-6.2 7-14.26 7-23.56A2.5 2.5 0 0 0 84.5 41zM79 66.64a1.9 1.9 0 0 1-.83.45 2.21 2.21 0 0 1-.8-1.18 2 2 0 0 1 .04-1.91C83 59.18 83 52.84 83 44.84V43.5a1.5 1.5 0 0 1 3 0c0 9.22 0 17.19-7 23.14zm3.9-27.33a.5.5 0 0 1 .35.94 3.44 3.44 0 0 0-1.9 1.75.5.5 0 0 1-.9-.43 4.39 4.39 0 0 1 2.42-2.26zm-4 1a6.4 6.4 0 0 1 2.74-2.61.5.5 0 1 1 .45.9 5.39 5.39 0 0 0-2.31 2.2.5.5 0 1 1-.87-.49z"/><path class="cls-1" d="M89.51 68.4v4a.66.66 0 0 1 0 .14v-4a.66.66 0 0 0 0-.14z"/></g></svg>