<svg xmlns="http://www.w3.org/2000/svg" xmlns:xlink="http://www.w3.org/1999/xlink" width="1080" zoomAndPan="magnify" viewBox="0 0 810 809.999993" height="1080" preserveAspectRatio="xMidYMid meet" version="1.0"><defs><clipPath id="08e0e3b30a"><path d="M 105.261719 56.214844 L 704.511719 56.214844 L 704.511719 753.710938 L 105.261719 753.710938 Z M 105.261719 56.214844 " clip-rule="nonzero"/></clipPath><clipPath id="3a5a9e195f"><path d="M 404.996094 56.214844 L 704.734375 230.605469 L 704.734375 579.390625 L 404.996094 753.78125 L 105.261719 579.390625 L 105.261719 230.605469 Z M 404.996094 56.214844 " clip-rule="nonzero"/></clipPath></defs><g clip-path="url(#08e0e3b30a)"><g clip-path="url(#3a5a9e195f)"><path stroke-linecap="butt" transform="matrix(0.75, 0, 0, 0.75, 105.260439, 56.212176)" fill="none" stroke-linejoin="miter" d="M 399.647585 0.0035565 L 799.298673 232.524416 L 799.298673 697.571345 L 399.647585 930.092204 L 0.00170633 697.571345 L 0.00170633 232.524416 Z M 399.647585 0.0035565 " stroke="#ffffff" stroke-width="100" stroke-opacity="1" stroke-miterlimit="4"/></g></g><path stroke-linecap="round" transform="matrix(0.749736, -0.0198827, 0.0198827, 0.749736, 250.018849, 307.383285)" fill="none" stroke-linejoin="miter" d="M 23.060212 45.22035 C 60.44543 6.234196 97.827635 6.261678 135.212031 45.302933 " stroke="#ffffff" stroke-width="32" stroke-opacity="1" stroke-miterlimit="4"/><path stroke-linecap="round" transform="matrix(0.749736, -0.0198827, 0.0198827, 0.749736, 440.040917, 307.407398)" fill="none" stroke-linejoin="miter" d="M 23.06206 45.219498 C 60.447279 6.233345 97.829483 6.260826 135.208673 45.301943 " stroke="#ffffff" stroke-width="32" stroke-opacity="1" stroke-miterlimit="4"/></svg>