<svg xmlns="http://www.w3.org/2000/svg" xmlns:xlink="http://www.w3.org/1999/xlink" width="1080" zoomAndPan="magnify" viewBox="0 0 810 809.999993" height="1080" preserveAspectRatio="xMidYMid meet" version="1.0"><defs><clipPath id="22d79ca375"><path d="M 105.261719 56.214844 L 704.511719 56.214844 L 704.511719 753.710938 L 105.261719 753.710938 Z M 105.261719 56.214844 " clip-rule="nonzero"/></clipPath><clipPath id="28cdf1739a"><path d="M 404.996094 56.214844 L 704.734375 230.605469 L 704.734375 579.390625 L 404.996094 753.78125 L 105.261719 579.390625 L 105.261719 230.605469 Z M 404.996094 56.214844 " clip-rule="nonzero"/></clipPath></defs><g clip-path="url(#22d79ca375)"><g clip-path="url(#28cdf1739a)"><path stroke-linecap="butt" transform="matrix(0.75, 0, 0, 0.75, 105.260439, 56.212176)" fill="none" stroke-linejoin="miter" d="M 399.647585 0.0035565 L 799.298673 232.524416 L 799.298673 697.571345 L 399.647585 930.092204 L 0.00170633 697.571345 L 0.00170633 232.524416 Z M 399.647585 0.0035565 " stroke="#ffffff" stroke-width="100" stroke-opacity="1" stroke-miterlimit="4"/></g></g><path stroke-linecap="butt" transform="matrix(0.649019, 0.375864, -0.375864, 0.649019, 129.614675, 233.38574)" fill="none" stroke-linejoin="miter" d="M -0.000739239 14.001423 L 432.418748 14.001832 " stroke="#ffffff" stroke-width="28" stroke-opacity="1" stroke-miterlimit="4"/><path stroke-linecap="butt" transform="matrix(0.64895, -0.375984, 0.375984, 0.64895, 399.735511, 395.91211)" fill="none" stroke-linejoin="miter" d="M 0.00170934 13.99896 L 432.278863 14.001699 " stroke="#ffffff" stroke-width="28" stroke-opacity="1" stroke-miterlimit="4"/><path stroke-linecap="butt" transform="matrix(0.000000001309, 0.75, -0.75, 0.000000001309, 415.499983, 405)" fill="none" stroke-linejoin="miter" d="M 0.000000475566 13.999977 L 432.000022 13.999978 " stroke="#ffffff" stroke-width="28" stroke-opacity="1" stroke-miterlimit="4"/><path stroke-linecap="round" transform="matrix(0.634019, 0.40065, -0.40065, 0.634019, 186.201424, 359.370588)" fill="none" stroke-linejoin="miter" d="M 19.089027 38.705474 C 38.767289 4.688034 69.991786 5.799597 112.774104 42.039 " stroke="#ffffff" stroke-width="28" stroke-opacity="1" stroke-miterlimit="4"/><path stroke-linecap="round" transform="matrix(0.634019, 0.40065, -0.40065, 0.634019, 302.681179, 419.952959)" fill="none" stroke-linejoin="miter" d="M 19.089588 38.704583 C 38.763448 4.689925 69.992347 5.798705 112.774665 42.038109 " stroke="#ffffff" stroke-width="28" stroke-opacity="1" stroke-miterlimit="4"/></svg>