<?xml version="1.0" encoding="UTF-8" standalone="no"?>
<!DOCTYPE svg PUBLIC "-//W3C//DTD SVG 1.1//EN" "http://www.w3.org/Graphics/SVG/1.1/DTD/svg11.dtd">
<svg width="100%" height="100%" viewBox="0 0 61 61" version="1.1" xmlns="http://www.w3.org/2000/svg" xmlns:xlink="http://www.w3.org/1999/xlink" xml:space="preserve" xmlns:serif="http://www.serif.com/" style="fill-rule:evenodd;clip-rule:evenodd;stroke-linejoin:round;stroke-miterlimit:2;">
    <path d="M57.742,18.072C57.205,16.842 56.588,15.654 55.896,14.515C55.298,13.529 54.644,12.579 53.939,11.671C53.238,10.767 51.935,10.603 51.031,11.306C50.127,12.007 49.963,13.31 50.664,14.214C51.271,14.997 51.836,15.816 52.352,16.665C52.948,17.647 53.481,18.671 53.944,19.731C55.335,22.913 56.106,26.422 56.106,30.126C56.106,37.306 53.202,43.788 48.497,48.495C43.79,53.2 37.308,56.104 30.126,56.106C22.946,56.104 16.464,53.2 11.757,48.495C7.052,43.788 4.148,37.306 4.147,30.126C4.148,22.944 7.052,16.462 11.757,11.755C16.464,7.05 22.946,4.146 30.126,4.146C31.864,4.146 33.558,4.316 35.196,4.64C36.319,4.863 37.411,4.132 37.632,3.007C37.854,1.885 37.123,0.795 36,0.574C34.098,0.197 32.133,-0 30.125,-0C13.486,0.002 0.002,13.488 0,30.127C0.002,46.766 13.486,60.25 30.125,60.252C46.764,60.25 60.25,46.766 60.252,30.127C60.252,25.848 59.357,21.764 57.742,18.072ZM42.346,7.193C43.612,7.869 44.815,8.646 45.946,9.515C46.321,9.804 46.766,9.945 47.208,9.945C47.829,9.945 48.444,9.666 48.853,9.134C49.55,8.226 49.38,6.925 48.472,6.228C47.163,5.22 45.767,4.32 44.3,3.537C43.29,2.996 42.034,3.379 41.495,4.389C40.956,5.399 41.336,6.654 42.346,7.193Z" style="fill:white;fill-rule:nonzero;"/>
    <path d="M42.064,29.188C41.099,28.223 39.537,28.223 38.574,29.188L32.594,35.167L32.594,19.127C32.594,17.764 31.489,16.66 30.125,16.66C28.763,16.66 27.658,17.764 27.658,19.127L27.658,35.166L21.678,29.187C20.715,28.222 19.153,28.222 18.188,29.187C17.224,30.15 17.224,31.712 18.188,32.677L28.381,42.87C28.383,42.872 28.386,42.874 28.388,42.876C28.414,42.903 28.442,42.929 28.469,42.954C28.471,42.954 28.471,42.956 28.473,42.958C28.487,42.97 28.5,42.981 28.514,42.993C28.53,43.005 28.545,43.018 28.561,43.032C28.563,43.034 28.566,43.036 28.569,43.038C28.585,43.052 28.602,43.065 28.618,43.077C28.631,43.087 28.643,43.097 28.655,43.106C28.659,43.108 28.663,43.112 28.667,43.114C28.679,43.124 28.69,43.132 28.702,43.139C28.708,43.143 28.715,43.147 28.721,43.151C28.732,43.159 28.742,43.167 28.753,43.174C28.759,43.178 28.764,43.182 28.769,43.186C28.787,43.198 28.804,43.207 28.822,43.217L28.822,43.219C28.834,43.225 28.844,43.233 28.855,43.239L28.873,43.251C28.891,43.261 28.908,43.271 28.926,43.28C28.938,43.286 28.949,43.292 28.961,43.3C28.98,43.31 29,43.32 29.02,43.329C29.037,43.337 29.053,43.347 29.071,43.354C29.083,43.36 29.094,43.366 29.106,43.37C29.168,43.399 29.233,43.425 29.298,43.448C29.303,43.45 29.307,43.452 29.312,43.454C29.333,43.462 29.352,43.468 29.373,43.474C29.394,43.482 29.415,43.488 29.436,43.494C29.45,43.498 29.465,43.502 29.481,43.506C29.503,43.514 29.526,43.518 29.549,43.524C29.553,43.526 29.557,43.526 29.561,43.528C29.59,43.534 29.62,43.542 29.649,43.548C29.651,43.548 29.655,43.548 29.657,43.55C29.684,43.554 29.712,43.56 29.739,43.564C29.751,43.566 29.762,43.568 29.774,43.57C29.803,43.574 29.833,43.578 29.864,43.58C29.872,43.582 29.878,43.582 29.885,43.584C29.918,43.586 29.953,43.59 29.987,43.592L30.01,43.592C30.045,43.594 30.082,43.596 30.119,43.596L30.139,43.596C30.176,43.596 30.213,43.594 30.252,43.592L30.266,43.592C30.299,43.59 30.332,43.588 30.364,43.584C30.372,43.584 30.38,43.582 30.387,43.582C30.422,43.578 30.453,43.574 30.487,43.568C30.499,43.568 30.51,43.566 30.522,43.564C30.553,43.558 30.584,43.552 30.616,43.546C30.628,43.544 30.637,43.542 30.647,43.538C30.672,43.534 30.698,43.528 30.723,43.522C30.733,43.518 30.744,43.516 30.754,43.514C30.785,43.504 30.816,43.496 30.848,43.487C30.858,43.483 30.868,43.481 30.877,43.477C30.91,43.467 30.941,43.456 30.975,43.446C30.977,43.444 30.981,43.442 30.985,43.442C31.016,43.428 31.047,43.417 31.079,43.405C31.085,43.401 31.091,43.399 31.095,43.397C31.13,43.383 31.163,43.368 31.197,43.352C31.199,43.35 31.201,43.35 31.203,43.348C31.273,43.315 31.342,43.278 31.408,43.237L31.41,43.237C31.476,43.196 31.541,43.153 31.603,43.104C31.605,43.104 31.607,43.102 31.609,43.102C31.668,43.057 31.726,43.01 31.783,42.959C31.787,42.955 31.791,42.949 31.795,42.945C31.822,42.922 31.85,42.896 31.875,42.871L42.068,32.678C43.027,31.713 43.027,30.15 42.064,29.188Z" style="fill:white;fill-rule:nonzero;"/>
</svg>
