<svg xmlns="http://www.w3.org/2000/svg" xmlns:xlink="http://www.w3.org/1999/xlink" width="1080" zoomAndPan="magnify" viewBox="0 0 810 809.999993" height="1080" preserveAspectRatio="xMidYMid meet" version="1.0"><defs><clipPath id="8866bc28e5"><path d="M 105.261719 56.214844 L 704.511719 56.214844 L 704.511719 753.710938 L 105.261719 753.710938 Z M 105.261719 56.214844 " clip-rule="nonzero"/></clipPath><clipPath id="67d2cfb860"><path d="M 404.996094 56.214844 L 704.734375 230.605469 L 704.734375 579.390625 L 404.996094 753.78125 L 105.261719 579.390625 L 105.261719 230.605469 Z M 404.996094 56.214844 " clip-rule="nonzero"/></clipPath><clipPath id="6d6a08d1eb"><path d="M 322.324219 257 L 560.074219 257 L 560.074219 553 L 322.324219 553 Z M 322.324219 257 " clip-rule="nonzero"/></clipPath><clipPath id="acd0ff6406"><path d="M 322.078125 364.664062 L 322.078125 445.328125 C 322.078125 468.617188 336.980469 489.296875 359.074219 496.660156 L 523.078125 551.328125 C 531.648438 554.183594 541.070312 552.746094 548.402344 547.464844 C 555.730469 542.179688 560.074219 533.695312 560.074219 524.660156 L 560.074219 285.332031 C 560.074219 276.292969 555.730469 267.808594 548.402344 262.527344 C 541.070312 257.246094 531.648438 255.808594 523.078125 258.664062 L 359.074219 313.332031 C 336.980469 320.695312 322.078125 341.371094 322.078125 364.664062 Z M 322.078125 364.664062 " clip-rule="nonzero"/></clipPath><clipPath id="05770404fb"><path d="M 322 245 L 461.222656 245 L 461.222656 565 L 322 565 Z M 322 245 " clip-rule="nonzero"/></clipPath><clipPath id="6354dd546c"><path d="M 322.074219 347 L 322.074219 463 C 322.074219 487.113281 335.007812 509.371094 355.957031 521.316406 L 427.34375 562.015625 C 434.355469 566.015625 442.964844 565.980469 449.945312 561.921875 C 456.925781 557.867188 461.222656 550.40625 461.222656 542.332031 L 461.222656 267.667969 C 461.222656 259.59375 456.925781 252.132812 449.945312 248.074219 C 442.964844 244.019531 434.355469 243.984375 427.34375 247.984375 L 355.957031 288.683594 C 335.007812 300.628906 322.074219 322.886719 322.074219 347 Z M 322.074219 347 " clip-rule="nonzero"/></clipPath><clipPath id="51a606f1b6"><path d="M 233.132812 265 L 345.632812 265 L 345.632812 545 L 233.132812 545 Z M 233.132812 265 " clip-rule="nonzero"/></clipPath><clipPath id="e12eecbaf4"><path d="M 345.703125 445.332031 L 345.703125 364.664062 C 345.703125 340.210938 333.8125 317.285156 313.824219 303.199219 L 265.011719 268.800781 C 258.835938 264.449219 250.75 263.898438 244.046875 267.378906 C 237.339844 270.855469 233.132812 277.777344 233.132812 285.332031 L 233.132812 524.664062 C 233.132812 532.21875 237.339844 539.140625 244.046875 542.617188 C 250.75 546.097656 258.835938 545.546875 265.011719 541.195312 L 313.824219 506.796875 C 333.8125 492.710938 345.703125 469.785156 345.703125 445.332031 Z M 345.703125 445.332031 " clip-rule="nonzero"/></clipPath></defs><g clip-path="url(#8866bc28e5)"><g clip-path="url(#67d2cfb860)"><path stroke-linecap="butt" transform="matrix(0.75, 0, 0, 0.75, 105.260439, 56.212176)" fill="none" stroke-linejoin="miter" d="M 399.647585 0.0035565 L 799.298673 232.524416 L 799.298673 697.571345 L 399.647585 930.092204 L 0.00170633 697.571345 L 0.00170633 232.524416 Z M 399.647585 0.0035565 " stroke="#ffffff" stroke-width="100" stroke-opacity="1" stroke-miterlimit="4"/></g></g><g clip-path="url(#6d6a08d1eb)"><g clip-path="url(#acd0ff6406)"><path stroke-linecap="butt" transform="matrix(0, 0.75, -0.75, 0, 560.074847, 246.329626)" fill="none" stroke-linejoin="miter" d="M 157.779267 317.328999 L 265.331362 317.328999 C 296.383449 317.328999 323.956369 297.459205 333.774078 268.000869 L 406.664712 49.328969 C 410.472004 37.901884 408.555337 25.339383 401.51367 15.56334 C 394.466794 5.792505 383.154292 0.000838098 371.107416 0.000838098 L 52.003213 0.000838098 C 39.951128 0.000838098 28.638627 5.792505 21.596959 15.56334 C 14.555292 25.339383 12.638625 37.901884 16.445917 49.328969 L 89.336551 268.000869 C 99.15426 297.459205 126.721971 317.328999 157.779267 317.328999 Z M 157.779267 317.328999 " stroke="#ffffff" stroke-width="64" stroke-opacity="1" stroke-miterlimit="4"/></g></g><g clip-path="url(#05770404fb)"><g clip-path="url(#6354dd546c)"><path stroke-linecap="butt" transform="matrix(0, 0.75, -0.75, 0, 461.222716, 228.667801)" fill="none" stroke-linejoin="miter" d="M 157.776283 185.531351 L 312.442967 185.531351 C 344.594013 185.531351 374.271099 168.286558 390.198185 140.354263 L 444.463816 45.17196 C 449.79715 35.823001 449.750275 24.343833 444.338816 15.03654 C 438.932565 5.729247 428.984647 0.000080062 418.219021 0.000080062 L 52.000229 0.000080062 C 41.234603 0.000080062 31.286685 5.729247 25.875226 15.03654 C 20.468976 24.343833 20.422101 35.823001 25.755435 45.17196 L 80.021066 140.354263 C 95.948151 168.286558 125.625238 185.531351 157.776283 185.531351 Z M 157.776283 185.531351 " stroke="#ffffff" stroke-width="64" stroke-opacity="1" stroke-miterlimit="4"/></g></g><g clip-path="url(#51a606f1b6)"><g clip-path="url(#e12eecbaf4)"><path stroke-linecap="butt" transform="matrix(0, -0.75, 0.75, 0, 233.131895, 563.664064)" fill="none" stroke-linejoin="miter" d="M 157.776051 150.094981 L 265.333348 150.094981 C 297.937517 150.094981 328.505226 134.240813 347.286477 107.58977 L 393.151063 42.506434 C 398.953147 34.272058 399.687522 23.490808 395.046896 14.553307 C 390.411479 5.610599 381.182312 0.00122337 371.109395 0.00122337 L 52.000004 0.00122337 C 41.927087 0.00122337 32.69792 5.610599 28.062503 14.553307 C 23.421878 23.490808 24.156253 34.272058 29.958336 42.506434 L 75.822922 107.58977 C 94.604173 134.240813 125.171883 150.094981 157.776051 150.094981 Z M 157.776051 150.094981 " stroke="#ffffff" stroke-width="64" stroke-opacity="1" stroke-miterlimit="4"/></g></g></svg>