<svg xmlns="http://www.w3.org/2000/svg" xmlns:xlink="http://www.w3.org/1999/xlink" width="1080" zoomAndPan="magnify" viewBox="0 0 810 809.999993" height="1080" preserveAspectRatio="xMidYMid meet" version="1.0"><defs><clipPath id="bc00674eab"><path d="M 105.261719 56.214844 L 704.511719 56.214844 L 704.511719 753.710938 L 105.261719 753.710938 Z M 105.261719 56.214844 " clip-rule="nonzero"/></clipPath><clipPath id="232c760469"><path d="M 404.996094 56.214844 L 704.734375 230.605469 L 704.734375 579.390625 L 404.996094 753.78125 L 105.261719 579.390625 L 105.261719 230.605469 Z M 404.996094 56.214844 " clip-rule="nonzero"/></clipPath><clipPath id="81ec86e435"><path d="M 278.71875 197.953125 L 556.21875 197.953125 L 556.21875 319.449219 L 278.71875 319.449219 Z M 278.71875 197.953125 " clip-rule="nonzero"/></clipPath><clipPath id="046306e290"><path d="M 556.160156 236.953125 L 556.160156 280.449219 C 556.160156 301.988281 538.699219 319.449219 517.160156 319.449219 L 317.714844 319.449219 C 296.175781 319.449219 278.71875 301.988281 278.71875 280.449219 L 278.71875 236.953125 C 278.71875 215.414062 296.175781 197.953125 317.714844 197.953125 L 517.160156 197.953125 C 538.699219 197.953125 556.160156 215.414062 556.160156 236.953125 Z M 556.160156 236.953125 " clip-rule="nonzero"/></clipPath><clipPath id="ed7fa4bd7d"><path d="M 203.636719 344.25 L 481.136719 344.25 L 481.136719 465.75 L 203.636719 465.75 Z M 203.636719 344.25 " clip-rule="nonzero"/></clipPath><clipPath id="d9099fe638"><path d="M 481.078125 383.25 L 481.078125 426.75 C 481.078125 448.289062 463.617188 465.75 442.078125 465.75 L 242.632812 465.75 C 221.09375 465.75 203.636719 448.289062 203.636719 426.75 L 203.636719 383.25 C 203.636719 361.710938 221.09375 344.25 242.632812 344.25 L 442.078125 344.25 C 463.617188 344.25 481.078125 361.710938 481.078125 383.25 Z M 481.078125 383.25 " clip-rule="nonzero"/></clipPath><clipPath id="ec0024eea9"><path d="M 278.71875 490.550781 L 556.21875 490.550781 L 556.21875 612.046875 L 278.71875 612.046875 Z M 278.71875 490.550781 " clip-rule="nonzero"/></clipPath><clipPath id="6be37305eb"><path d="M 556.160156 529.550781 L 556.160156 573.046875 C 556.160156 594.585938 538.699219 612.046875 517.160156 612.046875 L 317.714844 612.046875 C 296.175781 612.046875 278.71875 594.585938 278.71875 573.046875 L 278.71875 529.550781 C 278.71875 508.011719 296.175781 490.550781 317.714844 490.550781 L 517.160156 490.550781 C 538.699219 490.550781 556.160156 508.011719 556.160156 529.550781 Z M 556.160156 529.550781 " clip-rule="nonzero"/></clipPath></defs><g clip-path="url(#bc00674eab)"><g clip-path="url(#232c760469)"><path stroke-linecap="butt" transform="matrix(0.75, 0, 0, 0.75, 105.260439, 56.212176)" fill="none" stroke-linejoin="miter" d="M 399.647585 0.0035565 L 799.298673 232.524416 L 799.298673 697.571345 L 399.647585 930.092204 L 0.00170633 697.571345 L 0.00170633 232.524416 Z M 399.647585 0.0035565 " stroke="#ffffff" stroke-width="100" stroke-opacity="1" stroke-miterlimit="4"/></g></g><g clip-path="url(#81ec86e435)"><g clip-path="url(#046306e290)"><path stroke-linecap="butt" transform="matrix(0.75, 0, 0, 0.75, 278.71701, 197.950733)" fill="none" stroke-linejoin="miter" d="M 369.924213 52.003192 L 369.924213 109.997986 C 369.924213 138.716738 346.642962 161.997989 317.924211 161.997989 L 51.997114 161.997989 C 23.278362 161.997989 0.00231963 138.716738 0.00231963 109.997986 L 0.00231963 52.003192 C 0.00231963 23.28444 23.278362 0.00318901 51.997114 0.00318901 L 317.924211 0.00318901 C 346.642962 0.00318901 369.924213 23.28444 369.924213 52.003192 Z M 369.924213 52.003192 " stroke="#ffffff" stroke-width="64" stroke-opacity="1" stroke-miterlimit="4"/></g></g><g clip-path="url(#ed7fa4bd7d)"><g clip-path="url(#d9099fe638)"><path stroke-linecap="butt" transform="matrix(0.75, 0, 0, 0.75, 203.635217, 344.250003)" fill="none" stroke-linejoin="miter" d="M 369.923896 51.999999 L 369.923896 110.000002 C 369.923896 138.718753 346.642644 162.000005 317.923893 162.000005 L 51.996796 162.000005 C 23.278045 162.000005 0.00200199 138.718753 0.00200199 110.000002 L 0.00200199 51.999999 C 0.00200199 23.281248 23.278045 -0.000003575 51.996796 -0.000003575 L 317.923893 -0.000003575 C 346.642644 -0.000003575 369.923896 23.281248 369.923896 51.999999 Z M 369.923896 51.999999 " stroke="#ffffff" stroke-width="64" stroke-opacity="1" stroke-miterlimit="4"/></g></g><g clip-path="url(#ec0024eea9)"><g clip-path="url(#6be37305eb)"><path stroke-linecap="butt" transform="matrix(0.75, 0, 0, 0.75, 278.71701, 490.549243)" fill="none" stroke-linejoin="miter" d="M 369.924213 52.002053 L 369.924213 109.996848 C 369.924213 138.715599 346.642962 161.99685 317.924211 161.99685 L 51.997114 161.99685 C 23.278362 161.99685 0.00231963 138.715599 0.00231963 109.996848 L 0.00231963 52.002053 C 0.00231963 23.283302 23.278362 0.00205057 51.997114 0.00205057 L 317.924211 0.00205057 C 346.642962 0.00205057 369.924213 23.283302 369.924213 52.002053 Z M 369.924213 52.002053 " stroke="#ffffff" stroke-width="64" stroke-opacity="1" stroke-miterlimit="4"/></g></g></svg>