<svg xmlns="http://www.w3.org/2000/svg" viewBox="0 0 32 32"><defs><style>.cls-1{opacity:0.3;}</style></defs><title>i-</title><g id="OUTLINES"><path d="M30,5a3,3,0,0,1-3-3,1.5,1.5,0,0,0-3,0,3,3,0,0,1-3,3,1.5,1.5,0,0,0,0,3,3,3,0,0,1,3,3,1.5,1.5,0,0,0,3,0,3,3,0,0,1,3-3,1.5,1.5,0,0,0,0-3Zm0,2a4,4,0,0,0-4,4,.5.5,0,0,1-1,0,4,4,0,0,0-4-4,.5.5,0,0,1,0-1,4,4,0,0,0,4-4,.5.5,0,0,1,1,0,4,4,0,0,0,4,4,.5.5,0,0,1,0,1ZM26.5,25A1.5,1.5,0,0,1,25,23.5a1.5,1.5,0,0,0-3,0A1.5,1.5,0,0,1,20.5,25a1.5,1.5,0,0,0,0,3A1.5,1.5,0,0,1,22,29.5a1.5,1.5,0,0,0,3,0A1.5,1.5,0,0,1,26.5,28a1.5,1.5,0,0,0,0-3Zm0,2A2.5,2.5,0,0,0,24,29.5a.5.5,0,0,1-1,0A2.5,2.5,0,0,0,20.5,27a.5.5,0,0,1,0-1A2.5,2.5,0,0,0,23,23.5a.5.5,0,0,1,1,0A2.5,2.5,0,0,0,26.5,26a.5.5,0,0,1,0,1ZM24,17a3,3,0,0,0-3-3,6,6,0,0,1-6-6A3,3,0,0,0,9,8a6,6,0,0,1-6,6,3,3,0,0,0,0,6,6,6,0,0,1,6,6,3,3,0,0,0,6,0,6,6,0,0,1,6-6A3,3,0,0,0,24,17ZM13,26a1,1,0,0,1-2,0,8,8,0,0,0-8-8,1,1,0,0,1,0-2,8,8,0,0,0,8-8,1,1,0,0,1,2,0,8,8,0,0,0,8,8,1,1,0,0,1,0,2A8,8,0,0,0,13,26Z"/></g><g id="SHADING"><path class="cls-1" d="M12,6c0,11,0,11-11,11a2,2,0,0,1,2-2,7,7,0,0,0,7-7A2,2,0,0,1,12,6ZM24.5,2A3.5,3.5,0,0,1,21,5.5a1,1,0,0,0-1,1c5.51,0,5.5,0,5.5-5.5A1,1,0,0,0,24.5,2ZM22.77,23.23a2.54,2.54,0,0,1-2.54,2.54.73.73,0,0,0-.73.73c4,0,4,0,4-4A.73.73,0,0,0,22.77,23.23Z"/></g></svg>