<svg xmlns="http://www.w3.org/2000/svg" viewBox="0 0 64 64"><defs><style>.cls-1{opacity:0.2;}</style></defs><title>i-</title><g id="OUTLINES"><path d="M57,23.16a9,9,0,0,0-12.38,3,31.78,31.78,0,0,0-2,4,6.59,6.59,0,0,1-1.77-4.29.52.52,0,0,0-.54-.46.51.51,0,0,0-.46.54,7.62,7.62,0,0,0,2.36,5.22A34.47,34.47,0,0,0,41,34.76a11.09,11.09,0,0,1-2.48-2.41.5.5,0,1,0-.8.6,12.06,12.06,0,0,0,3,2.87,55.85,55.85,0,0,0-1.17,9.53,9,9,0,0,0,2.9,7.07,11,11,0,0,0-1.25,6.49.5.5,0,0,0,.49.46h0a.5.5,0,0,0,.45-.54,10.05,10.05,0,0,1,1.06-5.76,8.88,8.88,0,0,0,4.84,1.72l.46,0a8.81,8.81,0,0,0,2.91-.5,10.66,10.66,0,0,0,2.71,5.33.51.51,0,0,0,.37.17A.5.5,0,0,0,55,59a9.75,9.75,0,0,1-2.53-5,9,9,0,0,0,5.14-7.67c.18-3.58.53-7.65,2.41-10.72A9,9,0,0,0,57,23.16ZM58.3,34.49c-2.13,3.47-2.52,7.84-2.71,11.67a7,7,0,0,1-3.42,5.66c-.05-.55-.08-1.14-.1-1.79a.5.5,0,1,0-1,0c0,.82.07,1.56.14,2.24a6.88,6.88,0,0,1-2.6.51h-.36a7,7,0,0,1-6.64-7.35,54.45,54.45,0,0,1,1-8.66,11.36,11.36,0,0,0,4.46.91,12.07,12.07,0,0,0,2.14-.19.5.5,0,1,0-.17-1,10.63,10.63,0,0,1-6.21-.74,29.54,29.54,0,0,1,3.52-8.62A7,7,0,1,1,58.3,34.49ZM49.67,16.24a9.4,9.4,0,0,0,.09-2.18,3.63,3.63,0,0,1,.73-.08,4.51,4.51,0,0,1,3.33,1.95.5.5,0,1,0,.78-.63A5.5,5.5,0,0,0,50.51,13a5.24,5.24,0,0,0-.88.08,9,9,0,0,0-1.51-3.54,9.33,9.33,0,0,0-1.26-1.4,6.63,6.63,0,0,1,4.7-1.4.5.5,0,0,0,.52-.48.5.5,0,0,0-.48-.52,7.62,7.62,0,0,0-5.53,1.76,9,9,0,0,0-5.28-1.73h0a9,9,0,0,0-5.22,1.67,3.29,3.29,0,0,1-.9.31,14.62,14.62,0,0,0-.49-2.42A.5.5,0,0,0,33.56,5a.49.49,0,0,0-.34.61,13.73,13.73,0,0,1,.46,2.34,15.48,15.48,0,0,1-2.24.15A17.33,17.33,0,0,1,29.53,8a7.64,7.64,0,0,0-2.73-5.3.49.49,0,0,0-.7,0,.5.5,0,0,0,0,.71A6.57,6.57,0,0,1,28.5,7.82a16,16,0,0,1-1.75-.41,9,9,0,0,0-5.24,17.22,35.15,35.15,0,0,0,10,1.44c4.06,0,9.87-.7,14.5-4A9,9,0,0,0,49.67,16.24Zm-4.82,4.21C41.21,23,36.3,24.07,31.52,24.07a33.27,33.27,0,0,1-9.43-1.35,7,7,0,0,1,2-13.7,6.92,6.92,0,0,1,2,.31,18.46,18.46,0,0,0,5.27.74,18.22,18.22,0,0,0,2.17-.13,8.36,8.36,0,0,1-3,4.54.51.51,0,0,0,0,.71.49.49,0,0,0,.37.16.5.5,0,0,0,.34-.13c2-1.85,3.09-3.49,3.37-5.44a5.72,5.72,0,0,0,2.07-.73,7,7,0,0,1,9.76,1.64,6.84,6.84,0,0,1,1.23,3.1,9.59,9.59,0,0,0-2.2,1.88.51.51,0,0,0,0,.71.54.54,0,0,0,.34.12.51.51,0,0,0,.37-.17A9.09,9.09,0,0,1,47.78,15,7,7,0,0,1,44.85,20.45Zm-19,13.92A14.91,14.91,0,0,1,24.24,36a28.46,28.46,0,0,0-1.14-4,7.48,7.48,0,0,0,1.58-4.36.5.5,0,0,0-.46-.54.51.51,0,0,0-.53.47,6.75,6.75,0,0,1-1,3.33A22.77,22.77,0,0,0,21,27.62a8.94,8.94,0,0,0-7.68-4.29h0A9,9,0,0,0,5.67,37C7.09,39.36,7.22,43.78,6.76,46a9,9,0,0,0,4.51,9.76,10,10,0,0,1-2.44,3.91.5.5,0,0,0,0,.71.51.51,0,0,0,.34.14.52.52,0,0,0,.37-.16,10.76,10.76,0,0,0,2.61-4.18A8.88,8.88,0,0,0,21,55a10,10,0,0,1,.65,4.86.51.51,0,0,0,.46.54h0a.5.5,0,0,0,.5-.46,10.82,10.82,0,0,0-.85-5.61,9,9,0,0,0,2.59-4.64,35.09,35.09,0,0,0,.07-12.55A14.45,14.45,0,0,0,26.63,35a.49.49,0,0,0,0-.7A.5.5,0,0,0,25.88,34.37ZM22.42,49.25a7,7,0,0,1-6.84,5.56,7.21,7.21,0,0,1-1.45-.15,7.49,7.49,0,0,1-1.43-.47c.14-.7.26-1.47.35-2.34a.5.5,0,0,0-.44-.55.49.49,0,0,0-.55.45c-.08.71-.17,1.35-.28,1.93a7,7,0,0,1-3.06-7.32c.52-2.45.45-7.44-1.35-10.37A7,7,0,1,1,19.3,28.67a24.76,24.76,0,0,1,3.15,8.52c-1.81.89-3.87,1-6.81.57a.51.51,0,0,0-.57.42.5.5,0,0,0,.42.57,20.85,20.85,0,0,0,3.08.26,9.63,9.63,0,0,0,4.05-.8A33.13,33.13,0,0,1,22.42,49.25ZM51.75,31.89a.5.5,0,0,1-.43.57h-.07a.5.5,0,0,1-.49-.43.42.42,0,0,0-.22-.32.91.91,0,0,0-.79,0,.5.5,0,0,1-.65-.27.49.49,0,0,1,.26-.65,2,2,0,0,1,1.67,0A1.44,1.44,0,0,1,51.75,31.89Zm-6.12-2.05a.5.5,0,0,1,.28-.65,1.23,1.23,0,0,1,1.84.74.49.49,0,0,1-.27.65.41.41,0,0,1-.19,0,.51.51,0,0,1-.46-.31c-.15-.35-.15-.35-.54-.19A.51.51,0,0,1,45.63,29.84Zm2.61,3a.18.18,0,0,1,.08.24A1.23,1.23,0,0,1,46.13,32a.18.18,0,0,1,.24-.07Zm-32.87-.36a.89.89,0,0,0-.78,0,.4.4,0,0,0-.22.32.51.51,0,0,1-.5.43H13.8a.5.5,0,0,1-.42-.57,1.41,1.41,0,0,1,.72-1.06,1.94,1.94,0,0,1,1.67,0,.5.5,0,0,1,.26.65A.5.5,0,0,1,15.37,32.51Zm2-1.78A1.25,1.25,0,0,1,19.22,30a.51.51,0,0,1,.27.65.5.5,0,0,1-.65.28c-.39-.16-.4-.17-.55.19a.49.49,0,0,1-.46.31.43.43,0,0,1-.19,0A.5.5,0,0,1,17.37,30.73Zm-.56,3.18a.18.18,0,0,1,.08-.24l1.87-1a.18.18,0,0,1,.24.07,1.23,1.23,0,0,1-2.19,1.13ZM25.9,16a.48.48,0,0,1-.45.28.41.41,0,0,1-.21,0,1.42,1.42,0,0,1-.8-1,2,2,0,0,1,.46-1.61.5.5,0,0,1,.76.65,1,1,0,0,0-.24.76.42.42,0,0,0,.25.3A.5.5,0,0,1,25.9,16ZM24.56,11.8a1.25,1.25,0,0,1-.15-2,.51.51,0,0,1,.71-.06.49.49,0,0,1,.06.7c-.26.33-.27.33,0,.58a.5.5,0,0,1-.33.88A.56.56,0,0,1,24.56,11.8Zm3.82.07a1.22,1.22,0,0,1-.95,1.42.17.17,0,0,1-.2-.15l-.36-2.07a.18.18,0,0,1,.14-.21A1.22,1.22,0,0,1,28.38,11.87Z"/></g><g id="SHADING"><path class="cls-1" d="M8.06,47.21a6,6,0,0,0,4.7,5.24,6.19,6.19,0,0,0,1.28.14,6,6,0,0,0,5.85-4.73c1.34-6.17-.74-16-4.35-20.59A5.93,5.93,0,0,0,11.35,25a7.51,7.51,0,0,1,8.34,3.32c4.46,7.27,4.1,16.58,3.18,20.94A7.49,7.49,0,0,1,8.06,47.21ZM56.22,24.36A7.49,7.49,0,0,0,50,23.62a7.47,7.47,0,0,1,4.41.23h0a6.91,6.91,0,0,1,.9.66A6,6,0,0,1,55.83,33C55,34.15,53,39.76,52.7,44.52a6,6,0,0,1-6,5.57h-.43a6,6,0,0,1-5.21-4,7.49,7.49,0,0,0,7.11,7.1h.38a7.51,7.51,0,0,0,7.49-7.12c.19-3.77.56-8.06,2.63-11.43A7.5,7.5,0,0,0,56.22,24.36Zm-9.36-14A7.48,7.48,0,0,0,40.6,7.18a7.36,7.36,0,0,1,3.34,1.17,6,6,0,0,1-1.2,9.17c-3.12,2-8.72,3.07-14,3.07a26,26,0,0,1-7.85-1.05,6,6,0,0,1-4.11-5.33,7.47,7.47,0,0,0,5.1,8.91,33.42,33.42,0,0,0,9.56,1.37c4.88,0,9.91-1,13.64-3.71A7.5,7.5,0,0,0,46.86,10.32ZM52.65,4.8c.57.08.81.74.76,1.35a.5.5,0,0,0,.45.54h0a.49.49,0,0,0,.49-.45,2.06,2.06,0,0,0-1.61-2.43.5.5,0,0,0-.14,1ZM14.8,8.41A.51.51,0,0,0,15,9.1a.54.54,0,0,0,.27.07.48.48,0,0,0,.42-.24,5.06,5.06,0,0,1,1.82-1.74.5.5,0,0,0,.19-.68A.5.5,0,0,0,17,6.32,5.83,5.83,0,0,0,14.8,8.41ZM54.07,3.73A2.55,2.55,0,0,1,55,5.29a.5.5,0,0,0,.48.37h.13A.5.5,0,0,0,55.94,5a3.37,3.37,0,0,0-1.47-2.22.5.5,0,1,0-.4.91ZM14.46,58.15c-6,0-10.81,1-10.81,2.2s4.84,2.2,10.81,2.2,10.81-1,10.81-2.2S20.43,58.15,14.46,58.15ZM13.59,7.7a.48.48,0,0,0,.28.08.52.52,0,0,0,.42-.22,5.77,5.77,0,0,1,1.85-1.79.49.49,0,0,0,.16-.69.51.51,0,0,0-.69-.16A6.86,6.86,0,0,0,13.45,7,.5.5,0,0,0,13.59,7.7ZM47.43,57.44c-6,0-10.82,1-10.82,2.21s4.85,2.2,10.82,2.2,10.82-1,10.82-2.2S53.41,57.44,47.43,57.44Z"/></g></svg>