<svg xmlns="http://www.w3.org/2000/svg" width="51" height="57" viewBox="0 0 51 57">
    <g fill="#3FA5E3" fill-rule="evenodd">
        <path d="M9.69 41.515c.55 0 1.12.67 1.27 1.49.15.82-.17 1.48-.73 1.48-.55 0-1.12-.66-1.27-1.48-.15-.82.18-1.49.73-1.49zM.5 50.485v2l1.09 1.09L19 55.917v.068h13.5v-.135l16.91-2.275 1.09-1.09v-2l-1.5-1.5v1.99l-1.09 1.09L30 54.985h-8.5l-13.702-2.2-2.298-2.3v-2l1.793-1.793.096.243v.06H8.5l6.5 3.99 1-1h2.53l1.28.73c1.04-.44 2.1-.82 3.19-1.11l2.5-.62V24.487c11.458.877 19.695 6.021 22.707 8.193l.586-.81c-3.084-2.226-11.524-7.497-23.255-8.384l-.072.932-.466-.933-2 .272v-.002c-.047.006-.092.014-.139.021l-.432.058v.007c-8.26 1.205-15.246 4.57-19.859 7.884 1.066 7.33 3.173 11.105 4.641 14.76h-1.21l-1.5 1.5v1H2l-1.5 1.5zm40.27-6c-.56 0-.88-.66-.73-1.48.15-.82.72-1.49 1.27-1.49s.88.67.73 1.49c-.15.82-.72 1.48-1.27 1.48zM23.5 15.835c-2.06.41-4.05.95-5.94 1.59-.518.175-1.022.361-1.524.548.156-.058.306-.123.464-.178.01 0 .01 0 .02-.01l-.02-.05v-2.31c2.2-.98 4.54-1.84 7-2.52v2.93zm-9 2.73c.233-.097.48-.183.718-.277A50.642 50.642 0 0 0 10 20.675v-1.86a53.101 53.101 0 0 1 4.45-2.43l.05.1v2.08zm34.17 11.33c.14-1.24.25-2.57.33-4.01h-.05c-1.72-1.41-3.81-2.87-6.19-4.24-.57-.34-1.16-.66-1.76-.97v-1.86a56.906 56.906 0 0 0-5.5-2.93v2.1l-.06.16c-.65-.25-1.32-.49-2-.72l.06-.19v-2.24a50.748 50.748 0 0 0-6-2.09v2.93a43.063 43.063 0 0 0-2-.35v-12l-3.07.55-.43 6.94c-5.09 1.64-9.68 4.03-13.5 6.58l-.5 3.93.128.227c-2.333 1.351-4.386 2.785-6.079 4.173H2c.08 1.44.19 2.77.33 4.01 5.16-3.77 13.42-7.67 23.17-8.41 9.75.74 18.01 4.64 23.17 8.41zM25.5 49.075c1.97.29 3.87.86 5.69 1.64l-5.69 3.26v-4.9zm-3.07-45.04a8.513 8.513 0 0 1 3.07-.55c1.1 0 2.14.19 3.07.55l-.17-2.83a6.139 6.139 0 0 0-2.9-.72c-1.05 0-2.04.26-2.9.72l-.17 2.83z" opacity=".2"/>
        <path d="M41.43 42.084c-.048-.06-.087-.066-.122-.066-.237 0-.66.419-.78 1.074-.076.418.014.707.115.827.048.059.087.066.122.066.238 0 .66-.418.779-1.073.077-.42-.012-.708-.113-.828zm-.665 2.9a1.15 1.15 0 0 1-.891-.424c-.328-.395-.45-.995-.33-1.648.199-1.08.956-1.894 1.764-1.894.346 0 .662.15.892.426.328.394.448.995.329 1.648-.198 1.08-.955 1.893-1.764 1.893zm-31.31-2.072c.12.655.542 1.073.78 1.073.036 0 .075-.007.123-.066.1-.12.19-.41.114-.827-.12-.655-.542-1.074-.78-1.074-.034 0-.073.007-.122.066-.101.12-.191.409-.114.828zm.238-1.894c.807 0 1.565.814 1.763 1.894.12.653-.002 1.253-.33 1.648a1.148 1.148 0 0 1-.89.425c-.81 0-1.567-.813-1.764-1.893-.12-.653 0-1.254.329-1.648.23-.275.546-.426.892-.426zM1 52.778l.822.822L21.5 55.985l8.439.004L49.178 53.6l.822-.823v-1.586l-1.207-1.207H47v1.5a.5.5 0 0 1-.146.354l-1 1a.498.498 0 0 1-.707 0 .5.5 0 0 1 0-.707l.853-.854v-2.572l-1.207-1.207H42.64l-5.84 3.58.053.053a.499.499 0 0 1 .146.353v1a.499.499 0 1 1-1 0v-.793l-1.207-1.207h-2.19l-6.807 3.893a.488.488 0 0 1-.296.107.49.49 0 0 1-.296-.107l-6.806-3.893h-2.191L15 51.692v.793a.499.499 0 1 1-1 0v-1a.5.5 0 0 1 .147-.353l.052-.052-5.84-3.581H6.208L5 48.706v2.572l.854.854a.5.5 0 0 1-.707.707l-1-1A.5.5 0 0 1 4 51.485v-1.5H2.207L1 51.192v1.586zm43.21-8.582c1.415-3.277 3.117-7.238 3.927-14.067-3.146-2.258-11.114-7.137-22.137-8.1v26.629c1.71.288 3.439.79 5.153 1.505l1.069-.611a.49.49 0 0 1 .248-.067H35a.5.5 0 0 1 .354.147l.722.722 6.163-3.781a.496.496 0 0 1 .26-.074h.748c.299-.756.622-1.512.963-2.303zm-3.388-23.057c-.02-.007-.036-.018-.053-.028-3.883-2.053-8.88-4.051-14.77-5.03v4.952c10.83.935 18.763 5.532 22.262 7.959.09-.901.167-1.84.224-2.841-1.483-1.202-4.106-3.125-7.663-5.012zM36 17.822a51.67 51.67 0 0 1 4.5 2.02V19.1a56.874 56.874 0 0 0-4.5-2.426v1.149zm-8-2.39c1.756.364 3.42.817 5 1.325v-1.428a50.225 50.225 0 0 0-5-1.745v1.849zm14.017 2.402C38.419 15.46 32.809 12.376 26 10.637v4.429c.337.055.669.117 1 .178v-2.34c0-.023.01-.044.014-.068.003-.022-.001-.043.005-.064.003-.011.01-.018.014-.028a.447.447 0 0 1 .046-.093c.017-.026.03-.053.05-.075.023-.024.048-.042.073-.062.026-.02.049-.038.078-.052.029-.015.059-.022.09-.031.033-.008.063-.016.096-.02.012 0 .023-.006.034-.006.025 0 .045.01.069.014.02.003.043-.002.065.004a51.25 51.25 0 0 1 6.06 2.11.5.5 0 0 1 .306.462v2.087c.34.117.669.24 1 .363v-1.56a.5.5 0 0 1 .71-.454 57.6 57.6 0 0 1 5.548 2.956.499.499 0 0 1 .242.428v1.554c.236.126.475.252.702.378l-.185-2.913zm-13.92-13.43c-1.624-.545-3.57-.545-5.193 0l-.36 5.876a47.225 47.225 0 0 1 2.839-.781c.017-.004.033.002.05 0 .022-.003.043-.014.067-.014.025 0 .045.01.068.014.016.002.033-.004.05 0 .97.233 1.916.498 2.838.78l-.36-5.874zm-5.017-2.88l-.11 1.808a9.533 9.533 0 0 1 5.06 0l-.11-1.808a5.795 5.795 0 0 0-4.84 0zM8.579 20.892c.307-.171.61-.346.92-.511v-1.566c0-.014.01-.026.012-.041a.504.504 0 0 1 .042-.161c.01-.02.016-.04.027-.058a.47.47 0 0 1 .16-.166 52.12 52.12 0 0 1 4.544-2.474.5.5 0 0 1 .667.233c.043.09.047.184.037.275.003.02.012.04.012.062v1.352c.332-.131.663-.262 1-.385v-2.028c0-.003.003-.006.004-.01a.481.481 0 0 1 .068-.228.478.478 0 0 1 .225-.217 50.496 50.496 0 0 1 7.07-2.546c.023-.006.044-.001.067-.004.022-.003.043-.014.066-.014.012 0 .022.006.033.007.033.002.063.01.094.019.033.009.065.016.094.03a.507.507 0 0 1 .072.05c.028.02.055.04.078.066.019.022.033.047.048.072.02.03.037.06.049.096.003.009.01.017.014.027.006.02.002.042.005.064.003.024.013.045.013.069v2.342c.333-.062.666-.125 1-.18v-4.43c-6.82 1.74-12.436 4.832-16.033 7.208l-.388 3.047zm3.232-2.544c-.44.248-.878.495-1.311.756v.763a51.782 51.782 0 0 1 3.5-1.628v-1.055c-.49.245-.98.488-1.467.752-.243.13-.481.276-.722.412zM23 13.575c-.357.105-.715.206-1.073.32-.194.062-.39.13-.584.196-.373.124-.746.246-1.118.379-.233.084-.465.176-.698.263-.331.124-.663.247-.994.379-.25.1-.498.207-.748.31-.261.11-.524.22-.785.334V17.1a48.14 48.14 0 0 1 6-1.668v-1.857zM2.74 28.992C6.232 26.57 14.142 21.99 25 21.04v-4.96a47.03 47.03 0 0 0-8.334 2.186 38.3 38.3 0 0 0-1.975.76 50.063 50.063 0 0 0-4.458 2.09c-2.815 1.476-5.48 3.214-7.717 5.033.057 1.002.135 1.94.224 2.842zM25 49.674c-1.34.237-2.691.613-4.04 1.126L25 53.11v-3.436zm1 3.436l4.039-2.31a22.245 22.245 0 0 0-4.04-1.126v3.436zM6.79 44.197c.34.79.664 1.547.962 2.302H8.5c.092 0 .183.025.262.074l6.163 3.78.722-.721a.5.5 0 0 1 .353-.147h2.53c.088 0 .173.023.249.067l1.069.61A23.563 23.563 0 0 1 25 48.659v-26.62c-11.054.977-18.996 5.838-22.136 8.09.81 6.83 2.51 10.792 3.926 14.069zm-5.143 4.935A.5.5 0 0 1 2 48.985h2v-.486c0-.133.053-.26.147-.353l1.5-1.5A.5.5 0 0 1 6 46.499h.673a89.63 89.63 0 0 0-.801-1.905C4.154 40.612 2.015 35.657 1.5 25.912c-.008-.138.067-.271.16-.371a.478.478 0 0 1 .14-.098c1.699-1.39 3.643-2.73 5.708-3.95 0-.016.165-1.35.495-4.001a.506.506 0 0 1 .219-.353c3.078-2.052 7.692-4.662 13.298-6.518l.579-9.445a.5.5 0 0 1 .264-.41c1.908-1.021 4.365-1.021 6.273 0a.502.502 0 0 1 .264.41l.579 9.445c5.605 1.856 10.22 4.466 13.298 6.518.13.087.212.229.22.384l.244 3.819c2.68 1.573 4.694 3.073 5.919 4.07a.497.497 0 0 1 .338.5c-.511 9.743-2.652 14.699-4.371 18.68a87.537 87.537 0 0 0-.801 1.907H45a.5.5 0 0 1 .354.147l1.5 1.5c.094.093.146.22.146.353v.486h2a.5.5 0 0 1 .354.147l1.5 1.5a.499.499 0 0 1 .146.353v2a.5.5 0 0 1-.146.354l-1.09 1.09c-.078.054-.104.075-.137.09-.117.038-.133.049-.155.052L30 56.985l-8.56-.004-19.91-2.41c-.092-.027-.124-.036-.157-.051-.1-.07-.121-.076-.136-.091l-1.09-1.09A.5.5 0 0 1 0 52.985v-2a.5.5 0 0 1 .147-.353l1.5-1.5z"/>
    </g>
</svg>
