<svg xmlns="http://www.w3.org/2000/svg" viewBox="0 0 64 64"><defs><style>.cls-1{opacity:0.2;}</style></defs><title>i-</title><g id="OUTLINES" fill="#3FA5E3" fill-rule="evenodd"><path d="M53,5a6,6,0,1,0,6,6A6,6,0,0,0,53,5Zm0,11a5,5,0,0,1-4-2,2.11,2.11,0,0,1-.21-.31l0,0a2,2,0,0,1-.18-.32,3.82,3.82,0,0,1-.31-.72c0-.13-.08-.25-.11-.38s0-.23-.07-.34A5,5,0,0,1,48,11c0-.13,0-.26,0-.39A5,5,0,0,1,53,6h.19a4.67,4.67,0,0,1,1.13.17l.36.11h0l.33.14a4,4,0,0,1,.68.36L56,7a5,5,0,0,1-3,9ZM45.22,4.72a2.42,2.42,0,0,0-1.35-1.35,2.45,2.45,0,0,0-1-.19A2.49,2.49,0,0,0,40.6,4.72,2.5,2.5,0,0,0,42,8a2.56,2.56,0,0,0,.95.19,2.49,2.49,0,0,0,2.31-1.55A2.44,2.44,0,0,0,45.22,4.72ZM44.3,6.25a1.5,1.5,0,0,1-1.39.93,1.46,1.46,0,0,1-.57-.12,1.5,1.5,0,0,1,.57-2.88,1.46,1.46,0,0,1,.58.11A1.5,1.5,0,0,1,44.3,6.25ZM23.41,57.38A2.48,2.48,0,0,0,22.06,56a2.45,2.45,0,0,0-1-.19,2.5,2.5,0,0,0-1,4.81,2.65,2.65,0,0,0,1,.19,2.5,2.5,0,0,0,2.31-1.55A2.44,2.44,0,0,0,23.41,57.38Zm-.92,1.53a1.5,1.5,0,0,1-1.39.93,1.42,1.42,0,0,1-.57-.12,1.49,1.49,0,0,1,.57-2.88,1.41,1.41,0,0,1,.57.11A1.51,1.51,0,0,1,22.49,58.91Zm-8.87-8.52a2.5,2.5,0,1,0,0,3.54A2.49,2.49,0,0,0,13.62,50.39Zm-.71,2.83a1.49,1.49,0,0,1-1.06.44,1.53,1.53,0,0,1-1.06-.44,1.51,1.51,0,0,1,0-2.12,1.53,1.53,0,0,1,1.06-.44,1.5,1.5,0,0,1,1.06,2.56ZM60.65,20.14a2.51,2.51,0,0,0-2.31-1.54,2.45,2.45,0,0,0-1,.19,2.5,2.5,0,0,0,1,4.81,2.37,2.37,0,0,0,.95-.19,2.5,2.5,0,0,0,1.36-3.27Zm-1.74,2.35a1.65,1.65,0,0,1-.57.11,1.5,1.5,0,0,1-.58-2.89,1.7,1.7,0,0,1,.58-.11,1.5,1.5,0,0,1,.57,2.89ZM8,42a2.5,2.5,0,0,0-2.31-1.55,2.61,2.61,0,0,0-1,.19A2.47,2.47,0,0,0,3.37,42a2.44,2.44,0,0,0,0,1.91,2.47,2.47,0,0,0,2.31,1.54,2.37,2.37,0,0,0,1-.19A2.47,2.47,0,0,0,8,43.87,2.53,2.53,0,0,0,8,42ZM6.25,44.3a1.44,1.44,0,0,1-.57.11,1.5,1.5,0,0,1-.58-2.88,1.47,1.47,0,0,1,.58-.12,1.5,1.5,0,0,1,.57,2.89ZM60.51,29.51A2.5,2.5,0,1,0,63,32,2.5,2.5,0,0,0,60.51,29.51Zm0,4A1.5,1.5,0,1,1,62,32,1.5,1.5,0,0,1,60.51,33.51Zm-57-4A2.5,2.5,0,1,0,6,32,2.5,2.5,0,0,0,3.51,29.51Zm0,4A1.5,1.5,0,1,1,5,32,1.5,1.5,0,0,1,3.51,33.51ZM60.65,42a2.52,2.52,0,0,0-1.36-1.36,2.56,2.56,0,0,0-.95-.19A2.49,2.49,0,0,0,56,42a2.5,2.5,0,0,0,2.31,3.45,2.49,2.49,0,0,0,2.31-1.54A2.53,2.53,0,0,0,60.65,42Zm-.93,1.53a1.5,1.5,0,1,1-1.38-2.08,1.46,1.46,0,0,1,.57.12A1.49,1.49,0,0,1,59.72,43.49ZM8,20.14a2.53,2.53,0,0,0-1.36-1.35,2.37,2.37,0,0,0-1-.19,2.49,2.49,0,0,0-2.31,1.54,2.5,2.5,0,0,0,1.35,3.27,2.42,2.42,0,0,0,1,.19A2.51,2.51,0,0,0,8,22.06,2.55,2.55,0,0,0,8,20.14Zm-.93,1.53a1.5,1.5,0,0,1-1.38.93,1.66,1.66,0,0,1-.58-.11,1.5,1.5,0,0,1,.58-2.89,1.65,1.65,0,0,1,.57.11A1.5,1.5,0,0,1,7.06,21.67ZM53.93,50.39a2.5,2.5,0,1,0,0,3.54A2.51,2.51,0,0,0,53.93,50.39Zm-.71,2.83a1.5,1.5,0,0,1-2.12,0,1.49,1.49,0,0,1,0-2.12,1.5,1.5,0,0,1,2.12,0A1.49,1.49,0,0,1,53.22,53.22ZM13.62,10.09a2.5,2.5,0,1,0-3.53,3.53,2.5,2.5,0,0,0,3.53-3.53Zm-.71,2.82a1.45,1.45,0,0,1-1.06.44,1.48,1.48,0,0,1-1.06-.44,1.51,1.51,0,0,1,0-2.12,1.53,1.53,0,0,1,1.06-.44,1.5,1.5,0,0,1,1.06,2.56ZM45.22,57.38a2.48,2.48,0,0,0-2.31-1.54A2.37,2.37,0,0,0,42,56a2.47,2.47,0,0,0-1.36,1.35,2.51,2.51,0,0,0,2.31,3.46,2.65,2.65,0,0,0,1-.19A2.51,2.51,0,0,0,45.22,57.38Zm-1.73,2.34a1.47,1.47,0,0,1-.58.12A1.5,1.5,0,0,1,42.34,57a1.44,1.44,0,0,1,.57-.11,1.5,1.5,0,0,1,.58,2.88Zm-20.08-55A2.49,2.49,0,0,0,21.1,3.18a2.45,2.45,0,0,0-1,.19,2.48,2.48,0,0,0-1.35,1.35A2.51,2.51,0,0,0,21.1,8.18a2.65,2.65,0,0,0,1-.19,2.53,2.53,0,0,0,1.35-1.36A2.44,2.44,0,0,0,23.41,4.72ZM21.67,7.06a1.42,1.42,0,0,1-.57.12,1.5,1.5,0,0,1-.57-2.89,1.41,1.41,0,0,1,.57-.11,1.49,1.49,0,0,1,.57,2.88ZM32,58a2.5,2.5,0,1,0,2.5,2.5A2.5,2.5,0,0,0,32,58Zm0,4a1.5,1.5,0,1,1,1.5-1.5A1.5,1.5,0,0,1,32,62ZM32,1a2.5,2.5,0,1,0,2.5,2.5A2.5,2.5,0,0,0,32,1Zm0,4a1.5,1.5,0,1,1,1.5-1.5A1.5,1.5,0,0,1,32,5Zm7,14a6,6,0,1,0,6,6A6,6,0,0,0,39,19Zm0,11a5,5,0,1,1,5-5A5,5,0,0,1,39,30Zm0-11a6,6,0,1,0,6,6A6,6,0,0,0,39,19Zm0,11a5,5,0,1,1,5-5A5,5,0,0,1,39,30ZM32,11A21,21,0,1,0,53,32,21,21,0,0,0,32,11Zm0,40A19,19,0,0,1,15,40.54,18.74,18.74,0,0,1,13,32a18.39,18.39,0,0,1,.48-4.22A19,19,0,0,1,32,13c.44,0,.88,0,1.31.05A19,19,0,0,1,32,51Zm7-32a6,6,0,1,0,6,6A6,6,0,0,0,39,19Zm0,11a5,5,0,1,1,5-5A5,5,0,0,1,39,30Z"/></g><g id="SHADING"><path class="cls-1" d="M56,7l-.27-.19A4,4,0,0,0,55,6.43l-.33-.14h0l-.36-.11A4.67,4.67,0,0,0,53.19,6a3.45,3.45,0,0,1,1.19,2.62,3.49,3.49,0,0,1-6.36,2c0,.13,0,.26,0,.39a5,5,0,0,0,.08.87,2.05,2.05,0,0,0,.07.34c0,.13.07.25.11.38a3.82,3.82,0,0,0,.31.72,2,2,0,0,0,.18.32l0,0A2.11,2.11,0,0,0,49,14a4.87,4.87,0,0,0,3,1,5,5,0,0,0,5-5A4.87,4.87,0,0,0,56,7Zm0,0-.27-.19A4,4,0,0,0,55,6.43l-.33-.14h0l-.36-.11A4.67,4.67,0,0,0,53.19,6a3.45,3.45,0,0,1,1.19,2.62,3.49,3.49,0,0,1-6.36,2c0,.13,0,.26,0,.39a5,5,0,0,0,.08.87,2.05,2.05,0,0,0,.07.34c0,.13.07.25.11.38a3.82,3.82,0,0,0,.31.72,2,2,0,0,0,.18.32l0,0A2.11,2.11,0,0,0,49,14a4.87,4.87,0,0,0,3,1,5,5,0,0,0,5-5A4.87,4.87,0,0,0,56,7Zm0,0-.27-.19A4,4,0,0,0,55,6.43l-.33-.14h0l-.36-.11A4.67,4.67,0,0,0,53.19,6a3.45,3.45,0,0,1,1.19,2.62,3.49,3.49,0,0,1-6.36,2c0,.13,0,.26,0,.39a5,5,0,0,0,.08.87,2.05,2.05,0,0,0,.07.34c0,.13.07.25.11.38a3.82,3.82,0,0,0,.31.72,2,2,0,0,0,.18.32l0,0A2.11,2.11,0,0,0,49,14a4.87,4.87,0,0,0,3,1,5,5,0,0,0,5-5A4.87,4.87,0,0,0,56,7ZM47.51,21.05a19.1,19.1,0,0,0-4.07-5.44A19.79,19.79,0,0,0,32,12c-.22,0-.44,0-.66,0a11.9,11.9,0,0,1,2,1,13.14,13.14,0,0,1,4.13,4.1A8,8,0,1,1,39,33a7.81,7.81,0,0,1-2.48-.4,13.23,13.23,0,0,1-23-4.82,12.6,12.6,0,0,1-.41-2.22A19.64,19.64,0,0,0,12,32a19.29,19.29,0,0,0,.15,2.42A18.64,18.64,0,0,0,15,40.54a19,19,0,0,0,34.46-11A18.71,18.71,0,0,0,47.51,21.05Z"/></g></svg>
