<svg xmlns="http://www.w3.org/2000/svg" viewBox="0 0 64 64"><defs><style>.cls-1{opacity:0.2;}</style></defs><title>i-</title><g id="OUTLINES" fill="#3FA5E3" fill-rule="evenodd"><path d="M60,32.15A28.18,28.18,0,0,0,32.37,4H32a27.72,27.72,0,0,0-19.74,8.29,28.13,28.13,0,0,0,8.47,45.64,3,3,0,0,0,1.28.28,3.2,3.2,0,0,0,3-2.09l5.14-13.88a3.2,3.2,0,0,0-1.46-3.89A7.1,7.1,0,0,1,32,25h.28a7.1,7.1,0,0,1,3.13,13.28A3.19,3.19,0,0,0,34,42.15l5.15,13.9a3.2,3.2,0,0,0,3,2.09,3.16,3.16,0,0,0,1.31-.29A28.21,28.21,0,0,0,60,32.15ZM42.62,56a1.17,1.17,0,0,1-1.6-.67l-5.14-14a1.12,1.12,0,0,1,.5-1.35A9,9,0,0,0,41,31.76,9.16,9.16,0,0,0,32.36,23H32a9.1,9.1,0,0,0-4.25,17.11,1.1,1.1,0,0,1,.52,1.37l-5.13,14a1.2,1.2,0,0,1-1.12.78,1.28,1.28,0,0,1-.47-.1A26.18,26.18,0,0,1,32,6h.34A26.18,26.18,0,0,1,42.62,56Z"/></g><g id="SHADING"><path class="cls-1" d="M55,32.15A23.25,23.25,0,0,1,44.5,51.59,1.29,1.29,0,0,1,42.59,51l-3.25-8.8h0a.32.32,0,0,1,.13-.45A21.16,21.16,0,0,0,47.19,16a.47.47,0,0,1,.76-.52A23.19,23.19,0,0,1,55,32.15Zm-44.72,4a.47.47,0,0,0-.86.35A23.15,23.15,0,0,0,19.64,51.68,1.3,1.3,0,0,0,21.56,51L23.81,45A21.12,21.12,0,0,1,10.28,36.18Z"/></g></svg>
