<svg xmlns="http://www.w3.org/2000/svg" width="55" height="50" viewBox="0 0 55 50">
    <g fill="#39A4E6" fill-rule="evenodd">
        <path d="M53.25 39.98c0 .5-.22.96-.55 1.23 0 0-10.41 6.79-11.49 6.79H20.72c-1.02 0-2-.81-2.83-1.41l-1.4-1a3.204 3.204 0 0 0-1.85-.59l-.64.26v-7.65l.39.08c1.12.22 2.96-.13 3.76-.92.45-.46 1.6-.77 2.35-.77h1.48c.94 0 1.87.18 2.75.53l3.13 1.25c.36.15.74.22 1.13.22H38c1.1 0 2 .9 2 2s-.9 2-2 2h-7c-.28 0-.5.22-.5.5s.22.5.5.5h7c1.3 0 2.4-.84 2.82-2h1.31c.98 0 1.93-.2 2.83-.6l4.85-2.15c.43-.17.88-.25 1.34-.25h.47c.38 0 .73.13 1.02.36l.13.13c.31.3.48.71.48 1.14v.35zM30 16v21h-1.01c-.26 0-.52-.05-.76-.14L25.1 35.6c-1-.4-2.05-.6-3.12-.6H20.5c-.45 0-.98.08-1.5.23V16h11zM18 7.5c0-.28.22-.5.5-.5H30v8H18V7.5zm11-4A2.5 2.5 0 0 1 31.5 1c1.3 0 2.36 1 2.48 2.27C33.69 3.1 33.36 3 33 3c-1.1 0-2 .9-2 2 0 .36.1.69.27.98A2.5 2.5 0 0 1 29 3.5zM34 6h-1c-.55 0-1-.45-1-1s.45-1 1-1 1 .45 1 1v1zm-3 31h7V7h-7v30zm4-32c0-.55.45-1 1-1s1 .45 1 1-.45 1-1 1h-1V5zm2.5-4A2.5 2.5 0 0 1 40 3.5a2.5 2.5 0 0 1-2.27 2.48c.17-.29.27-.62.27-.98 0-1.1-.9-2-2-2-.36 0-.69.1-.98.27A2.498 2.498 0 0 1 37.5 1zm13 6c.28 0 .5.22.5.5V15H39V7h11.5zM49 37.52l-4.45 1.97c-.77.34-1.58.51-2.42.51H41c0-1.3-.84-2.4-2-2.82V16h11v21.16l-1 .36zM11 48h2V36h-2v12zm42.62-10.07l-.15-.16c-.49-.5-1.15-.77-1.85-.77h-.47c-.05 0-.1 0-.15.01V16c.56 0 1-.44 1-1V7.5c0-.83-.67-1.5-1.5-1.5H39.94A3.5 3.5 0 0 0 41 3.5C41 1.57 39.43 0 37.5 0c-1.28 0-2.39.7-3 1.73a3.488 3.488 0 0 0-3-1.73C29.57 0 28 1.57 28 3.5A3.5 3.5 0 0 0 29.06 6H18.5c-.83 0-1.5.67-1.5 1.5V15c0 .56.44 1 1 1v19.65c-.21.12-.4.26-.56.41-.53.54-2.04.81-2.85.65l-.59-.12V35.5c0-.28-.22-.5-.5-.5H11v-.5c0-.28-.22-.5-.5-.5H.5c-.28 0-.5.22-.5.5s.22.5.5.5H10v14H.5c-.28 0-.5.22-.5.5s.22.5.5.5h10c.28 0 .5-.22.5-.5V49h2.5c.28 0 .5-.22.5-.5v-2.17l.74-.33c.42.02.83.16 1.17.41l1.4 1c1 .71 2.18 1.59 3.41 1.59h20.49c1.31 0 12.06-6.97 12.06-6.97.62-.5.98-1.24.98-2.05v-.35c0-.63-.22-1.23-.63-1.7z"/>
        <path d="M39 18h11v-2H39v2zm-20 0h11v-2H19v2zM31.25 2c-1.52 0-2.75 1.23-2.75 2.75 0 .67.24 1.28.62 1.75H31c0-.51.19-.97.51-1.32.03-.94.79-1.68 1.74-1.68.17 0 .33.02.48.08A2.716 2.716 0 0 0 31.25 2zm6.5 0c-1.16 0-2.16.72-2.55 1.74.23-.16.5-.24.8-.24.83 0 1.5.67 1.5 1.5 0 .06 0 .12-.02.17.33.35.52.82.52 1.33h1.88c.38-.47.62-1.08.62-1.75C40.5 3.23 39.27 2 37.75 2zm15.021 38.487l-.133-.13A1.616 1.616 0 0 0 51.62 40h-.472c-.46 0-.912.085-1.34.252l-4.853 2.149a6.915 6.915 0 0 1-2.826.599h-1.314A2.995 2.995 0 0 1 38 45h-7a.5.5 0 0 1 0-1h7c1.103 0 2-.897 2-2s-.897-2-2-2h-9.014a3.02 3.02 0 0 1-1.124-.216l-3.134-1.255A7.374 7.374 0 0 0 21.979 38H20.5c-.749 0-1.897.314-2.349.766-.797.797-2.643 1.148-3.757.922L14 39.609v7.65l.64-.259c.67 0 1.31.205 1.852.594l1.4.999c.83.594 1.807.907 2.828.907h20.49a4.71 4.71 0 0 0 2.974-1.057l8.514-5.229c.332-.271.552-.733.552-1.234v-.35c0-.435-.17-.841-.479-1.143zM33 8h-2v30h7V8h-5zM.5 50H10V36H.5v14z" opacity=".2"/>
    </g>
</svg>
