<svg xmlns="http://www.w3.org/2000/svg" viewBox="0 0 64 64"><defs><style>.cls-1{opacity:0.2;}</style></defs><title>i-</title><g id="OUTLINES" fill="#3FA5E3" fill-rule="evenodd"><path d="M63,1H45.27L30.77,18.68,19.08,20.75,10,40l7.79-3.86L16.67,39.4l7.94,7.94L28,46.23l-3.89,7.84L43.29,45,45.37,33.2,63,18.74ZM25.15,45.05,19,38.85,20,35.6,28.41,44ZM20.38,34.54l0,0L46.22,3H61V17.79L29.52,43.61l-.05,0Zm-6.14,1.08,6.21-13.08,8.37-1.47L18.73,33.37l0,.05L14.28,35.6Zm27.26,8-13.08,6.2,0,0,2.23-4.5L43,35.15ZM9.15,31.47a.52.52,0,0,1-.35-.14.5.5,0,0,1,0-.71l3.85-3.85a.5.5,0,0,1,.7,0,.5.5,0,0,1,0,.71L9.51,31.33A.54.54,0,0,1,9.15,31.47Zm9.83,21a9.35,9.35,0,0,1-6.68,2.8,10.3,10.3,0,0,1-2.61-.35l-.75-.19.49-.6a7.48,7.48,0,0,0,1.33-4.41c.15-1.77.3-3.6,1.86-5.16A5,5,0,0,1,18,43.2a.5.5,0,0,1,.29.64.5.5,0,0,1-.65.29,3.49,3.49,0,0,0-.93-.22,4,4,0,0,0-3.38,1.31c-1.3,1.3-1.44,2.87-1.58,4.54a9.34,9.34,0,0,1-1.09,4.31,8.43,8.43,0,0,0,7.61-2.35,5.51,5.51,0,0,0,1.88-4.63h0a4,4,0,0,0-.14-.57.5.5,0,0,1,.32-.63.5.5,0,0,1,.63.31C21.63,48.18,20.89,50.51,19,52.42ZM8.3,41.61a.5.5,0,0,1,0,.7L4.22,46.39a.51.51,0,0,1-.7,0,.5.5,0,0,1,0-.71l4.07-4.07A.5.5,0,0,1,8.3,41.61ZM5.44,34.69a.5.5,0,0,1,0-.71l.88-.88a.5.5,0,0,1,.71,0,.51.51,0,0,1,0,.71l-.89.88a.51.51,0,0,1-.7,0Zm14.1,23.76a.51.51,0,0,1,0,.71L16.75,62a.49.49,0,0,1-.35.15A.51.51,0,0,1,16,62a.51.51,0,0,1,0-.71l2.79-2.79A.51.51,0,0,1,19.54,58.45Zm8.65.9a.48.48,0,0,1,0,.7l-.75.75a.49.49,0,0,1-.35.15.51.51,0,0,1-.36-.15.5.5,0,0,1,0-.7l.75-.75A.5.5,0,0,1,28.19,59.35Zm9.93-37.62a.48.48,0,0,1,0-.7A3.53,3.53,0,0,1,43,21a.5.5,0,0,1-.35.85.51.51,0,0,1-.36-.15,2.52,2.52,0,0,0-3.48,0A.48.48,0,0,1,38.12,21.73Zm-16,34.15a.5.5,0,0,1,0,.71l-.57.57a.51.51,0,0,1-.36.15.5.5,0,0,1-.35-.15.48.48,0,0,1,0-.7l.57-.58A.51.51,0,0,1,22.11,55.88ZM40.56,29.47a6,6,0,1,0-4.24-1.75A6,6,0,0,0,40.56,29.47ZM37,19.94a5,5,0,0,1,7.07,0,3.8,3.8,0,0,1,.33.37,5,5,0,1,1-7.4-.37Zm.66,29.91a.48.48,0,0,1,0,.7l-2,2a.49.49,0,0,1-.35.15.51.51,0,0,1-.36-.15.5.5,0,0,1,0-.7l2-2A.5.5,0,0,1,37.69,49.85Zm-4.5,4.5a.48.48,0,0,1,0,.7l-3,3a.49.49,0,0,1-.35.15.51.51,0,0,1-.36-.15.5.5,0,0,1,0-.7l3-3A.5.5,0,0,1,33.19,54.35Z"/></g><g id="SHADING"><path class="cls-1" d="M30.58,44.08v0L27,50.84l1.42-1.09,10.78-8.28,3.88-7,.7-1.24h0Zm13.87-24.5a3.73,3.73,0,0,0-.36-.32,5.59,5.59,0,0,1,.34,1,5.48,5.48,0,0,1-8,6,4.46,4.46,0,0,1-.9-.61,5.32,5.32,0,0,0,1.14,1.68,5.5,5.5,0,0,0,7.77-7.78Zm-24,26.77-.24-.24a3.81,3.81,0,0,1-.1,1h0a5.2,5.2,0,0,1-1.36,2.51A6.6,6.6,0,0,1,14,51.3c2.26-1.77,1.93-3.09,1.93-3.09a2.29,2.29,0,0,0-2,.38c.06-1.36,0-2.71,1.1-3.78a3.68,3.68,0,0,1,1.64-.9,3.58,3.58,0,0,1,1.22-.14l-.11-.11A4.45,4.45,0,0,0,13,44.86c-2.77,2.77-.73,6.49-3.16,9.53a9,9,0,0,0,8.81-2.32C20.51,50.18,21.06,48.05,20.49,46.35ZM61.74,2.2l-.46.5L55,9.49l6.36,7.67.5.6V2.2Zm-.68,16.26-8.56-7-6.82,6.75a7.3,7.3,0,0,1,2.16,5.21,7.38,7.38,0,0,1-12.59,5.22L24.9,39.05l5,5h0l.35.35.34-.28L43.8,33.26h0L61.45,18.78ZM28,44.79l-4.64-4.18-1.85,1.85-.36.35,3.59,3.58,3.69-1.21Zm1.56-23.85-7,3.88L14.28,35.6,13.19,37,20,33.45,30.79,20.24Z"/></g></svg>
