<svg xmlns="http://www.w3.org/2000/svg" viewBox="0 0 64 64"><defs><style>.cls-1{opacity:0.2;}</style></defs><title>i-</title><g id="OUTLINES" fill="#3FA5E3" fill-rule="evenodd"><path d="M10.66,20.21l1.43,1.17-.29.38a18.78,18.78,0,0,0-3,5.9A19.4,19.4,0,0,0,8,32.27v.44a23.25,23.25,0,0,0,1.82,9.07.5.5,0,0,1-.26.66.71.71,0,0,1-.2,0,.51.51,0,0,1-.46-.31A24.29,24.29,0,0,1,7,32.71v-.56a25.47,25.47,0,0,1,.68-4.8,18.33,18.33,0,0,1,.58-2,18,18,0,0,1,.62-1.7,24,24,0,0,1,1.47-3ZM46.49,33.75H57l0,.52a24.57,24.57,0,0,1-1.75,8.21c0,.11-.08.23-.13.36l-.2.44-9.79-4.05.21-.47a13,13,0,0,0,1.14-4.54Zm.93,1a14,14,0,0,1-1,3.94L54.36,42A23.8,23.8,0,0,0,56,34.75Zm-25-24.59.75,4.28-.45.11a18.82,18.82,0,0,0-4.43,1.66l-.42.23-1.54-2.66.34-.27a24.41,24.41,0,0,1,5.17-3.09ZM22,13.69l-.37-2.09a23.58,23.58,0,0,0-4,2.43l.63,1.08A19.72,19.72,0,0,1,22,13.69Zm26.06.45.45.39-7,5.85L41.25,20A18.5,18.5,0,0,0,37.53,17l-.4-.26,3.92-6.8.4.17A24.4,24.4,0,0,1,48.09,14.14Zm-1.1.38a23.86,23.86,0,0,0-5.52-3.33l-3,5.21A20.45,20.45,0,0,1,41.65,19ZM40.08,9.58l-3.83,6.65L35.82,16a18.75,18.75,0,0,0-4.51-1.59l-.47-.1,1.07-6.07h.42A24.19,24.19,0,0,1,39.49,9.4Zm-1.49.59a23.08,23.08,0,0,0-5.84-.9L32,13.56a19.87,19.87,0,0,1,3.86,1.36Zm-23,4.25L17,17l-.39.26A18.65,18.65,0,0,0,13,20.26l-.32.35-1.51-1.26.26-.37a25.65,25.65,0,0,1,3.62-4.14Zm.12,2.22L15.31,16a24.52,24.52,0,0,0-2.75,3.17l.07.06A20.28,20.28,0,0,1,15.67,16.64ZM30.89,8.27l-1,5.9-.46-.05a18.91,18.91,0,0,0-4.76.07l-.48.07-.8-4.48.41-.14a24.9,24.9,0,0,1,6.49-1.33Zm-1.2,1.09a23.74,23.74,0,0,0-5.19,1.09L25,13.13A20.34,20.34,0,0,1,29,13.08Zm29,36.58a29.27,29.27,0,0,1-4,6.28l0,0h0a5.34,5.34,0,0,1-4.08,1.87,5.54,5.54,0,0,1-4.19-1.9,19.07,19.07,0,0,0-6.63-4.87L38,50.92a1,1,0,0,0-.1.75,6.5,6.5,0,1,1-8.08-4.13,1.33,1.33,0,0,0,.68-.64l.65-1.13a19,19,0,0,0-13.45,6.46,5.54,5.54,0,0,1-4.19,1.9,5.34,5.34,0,0,1-4.08-1.87l0,0A29.51,29.51,0,0,1,32,3.75c.62,0,1.25,0,1.86,0A29.51,29.51,0,0,1,58.64,45.94Zm-10.79-21a1.05,1.05,0,0,0-.47-1.37,1,1,0,0,0-.48-.12A1.06,1.06,0,0,0,46,24l-13.75,24a3.25,3.25,0,0,1-1.83,1.55,4.49,4.49,0,0,0-2.47,1.9,4.62,4.62,0,0,0,1.75,6.4,4.5,4.5,0,0,0,5.4-1,4.31,4.31,0,0,0,.32-.4,4.26,4.26,0,0,0,.34-.55A4.49,4.49,0,0,0,36,52.31a3,3,0,0,1,.18-2.23Zm1.89-1.53,3.52-1.28a24.09,24.09,0,0,0-4-5.55l-5.64,4.73a14.67,14.67,0,0,1,.89,1.33,3.05,3.05,0,0,1,3.82-.85A3,3,0,0,1,49.74,23.39Zm-.54,3.38-1.85,4c0,.32.07.65.09,1H56a23,23,0,0,0-1.47-6.9Zm10.23,4.52A27.63,27.63,0,0,0,33.74,5.8c-.58,0-1.16,0-1.74,0A27.49,27.49,0,0,0,10.93,50.93l0,0a3.34,3.34,0,0,0,2.56,1.17,3.55,3.55,0,0,0,2.69-1.22A20.93,20.93,0,0,1,32,43.75h.31L43.9,23.57a18.93,18.93,0,0,0-1.39-2.05l-.29-.38,7-5.85.48.29a25.11,25.11,0,0,1,4.74,6.58l.25.5-4.73,1.72a3.34,3.34,0,0,1-.16,1.12l5.28-1.92.18.45A24.25,24.25,0,0,1,57,32.23l0,.52H46.49v-.12l-6,12.92a20.87,20.87,0,0,1,7.29,5.36,3.55,3.55,0,0,0,2.69,1.22A3.34,3.34,0,0,0,53,51l0,0a27.36,27.36,0,0,0,6.36-19.64Z"/></g><g id="SHADING"><path class="cls-1" d="M32,40.75A24,24,0,0,0,15.87,47a20.13,20.13,0,0,0-1.6,1.6.83.83,0,0,1-1.37,0,1.19,1.19,0,0,1-.15-.18l0,0a24.31,24.31,0,0,1-2.8-4.47l.23-.08a2,2,0,0,0,1.07-2.62c-.09-.21-.18-.43-.25-.64a20.32,20.32,0,0,1-1.15-4.17c3.68,2.93,11,1.67,19.11-1.64,6-2.46,9.93-7.52,12-12.89a16.46,16.46,0,0,1,1.22,1.66L32.3,40.76Zm15-6.5A13.78,13.78,0,0,1,45.78,39l1.21.5,7.65,3.17a3.42,3.42,0,0,0,.13-.34,24.15,24.15,0,0,0,1.71-8ZM10.8,21a25.24,25.24,0,0,0-1.44,2.9c-.23.55-.43,1.1-.61,1.67a18.5,18.5,0,0,0-.56,1.93,24.26,24.26,0,0,0-.67,4.78,19.45,19.45,0,0,1,.83-4.73A17.48,17.48,0,0,1,9,25.64a19.15,19.15,0,0,1,2.38-4.18Zm5.54-4.18-.91-1.58a25,25,0,0,0-3.55,4.05l.79.66A19.61,19.61,0,0,1,16.34,16.79Zm6.26-2.73L22,10.87a24,24,0,0,0-5.06,3l1.08,1.87A19.22,19.22,0,0,1,22.6,14.06Zm4.65-.56a20,20,0,0,1,2.2.12l.84-4.81a24.29,24.29,0,0,0-6.36,1.3l.64,3.58A18.28,18.28,0,0,1,27.25,13.5ZM39.34,9.87a23.91,23.91,0,0,0-7-1.11l-.91,5.18a19.28,19.28,0,0,1,4.63,1.63Zm2.27,9.82,6.16-5.17a24,24,0,0,0-6.51-4l-3.46,6A19.44,19.44,0,0,1,41.61,19.69Zm2.57,3.39.08-.14a3.62,3.62,0,0,1,.22-.32,3.05,3.05,0,0,1,3.82-.85,3,3,0,0,1,1.44,1.62,2.42,2.42,0,0,1,.13.48L54,22.38a24.52,24.52,0,0,0-4.64-6.45l-.06,0-6.35,5.33A18.61,18.61,0,0,1,44.18,23.08Zm5,3.69-1.85,4-.42.89c0,.19,0,.39,0,.58h9.51a23.91,23.91,0,0,0-1.71-8L49.5,26.13Zm-13,23.31L47.85,24.92a1,1,0,0,0-.12-1.06L34.35,49.78a2.15,2.15,0,0,0-.12,1.85,3.9,3.9,0,0,1,0,3A3.85,3.85,0,0,1,31.3,57a4,4,0,0,1-3.44-1.08,4.31,4.31,0,0,0,1.83,1.83,4.5,4.5,0,0,0,5.4-1,4.31,4.31,0,0,0,.32-.4,4.26,4.26,0,0,0,.34-.55A4.49,4.49,0,0,0,36,52.31,3,3,0,0,1,36.19,50.08Z"/></g></svg>
