<svg xmlns="http://www.w3.org/2000/svg" width="42" height="63" viewBox="0 0 42 63">
    <g fill="#39A4E6" fill-rule="evenodd">
        <path d="M9.5 62.5l8.82-25H2.5l32-34-8.82 25H41.5z" opacity=".2"/>
        <path d="M8.76 57.43l8.032-22.765a.5.5 0 0 0-.471-.666H1.657L31.24 2.568l-8.032 22.765a.502.502 0 0 0 .472.666h14.663L8.76 57.43zM39.959 25.3a.5.5 0 0 0-.46-.301H24.388L32.972.666a.502.502 0 0 0-.212-.594.503.503 0 0 0-.624.085l-32 34a.5.5 0 0 0 .364.842h15.114L7.029 59.333a.499.499 0 0 0 .835.509l32-34a.5.5 0 0 0 .095-.541z"/>
    </g>
</svg>
