<svg xmlns="http://www.w3.org/2000/svg" viewBox="0 0 64 64"><defs><style>.cls-1{opacity:0.2;}</style></defs><title>i-</title><g id="OUTLINES"><path d="M55.51,21.53,63,17.21V15.52L40.46,2.5l-9,5.16L22.55,2.49,0,15.52v1.69l7.49,4.32L0,25.84v1.7l9,5.2V48.05L31.5,61l22.5-13V32.73l9-5.19v-1.7Zm-15-16.77,20.08,11.6-8,4.6L32.48,9.36ZM31,32.84,14.31,23.2l-2.89-1.67h0L31,10.22Zm1-22.62L51.58,21.53,32,32.84ZM2.47,16.36,22.55,4.76l8,4.6L10.44,21Zm0,10.32,8-4.59,20.08,11.6-8,4.58ZM11,33.89l11.54,6.65L31,35.68V58.49L11,46.93Zm41,13L32,58.49V35.68l8.47,4.86L52,33.89ZM40.47,38.27l-8-4.58,20.07-11.6h0l8,4.59Z"/></g><g id="SHADING"><path class="cls-1" d="M31,13.15,13.93,23l-.5.29L31.5,33.74V12.86ZM52,37.6,40.67,44.15l-8.67-5-.5-.29V60l21-12.13V37.31Z"/></g></svg>