<svg width="33" height="34" viewBox="0 0 33 34" xmlns="http://www.w3.org/2000/svg"><title>ic-server</title><g fill="#3FA5E3" fill-rule="evenodd"><path d="M1 22.268V14a1 1 0 0 1 1-1h24a1 1 0 0 1 1 1v3.12a7.69 7.69 0 0 1-2.512-1.653.49.49 0 0 0-.68 0c-1.855 1.802-4.297 2.555-6.78 1.894a.496.496 0 0 0-.37.048.48.48 0 0 0-.225.292A14.291 14.291 0 0 0 15.969 22H2a1.99 1.99 0 0 0-1 .268zM1 27.5V24a1 1 0 0 1 1-1h14.048c.518 4.515 3.132 8.364 6.81 10H8a1 1 0 0 1-1 1H4a1 1 0 0 1-1-1 2 2 0 0 1-2-2v-3.5zm0-15.232V4a2 2 0 0 1 2-2h22a2 2 0 0 1 2 2v8.268A1.99 1.99 0 0 0 26 12H2a1.99 1.99 0 0 0-1 .268zm25.047 20.436c-.092.057-.19.107-.29.148.097-.048.194-.097.29-.148zM4.5 8a.5.5 0 1 0 0-1 .5.5 0 0 0 0 1zm0 10a.5.5 0 1 0 0-1 .5.5 0 0 0 0 1zm4-10a.5.5 0 1 0 0-1 .5.5 0 0 0 0 1zm0 10a.5.5 0 1 0 0-1 .5.5 0 0 0 0 1zm-4 10a.5.5 0 1 0 0-1 .5.5 0 0 0 0 1zm4 0a.5.5 0 1 0 0-1 .5.5 0 0 0 0 1zm10-21a.5.5 0 1 0 0 1h5a.5.5 0 1 0 0-1h-5z" opacity=".15"/><path d="M9 25.5c0 .275-.225.5-.5.5a.501.501 0 0 1-.5-.5c0-.275.225-.5.5-.5s.5.225.5.5m-4 0c0 .275-.225.5-.5.5a.501.501 0 0 1-.5-.5c0-.275.225-.5.5-.5s.5.225.5.5M1 9V2a1 1 0 0 1 1-1h24a1 1 0 0 1 1 1v7a1 1 0 0 1-1 1H2a1 1 0 0 1-1-1m1 21a1 1 0 0 1-1-1v-7a1 1 0 0 1 1-1h12a.5.5 0 0 0 0-1H2a1 1 0 0 1-1-1v-7a1 1 0 0 1 1-1h24a1 1 0 0 1 1 1v.5a.5.5 0 0 0 1 0V12c0-.6-.271-1.133-.691-1.5.42-.367.691-.9.691-1.5V2c0-1.103-.897-2-2-2H2C.897 0 0 .897 0 2v7c0 .6.271 1.133.691 1.5-.42.367-.691.9-.691 1.5v7c0 .6.271 1.133.691 1.5-.42.367-.691.9-.691 1.5v7c0 1.103.897 2 2 2h1a1 1 0 0 0 1 1h3a1 1 0 0 0 1-1h9.5a.5.5 0 0 0 0-1H2zm7-14.5c0 .275-.225.5-.5.5a.501.501 0 0 1-.5-.5c0-.275.225-.5.5-.5s.5.225.5.5m-4 0c0 .275-.225.5-.5.5a.501.501 0 0 1-.5-.5c0-.275.225-.5.5-.5s.5.225.5.5M23.5 6h-5a.501.501 0 0 1-.5-.5c0-.275.225-.5.5-.5h5c.275 0 .5.225.5.5s-.225.5-.5.5m-15 0a.501.501 0 0 1-.5-.5c0-.275.225-.5.5-.5s.5.225.5.5-.225.5-.5.5m-4 0a.501.501 0 0 1-.5-.5c0-.275.225-.5.5-.5s.5.225.5.5-.225.5-.5.5m24.604 13.396a.502.502 0 0 1 0 .708l-5.5 5.5a.502.502 0 0 1-.708 0l-2.75-2.75a.502.502 0 0 1 .708-.708l2.396 2.397 5.146-5.147a.502.502 0 0 1 .708 0m-4.57 11.58c-4.404-1.43-7.467-6.2-7.467-11.661 0-1.035.117-2.076.346-3.1 2.587.534 5.121-.246 7.12-2.029 1.999 1.783 4.53 2.563 7.122 2.029.229 1.022.345 2.063.345 3.1 0 5.461-3.063 10.231-7.466 11.661m7.973-15.489a.495.495 0 0 0-.233-.306.494.494 0 0 0-.381-.05c-2.572.694-5.092-.097-7.008-1.987a.501.501 0 0 0-.703 0c-1.916 1.89-4.44 2.68-7.006 1.987a.503.503 0 0 0-.615.356 15.196 15.196 0 0 0-.494 3.828c0 5.957 3.422 11.164 8.321 12.664a.52.52 0 0 0 .293 0C29.579 30.479 33 25.272 33 19.315a15.21 15.21 0 0 0-.493-3.828"/></g></svg>
