<svg xmlns="http://www.w3.org/2000/svg" width="59" height="55" viewBox="0 0 59 55">
    <g fill="#3FA5E3" fill-rule="evenodd">
        <path d="M37.4 33.274l-6.95-4.002L48.075 19.12l2.375-1.369 6.95 4.002-20 11.521zm12.55 7.802l-20 11.52v-22.46l7.2 4.146a.497.497 0 0 0 .5 0l12.3-7.085v13.88zm-41-13.88l12.3 7.086a.497.497 0 0 0 .5 0l7.2-4.145v22.458l-20-11.519v-13.88zm-.5-9.445l2.375 1.369L28.45 29.272l-6.95 4.002-20-11.521 6.95-4.002zM21.5 1.074l6.95 4.003-20 11.52-6.95-4 20-11.523zm15.9 0l20 11.522-6.95 4.001-20-11.52 6.95-4.003zm-7.45 4.87l19.5 11.23-19.5 11.233V5.944zm-1 0v22.463L9.45 17.175l19.5-11.23zm22.498 11.23l7.202-4.147a.499.499 0 0 0 0-.864L37.65.066a.503.503 0 0 0-.5 0L29.45 4.5 21.75.066a.503.503 0 0 0-.5 0l-21 12.097a.5.5 0 0 0 0 .864l7.202 4.147L.25 21.322a.497.497 0 0 0 0 .863l7.7 4.435v14.745c0 .178.096.343.25.431l21 12.095a.497.497 0 0 0 .5 0l21-12.095a.499.499 0 0 0 .25-.431V26.62l7.7-4.435a.499.499 0 1 0 0-.864l-7.202-4.147z"/>
        <path d="M48.075 21.037L30.45 31.191l6.95 4 20-11.52-6.95-4.002-2.375 1.368zM28.45 6.994L21.5 2.992l-20 11.522 6.95 4.002 20-11.522zm28.95 7.52l-20-11.522-6.95 4.002 20 11.522 6.95-4.002zM29.95 7.862v22.462l19.5-11.23-19.5-11.232zm-1.5 23.329L10.825 21.037 8.45 19.67 1.5 23.67l20 11.52 6.95-4zm.5.863v22.459l-7.36-4.239-12.64-7.28v-13.88l12.3 7.085a.497.497 0 0 0 .5 0l7.2-4.145z" opacity=".2"/>
    </g>
</svg>
