<svg width="33" height="34" viewBox="0 0 33 34" xmlns="http://www.w3.org/2000/svg"><title>ic-git</title><g fill="#48535E" fill-rule="evenodd"><path d="M31.921 18.595c-.006.285-.148.524-.542.919-4.603 4.594-9.2 9.19-13.793 13.793-.35.35-.593.548-.873.599a.996.996 0 0 0-.177.047h-.09a.906.906 0 0 0-.156-.046c-.266-.054-.494-.244-.824-.573-3.654-3.662-7.312-7.319-10.97-10.977L1.58 19.442l-.107-.105c-.052-.05-.105-.1-.152-.154-.292-.335-.375-.621-.287-.988.061-.252.202-.48.458-.735L7.9 11.053l2.565-2.566.113.114 2.475 2.47c-.05.212-.096.459-.082.735.066 1.23.595 2.215 1.558 2.874-.008 1.954-.008 3.91-.007 5.864v2.026c-1.248.904-1.795 2.3-1.438 3.761.385 1.575 1.63 2.6 3.332 2.745.076.008.152.01.23.01 1.313 0 2.69-.962 3.202-2.24a3.518 3.518 0 0 0 .198-2.06c-.174-.83-.605-1.519-1.313-2.095v-5.91c.395.392.79.785 1.187 1.175a3.363 3.363 0 0 0 .044 1.544c.43 1.608 1.802 2.69 3.415 2.69a4 4 0 0 0 .772-.08c1.918-.395 3.141-2.201 2.783-4.116-.318-1.7-1.78-2.934-3.477-2.934-.183 0-.366.013-.546.043a303.56 303.56 0 0 0-2.839-2.835c.157-.94-.106-1.945-.724-2.729a3.524 3.524 0 0 0-2.787-1.345 3.88 3.88 0 0 0-.492.031 409.134 409.134 0 0 0-2.18-2.188L13.4 5.55c.614-.615 1.223-1.224 1.833-1.832.175-.174.356-.341.541-.512.137-.128.393-.208.666-.208.267 0 .525.08.66.203l.107.099c.104.093.207.186.305.284l13.201 13.2.628.628.081.08c.052.052.105.103.154.158.284.319.33.509.336.654.003.058.01.111.02.163a1.198 1.198 0 0 0-.01.127" opacity=".15"/><path d="M31.921 16.595c-.006.285-.148.524-.542.919-4.603 4.594-9.2 9.19-13.793 13.793-.35.35-.593.549-.873.599a.996.996 0 0 0-.177.047h-.09a.906.906 0 0 0-.156-.046c-.266-.055-.494-.244-.824-.573-3.654-3.662-7.312-7.319-10.97-10.976L1.58 17.44l-.107-.105c-.052-.05-.105-.099-.152-.154-.292-.335-.375-.62-.287-.988.061-.252.202-.479.458-.735L7.9 9.053l2.565-2.566.113.114 2.475 2.47c-.05.212-.096.459-.082.735.066 1.23.595 2.215 1.558 2.874-.008 1.954-.008 3.91-.007 5.864v2.026c-1.248.904-1.795 2.3-1.438 3.761.385 1.575 1.63 2.6 3.332 2.745.076.008.152.01.23.01 1.313 0 2.69-.962 3.202-2.24a3.518 3.518 0 0 0 .198-2.06c-.174-.83-.605-1.519-1.313-2.095v-5.91c.395.391.79.784 1.187 1.175a3.363 3.363 0 0 0 .044 1.544c.43 1.608 1.802 2.69 3.415 2.69a4 4 0 0 0 .772-.08c1.918-.395 3.141-2.201 2.783-4.116-.318-1.7-1.78-2.934-3.477-2.934-.183 0-.366.013-.546.043a303.56 303.56 0 0 0-2.839-2.835c.157-.94-.106-1.945-.724-2.729a3.524 3.524 0 0 0-2.787-1.345 3.88 3.88 0 0 0-.492.032 409.134 409.134 0 0 0-2.18-2.19l-.488-.485c.614-.615 1.223-1.225 1.833-1.832.175-.173.356-.342.541-.512.137-.129.393-.208.666-.208.267 0 .525.08.66.202l.107.1c.104.093.207.186.305.285l13.201 13.198.628.63.081.08c.052.05.105.102.154.157.284.319.33.509.336.654.003.058.01.111.02.163a1.198 1.198 0 0 0-.01.127m.99-.337c-.025-.506-.265-.909-.589-1.272-.087-.098-.182-.188-.275-.28L18.22.88c-.143-.143-.295-.278-.444-.415C17.438.157 16.94 0 16.44 0c-.502 0-1.005.157-1.346.474-.19.177-.382.353-.567.537-.84.838-1.678 1.677-2.53 2.529.09.098.164.186.244.266 1.075 1.075 2.155 2.146 3.223 3.23.146.15.276.21.458.21.056 0 .116-.005.183-.016.156-.024.308-.036.455-.036 1.757 0 2.832 1.66 2.494 3.06-.056.237-.013.402.166.579a319.419 319.419 0 0 1 3.136 3.133c.12.12.235.18.38.18a.661.661 0 0 0 .158-.02c.185-.044.374-.066.562-.066 1.134 0 2.246.792 2.494 2.118.237 1.265-.506 2.645-2 2.951-.197.04-.388.06-.572.06-1.216 0-2.15-.832-2.449-1.948a2.427 2.427 0 0 1 .027-1.317c.047-.16.052-.296-.086-.433-1.032-1.018-2.056-2.041-3.083-3.063-.009-.008-.028-.004-.055-.007V21.2c.665.431 1.165.985 1.334 1.79a2.525 2.525 0 0 1-.147 1.485c-.364.906-1.372 1.611-2.275 1.611a2.25 2.25 0 0 1-.143-.005c-1.42-.122-2.2-.979-2.447-1.986-.27-1.107.16-2.262 1.45-2.965.005-.114.017-.242.017-.37.001-2.739-.005-5.478.007-8.215.002-.313-.098-.477-.368-.646-.778-.49-1.143-1.244-1.19-2.146-.013-.238.066-.482.123-.72.04-.166.041-.297-.094-.431-1.17-1.162-2.337-2.332-3.53-3.524-.1.098-.193.183-.28.271C7.052 8.483 3.92 11.62.783 14.752c-.343.344-.606.723-.723 1.208-.175.727.031 1.335.505 1.88.095.109.203.206.306.309 4.63 4.63 9.261 9.259 13.886 13.891.385.386.78.733 1.33.847.02.005.032.043.047.066h.696c.018-.02.034-.058.055-.061.587-.105 1.003-.474 1.407-.878 4.594-4.601 9.191-9.198 13.792-13.791.454-.454.822-.933.836-1.607 0-.031.051-.061.08-.091v-.088c-.032-.06-.087-.117-.09-.178"/></g></svg>