<svg xmlns="http://www.w3.org/2000/svg" xmlns:xlink="http://www.w3.org/1999/xlink" width="1080" zoomAndPan="magnify" viewBox="0 0 810 809.999993" height="1080" preserveAspectRatio="xMidYMid meet" version="1.0"><defs><clipPath id="6162469116"><path d="M 105.261719 62 L 704.511719 62 L 704.511719 748 L 105.261719 748 Z M 105.261719 62 " clip-rule="nonzero"/></clipPath><clipPath id="c7f3aaca81"><path d="M 425.742188 68.28125 L 683.988281 218.535156 C 696.832031 226.007812 704.734375 239.746094 704.734375 254.605469 L 704.734375 555.390625 C 704.734375 570.25 696.832031 583.984375 683.988281 591.457031 L 425.742188 741.710938 C 412.917969 749.171875 397.074219 749.171875 384.253906 741.710938 L 126.003906 591.457031 C 113.160156 583.984375 105.261719 570.25 105.261719 555.390625 L 105.261719 254.605469 C 105.261719 239.746094 113.160156 226.007812 126.003906 218.535156 L 384.253906 68.28125 C 397.074219 60.820312 412.917969 60.820312 425.742188 68.28125 Z M 425.742188 68.28125 " clip-rule="nonzero"/></clipPath><clipPath id="df2c0f2525"><path d="M 97.648438 1.035156 L 180.605469 1.035156 L 180.605469 126.402344 L 97.648438 126.402344 Z M 97.648438 1.035156 " clip-rule="nonzero"/></clipPath><clipPath id="7010d66771"><path d="M 0.648438 0.0351562 L 83.605469 0.0351562 L 83.605469 125.402344 L 0.648438 125.402344 Z M 0.648438 0.0351562 " clip-rule="nonzero"/></clipPath><clipPath id="18c0912582"><rect x="0" width="84" y="0" height="126"/></clipPath><clipPath id="3295bf01de"><path d="M 0.199219 1.039062 L 175.195312 1.039062 L 175.195312 126.410156 L 0.199219 126.410156 Z M 0.199219 1.039062 " clip-rule="nonzero"/></clipPath><clipPath id="a6f9c1fb6e"><path d="M 171.445312 42.851562 C 173.710938 49.257812 175.195312 56.585938 175.195312 63.757812 C 175.195312 70.929688 173.921875 77.832031 171.660156 84.191406 C 171.585938 84.324219 171.585938 84.460938 171.515625 84.597656 C 162.464844 108.480469 138.5625 126.070312 110.292969 126.410156 L 15.363281 126.410156 C 11.386719 126.410156 7.570312 124.828125 4.757812 122.015625 C 1.945312 119.203125 0.363281 115.386719 0.363281 111.410156 L 0.363281 16.039062 C 0.363281 12.0625 1.945312 8.246094 4.757812 5.433594 C 7.570312 2.621094 11.386719 1.039062 15.363281 1.039062 L 110.210938 1.039062 C 138.703125 1.378906 162.605469 18.699219 171.445312 42.851562 Z M 171.445312 42.851562 " clip-rule="nonzero"/></clipPath><clipPath id="613e3a32fe"><path d="M 0.199219 0.0390625 L 175.195312 0.0390625 L 175.195312 125.410156 L 0.199219 125.410156 Z M 0.199219 0.0390625 " clip-rule="nonzero"/></clipPath><clipPath id="aa96c8bcc8"><path d="M 171.445312 41.851562 C 173.710938 48.257812 175.195312 55.585938 175.195312 62.757812 C 175.195312 69.929688 173.921875 76.832031 171.660156 83.191406 C 171.585938 83.324219 171.585938 83.460938 171.515625 83.597656 C 162.464844 107.480469 138.5625 125.070312 110.292969 125.410156 L 15.363281 125.410156 C 11.386719 125.410156 7.570312 123.828125 4.757812 121.015625 C 1.945312 118.203125 0.363281 114.386719 0.363281 110.410156 L 0.363281 15.039062 C 0.363281 11.0625 1.945312 7.246094 4.757812 4.433594 C 7.570312 1.621094 11.386719 0.0390625 15.363281 0.0390625 L 110.210938 0.0390625 C 138.703125 0.378906 162.605469 17.699219 171.445312 41.851562 Z M 171.445312 41.851562 " clip-rule="nonzero"/></clipPath><clipPath id="657c6edc17"><rect x="0" width="176" y="0" height="126"/></clipPath><clipPath id="0df8a819cc"><rect x="0" width="181" y="0" height="127"/></clipPath><clipPath id="7e78516537"><path d="M 0.953125 0.210938 L 68 0.210938 L 68 40.527344 L 0.953125 40.527344 Z M 0.953125 0.210938 " clip-rule="nonzero"/></clipPath><clipPath id="8c95f8131c"><path d="M 5.453125 0.210938 L 63.472656 0.210938 C 65.957031 0.210938 67.972656 2.226562 67.972656 4.710938 L 67.972656 36.027344 C 67.972656 38.515625 65.957031 40.527344 63.472656 40.527344 L 5.453125 40.527344 C 2.96875 40.527344 0.953125 38.515625 0.953125 36.027344 L 0.953125 4.710938 C 0.953125 2.226562 2.96875 0.210938 5.453125 0.210938 Z M 5.453125 0.210938 " clip-rule="nonzero"/></clipPath><clipPath id="697d8616b3"><path d="M 0.953125 0.210938 L 68 0.210938 L 68 40.527344 L 0.953125 40.527344 Z M 0.953125 0.210938 " clip-rule="nonzero"/></clipPath><clipPath id="110affb7aa"><path d="M 5.453125 0.210938 L 63.472656 0.210938 C 65.957031 0.210938 67.972656 2.226562 67.972656 4.710938 L 67.972656 36.027344 C 67.972656 38.515625 65.957031 40.527344 63.472656 40.527344 L 5.453125 40.527344 C 2.96875 40.527344 0.953125 38.515625 0.953125 36.027344 L 0.953125 4.710938 C 0.953125 2.226562 2.96875 0.210938 5.453125 0.210938 Z M 5.453125 0.210938 " clip-rule="nonzero"/></clipPath><clipPath id="8394be8a7d"><rect x="0" width="68" y="0" height="41"/></clipPath><clipPath id="2d41b112ee"><path d="M 0.953125 25.332031 L 13.558594 25.332031 L 13.558594 185.792969 L 0.953125 185.792969 Z M 0.953125 25.332031 " clip-rule="nonzero"/></clipPath><clipPath id="3ac281df3a"><path d="M 6.953125 25.332031 L 7.558594 25.332031 C 10.871094 25.332031 13.558594 28.019531 13.558594 31.332031 L 13.558594 179.75 C 13.558594 183.0625 10.871094 185.75 7.558594 185.75 L 6.953125 185.75 C 3.640625 185.75 0.953125 183.0625 0.953125 179.75 L 0.953125 31.332031 C 0.953125 28.019531 3.640625 25.332031 6.953125 25.332031 Z M 6.953125 25.332031 " clip-rule="nonzero"/></clipPath><clipPath id="fadd9bc927"><path d="M 0.953125 0.332031 L 13.558594 0.332031 L 13.558594 160.792969 L 0.953125 160.792969 Z M 0.953125 0.332031 " clip-rule="nonzero"/></clipPath><clipPath id="59c8debff4"><path d="M 6.953125 0.332031 L 7.558594 0.332031 C 10.871094 0.332031 13.558594 3.019531 13.558594 6.332031 L 13.558594 154.75 C 13.558594 158.0625 10.871094 160.75 7.558594 160.75 L 6.953125 160.75 C 3.640625 160.75 0.953125 158.0625 0.953125 154.75 L 0.953125 6.332031 C 0.953125 3.019531 3.640625 0.332031 6.953125 0.332031 Z M 6.953125 0.332031 " clip-rule="nonzero"/></clipPath><clipPath id="89f07b19c0"><rect x="0" width="14" y="0" height="161"/></clipPath><clipPath id="9dfc58c906"><rect x="0" width="69" y="0" height="186"/></clipPath><clipPath id="2b37c312d4"><path d="M 187.816406 202.59375 L 611.527344 202.59375 L 611.527344 621.09375 L 187.816406 621.09375 Z M 187.816406 202.59375 " clip-rule="nonzero"/></clipPath></defs><g clip-path="url(#6162469116)"><g clip-path="url(#c7f3aaca81)"><path stroke-linecap="butt" transform="matrix(0.75, 0, 0, 0.75, 105.260439, 56.212176)" fill="none" stroke-linejoin="miter" d="M 427.309047 16.0921 L 771.637211 216.430665 C 788.762213 226.394207 799.298673 244.711918 799.298673 264.52442 L 799.298673 665.571341 C 799.298673 685.383843 788.762213 703.696345 771.637211 713.659888 L 427.309047 913.998453 C 410.210087 923.94637 389.085084 923.94637 371.991332 913.998453 L 27.657959 713.659888 C 10.532958 703.696345 0.00170633 685.383843 0.00170633 665.571341 L 0.00170633 264.52442 C 0.00170633 244.711918 10.532958 226.394207 27.657959 216.430665 L 371.991332 16.0921 C 389.085084 6.144182 410.210087 6.144182 427.309047 16.0921 Z M 427.309047 16.0921 " stroke="#5bc0ff" stroke-width="30" stroke-opacity="1" stroke-miterlimit="4"/></g></g><g transform="matrix(1, 0, 0, 1, 205, 374)"><g clip-path="url(#0df8a819cc)"><g clip-path="url(#df2c0f2525)"><g transform="matrix(1, 0, 0, 1, 97, 1)"><g clip-path="url(#18c0912582)"><g clip-path="url(#7010d66771)"><path fill="#2a536d" d="M 0.648438 0.0351562 L 83.605469 0.0351562 L 83.605469 125.441406 L 0.648438 125.441406 Z M 0.648438 0.0351562 " fill-opacity="1" fill-rule="nonzero"/></g></g></g></g><g clip-path="url(#3295bf01de)"><g clip-path="url(#a6f9c1fb6e)"><g transform="matrix(1, 0, 0, 1, 0, 1)"><g clip-path="url(#657c6edc17)"><g clip-path="url(#613e3a32fe)"><g clip-path="url(#aa96c8bcc8)"><path fill="#2a536d" d="M 175.195312 0.0390625 L 175.195312 125.410156 L 0.367188 125.410156 L 0.367188 0.0390625 Z M 175.195312 0.0390625 " fill-opacity="1" fill-rule="nonzero"/></g></g></g></g></g></g></g></g><g transform="matrix(1, 0, 0, 1, 514, 223)"><g clip-path="url(#9dfc58c906)"><g clip-path="url(#7e78516537)"><g clip-path="url(#8c95f8131c)"><g transform="matrix(1, 0, 0, 1, 0, 0.000000000000028422)"><g clip-path="url(#8394be8a7d)"><g clip-path="url(#697d8616b3)"><g clip-path="url(#110affb7aa)"><path fill="#2a536d" d="M 0.953125 0.210938 L 68.042969 0.210938 L 68.042969 40.527344 L 0.953125 40.527344 Z M 0.953125 0.210938 " fill-opacity="1" fill-rule="nonzero"/></g></g></g></g></g></g><g clip-path="url(#2d41b112ee)"><g clip-path="url(#3ac281df3a)"><g transform="matrix(1, 0, 0, 1, 0, 25)"><g clip-path="url(#89f07b19c0)"><g clip-path="url(#fadd9bc927)"><g clip-path="url(#59c8debff4)"><path fill="#2a536d" d="M 0.953125 0.332031 L 13.558594 0.332031 L 13.558594 160.746094 L 0.953125 160.746094 Z M 0.953125 0.332031 " fill-opacity="1" fill-rule="nonzero"/></g></g></g></g></g></g></g></g><g clip-path="url(#2b37c312d4)"><path fill="#5bc0ff" d="M 602.984375 532.589844 L 394.277344 532.589844 L 394.277344 361.316406 C 394.269531 336.515625 380.941406 313.628906 359.375 301.386719 L 496.496094 302.511719 L 496.808594 401.054688 C 496.796875 410.660156 504.453125 418.519531 514.058594 418.765625 C 514.242188 418.765625 514.421875 418.769531 514.597656 418.769531 C 524.421875 418.761719 532.375 410.785156 532.363281 400.960938 C 532.363281 400.910156 532.363281 400.859375 532.363281 400.808594 L 531.34375 302.800781 L 538.183594 302.863281 L 538.21875 302.863281 C 573.933594 302.863281 602.910156 331.773438 602.984375 367.488281 Z M 458.507812 623.765625 L 413.164062 623.765625 L 413.164062 541.28125 L 458.507812 541.28125 Z M 244.132812 532.648438 L 244.132812 522.648438 L 385.585938 522.648438 L 385.585938 532.648438 Z M 212.742188 513.957031 C 209.542969 513.960938 206.417969 513.011719 203.753906 511.234375 L 267.292969 433.992188 L 260.582031 428.46875 L 198.019531 504.53125 C 197.023438 502.402344 196.507812 500.078125 196.507812 497.730469 L 196.507812 381.019531 C 196.511719 377.992188 197.367188 375.027344 198.976562 372.46875 L 294.503906 444.675781 C 302.746094 450.875 314.085938 450.945312 322.402344 444.832031 L 385.585938 398.105469 L 385.585938 466.402344 L 354.617188 428.484375 L 347.886719 433.984375 L 385.585938 480.140625 L 385.585938 513.957031 Z M 235.445312 364.792969 L 385.578125 364.792969 C 385.585938 365.132812 385.585938 365.472656 385.585938 365.808594 L 385.585938 387.292969 L 317.222656 437.847656 C 312.015625 441.671875 304.910156 441.628906 299.746094 437.738281 L 205.515625 366.511719 C 207.757812 365.382812 210.234375 364.796875 212.742188 364.792969 Z M 304.386719 301.050781 L 325.332031 301.050781 C 326.28125 301.050781 327.226562 301.078125 328.164062 301.125 C 358.292969 302.585938 382.710938 326.058594 385.363281 356.101562 L 244.359375 356.101562 C 247.101562 324.980469 273.144531 301.09375 304.386719 301.050781 Z M 504.886719 211.285156 L 578.820312 211.285156 L 578.820312 257.6875 L 530.554688 257.6875 C 525.980469 257.683594 522.273438 261.386719 522.269531 265.960938 C 522.269531 265.992188 522.269531 266.023438 522.269531 266.054688 L 522.558594 294.039062 L 522.652344 302.730469 L 523.671875 400.898438 C 523.707031 405.914062 519.660156 410.007812 514.644531 410.042969 C 509.625 410.078125 505.53125 406.035156 505.5 401.015625 L 505.1875 302.589844 L 505.148438 293.890625 Z M 611.675781 367.488281 C 611.589844 326.984375 578.746094 294.191406 538.246094 294.171875 L 531.25 294.109375 L 530.960938 266.375 L 579.234375 266.375 C 583.804688 266.367188 587.507812 262.660156 587.511719 258.085938 L 587.511719 210.875 C 587.507812 206.304688 583.800781 202.601562 579.234375 202.59375 L 504.488281 202.59375 C 499.917969 202.585938 496.203125 206.285156 496.195312 210.859375 C 496.195312 210.875 496.195312 210.886719 496.195312 210.902344 L 496.46875 293.820312 L 328.175781 292.421875 C 327.238281 292.378906 326.289062 292.363281 325.332031 292.363281 L 320.632812 292.363281 L 316.441406 292.328125 L 316.441406 292.363281 L 304.386719 292.363281 C 268.347656 292.40625 238.402344 320.164062 235.632812 356.101562 L 212.742188 356.101562 C 198.980469 356.109375 187.828125 367.261719 187.816406 381.019531 L 187.816406 497.730469 C 187.828125 511.488281 198.980469 522.636719 212.742188 522.648438 L 235.445312 522.648438 L 235.445312 541.339844 L 394.277344 541.339844 L 394.277344 541.28125 L 404.472656 541.28125 L 404.472656 632.457031 L 467.195312 632.457031 L 467.195312 541.28125 L 611.675781 541.28125 L 611.675781 367.488281 " fill-opacity="1" fill-rule="nonzero"/></g><path fill="#5bc0ff" d="M 252.980469 286.316406 L 250.375 278.023438 C 233.628906 283.292969 220.0625 295.886719 214.070312 311.707031 L 222.195312 314.785156 C 227.25 301.4375 238.761719 290.792969 252.980469 286.316406 " fill-opacity="1" fill-rule="nonzero"/><path fill="#5bc0ff" d="M 410.335938 499.136719 L 412.902344 507.441406 C 429.667969 502.257812 443.308594 489.742188 449.378906 473.953125 L 441.269531 470.832031 C 436.144531 484.152344 424.582031 494.734375 410.335938 499.136719 " fill-opacity="1" fill-rule="nonzero"/></svg>