<svg xmlns="http://www.w3.org/2000/svg" xmlns:xlink="http://www.w3.org/1999/xlink" width="1080" zoomAndPan="magnify" viewBox="0 0 810 809.999993" height="1080" preserveAspectRatio="xMidYMid meet" version="1.0"><defs><filter x="0%" y="0%" width="100%" height="100%" id="92d546c408"><feColorMatrix values="0 0 0 0 1 0 0 0 0 1 0 0 0 0 1 0 0 0 1 0" color-interpolation-filters="sRGB"/></filter><mask id="c7b91773a3"><g filter="url(#92d546c408)"><rect x="-81" width="972" fill="#000000" y="-80.999999" height="971.999992" fill-opacity="0.2"/></g></mask><clipPath id="18807f0f11"><rect x="0" width="634" y="0" height="646"/></clipPath></defs><path fill="#ffffff" d="M 134.914062 255.78125 L 153.015625 270.589844 L 149.34375 275.398438 C 140.855469 286.625 133.421875 298.507812 127.042969 311.050781 C 120.664062 323.59375 115.441406 336.601562 111.375 350.070312 C 105.636719 369.109375 102.261719 388.558594 101.25 408.417969 L 101.25 413.984375 C 101.207031 433.695312 103.121094 453.214844 107 472.539062 C 110.878906 491.863281 116.640625 510.609375 124.285156 528.777344 C 124.453125 529.160156 124.582031 529.554688 124.671875 529.960938 C 124.757812 530.371094 124.808594 530.78125 124.816406 531.199219 C 124.824219 531.617188 124.792969 532.03125 124.71875 532.441406 C 124.644531 532.851562 124.53125 533.25 124.375 533.640625 C 124.222656 534.027344 124.035156 534.398438 123.808594 534.746094 C 123.582031 535.097656 123.324219 535.421875 123.035156 535.722656 C 122.742188 536.023438 122.425781 536.292969 122.082031 536.527344 C 121.738281 536.765625 121.375 536.964844 120.992188 537.132812 C 120.148438 537.25 119.304688 537.25 118.460938 537.132812 C 117.839844 537.121094 117.230469 537.019531 116.636719 536.832031 C 116.042969 536.644531 115.488281 536.378906 114.972656 536.03125 C 114.453125 535.683594 114 535.269531 113.601562 534.789062 C 113.207031 534.308594 112.886719 533.78125 112.640625 533.207031 C 108.683594 523.796875 105.199219 514.210938 102.195312 504.449219 C 99.191406 494.691406 96.679688 484.808594 94.664062 474.796875 C 92.644531 464.789062 91.128906 454.703125 90.113281 444.542969 C 89.097656 434.382812 88.59375 424.195312 88.59375 413.984375 L 88.59375 406.898438 C 89.527344 386.375 92.394531 366.125 97.199219 346.148438 C 99.167969 337.570312 101.613281 329.132812 104.539062 320.835938 C 106.796875 313.53125 109.410156 306.359375 112.386719 299.320312 C 117.707031 286.230469 123.90625 273.574219 130.992188 261.351562 Z M 588.390625 427.148438 L 721.40625 427.148438 L 721.40625 433.730469 C 720.722656 451.554688 718.519531 469.191406 714.800781 486.636719 C 711.082031 504.082031 705.902344 521.082031 699.257812 537.636719 C 699.257812 539.03125 698.246094 540.546875 697.613281 542.195312 L 695.082031 547.761719 L 571.175781 496.503906 L 573.835938 490.554688 C 577.957031 481.496094 581.230469 472.136719 583.65625 462.480469 C 586.082031 452.824219 587.617188 443.03125 588.261719 433.097656 Z M 600.160156 439.804688 C 598.378906 457.046875 594.160156 473.667969 587.503906 489.671875 L 687.992188 531.5625 C 693.835938 516.90625 698.496094 501.886719 701.976562 486.5 C 705.457031 471.113281 707.714844 455.546875 708.75 439.804688 Z M 283.753906 128.585938 L 293.246094 182.757812 L 287.550781 184.148438 C 267.972656 188.785156 249.285156 195.785156 231.484375 205.15625 L 226.167969 208.070312 L 206.675781 174.402344 L 210.980469 170.984375 C 231.171875 155.238281 252.980469 142.203125 276.414062 131.878906 Z M 278.4375 173.265625 L 273.753906 146.8125 C 255.855469 155.382812 238.980469 165.632812 223.128906 177.566406 L 231.101562 191.234375 C 246.269531 183.636719 262.046875 177.644531 278.4375 173.265625 Z M 608.257812 178.960938 L 613.953125 183.894531 L 525.359375 257.933594 L 522.070312 253.125 C 508.023438 238.425781 492.332031 225.769531 474.988281 215.15625 L 469.925781 211.867188 L 519.539062 125.804688 L 524.601562 127.953125 C 539.878906 134.15625 554.566406 141.535156 568.664062 150.089844 C 582.757812 158.648438 596.085938 168.269531 608.640625 178.960938 Z M 594.335938 183.769531 C 572.964844 166.546875 549.679688 152.496094 524.476562 141.625 L 486.507812 207.5625 C 501.160156 217.15625 514.703125 228.125 527.132812 240.46875 Z M 507.261719 121.246094 L 458.789062 205.410156 L 453.347656 202.5 C 435.183594 193.347656 416.15625 186.636719 396.265625 182.375 L 390.320312 181.109375 L 403.859375 104.289062 L 409.175781 104.289062 C 424.5625 104.441406 439.851562 105.75 455.039062 108.210938 C 470.226562 110.671875 485.148438 114.257812 499.796875 118.96875 Z M 488.40625 128.714844 C 464.257812 121.738281 439.621094 117.941406 414.492188 117.324219 L 405 171.617188 C 421.878906 175.671875 438.164062 181.40625 453.851562 188.832031 Z M 197.3125 182.503906 L 215.15625 215.15625 L 210.21875 218.445312 C 193.386719 229.171875 178.15625 241.828125 164.53125 256.414062 L 160.480469 260.84375 L 141.371094 244.898438 L 144.660156 240.214844 C 158.050781 221.101562 173.320312 203.636719 190.476562 187.820312 Z M 198.828125 210.601562 L 193.765625 202.5 C 181.015625 214.878906 169.414062 228.25 158.960938 242.621094 L 159.847656 243.378906 C 171.59375 231.183594 184.417969 220.257812 198.324219 210.601562 Z M 390.953125 104.667969 L 378.296875 179.339844 L 372.472656 178.707031 C 352.355469 176.453125 332.273438 176.75 312.230469 179.59375 L 306.15625 180.476562 L 296.03125 123.777344 L 301.21875 122.007812 C 327.84375 112.71875 355.226562 107.109375 383.359375 105.171875 Z M 375.765625 118.460938 C 353.351562 120.601562 331.457031 125.199219 310.078125 132.257812 L 316.40625 166.175781 C 333.261719 164.296875 350.136719 164.085938 367.03125 165.542969 Z M 742.796875 581.429688 C 729.316406 610.085938 712.441406 636.578125 692.171875 660.910156 C 690.582031 662.769531 688.898438 664.535156 687.117188 666.210938 C 685.335938 667.886719 683.46875 669.460938 681.519531 670.933594 C 679.566406 672.40625 677.542969 673.769531 675.441406 675.023438 C 673.34375 676.277344 671.179688 677.414062 668.957031 678.429688 C 666.734375 679.449219 664.464844 680.34375 662.144531 681.117188 C 659.824219 681.890625 657.46875 682.535156 655.082031 683.050781 C 652.691406 683.566406 650.28125 683.953125 647.847656 684.207031 C 645.417969 684.464844 642.976562 684.585938 640.53125 684.578125 C 638.027344 684.582031 635.53125 684.453125 633.039062 684.195312 C 630.550781 683.933594 628.082031 683.539062 625.632812 683.011719 C 623.183594 682.488281 620.769531 681.832031 618.390625 681.046875 C 616.015625 680.261719 613.683594 679.351562 611.402344 678.316406 C 609.121094 677.285156 606.902344 676.128906 604.746094 674.859375 C 602.589844 673.585938 600.507812 672.203125 598.496094 670.707031 C 596.488281 669.210938 594.566406 667.613281 592.726562 665.914062 C 590.890625 664.210938 589.148438 662.417969 587.503906 660.53125 C 581.730469 653.949219 575.621094 647.699219 569.167969 641.78125 C 562.71875 635.863281 555.964844 630.316406 548.910156 625.132812 C 541.855469 619.949219 534.539062 615.167969 526.964844 610.78125 C 519.390625 606.394531 511.597656 602.433594 503.59375 598.894531 L 480.9375 644.457031 C 480.113281 645.894531 479.589844 647.433594 479.371094 649.078125 C 479.152344 650.722656 479.253906 652.34375 479.671875 653.949219 C 480.105469 655.230469 480.507812 656.523438 480.875 657.824219 C 481.246094 659.128906 481.582031 660.4375 481.886719 661.757812 C 482.191406 663.078125 482.460938 664.402344 482.703125 665.734375 C 482.941406 667.066406 483.148438 668.402344 483.320312 669.746094 C 483.492188 671.089844 483.632812 672.433594 483.738281 673.785156 C 483.847656 675.132812 483.917969 676.484375 483.960938 677.839844 C 484 679.191406 484.007812 680.542969 483.980469 681.898438 C 483.953125 683.25 483.890625 684.601562 483.796875 685.953125 C 483.703125 687.304688 483.578125 688.652344 483.417969 689.996094 C 483.257812 691.339844 483.066406 692.679688 482.839844 694.011719 C 482.613281 695.347656 482.351562 696.675781 482.0625 697.996094 C 481.769531 699.320312 481.445312 700.632812 481.089844 701.941406 C 480.734375 703.246094 480.34375 704.542969 479.921875 705.828125 C 479.503906 707.113281 479.050781 708.390625 478.566406 709.65625 C 478.082031 710.917969 477.570312 712.171875 477.023438 713.410156 C 476.476562 714.648438 475.902344 715.871094 475.296875 717.082031 C 474.691406 718.292969 474.054688 719.488281 473.390625 720.667969 C 472.726562 721.847656 472.03125 723.007812 471.3125 724.152344 C 470.589844 725.300781 469.839844 726.425781 469.0625 727.535156 C 468.28125 728.640625 467.476562 729.730469 466.648438 730.796875 C 465.816406 731.867188 464.957031 732.914062 464.074219 733.9375 C 463.191406 734.964844 462.285156 735.96875 461.351562 736.949219 C 460.417969 737.929688 459.460938 738.886719 458.484375 739.820312 C 457.503906 740.753906 456.5 741.664062 455.476562 742.546875 C 454.449219 743.433594 453.40625 744.292969 452.335938 745.125 C 451.269531 745.957031 450.183594 746.761719 449.074219 747.542969 C 447.96875 748.320312 446.84375 749.070312 445.699219 749.796875 C 444.554688 750.519531 443.394531 751.214844 442.214844 751.878906 C 441.039062 752.546875 439.84375 753.183594 438.632812 753.789062 C 437.425781 754.398438 436.199219 754.972656 434.960938 755.519531 C 433.722656 756.066406 432.472656 756.585938 431.207031 757.070312 C 429.945312 757.554688 428.667969 758.007812 427.382812 758.429688 C 426.097656 758.851562 424.800781 759.242188 423.496094 759.601562 C 422.191406 759.957031 420.878906 760.285156 419.554688 760.578125 C 418.234375 760.871094 416.90625 761.132812 415.574219 761.359375 C 414.238281 761.585938 412.898438 761.78125 411.554688 761.945312 C 410.210938 762.105469 408.863281 762.234375 407.515625 762.328125 C 406.164062 762.425781 404.8125 762.484375 403.457031 762.515625 C 402.105469 762.542969 400.75 762.539062 399.398438 762.5 C 398.046875 762.460938 396.695312 762.390625 395.34375 762.285156 C 393.996094 762.179688 392.648438 762.039062 391.304688 761.871094 C 389.964844 761.699219 388.625 761.492188 387.292969 761.253906 C 385.960938 761.019531 384.632812 760.746094 383.316406 760.445312 C 381.996094 760.140625 380.683594 759.804688 379.382812 759.4375 C 378.078125 759.070312 376.785156 758.671875 375.503906 758.238281 C 374.222656 757.808594 372.949219 757.34375 371.6875 756.851562 C 370.429688 756.355469 369.183594 755.832031 367.949219 755.277344 C 366.714844 754.71875 365.492188 754.132812 364.289062 753.519531 C 363.082031 752.902344 361.894531 752.257812 360.71875 751.582031 C 359.546875 750.90625 358.390625 750.203125 357.25 749.472656 C 356.113281 748.738281 354.992188 747.980469 353.890625 747.191406 C 352.789062 746.40625 351.710938 745.59375 350.648438 744.75 C 349.585938 743.910156 348.546875 743.046875 347.527344 742.152344 C 346.511719 741.261719 345.515625 740.34375 344.542969 739.402344 C 343.570312 738.464844 342.621094 737.5 341.695312 736.511719 C 340.769531 735.523438 339.867188 734.511719 338.992188 733.480469 C 338.117188 732.449219 337.265625 731.394531 336.445312 730.320312 C 335.621094 729.246094 334.824219 728.152344 334.054688 727.039062 C 333.285156 725.925781 332.542969 724.792969 331.828125 723.644531 C 331.117188 722.492188 330.429688 721.324219 329.773438 720.140625 C 329.117188 718.957031 328.492188 717.757812 327.894531 716.542969 C 327.296875 715.328125 326.730469 714.101562 326.195312 712.855469 C 325.660156 711.613281 325.152344 710.359375 324.679688 709.089844 C 324.203125 707.824219 323.761719 706.542969 323.351562 705.253906 C 322.941406 703.964844 322.5625 702.664062 322.214844 701.359375 C 321.867188 700.050781 321.550781 698.734375 321.269531 697.410156 C 320.988281 696.085938 320.738281 694.753906 320.523438 693.417969 C 320.304688 692.082031 320.121094 690.742188 319.972656 689.398438 C 319.820312 688.050781 319.707031 686.703125 319.621094 685.351562 C 319.539062 684 319.488281 682.648438 319.46875 681.296875 C 319.453125 679.941406 319.46875 678.589844 319.519531 677.234375 C 319.570312 675.882812 319.652344 674.53125 319.769531 673.183594 C 319.886719 671.835938 320.035156 670.492188 320.21875 669.148438 C 320.402344 667.808594 320.617188 666.472656 320.867188 665.140625 C 321.117188 663.8125 321.398438 662.488281 321.710938 661.171875 C 322.023438 659.855469 322.371094 658.546875 322.75 657.246094 C 323.128906 655.945312 323.539062 654.65625 323.980469 653.378906 C 324.425781 652.097656 324.898438 650.832031 325.402344 649.574219 C 325.910156 648.320312 326.445312 647.078125 327.011719 645.847656 C 327.578125 644.617188 328.171875 643.402344 328.800781 642.203125 C 329.425781 641.003906 330.082031 639.820312 330.765625 638.652344 C 331.449219 637.484375 332.164062 636.332031 332.90625 635.203125 C 333.648438 634.070312 334.417969 632.957031 335.210938 631.859375 C 336.007812 630.765625 336.832031 629.691406 337.679688 628.636719 C 338.53125 627.585938 339.40625 626.550781 340.304688 625.542969 C 341.207031 624.53125 342.132812 623.542969 343.082031 622.578125 C 344.03125 621.613281 345.003906 620.671875 346 619.753906 C 346.996094 618.835938 348.011719 617.945312 349.050781 617.078125 C 350.089844 616.210938 351.152344 615.371094 352.234375 614.558594 C 353.3125 613.742188 354.414062 612.957031 355.535156 612.195312 C 356.65625 611.433594 357.792969 610.703125 358.949219 610 C 360.105469 609.296875 361.277344 608.621094 362.46875 607.972656 C 363.65625 607.328125 364.863281 606.710938 366.082031 606.125 C 367.300781 605.539062 368.535156 604.984375 369.78125 604.457031 C 371.03125 603.929688 372.289062 603.4375 373.5625 602.972656 C 374.832031 602.511719 376.117188 602.078125 377.410156 601.679688 C 379.285156 600.890625 380.964844 599.800781 382.445312 598.410156 C 383.929688 597.015625 385.117188 595.402344 386.015625 593.578125 L 394.242188 579.277344 C 386.15625 579.632812 378.109375 580.398438 370.101562 581.570312 C 362.09375 582.738281 354.167969 584.308594 346.316406 586.28125 C 338.46875 588.25 330.738281 590.613281 323.125 593.363281 C 315.515625 596.117188 308.0625 599.242188 300.765625 602.746094 C 293.472656 606.25 286.371094 610.113281 279.464844 614.332031 C 272.5625 618.554688 265.886719 623.113281 259.441406 628.007812 C 252.996094 632.902344 246.8125 638.109375 240.894531 643.628906 C 234.976562 649.144531 229.347656 654.949219 224.015625 661.035156 C 222.371094 662.921875 220.628906 664.71875 218.789062 666.417969 C 216.953125 668.121094 215.03125 669.71875 213.019531 671.214844 C 211.011719 672.710938 208.929688 674.09375 206.773438 675.363281 C 204.613281 676.636719 202.394531 677.789062 200.113281 678.824219 C 197.835938 679.859375 195.503906 680.769531 193.125 681.550781 C 190.75 682.335938 188.335938 682.992188 185.886719 683.519531 C 183.4375 684.042969 180.96875 684.4375 178.476562 684.699219 C 175.988281 684.960938 173.488281 685.089844 170.984375 685.082031 C 168.539062 685.09375 166.101562 684.96875 163.671875 684.714844 C 161.238281 684.460938 158.828125 684.074219 156.4375 683.558594 C 154.046875 683.039062 151.695312 682.394531 149.375 681.625 C 147.054688 680.851562 144.78125 679.957031 142.558594 678.9375 C 140.335938 677.917969 138.175781 676.78125 136.078125 675.53125 C 133.976562 674.277344 131.953125 672.914062 130 671.441406 C 128.050781 669.964844 126.183594 668.390625 124.402344 666.714844 C 122.621094 665.042969 120.9375 663.273438 119.347656 661.414062 C 116.503906 658.035156 113.722656 654.609375 111 651.128906 C 108.277344 647.652344 105.621094 644.128906 103.023438 640.554688 C 100.425781 636.984375 97.894531 633.367188 95.425781 629.703125 C 92.957031 626.042969 90.554688 622.339844 88.21875 618.589844 C 85.878906 614.84375 83.609375 611.058594 81.410156 607.230469 C 79.207031 603.402344 77.070312 599.535156 75.007812 595.632812 C 72.941406 591.730469 70.945312 587.789062 69.019531 583.816406 C 67.09375 579.84375 65.238281 575.835938 63.453125 571.796875 C 61.671875 567.753906 59.960938 563.6875 58.320312 559.585938 C 56.679688 555.484375 55.117188 551.355469 53.621094 547.199219 C 52.128906 543.042969 50.710938 538.863281 49.367188 534.65625 C 48.023438 530.449219 46.753906 526.21875 45.558594 521.96875 C 44.363281 517.71875 43.246094 513.445312 42.203125 509.15625 C 41.160156 504.863281 40.191406 500.554688 39.300781 496.230469 C 38.410156 491.902344 37.597656 487.5625 36.863281 483.210938 C 36.125 478.855469 35.46875 474.488281 34.886719 470.113281 C 34.304688 465.734375 33.800781 461.347656 33.375 456.953125 C 32.949219 452.554688 32.601562 448.15625 32.332031 443.746094 C 32.0625 439.339844 31.871094 434.925781 31.757812 430.511719 C 31.644531 426.097656 31.609375 421.683594 31.652344 417.265625 C 31.699219 412.851562 31.820312 408.4375 32.019531 404.027344 C 32.21875 399.613281 32.496094 395.207031 32.855469 390.804688 C 33.210938 386.402344 33.644531 382.011719 34.15625 377.625 C 34.667969 373.238281 35.257812 368.863281 35.925781 364.496094 C 36.59375 360.128906 37.339844 355.777344 38.160156 351.441406 C 38.984375 347.101562 39.882812 342.777344 40.855469 338.46875 C 41.832031 334.164062 42.882812 329.875 44.011719 325.605469 C 45.136719 321.335938 46.339844 317.085938 47.617188 312.859375 C 48.894531 308.632812 50.25 304.429688 51.675781 300.25 C 53.101562 296.070312 54.605469 291.917969 56.179688 287.792969 C 57.753906 283.667969 59.398438 279.570312 61.121094 275.503906 C 62.839844 271.433594 64.628906 267.398438 66.492188 263.394531 C 68.355469 259.390625 70.289062 255.421875 72.292969 251.484375 C 74.296875 247.550781 76.371094 243.652344 78.511719 239.789062 C 80.65625 235.929688 82.863281 232.105469 85.140625 228.320312 C 87.417969 224.539062 89.761719 220.796875 92.171875 217.097656 C 94.585938 213.394531 97.058594 209.738281 99.597656 206.125 C 102.140625 202.515625 104.742188 198.949219 107.410156 195.429688 C 110.074219 191.90625 112.804688 188.4375 115.59375 185.011719 C 118.382812 181.589844 121.234375 178.214844 124.140625 174.894531 C 127.050781 171.570312 130.019531 168.300781 133.042969 165.085938 C 136.070312 161.867188 139.152344 158.707031 142.289062 155.597656 C 145.425781 152.488281 148.617188 149.4375 151.863281 146.445312 C 155.109375 143.449219 158.40625 140.511719 161.757812 137.636719 C 165.105469 134.757812 168.507812 131.941406 171.957031 129.183594 C 175.40625 126.425781 178.902344 123.730469 182.449219 121.097656 C 185.996094 118.464844 189.585938 115.898438 193.222656 113.390625 C 196.859375 110.886719 200.539062 108.445312 204.261719 106.070312 C 207.984375 103.695312 211.75 101.386719 215.554688 99.144531 C 219.359375 96.90625 223.203125 94.730469 227.085938 92.625 C 230.964844 90.519531 234.886719 88.484375 238.839844 86.519531 C 242.792969 84.554688 246.78125 82.65625 250.804688 80.832031 C 254.824219 79.007812 258.878906 77.253906 262.960938 75.574219 C 267.042969 73.894531 271.15625 72.285156 275.296875 70.75 C 279.4375 69.214844 283.605469 67.753906 287.796875 66.367188 C 291.992188 64.980469 296.207031 63.667969 300.445312 62.429688 C 304.683594 61.191406 308.945312 60.03125 313.222656 58.941406 C 317.503906 57.855469 321.804688 56.847656 326.121094 55.914062 C 330.433594 54.976562 334.765625 54.121094 339.113281 53.339844 C 343.460938 52.558594 347.820312 51.855469 352.191406 51.230469 C 356.5625 50.605469 360.945312 50.058594 365.335938 49.585938 C 369.726562 49.117188 374.125 48.722656 378.527344 48.410156 C 382.933594 48.09375 387.34375 47.859375 391.753906 47.699219 C 396.167969 47.542969 400.582031 47.460938 405 47.460938 C 412.847656 47.460938 420.820312 47.460938 428.539062 47.460938 C 436.132812 47.933594 443.703125 48.640625 451.253906 49.578125 C 458.800781 50.515625 466.316406 51.679688 473.792969 53.078125 C 481.273438 54.472656 488.699219 56.09375 496.078125 57.945312 C 503.457031 59.796875 510.773438 61.867188 518.027344 64.164062 C 525.277344 66.460938 532.453125 68.976562 539.550781 71.714844 C 546.648438 74.449219 553.65625 77.398438 560.578125 80.5625 C 567.496094 83.726562 574.308594 87.097656 581.023438 90.675781 C 587.734375 94.257812 594.332031 98.039062 600.8125 102.019531 C 607.292969 106.003906 613.644531 110.179688 619.871094 114.550781 C 626.097656 118.921875 632.183594 123.480469 638.132812 128.222656 C 644.078125 132.96875 649.875 137.886719 655.523438 142.984375 C 661.167969 148.082031 666.65625 153.347656 671.980469 158.78125 C 677.304688 164.210938 682.460938 169.800781 687.445312 175.550781 C 692.425781 181.296875 697.230469 187.191406 701.851562 193.234375 C 706.476562 199.273438 710.910156 205.449219 715.15625 211.761719 C 719.402344 218.074219 723.453125 224.507812 727.304688 231.070312 C 731.15625 237.628906 734.804688 244.300781 738.25 251.082031 C 741.695312 257.863281 744.929688 264.746094 747.957031 271.726562 C 750.980469 278.707031 753.789062 285.769531 756.382812 292.921875 C 758.972656 300.074219 761.347656 307.300781 763.5 314.59375 C 765.648438 321.890625 767.574219 329.246094 769.277344 336.660156 C 770.980469 344.078125 772.453125 351.535156 773.699219 359.039062 C 774.945312 366.542969 775.960938 374.078125 776.746094 381.644531 C 777.535156 389.210938 778.085938 396.796875 778.410156 404.398438 C 778.730469 411.996094 778.820312 419.601562 778.679688 427.207031 C 778.539062 434.8125 778.164062 442.40625 777.558594 449.988281 C 776.949219 457.570312 776.113281 465.128906 775.046875 472.660156 C 773.976562 480.191406 772.679688 487.683594 771.152344 495.136719 C 769.628906 502.589844 767.875 509.988281 765.898438 517.335938 C 763.921875 524.679688 761.71875 531.957031 759.296875 539.167969 C 756.875 546.378906 754.234375 553.511719 751.375 560.558594 C 748.515625 567.609375 745.445312 574.566406 742.164062 581.429688 Z M 606.234375 315.648438 C 606.585938 314.878906 606.863281 314.085938 607.066406 313.261719 C 607.265625 312.441406 607.386719 311.609375 607.429688 310.765625 C 607.472656 309.921875 607.433594 309.078125 607.316406 308.242188 C 607.199219 307.40625 607.003906 306.585938 606.726562 305.789062 C 606.453125 304.988281 606.105469 304.222656 605.6875 303.488281 C 605.265625 302.753906 604.777344 302.066406 604.226562 301.425781 C 603.675781 300.785156 603.066406 300.203125 602.40625 299.679688 C 601.742188 299.15625 601.035156 298.699219 600.285156 298.308594 C 598.390625 297.285156 596.363281 296.777344 594.210938 296.789062 C 592.988281 296.765625 591.78125 296.90625 590.597656 297.210938 C 589.410156 297.519531 588.289062 297.976562 587.226562 298.59375 C 586.167969 299.207031 585.210938 299.949219 584.355469 300.824219 C 583.5 301.703125 582.777344 302.675781 582.1875 303.75 L 408.164062 607.5 C 406.941406 609.792969 405.511719 611.949219 403.882812 613.972656 C 402.25 615.992188 400.441406 617.84375 398.460938 619.523438 C 396.476562 621.203125 394.355469 622.679688 392.089844 623.957031 C 389.828125 625.234375 387.464844 626.289062 385.003906 627.117188 C 381.789062 628.117188 378.6875 629.390625 375.703125 630.941406 C 372.714844 632.488281 369.886719 634.289062 367.21875 636.339844 C 364.550781 638.394531 362.085938 640.664062 359.824219 643.152344 C 357.558594 645.644531 355.53125 648.3125 353.742188 651.164062 C 353.246094 652.003906 352.769531 652.855469 352.316406 653.71875 C 351.863281 654.582031 351.429688 655.457031 351.019531 656.34375 C 350.609375 657.230469 350.21875 658.125 349.855469 659.03125 C 349.488281 659.933594 349.148438 660.847656 348.828125 661.769531 C 348.507812 662.691406 348.210938 663.621094 347.9375 664.558594 C 347.664062 665.496094 347.414062 666.4375 347.1875 667.386719 C 346.960938 668.335938 346.761719 669.292969 346.582031 670.25 C 346.402344 671.210938 346.25 672.175781 346.121094 673.140625 C 345.988281 674.109375 345.882812 675.078125 345.800781 676.050781 C 345.722656 677.023438 345.664062 678 345.632812 678.972656 C 345.597656 679.949219 345.589844 680.925781 345.605469 681.902344 C 345.621094 682.875 345.664062 683.851562 345.726562 684.824219 C 345.792969 685.800781 345.882812 686.769531 345.996094 687.738281 C 346.109375 688.710938 346.246094 689.675781 346.410156 690.636719 C 346.570312 691.601562 346.757812 692.558594 346.96875 693.511719 C 347.175781 694.464844 347.410156 695.410156 347.667969 696.351562 C 347.925781 697.292969 348.207031 698.230469 348.511719 699.15625 C 348.816406 700.082031 349.144531 701.003906 349.492188 701.914062 C 349.84375 702.824219 350.214844 703.726562 350.613281 704.617188 C 351.007812 705.511719 351.425781 706.390625 351.863281 707.265625 C 352.304688 708.136719 352.765625 708.996094 353.246094 709.84375 C 353.730469 710.691406 354.234375 711.527344 354.757812 712.351562 C 355.28125 713.171875 355.828125 713.984375 356.390625 714.777344 C 356.957031 715.574219 357.542969 716.355469 358.144531 717.121094 C 358.75 717.890625 359.371094 718.640625 360.015625 719.375 C 360.65625 720.109375 361.316406 720.828125 361.992188 721.53125 C 362.671875 722.234375 363.367188 722.917969 364.078125 723.585938 C 364.789062 724.253906 365.519531 724.902344 366.261719 725.535156 C 367.007812 726.164062 367.765625 726.777344 368.542969 727.371094 C 369.316406 727.964844 370.105469 728.535156 370.910156 729.089844 C 371.714844 729.644531 372.53125 730.175781 373.363281 730.691406 C 374.191406 731.203125 375.035156 731.695312 375.890625 732.164062 C 377.277344 732.875 378.691406 733.527344 380.132812 734.121094 C 381.574219 734.714844 383.035156 735.25 384.519531 735.722656 C 386.003906 736.195312 387.503906 736.609375 389.023438 736.960938 C 390.542969 737.3125 392.074219 737.597656 393.613281 737.824219 C 395.15625 738.050781 396.707031 738.210938 398.261719 738.308594 C 399.816406 738.40625 401.371094 738.441406 402.929688 738.414062 C 404.488281 738.382812 406.042969 738.289062 407.59375 738.132812 C 409.144531 737.976562 410.683594 737.753906 412.21875 737.46875 C 413.75 737.1875 415.265625 736.839844 416.769531 736.433594 C 418.273438 736.023438 419.761719 735.554688 421.226562 735.023438 C 422.691406 734.492188 424.132812 733.90625 425.546875 733.257812 C 426.964844 732.609375 428.355469 731.902344 429.710938 731.140625 C 431.070312 730.378906 432.398438 729.558594 433.6875 728.6875 C 434.980469 727.816406 436.234375 726.894531 437.453125 725.921875 C 438.667969 724.945312 439.84375 723.925781 440.976562 722.851562 C 442.105469 721.78125 443.195312 720.667969 444.234375 719.507812 C 445.683594 717.902344 447.035156 716.214844 448.285156 714.445312 C 449.894531 712.234375 451.328125 709.914062 452.585938 707.484375 C 454.394531 704.007812 455.824219 700.382812 456.878906 696.609375 C 457.9375 692.835938 458.59375 688.992188 458.855469 685.082031 C 459.117188 681.175781 458.976562 677.28125 458.433594 673.398438 C 457.886719 669.519531 456.953125 665.734375 455.625 662.046875 C 454.90625 659.734375 454.410156 657.371094 454.144531 654.957031 C 453.875 652.546875 453.839844 650.132812 454.035156 647.714844 C 454.230469 645.300781 454.652344 642.921875 455.304688 640.585938 C 455.953125 638.25 456.820312 635.996094 457.902344 633.824219 Z M 630.15625 296.28125 L 674.703125 280.082031 C 667.980469 267.230469 660.378906 254.921875 651.898438 243.15625 C 643.417969 231.390625 634.144531 220.285156 624.078125 209.839844 L 552.699219 269.703125 C 556.757812 275.109375 560.515625 280.722656 563.960938 286.539062 C 564.644531 285.648438 565.367188 284.792969 566.125 283.964844 C 566.882812 283.140625 567.675781 282.347656 568.5 281.589844 C 569.328125 280.835938 570.1875 280.113281 571.074219 279.433594 C 571.964844 278.75 572.882812 278.109375 573.828125 277.503906 C 574.773438 276.902344 575.742188 276.34375 576.738281 275.824219 C 577.730469 275.308594 578.746094 274.835938 579.78125 274.40625 C 580.816406 273.976562 581.871094 273.59375 582.9375 273.253906 C 584.007812 272.917969 585.089844 272.625 586.183594 272.382812 C 587.277344 272.140625 588.378906 271.945312 589.492188 271.796875 C 590.601562 271.648438 591.71875 271.550781 592.835938 271.5 C 593.957031 271.449219 595.078125 271.449219 596.199219 271.496094 C 597.316406 271.542969 598.433594 271.636719 599.546875 271.78125 C 600.65625 271.925781 601.761719 272.121094 602.855469 272.359375 C 603.949219 272.601562 605.03125 272.890625 606.101562 273.222656 C 607.171875 273.558594 608.222656 273.941406 609.261719 274.367188 C 610.296875 274.792969 611.3125 275.265625 612.308594 275.78125 C 614.289062 276.882812 616.15625 278.15625 617.910156 279.597656 C 619.664062 281.035156 621.277344 282.621094 622.746094 284.347656 C 624.214844 286.078125 625.519531 287.921875 626.65625 289.886719 C 627.796875 291.847656 628.75 293.894531 629.523438 296.03125 Z M 623.320312 339.0625 L 599.90625 389.6875 C 599.90625 393.734375 600.792969 397.914062 601.046875 402.34375 L 708.75 402.34375 C 707.914062 387.394531 705.933594 372.601562 702.816406 357.960938 C 699.695312 343.320312 695.472656 329.003906 690.144531 315.015625 Z M 752.792969 396.265625 C 752.40625 391.070312 751.902344 385.882812 751.28125 380.710938 C 750.660156 375.535156 749.921875 370.378906 749.074219 365.234375 C 748.222656 360.09375 747.257812 354.972656 746.175781 349.875 C 745.097656 344.777344 743.902344 339.707031 742.59375 334.660156 C 741.289062 329.613281 739.871094 324.601562 738.339844 319.621094 C 736.808594 314.636719 735.167969 309.691406 733.414062 304.785156 C 731.664062 299.875 729.800781 295.011719 727.832031 290.183594 C 725.863281 285.359375 723.785156 280.582031 721.601562 275.847656 C 719.417969 271.117188 717.132812 266.4375 714.738281 261.804688 C 712.347656 257.175781 709.851562 252.601562 707.253906 248.082031 C 704.65625 243.566406 701.960938 239.105469 699.164062 234.707031 C 696.367188 230.3125 693.472656 225.976562 690.484375 221.710938 C 687.492188 217.441406 684.410156 213.242188 681.230469 209.109375 C 678.054688 204.980469 674.785156 200.921875 671.425781 196.9375 C 668.066406 192.953125 664.621094 189.046875 661.085938 185.214844 C 657.550781 181.386719 653.933594 177.636719 650.234375 173.96875 C 646.53125 170.300781 642.75 166.714844 638.886719 163.214844 C 635.027344 159.714844 631.085938 156.304688 627.074219 152.980469 C 623.058594 149.65625 618.972656 146.425781 614.8125 143.285156 C 610.652344 140.144531 606.425781 137.097656 602.132812 134.148438 C 597.835938 131.195312 593.476562 128.339844 589.054688 125.582031 C 584.632812 122.828125 580.148438 120.171875 575.609375 117.613281 C 571.066406 115.058594 566.46875 112.605469 561.820312 110.253906 C 557.167969 107.902344 552.464844 105.65625 547.714844 103.515625 C 542.964844 101.375 538.167969 99.339844 533.324219 97.414062 C 528.480469 95.488281 523.597656 93.671875 518.675781 91.964844 C 513.75 90.253906 508.792969 88.660156 503.796875 87.171875 C 498.800781 85.6875 493.773438 84.3125 488.71875 83.050781 C 483.660156 81.789062 478.578125 80.640625 473.472656 79.609375 C 468.363281 78.574219 463.234375 77.652344 458.085938 76.847656 C 452.9375 76.042969 447.773438 75.355469 442.59375 74.78125 C 437.414062 74.207031 432.222656 73.75 427.023438 73.40625 C 419.679688 73.40625 412.339844 73.40625 405 73.40625 C 400.890625 73.410156 396.785156 73.484375 392.679688 73.628906 C 388.574219 73.777344 384.472656 74 380.375 74.292969 C 376.273438 74.585938 372.183594 74.949219 368.097656 75.386719 C 364.015625 75.824219 359.9375 76.335938 355.871094 76.917969 C 351.804688 77.5 347.75 78.152344 343.703125 78.878906 C 339.660156 79.605469 335.632812 80.402344 331.617188 81.269531 C 327.601562 82.140625 323.601562 83.078125 319.617188 84.089844 C 315.636719 85.101562 311.671875 86.179688 307.730469 87.332031 C 303.785156 88.480469 299.863281 89.703125 295.960938 90.992188 C 292.0625 92.28125 288.183594 93.640625 284.332031 95.066406 C 280.480469 96.492188 276.652344 97.988281 272.855469 99.550781 C 269.054688 101.113281 265.285156 102.742188 261.542969 104.4375 C 257.800781 106.136719 254.089844 107.898438 250.410156 109.722656 C 246.730469 111.550781 243.082031 113.445312 239.472656 115.402344 C 235.859375 117.359375 232.28125 119.378906 228.742188 121.460938 C 225.199219 123.542969 221.699219 125.691406 218.230469 127.898438 C 214.765625 130.105469 211.34375 132.371094 207.957031 134.703125 C 204.574219 137.03125 201.230469 139.417969 197.929688 141.867188 C 194.632812 144.3125 191.375 146.816406 188.164062 149.378906 C 184.953125 151.941406 181.789062 154.5625 178.667969 157.238281 C 175.550781 159.910156 172.480469 162.640625 169.460938 165.421875 C 166.4375 168.207031 163.464844 171.042969 160.542969 173.933594 C 157.621094 176.820312 154.753906 179.761719 151.9375 182.75 C 149.121094 185.742188 146.355469 188.78125 143.644531 191.867188 C 140.9375 194.957031 138.28125 198.09375 135.683594 201.273438 C 133.085938 204.457031 130.542969 207.683594 128.058594 210.957031 C 125.578125 214.230469 123.152344 217.542969 120.785156 220.902344 C 118.417969 224.261719 116.109375 227.660156 113.863281 231.097656 C 111.617188 234.539062 109.433594 238.019531 107.3125 241.535156 C 105.1875 245.050781 103.128906 248.605469 101.128906 252.195312 C 99.132812 255.785156 97.199219 259.410156 95.332031 263.070312 C 93.460938 266.730469 91.660156 270.421875 89.921875 274.144531 C 88.183594 277.867188 86.511719 281.617188 84.90625 285.398438 C 83.300781 289.179688 81.765625 292.992188 80.292969 296.828125 C 78.824219 300.664062 77.421875 304.523438 76.089844 308.410156 C 74.753906 312.296875 73.492188 316.203125 72.296875 320.136719 C 71.101562 324.066406 69.976562 328.015625 68.921875 331.988281 C 67.867188 335.957031 66.882812 339.945312 65.96875 343.953125 C 65.054688 347.957031 64.210938 351.976562 63.441406 356.011719 C 62.667969 360.046875 61.96875 364.097656 61.34375 368.15625 C 60.714844 372.214844 60.160156 376.285156 59.675781 380.367188 C 59.191406 384.445312 58.78125 388.535156 58.441406 392.628906 C 58.101562 396.722656 57.835938 400.820312 57.640625 404.925781 C 57.449219 409.027344 57.328125 413.136719 57.28125 417.242188 C 57.230469 421.351562 57.253906 425.460938 57.351562 429.566406 C 57.449219 433.671875 57.621094 437.777344 57.863281 441.878906 C 58.105469 445.980469 58.421875 450.074219 58.808594 454.164062 C 59.195312 458.257812 59.65625 462.339844 60.1875 466.410156 C 60.722656 470.484375 61.324219 474.546875 62.003906 478.601562 C 62.679688 482.652344 63.425781 486.691406 64.246094 490.71875 C 65.066406 494.742188 65.957031 498.753906 66.917969 502.75 C 67.878906 506.742188 68.910156 510.71875 70.011719 514.675781 C 71.113281 518.632812 72.285156 522.570312 73.527344 526.488281 C 74.769531 530.402344 76.082031 534.296875 77.460938 538.167969 C 78.839844 542.035156 80.289062 545.878906 81.804688 549.699219 C 83.320312 553.519531 84.902344 557.308594 86.554688 561.070312 C 88.203125 564.832031 89.921875 568.566406 91.703125 572.265625 C 93.484375 575.96875 95.332031 579.636719 97.246094 583.273438 C 99.15625 586.910156 101.132812 590.511719 103.171875 594.078125 C 105.210938 597.644531 107.316406 601.171875 109.480469 604.664062 C 111.644531 608.15625 113.871094 611.609375 116.160156 615.019531 C 118.445312 618.433594 120.792969 621.804688 123.199219 625.132812 C 125.605469 628.464844 128.070312 631.75 130.59375 634.992188 C 133.117188 638.234375 135.695312 641.433594 138.332031 644.582031 C 140.332031 646.921875 142.558594 649.015625 145.015625 650.871094 C 147.472656 652.722656 150.097656 654.289062 152.898438 655.566406 C 155.695312 656.84375 158.597656 657.808594 161.605469 658.453125 C 164.613281 659.097656 167.65625 659.410156 170.734375 659.390625 C 173.957031 659.402344 177.148438 659.066406 180.300781 658.390625 C 183.453125 657.714844 186.5 656.710938 189.4375 655.378906 C 192.375 654.046875 195.136719 652.417969 197.722656 650.492188 C 200.308594 648.5625 202.660156 646.382812 204.777344 643.949219 C 207.890625 640.402344 211.09375 636.941406 214.390625 633.5625 C 217.6875 630.1875 221.070312 626.898438 224.542969 623.703125 C 228.015625 620.507812 231.570312 617.40625 235.207031 614.402344 C 238.84375 611.394531 242.558594 608.488281 246.351562 605.683594 C 250.144531 602.875 254.011719 600.171875 257.949219 597.570312 C 261.886719 594.96875 265.890625 592.476562 269.960938 590.089844 C 274.03125 587.703125 278.164062 585.425781 282.355469 583.261719 C 286.546875 581.09375 290.792969 579.042969 295.097656 577.101562 C 299.398438 575.164062 303.75 573.339844 308.148438 571.636719 C 312.546875 569.929688 316.992188 568.339844 321.476562 566.871094 C 325.960938 565.402344 330.480469 564.054688 335.035156 562.828125 C 339.59375 561.601562 344.179688 560.496094 348.792969 559.511719 C 353.410156 558.53125 358.046875 557.671875 362.707031 556.9375 C 367.371094 556.203125 372.046875 555.59375 376.742188 555.109375 C 381.4375 554.625 386.140625 554.265625 390.851562 554.03125 C 395.566406 553.800781 400.28125 553.691406 405 553.710938 L 408.921875 553.710938 L 555.609375 298.308594 C 550.3125 289.273438 544.449219 280.625 538.015625 272.363281 L 534.347656 267.554688 L 622.941406 193.515625 L 629.015625 197.183594 C 641.203125 209.347656 652.332031 222.414062 662.394531 236.386719 C 672.460938 250.355469 681.328125 265.050781 689.007812 280.460938 L 692.171875 286.789062 L 632.304688 308.558594 C 632.441406 313.398438 631.769531 318.125 630.28125 322.734375 L 697.105469 298.433594 L 699.382812 304.128906 C 706.039062 320.65625 711.214844 337.632812 714.914062 355.0625 C 718.613281 372.488281 720.777344 390.105469 721.40625 407.910156 L 721.40625 414.492188 L 588.390625 414.492188 L 588.390625 412.972656 L 512.453125 576.492188 C 521.261719 580.378906 529.832031 584.734375 538.167969 589.558594 C 546.5 594.382812 554.546875 599.648438 562.304688 605.351562 C 570.0625 611.054688 577.484375 617.164062 584.574219 623.679688 C 591.664062 630.195312 598.378906 637.078125 604.714844 644.328125 C 606.832031 646.761719 609.183594 648.941406 611.769531 650.871094 C 614.355469 652.796875 617.117188 654.425781 620.054688 655.757812 C 622.992188 657.089844 626.039062 658.09375 629.191406 658.773438 C 632.347656 659.449219 635.535156 659.78125 638.761719 659.769531 C 641.785156 659.792969 644.777344 659.496094 647.738281 658.875 C 650.699219 658.257812 653.5625 657.332031 656.324219 656.097656 C 659.085938 654.863281 661.6875 653.351562 664.121094 651.558594 C 666.558594 649.765625 668.78125 647.738281 670.78125 645.46875 C 674.378906 641.199219 677.867188 636.84375 681.253906 632.40625 C 684.640625 627.96875 687.917969 623.449219 691.085938 618.851562 C 694.25 614.257812 697.304688 609.585938 700.246094 604.839844 C 703.1875 600.097656 706.015625 595.28125 708.722656 590.402344 C 711.429688 585.519531 714.019531 580.574219 716.488281 575.570312 C 718.960938 570.5625 721.308594 565.5 723.53125 560.378906 C 725.757812 555.257812 727.855469 550.089844 729.832031 544.867188 C 731.804688 539.644531 733.652344 534.378906 735.371094 529.066406 C 737.089844 523.757812 738.683594 518.40625 740.144531 513.019531 C 741.605469 507.632812 742.933594 502.210938 744.132812 496.757812 C 745.332031 491.304688 746.398438 485.828125 747.332031 480.324219 C 748.265625 474.820312 749.066406 469.296875 749.734375 463.753906 C 750.402344 458.210938 750.933594 452.65625 751.332031 447.089844 C 751.730469 441.519531 751.992188 435.945312 752.121094 430.363281 C 752.25 424.785156 752.246094 419.203125 752.101562 413.621094 C 751.960938 408.042969 751.6875 402.46875 751.273438 396.898438 Z M 752.792969 396.265625 " fill-opacity="1" fill-rule="nonzero"/><g mask="url(#c7b91773a3)"><g transform="matrix(1, 0, 0, 1, 88, 101)"><g clip-path="url(#18807f0f11)"><path fill="#ffffff" d="M 317 414.742188 C 307.660156 414.75 298.34375 415.191406 289.042969 416.058594 C 279.746094 416.925781 270.507812 418.222656 261.328125 419.941406 C 252.148438 421.664062 243.070312 423.804688 234.085938 426.363281 C 225.105469 428.921875 216.261719 431.886719 207.554688 435.261719 C 198.84375 438.636719 190.308594 442.402344 181.949219 446.5625 C 173.589844 450.726562 165.4375 455.261719 157.496094 460.175781 C 149.554688 465.089844 141.855469 470.355469 134.398438 475.980469 C 126.941406 481.605469 119.761719 487.558594 112.855469 493.84375 C 105.726562 500.214844 98.976562 506.964844 92.605469 514.09375 C 92.363281 514.445312 92.105469 514.78125 91.824219 515.097656 C 91.542969 515.417969 91.242188 515.71875 90.925781 516.003906 C 90.609375 516.285156 90.273438 516.550781 89.925781 516.792969 C 89.574219 517.035156 89.210938 517.253906 88.835938 517.453125 C 88.460938 517.652344 88.074219 517.828125 87.675781 517.976562 C 87.277344 518.128906 86.871094 518.257812 86.460938 518.359375 C 86.046875 518.460938 85.628906 518.539062 85.207031 518.589844 C 84.785156 518.640625 84.359375 518.667969 83.933594 518.667969 C 83.507812 518.667969 83.085938 518.640625 82.664062 518.589844 C 82.242188 518.539062 81.824219 518.460938 81.410156 518.359375 C 80.996094 518.257812 80.59375 518.128906 80.195312 517.976562 C 79.796875 517.828125 79.410156 517.652344 79.035156 517.453125 C 78.65625 517.253906 78.296875 517.035156 77.945312 516.792969 C 77.597656 516.550781 77.261719 516.285156 76.945312 516.003906 C 76.628906 515.71875 76.328125 515.417969 76.046875 515.097656 C 75.765625 514.78125 75.503906 514.445312 75.265625 514.09375 C 74.558594 513.398438 73.925781 512.636719 73.367188 511.816406 C 59.496094 494.246094 47.683594 475.390625 37.929688 455.242188 L 40.839844 454.230469 C 41.605469 453.910156 42.351562 453.550781 43.082031 453.15625 C 43.8125 452.761719 44.523438 452.332031 45.210938 451.871094 C 45.898438 451.40625 46.5625 450.910156 47.199219 450.378906 C 47.839844 449.851562 48.449219 449.289062 49.035156 448.703125 C 49.617188 448.113281 50.171875 447.496094 50.695312 446.851562 C 51.21875 446.207031 51.707031 445.539062 52.164062 444.847656 C 52.625 444.15625 53.046875 443.441406 53.433594 442.710938 C 53.820312 441.976562 54.171875 441.226562 54.484375 440.457031 C 54.796875 439.6875 55.074219 438.90625 55.3125 438.113281 C 55.546875 437.316406 55.746094 436.511719 55.902344 435.699219 C 56.058594 434.882812 56.175781 434.0625 56.253906 433.238281 C 56.332031 432.410156 56.367188 431.582031 56.363281 430.753906 C 56.359375 429.921875 56.3125 429.097656 56.226562 428.269531 C 56.140625 427.445312 56.015625 426.628906 55.851562 425.8125 C 55.683594 425 55.476562 424.199219 55.234375 423.40625 C 54.988281 422.613281 54.703125 421.835938 54.382812 421.070312 C 53.242188 418.414062 52.105469 415.628906 51.21875 412.96875 C 44.484375 395.898438 39.632812 378.304688 36.664062 360.195312 C 83.238281 397.277344 175.882812 381.328125 278.523438 339.4375 C 354.460938 308.304688 404.203125 244.261719 430.398438 176.296875 C 435.984375 182.980469 441.132812 189.980469 445.839844 197.308594 L 320.796875 414.867188 Z M 506.84375 332.476562 C 506.089844 342.878906 504.414062 353.128906 501.820312 363.226562 C 499.226562 373.328125 495.753906 383.117188 491.402344 392.59375 L 506.71875 398.921875 L 603.539062 439.042969 C 604.164062 437.636719 604.710938 436.203125 605.183594 434.738281 C 611.640625 418.601562 616.6875 402.035156 620.320312 385.035156 C 623.957031 368.039062 626.125 350.855469 626.824219 333.488281 Z M 48.6875 164.78125 C 41.824219 176.625 35.75 188.859375 30.460938 201.484375 C 27.550781 208.445312 25.019531 215.40625 22.742188 222.621094 C 19.9375 230.632812 17.574219 238.777344 15.65625 247.046875 C 10.8125 266.929688 7.984375 287.09375 7.175781 307.542969 C 8.195312 287.152344 11.695312 267.199219 17.679688 247.679688 C 19.957031 239.464844 22.699219 231.40625 25.90625 223.507812 C 33.714844 204.601562 43.753906 186.964844 56.027344 170.601562 Z M 118.804688 111.878906 L 107.285156 91.882812 C 90.457031 107.34375 75.480469 124.429688 62.355469 143.140625 L 72.355469 151.492188 C 86.179688 136.234375 101.660156 122.902344 118.804688 111.5 Z M 198.03125 77.328125 L 190.4375 36.574219 C 167.527344 46.59375 146.179688 59.25 126.398438 74.542969 L 140.066406 98.210938 C 158.480469 88.648438 177.800781 81.5625 198.03125 76.945312 Z M 256.882812 70.238281 C 266.191406 70.234375 275.472656 70.738281 284.726562 71.757812 L 295.359375 10.882812 C 267.785156 12.746094 240.957031 18.230469 214.863281 27.335938 L 222.964844 72.644531 C 234.203125 70.882812 245.507812 69.953125 256.882812 69.859375 Z M 409.898438 23.917969 C 395.5625 19.386719 380.972656 15.945312 366.125 13.59375 C 351.277344 11.238281 336.335938 9.996094 321.304688 9.867188 L 309.785156 75.429688 C 330.203125 79.796875 349.734375 86.675781 368.382812 96.058594 Z M 438.625 148.203125 L 516.589844 82.769531 C 504.296875 72.183594 491.242188 62.648438 477.421875 54.15625 C 463.601562 45.664062 449.191406 38.328125 434.195312 32.144531 L 390.40625 108.082031 C 408.199219 119.390625 424.273438 132.761719 438.625 148.203125 Z M 471.152344 191.105469 L 472.164062 189.335938 C 473.019531 187.933594 473.949219 186.585938 474.949219 185.285156 C 475.632812 184.394531 476.355469 183.539062 477.113281 182.710938 C 477.871094 181.886719 478.660156 181.09375 479.488281 180.335938 C 480.316406 179.582031 481.171875 178.859375 482.0625 178.179688 C 482.953125 177.496094 483.871094 176.855469 484.816406 176.253906 C 485.761719 175.648438 486.730469 175.089844 487.726562 174.574219 C 488.71875 174.054688 489.734375 173.582031 490.769531 173.152344 C 491.804688 172.722656 492.855469 172.339844 493.925781 172 C 494.996094 171.664062 496.078125 171.371094 497.171875 171.128906 C 498.265625 170.886719 499.367188 170.691406 500.480469 170.542969 C 501.589844 170.394531 502.707031 170.296875 503.824219 170.246094 C 504.945312 170.195312 506.066406 170.195312 507.183594 170.242188 C 508.304688 170.289062 509.421875 170.386719 510.53125 170.53125 C 511.644531 170.675781 512.746094 170.867188 513.84375 171.109375 C 514.9375 171.347656 516.019531 171.636719 517.089844 171.972656 C 518.160156 172.304688 519.210938 172.6875 520.25 173.113281 C 521.285156 173.539062 522.300781 174.011719 523.296875 174.527344 C 525.382812 175.597656 527.351562 176.851562 529.207031 178.289062 C 531.0625 179.726562 532.765625 181.320312 534.324219 183.074219 C 535.882812 184.828125 537.269531 186.710938 538.476562 188.71875 C 539.6875 190.726562 540.703125 192.832031 541.523438 195.03125 C 542.28125 196.996094 542.828125 199.023438 543.167969 201.105469 L 595.4375 182.246094 C 587.933594 167.136719 579.257812 152.730469 569.402344 139.035156 C 559.550781 125.339844 548.652344 112.53125 536.710938 100.613281 L 535.953125 100.613281 L 455.585938 168.070312 C 461.230469 175.441406 466.417969 183.121094 471.152344 191.105469 Z M 534.433594 237.808594 L 511.019531 288.433594 L 505.703125 299.695312 C 505.703125 302.101562 505.703125 304.632812 505.703125 307.039062 L 626.066406 307.039062 C 625.394531 289.667969 623.242188 272.480469 619.605469 255.480469 C 615.972656 238.480469 610.910156 221.914062 604.421875 205.789062 L 538.484375 229.707031 Z M 369.902344 532.824219 L 517.601562 214.394531 C 518.121094 213.316406 518.480469 212.191406 518.679688 211.011719 C 518.882812 209.835938 518.914062 208.652344 518.78125 207.464844 C 518.644531 206.28125 518.347656 205.132812 517.890625 204.03125 C 517.433594 202.929688 516.828125 201.910156 516.082031 200.976562 L 346.742188 529.027344 C 345.75 530.800781 344.964844 532.65625 344.390625 534.605469 C 343.816406 536.550781 343.460938 538.539062 343.328125 540.5625 C 343.199219 542.589844 343.292969 544.605469 343.613281 546.609375 C 343.929688 548.613281 344.46875 550.558594 345.222656 552.441406 C 346.476562 555.449219 347.421875 558.550781 348.0625 561.746094 C 348.699219 564.941406 349.019531 568.167969 349.019531 571.425781 C 349.019531 574.683594 348.699219 577.910156 348.0625 581.105469 C 347.421875 584.300781 346.476562 587.402344 345.222656 590.410156 C 344.453125 592.34375 343.5625 594.21875 342.554688 596.035156 C 341.542969 597.851562 340.421875 599.597656 339.1875 601.273438 C 337.957031 602.949219 336.621094 604.535156 335.183594 606.039062 C 333.746094 607.542969 332.21875 608.949219 330.601562 610.253906 C 328.984375 611.5625 327.292969 612.761719 325.523438 613.855469 C 323.75 614.945312 321.917969 615.917969 320.023438 616.773438 C 318.128906 617.632812 316.1875 618.363281 314.199219 618.972656 C 312.210938 619.578125 310.191406 620.058594 308.140625 620.40625 C 306.191406 620.726562 304.230469 620.933594 302.257812 621.023438 C 300.285156 621.117188 298.316406 621.09375 296.34375 620.953125 C 294.375 620.816406 292.421875 620.5625 290.480469 620.195312 C 288.539062 619.828125 286.628906 619.347656 284.746094 618.753906 C 282.859375 618.164062 281.015625 617.464844 279.214844 616.65625 C 277.414062 615.851562 275.664062 614.941406 273.96875 613.929688 C 272.273438 612.917969 270.640625 611.808594 269.074219 610.605469 C 267.507812 609.40625 266.019531 608.113281 264.601562 606.738281 C 265.886719 609.199219 267.351562 611.550781 268.992188 613.792969 C 270.636719 616.03125 272.441406 618.132812 274.402344 620.097656 C 276.367188 622.0625 278.46875 623.863281 280.710938 625.507812 C 282.949219 627.152344 285.300781 628.613281 287.765625 629.898438 C 289.152344 630.609375 290.566406 631.261719 292.003906 631.855469 C 293.445312 632.449219 294.910156 632.984375 296.394531 633.457031 C 297.878906 633.929688 299.378906 634.34375 300.898438 634.695312 C 302.414062 635.046875 303.945312 635.332031 305.488281 635.558594 C 307.03125 635.785156 308.578125 635.945312 310.132812 636.042969 C 311.6875 636.140625 313.246094 636.175781 314.804688 636.148438 C 316.363281 636.117188 317.917969 636.023438 319.464844 635.867188 C 321.015625 635.710938 322.558594 635.488281 324.089844 635.203125 C 325.621094 634.921875 327.140625 634.574219 328.644531 634.167969 C 330.148438 633.757812 331.632812 633.289062 333.097656 632.757812 C 334.5625 632.226562 336.003906 631.640625 337.421875 630.992188 C 338.839844 630.34375 340.226562 629.636719 341.585938 628.875 C 342.945312 628.113281 344.269531 627.292969 345.5625 626.421875 C 346.855469 625.550781 348.109375 624.628906 349.324219 623.65625 C 350.542969 622.679688 351.714844 621.660156 352.847656 620.585938 C 353.980469 619.515625 355.066406 618.402344 356.109375 617.242188 C 357.558594 615.636719 358.910156 613.949219 360.15625 612.179688 C 361.769531 609.96875 363.203125 607.648438 364.460938 605.21875 C 366.1875 601.832031 367.5625 598.304688 368.585938 594.640625 C 369.605469 590.976562 370.25 587.25 370.523438 583.453125 C 370.792969 579.660156 370.6875 575.878906 370.199219 572.105469 C 369.710938 568.335938 368.851562 564.648438 367.625 561.046875 C 366.914062 558.726562 366.429688 556.363281 366.171875 553.949219 C 365.917969 551.535156 365.890625 549.121094 366.097656 546.703125 C 366.304688 544.285156 366.738281 541.910156 367.398438 539.574219 C 368.058594 537.242188 368.9375 534.992188 370.03125 532.824219 Z M 369.902344 532.824219 " fill-opacity="1" fill-rule="nonzero"/></g></g></g></svg>