<svg xmlns="http://www.w3.org/2000/svg" xmlns:xlink="http://www.w3.org/1999/xlink" width="1080" zoomAndPan="magnify" viewBox="0 0 810 809.999993" height="1080" preserveAspectRatio="xMidYMid meet" version="1.0"><path fill="#ffffff" d="M 405 57.5625 L 103.402344 231.28125 L 103.402344 398.796875 L 120.636719 408.617188 L 120.636719 588.542969 L 405 752.265625 L 689.363281 588.542969 L 689.363281 408.617188 L 706.597656 398.796875 L 706.597656 231.28125 Z M 482.554688 201.8125 L 482.554688 281.777344 L 457.046875 296.253906 L 430.851562 281.949219 L 430.851562 236.105469 L 327.445312 176.304688 L 327.445312 195.949219 L 358.8125 214.21875 L 336.410156 226.972656 L 310.210938 211.980469 L 310.210938 132.359375 L 336.0625 117.191406 Z M 396.382812 707.457031 L 155.105469 568.722656 L 155.105469 428.609375 L 224.042969 467.902344 L 224.042969 514.78125 L 292.980469 554.246094 L 292.980469 507.886719 L 396.382812 567.515625 Z M 241.277344 505.128906 L 241.277344 446.878906 L 275.746094 466.527344 L 275.746094 524.777344 Z M 396.382812 547.527344 L 292.980469 487.894531 L 292.980469 456.53125 L 224.042969 417.0625 L 224.042969 448.085938 L 137.871094 398.796875 L 137.871094 272.125 L 396.382812 421.027344 Z M 654.894531 568.722656 L 413.617188 707.457031 L 413.617188 567.515625 L 654.894531 428.609375 Z M 672.128906 398.96875 L 413.617188 547.527344 L 413.617188 421.027344 L 672.128906 272.125 Z M 672.128906 252.480469 L 405 406.035156 L 137.871094 252.304688 L 137.871094 251.101562 L 292.980469 162 L 292.980469 221.972656 L 336.234375 246.792969 L 375.703125 224.042969 L 413.617188 246.101562 L 413.617188 291.945312 L 457.046875 316.589844 L 499.789062 292.980469 L 499.789062 191.988281 L 370.703125 117.191406 L 405.171875 97.371094 L 672.128906 251.101562 Z M 672.128906 252.480469 " fill-opacity="1" fill-rule="nonzero"/></svg>