<svg xmlns="http://www.w3.org/2000/svg" xmlns:xlink="http://www.w3.org/1999/xlink" width="1080" zoomAndPan="magnify" viewBox="0 0 810 809.999993" height="1080" preserveAspectRatio="xMidYMid meet" version="1.0"><defs><clipPath id="6ce637c310"><path d="M 105.261719 56.214844 L 704.511719 56.214844 L 704.511719 753.710938 L 105.261719 753.710938 Z M 105.261719 56.214844 " clip-rule="nonzero"/></clipPath><clipPath id="72dc903637"><path d="M 404.996094 56.214844 L 704.734375 230.605469 L 704.734375 579.390625 L 404.996094 753.78125 L 105.261719 579.390625 L 105.261719 230.605469 Z M 404.996094 56.214844 " clip-rule="nonzero"/></clipPath><clipPath id="c299f45c1e"><path d="M 98.886719 162.824219 L 166.863281 162.824219 L 166.863281 230.796875 L 98.886719 230.796875 Z M 98.886719 162.824219 " clip-rule="nonzero"/></clipPath><clipPath id="36c2440b53"><path d="M 132.875 162.824219 C 114.105469 162.824219 98.886719 178.039062 98.886719 196.808594 C 98.886719 215.582031 114.105469 230.796875 132.875 230.796875 C 151.644531 230.796875 166.863281 215.582031 166.863281 196.808594 C 166.863281 178.039062 151.644531 162.824219 132.875 162.824219 Z M 132.875 162.824219 " clip-rule="nonzero"/></clipPath><clipPath id="51c4f3d745"><path d="M 0.886719 0.824219 L 68.863281 0.824219 L 68.863281 68.796875 L 0.886719 68.796875 Z M 0.886719 0.824219 " clip-rule="nonzero"/></clipPath><clipPath id="f015a18512"><path d="M 34.875 0.824219 C 16.105469 0.824219 0.886719 16.039062 0.886719 34.808594 C 0.886719 53.582031 16.105469 68.796875 34.875 68.796875 C 53.644531 68.796875 68.863281 53.582031 68.863281 34.808594 C 68.863281 16.039062 53.644531 0.824219 34.875 0.824219 Z M 34.875 0.824219 " clip-rule="nonzero"/></clipPath><clipPath id="316443aa73"><rect x="0" width="69" y="0" height="69"/></clipPath><clipPath id="7c04a5bf97"><path d="M 229.136719 162.824219 L 297.113281 162.824219 L 297.113281 230.796875 L 229.136719 230.796875 Z M 229.136719 162.824219 " clip-rule="nonzero"/></clipPath><clipPath id="fc83be541e"><path d="M 263.125 162.824219 C 244.355469 162.824219 229.136719 178.039062 229.136719 196.808594 C 229.136719 215.582031 244.355469 230.796875 263.125 230.796875 C 281.894531 230.796875 297.113281 215.582031 297.113281 196.808594 C 297.113281 178.039062 281.894531 162.824219 263.125 162.824219 Z M 263.125 162.824219 " clip-rule="nonzero"/></clipPath><clipPath id="3446528bf2"><path d="M 0.136719 0.824219 L 68.113281 0.824219 L 68.113281 68.796875 L 0.136719 68.796875 Z M 0.136719 0.824219 " clip-rule="nonzero"/></clipPath><clipPath id="ff72f0b3d3"><path d="M 34.125 0.824219 C 15.355469 0.824219 0.136719 16.039062 0.136719 34.808594 C 0.136719 53.582031 15.355469 68.796875 34.125 68.796875 C 52.894531 68.796875 68.113281 53.582031 68.113281 34.808594 C 68.113281 16.039062 52.894531 0.824219 34.125 0.824219 Z M 34.125 0.824219 " clip-rule="nonzero"/></clipPath><clipPath id="31870cd200"><rect x="0" width="69" y="0" height="69"/></clipPath><clipPath id="018fe3291e"><path d="M 162.304688 102.4375 L 230.277344 102.4375 L 230.277344 170.414062 L 162.304688 170.414062 Z M 162.304688 102.4375 " clip-rule="nonzero"/></clipPath><clipPath id="15a51bffd1"><path d="M 196.289062 102.4375 C 177.519531 102.4375 162.304688 117.65625 162.304688 136.425781 C 162.304688 155.195312 177.519531 170.414062 196.289062 170.414062 C 215.0625 170.414062 230.277344 155.195312 230.277344 136.425781 C 230.277344 117.65625 215.0625 102.4375 196.289062 102.4375 Z M 196.289062 102.4375 " clip-rule="nonzero"/></clipPath><clipPath id="a2f083cc38"><path d="M 0.304688 0.4375 L 68.277344 0.4375 L 68.277344 68.414062 L 0.304688 68.414062 Z M 0.304688 0.4375 " clip-rule="nonzero"/></clipPath><clipPath id="46987c1c24"><path d="M 34.289062 0.4375 C 15.519531 0.4375 0.304688 15.65625 0.304688 34.425781 C 0.304688 53.195312 15.519531 68.414062 34.289062 68.414062 C 53.0625 68.414062 68.277344 53.195312 68.277344 34.425781 C 68.277344 15.65625 53.0625 0.4375 34.289062 0.4375 Z M 34.289062 0.4375 " clip-rule="nonzero"/></clipPath><clipPath id="34561f6055"><rect x="0" width="69" y="0" height="69"/></clipPath><clipPath id="3c4871a910"><path d="M 162.304688 228.519531 L 230.277344 228.519531 L 230.277344 296.492188 L 162.304688 296.492188 Z M 162.304688 228.519531 " clip-rule="nonzero"/></clipPath><clipPath id="0df883b1e1"><path d="M 196.289062 228.519531 C 177.519531 228.519531 162.304688 243.734375 162.304688 262.503906 C 162.304688 281.273438 177.519531 296.492188 196.289062 296.492188 C 215.0625 296.492188 230.277344 281.273438 230.277344 262.503906 C 230.277344 243.734375 215.0625 228.519531 196.289062 228.519531 Z M 196.289062 228.519531 " clip-rule="nonzero"/></clipPath><clipPath id="36028178dd"><path d="M 0.304688 0.519531 L 68.277344 0.519531 L 68.277344 68.492188 L 0.304688 68.492188 Z M 0.304688 0.519531 " clip-rule="nonzero"/></clipPath><clipPath id="6ccb865b5d"><path d="M 34.289062 0.519531 C 15.519531 0.519531 0.304688 15.734375 0.304688 34.503906 C 0.304688 53.273438 15.519531 68.492188 34.289062 68.492188 C 53.0625 68.492188 68.277344 53.273438 68.277344 34.503906 C 68.277344 15.734375 53.0625 0.519531 34.289062 0.519531 Z M 34.289062 0.519531 " clip-rule="nonzero"/></clipPath><clipPath id="5ba385dfc2"><rect x="0" width="69" y="0" height="69"/></clipPath><clipPath id="f541e6b3e9"><path d="M 289.523438 115.738281 L 337.746094 115.738281 L 337.746094 163.960938 L 289.523438 163.960938 Z M 289.523438 115.738281 " clip-rule="nonzero"/></clipPath><clipPath id="474edd109c"><path d="M 313.636719 115.738281 C 300.320312 115.738281 289.523438 126.53125 289.523438 139.851562 C 289.523438 153.167969 300.320312 163.960938 313.636719 163.960938 C 326.953125 163.960938 337.746094 153.167969 337.746094 139.851562 C 337.746094 126.53125 326.953125 115.738281 313.636719 115.738281 Z M 313.636719 115.738281 " clip-rule="nonzero"/></clipPath><clipPath id="e3498da9ea"><path d="M 0.523438 0.738281 L 48.746094 0.738281 L 48.746094 48.960938 L 0.523438 48.960938 Z M 0.523438 0.738281 " clip-rule="nonzero"/></clipPath><clipPath id="d6b494a41a"><path d="M 24.636719 0.738281 C 11.320312 0.738281 0.523438 11.53125 0.523438 24.851562 C 0.523438 38.167969 11.320312 48.960938 24.636719 48.960938 C 37.953125 48.960938 48.746094 38.167969 48.746094 24.851562 C 48.746094 11.53125 37.953125 0.738281 24.636719 0.738281 Z M 24.636719 0.738281 " clip-rule="nonzero"/></clipPath><clipPath id="1ad11f5547"><rect x="0" width="49" y="0" height="49"/></clipPath><clipPath id="65511e5dc4"><path d="M 231.417969 58.398438 L 279.640625 58.398438 L 279.640625 106.621094 L 231.417969 106.621094 Z M 231.417969 58.398438 " clip-rule="nonzero"/></clipPath><clipPath id="5527ba6f85"><path d="M 255.53125 58.398438 C 242.210938 58.398438 231.417969 69.195312 231.417969 82.511719 C 231.417969 95.828125 242.210938 106.621094 255.53125 106.621094 C 268.847656 106.621094 279.640625 95.828125 279.640625 82.511719 C 279.640625 69.195312 268.847656 58.398438 255.53125 58.398438 Z M 255.53125 58.398438 " clip-rule="nonzero"/></clipPath><clipPath id="6595f121d7"><path d="M 0.417969 0.398438 L 48.640625 0.398438 L 48.640625 48.621094 L 0.417969 48.621094 Z M 0.417969 0.398438 " clip-rule="nonzero"/></clipPath><clipPath id="c0a797d862"><path d="M 24.53125 0.398438 C 11.210938 0.398438 0.417969 11.195312 0.417969 24.511719 C 0.417969 37.828125 11.210938 48.621094 24.53125 48.621094 C 37.847656 48.621094 48.640625 37.828125 48.640625 24.511719 C 48.640625 11.195312 37.847656 0.398438 24.53125 0.398438 Z M 24.53125 0.398438 " clip-rule="nonzero"/></clipPath><clipPath id="5f2584448b"><rect x="0" width="49" y="0" height="49"/></clipPath><clipPath id="7aec2e36d6"><path d="M 112.941406 58.398438 L 161.164062 58.398438 L 161.164062 106.621094 L 112.941406 106.621094 Z M 112.941406 58.398438 " clip-rule="nonzero"/></clipPath><clipPath id="bd53ecb1de"><path d="M 137.050781 58.398438 C 123.734375 58.398438 112.941406 69.195312 112.941406 82.511719 C 112.941406 95.828125 123.734375 106.621094 137.050781 106.621094 C 150.371094 106.621094 161.164062 95.828125 161.164062 82.511719 C 161.164062 69.195312 150.371094 58.398438 137.050781 58.398438 Z M 137.050781 58.398438 " clip-rule="nonzero"/></clipPath><clipPath id="68b08e4125"><path d="M 0.941406 0.398438 L 49.164062 0.398438 L 49.164062 48.621094 L 0.941406 48.621094 Z M 0.941406 0.398438 " clip-rule="nonzero"/></clipPath><clipPath id="16c5b36552"><path d="M 25.050781 0.398438 C 11.734375 0.398438 0.941406 11.195312 0.941406 24.511719 C 0.941406 37.828125 11.734375 48.621094 25.050781 48.621094 C 38.371094 48.621094 49.164062 37.828125 49.164062 24.511719 C 49.164062 11.195312 38.371094 0.398438 25.050781 0.398438 Z M 25.050781 0.398438 " clip-rule="nonzero"/></clipPath><clipPath id="ea70657fbe"><rect x="0" width="50" y="0" height="49"/></clipPath><clipPath id="904d5d1d65"><path d="M 54.832031 114.597656 L 103.058594 114.597656 L 103.058594 162.824219 L 54.832031 162.824219 Z M 54.832031 114.597656 " clip-rule="nonzero"/></clipPath><clipPath id="e38cbd77aa"><path d="M 78.945312 114.597656 C 65.628906 114.597656 54.832031 125.394531 54.832031 138.710938 C 54.832031 152.027344 65.628906 162.824219 78.945312 162.824219 C 92.261719 162.824219 103.058594 152.027344 103.058594 138.710938 C 103.058594 125.394531 92.261719 114.597656 78.945312 114.597656 Z M 78.945312 114.597656 " clip-rule="nonzero"/></clipPath><clipPath id="c7eaeed54a"><path d="M 0.832031 0.597656 L 49.058594 0.597656 L 49.058594 48.824219 L 0.832031 48.824219 Z M 0.832031 0.597656 " clip-rule="nonzero"/></clipPath><clipPath id="127272ecd8"><path d="M 24.945312 0.597656 C 11.628906 0.597656 0.832031 11.394531 0.832031 24.710938 C 0.832031 38.027344 11.628906 48.824219 24.945312 48.824219 C 38.261719 48.824219 49.058594 38.027344 49.058594 24.710938 C 49.058594 11.394531 38.261719 0.597656 24.945312 0.597656 Z M 24.945312 0.597656 " clip-rule="nonzero"/></clipPath><clipPath id="947bc27e55"><rect x="0" width="50" y="0" height="49"/></clipPath><clipPath id="916fd24d02"><path d="M 54.832031 233.835938 L 103.058594 233.835938 L 103.058594 282.058594 L 54.832031 282.058594 Z M 54.832031 233.835938 " clip-rule="nonzero"/></clipPath><clipPath id="d0096e68eb"><path d="M 78.945312 233.835938 C 65.628906 233.835938 54.832031 244.628906 54.832031 257.949219 C 54.832031 271.265625 65.628906 282.058594 78.945312 282.058594 C 92.261719 282.058594 103.058594 271.265625 103.058594 257.949219 C 103.058594 244.628906 92.261719 233.835938 78.945312 233.835938 Z M 78.945312 233.835938 " clip-rule="nonzero"/></clipPath><clipPath id="9f54161882"><path d="M 0.832031 0.835938 L 49.058594 0.835938 L 49.058594 49.058594 L 0.832031 49.058594 Z M 0.832031 0.835938 " clip-rule="nonzero"/></clipPath><clipPath id="bb95f639b8"><path d="M 24.945312 0.835938 C 11.628906 0.835938 0.832031 11.628906 0.832031 24.949219 C 0.832031 38.265625 11.628906 49.058594 24.945312 49.058594 C 38.261719 49.058594 49.058594 38.265625 49.058594 24.949219 C 49.058594 11.628906 38.261719 0.835938 24.945312 0.835938 Z M 24.945312 0.835938 " clip-rule="nonzero"/></clipPath><clipPath id="bd462fdf48"><rect x="0" width="50" y="0" height="50"/></clipPath><clipPath id="ddf3ca2f83"><path d="M 289.523438 233.835938 L 337.746094 233.835938 L 337.746094 282.058594 L 289.523438 282.058594 Z M 289.523438 233.835938 " clip-rule="nonzero"/></clipPath><clipPath id="c920bff668"><path d="M 313.636719 233.835938 C 300.320312 233.835938 289.523438 244.628906 289.523438 257.949219 C 289.523438 271.265625 300.320312 282.058594 313.636719 282.058594 C 326.953125 282.058594 337.746094 271.265625 337.746094 257.949219 C 337.746094 244.628906 326.953125 233.835938 313.636719 233.835938 Z M 313.636719 233.835938 " clip-rule="nonzero"/></clipPath><clipPath id="ef871a241a"><path d="M 0.523438 0.835938 L 48.746094 0.835938 L 48.746094 49.058594 L 0.523438 49.058594 Z M 0.523438 0.835938 " clip-rule="nonzero"/></clipPath><clipPath id="92370e62fe"><path d="M 24.636719 0.835938 C 11.320312 0.835938 0.523438 11.628906 0.523438 24.949219 C 0.523438 38.265625 11.320312 49.058594 24.636719 49.058594 C 37.953125 49.058594 48.746094 38.265625 48.746094 24.949219 C 48.746094 11.628906 37.953125 0.835938 24.636719 0.835938 Z M 24.636719 0.835938 " clip-rule="nonzero"/></clipPath><clipPath id="083b37359b"><rect x="0" width="49" y="0" height="50"/></clipPath><clipPath id="6b40ef97a3"><path d="M 231.417969 288.902344 L 279.640625 288.902344 L 279.640625 337.128906 L 231.417969 337.128906 Z M 231.417969 288.902344 " clip-rule="nonzero"/></clipPath><clipPath id="e1b818acdd"><path d="M 255.53125 288.902344 C 242.210938 288.902344 231.417969 299.699219 231.417969 313.015625 C 231.417969 326.332031 242.210938 337.128906 255.53125 337.128906 C 268.847656 337.128906 279.640625 326.332031 279.640625 313.015625 C 279.640625 299.699219 268.847656 288.902344 255.53125 288.902344 Z M 255.53125 288.902344 " clip-rule="nonzero"/></clipPath><clipPath id="8d88ce8c40"><path d="M 0.417969 0.902344 L 48.640625 0.902344 L 48.640625 49.128906 L 0.417969 49.128906 Z M 0.417969 0.902344 " clip-rule="nonzero"/></clipPath><clipPath id="c7e4d20545"><path d="M 24.53125 0.902344 C 11.210938 0.902344 0.417969 11.699219 0.417969 25.015625 C 0.417969 38.332031 11.210938 49.128906 24.53125 49.128906 C 37.847656 49.128906 48.640625 38.332031 48.640625 25.015625 C 48.640625 11.699219 37.847656 0.902344 24.53125 0.902344 Z M 24.53125 0.902344 " clip-rule="nonzero"/></clipPath><clipPath id="a9024f1278"><rect x="0" width="49" y="0" height="50"/></clipPath><clipPath id="833b5c66da"><path d="M 112.941406 288.902344 L 161.164062 288.902344 L 161.164062 337.128906 L 112.941406 337.128906 Z M 112.941406 288.902344 " clip-rule="nonzero"/></clipPath><clipPath id="dda9f83cb2"><path d="M 137.050781 288.902344 C 123.734375 288.902344 112.941406 299.699219 112.941406 313.015625 C 112.941406 326.332031 123.734375 337.128906 137.050781 337.128906 C 150.371094 337.128906 161.164062 326.332031 161.164062 313.015625 C 161.164062 299.699219 150.371094 288.902344 137.050781 288.902344 Z M 137.050781 288.902344 " clip-rule="nonzero"/></clipPath><clipPath id="a9cc6fc3d3"><path d="M 0.941406 0.902344 L 49.164062 0.902344 L 49.164062 49.128906 L 0.941406 49.128906 Z M 0.941406 0.902344 " clip-rule="nonzero"/></clipPath><clipPath id="5b4c847b83"><path d="M 25.050781 0.902344 C 11.734375 0.902344 0.941406 11.699219 0.941406 25.015625 C 0.941406 38.332031 11.734375 49.128906 25.050781 49.128906 C 38.371094 49.128906 49.164062 38.332031 49.164062 25.015625 C 49.164062 11.699219 38.371094 0.902344 25.050781 0.902344 Z M 25.050781 0.902344 " clip-rule="nonzero"/></clipPath><clipPath id="d90694c1dc"><rect x="0" width="50" y="0" height="50"/></clipPath><clipPath id="ca83e2f5eb"><path d="M 174.457031 349.667969 L 218.125 349.667969 L 218.125 393.335938 L 174.457031 393.335938 Z M 174.457031 349.667969 " clip-rule="nonzero"/></clipPath><clipPath id="8dc4b7ba4c"><path d="M 196.289062 349.667969 C 184.234375 349.667969 174.457031 359.441406 174.457031 371.5 C 174.457031 383.558594 184.234375 393.335938 196.289062 393.335938 C 208.347656 393.335938 218.125 383.558594 218.125 371.5 C 218.125 359.441406 208.347656 349.667969 196.289062 349.667969 Z M 196.289062 349.667969 " clip-rule="nonzero"/></clipPath><clipPath id="93eafc9145"><path d="M 0.457031 0.667969 L 44.125 0.667969 L 44.125 44.335938 L 0.457031 44.335938 Z M 0.457031 0.667969 " clip-rule="nonzero"/></clipPath><clipPath id="8e957a8318"><path d="M 22.289062 0.667969 C 10.234375 0.667969 0.457031 10.441406 0.457031 22.5 C 0.457031 34.558594 10.234375 44.335938 22.289062 44.335938 C 34.347656 44.335938 44.125 34.558594 44.125 22.5 C 44.125 10.441406 34.347656 0.667969 22.289062 0.667969 Z M 22.289062 0.667969 " clip-rule="nonzero"/></clipPath><clipPath id="7ccf2441cc"><rect x="0" width="45" y="0" height="45"/></clipPath><clipPath id="e9e4da5e11"><path d="M 174.457031 0.664062 L 218.125 0.664062 L 218.125 44.332031 L 174.457031 44.332031 Z M 174.457031 0.664062 " clip-rule="nonzero"/></clipPath><clipPath id="ffd93f1fe4"><path d="M 196.289062 0.664062 C 184.234375 0.664062 174.457031 10.441406 174.457031 22.5 C 174.457031 34.558594 184.234375 44.332031 196.289062 44.332031 C 208.347656 44.332031 218.125 34.558594 218.125 22.5 C 218.125 10.441406 208.347656 0.664062 196.289062 0.664062 Z M 196.289062 0.664062 " clip-rule="nonzero"/></clipPath><clipPath id="9a34df3a93"><path d="M 0.457031 0.664062 L 44.125 0.664062 L 44.125 44.332031 L 0.457031 44.332031 Z M 0.457031 0.664062 " clip-rule="nonzero"/></clipPath><clipPath id="4ead0661cf"><path d="M 22.289062 0.664062 C 10.234375 0.664062 0.457031 10.441406 0.457031 22.5 C 0.457031 34.558594 10.234375 44.332031 22.289062 44.332031 C 34.347656 44.332031 44.125 34.558594 44.125 22.5 C 44.125 10.441406 34.347656 0.664062 22.289062 0.664062 Z M 22.289062 0.664062 " clip-rule="nonzero"/></clipPath><clipPath id="c51da48c5d"><rect x="0" width="45" y="0" height="45"/></clipPath><clipPath id="6c5d2ed549"><path d="M 0.53125 174.976562 L 44.199219 174.976562 L 44.199219 218.644531 L 0.53125 218.644531 Z M 0.53125 174.976562 " clip-rule="nonzero"/></clipPath><clipPath id="efcbe7057b"><path d="M 22.367188 174.976562 C 10.308594 174.976562 0.53125 184.75 0.53125 196.808594 C 0.53125 208.867188 10.308594 218.644531 22.367188 218.644531 C 34.425781 218.644531 44.199219 208.867188 44.199219 196.808594 C 44.199219 184.75 34.425781 174.976562 22.367188 174.976562 Z M 22.367188 174.976562 " clip-rule="nonzero"/></clipPath><clipPath id="0aa826bbfc"><path d="M 0.53125 0.976562 L 44.199219 0.976562 L 44.199219 44.644531 L 0.53125 44.644531 Z M 0.53125 0.976562 " clip-rule="nonzero"/></clipPath><clipPath id="3aea1f89e1"><path d="M 22.367188 0.976562 C 10.308594 0.976562 0.53125 10.75 0.53125 22.808594 C 0.53125 34.867188 10.308594 44.644531 22.367188 44.644531 C 34.425781 44.644531 44.199219 34.867188 44.199219 22.808594 C 44.199219 10.75 34.425781 0.976562 22.367188 0.976562 Z M 22.367188 0.976562 " clip-rule="nonzero"/></clipPath><clipPath id="69d6266169"><rect x="0" width="45" y="0" height="45"/></clipPath><clipPath id="801c3701fa"><path d="M 351.800781 174.976562 L 395.46875 174.976562 L 395.46875 218.644531 L 351.800781 218.644531 Z M 351.800781 174.976562 " clip-rule="nonzero"/></clipPath><clipPath id="6698f3dfc8"><path d="M 373.632812 174.976562 C 361.574219 174.976562 351.800781 184.75 351.800781 196.808594 C 351.800781 208.867188 361.574219 218.644531 373.632812 218.644531 C 385.691406 218.644531 395.46875 208.867188 395.46875 196.808594 C 395.46875 184.75 385.691406 174.976562 373.632812 174.976562 Z M 373.632812 174.976562 " clip-rule="nonzero"/></clipPath><clipPath id="7ebf39e17f"><path d="M 0.800781 0.976562 L 44.46875 0.976562 L 44.46875 44.644531 L 0.800781 44.644531 Z M 0.800781 0.976562 " clip-rule="nonzero"/></clipPath><clipPath id="8f13d37686"><path d="M 22.632812 0.976562 C 10.574219 0.976562 0.800781 10.75 0.800781 22.808594 C 0.800781 34.867188 10.574219 44.644531 22.632812 44.644531 C 34.691406 44.644531 44.46875 34.867188 44.46875 22.808594 C 44.46875 10.75 34.691406 0.976562 22.632812 0.976562 Z M 22.632812 0.976562 " clip-rule="nonzero"/></clipPath><clipPath id="6a61bff907"><rect x="0" width="45" y="0" height="45"/></clipPath><clipPath id="93d332a5f2"><path d="M 289.523438 15.476562 L 318.378906 15.476562 L 318.378906 44.332031 L 289.523438 44.332031 Z M 289.523438 15.476562 " clip-rule="nonzero"/></clipPath><clipPath id="3207ec1de5"><path d="M 303.949219 15.476562 C 295.984375 15.476562 289.523438 21.9375 289.523438 29.90625 C 289.523438 37.875 295.984375 44.332031 303.949219 44.332031 C 311.917969 44.332031 318.378906 37.875 318.378906 29.90625 C 318.378906 21.9375 311.917969 15.476562 303.949219 15.476562 Z M 303.949219 15.476562 " clip-rule="nonzero"/></clipPath><clipPath id="58caac7579"><path d="M 0.523438 0.476562 L 29.378906 0.476562 L 29.378906 29.332031 L 0.523438 29.332031 Z M 0.523438 0.476562 " clip-rule="nonzero"/></clipPath><clipPath id="e61c640e41"><path d="M 14.949219 0.476562 C 6.984375 0.476562 0.523438 6.9375 0.523438 14.90625 C 0.523438 22.875 6.984375 29.332031 14.949219 29.332031 C 22.917969 29.332031 29.378906 22.875 29.378906 14.90625 C 29.378906 6.9375 22.917969 0.476562 14.949219 0.476562 Z M 14.949219 0.476562 " clip-rule="nonzero"/></clipPath><clipPath id="6da5fb1eb6"><rect x="0" width="30" y="0" height="30"/></clipPath><clipPath id="487f7ad834"><path d="M 350.28125 77.765625 L 379.136719 77.765625 L 379.136719 106.621094 L 350.28125 106.621094 Z M 350.28125 77.765625 " clip-rule="nonzero"/></clipPath><clipPath id="1688df43e8"><path d="M 364.707031 77.765625 C 356.742188 77.765625 350.28125 84.226562 350.28125 92.195312 C 350.28125 100.164062 356.742188 106.621094 364.707031 106.621094 C 372.675781 106.621094 379.136719 100.164062 379.136719 92.195312 C 379.136719 84.226562 372.675781 77.765625 364.707031 77.765625 Z M 364.707031 77.765625 " clip-rule="nonzero"/></clipPath><clipPath id="760c0ded3c"><path d="M 0.28125 0.765625 L 29.136719 0.765625 L 29.136719 29.621094 L 0.28125 29.621094 Z M 0.28125 0.765625 " clip-rule="nonzero"/></clipPath><clipPath id="bd13146fa3"><path d="M 14.707031 0.765625 C 6.742188 0.765625 0.28125 7.226562 0.28125 15.195312 C 0.28125 23.164062 6.742188 29.621094 14.707031 29.621094 C 22.675781 29.621094 29.136719 23.164062 29.136719 15.195312 C 29.136719 7.226562 22.675781 0.765625 14.707031 0.765625 Z M 14.707031 0.765625 " clip-rule="nonzero"/></clipPath><clipPath id="3bfbf35eca"><rect x="0" width="30" y="0" height="30"/></clipPath><clipPath id="9bee1eb131"><path d="M 350.28125 288.902344 L 379.136719 288.902344 L 379.136719 317.757812 L 350.28125 317.757812 Z M 350.28125 288.902344 " clip-rule="nonzero"/></clipPath><clipPath id="e8edd8bcf9"><path d="M 364.707031 288.902344 C 356.742188 288.902344 350.28125 295.363281 350.28125 303.332031 C 350.28125 311.300781 356.742188 317.757812 364.707031 317.757812 C 372.675781 317.757812 379.136719 311.300781 379.136719 303.332031 C 379.136719 295.363281 372.675781 288.902344 364.707031 288.902344 Z M 364.707031 288.902344 " clip-rule="nonzero"/></clipPath><clipPath id="e1f568318f"><path d="M 0.28125 0.902344 L 29.136719 0.902344 L 29.136719 29.757812 L 0.28125 29.757812 Z M 0.28125 0.902344 " clip-rule="nonzero"/></clipPath><clipPath id="70be07e844"><path d="M 14.707031 0.902344 C 6.742188 0.902344 0.28125 7.363281 0.28125 15.332031 C 0.28125 23.300781 6.742188 29.757812 14.707031 29.757812 C 22.675781 29.757812 29.136719 23.300781 29.136719 15.332031 C 29.136719 7.363281 22.675781 0.902344 14.707031 0.902344 Z M 14.707031 0.902344 " clip-rule="nonzero"/></clipPath><clipPath id="07ed7cbcb7"><rect x="0" width="30" y="0" height="30"/></clipPath><clipPath id="c0e813d11d"><path d="M 289.523438 349.667969 L 318.378906 349.667969 L 318.378906 378.523438 L 289.523438 378.523438 Z M 289.523438 349.667969 " clip-rule="nonzero"/></clipPath><clipPath id="80c4d9fc6e"><path d="M 303.949219 349.667969 C 295.984375 349.667969 289.523438 356.125 289.523438 364.09375 C 289.523438 372.0625 295.984375 378.523438 303.949219 378.523438 C 311.917969 378.523438 318.378906 372.0625 318.378906 364.09375 C 318.378906 356.125 311.917969 349.667969 303.949219 349.667969 Z M 303.949219 349.667969 " clip-rule="nonzero"/></clipPath><clipPath id="7e6edf3b6b"><path d="M 0.523438 0.667969 L 29.378906 0.667969 L 29.378906 29.523438 L 0.523438 29.523438 Z M 0.523438 0.667969 " clip-rule="nonzero"/></clipPath><clipPath id="6094d4b8bb"><path d="M 14.949219 0.667969 C 6.984375 0.667969 0.523438 7.125 0.523438 15.09375 C 0.523438 23.0625 6.984375 29.523438 14.949219 29.523438 C 22.917969 29.523438 29.378906 23.0625 29.378906 15.09375 C 29.378906 7.125 22.917969 0.667969 14.949219 0.667969 Z M 14.949219 0.667969 " clip-rule="nonzero"/></clipPath><clipPath id="700b05e41d"><rect x="0" width="30" y="0" height="30"/></clipPath><clipPath id="375c0cecde"><path d="M 78.945312 15.476562 L 107.804688 15.476562 L 107.804688 44.332031 L 78.945312 44.332031 Z M 78.945312 15.476562 " clip-rule="nonzero"/></clipPath><clipPath id="2ef772250b"><path d="M 93.375 15.476562 C 85.40625 15.476562 78.945312 21.9375 78.945312 29.90625 C 78.945312 37.875 85.40625 44.332031 93.375 44.332031 C 101.34375 44.332031 107.804688 37.875 107.804688 29.90625 C 107.804688 21.9375 101.34375 15.476562 93.375 15.476562 Z M 93.375 15.476562 " clip-rule="nonzero"/></clipPath><clipPath id="e0168ac3d1"><path d="M 0.945312 0.476562 L 29.804688 0.476562 L 29.804688 29.332031 L 0.945312 29.332031 Z M 0.945312 0.476562 " clip-rule="nonzero"/></clipPath><clipPath id="744adf9a5e"><path d="M 15.375 0.476562 C 7.40625 0.476562 0.945312 6.9375 0.945312 14.90625 C 0.945312 22.875 7.40625 29.332031 15.375 29.332031 C 23.34375 29.332031 29.804688 22.875 29.804688 14.90625 C 29.804688 6.9375 23.34375 0.476562 15.375 0.476562 Z M 15.375 0.476562 " clip-rule="nonzero"/></clipPath><clipPath id="4fa451b040"><rect x="0" width="30" y="0" height="30"/></clipPath><clipPath id="fc570d145b"><path d="M 22.367188 77.765625 L 51.222656 77.765625 L 51.222656 106.621094 L 22.367188 106.621094 Z M 22.367188 77.765625 " clip-rule="nonzero"/></clipPath><clipPath id="46b6f98c98"><path d="M 36.792969 77.765625 C 28.824219 77.765625 22.367188 84.226562 22.367188 92.195312 C 22.367188 100.164062 28.824219 106.621094 36.792969 106.621094 C 44.761719 106.621094 51.222656 100.164062 51.222656 92.195312 C 51.222656 84.226562 44.761719 77.765625 36.792969 77.765625 Z M 36.792969 77.765625 " clip-rule="nonzero"/></clipPath><clipPath id="42155de876"><path d="M 0.367188 0.765625 L 29.222656 0.765625 L 29.222656 29.621094 L 0.367188 29.621094 Z M 0.367188 0.765625 " clip-rule="nonzero"/></clipPath><clipPath id="97c0ac9195"><path d="M 14.792969 0.765625 C 6.824219 0.765625 0.367188 7.226562 0.367188 15.195312 C 0.367188 23.164062 6.824219 29.621094 14.792969 29.621094 C 22.761719 29.621094 29.222656 23.164062 29.222656 15.195312 C 29.222656 7.226562 22.761719 0.765625 14.792969 0.765625 Z M 14.792969 0.765625 " clip-rule="nonzero"/></clipPath><clipPath id="d5eadd5fdf"><rect x="0" width="30" y="0" height="30"/></clipPath><clipPath id="e815c94c07"><path d="M 22.367188 288.902344 L 51.222656 288.902344 L 51.222656 317.757812 L 22.367188 317.757812 Z M 22.367188 288.902344 " clip-rule="nonzero"/></clipPath><clipPath id="214d1f28c3"><path d="M 36.792969 288.902344 C 28.824219 288.902344 22.367188 295.363281 22.367188 303.332031 C 22.367188 311.300781 28.824219 317.757812 36.792969 317.757812 C 44.761719 317.757812 51.222656 311.300781 51.222656 303.332031 C 51.222656 295.363281 44.761719 288.902344 36.792969 288.902344 Z M 36.792969 288.902344 " clip-rule="nonzero"/></clipPath><clipPath id="a9e4e07cc2"><path d="M 0.367188 0.902344 L 29.222656 0.902344 L 29.222656 29.757812 L 0.367188 29.757812 Z M 0.367188 0.902344 " clip-rule="nonzero"/></clipPath><clipPath id="4547d1a078"><path d="M 14.792969 0.902344 C 6.824219 0.902344 0.367188 7.363281 0.367188 15.332031 C 0.367188 23.300781 6.824219 29.757812 14.792969 29.757812 C 22.761719 29.757812 29.222656 23.300781 29.222656 15.332031 C 29.222656 7.363281 22.761719 0.902344 14.792969 0.902344 Z M 14.792969 0.902344 " clip-rule="nonzero"/></clipPath><clipPath id="c451198ab6"><rect x="0" width="30" y="0" height="30"/></clipPath><clipPath id="b8749090a5"><path d="M 78.945312 349.667969 L 107.804688 349.667969 L 107.804688 378.523438 L 78.945312 378.523438 Z M 78.945312 349.667969 " clip-rule="nonzero"/></clipPath><clipPath id="fc6648749e"><path d="M 93.375 349.667969 C 85.40625 349.667969 78.945312 356.125 78.945312 364.09375 C 78.945312 372.0625 85.40625 378.523438 93.375 378.523438 C 101.34375 378.523438 107.804688 372.0625 107.804688 364.09375 C 107.804688 356.125 101.34375 349.667969 93.375 349.667969 Z M 93.375 349.667969 " clip-rule="nonzero"/></clipPath><clipPath id="4211336a8c"><path d="M 0.945312 0.667969 L 29.804688 0.667969 L 29.804688 29.523438 L 0.945312 29.523438 Z M 0.945312 0.667969 " clip-rule="nonzero"/></clipPath><clipPath id="4d65d998c3"><path d="M 15.375 0.667969 C 7.40625 0.667969 0.945312 7.125 0.945312 15.09375 C 0.945312 23.0625 7.40625 29.523438 15.375 29.523438 C 23.34375 29.523438 29.804688 23.0625 29.804688 15.09375 C 29.804688 7.125 23.34375 0.667969 15.375 0.667969 Z M 15.375 0.667969 " clip-rule="nonzero"/></clipPath><clipPath id="c25487bf7c"><rect x="0" width="30" y="0" height="30"/></clipPath><clipPath id="32ae91d455"><rect x="0" width="396" y="0" height="394"/></clipPath></defs><g clip-path="url(#6ce637c310)"><g clip-path="url(#72dc903637)"><path stroke-linecap="butt" transform="matrix(0.75, 0, 0, 0.75, 105.260439, 56.212176)" fill="none" stroke-linejoin="miter" d="M 399.647585 0.0035565 L 799.298673 232.524416 L 799.298673 697.571345 L 399.647585 930.092204 L 0.00170633 697.571345 L 0.00170633 232.524416 Z M 399.647585 0.0035565 " stroke="#ffffff" stroke-width="100" stroke-opacity="1" stroke-miterlimit="4"/></g></g><g transform="matrix(1, 0, 0, 1, 207, 208)"><g clip-path="url(#32ae91d455)"><g clip-path="url(#c299f45c1e)"><g clip-path="url(#36c2440b53)"><g transform="matrix(1, 0, 0, 1, 98, 162)"><g clip-path="url(#316443aa73)"><g clip-path="url(#51c4f3d745)"><g clip-path="url(#f015a18512)"><path fill="#ffffff" d="M 0.886719 0.824219 L 68.863281 0.824219 L 68.863281 68.796875 L 0.886719 68.796875 Z M 0.886719 0.824219 " fill-opacity="1" fill-rule="nonzero"/></g></g></g></g></g></g><g clip-path="url(#7c04a5bf97)"><g clip-path="url(#fc83be541e)"><g transform="matrix(1, 0, 0, 1, 229, 162)"><g clip-path="url(#31870cd200)"><g clip-path="url(#3446528bf2)"><g clip-path="url(#ff72f0b3d3)"><path fill="#ffffff" d="M 0.136719 0.824219 L 68.113281 0.824219 L 68.113281 68.796875 L 0.136719 68.796875 Z M 0.136719 0.824219 " fill-opacity="1" fill-rule="nonzero"/></g></g></g></g></g></g><g clip-path="url(#018fe3291e)"><g clip-path="url(#15a51bffd1)"><g transform="matrix(1, 0, 0, 1, 162, 102)"><g clip-path="url(#34561f6055)"><g clip-path="url(#a2f083cc38)"><g clip-path="url(#46987c1c24)"><path fill="#ffffff" d="M 0.304688 0.4375 L 68.277344 0.4375 L 68.277344 68.414062 L 0.304688 68.414062 Z M 0.304688 0.4375 " fill-opacity="1" fill-rule="nonzero"/></g></g></g></g></g></g><g clip-path="url(#3c4871a910)"><g clip-path="url(#0df883b1e1)"><g transform="matrix(1, 0, 0, 1, 162, 228)"><g clip-path="url(#5ba385dfc2)"><g clip-path="url(#36028178dd)"><g clip-path="url(#6ccb865b5d)"><path fill="#ffffff" d="M 0.304688 0.519531 L 68.277344 0.519531 L 68.277344 68.492188 L 0.304688 68.492188 Z M 0.304688 0.519531 " fill-opacity="1" fill-rule="nonzero"/></g></g></g></g></g></g><g clip-path="url(#f541e6b3e9)"><g clip-path="url(#474edd109c)"><g transform="matrix(1, 0, 0, 1, 289, 115)"><g clip-path="url(#1ad11f5547)"><g clip-path="url(#e3498da9ea)"><g clip-path="url(#d6b494a41a)"><path fill="#ffffff" d="M 0.523438 0.738281 L 48.746094 0.738281 L 48.746094 48.960938 L 0.523438 48.960938 Z M 0.523438 0.738281 " fill-opacity="1" fill-rule="nonzero"/></g></g></g></g></g></g><g clip-path="url(#65511e5dc4)"><g clip-path="url(#5527ba6f85)"><g transform="matrix(1, 0, 0, 1, 231, 58)"><g clip-path="url(#5f2584448b)"><g clip-path="url(#6595f121d7)"><g clip-path="url(#c0a797d862)"><path fill="#ffffff" d="M 0.417969 0.398438 L 48.640625 0.398438 L 48.640625 48.621094 L 0.417969 48.621094 Z M 0.417969 0.398438 " fill-opacity="1" fill-rule="nonzero"/></g></g></g></g></g></g><g clip-path="url(#7aec2e36d6)"><g clip-path="url(#bd53ecb1de)"><g transform="matrix(1, 0, 0, 1, 112, 58)"><g clip-path="url(#ea70657fbe)"><g clip-path="url(#68b08e4125)"><g clip-path="url(#16c5b36552)"><path fill="#ffffff" d="M 0.941406 0.398438 L 49.164062 0.398438 L 49.164062 48.621094 L 0.941406 48.621094 Z M 0.941406 0.398438 " fill-opacity="1" fill-rule="nonzero"/></g></g></g></g></g></g><g clip-path="url(#904d5d1d65)"><g clip-path="url(#e38cbd77aa)"><g transform="matrix(1, 0, 0, 1, 54, 114)"><g clip-path="url(#947bc27e55)"><g clip-path="url(#c7eaeed54a)"><g clip-path="url(#127272ecd8)"><path fill="#ffffff" d="M 0.832031 0.597656 L 49.058594 0.597656 L 49.058594 48.824219 L 0.832031 48.824219 Z M 0.832031 0.597656 " fill-opacity="1" fill-rule="nonzero"/></g></g></g></g></g></g><g clip-path="url(#916fd24d02)"><g clip-path="url(#d0096e68eb)"><g transform="matrix(1, 0, 0, 1, 54, 233)"><g clip-path="url(#bd462fdf48)"><g clip-path="url(#9f54161882)"><g clip-path="url(#bb95f639b8)"><path fill="#ffffff" d="M 0.832031 0.835938 L 49.058594 0.835938 L 49.058594 49.058594 L 0.832031 49.058594 Z M 0.832031 0.835938 " fill-opacity="1" fill-rule="nonzero"/></g></g></g></g></g></g><g clip-path="url(#ddf3ca2f83)"><g clip-path="url(#c920bff668)"><g transform="matrix(1, 0, 0, 1, 289, 233)"><g clip-path="url(#083b37359b)"><g clip-path="url(#ef871a241a)"><g clip-path="url(#92370e62fe)"><path fill="#ffffff" d="M 0.523438 0.835938 L 48.746094 0.835938 L 48.746094 49.058594 L 0.523438 49.058594 Z M 0.523438 0.835938 " fill-opacity="1" fill-rule="nonzero"/></g></g></g></g></g></g><g clip-path="url(#6b40ef97a3)"><g clip-path="url(#e1b818acdd)"><g transform="matrix(1, 0, 0, 1, 231, 288)"><g clip-path="url(#a9024f1278)"><g clip-path="url(#8d88ce8c40)"><g clip-path="url(#c7e4d20545)"><path fill="#ffffff" d="M 0.417969 0.902344 L 48.640625 0.902344 L 48.640625 49.128906 L 0.417969 49.128906 Z M 0.417969 0.902344 " fill-opacity="1" fill-rule="nonzero"/></g></g></g></g></g></g><g clip-path="url(#833b5c66da)"><g clip-path="url(#dda9f83cb2)"><g transform="matrix(1, 0, 0, 1, 112, 288)"><g clip-path="url(#d90694c1dc)"><g clip-path="url(#a9cc6fc3d3)"><g clip-path="url(#5b4c847b83)"><path fill="#ffffff" d="M 0.941406 0.902344 L 49.164062 0.902344 L 49.164062 49.128906 L 0.941406 49.128906 Z M 0.941406 0.902344 " fill-opacity="1" fill-rule="nonzero"/></g></g></g></g></g></g><g clip-path="url(#ca83e2f5eb)"><g clip-path="url(#8dc4b7ba4c)"><g transform="matrix(1, 0, 0, 1, 174, 349)"><g clip-path="url(#7ccf2441cc)"><g clip-path="url(#93eafc9145)"><g clip-path="url(#8e957a8318)"><path fill="#ffffff" d="M 0.457031 0.667969 L 44.125 0.667969 L 44.125 44.335938 L 0.457031 44.335938 Z M 0.457031 0.667969 " fill-opacity="1" fill-rule="nonzero"/></g></g></g></g></g></g><g clip-path="url(#e9e4da5e11)"><g clip-path="url(#ffd93f1fe4)"><g transform="matrix(1, 0, 0, 1, 174, 0.000000000000028422)"><g clip-path="url(#c51da48c5d)"><g clip-path="url(#9a34df3a93)"><g clip-path="url(#4ead0661cf)"><path fill="#ffffff" d="M 0.457031 0.664062 L 44.125 0.664062 L 44.125 44.332031 L 0.457031 44.332031 Z M 0.457031 0.664062 " fill-opacity="1" fill-rule="nonzero"/></g></g></g></g></g></g><g clip-path="url(#6c5d2ed549)"><g clip-path="url(#efcbe7057b)"><g transform="matrix(1, 0, 0, 1, 0, 174)"><g clip-path="url(#69d6266169)"><g clip-path="url(#0aa826bbfc)"><g clip-path="url(#3aea1f89e1)"><path fill="#ffffff" d="M 0.53125 0.976562 L 44.199219 0.976562 L 44.199219 44.644531 L 0.53125 44.644531 Z M 0.53125 0.976562 " fill-opacity="1" fill-rule="nonzero"/></g></g></g></g></g></g><g clip-path="url(#801c3701fa)"><g clip-path="url(#6698f3dfc8)"><g transform="matrix(1, 0, 0, 1, 351, 174)"><g clip-path="url(#6a61bff907)"><g clip-path="url(#7ebf39e17f)"><g clip-path="url(#8f13d37686)"><path fill="#ffffff" d="M 0.800781 0.976562 L 44.46875 0.976562 L 44.46875 44.644531 L 0.800781 44.644531 Z M 0.800781 0.976562 " fill-opacity="1" fill-rule="nonzero"/></g></g></g></g></g></g><g clip-path="url(#93d332a5f2)"><g clip-path="url(#3207ec1de5)"><g transform="matrix(1, 0, 0, 1, 289, 15)"><g clip-path="url(#6da5fb1eb6)"><g clip-path="url(#58caac7579)"><g clip-path="url(#e61c640e41)"><path fill="#ffffff" d="M 0.523438 0.476562 L 29.378906 0.476562 L 29.378906 29.332031 L 0.523438 29.332031 Z M 0.523438 0.476562 " fill-opacity="1" fill-rule="nonzero"/></g></g></g></g></g></g><g clip-path="url(#487f7ad834)"><g clip-path="url(#1688df43e8)"><g transform="matrix(1, 0, 0, 1, 350, 77)"><g clip-path="url(#3bfbf35eca)"><g clip-path="url(#760c0ded3c)"><g clip-path="url(#bd13146fa3)"><path fill="#ffffff" d="M 0.28125 0.765625 L 29.136719 0.765625 L 29.136719 29.621094 L 0.28125 29.621094 Z M 0.28125 0.765625 " fill-opacity="1" fill-rule="nonzero"/></g></g></g></g></g></g><g clip-path="url(#9bee1eb131)"><g clip-path="url(#e8edd8bcf9)"><g transform="matrix(1, 0, 0, 1, 350, 288)"><g clip-path="url(#07ed7cbcb7)"><g clip-path="url(#e1f568318f)"><g clip-path="url(#70be07e844)"><path fill="#ffffff" d="M 0.28125 0.902344 L 29.136719 0.902344 L 29.136719 29.757812 L 0.28125 29.757812 Z M 0.28125 0.902344 " fill-opacity="1" fill-rule="nonzero"/></g></g></g></g></g></g><g clip-path="url(#c0e813d11d)"><g clip-path="url(#80c4d9fc6e)"><g transform="matrix(1, 0, 0, 1, 289, 349)"><g clip-path="url(#700b05e41d)"><g clip-path="url(#7e6edf3b6b)"><g clip-path="url(#6094d4b8bb)"><path fill="#ffffff" d="M 0.523438 0.667969 L 29.378906 0.667969 L 29.378906 29.523438 L 0.523438 29.523438 Z M 0.523438 0.667969 " fill-opacity="1" fill-rule="nonzero"/></g></g></g></g></g></g><g clip-path="url(#375c0cecde)"><g clip-path="url(#2ef772250b)"><g transform="matrix(1, 0, 0, 1, 78, 15)"><g clip-path="url(#4fa451b040)"><g clip-path="url(#e0168ac3d1)"><g clip-path="url(#744adf9a5e)"><path fill="#ffffff" d="M 0.945312 0.476562 L 29.804688 0.476562 L 29.804688 29.332031 L 0.945312 29.332031 Z M 0.945312 0.476562 " fill-opacity="1" fill-rule="nonzero"/></g></g></g></g></g></g><g clip-path="url(#fc570d145b)"><g clip-path="url(#46b6f98c98)"><g transform="matrix(1, 0, 0, 1, 22, 77)"><g clip-path="url(#d5eadd5fdf)"><g clip-path="url(#42155de876)"><g clip-path="url(#97c0ac9195)"><path fill="#ffffff" d="M 0.367188 0.765625 L 29.222656 0.765625 L 29.222656 29.621094 L 0.367188 29.621094 Z M 0.367188 0.765625 " fill-opacity="1" fill-rule="nonzero"/></g></g></g></g></g></g><g clip-path="url(#e815c94c07)"><g clip-path="url(#214d1f28c3)"><g transform="matrix(1, 0, 0, 1, 22, 288)"><g clip-path="url(#c451198ab6)"><g clip-path="url(#a9e4e07cc2)"><g clip-path="url(#4547d1a078)"><path fill="#ffffff" d="M 0.367188 0.902344 L 29.222656 0.902344 L 29.222656 29.757812 L 0.367188 29.757812 Z M 0.367188 0.902344 " fill-opacity="1" fill-rule="nonzero"/></g></g></g></g></g></g><g clip-path="url(#b8749090a5)"><g clip-path="url(#fc6648749e)"><g transform="matrix(1, 0, 0, 1, 78, 349)"><g clip-path="url(#c25487bf7c)"><g clip-path="url(#4211336a8c)"><g clip-path="url(#4d65d998c3)"><path fill="#ffffff" d="M 0.945312 0.667969 L 29.804688 0.667969 L 29.804688 29.523438 L 0.945312 29.523438 Z M 0.945312 0.667969 " fill-opacity="1" fill-rule="nonzero"/></g></g></g></g></g></g></g></g></svg>