<svg xmlns="http://www.w3.org/2000/svg" width="41" height="41" viewBox="0 0 41 41"><path fill="#FFF" fill-rule="evenodd" d="M28.529 14.328c.228.229.228.6 0 .828l-7.614 7.615a.585.585 0 0 1-.829 0l-7.614-7.615a.586.586 0 0 1 .828-.828l7.2 7.2 7.2-7.2a.586.586 0 0 1 .829 0m0 7c.228.229.228.6 0 .828l-7.614 7.615a.585.585 0 0 1-.829 0l-7.614-7.615a.586.586 0 0 1 .828-.828l7.2 7.2 7.2-7.2a.586.586 0 0 1 .829 0m-8.029 18.5c-10.656 0-19.329-8.672-19.329-19.328C1.171 9.842 9.844 1.171 20.5 1.171c10.658 0 19.329 8.671 19.329 19.329 0 10.656-8.671 19.329-19.329 19.329M20.5 0C9.178 0 0 9.177 0 20.5 0 31.822 9.178 41 20.5 41 31.823 41 41 31.822 41 20.5 41 9.177 31.823 0 20.5 0"/></svg>