<svg xmlns="http://www.w3.org/2000/svg" xmlns:xlink="http://www.w3.org/1999/xlink" width="1080" zoomAndPan="magnify" viewBox="0 0 810 809.999993" height="1080" preserveAspectRatio="xMidYMid meet" version="1.0"><defs><clipPath id="eee365b747"><path d="M 105.261719 56.214844 L 704.511719 56.214844 L 704.511719 753.710938 L 105.261719 753.710938 Z M 105.261719 56.214844 " clip-rule="nonzero"/></clipPath><clipPath id="fbf3c582d2"><path d="M 404.996094 56.214844 L 704.734375 230.605469 L 704.734375 579.390625 L 404.996094 753.78125 L 105.261719 579.390625 L 105.261719 230.605469 Z M 404.996094 56.214844 " clip-rule="nonzero"/></clipPath><clipPath id="7ddb72aab8"><path d="M 176.625 249.492188 L 633.367188 249.492188 L 633.367188 560.742188 L 176.625 560.742188 Z M 176.625 249.492188 " clip-rule="nonzero"/></clipPath><clipPath id="9e07d05445"><path d="M 194.625 249.492188 L 615.375 249.492188 C 620.148438 249.492188 624.726562 251.390625 628.101562 254.765625 C 631.476562 258.140625 633.371094 262.71875 633.371094 267.492188 L 633.371094 542.496094 C 633.371094 547.269531 631.476562 551.847656 628.101562 555.222656 C 624.726562 558.601562 620.148438 560.496094 615.375 560.496094 L 194.625 560.496094 C 189.851562 560.496094 185.273438 558.601562 181.898438 555.222656 C 178.523438 551.847656 176.625 547.269531 176.625 542.496094 L 176.625 267.492188 C 176.625 262.71875 178.523438 258.140625 181.898438 254.765625 C 185.273438 251.390625 189.851562 249.492188 194.625 249.492188 Z M 194.625 249.492188 " clip-rule="nonzero"/></clipPath><clipPath id="f35ad9bf66"><path d="M 194.800781 283.074219 L 268.300781 283.074219 L 268.300781 542.558594 L 194.800781 542.558594 Z M 194.800781 283.074219 " clip-rule="nonzero"/></clipPath><clipPath id="8477f89933"><path d="M 212.800781 283.074219 L 250.199219 283.074219 C 254.972656 283.074219 259.550781 284.96875 262.925781 288.34375 C 266.300781 291.71875 268.195312 296.296875 268.195312 301.070312 L 268.195312 524.828125 C 268.195312 529.601562 266.300781 534.179688 262.925781 537.554688 C 259.550781 540.929688 254.972656 542.824219 250.199219 542.824219 L 212.800781 542.824219 C 208.027344 542.824219 203.449219 540.929688 200.074219 537.554688 C 196.699219 534.179688 194.800781 529.601562 194.800781 524.828125 L 194.800781 301.070312 C 194.800781 296.296875 196.699219 291.71875 200.074219 288.34375 C 203.449219 284.96875 208.027344 283.074219 212.800781 283.074219 Z M 212.800781 283.074219 " clip-rule="nonzero"/></clipPath><clipPath id="a9664a4f59"><path d="M 540.695312 283.074219 L 614.195312 283.074219 L 614.195312 542.558594 L 540.695312 542.558594 Z M 540.695312 283.074219 " clip-rule="nonzero"/></clipPath><clipPath id="db61acae09"><path d="M 558.691406 283.074219 L 596.09375 283.074219 C 600.863281 283.074219 605.441406 284.96875 608.816406 288.34375 C 612.195312 291.71875 614.089844 296.296875 614.089844 301.070312 L 614.089844 524.828125 C 614.089844 529.601562 612.195312 534.179688 608.816406 537.554688 C 605.441406 540.929688 600.863281 542.824219 596.09375 542.824219 L 558.691406 542.824219 C 553.917969 542.824219 549.34375 540.929688 545.964844 537.554688 C 542.589844 534.179688 540.695312 529.601562 540.695312 524.828125 L 540.695312 301.070312 C 540.695312 296.296875 542.589844 291.71875 545.964844 288.34375 C 549.34375 284.96875 553.917969 283.074219 558.691406 283.074219 Z M 558.691406 283.074219 " clip-rule="nonzero"/></clipPath><clipPath id="af0be751de"><path d="M 274.464844 476.503906 L 532.449219 476.503906 L 532.449219 542.503906 L 274.464844 542.503906 Z M 274.464844 476.503906 " clip-rule="nonzero"/></clipPath><clipPath id="8c6966afcd"><path d="M 292.464844 476.503906 L 514.449219 476.503906 C 519.222656 476.503906 523.800781 478.402344 527.175781 481.777344 C 530.550781 485.152344 532.449219 489.730469 532.449219 494.503906 L 532.449219 524.835938 C 532.449219 529.609375 530.550781 534.1875 527.175781 537.5625 C 523.800781 540.9375 519.222656 542.832031 514.449219 542.832031 L 292.464844 542.832031 C 287.691406 542.832031 283.113281 540.9375 279.738281 537.5625 C 276.363281 534.1875 274.464844 529.609375 274.464844 524.835938 L 274.464844 494.503906 C 274.464844 489.730469 276.363281 485.152344 279.738281 481.777344 C 283.113281 478.402344 287.691406 476.503906 292.464844 476.503906 Z M 292.464844 476.503906 " clip-rule="nonzero"/></clipPath><clipPath id="f8c5c1ad87"><path d="M 274.453125 283.058594 L 532.449219 283.058594 L 532.449219 471.308594 L 274.453125 471.308594 Z M 274.453125 283.058594 " clip-rule="nonzero"/></clipPath><clipPath id="e14a6a9635"><path d="M 292.453125 283.058594 L 514.460938 283.058594 C 519.234375 283.058594 523.8125 284.953125 527.1875 288.332031 C 530.566406 291.707031 532.460938 296.285156 532.460938 301.058594 L 532.460938 453.332031 C 532.460938 458.105469 530.566406 462.683594 527.1875 466.058594 C 523.8125 469.433594 519.234375 471.332031 514.460938 471.332031 L 292.453125 471.332031 C 287.679688 471.332031 283.101562 469.433594 279.722656 466.058594 C 276.347656 462.683594 274.453125 458.105469 274.453125 453.332031 L 274.453125 301.058594 C 274.453125 296.285156 276.347656 291.707031 279.722656 288.332031 C 283.101562 284.953125 287.679688 283.058594 292.453125 283.058594 Z M 292.453125 283.058594 " clip-rule="nonzero"/></clipPath></defs><g clip-path="url(#eee365b747)"><g clip-path="url(#fbf3c582d2)"><path stroke-linecap="butt" transform="matrix(0.75, 0, 0, 0.75, 105.260439, 56.212176)" fill="none" stroke-linejoin="miter" d="M 399.647585 0.0035565 L 799.298673 232.524416 L 799.298673 697.571345 L 399.647585 930.092204 L 0.00170633 697.571345 L 0.00170633 232.524416 Z M 399.647585 0.0035565 " stroke="#ffffff" stroke-width="100" stroke-opacity="1" stroke-miterlimit="4"/></g></g><g clip-path="url(#7ddb72aab8)"><g clip-path="url(#9e07d05445)"><path stroke-linecap="butt" transform="matrix(0.75, 0, 0, 0.75, 176.618858, 249.49237)" fill="none" stroke-linejoin="miter" d="M 24.008189 -0.000243131 L 585.008182 -0.000243131 C 591.372765 -0.000243131 597.476931 2.531007 601.976931 7.031007 C 606.476931 11.531007 609.002973 17.635173 609.002973 23.999757 L 609.002973 390.671627 C 609.002973 397.03621 606.476931 403.140376 601.976931 407.640376 C 597.476931 412.145585 591.372765 414.671626 585.008182 414.671626 L 24.008189 414.671626 C 17.643606 414.671626 11.539439 412.145585 7.039439 407.640376 C 2.53944 403.140376 0.00818958 397.03621 0.00818958 390.671627 L 0.00818958 23.999757 C 0.00818958 17.635173 2.53944 11.531007 7.039439 7.031007 C 11.539439 2.531007 17.643606 -0.000243131 24.008189 -0.000243131 Z M 24.008189 -0.000243131 " stroke="#ffffff" stroke-width="32" stroke-opacity="1" stroke-miterlimit="4"/></g></g><g clip-path="url(#f35ad9bf66)"><g clip-path="url(#8477f89933)"><path stroke-linecap="butt" transform="matrix(0.75, 0, 0, 0.75, 194.802063, 283.058355)" fill="none" stroke-linejoin="miter" d="M 23.99829 0.0211512 L 73.862873 0.0211512 C 80.227456 0.0211512 86.331623 2.547193 90.831623 7.047193 C 95.331623 11.547193 97.857664 17.651359 97.857664 24.015943 L 97.857664 322.359688 C 97.857664 328.724272 95.331623 334.828438 90.831623 339.328438 C 86.331623 343.828438 80.227456 346.35448 73.862873 346.35448 L 23.99829 346.35448 C 17.633707 346.35448 11.52954 343.828438 7.029541 339.328438 C 2.529541 334.828438 -0.0017094 328.724272 -0.0017094 322.359688 L -0.0017094 24.015943 C -0.0017094 17.651359 2.529541 11.547193 7.029541 7.047193 C 11.52954 2.547193 17.633707 0.0211512 23.99829 0.0211512 Z M 23.99829 0.0211512 " stroke="#ffffff" stroke-width="32" stroke-opacity="1" stroke-miterlimit="4"/></g></g><g clip-path="url(#a9664a4f59)"><g clip-path="url(#db61acae09)"><path stroke-linecap="butt" transform="matrix(0.75, 0, 0, 0.75, 540.695184, 283.058355)" fill="none" stroke-linejoin="miter" d="M 23.994962 0.0211512 L 73.864753 0.0211512 C 80.224128 0.0211512 86.328295 2.547193 90.828295 7.047193 C 95.333503 11.547193 97.859545 17.651359 97.859545 24.015943 L 97.859545 322.359688 C 97.859545 328.724272 95.333503 334.828438 90.828295 339.328438 C 86.328295 343.828438 80.224128 346.35448 73.864753 346.35448 L 23.994962 346.35448 C 17.630379 346.35448 11.531421 343.828438 7.026213 339.328438 C 2.526213 334.828438 0.000170936 328.724272 0.000170936 322.359688 L 0.000170936 24.015943 C 0.000170936 17.651359 2.526213 11.547193 7.026213 7.047193 C 11.531421 2.547193 17.630379 0.0211512 23.994962 0.0211512 Z M 23.994962 0.0211512 " stroke="#ffffff" stroke-width="32" stroke-opacity="1" stroke-miterlimit="4"/></g></g><g clip-path="url(#af0be751de)"><g clip-path="url(#8c6966afcd)"><path stroke-linecap="butt" transform="matrix(0.75, 0, 0, 0.75, 274.450917, 476.504372)" fill="none" stroke-linejoin="miter" d="M 24.01857 -0.000621037 L 319.997752 -0.000621037 C 326.362336 -0.000621037 332.466503 2.530629 336.966503 7.030629 C 341.466503 11.53063 343.997753 17.634797 343.997753 23.99938 L 343.997753 64.442091 C 343.997753 70.806674 341.466503 76.910841 336.966503 81.410841 C 332.466503 85.910842 326.362336 88.436883 319.997752 88.436883 L 24.01857 88.436883 C 17.653987 88.436883 11.54982 85.910842 7.049819 81.410841 C 2.549819 76.910841 0.0185691 70.806674 0.0185691 64.442091 L 0.0185691 23.99938 C 0.0185691 17.634797 2.549819 11.53063 7.049819 7.030629 C 11.54982 2.530629 17.653987 -0.000621037 24.01857 -0.000621037 Z M 24.01857 -0.000621037 " stroke="#ffffff" stroke-width="32" stroke-opacity="1" stroke-miterlimit="4"/></g></g><g clip-path="url(#f8c5c1ad87)"><g clip-path="url(#e14a6a9635)"><path stroke-linecap="butt" transform="matrix(0.75, 0, 0, 0.75, 274.450917, 283.058355)" fill="none" stroke-linejoin="miter" d="M 24.002945 0.000317854 L 320.013377 0.000317854 C 326.377961 0.000317854 332.482128 2.52636 336.982128 7.031568 C 341.487336 11.531568 344.013378 17.635735 344.013378 24.000319 L 344.013378 227.031579 C 344.013378 233.396163 341.487336 239.50033 336.982128 244.00033 C 332.482128 248.50033 326.377961 251.03158 320.013377 251.03158 L 24.002945 251.03158 C 17.638362 251.03158 11.534195 248.50033 7.028986 244.00033 C 2.528986 239.50033 0.00294414 233.396163 0.00294414 227.031579 L 0.00294414 24.000319 C 0.00294414 17.635735 2.528986 11.531568 7.028986 7.031568 C 11.534195 2.52636 17.638362 0.000317854 24.002945 0.000317854 Z M 24.002945 0.000317854 " stroke="#ffffff" stroke-width="32" stroke-opacity="1" stroke-miterlimit="4"/></g></g><path stroke-linecap="round" transform="matrix(0.649519, 0.375, -0.375, 0.649519, 402.24593, 377.198351)" fill="none" stroke-linejoin="miter" d="M 7.999238 8.000484 L 63.989849 7.999892 " stroke="#ffffff" stroke-width="16" stroke-opacity="1" stroke-miterlimit="4"/><path stroke-linecap="round" transform="matrix(0.649519, 0.375, -0.375, 0.649519, 402.24593, 377.198351)" fill-opacity="1" fill="#ffffff" fill-rule="nonzero" stroke-linejoin="round" d="M 71.987955 -16.00115 L 103.989513 8.000087 L 71.9872 31.997544 Z M 71.987955 -16.00115 " stroke="#ffffff" stroke-width="16" stroke-opacity="1" stroke-miterlimit="4"/><path stroke-linecap="round" transform="matrix(0, -0.75, 0.75, 0, 398.76889, 389.981513)" fill="none" stroke-linejoin="miter" d="M 8.001393 8.000856 L 63.985771 8.000856 " stroke="#ffffff" stroke-width="16" stroke-opacity="1" stroke-miterlimit="4"/><path stroke-linecap="round" transform="matrix(0, -0.75, 0.75, 0, 398.76889, 389.981513)" fill-opacity="1" fill="#ffffff" fill-rule="nonzero" stroke-linejoin="round" d="M 71.985771 -15.999146 L 103.985773 8.000856 L 71.985771 32.000857 Z M 71.985771 -15.999146 " stroke="#ffffff" stroke-width="16" stroke-opacity="1" stroke-miterlimit="4"/><path stroke-linecap="round" transform="matrix(-0.656993, 0.361746, -0.361746, -0.656993, 414.079903, 386.60581)" fill="none" stroke-linejoin="miter" d="M 7.999299 8.002115 L 63.989277 8.002458 " stroke="#ffffff" stroke-width="16" stroke-opacity="1" stroke-miterlimit="4"/><path stroke-linecap="round" transform="matrix(-0.656993, 0.361746, -0.361746, -0.656993, 414.079903, 386.60581)" fill-opacity="1" fill="#ffffff" fill-rule="nonzero" stroke-linejoin="round" d="M 71.99093 -16.000075 L 103.988315 7.997621 L 71.990665 31.998995 Z M 71.99093 -16.000075 " stroke="#ffffff" stroke-width="16" stroke-opacity="1" stroke-miterlimit="4"/></svg>