<svg xmlns="http://www.w3.org/2000/svg" xmlns:xlink="http://www.w3.org/1999/xlink" width="1080" zoomAndPan="magnify" viewBox="0 0 810 809.999993" height="1080" preserveAspectRatio="xMidYMid meet" version="1.0"><defs><clipPath id="1ad7c7d55e"><path d="M 105.261719 56.214844 L 704.511719 56.214844 L 704.511719 753.710938 L 105.261719 753.710938 Z M 105.261719 56.214844 " clip-rule="nonzero"/></clipPath><clipPath id="219784d812"><path d="M 404.996094 56.214844 L 704.734375 230.605469 L 704.734375 579.390625 L 404.996094 753.78125 L 105.261719 579.390625 L 105.261719 230.605469 Z M 404.996094 56.214844 " clip-rule="nonzero"/></clipPath><clipPath id="e6d45d1cdb"><path d="M 225.925781 223.949219 L 584.425781 223.949219 L 584.425781 586.199219 L 225.925781 586.199219 Z M 225.925781 223.949219 " clip-rule="nonzero"/></clipPath></defs><g clip-path="url(#1ad7c7d55e)"><g clip-path="url(#219784d812)"><path stroke-linecap="butt" transform="matrix(0.75, 0, 0, 0.75, 105.260439, 56.213242)" fill="none" stroke-linejoin="miter" d="M 399.647585 0.0021357 L 799.298673 232.522996 L 799.298673 697.569924 L 399.647585 930.090784 L 0.00170633 697.569924 L 0.00170633 232.522996 Z M 399.647585 0.0021357 " stroke="#ffffff" stroke-width="100" stroke-opacity="1" stroke-miterlimit="4"/></g></g><g clip-path="url(#e6d45d1cdb)"><path fill="#ffffff" d="M 404.691406 223.964844 C 310.453125 223.964844 233.253906 297.289062 225.925781 390.460938 L 322.070312 430.585938 C 330.214844 424.960938 340.0625 421.675781 350.644531 421.675781 C 351.601562 421.675781 352.542969 421.703125 353.472656 421.757812 L 396.242188 359.207031 L 396.242188 358.328125 C 396.242188 320.691406 426.585938 290.0625 463.882812 290.0625 C 501.179688 290.0625 531.527344 320.691406 531.527344 358.328125 C 531.527344 395.960938 501.179688 426.613281 463.882812 426.613281 C 463.367188 426.613281 462.863281 426.597656 462.34375 426.585938 L 401.359375 470.484375 C 401.402344 471.296875 401.417969 472.109375 401.417969 472.90625 C 401.417969 501.167969 378.640625 524.167969 350.644531 524.167969 C 326.070312 524.167969 305.511719 506.453125 300.863281 483.007812 L 232.09375 454.3125 C 253.390625 530.308594 322.574219 586.015625 404.691406 586.015625 C 503.769531 586.015625 584.074219 504.957031 584.074219 404.984375 C 584.074219 305.007812 503.769531 223.964844 404.691406 223.964844 Z M 338.339844 498.632812 L 316.304688 489.441406 C 320.203125 497.65625 326.964844 504.523438 335.9375 508.289062 C 355.324219 516.445312 377.675781 507.167969 385.761719 487.597656 C 389.664062 478.109375 389.691406 467.660156 385.816406 458.160156 C 381.957031 448.660156 374.640625 441.246094 365.25 437.300781 C 355.917969 433.398438 345.925781 433.539062 337.148438 436.882812 L 359.917969 446.378906 C 374.21875 452.398438 380.976562 468.960938 375.015625 483.398438 C 369.070312 497.824219 352.636719 504.648438 338.339844 498.632812 Z M 508.960938 358.328125 C 508.960938 333.25 488.730469 312.828125 463.886719 312.828125 C 439.023438 312.828125 418.808594 333.25 418.808594 358.328125 C 418.808594 383.40625 439.023438 403.804688 463.886719 403.804688 C 488.730469 403.804688 508.960938 383.40625 508.960938 358.328125 Z M 430.097656 358.25 C 430.097656 339.378906 445.265625 324.085938 463.957031 324.085938 C 482.660156 324.085938 497.824219 339.378906 497.824219 358.25 C 497.824219 377.125 482.660156 392.417969 463.957031 392.417969 C 445.265625 392.417969 430.097656 377.125 430.097656 358.25 Z M 430.097656 358.25 " fill-opacity="1" fill-rule="nonzero"/></g></svg>