<svg xmlns="http://www.w3.org/2000/svg" xmlns:xlink="http://www.w3.org/1999/xlink" width="1080" zoomAndPan="magnify" viewBox="0 0 810 809.999993" height="1080" preserveAspectRatio="xMidYMid meet" version="1.0"><defs><clipPath id="afe7c00a07"><path d="M 105.261719 56.214844 L 704.511719 56.214844 L 704.511719 753.710938 L 105.261719 753.710938 Z M 105.261719 56.214844 " clip-rule="nonzero"/></clipPath><clipPath id="e08730e433"><path d="M 404.996094 56.214844 L 704.734375 230.605469 L 704.734375 579.390625 L 404.996094 753.78125 L 105.261719 579.390625 L 105.261719 230.605469 Z M 404.996094 56.214844 " clip-rule="nonzero"/></clipPath><clipPath id="987623aa85"><path d="M 246.238281 243 L 563.488281 243 L 563.488281 567 L 246.238281 567 Z M 246.238281 243 " clip-rule="nonzero"/></clipPath></defs><g clip-path="url(#afe7c00a07)"><g clip-path="url(#e08730e433)"><path stroke-linecap="butt" transform="matrix(0.75, 0, 0, 0.75, 105.260439, 56.213242)" fill="none" stroke-linejoin="miter" d="M 399.647585 0.0021357 L 799.298673 232.522996 L 799.298673 697.569924 L 399.647585 930.090784 L 0.00170633 697.569924 L 0.00170633 232.522996 Z M 399.647585 0.0021357 " stroke="#ffffff" stroke-width="100" stroke-opacity="1" stroke-miterlimit="4"/></g></g><g clip-path="url(#987623aa85)"><path fill="#ffffff" d="M 435.1875 380.21875 L 553.234375 243 L 525.257812 243 L 422.765625 362.136719 L 340.894531 243 L 246.476562 243 L 370.277344 423.175781 L 246.476562 567.0625 L 274.453125 567.0625 L 382.699219 441.242188 L 469.152344 567.0625 L 563.570312 567.0625 Z M 396.875 424.757812 L 384.328125 406.816406 L 284.535156 264.050781 L 327.507812 264.050781 L 408.050781 379.253906 L 420.597656 397.191406 L 525.289062 546.945312 L 482.316406 546.945312 L 396.875 424.742188 Z M 396.875 424.757812 " fill-opacity="1" fill-rule="nonzero"/></g></svg>