<svg xmlns="http://www.w3.org/2000/svg" xmlns:xlink="http://www.w3.org/1999/xlink" width="1080" zoomAndPan="magnify" viewBox="0 0 810 809.999993" height="1080" preserveAspectRatio="xMidYMid meet" version="1.0"><defs><filter x="0%" y="0%" width="100%" height="100%" id="25ae0acd7d"><feColorMatrix values="0 0 0 0 1 0 0 0 0 1 0 0 0 0 1 0 0 0 1 0" color-interpolation-filters="sRGB"/></filter><clipPath id="a63b198b8a"><path d="M 105.261719 56.214844 L 704.511719 56.214844 L 704.511719 753.710938 L 105.261719 753.710938 Z M 105.261719 56.214844 " clip-rule="nonzero"/></clipPath><clipPath id="7a1531af34"><path d="M 404.996094 56.214844 L 704.734375 230.605469 L 704.734375 579.390625 L 404.996094 753.78125 L 105.261719 579.390625 L 105.261719 230.605469 Z M 404.996094 56.214844 " clip-rule="nonzero"/></clipPath><mask id="637c038266"><g filter="url(#25ae0acd7d)"><rect x="-81" width="972" fill="#000000" y="-80.999999" height="971.999992" fill-opacity="0.2"/></g></mask><clipPath id="ef9b4de7ff"><rect x="0" width="369" y="0" height="395"/></clipPath></defs><g clip-path="url(#a63b198b8a)"><g clip-path="url(#7a1531af34)"><path stroke-linecap="butt" transform="matrix(0.75, 0, 0, 0.75, 105.260439, 56.212176)" fill="none" stroke-linejoin="miter" d="M 399.647585 0.0035565 L 799.298673 232.524416 L 799.298673 697.571345 L 399.647585 930.092204 L 0.00170633 697.571345 L 0.00170633 232.524416 Z M 399.647585 0.0035565 " stroke="#ffffff" stroke-width="100" stroke-opacity="1" stroke-miterlimit="4"/></g></g><path fill="#ffffff" d="M 566.234375 338.046875 C 564.613281 337.054688 562.945312 336.144531 561.230469 335.316406 C 559.515625 334.488281 557.765625 333.746094 555.980469 333.089844 C 554.195312 332.433594 552.378906 331.867188 550.539062 331.390625 C 548.695312 330.914062 546.835938 330.527344 544.953125 330.230469 C 543.074219 329.9375 541.183594 329.734375 539.285156 329.628906 C 537.382812 329.519531 535.484375 329.503906 533.582031 329.582031 C 531.679688 329.660156 529.789062 329.832031 527.902344 330.097656 C 526.019531 330.359375 524.152344 330.71875 522.300781 331.164062 C 520.453125 331.613281 518.628906 332.152344 516.832031 332.78125 C 515.035156 333.40625 513.273438 334.121094 511.546875 334.921875 C 509.820312 335.722656 508.140625 336.605469 506.5 337.574219 C 504.859375 338.539062 503.273438 339.582031 501.734375 340.707031 C 500.199219 341.828125 498.71875 343.023438 497.300781 344.289062 C 495.882812 345.558594 494.527344 346.894531 493.242188 348.292969 C 491.953125 349.695312 490.734375 351.15625 489.59375 352.675781 C 488.449219 354.195312 487.378906 355.769531 486.390625 357.394531 C 481.484375 365.691406 477.183594 374.292969 473.492188 383.195312 C 471.746094 381.324219 470.183594 379.316406 468.804688 377.167969 C 467.421875 375.015625 466.242188 372.761719 465.269531 370.398438 C 464.292969 368.035156 463.539062 365.605469 463 363.105469 C 462.464844 360.605469 462.15625 358.078125 462.078125 355.523438 C 462.027344 355.105469 461.902344 354.707031 461.703125 354.332031 C 461.503906 353.957031 461.242188 353.632812 460.917969 353.355469 C 460.597656 353.082031 460.234375 352.875 459.832031 352.738281 C 459.429688 352.597656 459.019531 352.539062 458.59375 352.558594 C 458.167969 352.597656 457.765625 352.71875 457.386719 352.917969 C 457.011719 353.113281 456.683594 353.375 456.40625 353.699219 C 456.128906 354.023438 455.921875 354.390625 455.789062 354.792969 C 455.652344 355.199219 455.601562 355.617188 455.625 356.042969 C 455.75 359.207031 456.175781 362.328125 456.90625 365.410156 C 457.632812 368.492188 458.648438 371.472656 459.953125 374.359375 C 461.257812 377.246094 462.824219 379.976562 464.660156 382.558594 C 466.492188 385.140625 468.554688 387.523438 470.847656 389.707031 C 467.820312 397.28125 465.21875 405 463.042969 412.863281 C 456.894531 408.523438 451.5625 403.339844 447.050781 397.316406 C 446.792969 396.976562 446.480469 396.695312 446.113281 396.476562 C 445.746094 396.257812 445.347656 396.117188 444.925781 396.054688 C 444.5 395.996094 444.082031 396.019531 443.667969 396.125 C 443.253906 396.230469 442.875 396.410156 442.53125 396.667969 C 442.1875 396.925781 441.910156 397.238281 441.691406 397.605469 C 441.472656 397.976562 441.332031 398.371094 441.273438 398.796875 C 441.214844 399.21875 441.234375 399.636719 441.34375 400.054688 C 441.449219 400.46875 441.632812 400.847656 441.890625 401.1875 C 447.261719 408.484375 453.710938 414.65625 461.238281 419.699219 C 456.953125 439.96875 454.441406 460.457031 453.691406 481.160156 C 453.585938 483.28125 453.597656 485.402344 453.726562 487.519531 C 453.855469 489.640625 454.101562 491.746094 454.457031 493.839844 C 454.816406 495.929688 455.289062 497.996094 455.875 500.039062 C 456.460938 502.078125 457.160156 504.082031 457.964844 506.042969 C 458.769531 508.007812 459.679688 509.921875 460.695312 511.789062 C 461.710938 513.652344 462.828125 515.453125 464.039062 517.195312 C 465.253906 518.9375 466.558594 520.609375 467.957031 522.207031 C 469.351562 523.804688 470.832031 525.324219 472.394531 526.761719 C 470.675781 529.941406 469.210938 533.234375 467.996094 536.636719 C 466.78125 540.042969 465.832031 543.519531 465.148438 547.070312 C 464.464844 550.617188 464.054688 554.199219 463.917969 557.8125 C 463.78125 561.425781 463.917969 565.027344 464.332031 568.617188 C 464.367188 569.015625 464.46875 569.398438 464.640625 569.757812 C 464.816406 570.121094 465.050781 570.4375 465.339844 570.710938 C 465.632812 570.984375 465.964844 571.199219 466.335938 571.347656 C 466.707031 571.5 467.09375 571.578125 467.492188 571.585938 C 467.917969 571.542969 468.316406 571.421875 468.691406 571.226562 C 469.066406 571.027344 469.390625 570.765625 469.660156 570.4375 C 469.933594 570.113281 470.132812 569.746094 470.257812 569.34375 C 470.386719 568.9375 470.433594 568.523438 470.394531 568.101562 C 470.035156 564.921875 469.90625 561.734375 470.015625 558.535156 C 470.125 555.335938 470.46875 552.164062 471.046875 549.019531 C 471.628906 545.871094 472.433594 542.785156 473.472656 539.757812 C 474.507812 536.730469 475.761719 533.792969 477.234375 530.953125 C 481.777344 534.296875 486.703125 536.914062 492.019531 538.804688 C 497.335938 540.695312 502.8125 541.773438 508.449219 542.046875 L 511.414062 542.046875 C 517.855469 542.035156 524.109375 540.960938 530.183594 538.820312 C 531.398438 545.265625 533.492188 551.414062 536.464844 557.257812 C 539.4375 563.105469 543.167969 568.417969 547.660156 573.195312 C 548.296875 573.910156 549.09375 574.273438 550.046875 574.292969 C 550.371094 574.367188 550.699219 574.390625 551.027344 574.363281 C 551.359375 574.339844 551.675781 574.261719 551.984375 574.136719 C 552.289062 574.011719 552.570312 573.84375 552.828125 573.632812 C 553.082031 573.421875 553.300781 573.175781 553.480469 572.898438 C 553.660156 572.621094 553.792969 572.320312 553.878906 572.003906 C 553.96875 571.683594 554.003906 571.355469 553.992188 571.027344 C 553.980469 570.695312 553.917969 570.375 553.804688 570.0625 C 553.695312 569.75 553.539062 569.460938 553.335938 569.199219 C 549.097656 564.738281 545.589844 559.761719 542.8125 554.273438 C 540.035156 548.78125 538.101562 543.007812 537.019531 536.949219 C 539.378906 535.835938 541.652344 534.566406 543.839844 533.144531 C 546.027344 531.722656 548.109375 530.160156 550.085938 528.457031 C 552.0625 526.753906 553.917969 524.925781 555.648438 522.972656 C 557.378906 521.019531 558.96875 518.960938 560.421875 516.792969 C 561.875 514.625 563.175781 512.367188 564.324219 510.027344 C 565.472656 507.683594 566.457031 505.273438 567.28125 502.796875 C 568.105469 500.320312 568.757812 497.800781 569.242188 495.238281 C 569.726562 492.671875 570.035156 490.089844 570.171875 487.484375 C 571.332031 464.394531 573.589844 438.144531 585.714844 418.34375 C 586.722656 416.714844 587.648438 415.039062 588.488281 413.316406 C 589.332031 411.59375 590.085938 409.835938 590.753906 408.039062 C 591.425781 406.242188 592 404.414062 592.488281 402.5625 C 592.976562 400.707031 593.371094 398.832031 593.671875 396.941406 C 593.972656 395.046875 594.179688 393.144531 594.292969 391.230469 C 594.40625 389.316406 594.425781 387.402344 594.347656 385.488281 C 594.273438 383.570312 594.101562 381.664062 593.835938 379.765625 C 593.570312 377.867188 593.210938 375.988281 592.757812 374.125 C 592.308594 372.261719 591.765625 370.425781 591.128906 368.617188 C 590.496094 366.808594 589.773438 365.035156 588.964844 363.296875 C 588.15625 361.558594 587.261719 359.863281 586.285156 358.214844 C 585.308594 356.566406 584.253906 354.96875 583.117188 353.425781 C 581.980469 351.878906 580.773438 350.394531 579.488281 348.972656 C 578.207031 347.546875 576.855469 346.1875 575.441406 344.898438 C 574.023438 343.605469 572.546875 342.390625 571.007812 341.246094 C 569.46875 340.101562 567.878906 339.035156 566.234375 338.046875 Z M 574.621094 411.121094 C 560.882812 433.5 558.367188 461.683594 557.140625 486.386719 C 557.046875 488.238281 556.839844 490.074219 556.515625 491.898438 C 556.195312 493.726562 555.761719 495.523438 555.21875 497.296875 C 554.675781 499.066406 554.023438 500.796875 553.269531 502.492188 C 552.511719 504.183594 551.65625 505.820312 550.695312 507.40625 C 549.738281 508.992188 548.6875 510.515625 547.539062 511.972656 C 546.394531 513.429688 545.164062 514.808594 543.847656 516.113281 C 542.53125 517.417969 541.140625 518.636719 539.675781 519.773438 C 538.207031 520.90625 536.679688 521.945312 535.085938 522.890625 C 534.761719 519.34375 534.570312 515.539062 534.441406 511.347656 C 534.441406 510.917969 534.359375 510.507812 534.195312 510.113281 C 534.03125 509.714844 533.796875 509.367188 533.496094 509.066406 C 533.191406 508.761719 532.84375 508.53125 532.449219 508.367188 C 532.054688 508.203125 531.644531 508.121094 531.214844 508.121094 C 530.789062 508.121094 530.375 508.203125 529.980469 508.367188 C 529.585938 508.53125 529.238281 508.761719 528.933594 509.066406 C 528.632812 509.367188 528.398438 509.714844 528.234375 510.113281 C 528.074219 510.507812 527.992188 510.917969 527.992188 511.347656 C 527.992188 516.632812 528.441406 521.40625 528.894531 525.792969 C 523.519531 527.984375 517.929688 529.082031 512.125 529.082031 L 509.804688 529.082031 C 508.324219 529.007812 506.855469 528.863281 505.390625 528.644531 C 503.925781 528.425781 502.476562 528.132812 501.042969 527.773438 C 499.609375 527.410156 498.195312 526.980469 496.800781 526.480469 C 495.410156 525.980469 494.046875 525.414062 492.707031 524.777344 C 491.371094 524.144531 490.070312 523.445312 488.800781 522.683594 C 487.53125 521.921875 486.304688 521.097656 485.117188 520.214844 C 483.929688 519.332031 482.789062 518.390625 481.695312 517.398438 C 480.601562 516.402344 479.558594 515.355469 478.566406 514.257812 C 477.574219 513.160156 476.636719 512.015625 475.757812 510.824219 C 474.878906 509.632812 474.058594 508.40625 473.300781 507.132812 C 472.542969 505.863281 471.847656 504.558594 471.21875 503.21875 C 470.585938 501.882812 470.023438 500.515625 469.527344 499.121094 C 469.03125 497.726562 468.605469 496.3125 468.25 494.875 C 467.894531 493.4375 467.609375 491.988281 467.394531 490.523438 C 467.179688 489.0625 467.039062 487.589844 466.96875 486.113281 C 466.898438 484.632812 466.902344 483.15625 466.976562 481.679688 C 467.632812 462.886719 469.78125 444.269531 473.425781 425.824219 C 477.976562 427.761719 482.667969 429.226562 487.511719 430.214844 C 492.355469 431.203125 497.25 431.695312 502.191406 431.695312 C 506.828125 431.695312 511.429688 431.289062 515.996094 430.46875 C 516.421875 430.398438 516.820312 430.246094 517.1875 430.015625 C 517.554688 429.785156 517.867188 429.492188 518.117188 429.136719 C 518.367188 428.785156 518.542969 428.394531 518.640625 427.972656 C 518.734375 427.546875 518.746094 427.125 518.675781 426.695312 C 518.601562 426.265625 518.449219 425.871094 518.21875 425.5 C 517.988281 425.132812 517.695312 424.824219 517.339844 424.574219 C 516.988281 424.324219 516.597656 424.148438 516.175781 424.054688 C 515.75 423.957031 515.324219 423.945312 514.898438 424.019531 C 511.535156 424.632812 508.144531 424.988281 504.730469 425.09375 C 501.3125 425.199219 497.90625 425.050781 494.511719 424.644531 C 491.121094 424.242188 487.773438 423.585938 484.476562 422.679688 C 481.183594 421.777344 477.972656 420.632812 474.847656 419.246094 C 477.136719 409.4375 480.1875 399.875 483.992188 390.550781 C 487.800781 381.226562 492.320312 372.257812 497.546875 363.652344 C 498.324219 362.390625 499.164062 361.167969 500.0625 359.988281 C 500.957031 358.808594 501.910156 357.675781 502.917969 356.589844 C 503.929688 355.503906 504.988281 354.46875 506.097656 353.488281 C 507.207031 352.503906 508.363281 351.578125 509.566406 350.710938 C 510.765625 349.84375 512.007812 349.035156 513.289062 348.289062 C 514.566406 347.542969 515.882812 346.859375 517.230469 346.242188 C 518.578125 345.625 519.953125 345.074219 521.351562 344.59375 C 522.753906 344.109375 524.175781 343.695312 525.617188 343.355469 C 527.058594 343.011719 528.515625 342.742188 529.984375 342.539062 C 531.453125 342.339844 532.929688 342.214844 534.410156 342.160156 C 535.890625 342.105469 537.371094 342.121094 538.851562 342.210938 C 540.332031 342.300781 541.800781 342.464844 543.265625 342.699219 C 544.730469 342.9375 546.175781 343.242188 547.609375 343.621094 C 549.042969 343.996094 550.457031 344.445312 551.84375 344.960938 C 553.234375 345.476562 554.59375 346.058594 555.925781 346.710938 C 557.257812 347.359375 558.558594 348.074219 559.820312 348.851562 C 561.082031 349.628906 562.300781 350.464844 563.480469 351.363281 C 564.660156 352.257812 565.792969 353.210938 566.882812 354.222656 C 567.96875 355.230469 569 356.289062 569.984375 357.398438 C 570.964844 358.507812 571.890625 359.664062 572.757812 360.867188 C 573.628906 362.066406 574.433594 363.308594 575.183594 364.589844 C 575.929688 365.867188 576.609375 367.183594 577.226562 368.53125 C 577.847656 369.878906 578.394531 371.253906 578.878906 372.652344 C 579.359375 374.054688 579.773438 375.476562 580.117188 376.917969 C 580.460938 378.363281 580.730469 379.816406 580.929688 381.285156 C 581.128906 382.753906 581.257812 384.230469 581.3125 385.710938 C 581.367188 387.191406 581.347656 388.671875 581.257812 390.152344 C 581.167969 391.632812 581.003906 393.101562 580.769531 394.566406 C 580.535156 396.03125 580.226562 397.476562 579.851562 398.910156 C 579.472656 400.34375 579.027344 401.757812 578.511719 403.144531 C 577.996094 404.535156 577.410156 405.898438 576.761719 407.230469 C 576.113281 408.5625 575.398438 409.859375 574.621094 411.121094 Z M 518.960938 293.417969 C 519.703125 288.753906 519.894531 284.066406 519.542969 279.355469 C 521.09375 279.023438 522.664062 278.851562 524.25 278.839844 C 526.394531 279.027344 528.492188 279.449219 530.539062 280.105469 C 532.589844 280.757812 534.542969 281.628906 536.402344 282.714844 C 538.257812 283.804688 539.972656 285.082031 541.546875 286.550781 C 543.121094 288.015625 544.511719 289.640625 545.726562 291.417969 C 545.996094 291.75 546.320312 292.019531 546.695312 292.226562 C 547.070312 292.433594 547.472656 292.558594 547.902344 292.605469 C 548.328125 292.648438 548.746094 292.613281 549.160156 292.492188 C 549.570312 292.371094 549.941406 292.175781 550.277344 291.90625 C 550.609375 291.636719 550.878906 291.3125 551.085938 290.933594 C 551.289062 290.558594 551.414062 290.15625 551.460938 289.730469 C 551.507812 289.300781 551.46875 288.882812 551.34375 288.472656 C 551.222656 288.058594 551.027344 287.6875 550.757812 287.355469 C 549.242188 285.222656 547.511719 283.28125 545.566406 281.53125 C 543.621094 279.78125 541.507812 278.265625 539.230469 276.984375 C 536.949219 275.699219 534.554688 274.683594 532.050781 273.929688 C 529.546875 273.175781 526.988281 272.707031 524.378906 272.519531 C 522.472656 272.53125 520.582031 272.703125 518.703125 273.035156 C 517.921875 268.925781 516.710938 264.941406 515.070312 261.09375 C 513.425781 257.242188 511.390625 253.613281 508.964844 250.203125 C 506.5625 246.921875 503.851562 243.910156 500.839844 241.175781 C 502.964844 239.496094 505.226562 238.035156 507.632812 236.785156 C 510.035156 235.539062 512.535156 234.527344 515.128906 233.753906 C 517.722656 232.980469 520.367188 232.460938 523.0625 232.1875 C 525.757812 231.917969 528.453125 231.90625 531.152344 232.144531 C 531.578125 232.164062 531.992188 232.097656 532.394531 231.949219 C 532.796875 231.804688 533.15625 231.582031 533.46875 231.292969 C 533.785156 231.003906 534.03125 230.664062 534.210938 230.273438 C 534.390625 229.886719 534.488281 229.476562 534.503906 229.050781 C 534.523438 228.621094 534.457031 228.207031 534.308594 227.804688 C 534.160156 227.402344 533.941406 227.046875 533.652344 226.730469 C 533.363281 226.417969 533.023438 226.167969 532.632812 225.992188 C 532.246094 225.8125 531.835938 225.714844 531.410156 225.695312 C 528.210938 225.433594 525.015625 225.480469 521.824219 225.839844 C 518.636719 226.203125 515.511719 226.871094 512.453125 227.84375 C 509.394531 228.816406 506.457031 230.078125 503.648438 231.628906 C 500.835938 233.175781 498.199219 234.984375 495.742188 237.046875 C 493.285156 235.253906 490.703125 233.664062 487.996094 232.277344 C 485.289062 230.890625 482.488281 229.722656 479.597656 228.773438 C 476.707031 227.828125 473.761719 227.113281 470.757812 226.628906 C 467.753906 226.144531 464.730469 225.898438 461.691406 225.890625 C 458.691406 225.890625 455.710938 226.121094 452.746094 226.585938 C 449.78125 227.046875 446.871094 227.738281 444.015625 228.648438 C 441.160156 229.5625 438.390625 230.691406 435.710938 232.035156 C 433.027344 233.378906 430.464844 234.921875 428.023438 236.660156 C 426.183594 237.609375 424.25 238.277344 422.21875 238.660156 C 421.605469 233.367188 420.550781 228.164062 419.058594 223.050781 C 418.929688 222.648438 418.734375 222.28125 418.460938 221.957031 C 418.191406 221.628906 417.871094 221.367188 417.496094 221.167969 C 417.121094 220.96875 416.722656 220.847656 416.300781 220.804688 C 415.878906 220.761719 415.464844 220.800781 415.058594 220.921875 C 414.652344 221.035156 414.28125 221.222656 413.949219 221.484375 C 413.613281 221.746094 413.34375 222.0625 413.140625 222.433594 C 412.933594 222.800781 412.804688 223.195312 412.757812 223.617188 C 412.710938 224.039062 412.746094 224.453125 412.867188 224.859375 C 414.292969 229.800781 415.28125 234.832031 415.832031 239.949219 C 411.042969 240.621094 406.226562 240.945312 401.386719 240.917969 C 397.269531 240.929688 393.164062 240.714844 389.066406 240.273438 C 388.820312 236.980469 388.25 233.742188 387.351562 230.566406 C 386.453125 227.386719 385.25 224.328125 383.734375 221.394531 C 382.222656 218.457031 380.433594 215.699219 378.367188 213.125 C 376.300781 210.546875 374 208.203125 371.460938 206.089844 C 371.164062 205.785156 370.820312 205.550781 370.425781 205.386719 C 370.035156 205.222656 369.628906 205.140625 369.203125 205.140625 C 368.777344 205.140625 368.371094 205.222656 367.980469 205.386719 C 367.585938 205.550781 367.242188 205.785156 366.945312 206.089844 C 366.640625 206.394531 366.40625 206.742188 366.238281 207.140625 C 366.074219 207.535156 365.992188 207.949219 365.992188 208.378906 C 365.992188 208.808594 366.074219 209.222656 366.238281 209.621094 C 366.40625 210.015625 366.640625 210.367188 366.945312 210.667969 C 369.105469 212.417969 371.074219 214.355469 372.851562 216.492188 C 374.628906 218.625 376.183594 220.914062 377.507812 223.351562 C 378.835938 225.792969 379.914062 228.339844 380.742188 230.992188 C 381.570312 233.640625 382.128906 236.347656 382.425781 239.113281 C 378.613281 238.441406 374.851562 237.558594 371.136719 236.46875 C 369.324219 235.929688 367.488281 235.480469 365.628906 235.117188 C 363.769531 234.757812 361.898438 234.492188 360.011719 234.316406 C 358.128906 234.140625 356.238281 234.054688 354.347656 234.0625 C 352.453125 234.070312 350.566406 234.171875 348.679688 234.367188 C 346.796875 234.558594 344.929688 234.84375 343.074219 235.21875 C 341.21875 235.597656 339.386719 236.0625 337.574219 236.617188 C 335.765625 237.171875 333.988281 237.816406 332.242188 238.542969 C 330.492188 239.273438 328.785156 240.085938 327.121094 240.984375 C 325.453125 241.878906 323.832031 242.855469 322.261719 243.910156 C 320.6875 244.964844 319.171875 246.09375 317.710938 247.296875 C 316.25 248.5 314.847656 249.773438 313.511719 251.113281 C 312.175781 252.453125 310.90625 253.855469 309.707031 255.320312 C 308.507812 256.785156 307.382812 258.304688 306.332031 259.878906 C 305.28125 261.453125 304.308594 263.074219 303.414062 264.742188 C 302.523438 266.414062 301.714844 268.121094 300.988281 269.871094 C 300.261719 271.621094 299.625 273.398438 299.074219 275.210938 C 298.523438 277.023438 298.0625 278.855469 297.691406 280.710938 C 297.316406 282.566406 297.039062 284.4375 296.847656 286.320312 C 296.660156 288.207031 296.5625 290.09375 296.558594 291.988281 C 296.554688 293.878906 296.644531 295.769531 296.824219 297.652344 C 297.007812 299.539062 297.277344 301.410156 297.640625 303.265625 C 298.007812 305.125 298.460938 306.960938 299.003906 308.773438 C 299.546875 310.585938 300.175781 312.367188 300.894531 314.121094 C 301.613281 315.871094 302.414062 317.585938 303.300781 319.257812 C 304.1875 320.929688 305.152344 322.558594 306.195312 324.136719 C 307.238281 325.714844 308.359375 327.238281 309.554688 328.707031 C 310.746094 330.179688 312.007812 331.585938 313.339844 332.929688 C 314.671875 334.277344 316.066406 335.554688 317.523438 336.765625 C 318.976562 337.972656 320.492188 339.109375 322.058594 340.171875 C 323.625 341.230469 325.242188 342.214844 326.90625 343.117188 C 328.566406 344.019531 330.273438 344.839844 332.015625 345.578125 C 333.757812 346.316406 335.535156 346.964844 337.34375 347.527344 C 358.390625 353.746094 379.890625 356.839844 401.835938 356.816406 C 428.023438 356.816406 465.496094 352.300781 495.355469 331.015625 C 498.460938 328.8125 501.320312 326.324219 503.933594 323.554688 C 506.550781 320.785156 508.871094 317.789062 510.894531 314.5625 C 512.921875 311.335938 514.613281 307.945312 515.96875 304.386719 C 517.328125 300.828125 518.324219 297.171875 518.960938 293.417969 Z M 487.875 320.570312 C 464.398438 337.015625 432.730469 343.917969 401.902344 343.917969 C 381.210938 343.945312 360.9375 341.042969 341.082031 335.210938 C 339.800781 334.820312 338.542969 334.378906 337.300781 333.878906 C 336.058594 333.378906 334.839844 332.824219 333.648438 332.21875 C 332.457031 331.609375 331.292969 330.949219 330.160156 330.238281 C 329.027344 329.527344 327.925781 328.765625 326.859375 327.957031 C 325.792969 327.148438 324.765625 326.292969 323.777344 325.390625 C 322.785156 324.492188 321.839844 323.550781 320.933594 322.5625 C 320.027344 321.578125 319.167969 320.554688 318.351562 319.496094 C 317.535156 318.433594 316.769531 317.335938 316.050781 316.207031 C 315.332031 315.078125 314.667969 313.917969 314.054688 312.730469 C 313.4375 311.542969 312.878906 310.328125 312.371094 309.089844 C 311.863281 307.851562 311.414062 306.59375 311.019531 305.3125 C 310.625 304.035156 310.289062 302.742188 310.007812 301.433594 C 309.726562 300.121094 309.507812 298.804688 309.34375 297.476562 C 309.183594 296.148438 309.078125 294.816406 309.035156 293.476562 C 308.992188 292.140625 309.007812 290.800781 309.082031 289.464844 C 309.15625 288.128906 309.289062 286.800781 309.484375 285.476562 C 309.675781 284.152344 309.929688 282.839844 310.238281 281.535156 C 310.550781 280.234375 310.917969 278.949219 311.339844 277.679688 C 311.765625 276.410156 312.246094 275.164062 312.78125 273.9375 C 313.316406 272.710938 313.90625 271.507812 314.546875 270.335938 C 315.1875 269.160156 315.882812 268.015625 316.625 266.90625 C 317.371094 265.792969 318.160156 264.714844 319 263.671875 C 319.839844 262.628906 320.726562 261.628906 321.652344 260.664062 C 322.582031 259.699219 323.554688 258.78125 324.5625 257.902344 C 325.574219 257.027344 326.621094 256.195312 327.707031 255.410156 C 328.789062 254.625 329.90625 253.890625 331.058594 253.207031 C 332.207031 252.523438 333.386719 251.890625 334.59375 251.308594 C 335.796875 250.730469 337.027344 250.207031 338.28125 249.734375 C 339.53125 249.265625 340.804688 248.851562 342.09375 248.492188 C 343.382812 248.132812 344.6875 247.835938 346.003906 247.59375 C 347.320312 247.351562 348.644531 247.167969 349.976562 247.042969 C 351.308594 246.921875 352.644531 246.855469 353.980469 246.851562 C 358.378906 246.882812 362.679688 247.546875 366.882812 248.851562 C 377.980469 252.089844 389.308594 253.683594 400.871094 253.621094 C 405.550781 253.621094 410.21875 253.34375 414.867188 252.785156 C 414.121094 255.675781 413.140625 258.484375 411.929688 261.214844 C 410.714844 263.941406 409.285156 266.550781 407.640625 269.042969 C 405.996094 271.535156 404.15625 273.871094 402.121094 276.058594 C 400.085938 278.242188 397.882812 280.246094 395.515625 282.066406 C 395.21875 282.371094 394.992188 282.722656 394.832031 283.121094 C 394.667969 283.515625 394.589844 283.925781 394.589844 284.355469 C 394.589844 284.78125 394.667969 285.195312 394.832031 285.589844 C 394.992188 285.984375 395.21875 286.335938 395.515625 286.644531 C 396.15625 287.347656 396.953125 287.691406 397.902344 287.675781 C 398.742188 287.683594 399.476562 287.402344 400.097656 286.835938 C 412.996094 274.90625 420.027344 264.328125 421.832031 251.753906 C 426.589844 251.054688 431.039062 249.484375 435.183594 247.042969 C 436.386719 246.1875 437.628906 245.390625 438.910156 244.65625 C 440.195312 243.921875 441.507812 243.25 442.859375 242.644531 C 444.207031 242.039062 445.582031 241.5 446.980469 241.027344 C 448.382812 240.558594 449.804688 240.15625 451.242188 239.824219 C 452.683594 239.496094 454.136719 239.234375 455.605469 239.046875 C 457.070312 238.855469 458.542969 238.742188 460.019531 238.695312 C 461.496094 238.652344 462.972656 238.679688 464.445312 238.78125 C 465.921875 238.882812 467.386719 239.054688 468.84375 239.300781 C 470.304688 239.546875 471.746094 239.863281 473.171875 240.25 C 474.597656 240.636719 476.003906 241.089844 477.382812 241.613281 C 478.765625 242.140625 480.121094 242.730469 481.445312 243.386719 C 482.765625 244.046875 484.054688 244.765625 485.308594 245.550781 C 486.5625 246.332031 487.773438 247.175781 488.945312 248.082031 C 490.113281 248.984375 491.238281 249.941406 492.3125 250.953125 C 493.390625 251.96875 494.414062 253.03125 495.386719 254.144531 C 496.355469 255.257812 497.269531 256.417969 498.128906 257.621094 C 500.257812 260.574219 501.992188 263.742188 503.332031 267.128906 C 504.675781 270.511719 505.585938 274.007812 506.0625 277.613281 C 500.714844 280.933594 495.984375 284.976562 491.875 289.738281 C 491.574219 290.046875 491.347656 290.398438 491.1875 290.792969 C 491.027344 291.191406 490.945312 291.601562 490.945312 292.03125 C 490.945312 292.457031 491.027344 292.867188 491.1875 293.265625 C 491.347656 293.660156 491.574219 294.011719 491.875 294.320312 C 492.511719 294.835938 493.242188 295.09375 494.066406 295.09375 C 495.019531 295.074219 495.816406 294.707031 496.453125 293.996094 C 499.5625 290.742188 503.003906 287.882812 506.773438 285.417969 C 506.710938 287.140625 506.550781 288.855469 506.292969 290.5625 C 506.035156 292.265625 505.683594 293.949219 505.230469 295.613281 C 504.78125 297.277344 504.238281 298.914062 503.597656 300.515625 C 502.960938 302.117188 502.234375 303.675781 501.417969 305.195312 C 500.601562 306.714844 499.699219 308.179688 498.714844 309.597656 C 497.730469 311.011719 496.667969 312.367188 495.53125 313.660156 C 494.390625 314.953125 493.179688 316.179688 491.898438 317.332031 C 490.621094 318.488281 489.277344 319.566406 487.875 320.570312 Z M 365.332031 410.347656 C 362.140625 414.117188 358.679688 417.621094 354.949219 420.859375 C 353.128906 412.078125 350.679688 403.480469 347.597656 395.0625 C 349.160156 393.058594 350.554688 390.945312 351.785156 388.726562 C 353.015625 386.503906 354.0625 384.199219 354.925781 381.8125 C 355.792969 379.421875 356.464844 376.980469 356.945312 374.488281 C 357.425781 371.996094 357.707031 369.480469 357.789062 366.941406 C 357.824219 366.511719 357.773438 366.09375 357.644531 365.6875 C 357.511719 365.277344 357.308594 364.910156 357.027344 364.582031 C 356.75 364.253906 356.417969 363.996094 356.039062 363.800781 C 355.65625 363.605469 355.25 363.492188 354.820312 363.457031 C 354.394531 363.441406 353.980469 363.503906 353.578125 363.644531 C 353.179688 363.789062 352.820312 364 352.5 364.285156 C 352.179688 364.566406 351.925781 364.898438 351.738281 365.28125 C 351.546875 365.660156 351.4375 366.066406 351.402344 366.488281 C 351.285156 370.289062 350.679688 374.007812 349.585938 377.648438 C 348.492188 381.292969 346.949219 384.730469 344.953125 387.964844 C 341.894531 380.621094 338.261719 373.566406 334.054688 366.8125 C 332.765625 364.699219 331.347656 362.675781 329.800781 360.746094 C 328.253906 358.8125 326.585938 356.988281 324.804688 355.273438 C 323.023438 353.554688 321.136719 351.960938 319.148438 350.484375 C 317.160156 349.011719 315.085938 347.671875 312.925781 346.464844 C 310.765625 345.257812 308.535156 344.195312 306.238281 343.273438 C 303.941406 342.355469 301.59375 341.585938 299.195312 340.96875 C 296.800781 340.347656 294.375 339.886719 291.917969 339.582031 C 289.460938 339.277344 286.996094 339.132812 284.519531 339.144531 C 281.964844 339.15625 279.417969 339.335938 276.886719 339.683594 C 274.351562 340.035156 271.851562 340.546875 269.386719 341.226562 C 266.921875 341.90625 264.511719 342.746094 262.15625 343.742188 C 259.804688 344.738281 257.523438 345.886719 255.320312 347.1875 C 253.117188 348.484375 251.011719 349.921875 249 351.5 C 246.984375 353.078125 245.085938 354.78125 243.296875 356.609375 C 241.511719 358.4375 239.851562 360.375 238.320312 362.421875 C 236.789062 364.472656 235.398438 366.609375 234.148438 368.84375 C 232.898438 371.074219 231.804688 373.378906 230.859375 375.753906 C 229.914062 378.128906 229.128906 380.558594 228.507812 383.039062 C 227.882812 385.519531 227.425781 388.027344 227.132812 390.570312 C 226.84375 393.109375 226.71875 395.65625 226.765625 398.214844 C 226.808594 400.773438 227.023438 403.3125 227.40625 405.84375 C 227.785156 408.371094 228.332031 410.863281 229.042969 413.320312 C 229.753906 415.777344 230.621094 418.175781 231.648438 420.515625 C 232.679688 422.859375 233.855469 425.121094 235.183594 427.308594 C 244.339844 442.53125 245.179688 471.035156 242.210938 485.355469 C 241.894531 486.871094 241.636719 488.394531 241.4375 489.933594 C 241.242188 491.46875 241.109375 493.011719 241.035156 494.558594 C 240.960938 496.105469 240.949219 497.652344 241 499.203125 C 241.050781 500.75 241.164062 502.292969 241.339844 503.832031 C 241.511719 505.371094 241.75 506.902344 242.046875 508.421875 C 242.34375 509.941406 242.699219 511.449219 243.117188 512.941406 C 243.535156 514.433594 244.011719 515.90625 244.546875 517.359375 C 245.082031 518.8125 245.671875 520.242188 246.324219 521.648438 C 246.972656 523.054688 247.679688 524.433594 248.4375 525.78125 C 249.199219 527.132812 250.011719 528.449219 250.875 529.734375 C 251.742188 531.019531 252.65625 532.265625 253.625 533.476562 C 254.589844 534.691406 255.601562 535.859375 256.660156 536.992188 C 257.71875 538.121094 258.820312 539.207031 259.96875 540.25 C 261.113281 541.292969 262.300781 542.285156 263.527344 543.234375 C 264.753906 544.179688 266.015625 545.078125 267.3125 545.921875 C 268.609375 546.769531 269.9375 547.5625 271.300781 548.300781 C 269.695312 553.058594 267.5625 557.570312 264.902344 561.828125 C 262.246094 566.089844 259.132812 569.984375 255.5625 573.519531 C 255.257812 573.820312 255.023438 574.171875 254.855469 574.570312 C 254.691406 574.964844 254.609375 575.378906 254.609375 575.808594 C 254.609375 576.238281 254.691406 576.652344 254.855469 577.050781 C 255.023438 577.445312 255.257812 577.796875 255.5625 578.097656 C 256.175781 578.683594 256.910156 578.984375 257.753906 579 C 258.695312 578.992188 259.492188 578.648438 260.140625 577.96875 C 263.953125 574.1875 267.277344 570.019531 270.121094 565.464844 C 272.964844 560.914062 275.25 556.09375 276.976562 551.011719 C 279.300781 551.976562 281.675781 552.789062 284.109375 553.441406 C 286.539062 554.09375 289.003906 554.585938 291.5 554.914062 C 293.996094 555.242188 296.503906 555.40625 299.019531 555.402344 C 301.539062 555.402344 304.042969 555.234375 306.539062 554.898438 C 309.035156 554.566406 311.5 554.074219 313.929688 553.414062 C 316.359375 552.757812 318.734375 551.941406 321.058594 550.972656 C 323.382812 550 325.628906 548.882812 327.804688 547.613281 C 329.980469 546.347656 332.0625 544.941406 334.054688 543.398438 C 336.042969 548.367188 337.390625 553.507812 338.101562 558.8125 C 338.808594 564.117188 338.859375 569.425781 338.246094 574.746094 C 338.21875 575.171875 338.273438 575.585938 338.40625 575.992188 C 338.542969 576.394531 338.746094 576.761719 339.023438 577.085938 C 339.300781 577.410156 339.628906 577.671875 340.007812 577.871094 C 340.386719 578.066406 340.789062 578.1875 341.210938 578.226562 C 341.617188 578.230469 342.011719 578.15625 342.390625 578.007812 C 342.769531 577.863281 343.105469 577.652344 343.40625 577.375 C 343.703125 577.101562 343.945312 576.78125 344.121094 576.414062 C 344.300781 576.050781 344.40625 575.664062 344.4375 575.261719 C 345.148438 569.09375 345.039062 562.941406 344.109375 556.804688 C 343.179688 550.667969 341.460938 544.757812 338.953125 539.078125 C 341.054688 537.074219 342.996094 534.921875 344.773438 532.625 C 346.554688 530.328125 348.152344 527.914062 349.566406 525.375 C 350.980469 522.839844 352.199219 520.210938 353.222656 517.492188 C 354.242188 514.773438 355.054688 511.996094 355.660156 509.152344 C 358.164062 495.785156 359.457031 482.300781 359.53125 468.703125 C 359.609375 455.101562 358.46875 441.605469 356.109375 428.210938 C 361.355469 424.121094 366.105469 419.519531 370.363281 414.410156 C 370.667969 414.113281 370.902344 413.769531 371.066406 413.375 C 371.230469 412.984375 371.3125 412.578125 371.3125 412.152344 C 371.3125 411.726562 371.230469 411.320312 371.066406 410.929688 C 370.902344 410.535156 370.667969 410.191406 370.363281 409.894531 C 370.199219 409.734375 370.015625 409.597656 369.820312 409.476562 C 369.621094 409.359375 369.414062 409.261719 369.199219 409.183594 C 368.980469 409.109375 368.757812 409.058594 368.53125 409.03125 C 368.300781 409.003906 368.070312 409 367.84375 409.023438 C 367.613281 409.042969 367.390625 409.089844 367.171875 409.15625 C 366.949219 409.226562 366.742188 409.320312 366.542969 409.433594 C 366.34375 409.546875 366.15625 409.679688 365.984375 409.835938 C 365.8125 409.988281 365.660156 410.160156 365.527344 410.347656 Z M 343.210938 506.316406 C 342.949219 507.570312 342.632812 508.8125 342.261719 510.039062 C 341.890625 511.265625 341.472656 512.476562 341 513.667969 C 340.527344 514.859375 340.003906 516.027344 339.433594 517.175781 C 338.859375 518.324219 338.242188 519.445312 337.574219 520.539062 C 336.90625 521.632812 336.191406 522.695312 335.433594 523.730469 C 334.675781 524.765625 333.875 525.761719 333.03125 526.730469 C 332.1875 527.695312 331.304688 528.621094 330.382812 529.511719 C 329.460938 530.402344 328.503906 531.253906 327.507812 532.0625 C 326.511719 532.871094 325.484375 533.632812 324.425781 534.355469 C 323.367188 535.078125 322.277344 535.75 321.160156 536.378906 C 320.042969 537.007812 318.898438 537.585938 317.734375 538.117188 C 316.566406 538.648438 315.378906 539.128906 314.171875 539.558594 C 312.964844 539.988281 311.738281 540.367188 310.5 540.691406 C 309.261719 541.019531 308.007812 541.292969 306.746094 541.511719 C 305.484375 541.730469 304.210938 541.894531 302.9375 542.003906 C 301.660156 542.117188 300.378906 542.171875 299.097656 542.175781 C 295.945312 542.167969 292.828125 541.847656 289.746094 541.207031 C 286.570312 540.507812 283.496094 539.496094 280.523438 538.175781 C 281.425781 533.660156 282.199219 528.695312 282.78125 523.082031 C 282.824219 522.660156 282.789062 522.246094 282.667969 521.835938 C 282.550781 521.429688 282.355469 521.058594 282.089844 520.726562 C 281.824219 520.394531 281.507812 520.125 281.132812 519.917969 C 280.761719 519.710938 280.363281 519.585938 279.941406 519.535156 C 279.511719 519.484375 279.089844 519.515625 278.671875 519.636719 C 278.257812 519.753906 277.878906 519.953125 277.546875 520.226562 C 277.210938 520.5 276.941406 520.828125 276.742188 521.214844 C 276.542969 521.597656 276.425781 522.007812 276.394531 522.4375 C 275.878906 527.019531 275.296875 531.144531 274.589844 534.886719 C 272.679688 533.65625 270.875 532.289062 269.171875 530.789062 C 267.46875 529.285156 265.886719 527.664062 264.429688 525.921875 C 262.972656 524.179688 261.652344 522.339844 260.472656 520.402344 C 259.289062 518.460938 258.261719 516.441406 257.386719 514.347656 C 256.511719 512.253906 255.796875 510.101562 255.246094 507.898438 C 254.695312 505.695312 254.3125 503.464844 254.097656 501.203125 C 253.882812 498.941406 253.835938 496.679688 253.964844 494.410156 C 254.089844 492.144531 254.386719 489.898438 254.851562 487.675781 C 258.207031 471.875 257.753906 439.691406 246.144531 420.792969 C 245.335938 419.535156 244.585938 418.238281 243.90625 416.902344 C 243.222656 415.566406 242.609375 414.203125 242.0625 412.804688 C 241.515625 411.410156 241.039062 409.988281 240.636719 408.546875 C 240.230469 407.101562 239.898438 405.644531 239.640625 404.167969 C 239.378906 402.691406 239.195312 401.203125 239.082031 399.710938 C 238.972656 398.214844 238.933594 396.71875 238.972656 395.21875 C 239.007812 393.71875 239.121094 392.226562 239.308594 390.738281 C 239.496094 389.253906 239.753906 387.777344 240.085938 386.316406 C 240.421875 384.855469 240.824219 383.414062 241.300781 381.992188 C 241.777344 380.570312 242.324219 379.175781 242.941406 377.808594 C 243.558594 376.441406 244.238281 375.109375 244.988281 373.8125 C 245.734375 372.511719 246.546875 371.253906 247.421875 370.035156 C 248.296875 368.816406 249.226562 367.644531 250.21875 366.519531 C 251.207031 365.394531 252.253906 364.320312 253.351562 363.300781 C 254.449219 362.28125 255.59375 361.316406 256.785156 360.410156 C 257.980469 359.5 259.214844 358.65625 260.492188 357.871094 C 261.769531 357.085938 263.085938 356.367188 264.433594 355.714844 C 265.785156 355.0625 267.160156 354.476562 268.570312 353.960938 C 269.976562 353.445312 271.40625 353.003906 272.859375 352.628906 C 274.308594 352.253906 275.777344 351.953125 277.257812 351.726562 C 278.742188 351.5 280.230469 351.347656 281.726562 351.269531 C 283.222656 351.1875 284.722656 351.183594 286.21875 351.253906 C 287.714844 351.324219 289.207031 351.46875 290.691406 351.6875 C 292.171875 351.90625 293.640625 352.199219 295.09375 352.5625 C 296.550781 352.929688 297.980469 353.363281 299.390625 353.871094 C 300.804688 354.378906 302.183594 354.957031 303.539062 355.601562 C 304.890625 356.246094 306.207031 356.957031 307.492188 357.734375 C 308.773438 358.511719 310.015625 359.351562 311.210938 360.25 C 312.410156 361.148438 313.5625 362.109375 314.664062 363.121094 C 315.769531 364.136719 316.820312 365.203125 317.816406 366.324219 C 318.8125 367.445312 319.753906 368.609375 320.632812 369.824219 C 321.515625 371.035156 322.332031 372.289062 323.089844 373.582031 C 328.140625 382.039062 332.375 390.882812 335.789062 400.121094 C 339.203125 409.355469 341.742188 418.828125 343.40625 428.535156 C 331.730469 434.273438 318.445312 434.984375 299.484375 432.210938 C 299.0625 432.152344 298.644531 432.179688 298.230469 432.285156 C 297.820312 432.390625 297.441406 432.570312 297.097656 432.824219 C 296.757812 433.074219 296.472656 433.382812 296.25 433.746094 C 296.027344 434.109375 295.878906 434.5 295.808594 434.917969 C 295.742188 435.34375 295.761719 435.761719 295.863281 436.179688 C 295.96875 436.59375 296.144531 436.972656 296.398438 437.320312 C 296.652344 437.664062 296.964844 437.945312 297.332031 438.167969 C 297.699219 438.390625 298.09375 438.53125 298.515625 438.59375 C 305.097656 439.644531 311.71875 440.207031 318.382812 440.273438 C 322.871094 440.367188 327.316406 439.976562 331.722656 439.109375 C 336.125 438.238281 340.386719 436.90625 344.5 435.113281 C 346.28125 446.933594 347.058594 458.816406 346.84375 470.769531 C 346.628906 482.71875 345.417969 494.566406 343.210938 506.316406 Z M 532.375 394.351562 C 532.441406 394.78125 532.417969 395.203125 532.3125 395.625 C 532.207031 396.042969 532.023438 396.425781 531.761719 396.773438 C 531.5 397.117188 531.183594 397.398438 530.808594 397.617188 C 530.433594 397.835938 530.03125 397.972656 529.601562 398.027344 L 529.152344 398.027344 C 528.765625 398.023438 528.394531 397.953125 528.03125 397.816406 C 527.671875 397.675781 527.347656 397.480469 527.058594 397.226562 C 526.765625 396.972656 526.53125 396.675781 526.347656 396.335938 C 526.164062 395.996094 526.046875 395.636719 525.992188 395.253906 C 525.9375 394.816406 525.785156 394.414062 525.535156 394.046875 C 525.285156 393.683594 524.964844 393.398438 524.574219 393.191406 C 523.765625 392.800781 522.917969 392.609375 522.023438 392.609375 C 521.132812 392.609375 520.28125 392.800781 519.476562 393.191406 C 519.082031 393.351562 518.675781 393.429688 518.25 393.429688 C 517.824219 393.425781 517.414062 393.34375 517.023438 393.183594 C 516.628906 393.019531 516.285156 392.789062 515.984375 392.488281 C 515.679688 392.1875 515.449219 391.839844 515.285156 391.449219 C 515.113281 391.058594 515.023438 390.652344 515.015625 390.230469 C 515.007812 389.804688 515.085938 389.394531 515.242188 389 C 515.398438 388.605469 515.628906 388.257812 515.925781 387.957031 C 516.222656 387.652344 516.570312 387.421875 516.960938 387.257812 C 518.671875 386.472656 520.464844 386.078125 522.347656 386.078125 C 524.226562 386.078125 526.023438 386.472656 527.734375 387.257812 C 528.375 387.621094 528.960938 388.054688 529.5 388.5625 C 530.035156 389.066406 530.507812 389.625 530.910156 390.242188 C 531.316406 390.859375 531.640625 391.515625 531.886719 392.210938 C 532.136719 392.90625 532.296875 393.617188 532.375 394.351562 Z M 492.90625 381.128906 C 492.746094 380.730469 492.671875 380.320312 492.675781 379.890625 C 492.683594 379.464844 492.769531 379.050781 492.9375 378.660156 C 493.109375 378.265625 493.347656 377.921875 493.652344 377.621094 C 493.960938 377.324219 494.3125 377.09375 494.710938 376.9375 C 494.976562 376.773438 495.246094 376.625 495.527344 376.496094 C 495.808594 376.363281 496.097656 376.25 496.390625 376.152344 C 496.6875 376.054688 496.984375 375.972656 497.289062 375.910156 C 497.59375 375.847656 497.898438 375.800781 498.207031 375.773438 C 498.515625 375.75 498.828125 375.738281 499.136719 375.75 C 499.449219 375.757812 499.753906 375.785156 500.0625 375.832031 C 500.371094 375.878906 500.671875 375.941406 500.972656 376.023438 C 501.273438 376.105469 501.566406 376.203125 501.851562 376.320312 C 502.140625 376.433594 502.421875 376.566406 502.695312 376.714844 C 502.964844 376.863281 503.230469 377.027344 503.480469 377.207031 C 503.734375 377.386719 503.976562 377.582031 504.207031 377.789062 C 504.4375 377.996094 504.65625 378.21875 504.859375 378.449219 C 505.0625 378.683594 505.253906 378.929688 505.429688 379.183594 C 505.605469 379.441406 505.765625 379.703125 505.910156 379.980469 C 506.054688 380.253906 506.183594 380.535156 506.296875 380.824219 C 506.40625 381.113281 506.5 381.410156 506.578125 381.710938 C 506.746094 382.101562 506.832031 382.511719 506.835938 382.941406 C 506.839844 383.367188 506.757812 383.78125 506.59375 384.175781 C 506.429688 384.570312 506.195312 384.917969 505.890625 385.21875 C 505.585938 385.515625 505.234375 385.746094 504.835938 385.902344 C 504.429688 386 504.019531 386 503.613281 385.902344 C 502.964844 385.890625 502.371094 385.703125 501.832031 385.339844 C 501.292969 384.980469 500.898438 384.5 500.644531 383.902344 C 499.675781 381.644531 499.675781 381.644531 497.160156 382.679688 C 496.777344 382.847656 496.371094 382.9375 495.949219 382.949219 C 495.53125 382.960938 495.121094 382.898438 494.726562 382.753906 C 494.328125 382.609375 493.972656 382.398438 493.660156 382.117188 C 493.34375 381.835938 493.09375 381.507812 492.90625 381.128906 Z M 509.738281 400.476562 C 509.875 400.546875 509.992188 400.640625 510.09375 400.753906 C 510.191406 400.871094 510.265625 401 510.3125 401.148438 C 510.363281 401.292969 510.382812 401.441406 510.371094 401.59375 C 510.359375 401.746094 510.320312 401.890625 510.253906 402.027344 C 509.992188 402.429688 509.695312 402.804688 509.363281 403.152344 C 509.03125 403.5 508.671875 403.8125 508.285156 404.097656 C 507.894531 404.378906 507.484375 404.625 507.050781 404.832031 C 506.617188 405.039062 506.167969 405.207031 505.707031 405.332031 C 505.242188 405.460938 504.773438 405.542969 504.292969 405.585938 C 503.816406 405.625 503.335938 405.621094 502.859375 405.578125 C 502.378906 405.53125 501.910156 405.441406 501.449219 405.3125 C 500.988281 405.179688 500.539062 405.007812 500.109375 404.796875 C 499.679688 404.582031 499.269531 404.332031 498.886719 404.046875 C 498.5 403.761719 498.144531 403.441406 497.816406 403.089844 C 497.488281 402.738281 497.195312 402.359375 496.9375 401.957031 C 496.675781 401.550781 496.457031 401.125 496.273438 400.683594 C 496.09375 400.238281 495.953125 399.78125 495.855469 399.308594 C 495.753906 398.839844 495.699219 398.363281 495.6875 397.886719 C 495.675781 397.40625 495.707031 396.925781 495.78125 396.453125 C 495.855469 395.976562 495.972656 395.515625 496.128906 395.0625 C 496.203125 394.929688 496.300781 394.820312 496.417969 394.726562 C 496.539062 394.632812 496.667969 394.566406 496.8125 394.523438 C 496.957031 394.480469 497.105469 394.46875 497.253906 394.480469 C 497.402344 394.496094 497.542969 394.539062 497.679688 394.609375 Z M 297.742188 398.15625 C 296.949219 397.769531 296.109375 397.578125 295.226562 397.578125 C 294.34375 397.578125 293.503906 397.769531 292.710938 398.15625 C 292.3125 398.355469 291.988281 398.636719 291.734375 399.003906 C 291.484375 399.371094 291.335938 399.777344 291.292969 400.21875 C 291.230469 400.605469 291.105469 400.96875 290.917969 401.308594 C 290.726562 401.648438 290.484375 401.945312 290.1875 402.199219 C 289.894531 402.453125 289.5625 402.648438 289.199219 402.785156 C 288.835938 402.921875 288.457031 402.992188 288.066406 402.992188 L 287.617188 402.992188 C 287.191406 402.929688 286.796875 402.789062 286.429688 402.566406 C 286.0625 402.34375 285.753906 402.0625 285.5 401.71875 C 285.246094 401.371094 285.066406 400.992188 284.964844 400.578125 C 284.863281 400.160156 284.84375 399.742188 284.90625 399.316406 C 284.996094 398.605469 285.167969 397.914062 285.421875 397.242188 C 285.675781 396.570312 286.003906 395.933594 286.410156 395.339844 C 286.8125 394.746094 287.28125 394.207031 287.8125 393.726562 C 288.34375 393.242188 288.921875 392.828125 289.550781 392.480469 C 290.394531 392.078125 291.265625 391.777344 292.175781 391.570312 C 293.085938 391.367188 294.003906 391.261719 294.9375 391.261719 C 295.867188 391.261719 296.789062 391.367188 297.699219 391.570312 C 298.605469 391.777344 299.480469 392.078125 300.324219 392.480469 C 300.707031 392.652344 301.046875 392.886719 301.34375 393.191406 C 301.636719 393.496094 301.859375 393.84375 302.015625 394.234375 C 302.171875 394.625 302.25 395.035156 302.246094 395.457031 C 302.246094 395.878906 302.160156 396.285156 302 396.671875 C 301.828125 397.066406 301.589844 397.414062 301.28125 397.714844 C 300.972656 398.011719 300.621094 398.238281 300.21875 398.398438 C 299.820312 398.554688 299.40625 398.628906 298.976562 398.621094 C 298.546875 398.613281 298.136719 398.523438 297.742188 398.351562 Z M 310.640625 386.675781 C 310.730469 386.382812 310.835938 386.09375 310.960938 385.8125 C 311.082031 385.53125 311.21875 385.257812 311.375 384.992188 C 311.527344 384.726562 311.695312 384.472656 311.878906 384.226562 C 312.0625 383.980469 312.257812 383.742188 312.46875 383.519531 C 312.679688 383.296875 312.898438 383.082031 313.132812 382.886719 C 313.367188 382.6875 313.613281 382.5 313.867188 382.332031 C 314.121094 382.160156 314.386719 382.003906 314.660156 381.863281 C 314.933594 381.722656 315.210938 381.597656 315.5 381.492188 C 315.785156 381.382812 316.078125 381.289062 316.375 381.214844 C 316.671875 381.140625 316.976562 381.082031 317.277344 381.039062 C 317.582031 381 317.886719 380.976562 318.195312 380.96875 C 318.503906 380.964844 318.808594 380.976562 319.113281 381.003906 C 319.417969 381.035156 319.722656 381.078125 320.023438 381.144531 C 320.324219 381.207031 320.617188 381.289062 320.910156 381.386719 C 321.199219 381.484375 321.484375 381.597656 321.765625 381.726562 C 322.042969 381.855469 322.3125 382 322.574219 382.160156 C 322.960938 382.332031 323.300781 382.570312 323.597656 382.871094 C 323.890625 383.171875 324.121094 383.519531 324.28125 383.910156 C 324.445312 384.300781 324.527344 384.707031 324.535156 385.128906 C 324.539062 385.550781 324.464844 385.960938 324.316406 386.355469 C 324.15625 386.753906 323.929688 387.105469 323.628906 387.410156 C 323.332031 387.71875 322.984375 387.957031 322.59375 388.125 C 322.199219 388.296875 321.789062 388.382812 321.359375 388.390625 C 320.933594 388.394531 320.519531 388.320312 320.121094 388.160156 C 317.605469 387.128906 317.542969 387.0625 316.574219 389.386719 C 316.335938 389.992188 315.945312 390.480469 315.402344 390.84375 C 314.859375 391.210938 314.261719 391.390625 313.609375 391.382812 C 313.199219 391.476562 312.792969 391.476562 312.382812 391.382812 C 312.167969 391.304688 311.964844 391.203125 311.769531 391.082031 C 311.578125 390.957031 311.398438 390.816406 311.238281 390.65625 C 311.074219 390.496094 310.929688 390.320312 310.804688 390.128906 C 310.679688 389.9375 310.574219 389.734375 310.492188 389.519531 C 310.410156 389.308594 310.351562 389.085938 310.316406 388.859375 C 310.28125 388.636719 310.269531 388.40625 310.28125 388.179688 C 310.292969 387.949219 310.332031 387.726562 310.390625 387.503906 C 310.453125 387.285156 310.535156 387.074219 310.640625 386.871094 Z M 307.03125 407.1875 C 306.960938 407.050781 306.921875 406.90625 306.914062 406.75 C 306.902344 406.597656 306.921875 406.449219 306.96875 406.304688 C 307.019531 406.160156 307.09375 406.03125 307.191406 405.914062 C 307.292969 405.800781 307.410156 405.707031 307.546875 405.636719 L 319.605469 399.1875 C 319.738281 399.117188 319.882812 399.074219 320.03125 399.0625 C 320.179688 399.046875 320.328125 399.058594 320.472656 399.101562 C 320.617188 399.144531 320.746094 399.210938 320.867188 399.304688 C 320.984375 399.398438 321.078125 399.507812 321.15625 399.640625 C 321.394531 400.105469 321.585938 400.585938 321.730469 401.085938 C 321.875 401.589844 321.96875 402.101562 322.011719 402.621094 C 322.054688 403.140625 322.046875 403.660156 321.988281 404.175781 C 321.929688 404.695312 321.820312 405.203125 321.664062 405.699219 C 321.503906 406.199219 321.296875 406.675781 321.046875 407.132812 C 320.792969 407.589844 320.5 408.015625 320.160156 408.414062 C 319.824219 408.8125 319.453125 409.175781 319.042969 409.5 C 318.636719 409.824219 318.199219 410.105469 317.734375 410.347656 C 317.273438 410.585938 316.789062 410.777344 316.289062 410.921875 C 315.785156 411.066406 315.277344 411.160156 314.757812 411.203125 C 314.234375 411.246094 313.71875 411.238281 313.199219 411.179688 C 312.679688 411.121094 312.171875 411.011719 311.675781 410.855469 C 311.179688 410.695312 310.703125 410.488281 310.246094 410.238281 C 309.789062 409.984375 309.359375 409.691406 308.960938 409.351562 C 308.5625 409.015625 308.203125 408.644531 307.875 408.234375 C 307.550781 407.828125 307.269531 407.390625 307.03125 406.929688 Z M 365.65625 291.867188 C 365.398438 292.433594 365.003906 292.878906 364.476562 293.207031 C 363.949219 293.535156 363.375 293.691406 362.753906 293.675781 C 362.300781 293.792969 361.851562 293.792969 361.398438 293.675781 C 360.074219 293.070312 358.960938 292.199219 358.050781 291.0625 C 357.140625 289.929688 356.539062 288.648438 356.238281 287.226562 C 355.949219 285.359375 356.066406 283.519531 356.585938 281.707031 C 357.101562 279.894531 357.976562 278.273438 359.207031 276.839844 C 359.484375 276.515625 359.8125 276.257812 360.195312 276.0625 C 360.578125 275.871094 360.980469 275.757812 361.40625 275.722656 C 361.832031 275.691406 362.25 275.738281 362.65625 275.871094 C 363.0625 276.003906 363.425781 276.210938 363.753906 276.488281 C 364.078125 276.765625 364.335938 277.09375 364.53125 277.476562 C 364.722656 277.855469 364.839844 278.261719 364.871094 278.6875 C 364.90625 279.113281 364.855469 279.53125 364.722656 279.9375 C 364.589844 280.34375 364.386719 280.707031 364.109375 281.035156 C 363.523438 281.707031 363.09375 282.472656 362.824219 283.324219 C 362.554688 284.175781 362.46875 285.046875 362.558594 285.933594 C 362.652344 286.371094 362.84375 286.757812 363.128906 287.101562 C 363.414062 287.441406 363.761719 287.699219 364.171875 287.871094 C 364.519531 288.054688 364.820312 288.296875 365.078125 288.59375 C 365.335938 288.890625 365.535156 289.222656 365.667969 289.589844 C 365.804688 289.957031 365.875 290.335938 365.871094 290.730469 C 365.867188 291.121094 365.796875 291.503906 365.65625 291.867188 Z M 357.015625 264.78125 C 356.75 264.613281 356.496094 264.429688 356.253906 264.234375 C 356.007812 264.035156 355.777344 263.824219 355.558594 263.601562 C 355.339844 263.378906 355.136719 263.140625 354.945312 262.894531 C 354.753906 262.644531 354.578125 262.386719 354.417969 262.117188 C 354.253906 261.851562 354.109375 261.574219 353.980469 261.289062 C 353.851562 261.003906 353.742188 260.710938 353.644531 260.414062 C 353.550781 260.113281 353.472656 259.8125 353.414062 259.503906 C 353.355469 259.195312 353.3125 258.886719 353.289062 258.574219 C 353.265625 258.261719 353.261719 257.949219 353.273438 257.636719 C 353.289062 257.324219 353.320312 257.011719 353.367188 256.703125 C 353.417969 256.394531 353.484375 256.089844 353.570312 255.789062 C 353.652344 255.484375 353.753906 255.191406 353.875 254.902344 C 353.992188 254.613281 354.128906 254.328125 354.28125 254.054688 C 354.433594 253.78125 354.601562 253.519531 354.785156 253.265625 C 354.96875 253.011719 355.164062 252.765625 355.375 252.535156 C 355.585938 252.304688 355.808594 252.085938 356.046875 251.882812 C 356.328125 251.558594 356.660156 251.296875 357.042969 251.101562 C 357.425781 250.90625 357.828125 250.792969 358.257812 250.753906 C 358.683594 250.71875 359.105469 250.765625 359.511719 250.894531 C 359.921875 251.019531 360.292969 251.222656 360.625 251.496094 C 360.957031 251.765625 361.21875 252.089844 361.417969 252.464844 C 361.617188 252.84375 361.734375 253.246094 361.773438 253.671875 C 361.808594 254.09375 361.761719 254.511719 361.628906 254.917969 C 361.496094 255.324219 361.292969 255.6875 361.011719 256.007812 C 359.335938 258.136719 359.269531 258.136719 361.011719 259.75 C 361.265625 259.964844 361.476562 260.214844 361.652344 260.492188 C 361.828125 260.773438 361.957031 261.074219 362.039062 261.394531 C 362.121094 261.714844 362.15625 262.042969 362.136719 262.371094 C 362.121094 262.703125 362.050781 263.023438 361.9375 263.332031 C 361.820312 263.644531 361.660156 263.929688 361.457031 264.1875 C 361.25 264.449219 361.011719 264.671875 360.738281 264.859375 C 360.46875 265.046875 360.171875 265.191406 359.855469 265.285156 C 359.539062 265.382812 359.214844 265.429688 358.882812 265.425781 C 358.199219 265.386719 357.574219 265.171875 357.015625 264.78125 Z M 381.652344 265.230469 C 381.746094 265.734375 381.789062 266.238281 381.785156 266.75 C 381.78125 267.257812 381.730469 267.765625 381.628906 268.265625 C 381.523438 268.765625 381.375 269.25 381.179688 269.71875 C 380.980469 270.191406 380.742188 270.636719 380.457031 271.0625 C 380.175781 271.488281 379.851562 271.878906 379.492188 272.242188 C 379.132812 272.601562 378.742188 272.925781 378.316406 273.210938 C 377.894531 273.496094 377.449219 273.738281 376.976562 273.9375 C 376.507812 274.136719 376.023438 274.285156 375.523438 274.390625 C 375.375 274.417969 375.222656 274.414062 375.074219 274.378906 C 374.925781 274.34375 374.789062 274.28125 374.667969 274.1875 C 374.542969 274.097656 374.445312 273.984375 374.371094 273.851562 C 374.292969 273.71875 374.25 273.574219 374.234375 273.421875 L 371.910156 260.074219 C 371.882812 259.921875 371.882812 259.773438 371.914062 259.625 C 371.945312 259.476562 372 259.335938 372.085938 259.210938 C 372.171875 259.082031 372.277344 258.976562 372.402344 258.890625 C 372.527344 258.808594 372.664062 258.75 372.816406 258.71875 C 373.316406 258.648438 373.824219 258.628906 374.328125 258.65625 C 374.835938 258.6875 375.335938 258.761719 375.828125 258.886719 C 376.320312 259.011719 376.796875 259.183594 377.253906 259.402344 C 377.714844 259.617188 378.148438 259.878906 378.554688 260.179688 C 378.964844 260.480469 379.339844 260.820312 379.683594 261.191406 C 380.027344 261.566406 380.332031 261.96875 380.597656 262.402344 C 380.863281 262.835938 381.082031 263.289062 381.261719 263.765625 C 381.4375 264.242188 381.566406 264.730469 381.652344 265.230469 Z M 381.652344 265.230469 " fill-opacity="1" fill-rule="nonzero"/><g mask="url(#637c038266)"><g transform="matrix(1, 0, 0, 1, 217, 201)"><g clip-path="url(#ef9b4de7ff)"><path fill="#ffffff" d="M 33.597656 292.15625 C 33.808594 294.171875 34.175781 296.160156 34.695312 298.117188 C 35.21875 300.074219 35.890625 301.976562 36.714844 303.828125 C 37.535156 305.679688 38.496094 307.457031 39.597656 309.15625 C 40.699219 310.855469 41.925781 312.460938 43.277344 313.96875 C 44.628906 315.476562 46.089844 316.867188 47.660156 318.148438 C 49.234375 319.425781 50.894531 320.574219 52.644531 321.589844 C 54.398438 322.609375 56.21875 323.484375 58.105469 324.214844 C 59.996094 324.945312 61.929688 325.527344 63.910156 325.953125 C 66.628906 326.542969 69.382812 326.84375 72.164062 326.855469 C 73.257812 326.855469 74.347656 326.804688 75.4375 326.710938 C 76.527344 326.613281 77.609375 326.472656 78.6875 326.289062 C 79.765625 326.101562 80.832031 325.867188 81.890625 325.589844 C 82.945312 325.3125 83.992188 324.992188 85.019531 324.625 C 86.050781 324.261719 87.0625 323.851562 88.058594 323.402344 C 89.054688 322.949219 90.03125 322.457031 90.984375 321.921875 C 91.9375 321.386719 92.867188 320.816406 93.773438 320.203125 C 94.675781 319.589844 95.554688 318.9375 96.40625 318.25 C 97.253906 317.5625 98.074219 316.839844 98.863281 316.085938 C 99.652344 315.328125 100.40625 314.539062 101.128906 313.71875 C 101.851562 312.898438 102.539062 312.046875 103.1875 311.167969 C 103.835938 310.289062 104.449219 309.386719 105.023438 308.453125 C 105.59375 307.523438 106.128906 306.570312 106.621094 305.59375 C 107.113281 304.617188 107.5625 303.625 107.972656 302.609375 C 108.378906 301.59375 108.746094 300.566406 109.066406 299.519531 C 109.386719 298.476562 109.664062 297.417969 109.894531 296.351562 C 118.535156 256.558594 105.121094 193.15625 81.839844 163.554688 C 80.214844 161.464844 78.394531 159.566406 76.378906 157.855469 C 74.359375 156.144531 72.1875 154.660156 69.863281 153.402344 C 67.535156 152.140625 65.105469 151.132812 62.570312 150.375 C 60.035156 149.621094 57.453125 149.132812 54.816406 148.914062 C 56.066406 148.578125 57.324219 148.296875 58.597656 148.0625 C 59.871094 147.828125 61.148438 147.644531 62.4375 147.515625 C 63.722656 147.382812 65.011719 147.304688 66.304688 147.277344 C 67.597656 147.25 68.890625 147.273438 70.183594 147.347656 C 71.472656 147.425781 72.761719 147.550781 74.039062 147.730469 C 75.320312 147.910156 76.59375 148.136719 77.855469 148.417969 C 79.117188 148.699219 80.367188 149.03125 81.605469 149.410156 C 82.839844 149.792969 84.058594 150.222656 85.261719 150.699219 C 86.464844 151.179688 87.644531 151.703125 88.804688 152.277344 C 89.960938 152.851562 91.097656 153.46875 92.207031 154.132812 C 93.316406 154.796875 94.398438 155.503906 95.453125 156.253906 C 96.507812 157.003906 97.527344 157.796875 98.519531 158.628906 C 99.507812 159.460938 100.464844 160.332031 101.382812 161.238281 C 102.304688 162.148438 103.1875 163.09375 104.03125 164.074219 C 104.875 165.050781 105.679688 166.0625 106.441406 167.109375 C 107.207031 168.152344 107.925781 169.226562 108.605469 170.328125 C 137.371094 217.214844 135.046875 277.257812 129.113281 305.378906 C 128.8125 306.867188 128.441406 308.339844 128.003906 309.796875 C 127.5625 311.25 127.054688 312.679688 126.480469 314.085938 C 125.902344 315.492188 125.265625 316.871094 124.558594 318.214844 C 123.855469 319.5625 123.085938 320.871094 122.257812 322.144531 C 121.429688 323.417969 120.542969 324.652344 119.597656 325.839844 C 118.652344 327.03125 117.65625 328.175781 116.601562 329.269531 C 115.550781 330.367188 114.445312 331.410156 113.296875 332.402344 C 112.144531 333.394531 110.949219 334.328125 109.710938 335.207031 C 108.46875 336.085938 107.191406 336.90625 105.875 337.664062 C 104.558594 338.421875 103.207031 339.117188 101.828125 339.75 C 100.445312 340.378906 99.035156 340.945312 97.601562 341.441406 C 96.164062 341.941406 94.707031 342.371094 93.230469 342.730469 C 91.757812 343.089844 90.265625 343.382812 88.761719 343.601562 C 87.257812 343.820312 85.75 343.96875 84.230469 344.046875 C 82.714844 344.125 81.195312 344.132812 79.675781 344.066406 C 78.160156 344 76.648438 343.863281 75.140625 343.652344 C 73.636719 343.445312 72.144531 343.167969 70.667969 342.816406 C 69.1875 342.46875 67.726562 342.050781 66.289062 341.5625 C 64.847656 341.078125 63.4375 340.523438 62.046875 339.902344 C 60.660156 339.28125 59.304688 338.597656 57.984375 337.851562 C 56.660156 337.101562 55.375 336.292969 54.128906 335.425781 C 52.882812 334.554688 51.679688 333.628906 50.523438 332.648438 C 49.363281 331.664062 48.253906 330.628906 47.191406 329.539062 C 46.128906 328.453125 45.121094 327.316406 44.167969 326.136719 C 43.214844 324.953125 42.320312 323.726562 41.480469 322.460938 C 40.640625 321.195312 39.863281 319.890625 39.148438 318.550781 C 38.433594 317.207031 37.78125 315.835938 37.195312 314.433594 C 36.609375 313.035156 36.089844 311.605469 35.640625 310.15625 C 35.1875 308.703125 34.804688 307.234375 34.492188 305.75 C 34.179688 304.261719 33.9375 302.761719 33.765625 301.253906 C 33.597656 299.742188 33.496094 298.230469 33.46875 296.710938 C 33.4375 295.191406 33.480469 293.671875 33.597656 292.15625 Z M 344.207031 144.785156 C 341.234375 142.964844 338.097656 141.480469 334.804688 140.339844 C 331.511719 139.195312 328.132812 138.417969 324.671875 138.003906 C 321.207031 137.59375 317.742188 137.558594 314.269531 137.894531 C 310.800781 138.234375 307.40625 138.941406 304.089844 140.015625 C 308.796875 138.820312 313.574219 138.351562 318.421875 138.605469 C 323.273438 138.859375 327.976562 139.824219 332.53125 141.496094 C 334.582031 142.757812 336.515625 144.179688 338.335938 145.753906 C 339.289062 146.59375 340.203125 147.480469 341.070312 148.410156 C 341.9375 149.339844 342.753906 150.308594 343.527344 151.320312 C 344.296875 152.328125 345.019531 153.375 345.6875 154.457031 C 346.355469 155.539062 346.96875 156.648438 347.527344 157.792969 C 348.085938 158.933594 348.585938 160.101562 349.03125 161.292969 C 349.472656 162.484375 349.859375 163.695312 350.183594 164.921875 C 350.507812 166.152344 350.769531 167.394531 350.972656 168.648438 C 351.175781 169.902344 351.316406 171.167969 351.394531 172.433594 C 351.46875 173.703125 351.484375 174.972656 351.4375 176.246094 C 351.390625 177.515625 351.28125 178.78125 351.109375 180.039062 C 350.9375 181.300781 350.703125 182.546875 350.410156 183.785156 C 350.113281 185.019531 349.757812 186.238281 349.34375 187.441406 C 348.925781 188.640625 348.453125 189.820312 347.921875 190.976562 C 347.390625 192.128906 346.804688 193.257812 346.164062 194.355469 C 345.519531 195.449219 344.824219 196.511719 344.078125 197.542969 C 343.332031 198.570312 342.535156 199.558594 341.691406 200.511719 C 336.335938 207.925781 323.4375 244.109375 321.503906 274.808594 C 321.417969 276.015625 321.273438 277.21875 321.074219 278.414062 C 320.875 279.609375 320.617188 280.792969 320.308594 281.960938 C 319.996094 283.132812 319.632812 284.289062 319.214844 285.425781 C 318.792969 286.5625 318.324219 287.675781 317.796875 288.769531 C 317.273438 289.859375 316.699219 290.925781 316.078125 291.964844 C 315.453125 293.003906 314.78125 294.007812 314.0625 294.984375 C 313.34375 295.960938 312.582031 296.898438 311.777344 297.804688 C 310.96875 298.707031 310.121094 299.570312 309.234375 300.394531 C 308.34375 301.21875 307.421875 302 306.460938 302.738281 C 305.5 303.476562 304.503906 304.167969 303.480469 304.8125 C 302.453125 305.453125 301.398438 306.050781 300.316406 306.59375 C 299.234375 307.140625 298.128906 307.632812 297 308.074219 C 295.875 308.515625 294.726562 308.902344 293.5625 309.238281 C 292.398438 309.570312 291.21875 309.847656 290.027344 310.070312 C 288.839844 310.292969 287.640625 310.460938 286.433594 310.570312 C 285.226562 310.683594 284.019531 310.734375 282.804688 310.734375 L 280.03125 310.734375 C 278.167969 310.589844 276.320312 310.316406 274.496094 309.90625 C 272.667969 309.5 270.882812 308.960938 269.136719 308.292969 C 267.386719 307.625 265.695312 306.832031 264.0625 305.917969 C 262.429688 305.007812 260.871094 303.980469 259.386719 302.839844 C 257.902344 301.699219 256.511719 300.460938 255.207031 299.117188 C 253.902344 297.777344 252.699219 296.347656 251.605469 294.832031 C 250.507812 293.316406 249.523438 291.730469 248.660156 290.070312 C 247.792969 288.414062 247.050781 286.699219 246.429688 284.933594 C 246.507812 286.414062 246.648438 287.886719 246.859375 289.351562 C 247.070312 290.816406 247.347656 292.269531 247.691406 293.710938 C 248.035156 295.152344 248.445312 296.574219 248.921875 297.976562 C 249.398438 299.378906 249.933594 300.757812 250.535156 302.109375 C 251.140625 303.460938 251.800781 304.785156 252.523438 306.078125 C 253.25 307.371094 254.03125 308.625 254.867188 309.847656 C 255.707031 311.066406 256.601562 312.246094 257.546875 313.382812 C 258.496094 314.523438 259.492188 315.613281 260.542969 316.660156 C 261.589844 317.707031 262.683594 318.703125 263.824219 319.648438 C 264.960938 320.59375 266.140625 321.488281 267.363281 322.324219 C 268.585938 323.160156 269.84375 323.941406 271.136719 324.660156 C 272.429688 325.382812 273.753906 326.042969 275.105469 326.644531 C 276.460938 327.246094 277.839844 327.78125 279.242188 328.253906 C 280.644531 328.726562 282.066406 329.132812 283.507812 329.476562 C 284.949219 329.820312 286.402344 330.09375 287.867188 330.304688 C 289.335938 330.511719 290.808594 330.652344 292.285156 330.726562 L 294.738281 330.726562 C 296.269531 330.722656 297.800781 330.648438 299.324219 330.503906 C 300.851562 330.355469 302.363281 330.136719 303.871094 329.84375 C 305.375 329.554688 306.863281 329.191406 308.332031 328.761719 C 309.800781 328.328125 311.25 327.828125 312.671875 327.257812 C 314.09375 326.6875 315.488281 326.054688 316.847656 325.351562 C 318.210938 324.652344 319.539062 323.886719 320.828125 323.058594 C 322.117188 322.230469 323.363281 321.34375 324.570312 320.398438 C 325.777344 319.453125 326.933594 318.453125 328.046875 317.394531 C 329.15625 316.339844 330.214844 315.234375 331.21875 314.078125 C 332.226562 312.921875 333.175781 311.71875 334.066406 310.472656 C 334.957031 309.226562 335.789062 307.941406 336.558594 306.617188 C 337.328125 305.292969 338.03125 303.933594 338.671875 302.539062 C 339.3125 301.148438 339.886719 299.730469 340.394531 298.28125 C 340.898438 296.835938 341.335938 295.367188 341.703125 293.882812 C 342.070312 292.394531 342.363281 290.890625 342.589844 289.375 C 342.8125 287.859375 342.964844 286.335938 343.042969 284.804688 C 344.269531 260.492188 346.65625 232.824219 360.007812 211.085938 C 360.828125 209.742188 361.582031 208.359375 362.269531 206.9375 C 362.953125 205.519531 363.570312 204.070312 364.113281 202.589844 C 364.65625 201.109375 365.128906 199.605469 365.523438 198.078125 C 365.921875 196.554688 366.242188 195.011719 366.492188 193.453125 C 366.738281 191.898438 366.90625 190.332031 367 188.757812 C 367.09375 187.183594 367.109375 185.609375 367.050781 184.03125 C 366.988281 182.457031 366.851562 180.886719 366.636719 179.324219 C 366.421875 177.761719 366.132812 176.214844 365.765625 174.679688 C 365.402344 173.148438 364.960938 171.636719 364.449219 170.144531 C 363.933594 168.652344 363.351562 167.191406 362.695312 165.757812 C 362.035156 164.324219 361.3125 162.925781 360.519531 161.5625 C 359.726562 160.199219 358.867188 158.878906 357.945312 157.601562 C 357.023438 156.320312 356.039062 155.089844 354.996094 153.90625 C 353.953125 152.722656 352.855469 151.59375 351.703125 150.519531 C 350.550781 149.445312 349.347656 148.425781 348.09375 147.46875 C 346.84375 146.511719 345.546875 145.617188 344.207031 144.785156 Z M 283.839844 54.492188 C 282.707031 52.882812 281.484375 51.347656 280.167969 49.890625 C 278.847656 48.429688 277.445312 47.054688 275.960938 45.769531 C 274.476562 44.480469 272.917969 43.285156 271.285156 42.1875 C 269.652344 41.089844 267.960938 40.097656 266.207031 39.207031 C 264.453125 38.316406 262.652344 37.535156 260.804688 36.867188 C 258.957031 36.195312 257.074219 35.640625 255.15625 35.199219 C 253.238281 34.757812 251.304688 34.4375 249.347656 34.234375 C 247.390625 34.03125 245.429688 33.949219 243.464844 33.984375 C 247.308594 34.347656 251.050781 35.167969 254.695312 36.441406 C 258.339844 37.71875 261.777344 39.414062 265.003906 41.53125 C 265.488281 42.050781 265.957031 42.582031 266.414062 43.125 C 266.867188 43.671875 267.304688 44.226562 267.730469 44.796875 C 268.152344 45.367188 268.558594 45.945312 268.953125 46.539062 C 269.34375 47.128906 269.71875 47.734375 270.078125 48.34375 C 270.4375 48.957031 270.777344 49.578125 271.101562 50.210938 C 271.425781 50.839844 271.734375 51.480469 272.023438 52.128906 C 272.3125 52.777344 272.582031 53.429688 272.835938 54.09375 C 273.089844 54.757812 273.324219 55.425781 273.539062 56.101562 C 273.757812 56.777344 273.953125 57.460938 274.132812 58.144531 C 274.3125 58.832031 274.472656 59.523438 274.613281 60.21875 C 274.753906 60.914062 274.875 61.613281 274.976562 62.316406 C 275.078125 63.019531 275.164062 63.722656 275.226562 64.429688 C 275.289062 65.136719 275.335938 65.84375 275.359375 66.550781 C 275.382812 67.261719 275.390625 67.972656 275.375 68.679688 C 275.359375 69.390625 275.328125 70.097656 275.273438 70.804688 C 275.21875 71.511719 275.148438 72.21875 275.054688 72.921875 C 274.964844 73.625 274.851562 74.328125 274.722656 75.023438 C 274.589844 75.722656 274.441406 76.414062 274.273438 77.105469 C 274.105469 77.792969 273.917969 78.476562 273.710938 79.15625 C 273.503906 79.835938 273.277344 80.507812 273.035156 81.175781 C 272.792969 81.839844 272.53125 82.5 272.25 83.152344 C 271.972656 83.804688 271.675781 84.449219 271.359375 85.082031 C 271.042969 85.71875 270.710938 86.347656 270.363281 86.964844 C 270.011719 87.582031 269.644531 88.1875 269.261719 88.785156 C 268.878906 89.382812 268.480469 89.96875 268.066406 90.546875 C 267.652344 91.121094 267.21875 91.683594 266.773438 92.234375 C 266.328125 92.789062 265.867188 93.328125 265.390625 93.851562 C 264.914062 94.378906 264.425781 94.890625 263.921875 95.390625 C 263.417969 95.890625 262.898438 96.375 262.367188 96.847656 C 261.839844 97.316406 261.292969 97.773438 260.738281 98.214844 C 260.183594 98.65625 259.617188 99.082031 259.035156 99.492188 C 258.457031 99.902344 257.867188 100.292969 257.265625 100.671875 C 237.144531 113.570312 201.027344 120.472656 166.972656 120.472656 C 149.75 120.816406 132.871094 118.558594 116.34375 113.699219 C 114.515625 113.097656 112.746094 112.363281 111.027344 111.496094 C 109.308594 110.628906 107.667969 109.640625 106.097656 108.527344 C 104.527344 107.417969 103.046875 106.195312 101.660156 104.863281 C 100.273438 103.53125 98.992188 102.101562 97.816406 100.578125 C 96.640625 99.054688 95.585938 97.453125 94.648438 95.773438 C 93.714844 94.089844 92.910156 92.351562 92.230469 90.550781 C 91.554688 88.75 91.015625 86.90625 90.617188 85.027344 C 90.214844 83.144531 89.953125 81.242188 89.835938 79.324219 C 89.476562 80.804688 89.191406 82.296875 88.972656 83.800781 C 88.757812 85.308594 88.609375 86.820312 88.539062 88.34375 C 88.464844 89.863281 88.460938 91.382812 88.535156 92.902344 C 88.605469 94.421875 88.746094 95.9375 88.960938 97.441406 C 89.175781 98.949219 89.457031 100.445312 89.8125 101.921875 C 90.171875 103.402344 90.59375 104.863281 91.089844 106.300781 C 91.582031 107.742188 92.144531 109.15625 92.769531 110.542969 C 93.398438 111.929688 94.089844 113.28125 94.847656 114.601562 C 95.601562 115.921875 96.417969 117.207031 97.296875 118.449219 C 98.175781 119.691406 99.109375 120.890625 100.101562 122.046875 C 101.089844 123.203125 102.136719 124.308594 103.230469 125.363281 C 104.328125 126.417969 105.46875 127.421875 106.660156 128.367188 C 107.851562 129.316406 109.085938 130.203125 110.359375 131.035156 C 111.636719 131.867188 112.945312 132.636719 114.296875 133.339844 C 115.644531 134.046875 117.023438 134.6875 118.429688 135.265625 C 119.839844 135.839844 121.273438 136.347656 122.730469 136.789062 C 142.851562 142.734375 163.402344 145.679688 184.386719 145.625 C 215.859375 145.625 248.300781 139.175781 272.359375 121.695312 C 273.652344 120.78125 274.894531 119.804688 276.09375 118.765625 C 277.289062 117.726562 278.433594 116.628906 279.523438 115.480469 C 280.613281 114.328125 281.644531 113.125 282.613281 111.875 C 283.585938 110.621094 284.492188 109.324219 285.335938 107.984375 C 286.179688 106.640625 286.957031 105.261719 287.664062 103.84375 C 288.375 102.425781 289.011719 100.976562 289.574219 99.496094 C 290.140625 98.015625 290.632812 96.511719 291.050781 94.980469 C 291.46875 93.453125 291.8125 91.90625 292.078125 90.34375 C 292.34375 88.78125 292.53125 87.210938 292.644531 85.628906 C 292.753906 84.046875 292.789062 82.464844 292.742188 80.882812 C 292.699219 79.296875 292.578125 77.71875 292.378906 76.148438 C 292.179688 74.574219 291.902344 73.015625 291.550781 71.46875 C 291.199219 69.925781 290.769531 68.402344 290.269531 66.898438 C 289.765625 65.394531 289.191406 63.917969 288.542969 62.472656 C 287.894531 61.027344 287.179688 59.613281 286.394531 58.238281 C 285.605469 56.863281 284.753906 55.527344 283.839844 54.234375 Z M 321.179688 18.632812 C 324.855469 19.148438 326.40625 23.40625 326.082031 27.339844 C 326.046875 27.761719 326.09375 28.175781 326.21875 28.582031 C 326.347656 28.988281 326.546875 29.351562 326.816406 29.679688 C 327.089844 30.003906 327.414062 30.265625 327.789062 30.464844 C 328.164062 30.664062 328.5625 30.78125 328.984375 30.824219 C 329.382812 30.824219 329.765625 30.753906 330.136719 30.609375 C 330.507812 30.464844 330.839844 30.261719 331.132812 29.992188 C 331.425781 29.722656 331.660156 29.410156 331.835938 29.050781 C 332.007812 28.695312 332.113281 28.316406 332.144531 27.921875 C 332.320312 27.066406 332.40625 26.203125 332.410156 25.328125 C 332.414062 24.457031 332.335938 23.589844 332.167969 22.734375 C 332 21.875 331.753906 21.042969 331.421875 20.234375 C 331.089844 19.429688 330.683594 18.660156 330.203125 17.933594 C 329.71875 17.203125 329.171875 16.53125 328.554688 15.910156 C 327.941406 15.292969 327.269531 14.738281 326.546875 14.25 C 325.824219 13.761719 325.058594 13.351562 324.253906 13.015625 C 323.449219 12.675781 322.617188 12.421875 321.761719 12.25 C 321.332031 12.1875 320.910156 12.214844 320.492188 12.324219 C 320.074219 12.429688 319.695312 12.617188 319.351562 12.875 C 319.007812 13.136719 318.726562 13.453125 318.507812 13.824219 C 318.289062 14.195312 318.148438 14.59375 318.089844 15.023438 C 318.027344 15.449219 318.050781 15.871094 318.160156 16.289062 C 318.269531 16.707031 318.453125 17.089844 318.710938 17.433594 C 318.972656 17.777344 319.289062 18.058594 319.660156 18.28125 C 320.03125 18.5 320.429688 18.636719 320.859375 18.699219 Z M 77.066406 41.917969 C 76.859375 42.296875 76.730469 42.703125 76.683594 43.136719 C 76.636719 43.566406 76.675781 43.992188 76.792969 44.40625 C 76.914062 44.824219 77.109375 45.203125 77.382812 45.542969 C 77.652344 45.882812 77.976562 46.15625 78.355469 46.367188 C 78.894531 46.671875 79.476562 46.824219 80.097656 46.816406 C 80.65625 46.824219 81.175781 46.6875 81.660156 46.410156 C 82.144531 46.132812 82.527344 45.753906 82.804688 45.269531 C 84.257812 42.933594 85.980469 40.816406 87.964844 38.917969 C 89.953125 37.015625 92.148438 35.394531 94.542969 34.046875 C 94.917969 33.839844 95.234375 33.566406 95.496094 33.230469 C 95.761719 32.894531 95.949219 32.519531 96.0625 32.109375 C 96.179688 31.699219 96.210938 31.28125 96.160156 30.855469 C 96.109375 30.433594 95.980469 30.035156 95.769531 29.664062 C 95.558594 29.273438 95.28125 28.941406 94.9375 28.667969 C 94.589844 28.390625 94.203125 28.195312 93.777344 28.082031 C 93.347656 27.964844 92.917969 27.9375 92.480469 28 C 92.039062 28.0625 91.632812 28.207031 91.253906 28.4375 C 88.335938 30.019531 85.675781 31.953125 83.269531 34.238281 C 80.863281 36.523438 78.792969 39.082031 77.066406 41.917969 Z M 330.339844 11.734375 C 331.921875 12.984375 333.230469 14.476562 334.265625 16.210938 C 335.296875 17.945312 335.988281 19.804688 336.335938 21.792969 C 336.429688 22.136719 336.574219 22.453125 336.769531 22.746094 C 336.964844 23.039062 337.203125 23.292969 337.480469 23.511719 C 337.761719 23.726562 338.070312 23.890625 338.402344 24.003906 C 338.738281 24.121094 339.078125 24.179688 339.433594 24.179688 L 340.269531 24.179688 C 340.488281 24.121094 340.695312 24.035156 340.890625 23.933594 C 341.089844 23.828125 341.273438 23.703125 341.445312 23.5625 C 341.621094 23.417969 341.773438 23.257812 341.914062 23.085938 C 342.054688 22.910156 342.171875 22.722656 342.273438 22.519531 C 342.375 22.320312 342.453125 22.113281 342.507812 21.894531 C 342.566406 21.679688 342.597656 21.460938 342.609375 21.234375 C 342.621094 21.011719 342.609375 20.789062 342.574219 20.570312 C 342.539062 20.347656 342.480469 20.132812 342.398438 19.921875 C 342.136719 18.472656 341.730469 17.058594 341.179688 15.691406 C 340.628906 14.320312 339.949219 13.019531 339.132812 11.789062 C 338.316406 10.558594 337.386719 9.421875 336.339844 8.378906 C 335.292969 7.339844 334.152344 6.414062 332.917969 5.605469 C 332.722656 5.492188 332.515625 5.402344 332.300781 5.332031 C 332.085938 5.261719 331.867188 5.214844 331.640625 5.191406 C 331.414062 5.167969 331.1875 5.167969 330.964844 5.191406 C 330.738281 5.214844 330.519531 5.265625 330.304688 5.335938 C 330.085938 5.40625 329.882812 5.496094 329.6875 5.609375 C 329.492188 5.726562 329.308594 5.859375 329.140625 6.011719 C 328.972656 6.164062 328.824219 6.332031 328.691406 6.515625 C 328.558594 6.699219 328.445312 6.894531 328.355469 7.101562 C 328.261719 7.308594 328.195312 7.523438 328.148438 7.746094 C 328.101562 7.96875 328.082031 8.191406 328.082031 8.417969 C 328.082031 8.644531 328.109375 8.867188 328.15625 9.089844 C 328.207031 9.3125 328.277344 9.523438 328.371094 9.730469 C 328.464844 9.9375 328.578125 10.132812 328.710938 10.3125 C 328.847656 10.496094 329 10.664062 329.167969 10.8125 C 329.339844 10.964844 329.523438 11.09375 329.71875 11.207031 C 329.917969 11.316406 330.121094 11.40625 330.339844 11.476562 Z M 74.875 362.714844 C 36.175781 362.714844 5.152344 369.164062 5.152344 376.90625 C 5.152344 384.644531 36.371094 391.09375 74.875 391.09375 C 113.378906 391.09375 144.59375 384.644531 144.59375 376.90625 C 144.59375 369.164062 113.378906 362.714844 74.875 362.714844 Z M 69.261719 37.335938 C 69.808594 37.699219 70.410156 37.875 71.066406 37.851562 C 71.609375 37.847656 72.117188 37.722656 72.59375 37.46875 C 73.070312 37.21875 73.464844 36.875 73.777344 36.433594 C 76.875 31.675781 80.851562 27.828125 85.707031 24.890625 C 86.078125 24.667969 86.394531 24.386719 86.648438 24.039062 C 86.902344 23.691406 87.078125 23.304688 87.175781 22.886719 C 87.273438 22.464844 87.285156 22.042969 87.207031 21.617188 C 87.132812 21.191406 86.976562 20.800781 86.742188 20.441406 C 86.507812 20.082031 86.21875 19.78125 85.871094 19.535156 C 85.519531 19.292969 85.140625 19.121094 84.722656 19.023438 C 84.308594 18.929688 83.890625 18.914062 83.46875 18.980469 C 83.050781 19.046875 82.65625 19.1875 82.289062 19.40625 C 76.644531 22.839844 72 27.3125 68.359375 32.824219 C 68.117188 33.179688 67.949219 33.570312 67.863281 33.996094 C 67.777344 34.421875 67.777344 34.84375 67.863281 35.269531 C 67.949219 35.695312 68.113281 36.085938 68.355469 36.445312 C 68.597656 36.804688 68.898438 37.101562 69.261719 37.335938 Z M 287.515625 358.136719 C 248.816406 358.136719 217.730469 364.585938 217.730469 372.390625 C 217.730469 380.195312 249.011719 386.578125 287.515625 386.578125 C 326.019531 386.578125 357.296875 380.128906 357.296875 372.390625 C 357.296875 364.652344 326.082031 358.136719 287.515625 358.136719 Z M 287.515625 358.136719 " fill-opacity="1" fill-rule="nonzero"/></g></g></g></svg>