<svg id="Layer_1" data-name="Layer 1" xmlns="http://www.w3.org/2000/svg" viewBox="0 0 47 47"><defs><style>.cls-1{fill:#231f20;}</style></defs>
<path
   d="M 23.5,3.34 6,13.42 V 33.66 L 23.5,43.74 41,33.66 V 13.42 Z M 39,32.5 23.5,41.43 8,32.5 V 14.58 L 23.5,5.65 39,14.58 Z"
   style="fill:#231f20;fill-rule:nonzero"
   id="path1" />
<path
   id="Discord-Symbol-Black"
   d="m 27.218189,13.425054 c -0.260763,0.462974 -0.494916,0.941919 -0.707765,1.431504 -2.022206,-0.303325 -4.081663,-0.303325 -6.109177,0 -0.207541,-0.489585 -0.447024,-0.96853 -0.707767,-1.431504 -1.899808,0.324627 -3.751724,0.894026 -5.507835,1.697578 -3.48032,5.156617 -4.4222393,10.180176 -3.953934,15.134562 2.038155,1.506008 4.321124,2.655468 6.753079,3.389845 0.548118,-0.734377 1.032393,-1.516648 1.447475,-2.330839 -0.787601,-0.292686 -1.54859,-0.659874 -2.277638,-1.085596 0.19157,-0.138368 0.377828,-0.282045 0.558758,-0.420413 4.273231,2.011565 9.222308,2.011565 13.500849,0 0.18093,0.149008 0.367189,0.292685 0.558758,0.420413 -0.729047,0.431031 -1.490037,0.79291 -2.282947,1.090926 0.415081,0.814192 0.899336,1.596462 1.447475,2.33084 2.431892,-0.734378 4.71484,-1.878528 6.753163,-3.384515 0.553301,-5.747318 -0.947312,-10.728316 -3.964764,-15.139893 -1.750696,-0.803551 -3.602612,-1.372971 -5.50242,-1.692267 z m -8.189914,13.782893 c -1.314417,0 -2.405343,-1.192042 -2.405343,-2.666108 0,-1.474065 1.048343,-2.671438 2.400034,-2.671438 1.35169,0 2.426625,1.202683 2.405344,2.671438 -0.02128,1.468756 -1.058984,2.666108 -2.400035,2.666108 z m 8.865759,0 c -1.319769,0 -2.400034,-1.192042 -2.400034,-2.666108 0,-1.474065 1.048344,-2.671438 2.400034,-2.671438 1.35169,0 2.421315,1.202683 2.400013,2.671438 -0.02128,1.468756 -1.058983,2.666108 -2.400013,2.666108 z"
   style="fill:#231f20;fill-opacity:1;stroke-width:0.210702" />
<path
   style="fill:#231f20;fill-opacity:1;stroke-width:0.0384549"
   d="m 16.304622,33.40019 c -1.979345,-0.671335 -3.892704,-1.637122 -5.556274,-2.804584 -0.567961,-0.398585 -0.510077,-0.244212 -0.578536,-1.542906 -0.15264,-2.89566 0.27789,-5.814723 1.254779,-8.507605 0.545613,-1.504032 1.262999,-2.981909 2.142263,-4.413251 0.533424,-0.868353 0.625429,-0.988653 0.824844,-1.078519 0.748816,-0.337449 1.971838,-0.784351 2.836111,-1.036337 0.977945,-0.285128 2.391591,-0.591984 2.463757,-0.5348 0.0226,0.01791 0.186998,0.336937 0.365322,0.708947 l 0.324225,0.676383 0.211503,-0.02308 c 0.116326,-0.01269 0.427811,-0.04798 0.692188,-0.07841 1.291225,-0.14864 3.052912,-0.148622 4.345408,4.4e-5 0.264377,0.03041 0.575862,0.06532 0.692188,0.07758 l 0.211502,0.02229 0.334836,-0.693741 c 0.302707,-0.627172 0.344133,-0.693741 0.431718,-0.693741 0.157663,0 1.369945,0.262819 1.977481,0.428712 0.815609,0.222708 1.659688,0.50483 2.428154,0.811577 1.072847,0.428246 0.966527,0.346691 1.452354,1.114069 2.066609,3.264267 3.165336,6.393307 3.534767,10.066585 0.05141,0.511212 0.06741,1.010325 0.06653,2.076566 -0.0013,1.55691 -0.04832,2.244514 -0.159558,2.332094 -0.0374,0.02945 -0.388142,0.267611 -0.779421,0.529254 -1.698848,1.135997 -3.326289,1.934598 -5.306358,2.603879 l -0.557173,0.188331 -0.06812,-0.08686 C 29.605873,33.181439 29.02186,32.25906 28.675429,31.625769 l -0.159638,-0.291824 0.374206,-0.146766 c 0.420894,-0.165079 1.790645,-0.845942 1.852998,-0.921073 0.03068,-0.03697 -0.02801,-0.101323 -0.241574,-0.264901 l -0.2821,-0.216071 -0.40065,0.176674 c -1.338596,0.590277 -2.820105,1.000036 -4.396073,1.215872 -0.844995,0.115727 -2.971046,0.124612 -3.810927,0.01593 -1.526091,-0.197484 -3.018868,-0.59779 -4.338647,-1.163462 l -0.570065,-0.244335 -0.288735,0.21732 -0.288736,0.21732 0.0897,0.0696 c 0.129122,0.100195 1.493422,0.768935 1.868864,0.916063 l 0.317874,0.124568 -0.180628,0.331908 c -0.326724,0.600361 -1.148001,1.888026 -1.240749,1.945347 -0.01235,0.0076 -0.316523,-0.08585 -0.675928,-0.207752 z m 3.486048,-6.304166 c 1.062943,-0.411071 1.704766,-1.501551 1.638608,-2.784056 -0.05513,-1.068764 -0.720427,-2.007758 -1.654876,-2.335689 -0.330667,-0.116042 -0.917331,-0.143764 -1.273224,-0.06016 -0.843971,0.198252 -1.548705,0.926087 -1.798284,1.857233 -0.116059,0.432995 -0.116684,1.11426 -0.0014,1.521977 0.26194,0.926365 0.917267,1.621571 1.7482,1.854581 0.306071,0.08583 1.057816,0.05562 1.340974,-0.05388 z m 8.748452,0.03025 c 0.822237,-0.251373 1.44331,-0.95014 1.688596,-1.899834 0.09357,-0.362275 0.09474,-1.095114 0.0023,-1.44206 -0.24401,-0.915842 -0.941284,-1.644467 -1.782248,-1.862383 -0.296947,-0.07695 -0.813173,-0.07742 -1.10652,-0.001 -0.423636,0.110343 -0.705882,0.278119 -1.061674,0.631092 -0.270828,0.268681 -0.359786,0.388224 -0.48777,0.655479 -0.238733,0.498518 -0.293533,0.745662 -0.294171,1.326695 -6.46e-4,0.587485 0.05544,0.841683 0.292349,1.324936 0.126496,0.258035 0.22761,0.393711 0.490103,0.65763 0.503191,0.505923 0.911343,0.680496 1.605302,0.686613 0.294172,0.0026 0.454945,-0.01638 0.653734,-0.07716 z"
   id="path4" />
</svg>
