<svg xmlns="http://www.w3.org/2000/svg" xmlns:xlink="http://www.w3.org/1999/xlink" width="1080" zoomAndPan="magnify" viewBox="0 0 810 809.999993" height="1080" preserveAspectRatio="xMidYMid meet" version="1.0"><defs><clipPath id="8164c91a04"><path d="M 105.261719 56.214844 L 704.511719 56.214844 L 704.511719 753.710938 L 105.261719 753.710938 Z M 105.261719 56.214844 " clip-rule="nonzero"/></clipPath><clipPath id="df2417597b"><path d="M 404.996094 56.214844 L 704.734375 230.605469 L 704.734375 579.390625 L 404.996094 753.78125 L 105.261719 579.390625 L 105.261719 230.605469 Z M 404.996094 56.214844 " clip-rule="nonzero"/></clipPath></defs><g clip-path="url(#8164c91a04)"><g clip-path="url(#df2417597b)"><path stroke-linecap="butt" transform="matrix(0.75, 0, 0, 0.75, 105.260439, 56.212176)" fill="none" stroke-linejoin="miter" d="M 399.647585 0.0035565 L 799.298673 232.524416 L 799.298673 697.571345 L 399.647585 930.092204 L 0.00170633 697.571345 L 0.00170633 232.524416 Z M 399.647585 0.0035565 " stroke="#ffffff" stroke-width="100" stroke-opacity="1" stroke-miterlimit="4"/></g></g><path stroke-linecap="butt" transform="matrix(0.649019, 0.375864, -0.375864, 0.649019, 129.614675, 233.38574)" fill="none" stroke-linejoin="miter" d="M -0.000739239 14.001423 L 432.418748 14.001832 " stroke="#ffffff" stroke-width="28" stroke-opacity="1" stroke-miterlimit="4"/><path stroke-linecap="butt" transform="matrix(0.64895, -0.375984, 0.375984, 0.64895, 399.735511, 395.91211)" fill="none" stroke-linejoin="miter" d="M 0.00170934 13.99896 L 432.278863 14.001699 " stroke="#ffffff" stroke-width="28" stroke-opacity="1" stroke-miterlimit="4"/><path stroke-linecap="butt" transform="matrix(0.000000001309, 0.75, -0.75, 0.000000001309, 415.499983, 405)" fill="none" stroke-linejoin="miter" d="M 0.000000475566 13.999977 L 432.000022 13.999978 " stroke="#ffffff" stroke-width="28" stroke-opacity="1" stroke-miterlimit="4"/><path stroke-linecap="round" transform="matrix(0.649519, 0.375, -0.375, 0.649519, 172.518583, 325.010483)" fill="none" stroke-linejoin="miter" d="M 14.002801 14.001032 L 280.576133 14.000799 " stroke="#ffffff" stroke-width="28" stroke-opacity="1" stroke-miterlimit="4"/><path stroke-linecap="round" transform="matrix(0.649519, 0.375, -0.375, 0.649519, 173.268583, 517.766058)" fill="none" stroke-linejoin="miter" d="M 14.001688 13.999104 L 280.57502 13.998872 " stroke="#ffffff" stroke-width="28" stroke-opacity="1" stroke-miterlimit="4"/><path stroke-linecap="round" transform="matrix(0.000000001309, 0.75, -0.75, 0.000000001309, 361.597661, 431.819254)" fill="none" stroke-linejoin="miter" d="M 14.001412 14.000006 L 265.131633 14.000007 " stroke="#ffffff" stroke-width="28" stroke-opacity="1" stroke-miterlimit="4"/><path stroke-linecap="round" transform="matrix(0.000000001309, 0.75, -0.75, 0.000000001309, 186.016576, 331.644848)" fill="none" stroke-linejoin="miter" d="M 13.999578 14.001268 L 265.129799 14.001269 " stroke="#ffffff" stroke-width="28" stroke-opacity="1" stroke-miterlimit="4"/><path stroke-linecap="round" transform="matrix(0.554133, -0.505407, 0.505407, 0.554133, 380.623256, 234.386127)" fill="none" stroke-linejoin="miter" d="M 14.001899 13.998334 L 276.114462 14.000013 " stroke="#ffffff" stroke-width="28" stroke-opacity="1" stroke-miterlimit="4"/><path stroke-linecap="round" transform="matrix(0.293852, 0.690037, -0.690037, 0.293852, 306.813151, 11.104236)" fill="none" stroke-linejoin="miter" d="M 13.999786 14.001268 L 322.667841 14.000696 " stroke="#ffffff" stroke-width="28" stroke-opacity="1" stroke-miterlimit="4"/><path stroke-linecap="round" transform="matrix(-0.629018, 0.408456, -0.408456, -0.629018, 650.775907, 545.299265)" fill="none" stroke-linejoin="miter" d="M 14.001079 14.001444 L 105.102793 14.001666 " stroke="#ffffff" stroke-width="28" stroke-opacity="1" stroke-miterlimit="4"/><path stroke-linecap="round" transform="matrix(-0.629018, 0.408456, -0.408456, -0.629018, 651.244315, 495.467227)" fill="none" stroke-linejoin="miter" d="M 14.000701 14.001189 L 105.102415 14.001411 " stroke="#ffffff" stroke-width="28" stroke-opacity="1" stroke-miterlimit="4"/><path stroke-linecap="round" transform="matrix(-0.629018, 0.408456, -0.408456, -0.629018, 652.744315, 441.762622)" fill="none" stroke-linejoin="miter" d="M 14.001776 13.999533 L 105.10349 13.999755 " stroke="#ffffff" stroke-width="28" stroke-opacity="1" stroke-miterlimit="4"/><path stroke-linecap="round" transform="matrix(0.477897, 0.578026, -0.578026, 0.477897, 228.341126, 402.340517)" fill="none" stroke-linejoin="miter" d="M 14.000062 14.003184 L 175.625159 13.999611 " stroke="#ffffff" stroke-width="28" stroke-opacity="1" stroke-miterlimit="4"/><path stroke-linecap="round" transform="matrix(0.000000001309, 0.75, -0.75, 0.000000001309, 236.74612, 411.682679)" fill="none" stroke-linejoin="miter" d="M 14.00122 14.000035 L 139.568935 14.000035 " stroke="#ffffff" stroke-width="28" stroke-opacity="1" stroke-miterlimit="4"/><path stroke-linecap="round" transform="matrix(-0.74769, 0.0588126, -0.0588126, -0.74769, 311.682967, 521.229498)" fill="none" stroke-linejoin="miter" d="M 14.001804 13.999167 L 107.20018 14.000198 " stroke="#ffffff" stroke-width="28" stroke-opacity="1" stroke-miterlimit="4"/></svg>