<svg xmlns="http://www.w3.org/2000/svg" xmlns:xlink="http://www.w3.org/1999/xlink" width="1080" zoomAndPan="magnify" viewBox="0 0 810 809.999993" height="1080" preserveAspectRatio="xMidYMid meet" version="1.0"><defs><clipPath id="a77e375d9d"><path d="M 105.261719 56.214844 L 704.511719 56.214844 L 704.511719 753.710938 L 105.261719 753.710938 Z M 105.261719 56.214844 " clip-rule="nonzero"/></clipPath><clipPath id="4ae9cc5ff1"><path d="M 404.996094 56.214844 L 704.734375 230.605469 L 704.734375 579.390625 L 404.996094 753.78125 L 105.261719 579.390625 L 105.261719 230.605469 Z M 404.996094 56.214844 " clip-rule="nonzero"/></clipPath><clipPath id="96837b0384"><path d="M 240.269531 244 L 562 244 L 562 565.703125 L 240.269531 565.703125 Z M 240.269531 244 " clip-rule="nonzero"/></clipPath></defs><g clip-path="url(#a77e375d9d)"><g clip-path="url(#4ae9cc5ff1)"><path stroke-linecap="butt" transform="matrix(0.75, 0, 0, 0.75, 105.260439, 56.213242)" fill="none" stroke-linejoin="miter" d="M 399.647585 0.0021357 L 799.298673 232.522996 L 799.298673 697.569924 L 399.647585 930.090784 L 0.00170633 697.569924 L 0.00170633 232.522996 Z M 399.647585 0.0021357 " stroke="#ffffff" stroke-width="100" stroke-opacity="1" stroke-miterlimit="4"/></g></g><g clip-path="url(#96837b0384)"><path fill="#ffffff" d="M 513.957031 517.96875 L 466.355469 517.96875 L 466.355469 443.433594 C 466.355469 425.660156 466.039062 402.78125 441.601562 402.78125 C 417.167969 402.78125 413.019531 422.144531 413.019531 442.144531 L 413.019531 517.96875 L 365.417969 517.96875 L 365.417969 364.691406 L 411.109375 364.691406 L 411.109375 385.644531 L 411.746094 385.644531 C 421.058594 369.714844 438.394531 360.191406 456.832031 360.890625 C 505.070312 360.890625 513.972656 392.625 513.972656 433.894531 L 513.972656 517.984375 Z M 311.730469 343.734375 C 296.46875 343.734375 284.117188 331.382812 284.101562 316.121094 C 284.085938 300.859375 296.453125 288.503906 311.714844 288.488281 C 326.976562 288.488281 339.332031 300.84375 339.347656 316.105469 C 339.363281 331.367188 326.992188 343.722656 311.730469 343.734375 M 335.53125 517.96875 L 287.886719 517.96875 L 287.886719 364.691406 L 335.53125 364.691406 Z M 537.683594 244.296875 L 263.980469 244.296875 C 251.035156 244.160156 240.421875 254.515625 240.269531 267.460938 L 240.269531 542.3125 C 240.421875 555.257812 251.035156 565.628906 263.980469 565.492188 L 537.695312 565.492188 C 550.671875 565.660156 561.316406 555.289062 561.496094 542.3125 L 561.496094 267.429688 C 561.300781 254.46875 550.65625 244.113281 537.683594 244.28125 " fill-opacity="1" fill-rule="nonzero"/></g></svg>