<svg xmlns="http://www.w3.org/2000/svg" xmlns:xlink="http://www.w3.org/1999/xlink" width="1080" zoomAndPan="magnify" viewBox="0 0 810 809.999993" height="1080" preserveAspectRatio="xMidYMid meet" version="1.0"><defs><filter x="0%" y="0%" width="100%" height="100%" id="938580aebe"><feColorMatrix values="0 0 0 0 1 0 0 0 0 1 0 0 0 0 1 0 0 0 1 0" color-interpolation-filters="sRGB"/></filter><clipPath id="75ce167175"><path d="M 105.261719 56.214844 L 704.511719 56.214844 L 704.511719 753.710938 L 105.261719 753.710938 Z M 105.261719 56.214844 " clip-rule="nonzero"/></clipPath><clipPath id="af840e0800"><path d="M 404.996094 56.214844 L 704.734375 230.605469 L 704.734375 579.390625 L 404.996094 753.78125 L 105.261719 579.390625 L 105.261719 230.605469 Z M 404.996094 56.214844 " clip-rule="nonzero"/></clipPath><mask id="ec49e6a188"><g filter="url(#938580aebe)"><rect x="-81" width="972" fill="#000000" y="-80.999999" height="971.999992" fill-opacity="0.3"/></g></mask><clipPath id="b6cf646caa"><path d="M 4 0.121094 L 294 0.121094 L 294 234 L 4 234 Z M 4 0.121094 " clip-rule="nonzero"/></clipPath><clipPath id="140467c44a"><rect x="0" width="300" y="0" height="240"/></clipPath></defs><g clip-path="url(#75ce167175)"><g clip-path="url(#af840e0800)"><path stroke-linecap="butt" transform="matrix(0.75, 0, 0, 0.75, 105.260439, 56.212176)" fill="none" stroke-linejoin="miter" d="M 399.647585 0.0035565 L 799.298673 232.524416 L 799.298673 697.571345 L 399.647585 930.092204 L 0.00170633 697.571345 L 0.00170633 232.524416 Z M 399.647585 0.0035565 " stroke="#ffffff" stroke-width="100" stroke-opacity="1" stroke-miterlimit="4"/></g></g><path fill="#ffffff" d="M 385.359375 414.578125 C 385.511719 414.941406 385.625 415.3125 385.703125 415.699219 C 385.785156 416.082031 385.824219 416.472656 385.828125 416.863281 C 385.832031 417.257812 385.796875 417.648438 385.726562 418.03125 C 385.65625 418.417969 385.546875 418.792969 385.402344 419.160156 C 385.257812 419.523438 385.082031 419.875 384.871094 420.203125 C 384.660156 420.535156 384.417969 420.84375 384.148438 421.128906 C 383.878906 421.414062 383.582031 421.667969 383.261719 421.894531 C 382.945312 422.125 382.605469 422.320312 382.246094 422.480469 C 379.796875 423.542969 377.300781 424.480469 374.753906 425.289062 C 372.207031 426.09375 369.628906 426.769531 367.011719 427.3125 C 364.398438 427.855469 361.761719 428.265625 359.105469 428.539062 C 356.449219 428.808594 353.785156 428.945312 351.113281 428.945312 C 348.445312 428.945312 345.78125 428.808594 343.121094 428.539062 C 340.464844 428.265625 337.832031 427.855469 335.214844 427.3125 C 332.601562 426.769531 330.019531 426.09375 327.472656 425.289062 C 324.929688 424.480469 322.429688 423.542969 319.980469 422.480469 C 319.617188 422.324219 319.277344 422.132812 318.953125 421.910156 C 318.628906 421.683594 318.328125 421.429688 318.054688 421.144531 C 317.78125 420.863281 317.539062 420.554688 317.324219 420.222656 C 317.109375 419.890625 316.933594 419.542969 316.789062 419.175781 C 316.644531 418.808594 316.535156 418.429688 316.464844 418.042969 C 316.394531 417.652344 316.363281 417.261719 316.371094 416.867188 C 316.378906 416.472656 316.421875 416.085938 316.507812 415.699219 C 316.589844 415.3125 316.710938 414.941406 316.867188 414.578125 C 317.023438 414.214844 317.214844 413.875 317.441406 413.550781 C 317.664062 413.226562 317.917969 412.925781 318.203125 412.652344 C 318.488281 412.378906 318.792969 412.136719 319.125 411.921875 C 319.457031 411.707031 319.808594 411.53125 320.175781 411.386719 C 320.542969 411.242188 320.917969 411.132812 321.308594 411.0625 C 321.695312 410.992188 322.085938 410.960938 322.480469 410.96875 C 322.875 410.976562 323.265625 411.019531 323.648438 411.105469 C 324.035156 411.1875 324.410156 411.308594 324.769531 411.464844 C 328.933594 413.242188 333.234375 414.585938 337.667969 415.496094 C 342.105469 416.402344 346.585938 416.855469 351.113281 416.855469 C 355.640625 416.855469 360.125 416.402344 364.558594 415.496094 C 368.996094 414.585938 373.292969 413.242188 377.457031 411.464844 C 377.820312 411.3125 378.195312 411.199219 378.578125 411.121094 C 378.964844 411.042969 379.351562 411 379.746094 410.996094 C 380.136719 410.996094 380.527344 411.027344 380.914062 411.097656 C 381.296875 411.171875 381.675781 411.277344 382.039062 411.421875 C 382.40625 411.566406 382.753906 411.742188 383.082031 411.953125 C 383.414062 412.164062 383.722656 412.40625 384.007812 412.675781 C 384.292969 412.949219 384.546875 413.242188 384.777344 413.5625 C 385.003906 413.882812 385.199219 414.222656 385.359375 414.578125 Z M 351.113281 273.28125 C 346.417969 273.265625 341.757812 273.675781 337.136719 274.515625 C 332.515625 275.355469 328.011719 276.609375 323.621094 278.277344 C 319.230469 279.945312 315.027344 282 311.015625 284.441406 C 307 286.882812 303.246094 289.667969 299.742188 292.800781 C 299.507812 293.070312 299.300781 293.363281 299.117188 293.675781 C 298.933594 293.984375 298.78125 294.308594 298.65625 294.648438 C 298.53125 294.984375 298.4375 295.332031 298.375 295.6875 C 298.3125 296.042969 298.285156 296.398438 298.289062 296.761719 C 298.289062 297.121094 298.324219 297.476562 298.394531 297.832031 C 298.460938 298.1875 298.558594 298.53125 298.6875 298.867188 C 298.820312 299.203125 298.976562 299.527344 299.164062 299.832031 C 299.351562 300.140625 299.566406 300.429688 299.804688 300.699219 C 300.046875 300.96875 300.308594 301.210938 300.59375 301.433594 C 300.875 301.65625 301.179688 301.851562 301.496094 302.015625 C 301.816406 302.183594 302.148438 302.320312 302.492188 302.429688 C 302.835938 302.535156 303.1875 302.613281 303.546875 302.65625 C 303.902344 302.699219 304.261719 302.710938 304.621094 302.691406 C 304.980469 302.667969 305.335938 302.617188 305.6875 302.53125 C 306.039062 302.445312 306.378906 302.332031 306.707031 302.183594 C 307.035156 302.039062 307.347656 301.863281 307.648438 301.660156 C 309.132812 300.351562 310.675781 299.109375 312.273438 297.941406 C 313.871094 296.769531 315.515625 295.675781 317.214844 294.65625 C 318.910156 293.632812 320.648438 292.691406 322.429688 291.828125 C 324.210938 290.960938 326.027344 290.179688 327.882812 289.480469 C 329.734375 288.78125 331.613281 288.167969 333.523438 287.636719 C 335.429688 287.105469 337.359375 286.664062 339.304688 286.308594 C 341.253906 285.953125 343.214844 285.683594 345.1875 285.507812 C 347.15625 285.328125 349.132812 285.238281 351.113281 285.238281 C 353.09375 285.238281 355.070312 285.328125 357.042969 285.507812 C 359.015625 285.683594 360.972656 285.953125 362.921875 286.308594 C 364.871094 286.664062 366.796875 287.105469 368.707031 287.636719 C 370.613281 288.167969 372.496094 288.78125 374.347656 289.480469 C 376.199219 290.179688 378.015625 290.960938 379.796875 291.828125 C 381.578125 292.691406 383.320312 293.632812 385.015625 294.65625 C 386.710938 295.675781 388.359375 296.769531 389.957031 297.941406 C 391.554688 299.109375 393.09375 300.351562 394.582031 301.660156 C 395.109375 302.171875 395.714844 302.566406 396.402344 302.835938 C 397.085938 303.105469 397.796875 303.230469 398.53125 303.214844 C 399.382812 303.207031 400.191406 303.023438 400.964844 302.671875 C 401.738281 302.316406 402.402344 301.820312 402.964844 301.179688 C 403.25 300.914062 403.503906 300.617188 403.730469 300.296875 C 403.957031 299.976562 404.148438 299.632812 404.304688 299.273438 C 404.460938 298.914062 404.578125 298.539062 404.65625 298.15625 C 404.738281 297.769531 404.777344 297.382812 404.777344 296.988281 C 404.777344 296.597656 404.738281 296.207031 404.65625 295.824219 C 404.578125 295.441406 404.460938 295.066406 404.304688 294.707031 C 404.148438 294.347656 403.957031 294.003906 403.730469 293.683594 C 403.503906 293.363281 403.25 293.066406 402.964844 292.800781 C 399.433594 289.640625 395.640625 286.832031 391.589844 284.378906 C 387.539062 281.921875 383.296875 279.859375 378.863281 278.191406 C 374.429688 276.523438 369.882812 275.273438 365.214844 274.449219 C 360.550781 273.625 355.851562 273.234375 351.113281 273.28125 Z M 584.613281 546.296875 C 584.628906 548.289062 584.445312 550.261719 584.066406 552.214844 C 583.683594 554.171875 583.113281 556.070312 582.351562 557.910156 C 581.59375 559.75 580.65625 561.496094 579.546875 563.152344 C 578.433594 564.804688 577.171875 566.332031 575.753906 567.730469 L 567.730469 575.753906 C 567.03125 576.453125 566.300781 577.121094 565.535156 577.75 C 564.769531 578.378906 563.976562 578.96875 563.152344 579.519531 C 562.332031 580.074219 561.484375 580.582031 560.609375 581.050781 C 559.738281 581.519531 558.84375 581.941406 557.929688 582.320312 C 557.011719 582.703125 556.082031 583.035156 555.132812 583.324219 C 554.1875 583.613281 553.226562 583.851562 552.257812 584.046875 C 551.285156 584.238281 550.304688 584.386719 549.320312 584.484375 C 548.335938 584.578125 547.347656 584.628906 546.355469 584.628906 C 545.367188 584.628906 544.378906 584.578125 543.390625 584.484375 C 542.40625 584.386719 541.429688 584.238281 540.457031 584.046875 C 539.484375 583.851562 538.527344 583.613281 537.578125 583.324219 C 536.628906 583.035156 535.699219 582.703125 534.785156 582.320312 C 533.871094 581.941406 532.976562 581.519531 532.101562 581.050781 C 531.230469 580.582031 530.382812 580.074219 529.558594 579.519531 C 528.734375 578.96875 527.941406 578.378906 527.175781 577.75 C 526.414062 577.121094 525.679688 576.453125 524.980469 575.753906 L 444.035156 494.804688 C 443.617188 494.394531 443.21875 493.960938 442.84375 493.507812 C 442.464844 493.050781 442.113281 492.582031 441.785156 492.09375 C 441.457031 491.605469 441.152344 491.101562 440.871094 490.585938 C 440.589844 490.066406 440.339844 489.535156 440.109375 488.992188 C 439.882812 488.449219 439.683594 487.894531 439.511719 487.332031 C 439.339844 486.769531 439.195312 486.199219 439.082031 485.621094 C 438.964844 485.042969 438.878906 484.460938 438.820312 483.875 C 438.761719 483.289062 438.730469 482.703125 438.730469 482.113281 C 438.730469 481.523438 438.761719 480.9375 438.820312 480.351562 C 438.878906 479.765625 438.964844 479.183594 439.082031 478.605469 C 439.195312 478.027344 439.339844 477.457031 439.511719 476.894531 C 439.683594 476.332031 439.882812 475.777344 440.109375 475.234375 C 440.339844 474.691406 440.589844 474.160156 440.871094 473.644531 C 441.152344 473.125 441.457031 472.621094 441.785156 472.132812 C 442.113281 471.644531 442.464844 471.175781 442.84375 470.722656 C 443.21875 470.269531 443.617188 469.835938 444.035156 469.421875 L 426.074219 451.820312 C 420.707031 455.859375 415.054688 459.441406 409.109375 462.566406 C 403.164062 465.6875 397.003906 468.316406 390.632812 470.441406 C 384.261719 472.570312 377.761719 474.167969 371.132812 475.242188 C 364.503906 476.316406 357.832031 476.851562 351.113281 476.84375 C 348.761719 476.855469 346.414062 476.800781 344.066406 476.679688 C 341.714844 476.558594 339.375 476.375 337.035156 476.121094 C 334.699219 475.871094 332.367188 475.554688 330.046875 475.171875 C 327.726562 474.789062 325.421875 474.34375 323.125 473.835938 C 320.828125 473.324219 318.550781 472.75 316.285156 472.113281 C 314.023438 471.476562 311.78125 470.773438 309.554688 470.011719 C 307.332031 469.25 305.128906 468.425781 302.953125 467.539062 C 300.773438 466.652344 298.621094 465.707031 296.496094 464.699219 C 294.371094 463.695312 292.277344 462.628906 290.210938 461.507812 C 288.144531 460.382812 286.109375 459.203125 284.109375 457.96875 C 282.109375 456.730469 280.148438 455.441406 278.21875 454.09375 C 276.292969 452.746094 274.402344 451.347656 272.554688 449.898438 C 270.703125 448.445312 268.894531 446.941406 267.128906 445.390625 C 265.363281 443.839844 263.640625 442.238281 261.964844 440.589844 C 260.289062 438.941406 258.660156 437.246094 257.078125 435.507812 C 255.496094 433.765625 253.964844 431.984375 252.480469 430.160156 C 251 428.332031 249.570312 426.46875 248.191406 424.5625 C 246.8125 422.65625 245.488281 420.714844 244.21875 418.738281 C 242.949219 416.757812 241.734375 414.746094 240.578125 412.699219 C 239.421875 410.652344 238.320312 408.574219 237.28125 406.464844 C 236.238281 404.355469 235.257812 402.222656 234.335938 400.058594 C 233.414062 397.894531 232.550781 395.707031 231.75 393.496094 C 230.953125 391.285156 230.214844 389.054688 229.539062 386.800781 C 228.863281 384.550781 228.25 382.28125 227.703125 379.992188 C 227.152344 377.707031 226.667969 375.40625 226.25 373.09375 C 225.828125 370.78125 225.472656 368.457031 225.183594 366.125 C 224.890625 363.789062 224.667969 361.449219 224.507812 359.105469 C 224.347656 356.757812 224.253906 354.410156 224.222656 352.058594 C 224.195312 349.707031 224.234375 347.355469 224.335938 345.007812 C 224.4375 342.660156 224.605469 340.3125 224.839844 337.972656 C 225.074219 335.632812 225.371094 333.304688 225.734375 330.980469 C 226.097656 328.65625 226.527344 326.347656 227.019531 324.046875 C 227.511719 321.746094 228.066406 319.464844 228.6875 317.195312 C 229.308594 314.925781 229.992188 312.679688 230.738281 310.449219 C 231.484375 308.21875 232.289062 306.011719 233.160156 303.828125 C 234.027344 301.640625 234.957031 299.480469 235.949219 297.347656 C 236.9375 295.214844 237.984375 293.113281 239.09375 291.039062 C 240.199219 288.964844 241.363281 286.921875 242.585938 284.914062 C 243.804688 282.902344 245.082031 280.929688 246.414062 278.992188 C 247.746094 277.050781 249.128906 275.152344 250.566406 273.292969 C 252.003906 271.429688 253.492188 269.613281 255.03125 267.835938 C 256.570312 266.054688 258.15625 264.324219 259.792969 262.632812 C 261.429688 260.945312 263.109375 259.300781 264.839844 257.707031 C 266.566406 256.113281 268.335938 254.566406 270.152344 253.070312 C 271.964844 251.574219 273.820312 250.128906 275.710938 248.734375 C 277.605469 247.34375 279.539062 246.003906 281.507812 244.71875 C 283.476562 243.433594 285.480469 242.203125 287.519531 241.03125 C 289.558594 239.859375 291.625 238.742188 293.726562 237.6875 C 295.828125 236.628906 297.953125 235.628906 300.109375 234.691406 C 302.265625 233.753906 304.445312 232.875 306.652344 232.058594 C 308.855469 231.242188 311.082031 230.484375 313.328125 229.792969 C 315.578125 229.101562 317.839844 228.472656 320.121094 227.90625 C 322.40625 227.339844 324.703125 226.835938 327.011719 226.398438 C 329.320312 225.960938 331.640625 225.585938 333.972656 225.277344 C 336.304688 224.96875 338.644531 224.726562 340.988281 224.550781 C 343.332031 224.371094 345.679688 224.257812 348.03125 224.210938 C 350.382812 224.164062 352.730469 224.183594 355.082031 224.269531 C 357.433594 224.351562 359.777344 224.503906 362.117188 224.71875 C 364.460938 224.933594 366.792969 225.214844 369.121094 225.558594 C 371.445312 225.90625 373.761719 226.316406 376.0625 226.792969 C 378.367188 227.265625 380.652344 227.804688 382.925781 228.40625 C 385.199219 229.011719 387.453125 229.675781 389.6875 230.40625 C 391.925781 231.132812 394.140625 231.925781 396.332031 232.777344 C 398.523438 233.628906 400.6875 234.542969 402.828125 235.515625 C 404.96875 236.488281 407.082031 237.519531 409.164062 238.609375 C 411.246094 239.703125 413.296875 240.851562 415.316406 242.054688 C 417.335938 243.261719 419.320312 244.523438 421.265625 245.839844 C 423.214844 247.15625 425.125 248.523438 426.996094 249.949219 C 428.871094 251.371094 430.699219 252.84375 432.488281 254.371094 C 434.277344 255.894531 436.023438 257.46875 437.726562 259.09375 C 439.429688 260.714844 441.082031 262.382812 442.691406 264.097656 C 444.300781 265.8125 445.859375 267.574219 447.371094 269.375 C 448.878906 271.175781 450.339844 273.019531 451.746094 274.902344 C 453.152344 276.789062 454.507812 278.710938 455.808594 280.667969 C 457.109375 282.628906 458.351562 284.621094 459.542969 286.652344 C 460.730469 288.679688 461.859375 290.738281 462.933594 292.832031 C 464.007812 294.921875 465.023438 297.042969 465.976562 299.191406 C 466.933594 301.339844 467.828125 303.515625 468.664062 305.714844 C 469.496094 307.910156 470.269531 310.132812 470.976562 312.375 C 471.6875 314.613281 472.335938 316.875 472.917969 319.152344 C 473.503906 321.429688 474.023438 323.722656 474.476562 326.03125 C 474.933594 328.335938 475.324219 330.652344 475.652344 332.984375 C 475.976562 335.3125 476.238281 337.648438 476.433594 339.992188 C 476.628906 342.332031 476.761719 344.679688 476.824219 347.03125 C 476.890625 349.382812 476.890625 351.730469 476.824219 354.082031 C 476.757812 356.433594 476.625 358.78125 476.429688 361.121094 C 476.230469 363.464844 475.96875 365.800781 475.640625 368.128906 C 475.3125 370.457031 474.917969 372.777344 474.460938 375.082031 C 474.003906 377.390625 473.484375 379.679688 472.898438 381.957031 C 472.3125 384.234375 471.664062 386.496094 470.953125 388.734375 C 470.242188 390.976562 469.46875 393.195312 468.632812 395.394531 C 467.796875 397.59375 466.902344 399.765625 465.945312 401.914062 C 464.988281 404.0625 463.972656 406.183594 462.898438 408.273438 C 461.824219 410.363281 460.691406 412.421875 459.5 414.453125 C 458.3125 416.480469 457.066406 418.472656 455.765625 420.429688 C 454.460938 422.390625 453.105469 424.3125 451.699219 426.195312 L 469.78125 443.796875 C 470.191406 443.390625 470.625 443.003906 471.074219 442.640625 C 471.523438 442.277344 471.988281 441.9375 472.472656 441.617188 C 472.953125 441.300781 473.453125 441.007812 473.960938 440.734375 C 474.472656 440.464844 474.996094 440.222656 475.53125 440.003906 C 476.066406 439.785156 476.613281 439.589844 477.167969 439.425781 C 477.71875 439.257812 478.28125 439.121094 478.847656 439.007812 C 479.414062 438.894531 479.988281 438.8125 480.5625 438.757812 C 481.136719 438.699219 481.714844 438.671875 482.292969 438.671875 C 482.871094 438.671875 483.449219 438.699219 484.023438 438.757812 C 484.601562 438.8125 485.171875 438.894531 485.738281 439.007812 C 486.304688 439.121094 486.867188 439.257812 487.421875 439.425781 C 487.972656 439.589844 488.519531 439.785156 489.054688 440.003906 C 489.589844 440.222656 490.113281 440.464844 490.625 440.734375 C 491.136719 441.007812 491.632812 441.300781 492.113281 441.617188 C 492.597656 441.9375 493.0625 442.277344 493.515625 442.640625 C 493.964844 443.003906 494.394531 443.390625 494.804688 443.796875 L 575.753906 524.742188 C 577.179688 526.148438 578.453125 527.679688 579.570312 529.34375 C 580.6875 531.003906 581.625 532.761719 582.386719 534.613281 C 583.148438 536.464844 583.714844 538.375 584.089844 540.34375 C 584.464844 542.308594 584.640625 544.292969 584.613281 546.296875 Z M 351.113281 452.894531 C 352.78125 452.894531 354.445312 452.855469 356.109375 452.773438 C 357.773438 452.691406 359.433594 452.570312 361.089844 452.40625 C 362.75 452.242188 364.402344 452.039062 366.046875 451.792969 C 367.695312 451.550781 369.335938 451.265625 370.972656 450.941406 C 372.605469 450.617188 374.230469 450.25 375.84375 449.847656 C 377.460938 449.441406 379.066406 448.996094 380.660156 448.511719 C 382.253906 448.03125 383.835938 447.507812 385.402344 446.945312 C 386.972656 446.386719 388.527344 445.785156 390.0625 445.148438 C 391.601562 444.511719 393.125 443.835938 394.632812 443.125 C 396.136719 442.410156 397.625 441.664062 399.09375 440.878906 C 400.5625 440.09375 402.011719 439.273438 403.441406 438.414062 C 404.871094 437.558594 406.277344 436.667969 407.660156 435.742188 C 409.046875 434.816406 410.40625 433.859375 411.746094 432.867188 C 413.082031 431.875 414.394531 430.847656 415.683594 429.792969 C 416.972656 428.734375 418.234375 427.648438 419.464844 426.53125 C 420.699219 425.410156 421.90625 424.261719 423.085938 423.085938 C 424.261719 421.90625 425.410156 420.699219 426.53125 419.46875 C 427.648438 418.234375 428.734375 416.972656 429.792969 415.683594 C 430.847656 414.394531 431.875 413.082031 432.867188 411.746094 C 433.859375 410.40625 434.816406 409.046875 435.742188 407.660156 C 436.667969 406.277344 437.558594 404.871094 438.414062 403.441406 C 439.273438 402.011719 440.09375 400.5625 440.878906 399.09375 C 441.664062 397.625 442.410156 396.136719 443.125 394.632812 C 443.835938 393.125 444.511719 391.601562 445.148438 390.0625 C 445.785156 388.527344 446.386719 386.972656 446.945312 385.402344 C 447.507812 383.835938 448.03125 382.253906 448.511719 380.660156 C 448.996094 379.066406 449.441406 377.460938 449.847656 375.84375 C 450.25 374.230469 450.617188 372.605469 450.941406 370.972656 C 451.265625 369.335938 451.550781 367.695312 451.792969 366.046875 C 452.039062 364.402344 452.242188 362.75 452.40625 361.089844 C 452.570312 359.433594 452.691406 357.773438 452.773438 356.109375 C 452.855469 354.445312 452.894531 352.78125 452.894531 351.113281 C 452.894531 349.449219 452.855469 347.785156 452.773438 346.121094 C 452.691406 344.457031 452.570312 342.796875 452.40625 341.136719 C 452.242188 339.480469 452.039062 337.828125 451.792969 336.179688 C 451.550781 334.53125 451.265625 332.890625 450.941406 331.257812 C 450.617188 329.625 450.25 328 449.847656 326.382812 C 449.441406 324.765625 448.996094 323.164062 448.511719 321.570312 C 448.03125 319.972656 447.507812 318.394531 446.945312 316.824219 C 446.386719 315.257812 445.785156 313.703125 445.148438 312.164062 C 444.511719 310.625 443.835938 309.101562 443.125 307.597656 C 442.410156 306.089844 441.664062 304.601562 440.878906 303.132812 C 440.09375 301.664062 439.273438 300.214844 438.414062 298.789062 C 437.558594 297.359375 436.667969 295.953125 435.742188 294.566406 C 434.816406 293.183594 433.859375 291.820312 432.867188 290.484375 C 431.875 289.144531 430.847656 287.832031 429.792969 286.542969 C 428.734375 285.257812 427.648438 283.996094 426.53125 282.761719 C 425.410156 281.527344 424.261719 280.320312 423.085938 279.144531 C 421.90625 277.964844 420.699219 276.816406 419.464844 275.699219 C 418.234375 274.578125 416.972656 273.492188 415.683594 272.433594 C 414.394531 271.378906 413.082031 270.355469 411.746094 269.363281 C 410.40625 268.371094 409.046875 267.410156 407.660156 266.484375 C 406.277344 265.558594 404.871094 264.667969 403.441406 263.8125 C 402.011719 262.957031 400.5625 262.136719 399.09375 261.351562 C 397.625 260.566406 396.136719 259.816406 394.632812 259.105469 C 393.125 258.390625 391.601562 257.71875 390.0625 257.078125 C 388.527344 256.441406 386.972656 255.84375 385.402344 255.28125 C 383.835938 254.71875 382.253906 254.199219 380.660156 253.714844 C 379.066406 253.230469 377.460938 252.785156 375.84375 252.382812 C 374.230469 251.976562 372.605469 251.613281 370.972656 251.289062 C 369.335938 250.960938 367.695312 250.679688 366.046875 250.433594 C 364.402344 250.1875 362.75 249.984375 361.089844 249.820312 C 359.433594 249.660156 357.773438 249.535156 356.109375 249.453125 C 354.445312 249.371094 352.78125 249.332031 351.113281 249.332031 C 349.449219 249.332031 347.785156 249.371094 346.121094 249.453125 C 344.457031 249.535156 342.796875 249.660156 341.136719 249.820312 C 339.480469 249.984375 337.828125 250.1875 336.179688 250.433594 C 334.53125 250.679688 332.890625 250.960938 331.257812 251.289062 C 329.625 251.613281 328 251.976562 326.382812 252.382812 C 324.765625 252.785156 323.164062 253.230469 321.566406 253.714844 C 319.972656 254.199219 318.394531 254.71875 316.824219 255.28125 C 315.257812 255.84375 313.703125 256.441406 312.164062 257.078125 C 310.625 257.71875 309.101562 258.390625 307.597656 259.105469 C 306.089844 259.816406 304.601562 260.566406 303.132812 261.351562 C 301.664062 262.136719 300.214844 262.957031 298.789062 263.8125 C 297.359375 264.667969 295.953125 265.558594 294.566406 266.484375 C 293.183594 267.410156 291.820312 268.371094 290.484375 269.363281 C 289.144531 270.355469 287.832031 271.378906 286.542969 272.433594 C 285.257812 273.492188 283.996094 274.578125 282.761719 275.699219 C 281.527344 276.816406 280.320312 277.964844 279.144531 279.144531 C 277.964844 280.320312 276.816406 281.527344 275.699219 282.761719 C 274.578125 283.996094 273.492188 285.257812 272.433594 286.542969 C 271.378906 287.832031 270.355469 289.144531 269.363281 290.484375 C 268.371094 291.820312 267.410156 293.183594 266.484375 294.566406 C 265.558594 295.953125 264.667969 297.359375 263.8125 298.789062 C 262.957031 300.214844 262.136719 301.664062 261.351562 303.132812 C 260.566406 304.601562 259.816406 306.089844 259.105469 307.597656 C 258.390625 309.101562 257.71875 310.625 257.078125 312.164062 C 256.441406 313.703125 255.84375 315.257812 255.28125 316.824219 C 254.71875 318.394531 254.199219 319.972656 253.714844 321.570312 C 253.230469 323.164062 252.785156 324.765625 252.382812 326.382812 C 251.976562 328 251.613281 329.625 251.289062 331.257812 C 250.960938 332.890625 250.679688 334.53125 250.433594 336.179688 C 250.1875 337.828125 249.984375 339.480469 249.820312 341.136719 C 249.660156 342.796875 249.535156 344.457031 249.453125 346.121094 C 249.371094 347.785156 249.332031 349.449219 249.332031 351.113281 C 249.332031 352.78125 249.375 354.445312 249.460938 356.105469 C 249.542969 357.769531 249.667969 359.429688 249.832031 361.085938 C 249.996094 362.742188 250.203125 364.394531 250.449219 366.042969 C 250.695312 367.691406 250.980469 369.328125 251.308594 370.960938 C 251.632812 372.59375 252 374.21875 252.40625 375.835938 C 252.8125 377.449219 253.257812 379.054688 253.742188 380.648438 C 254.226562 382.238281 254.75 383.820312 255.3125 385.386719 C 255.875 386.953125 256.472656 388.507812 257.113281 390.046875 C 257.75 391.582031 258.425781 393.105469 259.136719 394.609375 C 259.851562 396.117188 260.601562 397.601562 261.386719 399.070312 C 262.171875 400.539062 262.992188 401.988281 263.847656 403.414062 C 264.707031 404.84375 265.597656 406.25 266.523438 407.632812 C 267.449219 409.015625 268.40625 410.378906 269.398438 411.714844 C 270.390625 413.050781 271.414062 414.363281 272.472656 415.652344 C 273.527344 416.9375 274.617188 418.199219 275.734375 419.433594 C 276.851562 420.667969 278 421.871094 279.179688 423.050781 C 280.355469 424.226562 281.5625 425.375 282.796875 426.492188 C 284.027344 427.613281 285.289062 428.699219 286.578125 429.757812 C 287.863281 430.8125 289.175781 431.835938 290.511719 432.828125 C 291.851562 433.820312 293.210938 434.78125 294.59375 435.707031 C 295.980469 436.632812 297.386719 437.523438 298.8125 438.378906 C 300.242188 439.234375 301.691406 440.058594 303.15625 440.84375 C 304.625 441.628906 306.113281 442.378906 307.617188 443.089844 C 309.121094 443.804688 310.644531 444.476562 312.183594 445.117188 C 313.71875 445.753906 315.273438 446.355469 316.839844 446.917969 C 318.410156 447.480469 319.988281 448.003906 321.582031 448.488281 C 323.175781 448.972656 324.777344 449.417969 326.394531 449.824219 C 328.007812 450.226562 329.632812 450.59375 331.265625 450.921875 C 332.898438 451.246094 334.539062 451.53125 336.183594 451.777344 C 337.832031 452.023438 339.484375 452.230469 341.140625 452.394531 C 342.796875 452.558594 344.457031 452.683594 346.121094 452.769531 C 347.785156 452.851562 349.449219 452.894531 351.113281 452.894531 Z M 452.777344 460.679688 L 461.277344 452.179688 L 444.035156 435.414062 C 441.390625 438.394531 438.597656 441.230469 435.652344 443.914062 Z M 560.546875 546.296875 C 560.558594 545.453125 560.398438 544.648438 560.066406 543.875 C 559.730469 543.101562 559.253906 542.433594 558.628906 541.867188 L 482.113281 464.871094 L 464.871094 482.113281 L 541.507812 558.75 C 541.804688 559.039062 542.128906 559.292969 542.476562 559.519531 C 542.824219 559.746094 543.191406 559.9375 543.574219 560.09375 C 543.960938 560.246094 544.355469 560.367188 544.761719 560.445312 C 545.171875 560.523438 545.582031 560.5625 545.996094 560.5625 C 546.410156 560.5625 546.824219 560.523438 547.230469 560.445312 C 547.636719 560.367188 548.035156 560.246094 548.417969 560.09375 C 548.804688 559.9375 549.167969 559.746094 549.515625 559.519531 C 549.867188 559.292969 550.1875 559.039062 550.488281 558.75 L 558.390625 550.726562 C 559.078125 550.195312 559.625 549.539062 560.019531 548.765625 C 560.417969 547.988281 560.632812 547.167969 560.664062 546.296875 Z M 560.546875 546.296875 " fill-opacity="1" fill-rule="nonzero"/><g mask="url(#ec49e6a188)"><g transform="matrix(1, 0, 0, 1, 285, 345)"><g clip-path="url(#140467c44a)"><g clip-path="url(#b6cf646caa)"><path fill="#ffffff" d="M 293.628906 197.703125 L 257.703125 233.628906 L 167.894531 132.921875 L 197.832031 107.894531 Z M 131.972656 0.128906 C 128.621094 0.128906 127.0625 1.324219 125.984375 6.113281 C 115.566406 49.699219 54.859375 65.984375 15.941406 38.804688 C 12.46875 36.289062 10.433594 35.210938 7.679688 37.007812 C 7.34375 37.214844 7.03125 37.453125 6.742188 37.722656 C 6.457031 37.992188 6.199219 38.289062 5.96875 38.613281 C 5.742188 38.933594 5.546875 39.277344 5.386719 39.636719 C 5.230469 39.996094 5.105469 40.371094 5.023438 40.757812 C 4.941406 41.144531 4.894531 41.53125 4.890625 41.925781 C 4.886719 42.324219 4.917969 42.714844 4.992188 43.101562 C 5.066406 43.488281 5.179688 43.867188 5.328125 44.230469 C 5.476562 44.597656 5.664062 44.941406 5.882812 45.269531 C 6.9375 46.859375 8.054688 48.40625 9.230469 49.90625 C 10.410156 51.410156 11.644531 52.859375 12.9375 54.261719 C 14.230469 55.667969 15.578125 57.015625 16.980469 58.3125 C 18.382812 59.605469 19.832031 60.84375 21.332031 62.023438 C 22.832031 63.203125 24.375 64.320312 25.964844 65.378906 C 27.550781 66.433594 29.179688 67.425781 30.847656 68.355469 C 32.515625 69.28125 34.21875 70.140625 35.953125 70.933594 C 37.691406 71.722656 39.457031 72.445312 41.25 73.097656 C 43.042969 73.746094 44.859375 74.324219 46.699219 74.832031 C 48.539062 75.335938 50.394531 75.769531 52.269531 76.128906 C 54.144531 76.484375 56.03125 76.769531 57.925781 76.976562 C 59.824219 77.183594 61.726562 77.316406 63.632812 77.375 C 65.539062 77.429688 67.445312 77.410156 69.351562 77.316406 C 71.257812 77.21875 73.15625 77.046875 75.046875 76.800781 C 76.941406 76.554688 78.820312 76.234375 80.6875 75.835938 C 82.554688 75.441406 84.402344 74.96875 86.230469 74.425781 C 88.058594 73.882812 89.863281 73.265625 91.644531 72.578125 C 93.421875 71.890625 95.171875 71.136719 96.890625 70.308594 C 98.613281 69.480469 100.296875 68.585938 101.945312 67.625 C 103.59375 66.664062 105.199219 65.640625 106.765625 64.550781 C 108.332031 63.460938 109.855469 62.3125 111.328125 61.101562 C 112.804688 59.890625 114.230469 58.625 115.605469 57.300781 C 116.976562 55.976562 118.296875 54.601562 119.5625 53.171875 C 120.824219 51.742188 122.03125 50.265625 123.179688 48.742188 C 124.324219 47.214844 125.410156 45.648438 126.433594 44.035156 C 127.453125 42.425781 128.410156 40.773438 129.300781 39.085938 C 130.191406 37.398438 131.011719 35.679688 131.765625 33.925781 C 132.519531 32.171875 133.203125 30.394531 133.8125 28.585938 C 134.425781 26.777344 134.964844 24.949219 135.429688 23.097656 C 135.894531 21.25 136.285156 19.382812 136.605469 17.5 C 136.921875 15.621094 137.164062 13.726562 137.328125 11.828125 C 137.496094 9.925781 137.585938 8.023438 137.601562 6.113281 C 137.601562 5.734375 137.566406 5.359375 137.496094 4.988281 C 137.425781 4.617188 137.320312 4.253906 137.183594 3.902344 C 137.042969 3.550781 136.871094 3.214844 136.667969 2.894531 C 136.464844 2.574219 136.234375 2.277344 135.976562 2.003906 C 135.71875 1.726562 135.433594 1.476562 135.128906 1.253906 C 134.820312 1.035156 134.496094 0.84375 134.152344 0.683594 C 133.8125 0.519531 133.457031 0.394531 133.089844 0.300781 C 132.722656 0.207031 132.351562 0.148438 131.972656 0.128906 Z M 131.972656 0.128906 " fill-opacity="1" fill-rule="nonzero"/></g></g></g></g></svg>