<svg xmlns="http://www.w3.org/2000/svg" xmlns:xlink="http://www.w3.org/1999/xlink" width="1080" zoomAndPan="magnify" viewBox="0 0 810 809.999993" height="1080" preserveAspectRatio="xMidYMid meet" version="1.0"><defs><clipPath id="ea15b39726"><path d="M 105.261719 56.214844 L 704.511719 56.214844 L 704.511719 753.710938 L 105.261719 753.710938 Z M 105.261719 56.214844 " clip-rule="nonzero"/></clipPath><clipPath id="ef5e5acba9"><path d="M 404.996094 56.214844 L 704.734375 230.605469 L 704.734375 579.390625 L 404.996094 753.78125 L 105.261719 579.390625 L 105.261719 230.605469 Z M 404.996094 56.214844 " clip-rule="nonzero"/></clipPath><clipPath id="89198317f4"><path d="M 447 332 L 637 332 L 637 642 L 447 642 Z M 447 332 " clip-rule="nonzero"/></clipPath><clipPath id="44c536b68a"><path d="M 468.449219 313.785156 L 656.628906 338.132812 L 615.050781 659.453125 L 426.871094 635.105469 Z M 468.449219 313.785156 " clip-rule="nonzero"/></clipPath><clipPath id="8859e416ed"><path d="M 468.449219 313.785156 L 656.628906 338.132812 L 615.050781 659.453125 L 426.871094 635.105469 Z M 468.449219 313.785156 " clip-rule="nonzero"/></clipPath></defs><g clip-path="url(#ea15b39726)"><g clip-path="url(#ef5e5acba9)"><path stroke-linecap="butt" transform="matrix(0.75, 0, 0, 0.75, 105.260439, 56.212176)" fill="none" stroke-linejoin="miter" d="M 399.647585 0.0035565 L 799.298673 232.524416 L 799.298673 697.571345 L 399.647585 930.092204 L 0.00170633 697.571345 L 0.00170633 232.524416 Z M 399.647585 0.0035565 " stroke="#ffffff" stroke-width="100" stroke-opacity="1" stroke-miterlimit="4"/></g></g><g clip-path="url(#89198317f4)"><g clip-path="url(#44c536b68a)"><g clip-path="url(#8859e416ed)"><path fill="#ffffff" d="M 585.691406 368.789062 L 467.441406 477.480469 L 529.476562 512.65625 C 533.011719 514.644531 534.320312 519.066406 532.496094 522.652344 L 498.152344 604.710938 L 616.402344 496.019531 L 554.367188 460.839844 C 550.832031 458.855469 549.523438 454.433594 551.347656 450.84375 Z M 449.628906 473.414062 L 600.582031 334.660156 C 602.675781 332.574219 605.90625 331.832031 608.808594 333.035156 C 612.65625 334.632812 614.457031 339.042969 612.859375 342.871094 L 567.621094 450.976562 L 632.847656 487.960938 L 632.828125 487.988281 C 633.5 488.363281 634.121094 488.859375 634.671875 489.449219 C 637.488281 492.507812 637.285156 497.269531 634.214844 500.082031 L 483.261719 638.835938 C 481.167969 640.921875 477.9375 641.664062 475.050781 640.464844 C 471.203125 638.867188 469.386719 634.457031 470.984375 630.625 L 516.222656 522.519531 L 450.996094 485.539062 L 451.015625 485.511719 C 450.34375 485.132812 449.722656 484.640625 449.171875 484.046875 C 446.355469 480.992188 446.558594 476.230469 449.628906 473.414062 Z M 449.628906 473.414062 " fill-opacity="1" fill-rule="nonzero"/></g></g></g><path stroke-linecap="butt" transform="matrix(0.649019, 0.375864, -0.375864, 0.649019, 129.614675, 233.38574)" fill="none" stroke-linejoin="miter" d="M -0.000739239 14.001423 L 432.418748 14.001832 " stroke="#ffffff" stroke-width="28" stroke-opacity="1" stroke-miterlimit="4"/><path stroke-linecap="butt" transform="matrix(0.64895, -0.375984, 0.375984, 0.64895, 399.735511, 395.91211)" fill="none" stroke-linejoin="miter" d="M 0.00170934 13.99896 L 432.278863 14.001699 " stroke="#ffffff" stroke-width="28" stroke-opacity="1" stroke-miterlimit="4"/><path stroke-linecap="butt" transform="matrix(0.000000001309, 0.75, -0.75, 0.000000001309, 415.499983, 405)" fill="none" stroke-linejoin="miter" d="M 0.000000475566 13.999977 L 432.000022 13.999978 " stroke="#ffffff" stroke-width="28" stroke-opacity="1" stroke-miterlimit="4"/><path stroke-linecap="round" transform="matrix(0.649519, 0.375, -0.375, 0.649519, 171.311361, 327.454456)" fill="none" stroke-linejoin="miter" d="M 15.999974 16.001396 L 193.366243 16.000428 " stroke="#ffffff" stroke-width="32" stroke-opacity="1" stroke-miterlimit="4"/><path stroke-linecap="round" transform="matrix(0.649519, 0.375, -0.375, 0.649519, 219.565377, 416.358983)" fill="none" stroke-linejoin="miter" d="M 15.998391 15.998948 L 193.364661 15.997979 " stroke="#ffffff" stroke-width="32" stroke-opacity="1" stroke-miterlimit="4"/><path stroke-linecap="round" transform="matrix(0.649519, 0.375, -0.375, 0.649519, 220.315377, 474.606524)" fill="none" stroke-linejoin="miter" d="M 16.000031 16.001787 L 193.3663 16.000819 " stroke="#ffffff" stroke-width="32" stroke-opacity="1" stroke-miterlimit="4"/><path stroke-linecap="round" transform="matrix(0.649519, 0.375, -0.375, 0.649519, 173.561361, 507.220314)" fill="none" stroke-linejoin="miter" d="M 15.999818 16.001126 L 193.366087 16.000158 " stroke="#ffffff" stroke-width="32" stroke-opacity="1" stroke-miterlimit="4"/></svg>