<svg xmlns="http://www.w3.org/2000/svg" xmlns:xlink="http://www.w3.org/1999/xlink" width="1080" zoomAndPan="magnify" viewBox="0 0 810 809.999993" height="1080" preserveAspectRatio="xMidYMid meet" version="1.0"><defs><filter x="0%" y="0%" width="100%" height="100%" id="63d4000aad"><feColorMatrix values="0 0 0 0 1 0 0 0 0 1 0 0 0 0 1 0 0 0 1 0" color-interpolation-filters="sRGB"/></filter><clipPath id="8e6b6bbaa1"><path d="M 105.261719 56.214844 L 704.511719 56.214844 L 704.511719 753.710938 L 105.261719 753.710938 Z M 105.261719 56.214844 " clip-rule="nonzero"/></clipPath><clipPath id="a09b2850c1"><path d="M 404.996094 56.214844 L 704.734375 230.605469 L 704.734375 579.390625 L 404.996094 753.78125 L 105.261719 579.390625 L 105.261719 230.605469 Z M 404.996094 56.214844 " clip-rule="nonzero"/></clipPath><mask id="a7ad61579b"><g filter="url(#63d4000aad)"><rect x="-81" width="972" fill="#000000" y="-80.999999" height="971.999992" fill-opacity="0.3"/></g></mask><clipPath id="ab7ae69cad"><rect x="0" width="311" y="0" height="311"/></clipPath></defs><g clip-path="url(#8e6b6bbaa1)"><g clip-path="url(#a09b2850c1)"><path stroke-linecap="butt" transform="matrix(0.75, 0, 0, 0.75, 105.260439, 56.212176)" fill="none" stroke-linejoin="miter" d="M 399.647585 0.0035565 L 799.298673 232.524416 L 799.298673 697.571345 L 399.647585 930.092204 L 0.00170633 697.571345 L 0.00170633 232.524416 Z M 399.647585 0.0035565 " stroke="#ffffff" stroke-width="100" stroke-opacity="1" stroke-miterlimit="4"/></g></g><path fill="#ffffff" d="M 548.664062 540.503906 L 548.664062 442.351562 L 508.4375 402.125 L 508.4375 504.414062 L 496.945312 492.921875 L 496.945312 390.632812 L 491.195312 384.886719 L 491.195312 487.175781 L 473.957031 469.933594 L 473.957031 356.152344 L 422.238281 304.433594 L 422.238281 418.214844 L 410.746094 406.722656 L 410.746094 292.941406 L 350.40625 232.601562 L 232.601562 232.601562 L 232.601562 350.40625 L 292.941406 410.746094 L 406.722656 410.746094 L 418.214844 422.238281 L 304.433594 422.238281 L 356.152344 473.957031 L 469.933594 473.957031 L 487.175781 491.195312 L 384.886719 491.195312 L 390.632812 496.945312 L 492.921875 496.945312 L 504.414062 508.4375 L 402.125 508.4375 L 442.351562 548.664062 L 540.503906 548.664062 L 569.234375 577.394531 L 577.394531 577.394531 L 577.394531 569.234375 Z M 297.710938 399.25 L 244.09375 345.636719 L 244.09375 248.117188 L 395.230469 399.25 Z M 399.25 395.230469 L 248.117188 244.09375 L 345.808594 244.09375 L 399.25 297.710938 Z M 360.921875 462.464844 L 332.1875 433.730469 L 429.882812 433.730469 L 458.613281 462.464844 Z M 462.464844 458.441406 L 433.730469 429.707031 L 433.730469 332.015625 L 462.464844 360.75 Z M 447.121094 537.167969 L 429.882812 519.929688 L 516.078125 519.929688 L 533.320312 537.167969 Z M 537.167969 533.148438 L 519.929688 515.90625 L 519.929688 429.707031 L 537.167969 446.949219 Z M 537.167969 533.148438 " fill-opacity="1" fill-rule="nonzero"/><g mask="url(#a7ad61579b)"><g transform="matrix(1, 0, 0, 1, 238, 238)"><g clip-path="url(#ab7ae69cad)"><path fill="#ffffff" d="M 144.011719 49.195312 L 144.011719 138.265625 L 138.265625 138.265625 L 144.011719 144.011719 L 49.195312 144.011719 L 60.6875 155.503906 L 155.503906 155.503906 L 155.503906 60.6875 Z M 161.25 66.433594 L 161.25 155.503906 L 155.503906 155.503906 L 169.871094 169.871094 L 169.871094 75.054688 Z M 227.335938 225.902344 L 227.335938 132.519531 L 212.972656 118.152344 L 212.972656 207.222656 L 208.660156 207.222656 L 207.222656 205.789062 L 207.222656 112.40625 L 192.859375 98.039062 L 192.859375 192.859375 L 99.476562 192.859375 L 113.84375 207.222656 L 207.222656 207.222656 L 208.660156 208.660156 L 208.660156 212.972656 L 119.589844 212.972656 L 133.957031 227.335938 L 228.773438 227.335938 Z M 273.308594 201.476562 L 273.308594 273.308594 L 287.675781 287.675781 L 287.675781 215.84375 Z M 126.773438 31.953125 L 126.773438 121.027344 L 121.027344 121.027344 L 126.773438 126.773438 L 31.953125 126.773438 L 43.445312 138.265625 L 138.265625 138.265625 L 138.265625 43.445312 Z M 98.039062 3.222656 L 92.292969 3.222656 L 92.292969 86.546875 L 86.546875 86.546875 L 103.785156 103.785156 L 103.785156 8.96875 Z M 3.222656 3.222656 L 34.828125 34.828125 L 34.828125 3.222656 Z M 40.574219 3.222656 L 40.574219 34.828125 L 34.828125 34.828125 L 52.066406 52.066406 L 52.066406 3.222656 Z M 293.421875 221.589844 L 293.421875 293.421875 L 307.789062 307.789062 L 307.789062 235.957031 Z M 109.53125 14.714844 L 109.53125 103.785156 L 103.785156 103.785156 L 121.027344 121.027344 L 121.027344 26.207031 Z M 57.8125 3.222656 L 57.8125 52.066406 L 52.066406 52.066406 L 69.304688 69.304688 L 69.304688 3.222656 Z M 75.054688 3.222656 L 75.054688 69.304688 L 69.304688 69.304688 L 86.546875 86.546875 L 86.546875 3.222656 Z M 75.054688 3.222656 " fill-opacity="1" fill-rule="nonzero"/></g></g></g></svg>