<svg xmlns="http://www.w3.org/2000/svg" xmlns:xlink="http://www.w3.org/1999/xlink" width="1080" zoomAndPan="magnify" viewBox="0 0 810 809.999993" height="1080" preserveAspectRatio="xMidYMid meet" version="1.0"><defs><clipPath id="2c5a524546"><path d="M 105.261719 56.214844 L 704.511719 56.214844 L 704.511719 753.710938 L 105.261719 753.710938 Z M 105.261719 56.214844 " clip-rule="nonzero"/></clipPath><clipPath id="ca60a6071b"><path d="M 404.996094 56.214844 L 704.734375 230.605469 L 704.734375 579.390625 L 404.996094 753.78125 L 105.261719 579.390625 L 105.261719 230.605469 Z M 404.996094 56.214844 " clip-rule="nonzero"/></clipPath><clipPath id="726db942ae"><path d="M 222.761719 196 L 587.234375 196 L 587.234375 614 L 222.761719 614 Z M 222.761719 196 " clip-rule="nonzero"/></clipPath><clipPath id="a2f0942e60"><path d="M 415.371094 198.972656 L 576.863281 292.933594 C 583.285156 296.667969 587.234375 303.535156 587.234375 310.964844 L 587.234375 499.023438 C 587.234375 506.453125 583.285156 513.320312 576.863281 517.058594 L 415.371094 611.015625 C 408.957031 614.746094 401.039062 614.746094 394.625 611.015625 L 233.132812 517.058594 C 226.710938 513.320312 222.761719 506.453125 222.761719 499.023438 L 222.761719 310.964844 C 222.761719 303.535156 226.710938 296.667969 233.132812 292.933594 L 394.625 198.972656 C 401.039062 195.242188 408.957031 195.242188 415.371094 198.972656 Z M 415.371094 198.972656 " clip-rule="nonzero"/></clipPath></defs><g clip-path="url(#2c5a524546)"><g clip-path="url(#ca60a6071b)"><path stroke-linecap="butt" transform="matrix(0.75, 0, 0, 0.75, 105.260439, 56.212176)" fill="none" stroke-linejoin="miter" d="M 399.647585 0.0035565 L 799.298673 232.524416 L 799.298673 697.571345 L 399.647585 930.092204 L 0.00170633 697.571345 L 0.00170633 232.524416 Z M 399.647585 0.0035565 " stroke="#ffffff" stroke-width="100" stroke-opacity="1" stroke-miterlimit="4"/></g></g><g clip-path="url(#726db942ae)"><g clip-path="url(#a2f0942e60)"><path fill="#ffffff" d="M 457.210938 201.625 L 473.417969 211.054688 L 454.558594 243.46875 L 438.351562 234.039062 Z M 489.625 220.484375 L 505.832031 229.914062 L 486.972656 262.324219 L 470.765625 252.894531 Z M 522.039062 239.339844 L 538.246094 248.769531 L 519.386719 281.183594 L 503.179688 271.753906 Z M 554.449219 258.199219 L 570.65625 267.628906 L 551.800781 300.042969 L 535.59375 290.613281 Z M 587.382812 277.386719 C 592.519531 280.597656 596.699219 284.769531 599.917969 289.902344 C 603.128906 295.011719 605.066406 300.5625 605.738281 306.554688 L 568.46875 310.726562 C 568.394531 310.054688 568.070312 309.535156 567.492188 309.175781 Z M 605.984375 327.410156 L 605.984375 346.160156 L 568.484375 346.160156 L 568.484375 327.410156 Z M 605.984375 364.910156 L 605.984375 383.660156 L 568.484375 383.660156 L 568.484375 364.910156 Z M 605.984375 402.410156 L 605.984375 421.160156 L 568.484375 421.160156 L 568.484375 402.410156 Z M 605.984375 439.910156 L 605.984375 458.660156 L 568.484375 458.660156 L 568.484375 439.910156 Z M 605.984375 477.410156 L 605.984375 496.160156 L 568.484375 496.160156 L 568.484375 477.410156 Z M 594.988281 526.414062 C 592.414062 529.105469 589.511719 531.390625 586.292969 533.265625 L 575.125 539.761719 L 556.265625 507.347656 L 567.433594 500.851562 C 567.605469 500.75 567.761719 500.628906 567.894531 500.488281 Z M 558.917969 549.191406 L 542.710938 558.621094 L 523.851562 526.207031 L 540.058594 516.777344 Z M 526.503906 568.050781 L 510.296875 577.476562 L 491.441406 545.066406 L 507.644531 535.636719 Z M 494.089844 586.90625 L 477.886719 596.335938 L 459.027344 563.925781 L 475.234375 554.496094 Z M 461.679688 605.765625 L 445.472656 615.195312 L 426.613281 582.78125 L 442.820312 573.351562 Z M 429.265625 624.625 L 424.800781 627.222656 C 417.027344 631.746094 408.683594 633.410156 399.769531 632.214844 L 404.746094 595.046875 C 405.171875 595.105469 405.570312 595.027344 405.941406 594.808594 L 410.40625 592.210938 Z M 375.984375 621.863281 L 359.777344 612.433594 L 378.636719 580.019531 L 394.839844 589.449219 Z M 343.570312 603.003906 L 327.363281 593.574219 L 346.222656 561.164062 L 362.429688 570.589844 Z M 311.15625 584.144531 L 294.949219 574.714844 L 313.808594 542.304688 L 330.015625 551.734375 Z M 278.742188 565.289062 L 262.539062 555.859375 L 281.394531 523.445312 L 297.601562 532.875 Z M 246.332031 546.429688 L 230.125 537 L 248.984375 504.585938 L 265.1875 514.015625 Z M 208.855469 518.007812 C 205.625 512.089844 204.011719 505.761719 204.011719 499.023438 L 204.011719 490.667969 L 241.511719 490.667969 L 241.511719 499.023438 C 241.511719 499.382812 241.597656 499.722656 241.769531 500.035156 Z M 204.011719 471.917969 L 204.011719 453.167969 L 241.511719 453.167969 L 241.511719 471.917969 Z M 204.011719 434.417969 L 204.011719 415.667969 L 241.511719 415.667969 L 241.511719 434.417969 Z M 204.011719 396.917969 L 204.011719 378.167969 L 241.511719 378.167969 L 241.511719 396.917969 Z M 204.011719 359.417969 L 204.011719 340.667969 L 241.511719 340.667969 L 241.511719 359.417969 Z M 204.011719 321.917969 L 204.011719 310.964844 C 204.011719 305.953125 204.929688 301.117188 206.765625 296.453125 L 241.65625 310.195312 C 241.558594 310.441406 241.511719 310.699219 241.511719 310.964844 L 241.511719 321.917969 Z M 227.878906 274.296875 L 244.085938 264.867188 L 262.941406 297.28125 L 246.738281 306.710938 Z M 260.289062 255.4375 L 276.496094 246.007812 L 295.355469 278.421875 L 279.148438 287.851562 Z M 292.703125 236.578125 L 308.910156 227.152344 L 327.769531 259.5625 L 311.5625 268.992188 Z M 325.117188 217.722656 L 341.324219 208.292969 L 360.183594 240.707031 L 343.976562 250.132812 Z M 357.53125 198.863281 L 373.738281 189.433594 L 392.59375 221.847656 L 376.390625 231.277344 Z M 394.878906 178.746094 C 405.410156 175.949219 415.382812 177.289062 424.800781 182.765625 L 441.003906 192.195312 L 422.148438 224.609375 L 405.941406 215.179688 C 405.492188 214.917969 405.015625 214.855469 404.515625 214.988281 Z M 394.878906 178.746094 " fill-opacity="1" fill-rule="nonzero"/></g></g><path stroke-linecap="round" transform="matrix(0, 0.75, -0.75, 0, 414.370327, 287.455083)" fill="none" stroke-linejoin="miter" d="M 12.502598 12.498978 L 238.466151 12.498978 " stroke="#ffffff" stroke-width="25" stroke-opacity="1" stroke-miterlimit="4"/><path stroke-linecap="round" transform="matrix(0, 0.75, -0.75, 0, 414.370327, 287.455083)" fill-opacity="1" fill="#ffffff" fill-rule="nonzero" stroke-linejoin="round" d="M 250.966152 -25.001024 L 300.966154 12.498978 L 250.966152 49.99898 Z M 250.966152 -25.001024 " stroke="#ffffff" stroke-width="25" stroke-opacity="1" stroke-miterlimit="4"/></svg>