<?xml version="1.0" encoding="UTF-8" standalone="no"?>
<svg
   id="Layer_1"
   data-name="Layer 1"
   viewBox="0 0 47 47"
   version="1.1"
   sodipodi:docname="icons-discord.svg"
   inkscape:version="1.4.3 (0d15f75042, 2025-12-25)"
   xmlns:inkscape="http://www.inkscape.org/namespaces/inkscape"
   xmlns:sodipodi="http://sodipodi.sourceforge.net/DTD/sodipodi-0.dtd"
   xmlns="http://www.w3.org/2000/svg"
   xmlns:svg="http://www.w3.org/2000/svg">
  <sodipodi:namedview
     id="namedview1"
     pagecolor="#505050"
     bordercolor="#ffffff"
     borderopacity="1"
     inkscape:showpageshadow="0"
     inkscape:pageopacity="0"
     inkscape:pagecheckerboard="1"
     inkscape:deskcolor="#505050"
     inkscape:zoom="16.865249"
     inkscape:cx="23.420941"
     inkscape:cy="26.059503"
     inkscape:window-width="2560"
     inkscape:window-height="1371"
     inkscape:window-x="0"
     inkscape:window-y="0"
     inkscape:window-maximized="1"
     inkscape:current-layer="Layer_1" />
  <defs
     id="defs1">
    <style
       id="style1">.cls-1{fill:#231f20;}</style>
  </defs>
  <path
     d="M 23.5,3.34 6,13.42 V 33.66 L 23.5,43.74 41,33.66 V 13.42 Z M 39,32.5 23.5,41.43 8,32.5 V 14.58 L 23.5,5.65 39,14.58 Z"
     style="fill:#231f20;fill-rule:nonzero"
     id="path1" />
  <path
     id="Discord-Symbol-Black"
     d="m 27.218189,13.425054 c -0.260763,0.462974 -0.494916,0.941919 -0.707765,1.431504 -2.022206,-0.303325 -4.081663,-0.303325 -6.109177,0 -0.207541,-0.489585 -0.447024,-0.96853 -0.707767,-1.431504 -1.899808,0.324627 -3.751724,0.894026 -5.507835,1.697578 -3.48032,5.156617 -4.4222393,10.180176 -3.953934,15.134562 2.038155,1.506008 4.321124,2.655468 6.753079,3.389845 0.548118,-0.734377 1.032393,-1.516648 1.447475,-2.330839 -0.787601,-0.292686 -1.54859,-0.659874 -2.277638,-1.085596 0.19157,-0.138368 0.377828,-0.282045 0.558758,-0.420413 4.273231,2.011565 9.222308,2.011565 13.500849,0 0.18093,0.149008 0.367189,0.292685 0.558758,0.420413 -0.729047,0.431031 -1.490037,0.79291 -2.282947,1.090926 0.415081,0.814192 0.899336,1.596462 1.447475,2.33084 2.431892,-0.734378 4.71484,-1.878528 6.753163,-3.384515 0.553301,-5.747318 -0.947312,-10.728316 -3.964764,-15.139893 -1.750696,-0.803551 -3.602612,-1.372971 -5.50242,-1.692267 z m -8.189914,13.782893 c -1.314417,0 -2.405343,-1.192042 -2.405343,-2.666108 0,-1.474065 1.048343,-2.671438 2.400034,-2.671438 1.35169,0 2.426625,1.202683 2.405344,2.671438 -0.02128,1.468756 -1.058984,2.666108 -2.400035,2.666108 z m 8.865759,0 c -1.319769,0 -2.400034,-1.192042 -2.400034,-2.666108 0,-1.474065 1.048344,-2.671438 2.400034,-2.671438 1.35169,0 2.421315,1.202683 2.400013,2.671438 -0.02128,1.468756 -1.058983,2.666108 -2.400013,2.666108 z"
     style="fill:#231f20;fill-opacity:1;stroke-width:0.210702" />
</svg>
