<svg xmlns="http://www.w3.org/2000/svg" xmlns:xlink="http://www.w3.org/1999/xlink" width="1080" zoomAndPan="magnify" viewBox="0 0 810 809.999993" height="1080" preserveAspectRatio="xMidYMid meet" version="1.0"><path fill="#ffffff" d="M 706.597656 495.996094 L 654.894531 466.527344 L 654.894531 344.679688 L 706.597656 314.867188 L 706.597656 232.140625 L 405 57.734375 L 103.402344 231.28125 L 103.402344 580.097656 L 405 753.644531 L 706.597656 580.097656 Z M 206.808594 506.335938 L 189.574219 517.019531 L 189.574219 363.636719 L 206.808594 373.632812 Z M 215.597656 521.15625 L 405.171875 630.421875 L 637.660156 496.339844 L 654.894531 505.992188 L 405 650.066406 L 198.191406 531.152344 Z M 620.425781 486.6875 L 405.34375 610.429688 L 224.042969 506.164062 L 224.042969 383.457031 L 275.746094 413.617188 L 275.746094 511.679688 L 305.730469 498.410156 L 344.679688 551.488281 L 344.679688 452.910156 L 405 487.378906 L 620.425781 363.636719 Z M 292.980469 423.269531 L 327.445312 443.085938 L 327.445312 498.582031 L 311.074219 474.96875 L 292.980469 484.964844 Z M 672.128906 250.925781 L 405 404.828125 L 137.871094 251.101562 L 405 97.371094 Z M 672.128906 560.105469 L 405 714.007812 L 137.871094 560.105469 L 137.871094 270.917969 L 405 424.820312 L 672.128906 270.746094 L 672.128906 313.832031 L 405 467.730469 L 172.339844 333.996094 L 172.339844 536.152344 L 405 670.058594 L 672.128906 517.019531 Z M 672.128906 560.105469 " fill-opacity="1" fill-rule="nonzero"/></svg>