<svg xmlns="http://www.w3.org/2000/svg" xmlns:xlink="http://www.w3.org/1999/xlink" width="1080" zoomAndPan="magnify" viewBox="0 0 810 809.999993" height="1080" preserveAspectRatio="xMidYMid meet" version="1.0"><defs><clipPath id="86bc7d9cde"><path d="M 105.261719 56.214844 L 704.511719 56.214844 L 704.511719 753.710938 L 105.261719 753.710938 Z M 105.261719 56.214844 " clip-rule="nonzero"/></clipPath><clipPath id="0eba0a7c99"><path d="M 404.996094 56.214844 L 704.734375 230.605469 L 704.734375 579.390625 L 404.996094 753.78125 L 105.261719 579.390625 L 105.261719 230.605469 Z M 404.996094 56.214844 " clip-rule="nonzero"/></clipPath><clipPath id="26cf0eee4e"><path d="M 199.308594 342 L 326.808594 342 L 326.808594 628 L 199.308594 628 Z M 199.308594 342 " clip-rule="nonzero"/></clipPath><clipPath id="d7782eac10"><path d="M 326.808594 420.550781 L 326.808594 616.175781 C 326.808594 619.980469 324.816406 623.507812 321.558594 625.472656 C 318.296875 627.441406 314.25 627.558594 310.882812 625.785156 L 215.242188 575.398438 C 205.449219 570.238281 199.320312 560.078125 199.320312 549.007812 L 199.320312 353.382812 C 199.320312 349.574219 201.308594 346.046875 204.570312 344.082031 C 207.828125 342.117188 211.875 342 215.242188 343.773438 L 310.882812 394.160156 C 320.675781 399.320312 326.808594 409.480469 326.808594 420.550781 Z M 326.808594 420.550781 " clip-rule="nonzero"/></clipPath><clipPath id="9529560f99"><path d="M 220.589844 394 L 305.339844 394 L 305.339844 579 L 220.589844 579 Z M 220.589844 394 " clip-rule="nonzero"/></clipPath><clipPath id="e13ead6fc6"><path d="M 305.339844 449.714844 L 305.339844 571.914062 C 305.339844 574.390625 304.019531 576.679688 301.875 577.917969 C 299.730469 579.15625 297.089844 579.160156 294.945312 577.921875 L 231.183594 541.171875 C 224.753906 537.464844 220.789062 530.605469 220.789062 523.183594 L 220.789062 400.980469 C 220.789062 398.503906 222.109375 396.214844 224.253906 394.976562 C 226.398438 393.738281 229.039062 393.738281 231.183594 394.972656 L 294.945312 431.722656 C 301.375 435.429688 305.339844 442.289062 305.339844 449.714844 Z M 305.339844 449.714844 " clip-rule="nonzero"/></clipPath><clipPath id="ca865d5e08"><path d="M 136 85 L 205 85 L 205 130 L 136 130 Z M 136 85 " clip-rule="nonzero"/></clipPath><clipPath id="96474d8f1c"><path d="M 188.492188 151.179688 L 123.503906 107.726562 L 153.199219 63.316406 L 218.183594 106.773438 Z M 188.492188 151.179688 " clip-rule="nonzero"/></clipPath><clipPath id="7c4c3fd17c"><path d="M 181.644531 146.601562 L 130.988281 112.730469 L 161.199219 67.550781 L 211.855469 101.421875 Z M 181.644531 146.601562 " clip-rule="nonzero"/></clipPath><clipPath id="b8716b2d8c"><path d="M 146.636719 123.191406 L 143.527344 121.117188 C 139.246094 118.253906 136.75 113.378906 136.925781 108.230469 C 137.101562 103.085938 139.925781 98.390625 144.390625 95.828125 L 154.230469 90.179688 C 166.976562 82.859375 182.769531 83.398438 194.988281 91.566406 L 198.09375 93.644531 C 202.375 96.507812 204.875 101.378906 204.699219 106.527344 C 204.523438 111.675781 201.699219 116.367188 197.230469 118.933594 L 187.394531 124.582031 C 174.648438 131.902344 158.855469 131.363281 146.636719 123.191406 Z M 146.636719 123.191406 " clip-rule="nonzero"/></clipPath><clipPath id="62a96c225c"><path d="M 194 115 L 263 115 L 263 161 L 194 161 Z M 194 115 " clip-rule="nonzero"/></clipPath><clipPath id="f1e07e7706"><path d="M 246.152344 181.503906 L 181.164062 138.046875 L 210.859375 93.640625 L 275.84375 137.09375 Z M 246.152344 181.503906 " clip-rule="nonzero"/></clipPath><clipPath id="2ed07bf73d"><path d="M 239.304688 176.925781 L 188.648438 143.054688 L 218.859375 97.875 L 269.515625 131.746094 Z M 239.304688 176.925781 " clip-rule="nonzero"/></clipPath><clipPath id="c1da520d27"><path d="M 204.296875 153.515625 L 201.191406 151.4375 C 196.90625 148.574219 194.410156 143.703125 194.585938 138.554688 C 194.761719 133.40625 197.585938 128.714844 202.050781 126.152344 L 211.890625 120.5 C 224.636719 113.179688 240.429688 113.71875 252.648438 121.890625 L 255.753906 123.96875 C 260.035156 126.832031 262.535156 131.703125 262.359375 136.851562 C 262.183594 142 259.359375 146.691406 254.890625 149.253906 L 245.054688 154.90625 C 232.308594 162.222656 216.515625 161.6875 204.296875 153.515625 Z M 204.296875 153.515625 " clip-rule="nonzero"/></clipPath><clipPath id="8b7887839c"><path d="M 74 117 L 143 117 L 143 162 L 74 162 Z M 74 117 " clip-rule="nonzero"/></clipPath><clipPath id="cb46bf86ac"><path d="M 126.4375 183.457031 L 61.449219 140.003906 L 91.144531 95.59375 L 156.128906 139.050781 Z M 126.4375 183.457031 " clip-rule="nonzero"/></clipPath><clipPath id="db54a5aff2"><path d="M 119.589844 178.878906 L 68.933594 145.007812 L 99.144531 99.828125 L 149.800781 133.699219 Z M 119.589844 178.878906 " clip-rule="nonzero"/></clipPath><clipPath id="1a6bd03950"><path d="M 84.582031 155.472656 L 81.476562 153.394531 C 77.195312 150.53125 74.695312 145.65625 74.871094 140.507812 C 75.046875 135.363281 77.871094 130.671875 82.335938 128.105469 L 92.175781 122.457031 C 104.921875 115.136719 120.714844 115.675781 132.933594 123.84375 L 136.039062 125.921875 C 140.320312 128.785156 142.820312 133.65625 142.644531 138.804688 C 142.46875 143.953125 139.644531 148.644531 135.179688 151.210938 L 125.339844 156.859375 C 112.59375 164.179688 96.800781 163.640625 84.582031 155.472656 Z M 84.582031 155.472656 " clip-rule="nonzero"/></clipPath><clipPath id="87ab345da3"><path d="M 131 149 L 200 149 L 200 194 L 131 194 Z M 131 149 " clip-rule="nonzero"/></clipPath><clipPath id="e64c0802f1"><path d="M 183.445312 215.246094 L 118.457031 171.792969 L 148.152344 127.386719 L 213.140625 170.839844 Z M 183.445312 215.246094 " clip-rule="nonzero"/></clipPath><clipPath id="dca47d2edb"><path d="M 176.597656 210.667969 L 125.945312 176.796875 L 156.152344 131.617188 L 206.808594 165.488281 Z M 176.597656 210.667969 " clip-rule="nonzero"/></clipPath><clipPath id="5dc328e5cc"><path d="M 141.589844 187.261719 L 138.484375 185.183594 C 134.203125 182.320312 131.703125 177.449219 131.878906 172.300781 C 132.054688 167.152344 134.878906 162.460938 139.347656 159.894531 L 149.183594 154.246094 C 161.929688 146.925781 177.722656 147.464844 189.941406 155.632812 L 193.046875 157.710938 C 197.332031 160.574219 199.828125 165.449219 199.652344 170.59375 C 199.476562 175.742188 196.652344 180.433594 192.1875 183 L 182.347656 188.648438 C 169.601562 195.96875 153.808594 195.429688 141.589844 187.261719 Z M 141.589844 187.261719 " clip-rule="nonzero"/></clipPath><clipPath id="7da29ce6b1"><path d="M 246 149 L 315 149 L 315 195 L 246 195 Z M 246 149 " clip-rule="nonzero"/></clipPath><clipPath id="2a0153efd6"><path d="M 298.433594 215.898438 L 233.445312 172.445312 L 263.140625 128.035156 L 328.125 171.492188 Z M 298.433594 215.898438 " clip-rule="nonzero"/></clipPath><clipPath id="ef12d8e8e6"><path d="M 291.585938 211.320312 L 240.929688 177.449219 L 271.140625 132.269531 L 321.796875 166.140625 Z M 291.585938 211.320312 " clip-rule="nonzero"/></clipPath><clipPath id="d0db27136e"><path d="M 256.578125 187.914062 L 253.472656 185.835938 C 249.1875 182.972656 246.691406 178.097656 246.867188 172.949219 C 247.042969 167.804688 249.867188 163.113281 254.332031 160.546875 L 264.171875 154.898438 C 276.917969 147.578125 292.710938 148.117188 304.929688 156.285156 L 308.035156 158.363281 C 312.316406 161.226562 314.816406 166.097656 314.640625 171.246094 C 314.464844 176.394531 311.640625 181.085938 307.175781 183.652344 L 297.335938 189.300781 C 284.589844 196.621094 268.796875 196.082031 256.578125 187.914062 Z M 256.578125 187.914062 " clip-rule="nonzero"/></clipPath><clipPath id="d61ec0e38b"><path d="M 304 180 L 373 180 L 373 225 L 304 225 Z M 304 180 " clip-rule="nonzero"/></clipPath><clipPath id="e828c0c9f9"><path d="M 356.09375 246.222656 L 291.105469 202.769531 L 320.800781 158.359375 L 385.785156 201.8125 Z M 356.09375 246.222656 " clip-rule="nonzero"/></clipPath><clipPath id="f3ba650c8f"><path d="M 349.246094 241.644531 L 298.589844 207.773438 L 328.800781 162.59375 L 379.457031 196.464844 Z M 349.246094 241.644531 " clip-rule="nonzero"/></clipPath><clipPath id="11e81e8b76"><path d="M 314.238281 218.234375 L 311.132812 216.15625 C 306.851562 213.296875 304.351562 208.421875 304.527344 203.273438 C 304.703125 198.125 307.527344 193.433594 311.992188 190.871094 L 321.832031 185.21875 C 334.578125 177.902344 350.371094 178.4375 362.589844 186.609375 L 365.695312 188.6875 C 369.976562 191.550781 372.476562 196.421875 372.300781 201.570312 C 372.125 206.71875 369.300781 211.410156 364.835938 213.976562 L 354.996094 219.625 C 342.25 226.945312 326.457031 226.40625 314.238281 218.234375 Z M 314.238281 218.234375 " clip-rule="nonzero"/></clipPath><clipPath id="34065b470e"><path d="M 184 182 L 253 182 L 253 227 L 184 227 Z M 184 182 " clip-rule="nonzero"/></clipPath><clipPath id="b1ccbd9e13"><path d="M 236.378906 248.175781 L 171.390625 204.722656 L 201.085938 160.3125 L 266.074219 203.769531 Z M 236.378906 248.175781 " clip-rule="nonzero"/></clipPath><clipPath id="da42d9d12d"><path d="M 229.53125 243.597656 L 178.875 209.726562 L 209.085938 164.546875 L 259.742188 198.417969 Z M 229.53125 243.597656 " clip-rule="nonzero"/></clipPath><clipPath id="9ece3241e8"><path d="M 194.523438 220.191406 L 191.417969 218.113281 C 187.136719 215.25 184.636719 210.375 184.8125 205.230469 C 184.988281 200.082031 187.8125 195.390625 192.277344 192.824219 L 202.117188 187.175781 C 214.863281 179.855469 230.65625 180.394531 242.875 188.5625 L 245.980469 190.640625 C 250.265625 193.503906 252.761719 198.375 252.585938 203.523438 C 252.410156 208.671875 249.585938 213.363281 245.121094 215.929688 L 235.28125 221.578125 C 222.535156 228.898438 206.742188 228.359375 194.523438 220.191406 Z M 194.523438 220.191406 " clip-rule="nonzero"/></clipPath><clipPath id="75e30808c8"><path d="M 241 213 L 310 213 L 310 259 L 241 259 Z M 241 213 " clip-rule="nonzero"/></clipPath><clipPath id="742330189f"><path d="M 293.386719 279.964844 L 228.402344 236.511719 L 258.09375 192.105469 L 323.082031 235.558594 Z M 293.386719 279.964844 " clip-rule="nonzero"/></clipPath><clipPath id="a3b29db1da"><path d="M 286.542969 275.386719 L 235.886719 241.515625 L 266.09375 196.339844 L 316.75 230.210938 Z M 286.542969 275.386719 " clip-rule="nonzero"/></clipPath><clipPath id="98b79df6fb"><path d="M 251.535156 251.980469 L 248.425781 249.902344 C 244.144531 247.039062 241.648438 242.167969 241.820312 237.019531 C 241.996094 231.871094 244.820312 227.179688 249.289062 224.613281 L 259.125 218.964844 C 271.871094 211.644531 287.664062 212.183594 299.882812 220.351562 L 302.992188 222.429688 C 307.273438 225.292969 309.769531 230.167969 309.59375 235.316406 C 309.417969 240.460938 306.597656 245.152344 302.128906 247.71875 L 292.292969 253.367188 C 279.546875 260.6875 263.75 260.148438 251.535156 251.980469 Z M 251.535156 251.980469 " clip-rule="nonzero"/></clipPath><clipPath id="39143dbcbe"><rect x="0" width="448" y="0" height="345"/></clipPath><clipPath id="2d9445c1a5"><path d="M 75 84 L 144 84 L 144 130 L 75 130 Z M 75 84 " clip-rule="nonzero"/></clipPath><clipPath id="b2d56f01f8"><path d="M 126.964844 151.105469 L 61.976562 107.652344 L 91.667969 63.242188 L 156.65625 106.699219 Z M 126.964844 151.105469 " clip-rule="nonzero"/></clipPath><clipPath id="d98fb84fe0"><path d="M 120.117188 146.527344 L 69.460938 112.65625 L 99.671875 67.476562 L 150.324219 101.347656 Z M 120.117188 146.527344 " clip-rule="nonzero"/></clipPath><clipPath id="4750cfa58a"><path d="M 85.109375 123.121094 L 82 121.042969 C 77.71875 118.179688 75.222656 113.304688 75.398438 108.160156 C 75.574219 103.011719 78.394531 98.320312 82.863281 95.753906 L 92.703125 90.105469 C 105.449219 82.785156 121.242188 83.324219 133.460938 91.492188 L 136.566406 93.570312 C 140.847656 96.433594 143.347656 101.304688 143.171875 106.453125 C 142.996094 111.601562 140.171875 116.292969 135.703125 118.859375 L 125.867188 124.507812 C 113.121094 131.828125 97.328125 131.289062 85.109375 123.121094 Z M 85.109375 123.121094 " clip-rule="nonzero"/></clipPath><clipPath id="a1d13038a3"><path d="M 132 116 L 201 116 L 201 162 L 132 162 Z M 132 116 " clip-rule="nonzero"/></clipPath><clipPath id="66304c5f79"><path d="M 183.972656 182.894531 L 118.984375 139.441406 L 148.679688 95.035156 L 213.664062 138.488281 Z M 183.972656 182.894531 " clip-rule="nonzero"/></clipPath><clipPath id="977dd61e8e"><path d="M 177.125 178.316406 L 126.46875 144.445312 L 156.679688 99.269531 L 207.335938 133.140625 Z M 177.125 178.316406 " clip-rule="nonzero"/></clipPath><clipPath id="8e6b379521"><path d="M 142.117188 154.910156 L 139.011719 152.832031 C 134.730469 149.96875 132.230469 145.097656 132.40625 139.949219 C 132.582031 134.800781 135.40625 130.109375 139.871094 127.542969 L 149.710938 121.894531 C 162.457031 114.574219 178.25 115.113281 190.46875 123.28125 L 193.574219 125.359375 C 197.855469 128.222656 200.355469 133.097656 200.179688 138.246094 C 200.003906 143.390625 197.179688 148.082031 192.714844 150.648438 L 182.875 156.296875 C 170.128906 163.617188 154.335938 163.078125 142.117188 154.910156 Z M 142.117188 154.910156 " clip-rule="nonzero"/></clipPath><clipPath id="546031da9b"><path d="M 185 149 L 254 149 L 254 195 L 185 195 Z M 185 149 " clip-rule="nonzero"/></clipPath><clipPath id="d12e486801"><path d="M 236.90625 215.824219 L 171.917969 172.371094 L 201.613281 127.964844 L 266.597656 171.417969 Z M 236.90625 215.824219 " clip-rule="nonzero"/></clipPath><clipPath id="372602b4a0"><path d="M 230.058594 211.246094 L 179.402344 177.375 L 209.613281 132.195312 L 260.269531 166.066406 Z M 230.058594 211.246094 " clip-rule="nonzero"/></clipPath><clipPath id="ab99dd2b23"><path d="M 195.050781 187.839844 L 191.945312 185.761719 C 187.660156 182.898438 185.164062 178.023438 185.339844 172.878906 C 185.515625 167.730469 188.339844 163.039062 192.804688 160.472656 L 202.644531 154.824219 C 215.390625 147.503906 231.183594 148.042969 243.402344 156.210938 L 246.507812 158.289062 C 250.789062 161.152344 253.289062 166.027344 253.113281 171.171875 C 252.9375 176.320312 250.113281 181.011719 245.648438 183.578125 L 235.808594 189.226562 C 223.0625 196.546875 207.269531 196.007812 195.050781 187.839844 Z M 195.050781 187.839844 " clip-rule="nonzero"/></clipPath><clipPath id="5a06b2f0dc"><path d="M 242 181 L 311 181 L 311 227 L 242 227 Z M 242 181 " clip-rule="nonzero"/></clipPath><clipPath id="cd9fe100f8"><path d="M 293.914062 247.617188 L 228.925781 204.160156 L 258.621094 159.753906 L 323.609375 203.207031 Z M 293.914062 247.617188 " clip-rule="nonzero"/></clipPath><clipPath id="92409e1023"><path d="M 287.066406 243.039062 L 236.410156 209.164062 L 266.621094 163.988281 L 317.277344 197.859375 Z M 287.066406 243.039062 " clip-rule="nonzero"/></clipPath><clipPath id="fa69e98552"><path d="M 252.058594 219.628906 L 248.953125 217.550781 C 244.671875 214.6875 242.171875 209.816406 242.347656 204.667969 C 242.523438 199.519531 245.347656 194.828125 249.8125 192.261719 L 259.652344 186.613281 C 272.398438 179.292969 288.191406 179.832031 300.410156 188.003906 L 303.515625 190.078125 C 307.800781 192.941406 310.296875 197.816406 310.121094 202.964844 C 309.945312 208.113281 307.121094 212.804688 302.65625 215.367188 L 292.816406 221.015625 C 280.070312 228.335938 264.277344 227.800781 252.058594 219.628906 Z M 252.058594 219.628906 " clip-rule="nonzero"/></clipPath><clipPath id="0ac7402552"><rect x="0" width="386" y="0" height="312"/></clipPath><clipPath id="e8d143f852"><path d="M 435 469 L 543 469 L 543 576 L 435 576 Z M 435 469 " clip-rule="nonzero"/></clipPath><clipPath id="673aec2bee"><path d="M 417.988281 495.691406 L 515.675781 451.425781 L 559.941406 549.113281 L 462.253906 593.378906 Z M 417.988281 495.691406 " clip-rule="nonzero"/></clipPath><clipPath id="52b1286602"><path d="M 415.761719 494.855469 L 515.269531 449.761719 L 560.363281 549.269531 L 460.855469 594.363281 Z M 415.761719 494.855469 " clip-rule="nonzero"/></clipPath><clipPath id="2255d4cf59"><path d="M 474.417969 470.121094 L 459.535156 476.867188 C 453.496094 479.601562 450.820312 486.710938 453.558594 492.746094 L 457.527344 501.507812 C 460.261719 507.542969 457.585938 514.652344 451.550781 517.386719 L 442.789062 521.359375 C 436.753906 524.09375 434.078125 531.203125 436.816406 537.238281 L 443.558594 552.121094 C 446.292969 558.160156 453.40625 560.832031 459.441406 558.097656 L 468.199219 554.128906 C 474.234375 551.394531 481.347656 554.070312 484.082031 560.105469 L 488.050781 568.863281 C 490.785156 574.902344 497.898438 577.578125 503.933594 574.839844 L 518.816406 568.097656 C 524.851562 565.363281 527.527344 558.25 524.792969 552.214844 L 520.824219 543.457031 C 518.085938 537.421875 520.761719 530.308594 526.800781 527.574219 L 535.558594 523.605469 C 541.59375 520.871094 544.269531 513.757812 541.535156 507.722656 L 534.789062 492.839844 C 532.054688 486.804688 524.945312 484.128906 518.910156 486.863281 L 510.148438 490.832031 C 504.113281 493.570312 497.003906 490.894531 494.269531 484.855469 L 490.296875 476.097656 C 487.5625 470.0625 480.453125 467.386719 474.417969 470.121094 Z M 474.417969 470.121094 " clip-rule="nonzero"/></clipPath><clipPath id="6d833bd43b"><path d="M 567.816406 470.976562 L 619.320312 470.976562 L 619.320312 522.480469 L 567.816406 522.480469 Z M 567.816406 470.976562 " clip-rule="nonzero"/></clipPath><clipPath id="973fecfc5b"><path d="M 593.566406 470.976562 C 579.34375 470.976562 567.816406 482.503906 567.816406 496.726562 C 567.816406 510.949219 579.34375 522.480469 593.566406 522.480469 C 607.789062 522.480469 619.320312 510.949219 619.320312 496.726562 C 619.320312 482.503906 607.789062 470.976562 593.566406 470.976562 Z M 593.566406 470.976562 " clip-rule="nonzero"/></clipPath><clipPath id="bb9ee03884"><path d="M 598.070312 407.777344 L 649.574219 407.777344 L 649.574219 459.28125 L 598.070312 459.28125 Z M 598.070312 407.777344 " clip-rule="nonzero"/></clipPath><clipPath id="d4c03b93a2"><path d="M 623.820312 407.777344 C 609.601562 407.777344 598.070312 419.304688 598.070312 433.527344 C 598.070312 447.75 609.601562 459.28125 623.820312 459.28125 C 638.042969 459.28125 649.574219 447.75 649.574219 433.527344 C 649.574219 419.304688 638.042969 407.777344 623.820312 407.777344 Z M 623.820312 407.777344 " clip-rule="nonzero"/></clipPath></defs><g clip-path="url(#86bc7d9cde)"><g clip-path="url(#0eba0a7c99)"><path stroke-linecap="butt" transform="matrix(0.75, 0, 0, 0.75, 105.260439, 56.212176)" fill="none" stroke-linejoin="miter" d="M 399.647585 0.0035565 L 799.298673 232.524416 L 799.298673 697.571345 L 399.647585 930.092204 L 0.00170633 697.571345 L 0.00170633 232.524416 Z M 399.647585 0.0035565 " stroke="#ffffff" stroke-width="100" stroke-opacity="1" stroke-miterlimit="4"/></g></g><path stroke-linecap="butt" transform="matrix(0.649019, 0.375864, -0.375864, 0.649019, 129.614675, 233.38574)" fill="none" stroke-linejoin="miter" d="M -0.000739239 14.001423 L 432.418748 14.001832 " stroke="#ffffff" stroke-width="28" stroke-opacity="1" stroke-miterlimit="4"/><path stroke-linecap="butt" transform="matrix(0.64895, -0.375984, 0.375984, 0.64895, 399.735511, 395.91211)" fill="none" stroke-linejoin="miter" d="M 0.00170934 13.99896 L 432.278863 14.001699 " stroke="#ffffff" stroke-width="28" stroke-opacity="1" stroke-miterlimit="4"/><path stroke-linecap="butt" transform="matrix(0.000000001309, 0.75, -0.75, 0.000000001309, 415.499983, 405)" fill="none" stroke-linejoin="miter" d="M 0.000000475566 13.999977 L 432.000022 13.999978 " stroke="#ffffff" stroke-width="28" stroke-opacity="1" stroke-miterlimit="4"/><g clip-path="url(#26cf0eee4e)"><g clip-path="url(#d7782eac10)"><path stroke-linecap="butt" transform="matrix(0, 0.75, -0.75, 0, 326.80689, 335.38178)" fill="none" stroke-linejoin="miter" d="M 113.558681 -0.00227132 L 374.392045 -0.00227132 C 379.464962 -0.00227132 384.168087 2.653979 386.787879 6.997729 C 389.41288 11.346688 389.56913 16.742522 387.204546 21.232106 L 320.022247 148.752954 C 313.142038 161.810247 299.595161 169.982123 284.834743 169.982123 L 24.00138 169.982123 C 18.923254 169.982123 14.220128 167.331081 11.600336 162.982122 C 8.980544 158.638372 8.824294 153.242538 11.188878 148.752954 L 78.371177 21.232106 C 85.251387 8.174813 98.798263 -0.00227132 113.558681 -0.00227132 Z M 113.558681 -0.00227132 " stroke="#ffffff" stroke-width="32" stroke-opacity="1" stroke-miterlimit="4"/></g></g><g clip-path="url(#9529560f99)"><g clip-path="url(#e13ead6fc6)"><path stroke-linecap="butt" transform="matrix(0, 0.75, -0.75, 0, 305.339931, 388.971358)" fill="none" stroke-linejoin="miter" d="M 80.991324 0.000115718 L 243.923634 0.000115718 C 247.225718 0.000115718 250.277801 1.760533 251.928843 4.619908 C 253.579885 7.479283 253.585093 11.000117 251.934051 13.859492 L 202.934046 98.875127 C 197.991337 107.448045 188.845503 112.734504 178.949668 112.734504 L 16.012149 112.734504 C 12.710066 112.734504 9.657982 110.974087 8.00694 108.114711 C 6.355898 105.255336 6.355898 101.734502 8.001732 98.875127 L 57.001737 13.859492 C 61.944446 5.286575 71.090281 0.000115718 80.991324 0.000115718 Z M 80.991324 0.000115718 " stroke="#ffffff" stroke-width="32" stroke-opacity="1" stroke-miterlimit="4"/></g></g><g transform="matrix(1, 0, 0, 1, 153, 91)"><g clip-path="url(#39143dbcbe)"><g clip-path="url(#ca865d5e08)"><g clip-path="url(#96474d8f1c)"><g clip-path="url(#7c4c3fd17c)"><g clip-path="url(#b8716b2d8c)"><path stroke-linecap="butt" transform="matrix(-0.54156, -0.362119, 0.362119, -0.54156, 188.490778, 151.179784)" fill="none" stroke-linejoin="miter" d="M 77.286157 0.0029148 L 83.023494 -0.00332845 C 90.929392 -0.00258206 98.273843 4.088252 102.442263 10.807675 C 106.60735 17.522114 107.009731 25.923029 103.498918 33.002265 L 95.76253 48.605203 C 85.744212 68.821118 65.132332 81.608049 42.572094 81.610867 L 36.836408 81.608793 C 28.930511 81.608046 21.584408 77.525529 17.415988 70.806106 C 13.247569 64.086683 12.84852 55.690752 16.360985 48.6032 L 24.092388 33.003595 C 34.110706 12.787679 54.722586 0.000748202 77.286157 0.0029148 Z M 77.286157 0.0029148 " stroke="#ffffff" stroke-width="36.839558" stroke-opacity="1" stroke-miterlimit="4"/></g></g></g></g><g clip-path="url(#62a96c225c)"><g clip-path="url(#f1e07e7706)"><g clip-path="url(#2ed07bf73d)"><g clip-path="url(#c1da520d27)"><path stroke-linecap="butt" transform="matrix(-0.54156, -0.362119, 0.362119, -0.54156, 246.151155, 181.502925)" fill="none" stroke-linejoin="miter" d="M 77.285519 0.00135269 L 83.021205 0.00342671 C 90.932087 0.00084024 98.273205 4.08669 102.441625 10.806113 C 106.610044 17.525536 107.009093 25.921467 103.49828 33.000702 L 95.765224 48.608625 C 85.746907 68.82454 65.135027 81.611471 42.571456 81.609305 L 36.83577 81.607231 C 28.929873 81.606484 21.58377 77.523967 17.41535 70.804544 C 13.24693 64.085121 12.847882 55.68919 16.363679 48.606622 L 24.09175 33.002032 C 34.113401 12.791101 54.721948 -0.000813903 77.285519 0.00135269 Z M 77.285519 0.00135269 " stroke="#ffffff" stroke-width="36.839558" stroke-opacity="1" stroke-miterlimit="4"/></g></g></g></g><g clip-path="url(#8b7887839c)"><g clip-path="url(#cb46bf86ac)"><g clip-path="url(#db54a5aff2)"><g clip-path="url(#1a6bd03950)"><path stroke-linecap="butt" transform="matrix(-0.54156, -0.362119, 0.362119, -0.54156, 126.436981, 183.457351)" fill="none" stroke-linejoin="miter" d="M 77.284151 -0.0025444 L 83.019837 -0.000470382 C 90.925735 0.00027601 98.27517 4.087777 102.44359 10.8072 C 106.608677 17.521639 107.007725 25.91757 103.500245 33.00179 L 95.763857 48.604728 C 85.745539 68.820643 65.133659 81.607574 42.573421 81.610392 L 36.837735 81.608318 C 28.931838 81.607572 21.585735 77.525055 17.417315 70.805632 C 13.248896 64.086209 12.849847 55.690277 16.357327 48.606058 L 24.093716 33.00312 C 34.112033 12.787204 54.723913 0.000273405 77.284151 -0.0025444 Z M 77.284151 -0.0025444 " stroke="#ffffff" stroke-width="36.839558" stroke-opacity="1" stroke-miterlimit="4"/></g></g></g></g><g clip-path="url(#87ab345da3)"><g clip-path="url(#e64c0802f1)"><g clip-path="url(#dca47d2edb)"><g clip-path="url(#5dc328e5cc)"><path stroke-linecap="butt" transform="matrix(-0.54156, -0.362119, 0.362119, -0.54156, 183.445885, 215.247505)" fill="none" stroke-linejoin="miter" d="M 77.286474 -0.00208303 L 83.02216 -0.00000901311 C 90.928058 0.000737379 98.27416 4.083254 102.44258 10.802677 C 106.611 17.5221 107.010048 25.918032 103.497584 33.005584 L 95.76618 48.605189 C 85.747862 68.821105 65.135983 81.608036 42.575744 81.610853 L 36.840058 81.608779 C 28.929176 81.611366 21.584725 77.520532 17.419639 70.806093 C 13.251219 64.08667 12.85217 55.690739 16.35965 48.606519 L 24.096039 33.003581 C 34.114356 12.787666 54.726236 0.000734774 77.286474 -0.00208303 Z M 77.286474 -0.00208303 " stroke="#ffffff" stroke-width="36.839558" stroke-opacity="1" stroke-miterlimit="4"/></g></g></g></g><g clip-path="url(#7da29ce6b1)"><g clip-path="url(#2a0153efd6)"><g clip-path="url(#ef12d8e8e6)"><g clip-path="url(#d0db27136e)"><path stroke-linecap="butt" transform="matrix(-0.54156, -0.362119, 0.362119, -0.54156, 298.432862, 215.89892)" fill="none" stroke-linejoin="miter" d="M 77.284018 -0.00215546 L 83.019704 -0.0000814417 C 90.930586 -0.00266792 98.275037 4.088166 102.443457 10.807589 C 106.608544 17.522028 107.007592 25.917959 103.500112 33.002179 L 95.763724 48.605117 C 85.745406 68.821032 65.133527 81.607963 42.573288 81.610781 L 36.837602 81.608707 C 28.931705 81.607961 21.585602 77.525444 17.417183 70.806021 C 13.248763 64.086597 12.849714 55.690666 16.357194 48.606447 L 24.093583 33.003509 C 34.1119 12.787593 54.72378 0.000662345 77.284018 -0.00215546 Z M 77.284018 -0.00215546 " stroke="#ffffff" stroke-width="36.839558" stroke-opacity="1" stroke-miterlimit="4"/></g></g></g></g><g clip-path="url(#d61ec0e38b)"><g clip-path="url(#e828c0c9f9)"><g clip-path="url(#f3ba650c8f)"><g clip-path="url(#11e81e8b76)"><path stroke-linecap="butt" transform="matrix(-0.54156, -0.362119, 0.362119, -0.54156, 356.093239, 246.222064)" fill="none" stroke-linejoin="miter" d="M 77.286715 0.0012699 L 83.022401 0.00334392 C 90.924966 -0.000894092 98.274401 4.086607 102.442821 10.80603 C 106.61124 17.525453 107.010289 25.921385 103.499476 33.00062 L 95.766421 48.608542 C 85.74477 68.819473 65.136223 81.611388 42.572652 81.609222 L 36.836966 81.607148 C 28.931069 81.606401 21.584966 77.523885 17.416546 70.804461 C 13.248127 64.085038 12.849078 55.689107 16.356558 48.604888 L 24.092947 33.00195 C 34.111264 12.786034 54.723144 -0.000896697 77.286715 0.0012699 Z M 77.286715 0.0012699 " stroke="#ffffff" stroke-width="36.839558" stroke-opacity="1" stroke-miterlimit="4"/></g></g></g></g><g clip-path="url(#34065b470e)"><g clip-path="url(#b1ccbd9e13)"><g clip-path="url(#da42d9d12d)"><g clip-path="url(#9ece3241e8)"><path stroke-linecap="butt" transform="matrix(-0.54156, -0.362119, 0.362119, -0.54156, 236.379066, 248.176516)" fill="none" stroke-linejoin="miter" d="M 77.28537 -0.00259351 L 83.021056 -0.00051949 C 90.926953 0.000226902 98.276389 4.087728 102.441476 10.802167 C 106.609895 17.52159 107.008944 25.917521 103.501464 33.001741 L 95.765076 48.604679 C 85.746758 68.820594 65.134878 81.607525 42.57464 81.610343 L 36.838954 81.608269 C 28.928072 81.610855 21.586954 77.525006 17.418534 70.805582 C 13.250114 64.086159 12.851066 55.690228 16.358546 48.606009 L 24.094934 33.003071 C 34.113252 12.787155 54.725132 0.000224297 77.28537 -0.00259351 Z M 77.28537 -0.00259351 " stroke="#ffffff" stroke-width="36.839558" stroke-opacity="1" stroke-miterlimit="4"/></g></g></g></g><g clip-path="url(#75e30808c8)"><g clip-path="url(#742330189f)"><g clip-path="url(#a3b29db1da)"><g clip-path="url(#98b79df6fb)"><path stroke-linecap="butt" transform="matrix(-0.54156, -0.362119, 0.362119, -0.54156, 293.387998, 279.966612)" fill="none" stroke-linejoin="miter" d="M 77.282696 0.00110265 L 83.023367 -0.000156192 C 90.929264 0.0005902 98.270382 4.08644 102.443786 10.80253 C 106.612206 17.521953 107.011255 25.917884 103.49879 33.005437 L 95.767386 48.605042 C 85.749069 68.820957 65.137189 81.607888 42.576951 81.610706 L 36.83628 81.611965 C 28.930383 81.611219 21.585932 77.520384 17.417512 70.800961 C 13.252425 64.086523 12.848392 55.693924 16.360857 48.606372 L 24.092261 33.006767 C 34.110578 12.790851 54.727442 0.000587595 77.282696 0.00110265 Z M 77.282696 0.00110265 " stroke="#ffffff" stroke-width="36.839558" stroke-opacity="1" stroke-miterlimit="4"/></g></g></g></g></g></g><g transform="matrix(1, 0, 0, 1, 278, 53)"><g clip-path="url(#0ac7402552)"><g clip-path="url(#2d9445c1a5)"><g clip-path="url(#b2d56f01f8)"><g clip-path="url(#d98fb84fe0)"><g clip-path="url(#4750cfa58a)"><path stroke-linecap="butt" transform="matrix(-0.54156, -0.362119, 0.362119, -0.54156, 126.963304, 151.106123)" fill="none" stroke-linejoin="miter" d="M 77.283134 -0.00124579 L 83.023804 -0.00250463 C 90.929702 -0.00175824 98.274153 4.089076 102.43924 10.803515 C 106.607659 17.522938 107.011692 25.915536 103.499228 33.003088 L 95.762839 48.606026 C 85.744522 68.821942 65.132642 81.608873 42.572404 81.611691 L 36.836718 81.609617 C 28.93082 81.60887 21.584718 77.526353 17.416298 70.80693 C 13.247878 64.087507 12.84883 55.691576 16.361294 48.604024 L 24.092698 33.004418 C 34.111016 12.788503 54.722896 0.00157202 77.283134 -0.00124579 Z M 77.283134 -0.00124579 " stroke="#ffffff" stroke-width="36.839558" stroke-opacity="1" stroke-miterlimit="4"/></g></g></g></g><g clip-path="url(#a1d13038a3)"><g clip-path="url(#66304c5f79)"><g clip-path="url(#977dd61e8e)"><g clip-path="url(#8e6b379521)"><path stroke-linecap="butt" transform="matrix(-0.54156, -0.362119, 0.362119, -0.54156, 183.972207, 182.896263)" fill="none" stroke-linejoin="miter" d="M 77.285445 -0.000802793 L 83.02113 0.00127123 C 90.927028 0.00201762 98.273131 4.084535 102.44155 10.803958 C 106.60997 17.523381 107.009019 25.919312 103.501538 33.003531 L 95.76515 48.606469 C 85.746832 68.822385 65.134953 81.609316 42.574714 81.612134 L 36.839029 81.61006 C 28.933131 81.609313 21.583696 77.521812 17.415276 70.802389 C 13.250189 64.08795 12.85114 55.692019 16.358621 48.607799 L 24.095009 33.004861 C 34.113327 12.788946 54.725206 0.00201501 77.285445 -0.000802793 Z M 77.285445 -0.000802793 " stroke="#ffffff" stroke-width="36.839558" stroke-opacity="1" stroke-miterlimit="4"/></g></g></g></g><g clip-path="url(#546031da9b)"><g clip-path="url(#d12e486801)"><g clip-path="url(#372602b4a0)"><g clip-path="url(#ab99dd2b23)"><path stroke-linecap="butt" transform="matrix(-0.54156, -0.362119, 0.362119, -0.54156, 236.905328, 215.825259)" fill="none" stroke-linejoin="miter" d="M 77.284251 -0.00128045 L 83.019937 0.000793569 C 90.930819 -0.00179291 98.27527 4.089041 102.440357 10.80348 C 106.608777 17.522903 107.007825 25.918834 103.500345 33.003054 L 95.763957 48.605992 C 85.745639 68.821907 65.13376 81.608838 42.573521 81.611656 L 36.837835 81.609582 C 28.931938 81.608836 21.582502 77.521334 17.417416 70.806896 C 13.248996 64.087472 12.849947 55.691541 16.357428 48.607322 L 24.093816 33.004384 C 34.112133 12.788468 54.724013 0.00153736 77.284251 -0.00128045 Z M 77.284251 -0.00128045 " stroke="#ffffff" stroke-width="36.839558" stroke-opacity="1" stroke-miterlimit="4"/></g></g></g></g><g clip-path="url(#5a06b2f0dc)"><g clip-path="url(#cd9fe100f8)"><g clip-path="url(#92409e1023)"><g clip-path="url(#fa69e98552)"><path stroke-linecap="butt" transform="matrix(-0.54156, -0.362119, 0.362119, -0.54156, 293.914292, 247.615386)" fill="none" stroke-linejoin="miter" d="M 77.286629 -0.000903962 L 83.022314 0.00117006 C 90.928212 0.00191645 98.274315 4.084433 102.442734 10.803856 C 106.611154 17.52328 107.010203 25.919211 103.502722 33.00343 L 95.766334 48.606368 C 85.748016 68.822284 65.136137 81.609215 42.572566 81.607048 L 36.840213 81.609958 C 28.929331 81.612545 21.58488 77.521711 17.41646 70.802288 C 13.24804 64.082865 12.848992 55.686933 16.359805 48.607698 L 24.096193 33.00476 C 34.114511 12.788845 54.723057 -0.00307056 77.286629 -0.000903962 Z M 77.286629 -0.000903962 " stroke="#ffffff" stroke-width="36.839558" stroke-opacity="1" stroke-miterlimit="4"/></g></g></g></g></g></g><g clip-path="url(#e8d143f852)"><g clip-path="url(#673aec2bee)"><g clip-path="url(#52b1286602)"><g clip-path="url(#2255d4cf59)"><path stroke-linecap="butt" transform="matrix(0.68313, -0.30957, 0.30957, 0.68313, 417.987222, 495.692995)" fill="none" stroke-linejoin="miter" d="M 82.605909 0.00062683 L 60.81874 0.00272752 C 51.979728 -0.0000832552 44.817493 7.16131 44.821576 15.997728 L 44.81945 28.822614 C 44.818789 37.656883 37.656554 44.818276 28.822285 44.817615 L 15.99525 44.820232 C 7.160981 44.819571 -0.00125315 51.980964 0.00282983 60.817383 L 0.000186563 82.602402 C -0.00262421 91.441415 7.165663 98.601055 15.999931 98.601716 L 28.820073 98.601693 C 37.654342 98.602354 44.820479 105.766738 44.819818 114.601007 L 44.819841 127.421149 C 44.81703 136.260161 51.983167 143.424546 60.819586 143.420463 L 82.604605 143.423106 C 91.438874 143.423767 98.603258 136.25763 98.603919 127.423361 L 98.603896 114.60322 C 98.599813 105.766801 105.764197 98.600664 114.60321 98.603475 L 127.423352 98.603451 C 136.25762 98.604112 143.422005 91.437975 143.422666 82.603706 L 143.420565 60.816537 C 143.421226 51.982269 136.259833 44.820034 127.425564 44.819373 L 114.600679 44.817247 C 105.76426 44.82133 98.602867 37.659095 98.605678 28.820082 L 98.60091 15.997791 C 98.601571 7.163522 91.440178 0.00128781 82.605909 0.00062683 Z M 82.605909 0.00062683 " stroke="#ffffff" stroke-width="32" stroke-opacity="1" stroke-miterlimit="4"/></g></g></g></g><g clip-path="url(#6d833bd43b)"><g clip-path="url(#973fecfc5b)"><path stroke-linecap="butt" transform="matrix(0.75, 0, 0, 0.75, 567.814967, 470.976236)" fill="none" stroke-linejoin="miter" d="M 34.335254 0.000434926 C 15.371712 0.000434926 0.00191909 15.370227 0.00191909 34.33377 C 0.00191909 53.297313 15.371712 68.672313 34.335254 68.672313 C 53.298797 68.672313 68.673798 53.297313 68.673798 34.33377 C 68.673798 15.370227 53.298797 0.000434926 34.335254 0.000434926 Z M 34.335254 0.000434926 " stroke="#ffffff" stroke-width="32" stroke-opacity="1" stroke-miterlimit="4"/></g></g><g clip-path="url(#bb9ee03884)"><g clip-path="url(#d4c03b93a2)"><path stroke-linecap="butt" transform="matrix(0.75, 0, 0, 0.75, 598.070133, 407.775623)" fill="none" stroke-linejoin="miter" d="M 34.333574 0.00229369 C 15.37524 0.00229369 0.000238784 15.372086 0.000238784 34.335629 C 0.000238784 53.299171 15.37524 68.674172 34.333574 68.674172 C 53.297116 68.674172 68.672117 53.299171 68.672117 34.335629 C 68.672117 15.372086 53.297116 0.00229369 34.333574 0.00229369 Z M 34.333574 0.00229369 " stroke="#ffffff" stroke-width="32" stroke-opacity="1" stroke-miterlimit="4"/></g></g></svg>