<svg xmlns="http://www.w3.org/2000/svg" xmlns:xlink="http://www.w3.org/1999/xlink" width="1080" zoomAndPan="magnify" viewBox="0 0 810 809.999993" height="1080" preserveAspectRatio="xMidYMid meet" version="1.0"><defs><clipPath id="3165b3e7eb"><path d="M 105.261719 56.214844 L 704.511719 56.214844 L 704.511719 753.710938 L 105.261719 753.710938 Z M 105.261719 56.214844 " clip-rule="nonzero"/></clipPath><clipPath id="1057722d97"><path d="M 404.996094 56.214844 L 704.734375 230.605469 L 704.734375 579.390625 L 404.996094 753.78125 L 105.261719 579.390625 L 105.261719 230.605469 Z M 404.996094 56.214844 " clip-rule="nonzero"/></clipPath><clipPath id="31869faa2a"><path d="M 168 261.359375 L 644.097656 261.359375 L 644.097656 548.609375 L 168 548.609375 Z M 168 261.359375 " clip-rule="nonzero"/></clipPath></defs><g clip-path="url(#3165b3e7eb)"><g clip-path="url(#1057722d97)"><path stroke-linecap="butt" transform="matrix(0.75, 0, 0, 0.75, 105.260439, 56.212176)" fill="none" stroke-linejoin="miter" d="M 399.647585 0.0035565 L 799.298673 232.524416 L 799.298673 697.571345 L 399.647585 930.092204 L 0.00170633 697.571345 L 0.00170633 232.524416 Z M 399.647585 0.0035565 " stroke="#ffffff" stroke-width="100" stroke-opacity="1" stroke-miterlimit="4"/></g></g><path fill="#ffffff" d="M 640.566406 330.757812 L 631.203125 307.417969 L 611.425781 291.859375 L 562.242188 271.023438 L 508.441406 264.695312 L 469.9375 265.75 L 430.378906 271.945312 L 385.414062 289.089844 L 360.359375 309.527344 L 350.996094 333.921875 L 351.261719 387.324219 L 361.019531 401.832031 L 340.84375 413.433594 L 351.261719 423.589844 L 355.875 442.578125 L 388.839844 423.589844 L 408.226562 432.949219 L 442.378906 442.050781 L 486.417969 446.796875 L 539.164062 443.761719 L 578.0625 434.929688 L 606.679688 423.589844 L 626.984375 407.105469 L 640.039062 388.25 L 641.09375 355.8125 Z M 590.0625 372.953125 L 536 388.25 L 466.773438 390.226562 L 414.027344 379.679688 L 379.082031 355.285156 L 397.542969 339.722656 L 455.695312 322.582031 L 508.574219 321 L 565.40625 329.570312 L 613.535156 355.285156 Z M 590.0625 372.953125 " fill-opacity="1" fill-rule="nonzero"/><path fill="#ffffff" d="M 174.433594 523.671875 L 172.453125 507.1875 L 181.421875 493.34375 L 323.832031 410.136719 L 340.84375 413.433594 L 351.261719 423.589844 L 355.875 442.707031 L 350.996094 459.453125 L 209.773438 541.472656 L 195.664062 544.902344 L 181.421875 535.804688 Z M 174.433594 523.671875 " fill-opacity="1" fill-rule="nonzero"/><g clip-path="url(#31869faa2a)"><path fill="#ffffff" d="M 593.757812 278.804688 C 567.382812 267.59375 532.703125 261.398438 496.175781 261.398438 C 459.652344 261.398438 425.105469 267.59375 398.597656 278.804688 C 354.425781 297.527344 347.964844 323.769531 347.964844 337.746094 L 347.964844 373.875 C 347.964844 380.46875 349.546875 390.226562 356.269531 400.777344 L 340.84375 409.609375 C 334.515625 405.785156 327.523438 404.730469 321.460938 407.5 C 321.460938 407.5 321.328125 407.5 321.328125 407.632812 C 321.328125 407.632812 321.195312 407.632812 321.195312 407.632812 L 179.839844 490.441406 C 168.761719 495.847656 165.597656 512.726562 172.851562 528.15625 C 176.277344 535.539062 181.554688 541.605469 187.621094 545.164062 C 191.441406 547.40625 195.398438 548.59375 199.222656 548.59375 C 201.859375 548.59375 204.234375 548.066406 206.605469 547.011719 C 206.738281 547.011719 206.738281 546.878906 206.871094 546.878906 L 207.136719 546.746094 C 207.792969 546.351562 208.453125 546.089844 208.980469 545.691406 L 348.226562 463.9375 C 354.820312 460.640625 358.644531 453.257812 359.039062 444.554688 L 388.183594 427.808594 C 391.480469 429.523438 394.90625 431.234375 398.597656 432.6875 C 424.972656 443.894531 459.652344 450.09375 496.175781 450.09375 C 532.703125 450.09375 567.25 443.894531 593.757812 432.6875 C 637.929688 413.960938 644.390625 387.722656 644.390625 373.746094 L 644.390625 337.746094 C 644.390625 323.769531 637.796875 297.660156 593.757812 278.804688 Z M 401.238281 284.867188 C 426.816406 273.925781 460.574219 267.992188 496.175781 267.992188 C 531.78125 267.992188 565.539062 274.054688 591.117188 284.867188 C 631.730469 302.144531 637.796875 325.351562 637.796875 337.746094 C 637.796875 350.140625 631.730469 373.347656 591.117188 390.621094 C 565.539062 401.566406 531.78125 407.5 496.175781 407.5 C 460.574219 407.5 426.816406 401.433594 401.238281 390.621094 C 360.621094 373.347656 354.558594 350.140625 354.558594 337.746094 C 354.558594 325.351562 360.621094 302.144531 401.238281 284.867188 Z M 354.558594 373.875 L 354.558594 361.746094 C 359.304688 370.050781 367.347656 379.019531 380.535156 387.195312 C 380.007812 387.324219 379.480469 387.457031 378.953125 387.722656 C 378.953125 387.722656 378.820312 387.722656 378.820312 387.722656 C 378.6875 387.722656 378.6875 387.722656 378.554688 387.851562 C 378.554688 387.851562 378.425781 387.851562 378.425781 387.984375 C 378.425781 387.984375 378.292969 387.984375 378.292969 387.984375 L 362.074219 397.347656 C 355.875 388.25 354.558594 379.546875 354.558594 373.875 Z M 362.46875 404.730469 C 362.601562 404.730469 362.734375 404.601562 362.863281 404.46875 L 381.324219 393.789062 C 383.699219 392.730469 386.203125 393.917969 387.523438 394.578125 C 390.160156 396.160156 392.535156 398.929688 394.117188 402.226562 C 394.773438 403.546875 395.171875 404.996094 395.566406 406.3125 L 356.535156 428.730469 C 356.140625 427.808594 355.742188 426.886719 355.347656 425.960938 C 353.105469 421.082031 350.074219 416.996094 346.644531 413.699219 Z M 349.414062 428.996094 C 349.546875 429.390625 349.679688 429.652344 349.808594 430.050781 L 213.597656 508.640625 C 210.167969 501.519531 205.023438 495.585938 198.960938 492.023438 C 197.246094 491.101562 195.664062 490.3125 193.949219 489.785156 L 324.359375 413.433594 C 332.402344 409.875 343.746094 416.996094 349.414062 428.996094 Z M 190.914062 539.496094 C 185.90625 536.59375 181.683594 531.582031 178.785156 525.386719 C 173.113281 513.253906 175.09375 499.9375 182.871094 496.246094 C 184.324219 495.585938 185.773438 495.320312 187.488281 495.320312 C 190.125 495.320312 192.894531 496.113281 195.664062 497.828125 C 200.671875 500.726562 204.894531 505.738281 207.792969 511.9375 C 210.695312 518.132812 211.75 524.59375 210.695312 530.265625 C 209.902344 534.75 208.058594 538.042969 205.15625 540.023438 L 203.441406 540.945312 C 200.015625 542.660156 195.398438 542.132812 190.914062 539.496094 Z M 395.039062 423.851562 L 395.433594 423.589844 C 398.996094 421.742188 401.5 418.183594 402.292969 413.566406 C 403.082031 409.214844 402.292969 404.203125 400.179688 399.589844 C 399.652344 398.535156 399.125 397.480469 398.46875 396.425781 C 398.597656 396.425781 398.597656 396.554688 398.730469 396.554688 C 425.105469 407.765625 459.785156 413.960938 496.308594 413.960938 C 529.539062 413.960938 561.316406 408.820312 586.636719 399.324219 C 578.328125 411.0625 550.902344 442.179688 493.539062 443.367188 C 458.992188 443.105469 426.421875 437.039062 401.367188 426.488281 C 399.125 425.828125 397.015625 424.773438 395.039062 423.851562 Z M 496.175781 394.316406 C 568.175781 394.316406 624.613281 369.523438 624.613281 337.746094 C 624.613281 305.96875 568.175781 281.175781 496.175781 281.175781 C 424.179688 281.175781 367.742188 305.96875 367.742188 337.746094 C 367.742188 369.523438 424.179688 394.316406 496.175781 394.316406 Z M 496.175781 387.722656 C 445.542969 387.722656 400.972656 374.273438 382.90625 355.8125 C 401.5 336.691406 446.332031 323.898438 496.175781 323.898438 C 546.023438 323.898438 590.855469 336.558594 609.449219 355.8125 C 591.382812 374.273438 546.8125 387.722656 496.175781 387.722656 Z M 618.019531 337.746094 C 618.019531 342.230469 616.4375 346.582031 613.667969 350.667969 C 593.492188 330.625 547.207031 317.308594 496.175781 317.308594 C 496.046875 317.308594 495.914062 317.308594 495.648438 317.308594 C 465.585938 314.800781 454.640625 298.449219 451.34375 291.460938 C 465.320312 289.089844 480.355469 287.769531 496.046875 287.769531 C 562.242188 287.769531 618.019531 310.714844 618.019531 337.746094 Z M 618.019531 337.746094 " fill-opacity="1" fill-rule="nonzero"/></g></svg>