<svg xmlns="http://www.w3.org/2000/svg" xmlns:xlink="http://www.w3.org/1999/xlink" width="1080" zoomAndPan="magnify" viewBox="0 0 810 809.999993" height="1080" preserveAspectRatio="xMidYMid meet" version="1.0"><defs><clipPath id="ec1306b07f"><path d="M 105.261719 56.214844 L 704.511719 56.214844 L 704.511719 753.710938 L 105.261719 753.710938 Z M 105.261719 56.214844 " clip-rule="nonzero"/></clipPath><clipPath id="a4dd18afa5"><path d="M 404.996094 56.214844 L 704.734375 230.605469 L 704.734375 579.390625 L 404.996094 753.78125 L 105.261719 579.390625 L 105.261719 230.605469 Z M 404.996094 56.214844 " clip-rule="nonzero"/></clipPath><clipPath id="b1d0d846bb"><path d="M 224.972656 215.128906 L 584.972656 215.128906 L 584.972656 594.628906 L 224.972656 594.628906 Z M 224.972656 215.128906 " clip-rule="nonzero"/></clipPath></defs><g clip-path="url(#ec1306b07f)"><g clip-path="url(#a4dd18afa5)"><path stroke-linecap="butt" transform="matrix(0.75, 0, 0, 0.75, 105.260439, 56.213242)" fill="none" stroke-linejoin="miter" d="M 399.647585 0.0021357 L 799.298673 232.522996 L 799.298673 697.569924 L 399.647585 930.090784 L 0.00170633 697.569924 L 0.00170633 232.522996 Z M 399.647585 0.0021357 " stroke="#ffffff" stroke-width="100" stroke-opacity="1" stroke-miterlimit="4"/></g></g><g clip-path="url(#b1d0d846bb)"><path fill="#ffffff" d="M 583.566406 299.261719 C 578.023438 258.484375 542.09375 226.351562 499.503906 220.125 C 492.320312 219.070312 465.09375 215.242188 402.027344 215.242188 L 401.558594 215.242188 C 338.476562 215.242188 324.941406 219.070312 317.757812 220.125 C 276.355469 226.179688 238.542969 255.054688 229.367188 296.3125 C 224.957031 316.632812 224.488281 339.15625 225.304688 359.820312 C 226.476562 389.457031 226.699219 419.035156 229.421875 448.550781 C 231.304688 468.183594 234.578125 487.582031 239.238281 506.75 C 247.960938 542.109375 283.261719 571.535156 317.84375 583.542969 C 327.066406 586.65625 336.457031 589.128906 346.015625 590.957031 C 355.574219 592.785156 365.214844 593.953125 374.933594 594.460938 C 384.652344 594.96875 394.359375 594.808594 404.058594 593.988281 C 413.757812 593.164062 423.351562 591.683594 432.847656 589.542969 C 437.039062 588.578125 441.191406 587.457031 445.300781 586.179688 C 454.558594 583.265625 465.425781 580.003906 473.414062 574.277344 C 473.523438 574.199219 473.613281 574.09375 473.679688 573.972656 C 473.742188 573.855469 473.773438 573.722656 473.78125 573.585938 L 473.78125 544.992188 C 473.777344 544.71875 473.667969 544.503906 473.453125 544.335938 C 473.238281 544.171875 473 544.121094 472.734375 544.175781 C 448.195312 549.976562 423.320312 552.847656 398.105469 552.800781 C 354.855469 552.800781 343.21875 532.5 339.890625 524.050781 C 337.203125 516.71875 335.515625 509.164062 334.832031 501.382812 C 334.824219 501.253906 334.847656 501.125 334.902344 501.003906 C 335.015625 500.746094 335.210938 500.585938 335.488281 500.53125 C 335.617188 500.503906 335.75 500.507812 335.878906 500.539062 C 360.007812 506.296875 384.476562 509.171875 409.285156 509.164062 C 415.234375 509.164062 421.160156 509.164062 427.109375 509.007812 C 451.980469 508.320312 478.191406 507.058594 502.660156 502.332031 C 503.269531 502.210938 503.882812 502.109375 504.40625 501.953125 C 543 494.621094 579.730469 471.613281 583.464844 413.34375 C 583.601562 411.050781 583.953125 389.316406 583.953125 386.9375 C 583.96875 378.847656 586.585938 329.550781 583.566406 299.261719 Z M 524.164062 444.652344 L 483.582031 444.652344 L 483.582031 346.332031 C 483.582031 325.632812 474.863281 315.078125 457.125 315.078125 C 437.625 315.078125 427.859375 327.566406 427.859375 352.234375 L 427.859375 406.046875 L 387.519531 406.046875 L 387.519531 352.234375 C 387.519531 327.566406 377.734375 315.078125 358.238281 315.078125 C 340.605469 315.078125 331.796875 325.632812 331.777344 346.332031 L 331.777344 444.652344 L 291.230469 444.652344 L 291.230469 343.347656 C 291.230469 322.652344 296.574219 306.207031 307.257812 294.015625 C 318.28125 281.855469 332.738281 275.613281 350.683594 275.613281 C 371.457031 275.613281 387.152344 283.511719 397.617188 299.296875 L 407.714844 316.0625 L 417.832031 299.296875 C 428.296875 283.511719 443.992188 275.613281 464.730469 275.613281 C 482.65625 275.613281 497.113281 281.855469 508.171875 294.015625 C 518.859375 306.195312 524.199219 322.636719 524.199219 343.347656 Z M 524.164062 444.652344 " fill-opacity="1" fill-rule="nonzero"/></g></svg>