<svg xmlns="http://www.w3.org/2000/svg" xmlns:xlink="http://www.w3.org/1999/xlink" width="1080" zoomAndPan="magnify" viewBox="0 0 810 809.999993" height="1080" preserveAspectRatio="xMidYMid meet" version="1.0"><defs><clipPath id="7836082885"><path d="M 105.261719 56.214844 L 704.511719 56.214844 L 704.511719 753.710938 L 105.261719 753.710938 Z M 105.261719 56.214844 " clip-rule="nonzero"/></clipPath><clipPath id="3cfd9c17dc"><path d="M 404.996094 56.214844 L 704.734375 230.605469 L 704.734375 579.390625 L 404.996094 753.78125 L 105.261719 579.390625 L 105.261719 230.605469 Z M 404.996094 56.214844 " clip-rule="nonzero"/></clipPath></defs><g clip-path="url(#7836082885)"><g clip-path="url(#3cfd9c17dc)"><path stroke-linecap="butt" transform="matrix(0.75, 0, 0, 0.75, 105.260439, 56.213242)" fill="none" stroke-linejoin="miter" d="M 399.647585 0.0021357 L 799.298673 232.522996 L 799.298673 697.569924 L 399.647585 930.090784 L 0.00170633 697.569924 L 0.00170633 232.522996 Z M 399.647585 0.0021357 " stroke="#ffffff" stroke-width="100" stroke-opacity="1" stroke-miterlimit="4"/></g></g><path fill="#ffffff" d="M 541.078125 348.804688 C 528.230469 348.804688 516.398438 353.136719 506.945312 360.414062 C 481.214844 344.492188 448.730469 334.476562 413.191406 333.144531 C 413.191406 333.089844 413.191406 333.050781 413.191406 332.996094 C 413.191406 309.175781 430.894531 289.410156 453.851562 286.164062 C 458.011719 303.8125 473.859375 316.960938 492.785156 316.960938 C 514.878906 316.960938 532.789062 299.050781 532.789062 276.957031 C 532.789062 254.863281 514.878906 236.953125 492.785156 236.953125 C 473.46875 236.953125 457.355469 250.644531 453.605469 268.855469 C 421.253906 272.324219 395.992188 299.761719 395.992188 333.015625 C 395.992188 333.089844 395.992188 333.144531 395.992188 333.21875 C 360.808594 334.703125 328.683594 344.71875 303.175781 360.527344 C 293.703125 353.195312 281.8125 348.824219 268.910156 348.824219 C 237.949219 348.824219 212.855469 373.917969 212.855469 404.882812 C 212.855469 427.351562 226.058594 446.703125 245.128906 455.652344 C 246.988281 520.730469 317.898438 573.074219 405.125 573.074219 C 492.351562 573.074219 563.359375 520.671875 565.121094 455.539062 C 584.042969 446.535156 597.136719 427.238281 597.136719 404.902344 C 597.136719 373.9375 572.042969 348.84375 541.078125 348.84375 Z M 541.078125 348.804688 " fill-opacity="1" fill-rule="nonzero"/></svg>