<svg xmlns="http://www.w3.org/2000/svg" xmlns:xlink="http://www.w3.org/1999/xlink" width="1080" zoomAndPan="magnify" viewBox="0 0 810 809.999993" height="1080" preserveAspectRatio="xMidYMid meet" version="1.0"><defs><clipPath id="02aa03867a"><path d="M 0.289062 0.261719 L 108.871094 0.261719 L 108.871094 81.828125 L 0.289062 81.828125 Z M 0.289062 0.261719 " clip-rule="nonzero"/></clipPath><clipPath id="75eb15950d"><path d="M 0.289062 0.261719 L 108.871094 0.261719 L 108.871094 81.828125 L 0.289062 81.828125 Z M 0.289062 0.261719 " clip-rule="nonzero"/></clipPath><clipPath id="57ed7bf7b6"><rect x="0" width="109" y="0" height="82"/></clipPath><clipPath id="a5574958b5"><path d="M 0.289062 5.574219 L 108.875 5.574219 L 108.875 177.78125 L 0.289062 177.78125 Z M 0.289062 5.574219 " clip-rule="nonzero"/></clipPath><clipPath id="7f1ea8dc24"><path d="M 36.503906 9.164062 C 42.054688 6.996094 48.398438 5.574219 54.613281 5.574219 C 60.824219 5.574219 66.800781 6.792969 72.308594 8.960938 C 72.425781 9.03125 72.542969 9.03125 72.660156 9.097656 C 93.34375 17.765625 108.582031 40.660156 108.875 67.832031 L 108.875 162.476562 C 108.875 170.761719 102.15625 177.476562 93.875 177.476562 L 15.289062 177.476562 C 7.007812 177.476562 0.289062 170.761719 0.289062 162.476562 L 0.289062 67.914062 C 0.582031 40.523438 15.585938 17.632812 36.503906 9.164062 Z M 36.503906 9.164062 " clip-rule="nonzero"/></clipPath><clipPath id="e63169fbd0"><path d="M 0.289062 0.574219 L 108.875 0.574219 L 108.875 172.519531 L 0.289062 172.519531 Z M 0.289062 0.574219 " clip-rule="nonzero"/></clipPath><clipPath id="bb50763e1d"><path d="M 36.503906 4.164062 C 42.054688 1.996094 48.398438 0.574219 54.613281 0.574219 C 60.824219 0.574219 66.800781 1.792969 72.308594 3.960938 C 72.425781 4.03125 72.542969 4.03125 72.660156 4.097656 C 93.34375 12.765625 108.582031 35.660156 108.875 62.832031 L 108.875 157.476562 C 108.875 165.761719 102.15625 172.476562 93.875 172.476562 L 15.289062 172.476562 C 7.007812 172.476562 0.289062 165.761719 0.289062 157.476562 L 0.289062 62.914062 C 0.582031 35.523438 15.585938 12.632812 36.503906 4.164062 Z M 36.503906 4.164062 " clip-rule="nonzero"/></clipPath><clipPath id="a1b2377088"><rect x="0" width="109" y="0" height="173"/></clipPath><clipPath id="264308a62c"><rect x="0" width="110" y="0" height="178"/></clipPath><clipPath id="c269f16fde"><path d="M 105.261719 62 L 704.511719 62 L 704.511719 748 L 105.261719 748 Z M 105.261719 62 " clip-rule="nonzero"/></clipPath><clipPath id="ccbf6ed461"><path d="M 425.742188 68.28125 L 683.988281 218.535156 C 696.832031 226.007812 704.734375 239.746094 704.734375 254.605469 L 704.734375 555.390625 C 704.734375 570.25 696.832031 583.984375 683.988281 591.457031 L 425.742188 741.710938 C 412.917969 749.171875 397.074219 749.171875 384.253906 741.710938 L 126.003906 591.457031 C 113.160156 583.984375 105.261719 570.25 105.261719 555.390625 L 105.261719 254.605469 C 105.261719 239.746094 113.160156 226.007812 126.003906 218.535156 L 384.253906 68.28125 C 397.074219 60.820312 412.917969 60.820312 425.742188 68.28125 Z M 425.742188 68.28125 " clip-rule="nonzero"/></clipPath><clipPath id="2fd6102557"><path d="M 0.277344 0.789062 L 63.832031 0.789062 L 63.832031 53.609375 L 0.277344 53.609375 Z M 0.277344 0.789062 " clip-rule="nonzero"/></clipPath><clipPath id="1b6d7edb15"><path d="M 0.277344 0.789062 L 63.832031 0.789062 L 63.832031 53.609375 L 0.277344 53.609375 Z M 0.277344 0.789062 " clip-rule="nonzero"/></clipPath><clipPath id="19938f42cb"><rect x="0" width="64" y="0" height="54"/></clipPath><clipPath id="af824f4539"><path d="M 4.421875 0.789062 L 138.542969 0.789062 L 138.542969 53.609375 L 4.421875 53.609375 Z M 4.421875 0.789062 " clip-rule="nonzero"/></clipPath><clipPath id="badd647b10"><path d="M 6 35.992188 C 5.046875 33.292969 4.421875 30.207031 4.421875 27.183594 C 4.421875 24.164062 4.957031 21.253906 5.910156 18.574219 C 5.941406 18.519531 5.941406 18.460938 5.972656 18.40625 C 9.785156 8.34375 19.855469 0.929688 33.105469 0.789062 L 123.359375 0.789062 C 131.644531 0.789062 138.359375 7.503906 138.359375 15.789062 L 138.359375 38.609375 C 138.359375 46.894531 131.644531 53.609375 123.359375 53.609375 L 33.183594 53.609375 C 19.796875 53.46875 9.726562 46.171875 6 35.992188 Z M 6 35.992188 " clip-rule="nonzero"/></clipPath><clipPath id="c7fe38ba1c"><path d="M 0.421875 0.789062 L 134.398438 0.789062 L 134.398438 53.609375 L 0.421875 53.609375 Z M 0.421875 0.789062 " clip-rule="nonzero"/></clipPath><clipPath id="db06c0cb3c"><path d="M 2 35.992188 C 1.046875 33.292969 0.421875 30.207031 0.421875 27.183594 C 0.421875 24.164062 0.957031 21.253906 1.910156 18.574219 C 1.941406 18.519531 1.941406 18.460938 1.972656 18.40625 C 5.785156 8.34375 15.855469 0.929688 29.105469 0.789062 L 119.359375 0.789062 C 127.644531 0.789062 134.359375 7.503906 134.359375 15.789062 L 134.359375 38.609375 C 134.359375 46.894531 127.644531 53.609375 119.359375 53.609375 L 29.183594 53.609375 C 15.796875 53.46875 5.726562 46.171875 2 35.992188 Z M 2 35.992188 " clip-rule="nonzero"/></clipPath><clipPath id="401ec536d0"><rect x="0" width="135" y="0" height="54"/></clipPath><clipPath id="f4b64fd5f0"><rect x="0" width="139" y="0" height="54"/></clipPath><clipPath id="0a944b6c43"><path d="M 0.339844 0.261719 L 109.652344 0.261719 L 109.652344 81.832031 L 0.339844 81.832031 Z M 0.339844 0.261719 " clip-rule="nonzero"/></clipPath><clipPath id="829239658f"><path d="M 0.339844 0.261719 L 109.652344 0.261719 L 109.652344 81.832031 L 0.339844 81.832031 Z M 0.339844 0.261719 " clip-rule="nonzero"/></clipPath><clipPath id="06e0710e15"><rect x="0" width="110" y="0" height="82"/></clipPath><clipPath id="ccec8b10fd"><path d="M 0.339844 5.582031 L 109.65625 5.582031 L 109.65625 177.667969 L 0.339844 177.667969 Z M 0.339844 5.582031 " clip-rule="nonzero"/></clipPath><clipPath id="b53c966ef0"><path d="M 36.800781 9.539062 C 42.386719 7.148438 48.773438 5.582031 55.027344 5.582031 C 61.28125 5.582031 67.300781 6.925781 72.84375 9.3125 C 72.960938 9.386719 73.082031 9.386719 73.199219 9.464844 C 94.023438 19.015625 109.363281 44.234375 109.65625 73.785156 L 109.65625 162.484375 C 109.65625 166.464844 108.074219 170.277344 105.261719 173.089844 C 102.449219 175.90625 98.632812 177.484375 94.65625 177.484375 L 15.339844 177.484375 C 11.363281 177.484375 7.546875 175.90625 4.734375 173.089844 C 1.921875 170.277344 0.339844 166.464844 0.339844 162.484375 L 0.339844 73.863281 C 0.636719 44.085938 15.738281 18.863281 36.800781 9.539062 Z M 36.800781 9.539062 " clip-rule="nonzero"/></clipPath><clipPath id="9b09fed4be"><path d="M 0.339844 0.582031 L 109.65625 0.582031 L 109.65625 172.519531 L 0.339844 172.519531 Z M 0.339844 0.582031 " clip-rule="nonzero"/></clipPath><clipPath id="c608ca41c1"><path d="M 36.800781 4.539062 C 42.386719 2.148438 48.773438 0.582031 55.027344 0.582031 C 61.28125 0.582031 67.300781 1.925781 72.84375 4.3125 C 72.960938 4.386719 73.082031 4.386719 73.199219 4.464844 C 94.023438 14.015625 109.363281 39.234375 109.65625 68.785156 L 109.65625 157.484375 C 109.65625 161.464844 108.074219 165.277344 105.261719 168.089844 C 102.449219 170.90625 98.632812 172.484375 94.65625 172.484375 L 15.339844 172.484375 C 11.363281 172.484375 7.546875 170.90625 4.734375 168.089844 C 1.921875 165.277344 0.339844 161.464844 0.339844 157.484375 L 0.339844 68.863281 C 0.636719 39.085938 15.738281 13.863281 36.800781 4.539062 Z M 36.800781 4.539062 " clip-rule="nonzero"/></clipPath><clipPath id="a04dfafd3a"><rect x="0" width="110" y="0" height="173"/></clipPath><clipPath id="99fe446832"><rect x="0" width="111" y="0" height="178"/></clipPath><clipPath id="9cd785f13b"><path d="M 75.101562 0.792969 L 138.65625 0.792969 L 138.65625 53.617188 L 75.101562 53.617188 Z M 75.101562 0.792969 " clip-rule="nonzero"/></clipPath><clipPath id="8f598b7876"><path d="M 0.101562 0.792969 L 63.65625 0.792969 L 63.65625 53.617188 L 0.101562 53.617188 Z M 0.101562 0.792969 " clip-rule="nonzero"/></clipPath><clipPath id="2d8a99834f"><rect x="0" width="64" y="0" height="54"/></clipPath><clipPath id="c7a093a42c"><path d="M 0.390625 0.796875 L 134.511719 0.796875 L 134.511719 53.617188 L 0.390625 53.617188 Z M 0.390625 0.796875 " clip-rule="nonzero"/></clipPath><clipPath id="0ba507ad45"><path d="M 132.933594 18.414062 C 133.886719 21.113281 134.511719 24.199219 134.511719 27.222656 C 134.511719 30.242188 133.976562 33.152344 133.019531 35.828125 C 132.992188 35.886719 132.992188 35.945312 132.960938 36 C 129.148438 46.0625 119.078125 53.476562 105.828125 53.617188 L 15.574219 53.617188 C 7.289062 53.617188 0.574219 46.902344 0.574219 38.617188 L 0.574219 15.796875 C 0.574219 7.511719 7.289062 0.796875 15.574219 0.796875 L 105.75 0.796875 C 119.136719 0.9375 129.207031 8.234375 132.933594 18.414062 Z M 132.933594 18.414062 " clip-rule="nonzero"/></clipPath><clipPath id="1a0f5892c0"><path d="M 0.558594 0.796875 L 134.511719 0.796875 L 134.511719 53.617188 L 0.558594 53.617188 Z M 0.558594 0.796875 " clip-rule="nonzero"/></clipPath><clipPath id="01b38425ac"><path d="M 132.933594 18.414062 C 133.886719 21.113281 134.511719 24.199219 134.511719 27.222656 C 134.511719 30.242188 133.976562 33.152344 133.019531 35.828125 C 132.992188 35.886719 132.992188 35.945312 132.960938 36 C 129.148438 46.0625 119.078125 53.476562 105.828125 53.617188 L 15.574219 53.617188 C 7.289062 53.617188 0.574219 46.902344 0.574219 38.617188 L 0.574219 15.796875 C 0.574219 7.511719 7.289062 0.796875 15.574219 0.796875 L 105.75 0.796875 C 119.136719 0.9375 129.207031 8.234375 132.933594 18.414062 Z M 132.933594 18.414062 " clip-rule="nonzero"/></clipPath><clipPath id="f6a9f08d25"><rect x="0" width="135" y="0" height="54"/></clipPath><clipPath id="813fc5a718"><rect x="0" width="139" y="0" height="54"/></clipPath><clipPath id="c1b41936fc"><path d="M 213.09375 216.453125 L 597 216.453125 L 597 593.703125 L 213.09375 593.703125 Z M 213.09375 216.453125 " clip-rule="nonzero"/></clipPath></defs><g transform="matrix(1, 0, 0, 1, 434, 380)"><g clip-path="url(#264308a62c)"><g clip-path="url(#02aa03867a)"><g transform="matrix(1, 0, 0, 1, 0, 0.000000000000056843)"><g clip-path="url(#57ed7bf7b6)"><g clip-path="url(#75eb15950d)"><path fill="#2a536d" d="M 0.289062 81.828125 L 0.289062 0.261719 L 108.9375 0.261719 L 108.9375 81.828125 Z M 0.289062 81.828125 " fill-opacity="1" fill-rule="nonzero"/></g></g></g></g><g clip-path="url(#a5574958b5)"><g clip-path="url(#7f1ea8dc24)"><g transform="matrix(1, 0, 0, 1, 0, 5)"><g clip-path="url(#a1b2377088)"><g clip-path="url(#e63169fbd0)"><g clip-path="url(#bb50763e1d)"><path fill="#2a536d" d="M 0.289062 0.574219 L 108.875 0.574219 L 108.875 172.359375 L 0.289062 172.359375 Z M 0.289062 0.574219 " fill-opacity="1" fill-rule="nonzero"/></g></g></g></g></g></g></g></g><g clip-path="url(#c269f16fde)"><g clip-path="url(#ccbf6ed461)"><path stroke-linecap="butt" transform="matrix(0.75, 0, 0, 0.75, 105.260439, 56.213242)" fill="none" stroke-linejoin="miter" d="M 427.309047 16.090679 L 771.637211 216.429244 C 788.762213 226.392787 799.298673 244.710497 799.298673 264.522999 L 799.298673 665.56992 C 799.298673 685.382422 788.762213 703.694924 771.637211 713.658467 L 427.309047 913.997032 C 410.210087 923.94495 389.085084 923.94495 371.991332 913.997032 L 27.657959 713.658467 C 10.532958 703.694924 0.00170633 685.382422 0.00170633 665.56992 L 0.00170633 264.522999 C 0.00170633 244.710497 10.532958 226.392787 27.657959 216.429244 L 371.991332 16.090679 C 389.085084 6.142761 410.210087 6.142761 427.309047 16.090679 Z M 427.309047 16.090679 " stroke="#5bc0ff" stroke-width="30" stroke-opacity="1" stroke-miterlimit="4"/></g></g><g transform="matrix(1, 0, 0, 1, 434, 304)"><g clip-path="url(#f4b64fd5f0)"><g clip-path="url(#2fd6102557)"><g><g clip-path="url(#19938f42cb)"><g clip-path="url(#1b6d7edb15)"><path fill="#2a536d" d="M 63.832031 53.609375 L 0.28125 53.609375 L 0.28125 0.789062 L 63.832031 0.789062 Z M 63.832031 53.609375 " fill-opacity="1" fill-rule="nonzero"/></g></g></g></g><g clip-path="url(#af824f4539)"><g clip-path="url(#badd647b10)"><g transform="matrix(1, 0, 0, 1, 4, 0)"><g clip-path="url(#401ec536d0)"><g clip-path="url(#c7fe38ba1c)"><g clip-path="url(#db06c0cb3c)"><path fill="#2a536d" d="M 0.421875 53.609375 L 0.421875 0.789062 L 134.335938 0.789062 L 134.335938 53.609375 Z M 0.421875 53.609375 " fill-opacity="1" fill-rule="nonzero"/></g></g></g></g></g></g></g></g><g transform="matrix(1, 0, 0, 1, 267, 380)"><g clip-path="url(#99fe446832)"><g clip-path="url(#0a944b6c43)"><g transform="matrix(1, 0, 0, 1, 0, 0.000000000000056843)"><g clip-path="url(#06e0710e15)"><g clip-path="url(#829239658f)"><path fill="#2a536d" d="M 0.339844 81.832031 L 0.339844 0.261719 L 109.625 0.261719 L 109.625 81.832031 Z M 0.339844 81.832031 " fill-opacity="1" fill-rule="nonzero"/></g></g></g></g><g clip-path="url(#ccec8b10fd)"><g clip-path="url(#b53c966ef0)"><g transform="matrix(1, 0, 0, 1, 0, 5)"><g clip-path="url(#a04dfafd3a)"><g clip-path="url(#9b09fed4be)"><g clip-path="url(#c608ca41c1)"><path fill="#2a536d" d="M 0.339844 0.582031 L 109.65625 0.582031 L 109.65625 172.667969 L 0.339844 172.667969 Z M 0.339844 0.582031 " fill-opacity="1" fill-rule="nonzero"/></g></g></g></g></g></g></g></g><g transform="matrix(1, 0, 0, 1, 238, 304)"><g clip-path="url(#813fc5a718)"><g clip-path="url(#9cd785f13b)"><g transform="matrix(1, 0, 0, 1, 75, 0)"><g clip-path="url(#2d8a99834f)"><g clip-path="url(#8f598b7876)"><path fill="#2a536d" d="M 0.101562 0.792969 L 63.652344 0.792969 L 63.652344 53.617188 L 0.101562 53.617188 Z M 0.101562 0.792969 " fill-opacity="1" fill-rule="nonzero"/></g></g></g></g><g clip-path="url(#c7a093a42c)"><g clip-path="url(#0ba507ad45)"><g><g clip-path="url(#f6a9f08d25)"><g clip-path="url(#1a0f5892c0)"><g clip-path="url(#01b38425ac)"><path fill="#2a536d" d="M 134.511719 0.796875 L 134.511719 53.617188 L 0.597656 53.617188 L 0.597656 0.796875 Z M 134.511719 0.796875 " fill-opacity="1" fill-rule="nonzero"/></g></g></g></g></g></g></g></g><g clip-path="url(#c1b41936fc)"><path fill="#5bc0ff" d="M 230.863281 302.660156 L 264.910156 302.660156 C 262.445312 299.042969 260.421875 295.160156 258.871094 291.101562 C 255.566406 282.449219 254.398438 272.957031 255.691406 263.460938 C 256.976562 253.960938 260.632812 245.121094 266.128906 237.660156 C 271.652344 230.164062 279.007812 224.039062 287.675781 220 L 287.6875 220.023438 L 288.296875 219.777344 C 303.859375 214.382812 320.179688 215.523438 337.238281 223.1875 C 353.019531 230.28125 369.421875 242.988281 386.429688 261.316406 L 422.21875 261.316406 C 439.230469 242.988281 455.628906 230.28125 471.410156 223.1875 C 488.472656 215.523438 504.789062 214.382812 520.351562 219.777344 L 520.960938 220.023438 L 520.972656 220 C 529.640625 224.039062 537 230.164062 542.519531 237.660156 C 548.015625 245.121094 551.671875 253.960938 552.960938 263.460938 C 554.246094 272.957031 553.082031 282.449219 549.773438 291.101562 C 548.222656 295.160156 546.199219 299.039062 543.738281 302.660156 L 579.128906 302.660156 C 583.988281 302.660156 588.40625 304.644531 591.601562 307.84375 C 594.796875 311.039062 596.785156 315.457031 596.785156 320.316406 L 596.785156 371.925781 C 596.785156 376.769531 594.796875 381.175781 591.601562 384.375 L 591.578125 384.398438 C 588.859375 387.117188 585.257812 388.960938 581.257812 389.449219 L 581.257812 565.636719 C 581.257812 573.300781 578.113281 580.277344 573.050781 585.347656 L 573.0625 585.359375 C 568.003906 590.414062 561.023438 593.554688 553.339844 593.554688 L 256.652344 593.554688 C 248.984375 593.554688 242.011719 590.414062 236.953125 585.359375 L 236.929688 585.359375 C 231.871094 580.300781 228.734375 573.320312 228.734375 565.636719 L 228.734375 389.449219 C 224.71875 388.964844 221.109375 387.117188 218.390625 384.398438 C 215.191406 381.199219 213.207031 376.785156 213.207031 371.925781 L 213.207031 320.316406 C 213.207031 315.484375 215.191406 311.074219 218.390625 307.867188 L 218.429688 307.828125 C 221.632812 304.640625 226.039062 302.660156 230.863281 302.660156 Z M 431.355469 270.132812 L 431.355469 298.722656 C 433.414062 297.636719 435.59375 296.476562 437.859375 295.265625 C 465.425781 280.546875 505.191406 259.3125 525.410156 276.742188 C 530.207031 280.878906 533.613281 286.183594 535.414062 291.964844 C 536.367188 290.226562 537.199219 288.429688 537.902344 286.582031 C 540.476562 279.847656 541.386719 272.488281 540.394531 265.148438 C 539.398438 257.808594 536.558594 250.960938 532.285156 245.160156 C 528.058594 239.417969 522.394531 234.703125 515.699219 231.566406 C 503.453125 227.480469 490.410156 228.546875 476.574219 234.761719 C 462.351562 241.152344 447.273438 252.945312 431.355469 270.132812 Z M 450.929688 302.660156 L 524.210938 302.660156 C 524.304688 300.359375 524.011719 298.078125 523.355469 295.90625 L 523.328125 295.90625 C 522.222656 292.25 520.101562 288.90625 517.113281 286.332031 C 504.761719 275.683594 474.648438 290.148438 450.929688 302.660156 Z M 284.445312 302.660156 L 357.714844 302.660156 C 333.996094 290.144531 303.886719 275.683594 291.535156 286.332031 C 288.652344 288.816406 286.578125 291.984375 285.441406 295.441406 L 285.320312 295.90625 C 284.65625 298.085938 284.359375 300.371094 284.445312 302.660156 Z M 377.296875 298.722656 L 377.296875 270.132812 C 361.375 252.945312 346.300781 241.152344 332.074219 234.761719 C 318.238281 228.546875 305.195312 227.480469 292.949219 231.566406 C 286.253906 234.703125 280.589844 239.417969 276.363281 245.160156 C 272.089844 250.960938 269.25 257.808594 268.257812 265.148438 C 267.261719 272.488281 268.171875 279.847656 270.742188 286.582031 C 271.449219 288.429688 272.28125 290.230469 273.234375 291.972656 L 273.359375 291.636719 C 275.195312 285.964844 278.558594 280.78125 283.238281 276.742188 C 303.457031 259.3125 343.222656 280.546875 370.789062 295.265625 C 373.054688 296.476562 375.234375 297.636719 377.296875 298.722656 Z M 390.011719 302.660156 L 418.636719 302.660156 L 418.636719 274.035156 L 390.011719 274.035156 Z M 444.847656 315.375 L 444.847656 376.863281 L 579.128906 376.863281 C 580.492188 376.863281 581.730469 376.308594 582.625 375.417969 C 583.515625 374.523438 584.066406 373.285156 584.066406 371.925781 L 584.066406 320.316406 C 584.066406 318.964844 583.507812 317.726562 582.613281 316.832031 C 581.714844 315.9375 580.480469 315.375 579.128906 315.375 Z M 444.847656 389.578125 L 444.847656 580.839844 L 553.339844 580.839844 C 557.515625 580.839844 561.316406 579.125 564.070312 576.367188 L 564.09375 576.367188 C 566.835938 573.625 568.542969 569.828125 568.542969 565.636719 L 568.542969 389.578125 Z M 365.144531 580.839844 L 365.144531 389.578125 L 241.449219 389.578125 L 241.449219 565.636719 C 241.449219 569.8125 243.164062 573.613281 245.917969 576.367188 L 245.90625 576.382812 C 248.660156 579.132812 252.46875 580.839844 256.652344 580.839844 Z M 365.144531 376.863281 L 365.144531 315.375 L 230.863281 315.375 C 229.496094 315.375 228.261719 315.925781 227.382812 316.808594 L 227.355469 316.832031 C 226.472656 317.714844 225.925781 318.949219 225.925781 320.316406 L 225.925781 371.925781 C 225.925781 373.277344 226.484375 374.511719 227.382812 375.410156 C 228.273438 376.304688 229.511719 376.863281 230.863281 376.863281 Z M 377.863281 315.375 L 377.863281 376.863281 L 432.128906 376.863281 L 432.128906 315.375 Z M 377.863281 389.578125 L 377.863281 580.839844 L 432.128906 580.839844 L 432.128906 389.578125 Z M 377.863281 389.578125 " fill-opacity="1" fill-rule="evenodd"/></g></svg>