<svg id="Layer_1" data-name="Layer 1" xmlns="http://www.w3.org/2000/svg" viewBox="0 0 47 47"><defs><style>.cls-1{fill:#3FA5E3;}</style></defs><path class="cls-1" d="M41,15.22l-5-2.87V10.54L33.15,8.9c.88-.45,1.19-.72.42-1.46a3.79,3.79,0,0,0-1-.78h0l-.11-.11A1.67,1.67,0,0,1,32.09,6a3.68,3.68,0,0,0-.66-1,2.12,2.12,0,0,0-1.07-.69h0A2.77,2.77,0,0,1,30,4.08V3.87L28.5,3,27,3.87V5.36l-3.5-2L11,10.54v5.07l2.16,1.24L6,21v5.07l7.21,4.15L11,31.47v5.07l12.5,7.2,15.55-9V29.71l-7.21-4.15L41,20.29ZM18,21.13l-.46.26L16,20.51V14.42l.49-.27L18,15Zm1-4.81,4.5,2.59,10.5-6v1.59l-10.5,6L19,17.91ZM30.69,5.68c.56.63.43.93,1,1.55s.63.17,1.19.8H32.7a.07.07,0,0,0-.06,0h0l-.09,0h0l-.1.08a1.75,1.75,0,0,0-.2.19.57.57,0,0,1-.38.13h0c-.56,0-.69-.49-1.25-.51h0a.86.86,0,0,0-.51.18l-.07,0a.42.42,0,0,1-.16,0,.57.57,0,0,1-.27-.09V4.89a1.68,1.68,0,0,0,.29.27l.11,0h0l.09,0A1.21,1.21,0,0,1,30.69,5.68ZM28,4.44l.5-.28V8.74L29,9v2.1l-.5.29-.5-.29ZM13,11.7l10.5-6,3.5,2v4l1.5.87,1.5-.87V9.4l4,2.3h0l-1.56.9L23.5,17.76,19,15.17v-.72L16.5,13l-.65.35L13,11.71Zm0,2.76V12.87L15,14v1.59Zm-5,7.7L15,18.1v3l2.54,1.47L19,21.71V20.22l4.5,2.59L36,15.61v-.95l3,1.72h0L22.87,25.67l-.37-.2L20,26.91v.42l-1.55.89L8,22.17ZM23,26.88V33l-1.54.89L21,33.59v-6.1l1.51-.88Zm-15-2V23.33l10.5,6.05L20,28.49v1.59L18.45,31Zm29.1,8.7L23.5,41.43l-10.5-6V33.8l10.5,6L37.05,32Zm0-2.75h0L23.5,38.69l-10.5-6h0l2.17-1.25,3.28,1.89L20,32.38v1.79l1.46.84L24,33.55V30.07l5.83-3.36ZM39,19.13,24,27.77V26.29l-.1-.05L39,17.54ZM21.81,31.87l.79-.45v1l-.79.45Zm0-1.85.79-.45v1l-.79.45Zm0-1.85.79-.45v1l-.79.45ZM16.4,19l.79.46v1l-.79-.46Zm.79-1.39v1l-.79-.46v-1Zm-.79-2.31.79.46v1l-.79-.46Z"/></svg>
