<svg xmlns="http://www.w3.org/2000/svg" xmlns:xlink="http://www.w3.org/1999/xlink" width="1080" zoomAndPan="magnify" viewBox="0 0 810 809.999993" height="1080" preserveAspectRatio="xMidYMid meet" version="1.0"><defs><clipPath id="8f2f341215"><path d="M 105.261719 56.214844 L 704.511719 56.214844 L 704.511719 753.710938 L 105.261719 753.710938 Z M 105.261719 56.214844 " clip-rule="nonzero"/></clipPath><clipPath id="d438278533"><path d="M 404.996094 56.214844 L 704.734375 230.605469 L 704.734375 579.390625 L 404.996094 753.78125 L 105.261719 579.390625 L 105.261719 230.605469 Z M 404.996094 56.214844 " clip-rule="nonzero"/></clipPath><clipPath id="94c6d8362c"><path d="M 253.683594 216 L 556 216 L 556 593.917969 L 253.683594 593.917969 Z M 253.683594 216 " clip-rule="nonzero"/></clipPath></defs><g clip-path="url(#8f2f341215)"><g clip-path="url(#d438278533)"><path stroke-linecap="butt" transform="matrix(0.75, 0, 0, 0.75, 105.260439, 56.212176)" fill="none" stroke-linejoin="miter" d="M 399.647585 0.0035565 L 799.298673 232.524416 L 799.298673 697.571345 L 399.647585 930.092204 L 0.00170633 697.571345 L 0.00170633 232.524416 Z M 399.647585 0.0035565 " stroke="#ffffff" stroke-width="100" stroke-opacity="1" stroke-miterlimit="4"/></g></g><path fill="#ffffff" d="M 404.183594 491.167969 C 400.828125 491.167969 397.613281 489.839844 395.242188 487.46875 L 311 403.226562 C 306.066406 398.289062 306.066406 390.285156 311 385.351562 L 344.222656 352.128906 C 346.59375 349.757812 349.808594 348.425781 353.160156 348.425781 C 356.515625 348.425781 359.730469 349.757812 362.101562 352.128906 L 404.183594 394.210938 L 518.742188 279.648438 C 521.113281 277.28125 524.328125 275.949219 527.679688 275.949219 C 531.035156 275.949219 534.246094 277.28125 536.621094 279.648438 L 569.84375 312.871094 C 574.777344 317.808594 574.777344 325.8125 569.84375 330.746094 L 413.121094 487.46875 C 410.75 489.839844 407.535156 491.167969 404.183594 491.167969 Z M 337.816406 394.289062 L 404.183594 460.652344 L 543.027344 321.808594 L 527.679688 306.460938 L 413.121094 421.023438 C 408.183594 425.957031 400.179688 425.957031 395.246094 421.023438 L 353.164062 378.941406 L 337.820312 394.289062 Z M 337.816406 394.289062 " fill-opacity="1" fill-rule="nonzero"/><g clip-path="url(#94c6d8362c)"><path fill="#ffffff" d="M 404.726562 593.828125 C 403.035156 593.828125 401.34375 593.488281 399.753906 592.808594 L 379.578125 584.183594 C 342.109375 568.160156 310.4375 541.710938 287.988281 507.699219 C 265.542969 473.6875 253.675781 434.167969 253.675781 393.414062 L 253.675781 264.886719 C 253.675781 261.308594 255.1875 257.902344 257.839844 255.503906 C 260.492188 253.109375 264.035156 251.949219 267.59375 252.308594 C 308.410156 256.453125 344.269531 247.433594 377.210938 224.726562 C 385.335938 219.128906 394.851562 216.164062 404.726562 216.164062 C 414.601562 216.164062 424.113281 219.125 432.238281 224.726562 C 455.957031 241.074219 480.898438 250.199219 508.5 252.628906 L 506.28125 277.816406 C 490.234375 276.402344 474.554688 272.898438 459.683594 267.402344 C 445.261719 262.070312 431.199219 254.714844 417.894531 245.546875 C 410.019531 240.117188 399.433594 240.117188 391.558594 245.546875 C 373.121094 258.25 353.335938 267.402344 332.75 272.738281 C 315.640625 277.171875 297.601562 279.070312 278.957031 278.414062 L 278.957031 393.414062 C 278.957031 466.460938 322.355469 532.214844 389.519531 560.933594 L 404.726562 567.433594 L 419.933594 560.933594 C 487.09375 532.214844 530.492188 466.460938 530.492188 393.414062 L 530.492188 377.566406 L 555.773438 377.566406 L 555.773438 393.414062 C 555.773438 434.167969 543.910156 473.6875 521.460938 507.699219 C 499.015625 541.710938 467.34375 568.15625 429.871094 584.179688 L 409.695312 592.808594 C 408.109375 593.484375 406.417969 593.824219 404.726562 593.824219 Z M 404.726562 593.828125 " fill-opacity="1" fill-rule="nonzero"/></g></svg>