<svg xmlns="http://www.w3.org/2000/svg" xmlns:xlink="http://www.w3.org/1999/xlink" width="1080" zoomAndPan="magnify" viewBox="0 0 810 809.999993" height="1080" preserveAspectRatio="xMidYMid meet" version="1.0"><defs><clipPath id="a507ef4f77"><path d="M 105.261719 56.214844 L 704.511719 56.214844 L 704.511719 753.710938 L 105.261719 753.710938 Z M 105.261719 56.214844 " clip-rule="nonzero"/></clipPath><clipPath id="3c2848907f"><path d="M 404.996094 56.214844 L 704.734375 230.605469 L 704.734375 579.390625 L 404.996094 753.78125 L 105.261719 579.390625 L 105.261719 230.605469 Z M 404.996094 56.214844 " clip-rule="nonzero"/></clipPath><clipPath id="35888f07ef"><path d="M 258 227.320312 L 556 227.320312 L 556 582.820312 L 258 582.820312 Z M 258 227.320312 " clip-rule="nonzero"/></clipPath></defs><g clip-path="url(#a507ef4f77)"><g clip-path="url(#3c2848907f)"><path stroke-linecap="butt" transform="matrix(0.75, 0, 0, 0.75, 105.260439, 56.212176)" fill="none" stroke-linejoin="miter" d="M 399.647585 0.0035565 L 799.298673 232.524416 L 799.298673 697.571345 L 399.647585 930.092204 L 0.00170633 697.571345 L 0.00170633 232.524416 Z M 399.647585 0.0035565 " stroke="#ffffff" stroke-width="100" stroke-opacity="1" stroke-miterlimit="4"/></g></g><g clip-path="url(#35888f07ef)"><path fill="#ffffff" d="M 521.515625 317.128906 C 517.046875 266.828125 474.691406 227.320312 423.238281 227.320312 L 306.597656 227.320312 C 302.984375 227.320312 299.921875 229.90625 299.417969 233.488281 L 258.648438 523.527344 C 258.355469 525.609375 258.976562 527.765625 260.355469 529.355469 C 261.734375 530.941406 263.730469 531.902344 265.832031 531.902344 L 302.15625 531.902344 C 298.734375 555.628906 295.023438 573.722656 294.988281 573.90625 C 294.546875 576.039062 295.09375 578.289062 296.472656 579.972656 C 297.847656 581.664062 299.910156 582.667969 302.089844 582.667969 L 376.933594 582.667969 C 380.539062 582.667969 383.597656 579.648438 384.113281 576.078125 L 397.730469 481.140625 L 460.597656 481.140625 C 513.152344 481.140625 555.910156 439.75 555.910156 388.425781 C 555.910156 360.515625 543.382812 334.898438 521.515625 317.128906 Z M 312.902344 241.824219 L 423.238281 241.824219 C 469.660156 241.824219 507.421875 279.714844 507.421875 326.195312 C 507.421875 372.574219 469.660156 410.433594 423.238281 410.433594 L 353.410156 410.433594 C 349.796875 410.433594 346.730469 412.96875 346.230469 416.550781 L 332.039062 517.398438 L 274.171875 517.398438 Z M 460.597656 466.636719 L 391.449219 466.636719 C 387.84375 466.636719 384.78125 469.65625 384.269531 473.226562 L 370.652344 568.164062 L 310.875 568.164062 C 312.3125 560.910156 314.46875 548.183594 316.519531 533.960938 C 316.621094 533.246094 316.582031 531.902344 316.480469 531.902344 L 338.34375 531.902344 C 341.957031 531.902344 345.019531 529.367188 345.523438 525.785156 L 359.710938 424.9375 L 423.238281 424.9375 C 473.972656 424.9375 515.867188 386.28125 521.308594 336.957031 C 534.203125 351.203125 541.40625 369.089844 541.40625 388.492188 C 541.40625 431.820312 505.15625 466.636719 460.597656 466.636719 Z M 460.597656 466.636719 " fill-opacity="1" fill-rule="nonzero"/></g></svg>