<svg xmlns="http://www.w3.org/2000/svg" xmlns:xlink="http://www.w3.org/1999/xlink" width="1080" zoomAndPan="magnify" viewBox="0 0 810 809.999993" height="1080" preserveAspectRatio="xMidYMid meet" version="1.0"><defs><clipPath id="f7b4e12bf1"><path d="M 105.261719 62 L 704.511719 62 L 704.511719 748 L 105.261719 748 Z M 105.261719 62 " clip-rule="nonzero"/></clipPath><clipPath id="ba9e75e9d2"><path d="M 425.742188 68.28125 L 683.988281 218.535156 C 696.832031 226.007812 704.734375 239.746094 704.734375 254.605469 L 704.734375 555.390625 C 704.734375 570.25 696.832031 583.984375 683.988281 591.457031 L 425.742188 741.710938 C 412.917969 749.171875 397.074219 749.171875 384.253906 741.710938 L 126.003906 591.457031 C 113.160156 583.984375 105.261719 570.25 105.261719 555.390625 L 105.261719 254.605469 C 105.261719 239.746094 113.160156 226.007812 126.003906 218.535156 L 384.253906 68.28125 C 397.074219 60.820312 412.917969 60.820312 425.742188 68.28125 Z M 425.742188 68.28125 " clip-rule="nonzero"/></clipPath><clipPath id="bddeb0ab2e"><path d="M 101.519531 0.421875 L 186.902344 0.421875 L 186.902344 132.703125 L 101.519531 132.703125 Z M 101.519531 0.421875 " clip-rule="nonzero"/></clipPath><clipPath id="29c6e14379"><path d="M 0.519531 0.421875 L 85.902344 0.421875 L 85.902344 132.703125 L 0.519531 132.703125 Z M 0.519531 0.421875 " clip-rule="nonzero"/></clipPath><clipPath id="ab27563ce0"><rect x="0" width="86" y="0" height="133"/></clipPath><clipPath id="fce4a6170a"><path d="M 1 0.425781 L 181.332031 0.425781 L 181.332031 132.707031 L 1 132.707031 Z M 1 0.425781 " clip-rule="nonzero"/></clipPath><clipPath id="d636bd534b"><path d="M 177.378906 44.542969 C 179.765625 51.300781 181.332031 59.035156 181.332031 66.601562 C 181.332031 74.167969 179.988281 81.449219 177.601562 88.160156 C 177.527344 88.304688 177.527344 88.445312 177.453125 88.589844 C 167.902344 113.789062 142.679688 132.347656 112.953125 132.707031 L 16.382812 132.707031 C 12.40625 132.707031 8.589844 131.125 5.777344 128.3125 C 2.964844 125.5 1.382812 121.683594 1.382812 117.707031 L 1.382812 15.425781 C 1.382812 11.445312 2.964844 7.632812 5.777344 4.816406 C 8.589844 2.003906 12.40625 0.425781 16.382812 0.425781 L 112.871094 0.425781 C 142.828125 0.78125 168.050781 19.058594 177.378906 44.542969 Z M 177.378906 44.542969 " clip-rule="nonzero"/></clipPath><clipPath id="172f6b39ac"><path d="M 0.199219 0.425781 L 180.332031 0.425781 L 180.332031 132.707031 L 0.199219 132.707031 Z M 0.199219 0.425781 " clip-rule="nonzero"/></clipPath><clipPath id="4d4f730a41"><path d="M 176.378906 44.542969 C 178.765625 51.300781 180.332031 59.035156 180.332031 66.601562 C 180.332031 74.167969 178.988281 81.449219 176.601562 88.160156 C 176.527344 88.304688 176.527344 88.445312 176.453125 88.589844 C 166.902344 113.789062 141.679688 132.347656 111.953125 132.707031 L 15.382812 132.707031 C 11.40625 132.707031 7.589844 131.125 4.777344 128.3125 C 1.964844 125.5 0.382812 121.683594 0.382812 117.707031 L 0.382812 15.425781 C 0.382812 11.445312 1.964844 7.632812 4.777344 4.816406 C 7.589844 2.003906 11.40625 0.425781 15.382812 0.425781 L 111.871094 0.425781 C 141.828125 0.78125 167.050781 19.058594 176.378906 44.542969 Z M 176.378906 44.542969 " clip-rule="nonzero"/></clipPath><clipPath id="18064ffbd9"><rect x="0" width="181" y="0" height="133"/></clipPath><clipPath id="9394c5d1fd"><rect x="0" width="187" y="0" height="133"/></clipPath><clipPath id="077f7bae62"><path d="M 0.46875 0.332031 L 70 0.332031 L 70 42.144531 L 0.46875 42.144531 Z M 0.46875 0.332031 " clip-rule="nonzero"/></clipPath><clipPath id="8a339f279a"><path d="M 4.96875 0.332031 L 65.472656 0.332031 C 67.957031 0.332031 69.972656 2.34375 69.972656 4.832031 L 69.972656 37.644531 C 69.972656 40.128906 67.957031 42.144531 65.472656 42.144531 L 4.96875 42.144531 C 2.484375 42.144531 0.46875 40.128906 0.46875 37.644531 L 0.46875 4.832031 C 0.46875 2.34375 2.484375 0.332031 4.96875 0.332031 Z M 4.96875 0.332031 " clip-rule="nonzero"/></clipPath><clipPath id="e9b51734c5"><path d="M 0.46875 0.332031 L 70 0.332031 L 70 42.144531 L 0.46875 42.144531 Z M 0.46875 0.332031 " clip-rule="nonzero"/></clipPath><clipPath id="34b7bed84c"><path d="M 4.96875 0.332031 L 65.472656 0.332031 C 67.957031 0.332031 69.972656 2.34375 69.972656 4.832031 L 69.972656 37.644531 C 69.972656 40.128906 67.957031 42.144531 65.472656 42.144531 L 4.96875 42.144531 C 2.484375 42.144531 0.46875 40.128906 0.46875 37.644531 L 0.46875 4.832031 C 0.46875 2.34375 2.484375 0.332031 4.96875 0.332031 Z M 4.96875 0.332031 " clip-rule="nonzero"/></clipPath><clipPath id="6c5044853e"><rect x="0" width="70" y="0" height="43"/></clipPath><clipPath id="e727bab6c9"><path d="M 0.46875 26.382812 L 13.539062 26.382812 L 13.539062 192.796875 L 0.46875 192.796875 Z M 0.46875 26.382812 " clip-rule="nonzero"/></clipPath><clipPath id="9b32f05e8b"><path d="M 6.46875 26.382812 L 7.539062 26.382812 C 9.132812 26.382812 10.660156 27.015625 11.785156 28.140625 C 12.910156 29.265625 13.539062 30.789062 13.539062 32.382812 L 13.539062 186.75 C 13.539062 188.339844 12.910156 189.867188 11.785156 190.992188 C 10.660156 192.117188 9.132812 192.75 7.539062 192.75 L 6.46875 192.75 C 4.878906 192.75 3.351562 192.117188 2.226562 190.992188 C 1.101562 189.867188 0.46875 188.339844 0.46875 186.75 L 0.46875 32.382812 C 0.46875 30.789062 1.101562 29.265625 2.226562 28.140625 C 3.351562 27.015625 4.878906 26.382812 6.46875 26.382812 Z M 6.46875 26.382812 " clip-rule="nonzero"/></clipPath><clipPath id="4a9d7f6f94"><path d="M 0.46875 0.382812 L 13.539062 0.382812 L 13.539062 166.796875 L 0.46875 166.796875 Z M 0.46875 0.382812 " clip-rule="nonzero"/></clipPath><clipPath id="543e940d5f"><path d="M 6.46875 0.382812 L 7.539062 0.382812 C 9.132812 0.382812 10.660156 1.015625 11.785156 2.140625 C 12.910156 3.265625 13.539062 4.789062 13.539062 6.382812 L 13.539062 160.75 C 13.539062 162.339844 12.910156 163.867188 11.785156 164.992188 C 10.660156 166.117188 9.132812 166.75 7.539062 166.75 L 6.46875 166.75 C 4.878906 166.75 3.351562 166.117188 2.226562 164.992188 C 1.101562 163.867188 0.46875 162.339844 0.46875 160.75 L 0.46875 6.382812 C 0.46875 4.789062 1.101562 3.265625 2.226562 2.140625 C 3.351562 1.015625 4.878906 0.382812 6.46875 0.382812 Z M 6.46875 0.382812 " clip-rule="nonzero"/></clipPath><clipPath id="2b77f329f6"><rect x="0" width="14" y="0" height="167"/></clipPath><clipPath id="2de349748a"><rect x="0" width="71" y="0" height="193"/></clipPath><clipPath id="77e1ecfa8f"><path d="M 187.816406 202.59375 L 611.527344 202.59375 L 611.527344 621.09375 L 187.816406 621.09375 Z M 187.816406 202.59375 " clip-rule="nonzero"/></clipPath></defs><g clip-path="url(#f7b4e12bf1)"><g clip-path="url(#ba9e75e9d2)"><path stroke-linecap="butt" transform="matrix(0.75, 0, 0, 0.75, 105.260439, 56.213242)" fill="none" stroke-linejoin="miter" d="M 427.309047 16.090679 L 771.637211 216.429244 C 788.762213 226.392787 799.298673 244.710497 799.298673 264.522999 L 799.298673 665.56992 C 799.298673 685.382422 788.762213 703.694924 771.637211 713.658467 L 427.309047 913.997032 C 410.210087 923.94495 389.085084 923.94495 371.991332 913.997032 L 27.657959 713.658467 C 10.532958 703.694924 0.00170633 685.382422 0.00170633 665.56992 L 0.00170633 264.522999 C 0.00170633 244.710497 10.532958 226.392787 27.657959 216.429244 L 371.991332 16.090679 C 389.085084 6.142761 410.210087 6.142761 427.309047 16.090679 Z M 427.309047 16.090679 " stroke="#5bc0ff" stroke-width="30" stroke-opacity="1" stroke-miterlimit="4"/></g></g><g transform="matrix(1, 0, 0, 1, 204, 373)"><g clip-path="url(#9394c5d1fd)"><g clip-path="url(#bddeb0ab2e)"><g transform="matrix(1, 0, 0, 1, 101, 0.000000000000056843)"><g clip-path="url(#ab27563ce0)"><g clip-path="url(#29c6e14379)"><path fill="#2a536d" d="M 0.519531 0.421875 L 85.902344 0.421875 L 85.902344 132.835938 L 0.519531 132.835938 Z M 0.519531 0.421875 " fill-opacity="1" fill-rule="nonzero"/></g></g></g></g><g clip-path="url(#fce4a6170a)"><g clip-path="url(#d636bd534b)"><g transform="matrix(1, 0, 0, 1, 1, 0.000000000000056843)"><g clip-path="url(#18064ffbd9)"><g clip-path="url(#172f6b39ac)"><g clip-path="url(#4d4f730a41)"><path fill="#2a536d" d="M 180.332031 0.425781 L 180.332031 132.707031 L 0.511719 132.707031 L 0.511719 0.425781 Z M 180.332031 0.425781 " fill-opacity="1" fill-rule="nonzero"/></g></g></g></g></g></g></g></g><g transform="matrix(1, 0, 0, 1, 512, 219)"><g clip-path="url(#2de349748a)"><g clip-path="url(#077f7bae62)"><g clip-path="url(#8a339f279a)"><g transform="matrix(1, 0, 0, 1, 0, 0.000000000000056843)"><g clip-path="url(#6c5044853e)"><g clip-path="url(#e9b51734c5)"><g clip-path="url(#34b7bed84c)"><path fill="#2a536d" d="M 0.46875 0.332031 L 70.046875 0.332031 L 70.046875 42.144531 L 0.46875 42.144531 Z M 0.46875 0.332031 " fill-opacity="1" fill-rule="nonzero"/></g></g></g></g></g></g><g clip-path="url(#e727bab6c9)"><g clip-path="url(#9b32f05e8b)"><g transform="matrix(1, 0, 0, 1, 0, 26)"><g clip-path="url(#2b77f329f6)"><g clip-path="url(#4a9d7f6f94)"><g clip-path="url(#543e940d5f)"><path fill="#2a536d" d="M 0.46875 0.382812 L 13.539062 0.382812 L 13.539062 166.746094 L 0.46875 166.746094 Z M 0.46875 0.382812 " fill-opacity="1" fill-rule="nonzero"/></g></g></g></g></g></g></g></g><g clip-path="url(#77e1ecfa8f)"><path fill="#5bc0ff" d="M 602.984375 532.589844 L 394.277344 532.589844 L 394.277344 361.316406 C 394.269531 336.515625 380.941406 313.628906 359.375 301.386719 L 496.496094 302.511719 L 496.808594 401.054688 C 496.796875 410.660156 504.453125 418.519531 514.058594 418.765625 C 514.242188 418.765625 514.421875 418.769531 514.597656 418.769531 C 524.421875 418.761719 532.375 410.785156 532.363281 400.960938 C 532.363281 400.910156 532.363281 400.859375 532.363281 400.808594 L 531.34375 302.800781 L 538.183594 302.863281 L 538.21875 302.863281 C 573.933594 302.863281 602.910156 331.773438 602.984375 367.488281 Z M 458.507812 623.765625 L 413.164062 623.765625 L 413.164062 541.28125 L 458.507812 541.28125 Z M 244.132812 532.648438 L 244.132812 522.648438 L 385.585938 522.648438 L 385.585938 532.648438 Z M 212.742188 513.957031 C 209.542969 513.960938 206.417969 513.011719 203.753906 511.234375 L 267.292969 433.992188 L 260.582031 428.46875 L 198.019531 504.53125 C 197.023438 502.402344 196.507812 500.078125 196.507812 497.730469 L 196.507812 381.019531 C 196.511719 377.992188 197.367188 375.027344 198.976562 372.46875 L 294.503906 444.675781 C 302.746094 450.875 314.085938 450.945312 322.402344 444.832031 L 385.585938 398.105469 L 385.585938 466.402344 L 354.617188 428.484375 L 347.886719 433.984375 L 385.585938 480.140625 L 385.585938 513.957031 Z M 235.445312 364.792969 L 385.578125 364.792969 C 385.585938 365.132812 385.585938 365.472656 385.585938 365.808594 L 385.585938 387.292969 L 317.222656 437.847656 C 312.015625 441.671875 304.910156 441.628906 299.746094 437.738281 L 205.515625 366.511719 C 207.757812 365.382812 210.234375 364.796875 212.742188 364.792969 Z M 304.386719 301.050781 L 325.332031 301.050781 C 326.28125 301.050781 327.226562 301.078125 328.164062 301.125 C 358.292969 302.585938 382.710938 326.058594 385.363281 356.101562 L 244.359375 356.101562 C 247.101562 324.980469 273.144531 301.09375 304.386719 301.050781 Z M 504.886719 211.285156 L 578.820312 211.285156 L 578.820312 257.6875 L 530.554688 257.6875 C 525.980469 257.683594 522.273438 261.386719 522.269531 265.960938 C 522.269531 265.992188 522.269531 266.023438 522.269531 266.054688 L 522.558594 294.039062 L 522.652344 302.730469 L 523.671875 400.898438 C 523.707031 405.914062 519.660156 410.007812 514.644531 410.042969 C 509.625 410.078125 505.53125 406.035156 505.5 401.015625 L 505.1875 302.589844 L 505.148438 293.890625 Z M 611.675781 367.488281 C 611.589844 326.984375 578.746094 294.191406 538.246094 294.171875 L 531.25 294.109375 L 530.960938 266.375 L 579.234375 266.375 C 583.804688 266.367188 587.507812 262.660156 587.511719 258.085938 L 587.511719 210.875 C 587.507812 206.304688 583.800781 202.601562 579.234375 202.59375 L 504.488281 202.59375 C 499.917969 202.585938 496.203125 206.285156 496.195312 210.859375 C 496.195312 210.875 496.195312 210.886719 496.195312 210.902344 L 496.46875 293.820312 L 328.175781 292.421875 C 327.238281 292.378906 326.289062 292.363281 325.332031 292.363281 L 320.632812 292.363281 L 316.441406 292.328125 L 316.441406 292.363281 L 304.386719 292.363281 C 268.347656 292.40625 238.402344 320.164062 235.632812 356.101562 L 212.742188 356.101562 C 198.980469 356.109375 187.828125 367.261719 187.816406 381.019531 L 187.816406 497.730469 C 187.828125 511.488281 198.980469 522.636719 212.742188 522.648438 L 235.445312 522.648438 L 235.445312 541.339844 L 394.277344 541.339844 L 394.277344 541.28125 L 404.472656 541.28125 L 404.472656 632.457031 L 467.195312 632.457031 L 467.195312 541.28125 L 611.675781 541.28125 L 611.675781 367.488281 " fill-opacity="1" fill-rule="nonzero"/></g><path fill="#5bc0ff" d="M 252.980469 286.316406 L 250.375 278.023438 C 233.628906 283.292969 220.0625 295.886719 214.070312 311.707031 L 222.195312 314.785156 C 227.25 301.4375 238.761719 290.792969 252.980469 286.316406 " fill-opacity="1" fill-rule="nonzero"/><path fill="#5bc0ff" d="M 410.335938 499.136719 L 412.902344 507.441406 C 429.667969 502.257812 443.308594 489.742188 449.378906 473.953125 L 441.269531 470.832031 C 436.144531 484.152344 424.582031 494.734375 410.335938 499.136719 " fill-opacity="1" fill-rule="nonzero"/></svg>