<svg xmlns="http://www.w3.org/2000/svg" xmlns:xlink="http://www.w3.org/1999/xlink" width="1080" zoomAndPan="magnify" viewBox="0 0 810 809.999993" height="1080" preserveAspectRatio="xMidYMid meet" version="1.0"><defs><clipPath id="5dca064adc"><path d="M 105.261719 56.214844 L 704.511719 56.214844 L 704.511719 753.710938 L 105.261719 753.710938 Z M 105.261719 56.214844 " clip-rule="nonzero"/></clipPath><clipPath id="c75f6aa120"><path d="M 404.996094 56.214844 L 704.734375 230.605469 L 704.734375 579.390625 L 404.996094 753.78125 L 105.261719 579.390625 L 105.261719 230.605469 Z M 404.996094 56.214844 " clip-rule="nonzero"/></clipPath><clipPath id="363eb681a3"><path d="M 210 218 L 580 218 L 580 598 L 210 598 Z M 210 218 " clip-rule="nonzero"/></clipPath><clipPath id="35492a767b"><path d="M 161.503906 317.691406 L 519.570312 172.855469 L 648.660156 491.984375 L 290.59375 636.824219 Z M 161.503906 317.691406 " clip-rule="nonzero"/></clipPath><clipPath id="656248b29b"><path d="M 161.503906 317.691406 L 519.570312 172.855469 L 648.660156 491.984375 L 290.59375 636.824219 Z M 161.503906 317.691406 " clip-rule="nonzero"/></clipPath></defs><g clip-path="url(#5dca064adc)"><g clip-path="url(#c75f6aa120)"><path stroke-linecap="butt" transform="matrix(0.75, 0, 0, 0.75, 105.260439, 56.212176)" fill="none" stroke-linejoin="miter" d="M 399.647585 0.0035565 L 799.298673 232.524416 L 799.298673 697.571345 L 399.647585 930.092204 L 0.00170633 697.571345 L 0.00170633 232.524416 Z M 399.647585 0.0035565 " stroke="#ffffff" stroke-width="100" stroke-opacity="1" stroke-miterlimit="4"/></g></g><g clip-path="url(#363eb681a3)"><g clip-path="url(#35492a767b)"><g clip-path="url(#656248b29b)"><path fill="#ffffff" d="M 391.117188 242.578125 C 389.304688 233.183594 394.316406 223.519531 403.519531 219.796875 C 413.976562 215.566406 425.882812 220.617188 430.113281 231.070312 L 463.511719 313.640625 C 482.636719 309.402344 502.582031 319.457031 510.171875 338.21875 C 517.761719 356.984375 510.417969 378.078125 493.722656 388.328125 L 527.121094 470.898438 C 531.351562 481.355469 526.304688 493.261719 515.847656 497.492188 C 506.644531 501.210938 496.320312 497.75 491.09375 489.738281 L 447.410156 481.402344 C 423.546875 476.847656 399.3125 475.300781 375.257812 476.722656 L 376.714844 480.332031 C 380.945312 490.789062 375.898438 502.695312 365.441406 506.921875 L 364.222656 507.414062 L 402.296875 555.429688 C 409.632812 564.679688 409.792969 577.714844 402.683594 587.140625 C 392.421875 600.753906 372.039062 600.921875 361.550781 587.484375 L 289.214844 494.792969 L 286.097656 495.828125 C 275.875 499.214844 264.777344 494.082031 260.738281 484.097656 L 260.417969 483.308594 L 254.109375 485.863281 C 243.652344 490.09375 231.746094 485.042969 227.515625 474.589844 L 212.199219 436.722656 C 207.96875 426.265625 213.015625 414.359375 223.472656 410.128906 L 229.785156 407.574219 L 229.464844 406.789062 C 225.425781 396.804688 229.835938 385.398438 239.539062 380.726562 L 253.164062 374.164062 C 298.117188 352.515625 336.789062 319.738281 365.511719 278.941406 Z M 396.929688 257.972656 L 378.273438 284.46875 L 452.738281 468.558594 L 484.570312 474.632812 Z M 436.945312 465.832031 L 368.816406 297.40625 C 342.277344 331.851562 308.703125 360.253906 270.328125 380.722656 L 308.230469 474.421875 C 350.042969 462.457031 393.921875 459.53125 436.945312 465.832031 Z M 302.945312 490.257812 L 372.285156 579.105469 C 377.265625 585.488281 386.941406 585.40625 391.8125 578.945312 C 395.1875 574.46875 395.109375 568.28125 391.628906 563.890625 L 327.84375 483.449219 C 319.464844 485.347656 311.160156 487.617188 302.945312 490.257812 Z M 342.847656 480.460938 L 355.40625 496.296875 L 360.335938 494.300781 C 363.820312 492.890625 365.503906 488.921875 364.09375 485.4375 L 361.542969 479.125 C 361.378906 478.71875 361.253906 478.308594 361.171875 477.894531 C 355.042969 478.558594 348.929688 479.410156 342.847656 480.460938 Z M 295.183594 478.472656 L 258.132812 386.882812 L 245.445312 392.996094 C 242.210938 394.554688 240.742188 398.355469 242.089844 401.683594 L 273.359375 478.992188 C 274.707031 482.320312 278.40625 484.03125 281.8125 482.902344 Z M 255.3125 470.6875 L 234.890625 420.199219 L 228.578125 422.75 C 225.09375 424.160156 223.410156 428.128906 224.820312 431.613281 L 240.136719 469.480469 C 241.546875 472.96875 245.515625 474.652344 249.003906 473.242188 Z M 488.507812 375.433594 C 498.261719 368.226562 502.308594 355.089844 497.550781 343.328125 C 492.792969 331.5625 480.75 324.933594 468.726562 326.535156 Z M 514.5 476.003906 C 515.910156 479.488281 514.226562 483.457031 510.742188 484.867188 C 507.257812 486.277344 503.289062 484.59375 501.878906 481.109375 L 404.867188 241.285156 C 403.457031 237.796875 405.140625 233.828125 408.625 232.417969 C 412.109375 231.011719 416.078125 232.691406 417.488281 236.179688 Z M 513.753906 243.453125 C 517.214844 244.921875 518.828125 248.917969 517.363281 252.378906 L 502.328125 287.835938 C 500.859375 291.296875 496.863281 292.914062 493.402344 291.445312 C 489.941406 289.976562 488.324219 285.980469 489.792969 282.519531 L 504.824219 247.0625 C 506.292969 243.601562 510.289062 241.984375 513.753906 243.453125 Z M 522.796875 333.113281 C 521.386719 329.628906 523.070312 325.660156 526.554688 324.25 L 564.421875 308.933594 C 567.90625 307.523438 571.875 309.207031 573.285156 312.691406 C 574.695312 316.175781 573.011719 320.144531 569.527344 321.554688 L 531.660156 336.871094 C 528.175781 338.28125 524.207031 336.601562 522.796875 333.113281 Z M 530.640625 383.5 C 532.105469 380.039062 536.105469 378.421875 539.566406 379.886719 L 575.023438 394.921875 C 578.484375 396.390625 580.097656 400.386719 578.632812 403.847656 C 577.164062 407.308594 573.167969 408.925781 569.707031 407.460938 L 534.25 392.425781 C 530.789062 390.957031 529.171875 386.960938 530.640625 383.5 Z M 530.640625 383.5 " fill-opacity="1" fill-rule="evenodd"/></g></g></g></svg>