<svg xmlns="http://www.w3.org/2000/svg" xmlns:xlink="http://www.w3.org/1999/xlink" width="1080" zoomAndPan="magnify" viewBox="0 0 810 809.999993" height="1080" preserveAspectRatio="xMidYMid meet" version="1.0"><defs><clipPath id="672c728e0f"><path d="M 105.261719 62 L 704.511719 62 L 704.511719 748 L 105.261719 748 Z M 105.261719 62 " clip-rule="nonzero"/></clipPath><clipPath id="2d135f21c7"><path d="M 425.742188 68.28125 L 683.988281 218.535156 C 696.832031 226.007812 704.734375 239.746094 704.734375 254.605469 L 704.734375 555.390625 C 704.734375 570.25 696.832031 583.984375 683.988281 591.457031 L 425.742188 741.710938 C 412.917969 749.171875 397.074219 749.171875 384.253906 741.710938 L 126.003906 591.457031 C 113.160156 583.984375 105.261719 570.25 105.261719 555.390625 L 105.261719 254.605469 C 105.261719 239.746094 113.160156 226.007812 126.003906 218.535156 L 384.253906 68.28125 C 397.074219 60.820312 412.917969 60.820312 425.742188 68.28125 Z M 425.742188 68.28125 " clip-rule="nonzero"/></clipPath><clipPath id="ce590cc8c8"><path d="M 207.6875 193.691406 L 602.1875 193.691406 L 602.1875 615.941406 L 207.6875 615.941406 Z M 207.6875 193.691406 " clip-rule="nonzero"/></clipPath></defs><g clip-path="url(#672c728e0f)"><g clip-path="url(#2d135f21c7)"><path stroke-linecap="butt" transform="matrix(0.75, 0, 0, 0.75, 105.260439, 56.212176)" fill="none" stroke-linejoin="miter" d="M 427.309047 16.0921 L 771.637211 216.430665 C 788.762213 226.394207 799.298673 244.711918 799.298673 264.52442 L 799.298673 665.571341 C 799.298673 685.383843 788.762213 703.696345 771.637211 713.659888 L 427.309047 913.998453 C 410.210087 923.94637 389.085084 923.94637 371.991332 913.998453 L 27.657959 713.659888 C 10.532958 703.696345 0.00170633 685.383843 0.00170633 665.571341 L 0.00170633 264.52442 C 0.00170633 244.711918 10.532958 226.394207 27.657959 216.430665 L 371.991332 16.0921 C 389.085084 6.144182 410.210087 6.144182 427.309047 16.0921 Z M 427.309047 16.0921 " stroke="#5bc0ff" stroke-width="30" stroke-opacity="1" stroke-miterlimit="4"/></g></g><path fill="#5bc0ff" d="M 369.738281 490.515625 C 370.28125 489.976562 371.039062 489.867188 371.6875 490.082031 L 382.085938 494.414062 C 382.738281 494.742188 383.171875 495.390625 383.171875 496.148438 L 383.171875 498.855469 C 383.171875 507.089844 389.886719 513.914062 398.226562 513.914062 L 411.441406 513.914062 C 419.675781 513.914062 426.5 507.199219 426.5 498.855469 L 426.5 496.148438 C 426.5 495.390625 426.933594 494.742188 427.582031 494.414062 L 437.980469 490.082031 C 438.632812 489.757812 439.390625 489.976562 439.929688 490.515625 L 441.773438 492.359375 C 447.40625 497.992188 457.371094 497.992188 463.003906 492.359375 L 472.320312 483.042969 C 478.167969 477.191406 478.167969 467.660156 472.320312 461.8125 L 470.476562 459.96875 C 469.9375 459.429688 469.828125 458.667969 470.042969 458.019531 L 474.378906 447.621094 C 474.703125 446.972656 475.351562 446.539062 476.109375 446.539062 L 478.820312 446.539062 C 487.050781 446.539062 493.875 439.820312 493.875 431.480469 L 493.875 418.265625 C 493.875 410.03125 487.160156 403.207031 478.820312 403.207031 L 476.109375 403.207031 C 475.351562 403.207031 474.703125 402.777344 474.378906 402.125 L 470.042969 391.726562 C 469.71875 391.078125 469.9375 390.210938 470.476562 389.777344 L 472.429688 387.933594 C 478.277344 382.085938 478.277344 372.554688 472.429688 366.703125 L 463.113281 357.386719 C 457.480469 351.753906 447.515625 351.753906 441.882812 357.386719 L 440.039062 359.230469 C 439.496094 359.773438 438.738281 359.878906 438.089844 359.664062 L 427.691406 355.332031 C 427.039062 355.003906 426.609375 354.355469 426.609375 353.597656 L 426.609375 350.890625 C 426.609375 342.65625 419.890625 335.832031 411.550781 335.832031 L 398.335938 335.832031 C 390.101562 335.832031 383.277344 342.546875 383.277344 350.890625 L 383.277344 353.597656 C 383.277344 354.355469 382.84375 355.003906 382.195312 355.332031 L 371.796875 359.664062 C 371.148438 359.988281 370.386719 359.773438 369.847656 359.230469 L 368.003906 357.386719 C 362.371094 351.753906 352.40625 351.753906 346.773438 357.386719 L 337.457031 366.703125 C 331.609375 372.554688 331.609375 382.085938 337.457031 387.933594 L 339.300781 389.777344 C 339.839844 390.320312 339.949219 391.078125 339.734375 391.726562 L 335.402344 402.125 C 335.074219 402.777344 334.425781 403.207031 333.667969 403.207031 L 330.960938 403.207031 C 322.726562 403.207031 315.902344 409.925781 315.902344 418.265625 L 315.902344 431.480469 C 315.902344 439.714844 322.617188 446.539062 330.960938 446.539062 L 333.667969 446.539062 C 334.425781 446.539062 335.074219 446.972656 335.402344 447.621094 L 339.734375 458.019531 C 340.058594 458.667969 339.839844 459.535156 339.300781 459.96875 L 337.457031 461.8125 C 331.609375 467.660156 331.609375 477.191406 337.457031 483.042969 L 346.773438 492.359375 C 352.625 498.207031 362.15625 498.207031 368.003906 492.359375 Z M 358.582031 483.042969 C 357.929688 483.800781 356.738281 483.800781 355.980469 483.042969 L 346.664062 473.726562 C 345.90625 472.96875 345.90625 471.886719 346.664062 471.125 L 348.617188 469.175781 C 352.949219 464.84375 354.25 458.453125 351.867188 452.820312 L 347.53125 442.421875 C 345.148438 436.789062 339.734375 433.105469 333.667969 433.105469 L 330.960938 433.105469 C 329.984375 433.105469 329.117188 432.238281 329.117188 431.265625 L 329.117188 418.050781 C 329.117188 417.074219 329.984375 416.207031 330.960938 416.207031 L 333.667969 416.207031 C 339.734375 416.207031 345.257812 412.523438 347.53125 406.890625 L 351.867188 396.492188 C 354.25 390.859375 352.949219 384.46875 348.617188 380.136719 L 346.773438 378.292969 C 346.015625 377.535156 346.015625 376.453125 346.773438 375.695312 L 356.089844 366.378906 C 356.957031 365.511719 357.824219 365.511719 358.691406 366.378906 L 360.53125 368.328125 C 364.863281 372.660156 371.253906 373.851562 376.886719 371.578125 L 387.285156 367.246094 C 392.917969 364.863281 396.601562 359.445312 396.601562 353.378906 L 396.601562 350.671875 C 396.601562 349.699219 397.46875 348.832031 398.445312 348.832031 L 411.660156 348.832031 C 412.632812 348.832031 413.5 349.699219 413.5 350.671875 L 413.5 353.378906 C 413.5 359.445312 417.183594 364.972656 422.816406 367.246094 L 433.214844 371.578125 C 438.847656 373.851562 445.238281 372.660156 449.570312 368.328125 L 451.414062 366.488281 C 452.28125 365.621094 453.148438 365.621094 454.011719 366.488281 L 463.328125 375.804688 C 464.085938 376.5625 464.085938 377.644531 463.328125 378.402344 L 461.378906 380.351562 C 457.046875 384.6875 455.746094 391.078125 458.128906 396.710938 L 462.460938 407.109375 C 464.84375 412.742188 470.261719 416.425781 476.328125 416.425781 L 479.035156 416.425781 C 480.011719 416.425781 480.878906 417.289062 480.878906 418.265625 L 480.878906 431.480469 C 480.878906 432.457031 480.011719 433.324219 479.035156 433.324219 L 476.328125 433.324219 C 470.261719 433.324219 464.738281 437.003906 462.460938 442.636719 L 458.128906 453.035156 C 455.746094 458.667969 457.046875 465.0625 461.378906 469.394531 L 463.21875 471.234375 C 463.980469 471.992188 463.980469 473.078125 463.21875 473.835938 L 453.90625 483.152344 C 453.039062 484.015625 452.171875 484.015625 451.304688 483.152344 L 449.464844 481.199219 C 445.128906 476.867188 438.738281 475.566406 433.105469 477.949219 L 422.707031 482.285156 C 417.074219 484.667969 413.390625 490.082031 413.390625 496.148438 L 413.390625 498.855469 C 413.390625 499.832031 412.527344 500.699219 411.550781 500.699219 L 398.335938 500.699219 C 397.359375 500.699219 396.496094 499.832031 396.496094 498.855469 L 396.496094 496.148438 C 396.496094 490.082031 392.8125 484.558594 387.179688 482.285156 L 376.78125 477.949219 C 374.9375 477.191406 372.988281 476.757812 371.039062 476.757812 C 367.140625 476.757812 363.347656 478.277344 360.421875 481.199219 Z M 358.582031 483.042969 " fill-opacity="1" fill-rule="nonzero"/><path fill="#5bc0ff" d="M 404.941406 465.492188 C 427.472656 465.492188 445.78125 447.1875 445.78125 424.65625 C 445.78125 402.125 427.472656 383.820312 404.941406 383.820312 C 382.414062 383.820312 364.105469 402.125 364.105469 424.65625 C 364.105469 447.1875 382.414062 465.492188 404.941406 465.492188 Z M 404.941406 397.144531 C 420.109375 397.144531 432.566406 409.492188 432.566406 424.765625 C 432.566406 440.039062 420.109375 452.277344 404.941406 452.277344 C 389.777344 452.277344 377.320312 439.929688 377.320312 424.65625 C 377.320312 409.382812 389.777344 397.144531 404.941406 397.144531 Z M 404.941406 397.144531 " fill-opacity="1" fill-rule="nonzero"/><g clip-path="url(#ce590cc8c8)"><path fill="#5bc0ff" d="M 580.535156 401.910156 L 580.535156 355.980469 C 580.535156 311.675781 558.652344 269.648438 520.414062 240.183594 C 518.25 230.976562 512.398438 223.285156 504.273438 219.0625 C 474.59375 202.488281 440.257812 193.714844 404.941406 193.714844 C 369.628906 193.714844 335.292969 202.488281 305.828125 219.0625 C 297.488281 223.394531 291.746094 231.085938 289.582031 240.292969 C 251.34375 269.648438 229.460938 311.675781 229.460938 356.089844 L 229.460938 401.910156 C 215.597656 415.882812 207.6875 434.515625 207.6875 453.902344 L 207.6875 457.152344 C 207.6875 487.589844 226.644531 514.671875 256.21875 526.695312 C 259.792969 535.144531 268.347656 540.777344 277.882812 540.777344 C 285.574219 540.777344 292.613281 537.203125 296.621094 531.570312 C 299.652344 527.886719 301.277344 523.121094 301.277344 518.03125 L 301.277344 392.703125 C 301.277344 380.894531 291.636719 371.253906 279.507812 370.386719 L 279.507812 356.089844 C 279.507812 343.308594 282.105469 331.066406 287.304688 319.585938 C 293.804688 304.527344 304.636719 290.769531 318.609375 279.613281 C 326.410156 280.589844 334.207031 279.179688 340.382812 275.496094 C 347.75 271.488281 355.007812 268.238281 362.046875 265.855469 C 362.371094 265.855469 362.699219 265.75 363.023438 265.640625 C 390.644531 256.972656 419.785156 257.082031 445.5625 265.316406 C 445.78125 265.421875 446.105469 265.421875 446.320312 265.53125 C 446.429688 265.53125 446.648438 265.640625 446.863281 265.640625 C 454.230469 268.023438 461.59375 271.273438 469.285156 275.496094 C 475.351562 278.746094 482.394531 280.371094 489.433594 279.722656 C 489.757812 279.722656 490.085938 279.613281 490.519531 279.613281 C 490.734375 279.9375 491.058594 280.15625 491.382812 280.371094 C 516.515625 299.976562 530.378906 326.839844 530.378906 355.980469 L 530.378906 370.277344 C 518.25 371.144531 508.605469 380.785156 508.605469 392.59375 L 508.605469 518.03125 C 508.605469 518.136719 508.605469 518.136719 508.605469 518.246094 C 493.875 534.496094 474.050781 547.058594 451.089844 554.644531 C 444.699219 549.875 437.007812 547.277344 428.992188 547.277344 L 399.960938 547.277344 C 379.8125 547.277344 363.457031 562.765625 363.457031 581.722656 C 363.457031 589.199219 365.949219 596.347656 370.386719 601.980469 C 370.714844 602.414062 371.039062 602.738281 371.472656 603.0625 C 378.296875 611.511719 388.476562 616.277344 399.960938 616.277344 L 428.992188 616.277344 C 444.804688 616.277344 458.886719 606.3125 463.328125 592.230469 C 463.4375 592.230469 463.4375 592.230469 463.546875 592.121094 C 465.929688 591.363281 468.3125 590.714844 470.152344 589.847656 C 500.699219 579.125 526.695312 560.710938 545.652344 536.335938 C 549.554688 533.738281 552.371094 530.378906 553.886719 526.695312 C 558.976562 524.636719 564.175781 521.929688 569.160156 518.570312 C 569.484375 518.355469 569.808594 518.136719 570.027344 517.921875 L 570.894531 517.164062 C 590.824219 502.648438 602.304688 480.875 602.304688 457.152344 L 602.304688 453.902344 C 602.304688 434.730469 594.507812 416.207031 580.535156 401.910156 Z M 288.0625 392.703125 L 288.0625 518.136719 C 288.0625 520.089844 287.414062 521.929688 286.113281 523.554688 C 284.273438 526.152344 281.238281 527.5625 277.882812 527.5625 C 273.441406 527.5625 269.539062 524.960938 268.132812 521.0625 L 267.589844 519.4375 C 266.941406 517.597656 265.53125 516.1875 263.691406 515.429688 L 262.28125 514.890625 C 237.042969 505.140625 220.796875 482.5 220.796875 457.152344 L 220.796875 453.902344 C 220.796875 436.246094 228.703125 419.347656 242.570312 407.542969 C 246.144531 404.507812 249.394531 402.234375 253.292969 400.285156 C 256 398.660156 258.816406 397.46875 262.066406 396.167969 L 263.476562 395.625 C 265.316406 394.976562 266.722656 393.460938 267.375 391.617188 L 268.023438 389.886719 C 269 386.960938 271.707031 384.6875 274.847656 383.925781 C 274.847656 383.925781 275.5 383.820312 275.5 383.820312 C 276.257812 383.710938 276.90625 383.496094 277.664062 383.496094 C 283.40625 383.386719 288.0625 387.503906 288.0625 392.703125 Z M 500.160156 270.40625 C 499.292969 269.429688 498.535156 268.78125 497.992188 268.347656 L 497.449219 267.914062 C 495.609375 266.179688 492.46875 266.074219 490.734375 266.398438 C 489.976562 266.398438 489.21875 266.507812 488.351562 266.507812 C 483.910156 266.941406 479.46875 265.855469 475.675781 263.796875 C 467.121094 259.140625 458.886719 255.566406 450.65625 252.964844 C 450.4375 252.859375 450.113281 252.859375 449.898438 252.75 C 449.789062 252.75 449.570312 252.640625 449.355469 252.640625 C 421.300781 243.757812 389.777344 243.542969 359.882812 252.75 C 359.449219 252.75 359.015625 252.859375 358.582031 253.074219 C 350.566406 255.78125 342.332031 259.355469 333.882812 264.015625 C 329.550781 266.613281 324.027344 267.371094 318.503906 266.289062 C 318.070312 266.179688 317.09375 266.179688 316.660156 266.179688 C 315.144531 266.179688 313.734375 266.722656 312.542969 267.589844 C 312.109375 268.023438 311.894531 268.023438 311.679688 268.347656 C 295.320312 280.914062 282.648438 296.835938 275.171875 314.277344 C 269.214844 327.382812 266.183594 341.355469 266.183594 356.089844 L 266.183594 373.3125 C 261.523438 375.804688 257.84375 379.703125 256 384.359375 C 252.96875 385.550781 249.71875 386.960938 246.902344 388.695312 C 245.386719 389.453125 243.976562 390.425781 242.570312 391.292969 L 242.570312 356.089844 C 242.570312 315.25 263.257812 276.253906 299.4375 249.390625 C 300.84375 248.308594 301.710938 246.792969 302.039062 245.058594 C 303.011719 238.777344 306.585938 233.578125 312.109375 230.652344 C 339.839844 215.160156 371.90625 206.929688 404.941406 206.929688 C 437.980469 206.929688 470.152344 215.160156 497.992188 230.761719 C 503.300781 233.578125 506.875 238.777344 507.847656 245.058594 C 508.066406 246.792969 509.039062 248.308594 510.449219 249.390625 C 546.628906 276.363281 567.316406 315.25 567.316406 356.089844 L 567.316406 391.402344 C 566.234375 390.75 565.152344 389.992188 564.066406 389.34375 C 560.820312 387.609375 557.460938 385.769531 553.886719 384.253906 C 551.9375 379.484375 548.253906 375.695312 543.703125 373.203125 L 543.703125 355.980469 C 543.59375 323.375 527.78125 292.285156 500.160156 270.40625 Z M 589.089844 457.152344 C 589.089844 476.652344 579.558594 494.742188 562.769531 506.65625 C 562.550781 506.871094 562.335938 506.980469 562.117188 507.199219 L 561.359375 507.847656 C 556.8125 510.773438 552.261719 513.15625 547.710938 514.78125 L 546.304688 515.320312 C 544.460938 515.972656 543.054688 517.488281 542.402344 519.328125 L 541.753906 521.171875 C 540.996094 523.339844 539.152344 524.855469 537.636719 525.722656 C 536.878906 526.15625 536.335938 526.695312 535.796875 527.347656 C 518.355469 550.09375 494.199219 567.316406 465.277344 577.5 C 463.4375 578.257812 461.488281 578.800781 459.644531 579.449219 C 458.347656 579.882812 457.15625 580.207031 455.855469 580.640625 C 453.796875 581.398438 452.171875 583.023438 451.628906 585.191406 C 451.414062 586.054688 451.195312 586.707031 450.761719 587.789062 C 448.054688 596.78125 439.171875 603.0625 428.992188 603.0625 L 399.960938 603.0625 C 392.269531 603.0625 385.445312 599.8125 381.21875 593.964844 C 380.894531 593.53125 380.460938 593.097656 380.027344 592.773438 C 377.863281 589.632812 376.671875 585.730469 376.671875 581.722656 C 376.671875 570.023438 387.179688 560.492188 399.960938 560.492188 L 428.992188 560.492188 C 434.949219 560.492188 440.6875 562.765625 445.023438 566.882812 C 446.753906 568.507812 449.246094 569.050781 451.414062 568.398438 C 479.144531 559.949219 502.867188 545.003906 520.089844 525.179688 C 520.199219 525.070312 520.304688 524.960938 520.304688 524.855469 C 520.523438 524.636719 520.632812 524.421875 520.738281 524.203125 C 521.929688 522.472656 522.363281 520.089844 521.605469 518.03125 L 521.605469 392.703125 C 521.605469 387.609375 526.15625 383.496094 531.789062 383.496094 C 532.546875 383.496094 533.195312 383.601562 534.605469 383.925781 C 537.746094 384.578125 540.5625 386.960938 541.539062 389.992188 L 542.078125 391.617188 C 542.730469 393.460938 544.136719 394.867188 545.976562 395.625 L 547.496094 396.167969 C 550.851562 397.359375 553.996094 399.09375 557.136719 400.824219 C 560.386719 402.667969 563.527344 404.832031 566.882812 407.433594 C 580.75 419.457031 588.65625 436.355469 588.65625 453.796875 L 588.65625 457.152344 Z M 589.089844 457.152344 " fill-opacity="1" fill-rule="nonzero"/></g><path stroke-linecap="round" transform="matrix(0.75, 0, 0, 0.75, 315.52452, 210.084473)" fill="none" stroke-linejoin="miter" d="M 19.701683 36.746747 C 86.133978 7.069662 152.566273 7.085287 218.99336 36.788413 " stroke="#2a536d" stroke-width="29" stroke-opacity="1" stroke-miterlimit="4"/><path stroke-linecap="round" transform="matrix(0.0472229, 0.748512, -0.748512, 0.0472229, 580.11103, 407.251872)" fill="none" stroke-linejoin="miter" d="M 21.020976 32.38482 C 46.11041 8.510925 71.205314 8.538969 96.295619 32.463098 " stroke="#2a536d" stroke-width="29" stroke-opacity="1" stroke-miterlimit="4"/><path stroke-linecap="round" transform="matrix(0, -0.75, 0.75, 0, 229.172937, 499.665691)" fill="none" stroke-linejoin="miter" d="M 21.023006 32.384003 C 46.111548 8.51421 71.2053 8.540251 96.293843 32.462128 " stroke="#2a536d" stroke-width="29" stroke-opacity="1" stroke-miterlimit="4"/><path stroke-linecap="round" transform="matrix(-0.75, 0, 0, -0.75, 429.166062, 596.519702)" fill="none" stroke-linejoin="miter" d="M 14.591208 14.500228 C 25.716209 14.500228 36.846418 14.500228 47.971418 14.500228 " stroke="#2a536d" stroke-width="29" stroke-opacity="1" stroke-miterlimit="4"/></svg>