<svg xmlns="http://www.w3.org/2000/svg" xmlns:xlink="http://www.w3.org/1999/xlink" width="1080" zoomAndPan="magnify" viewBox="0 0 810 809.999993" height="1080" preserveAspectRatio="xMidYMid meet" version="1.0"><defs><clipPath id="b2ae1549be"><path d="M 223.089844 267.375 L 587 267.375 L 587 431.832031 L 223.089844 431.832031 Z M 223.089844 267.375 " clip-rule="nonzero"/></clipPath><clipPath id="7478aa98cc"><path d="M 416.214844 427.175781 L 584.976562 277.335938 C 586.746094 275.761719 587.363281 273.261719 586.523438 271.050781 C 585.679688 268.835938 583.5625 267.375 581.195312 267.375 L 228.804688 267.375 C 226.4375 267.375 224.320312 268.835938 223.476562 271.050781 C 222.636719 273.261719 223.253906 275.761719 225.023438 277.335938 L 393.785156 427.175781 C 400.183594 432.859375 409.816406 432.859375 416.214844 427.175781 Z M 416.214844 427.175781 " clip-rule="nonzero"/></clipPath><clipPath id="049f6964a0"><path d="M 0.0898438 0.375 L 364 0.375 L 364 164.832031 L 0.0898438 164.832031 Z M 0.0898438 0.375 " clip-rule="nonzero"/></clipPath><clipPath id="26f801b49a"><path d="M 193.214844 160.175781 L 361.976562 10.335938 C 363.746094 8.761719 364.363281 6.261719 363.523438 4.050781 C 362.679688 1.835938 360.5625 0.375 358.195312 0.375 L 5.804688 0.375 C 3.4375 0.375 1.320312 1.835938 0.476562 4.050781 C -0.363281 6.261719 0.253906 8.761719 2.023438 10.335938 L 170.785156 160.175781 C 177.183594 165.859375 186.816406 165.859375 193.214844 160.175781 Z M 193.214844 160.175781 " clip-rule="nonzero"/></clipPath><clipPath id="5db4d9ed96"><rect x="0" width="364" y="0" height="165"/></clipPath><clipPath id="60503d85d8"><path d="M 105.261719 62 L 704.511719 62 L 704.511719 748 L 105.261719 748 Z M 105.261719 62 " clip-rule="nonzero"/></clipPath><clipPath id="5bb214167a"><path d="M 425.742188 68.28125 L 683.988281 218.535156 C 696.832031 226.007812 704.734375 239.746094 704.734375 254.605469 L 704.734375 555.390625 C 704.734375 570.25 696.832031 583.984375 683.988281 591.457031 L 425.742188 741.710938 C 412.917969 749.171875 397.074219 749.171875 384.253906 741.710938 L 126.003906 591.457031 C 113.160156 583.984375 105.261719 570.25 105.261719 555.390625 L 105.261719 254.605469 C 105.261719 239.746094 113.160156 226.007812 126.003906 218.535156 L 384.253906 68.28125 C 397.074219 60.820312 412.917969 60.820312 425.742188 68.28125 Z M 425.742188 68.28125 " clip-rule="nonzero"/></clipPath><clipPath id="9bc111de00"><path d="M 180.519531 258 L 629.769531 258 L 629.769531 552 L 180.519531 552 Z M 180.519531 258 " clip-rule="nonzero"/></clipPath></defs><g clip-path="url(#b2ae1549be)"><g clip-path="url(#7478aa98cc)"><g transform="matrix(1, 0, 0, 1, 223, 267)"><g clip-path="url(#5db4d9ed96)"><g clip-path="url(#049f6964a0)"><g clip-path="url(#26f801b49a)"><path fill="#2a536d" d="M -9.195312 0.375 L 373.433594 0.375 L 373.433594 170.136719 L -9.195312 170.136719 Z M -9.195312 0.375 " fill-opacity="1" fill-rule="nonzero"/></g></g></g></g></g></g><g clip-path="url(#60503d85d8)"><g clip-path="url(#5bb214167a)"><path stroke-linecap="butt" transform="matrix(0.75, 0, 0, 0.75, 105.260439, 56.212176)" fill="none" stroke-linejoin="miter" d="M 427.309047 16.0921 L 771.637211 216.430665 C 788.762213 226.394207 799.298673 244.711918 799.298673 264.52442 L 799.298673 665.571341 C 799.298673 685.383843 788.762213 703.696345 771.637211 713.659888 L 427.309047 913.998453 C 410.210087 923.94637 389.085084 923.94637 371.991332 913.998453 L 27.657959 713.659888 C 10.532958 703.696345 0.00170633 685.383843 0.00170633 665.571341 L 0.00170633 264.52442 C 0.00170633 244.711918 10.532958 226.394207 27.657959 216.430665 L 371.991332 16.0921 C 389.085084 6.144182 410.210087 6.144182 427.309047 16.0921 Z M 427.309047 16.0921 " stroke="#5bc0ff" stroke-width="30" stroke-opacity="1" stroke-miterlimit="4"/></g></g><g clip-path="url(#9bc111de00)"><path fill="#5bc0ff" d="M 603.753906 258.425781 L 205.859375 258.425781 C 205.023438 258.425781 204.191406 258.46875 203.359375 258.550781 C 202.53125 258.632812 201.703125 258.753906 200.886719 258.917969 C 200.066406 259.082031 199.257812 259.285156 198.460938 259.527344 C 197.660156 259.773438 196.875 260.054688 196.105469 260.375 C 195.332031 260.691406 194.578125 261.050781 193.84375 261.445312 C 193.105469 261.839844 192.390625 262.265625 191.695312 262.730469 C 191.003906 263.195312 190.332031 263.691406 189.6875 264.222656 C 189.042969 264.75 188.425781 265.3125 187.832031 265.902344 C 187.242188 266.492188 186.683594 267.109375 186.152344 267.757812 C 185.625 268.402344 185.125 269.070312 184.664062 269.765625 C 184.199219 270.460938 183.769531 271.175781 183.375 271.910156 C 182.980469 272.648438 182.625 273.402344 182.304688 274.171875 C 181.984375 274.945312 181.703125 275.730469 181.460938 276.527344 C 181.21875 277.328125 181.015625 278.136719 180.851562 278.953125 C 180.6875 279.773438 180.5625 280.597656 180.480469 281.429688 C 180.398438 282.257812 180.359375 283.09375 180.355469 283.925781 L 180.355469 526.449219 C 180.359375 527.28125 180.398438 528.117188 180.480469 528.945312 C 180.5625 529.777344 180.6875 530.601562 180.851562 531.421875 C 181.015625 532.238281 181.21875 533.046875 181.460938 533.847656 C 181.703125 534.644531 181.984375 535.429688 182.304688 536.203125 C 182.625 536.972656 182.980469 537.726562 183.375 538.464844 C 183.769531 539.199219 184.199219 539.914062 184.664062 540.609375 C 185.125 541.304688 185.625 541.972656 186.152344 542.617188 C 186.683594 543.265625 187.242188 543.882812 187.832031 544.472656 C 188.425781 545.0625 189.042969 545.625 189.6875 546.152344 C 190.332031 546.683594 191.003906 547.179688 191.695312 547.644531 C 192.390625 548.109375 193.105469 548.535156 193.84375 548.929688 C 194.578125 549.324219 195.332031 549.683594 196.105469 550 C 196.875 550.320312 197.660156 550.601562 198.460938 550.847656 C 199.257812 551.089844 200.066406 551.292969 200.886719 551.457031 C 201.703125 551.617188 202.53125 551.742188 203.359375 551.824219 C 204.191406 551.90625 205.023438 551.949219 205.859375 551.949219 L 603.753906 551.949219 C 604.589844 551.949219 605.421875 551.90625 606.253906 551.824219 C 607.085938 551.742188 607.910156 551.621094 608.726562 551.457031 C 609.546875 551.292969 610.355469 551.089844 611.15625 550.847656 C 611.953125 550.605469 612.738281 550.324219 613.511719 550.003906 C 614.28125 549.683594 615.035156 549.324219 615.773438 548.933594 C 616.507812 548.539062 617.222656 548.109375 617.917969 547.644531 C 618.613281 547.179688 619.28125 546.683594 619.929688 546.15625 C 620.574219 545.625 621.191406 545.066406 621.78125 544.472656 C 622.371094 543.882812 622.933594 543.265625 623.460938 542.621094 C 623.992188 541.976562 624.488281 541.304688 624.953125 540.609375 C 625.417969 539.917969 625.847656 539.203125 626.242188 538.464844 C 626.636719 537.730469 626.992188 536.976562 627.3125 536.203125 C 627.632812 535.433594 627.914062 534.648438 628.15625 533.847656 C 628.398438 533.050781 628.601562 532.242188 628.765625 531.421875 C 628.929688 530.601562 629.054688 529.777344 629.136719 528.945312 C 629.21875 528.117188 629.261719 527.28125 629.261719 526.449219 L 629.261719 283.925781 C 629.261719 283.09375 629.21875 282.257812 629.136719 281.429688 C 629.054688 280.597656 628.929688 279.773438 628.765625 278.953125 C 628.601562 278.132812 628.398438 277.324219 628.15625 276.527344 C 627.914062 275.726562 627.632812 274.941406 627.3125 274.171875 C 626.992188 273.398438 626.636719 272.644531 626.242188 271.910156 C 625.847656 271.171875 625.417969 270.457031 624.953125 269.765625 C 624.488281 269.070312 623.992188 268.398438 623.460938 267.753906 C 622.933594 267.109375 622.371094 266.492188 621.78125 265.902344 C 621.191406 265.308594 620.574219 264.75 619.929688 264.21875 C 619.28125 263.691406 618.613281 263.195312 617.917969 262.730469 C 617.222656 262.265625 616.507812 261.835938 615.773438 261.441406 C 615.035156 261.050781 614.28125 260.691406 613.511719 260.371094 C 612.738281 260.050781 611.953125 259.769531 611.15625 259.527344 C 610.355469 259.285156 609.546875 259.082031 608.726562 258.917969 C 607.910156 258.753906 607.085938 258.632812 606.253906 258.550781 C 605.421875 258.46875 604.589844 258.425781 603.753906 258.425781 Z M 475.359375 405.1875 L 615.445312 280.3125 C 615.832031 281.488281 616.03125 282.691406 616.046875 283.925781 L 616.046875 526.449219 C 616.03125 527.683594 615.832031 528.886719 615.445312 530.0625 Z M 603.738281 271.640625 C 604.207031 271.660156 604.671875 271.707031 605.136719 271.78125 L 412.941406 443.09375 C 412.386719 443.589844 411.789062 444.035156 411.148438 444.421875 C 410.511719 444.808594 409.84375 445.136719 409.144531 445.402344 C 408.449219 445.671875 407.730469 445.871094 406.996094 446.007812 C 406.261719 446.140625 405.523438 446.210938 404.773438 446.210938 C 404.027344 446.210938 403.285156 446.140625 402.550781 446.007812 C 401.816406 445.871094 401.101562 445.671875 400.402344 445.402344 C 399.707031 445.136719 399.039062 444.808594 398.398438 444.421875 C 397.761719 444.035156 397.164062 443.589844 396.605469 443.09375 L 204.464844 271.78125 C 204.925781 271.707031 205.390625 271.660156 205.859375 271.640625 Z M 194.175781 530.0625 C 193.789062 528.886719 193.589844 527.683594 193.574219 526.449219 L 193.574219 283.925781 C 193.589844 282.691406 193.789062 281.488281 194.175781 280.3125 L 334.257812 405.1875 Z M 205.859375 538.746094 C 205.390625 538.726562 204.925781 538.679688 204.464844 538.605469 L 344.175781 414.050781 L 387.851562 452.960938 C 388.429688 453.476562 389.027344 453.964844 389.648438 454.421875 C 390.273438 454.882812 390.914062 455.316406 391.574219 455.714844 C 392.234375 456.117188 392.914062 456.488281 393.609375 456.828125 C 394.304688 457.171875 395.011719 457.476562 395.734375 457.753906 C 396.457031 458.027344 397.191406 458.269531 397.9375 458.480469 C 398.683594 458.6875 399.433594 458.863281 400.195312 459.003906 C 400.957031 459.144531 401.722656 459.25 402.492188 459.320312 C 403.261719 459.390625 404.035156 459.425781 404.808594 459.425781 C 405.582031 459.425781 406.355469 459.390625 407.125 459.320312 C 407.894531 459.25 408.660156 459.144531 409.421875 459.003906 C 410.183594 458.863281 410.9375 458.6875 411.679688 458.480469 C 412.425781 458.269531 413.160156 458.027344 413.882812 457.753906 C 414.605469 457.476562 415.3125 457.171875 416.007812 456.828125 C 416.703125 456.488281 417.382812 456.117188 418.042969 455.71875 C 418.703125 455.316406 419.347656 454.882812 419.96875 454.421875 C 420.589844 453.964844 421.1875 453.476562 421.765625 452.960938 L 465.429688 414.039062 L 605.140625 538.59375 C 604.675781 538.667969 604.210938 538.714844 603.742188 538.734375 Z M 205.859375 538.746094 " fill-opacity="1" fill-rule="nonzero"/></g></svg>