<svg xmlns="http://www.w3.org/2000/svg" xmlns:xlink="http://www.w3.org/1999/xlink" width="1080" zoomAndPan="magnify" viewBox="0 0 810 809.999993" height="1080" preserveAspectRatio="xMidYMid meet" version="1.0"><defs><clipPath id="f1ca88835d"><path d="M 105.261719 56.214844 L 704.511719 56.214844 L 704.511719 753.710938 L 105.261719 753.710938 Z M 105.261719 56.214844 " clip-rule="nonzero"/></clipPath><clipPath id="4d17900eea"><path d="M 404.996094 56.214844 L 704.734375 230.605469 L 704.734375 579.390625 L 404.996094 753.78125 L 105.261719 579.390625 L 105.261719 230.605469 Z M 404.996094 56.214844 " clip-rule="nonzero"/></clipPath></defs><g clip-path="url(#f1ca88835d)"><g clip-path="url(#4d17900eea)"><path stroke-linecap="butt" transform="matrix(0.75, 0, 0, 0.75, 105.260439, 56.212176)" fill="none" stroke-linejoin="miter" d="M 399.647585 0.0035565 L 799.298673 232.524416 L 799.298673 697.571345 L 399.647585 930.092204 L 0.00170633 697.571345 L 0.00170633 232.524416 Z M 399.647585 0.0035565 " stroke="#ffffff" stroke-width="100" stroke-opacity="1" stroke-miterlimit="4"/></g></g><path stroke-linecap="butt" transform="matrix(0.649019, 0.375864, -0.375864, 0.649019, 129.614675, 233.38574)" fill="none" stroke-linejoin="miter" d="M -0.000739239 14.001423 L 432.418748 14.001832 " stroke="#ffffff" stroke-width="28" stroke-opacity="1" stroke-miterlimit="4"/><path stroke-linecap="butt" transform="matrix(0.64895, -0.375984, 0.375984, 0.64895, 399.735511, 395.91211)" fill="none" stroke-linejoin="miter" d="M 0.00170934 13.99896 L 432.278863 14.001699 " stroke="#ffffff" stroke-width="28" stroke-opacity="1" stroke-miterlimit="4"/><path stroke-linecap="butt" transform="matrix(0.000000001309, 0.75, -0.75, 0.000000001309, 415.499983, 405)" fill="none" stroke-linejoin="miter" d="M 0.000000475566 13.999977 L 432.000022 13.999978 " stroke="#ffffff" stroke-width="28" stroke-opacity="1" stroke-miterlimit="4"/><path stroke-linecap="butt" transform="matrix(0.649519, 0.375, -0.375, 0.649519, 129.65572, 313.626919)" fill="none" stroke-linejoin="miter" d="M -0.000344927 13.99799 L 428.344965 13.997102 " stroke="#ffffff" stroke-width="28" stroke-opacity="1" stroke-miterlimit="4"/><path stroke-linecap="butt" transform="matrix(0.64895, -0.375984, 0.375984, 0.64895, 399.788158, 476.162108)" fill="none" stroke-linejoin="miter" d="M -0.000443553 13.997715 L 432.27671 14.000454 " stroke="#ffffff" stroke-width="28" stroke-opacity="1" stroke-miterlimit="4"/><path stroke-linecap="butt" transform="matrix(0.649519, 0.375, -0.375, 0.649519, 130.40572, 466.495125)" fill="none" stroke-linejoin="miter" d="M 0.00158034 14.001325 L 428.34689 14.000437 " stroke="#ffffff" stroke-width="28" stroke-opacity="1" stroke-miterlimit="4"/><path stroke-linecap="butt" transform="matrix(0.64895, -0.375984, 0.375984, 0.64895, 400.538158, 629.030316)" fill="none" stroke-linejoin="miter" d="M -0.00237218 14.001044 L 432.277392 13.999276 " stroke="#ffffff" stroke-width="28" stroke-opacity="1" stroke-miterlimit="4"/><path stroke-linecap="round" transform="matrix(0.75, 0, 0, 0.75, 126.851116, 238.991228)" fill="none" stroke-linejoin="miter" d="M 14.000596 14.00128 L 387.417281 14.00128 " stroke="#ffffff" stroke-width="28" stroke-opacity="1" stroke-miterlimit="4"/><path stroke-linecap="round" transform="matrix(0.0661503, 0.747077, -0.747077, 0.0661503, 413.245687, 78.754924)" fill="none" stroke-linejoin="miter" d="M 14.000481 14.002418 L 226.354543 13.997726 " stroke="#ffffff" stroke-width="28" stroke-opacity="1" stroke-miterlimit="4"/><path stroke-linecap="round" transform="matrix(-0.16589, -0.731423, 0.731423, -0.16589, 394.760052, 407.322432)" fill="none" stroke-linejoin="miter" d="M 13.998324 13.99725 L 196.389987 14.001526 " stroke="#ffffff" stroke-width="28" stroke-opacity="1" stroke-miterlimit="4"/><path stroke-linecap="round" transform="matrix(-0.745984, -0.0775098, 0.0775098, -0.745984, 675.902129, 257.413397)" fill="none" stroke-linejoin="miter" d="M 14.000923 14.002144 L 342.918123 13.999291 " stroke="#ffffff" stroke-width="28" stroke-opacity="1" stroke-miterlimit="4"/><path stroke-linecap="butt" transform="matrix(0.649519, 0.375, -0.375, 0.649519, 131.90572, 392.995138)" fill="none" stroke-linejoin="miter" d="M 0.00157157 14.00131 L 428.346881 14.000421 " stroke="#ffffff" stroke-width="28" stroke-opacity="1" stroke-miterlimit="4"/><path stroke-linecap="butt" transform="matrix(0.64895, -0.375984, 0.375984, 0.64895, 402.038158, 555.53032)" fill="none" stroke-linejoin="miter" d="M -0.00236962 14.00104 L 432.277395 13.999272 " stroke="#ffffff" stroke-width="28" stroke-opacity="1" stroke-miterlimit="4"/></svg>