<svg xmlns="http://www.w3.org/2000/svg" xmlns:xlink="http://www.w3.org/1999/xlink" width="1080" zoomAndPan="magnify" viewBox="0 0 810 809.999993" height="1080" preserveAspectRatio="xMidYMid meet" version="1.0"><defs><clipPath id="a8a91e6e96"><path d="M 105.261719 56.214844 L 704.511719 56.214844 L 704.511719 753.710938 L 105.261719 753.710938 Z M 105.261719 56.214844 " clip-rule="nonzero"/></clipPath><clipPath id="ccf636a8b3"><path d="M 404.996094 56.214844 L 704.734375 230.605469 L 704.734375 579.390625 L 404.996094 753.78125 L 105.261719 579.390625 L 105.261719 230.605469 Z M 404.996094 56.214844 " clip-rule="nonzero"/></clipPath><clipPath id="92c3c2dae8"><path d="M 257 243.265625 L 554 243.265625 L 554 567 L 257 567 Z M 257 243.265625 " clip-rule="nonzero"/></clipPath></defs><g clip-path="url(#a8a91e6e96)"><g clip-path="url(#ccf636a8b3)"><path stroke-linecap="butt" transform="matrix(0.75, 0, 0, 0.75, 105.260439, 56.212176)" fill="none" stroke-linejoin="miter" d="M 399.647585 0.0035565 L 799.298673 232.524416 L 799.298673 697.571345 L 399.647585 930.092204 L 0.00170633 697.571345 L 0.00170633 232.524416 Z M 399.647585 0.0035565 " stroke="#ffffff" stroke-width="100" stroke-opacity="1" stroke-miterlimit="4"/></g></g><g clip-path="url(#92c3c2dae8)"><path fill="#ffffff" d="M 553.15625 340.601562 C 553.097656 299.230469 520.878906 265.324219 483.074219 253.09375 C 436.132812 237.898438 374.21875 240.101562 329.394531 261.25 C 275.0625 286.890625 257.996094 343.050781 257.359375 399.058594 C 256.839844 445.109375 261.433594 566.394531 329.84375 567.257812 C 380.675781 567.902344 388.246094 502.40625 411.765625 470.859375 C 428.5 448.417969 450.046875 442.078125 476.570312 435.515625 C 522.152344 424.230469 553.222656 388.253906 553.15625 340.601562 Z M 553.15625 340.601562 " fill-opacity="1" fill-rule="nonzero"/></g></svg>