<svg xmlns="http://www.w3.org/2000/svg" xmlns:xlink="http://www.w3.org/1999/xlink" width="1080" zoomAndPan="magnify" viewBox="0 0 810 809.999993" height="1080" preserveAspectRatio="xMidYMid meet" version="1.0"><defs><clipPath id="f66998c3c3"><path d="M 105.261719 62 L 704.511719 62 L 704.511719 748 L 105.261719 748 Z M 105.261719 62 " clip-rule="nonzero"/></clipPath><clipPath id="c490847b79"><path d="M 425.742188 68.28125 L 683.988281 218.535156 C 696.832031 226.007812 704.734375 239.746094 704.734375 254.605469 L 704.734375 555.390625 C 704.734375 570.25 696.832031 583.984375 683.988281 591.457031 L 425.742188 741.710938 C 412.917969 749.171875 397.074219 749.171875 384.253906 741.710938 L 126.003906 591.457031 C 113.160156 583.984375 105.261719 570.25 105.261719 555.390625 L 105.261719 254.605469 C 105.261719 239.746094 113.160156 226.007812 126.003906 218.535156 L 384.253906 68.28125 C 397.074219 60.820312 412.917969 60.820312 425.742188 68.28125 Z M 425.742188 68.28125 " clip-rule="nonzero"/></clipPath><clipPath id="a88ac84201"><path d="M 171.980469 169.417969 L 637.730469 169.417969 L 637.730469 635 L 171.980469 635 Z M 171.980469 169.417969 " clip-rule="nonzero"/></clipPath></defs><g clip-path="url(#f66998c3c3)"><g clip-path="url(#c490847b79)"><path stroke-linecap="butt" transform="matrix(0.75, 0, 0, 0.75, 105.260439, 56.212176)" fill="none" stroke-linejoin="miter" d="M 427.309047 16.0921 L 771.637211 216.430665 C 788.762213 226.394207 799.298673 244.711918 799.298673 264.52442 L 799.298673 665.571341 C 799.298673 685.383843 788.762213 703.696345 771.637211 713.659888 L 427.309047 913.998453 C 410.210087 923.94637 389.085084 923.94637 371.991332 913.998453 L 27.657959 713.659888 C 10.532958 703.696345 0.00170633 685.383843 0.00170633 665.571341 L 0.00170633 264.52442 C 0.00170633 244.711918 10.532958 226.394207 27.657959 216.430665 L 371.991332 16.0921 C 389.085084 6.144182 410.210087 6.144182 427.309047 16.0921 Z M 427.309047 16.0921 " stroke="#5bc0ff" stroke-width="30" stroke-opacity="1" stroke-miterlimit="4"/></g></g><path fill="#3fa5e3" d="M 622.5 431.9375 C 622.417969 435.960938 620.414062 439.335938 614.851562 444.910156 C 549.886719 509.765625 485.007812 574.652344 420.183594 639.636719 C 415.242188 644.578125 411.8125 647.371094 407.863281 648.09375 C 407.007812 648.234375 406.175781 648.457031 405.363281 648.753906 L 404.09375 648.753906 C 403.378906 648.472656 402.644531 648.257812 401.890625 648.105469 C 398.136719 647.34375 394.917969 644.660156 390.261719 640.015625 C 338.691406 588.316406 287.0625 536.691406 235.433594 485.046875 L 194.28125 443.894531 L 192.769531 442.410156 C 192.035156 441.707031 191.289062 441 190.625 440.238281 C 186.503906 435.507812 185.332031 431.472656 186.574219 426.289062 C 187.433594 422.730469 189.425781 419.511719 193.039062 415.914062 L 283.476562 325.460938 L 319.679688 289.234375 L 321.273438 290.84375 L 356.207031 325.714844 C 355.5 328.707031 354.851562 332.195312 355.046875 336.09375 C 355.980469 353.457031 363.445312 367.363281 377.039062 376.667969 C 376.925781 404.253906 376.925781 431.867188 376.9375 459.453125 L 376.9375 488.054688 C 359.324219 500.816406 351.605469 520.523438 356.644531 541.152344 C 362.078125 563.386719 379.648438 577.855469 403.667969 579.902344 C 404.742188 580.015625 405.816406 580.046875 406.914062 580.046875 C 425.445312 580.046875 444.882812 566.464844 452.109375 548.421875 C 454.019531 543.824219 455.214844 539.046875 455.691406 534.089844 C 456.167969 529.132812 455.90625 524.214844 454.902344 519.339844 C 452.445312 507.621094 446.363281 497.894531 436.371094 489.761719 L 436.371094 406.328125 C 441.945312 411.863281 447.519531 417.410156 453.125 422.914062 C 452.378906 426.523438 452.0625 430.167969 452.167969 433.851562 C 452.269531 437.53125 452.796875 441.152344 453.746094 444.714844 C 459.8125 467.414062 479.175781 482.691406 501.941406 482.691406 C 505.609375 482.667969 509.242188 482.289062 512.839844 481.558594 C 539.910156 475.984375 557.167969 450.488281 552.117188 423.453125 C 547.628906 399.453125 526.996094 382.03125 503.042969 382.03125 C 500.460938 382.03125 497.878906 382.214844 495.335938 382.636719 C 482.070312 369.207031 468.714844 355.867188 455.269531 342.613281 C 457.484375 329.34375 453.773438 315.15625 445.050781 304.085938 C 443.882812 302.605469 442.636719 301.191406 441.3125 299.851562 C 439.984375 298.511719 438.585938 297.25 437.117188 296.066406 C 435.644531 294.886719 434.113281 293.792969 432.519531 292.785156 C 430.925781 291.777344 429.277344 290.863281 427.578125 290.042969 C 425.878906 289.222656 424.140625 288.503906 422.359375 287.878906 C 420.578125 287.257812 418.769531 286.738281 416.929688 286.324219 C 415.089844 285.90625 413.234375 285.597656 411.359375 285.390625 C 409.484375 285.1875 407.601562 285.089844 405.714844 285.097656 C 403.390625 285.097656 401.078125 285.242188 398.773438 285.535156 C 388.554688 275.203125 378.300781 264.90625 368.003906 254.648438 L 361.101562 247.773438 C 369.769531 239.089844 378.363281 230.492188 386.972656 221.910156 C 389.441406 219.453125 391.996094 217.09375 394.609375 214.679688 C 396.542969 212.875 400.15625 211.742188 404.007812 211.742188 C 407.777344 211.742188 411.417969 212.875 413.324219 214.609375 L 414.832031 216.007812 C 416.300781 217.320312 417.753906 218.632812 419.136719 220.015625 L 605.453125 406.371094 L 614.316406 415.234375 L 615.457031 416.363281 C 616.191406 417.097656 616.941406 417.820312 617.632812 418.59375 C 621.640625 423.097656 622.289062 425.78125 622.375 427.828125 C 622.417969 428.648438 622.515625 429.394531 622.65625 430.128906 C 622.578125 430.726562 622.53125 431.324219 622.515625 431.921875 " fill-opacity="0.15" fill-rule="evenodd"/><g clip-path="url(#a88ac84201)"><path fill="#3fa5e3" d="M 622.5 403.703125 C 622.417969 407.726562 620.414062 411.097656 614.851562 416.675781 C 549.886719 481.53125 485.007812 546.417969 420.183594 611.398438 C 415.242188 616.339844 411.8125 619.152344 407.863281 619.855469 C 407.007812 620 406.175781 620.222656 405.363281 620.519531 L 404.09375 620.519531 C 403.378906 620.238281 402.644531 620.019531 401.890625 619.871094 C 398.136719 619.09375 394.917969 616.425781 390.261719 611.78125 C 338.691406 560.082031 287.0625 508.453125 235.433594 456.824219 L 194.28125 415.628906 L 192.769531 414.148438 C 192.035156 413.441406 191.289062 412.75 190.625 411.972656 C 186.503906 407.246094 185.332031 403.222656 186.574219 398.027344 C 187.433594 394.46875 189.425781 391.265625 193.039062 387.648438 L 283.476562 297.226562 L 319.679688 261 L 321.273438 262.609375 L 356.207031 297.480469 C 355.5 300.472656 354.851562 303.960938 355.046875 307.855469 C 355.980469 325.222656 363.445312 339.128906 377.039062 348.429688 C 376.925781 376.015625 376.925781 403.628906 376.9375 431.214844 L 376.9375 459.820312 C 359.324219 472.582031 351.605469 492.289062 356.644531 512.914062 C 362.078125 535.152344 379.648438 549.621094 403.667969 551.667969 C 404.742188 551.78125 405.816406 551.808594 406.914062 551.808594 C 425.445312 551.808594 444.882812 538.226562 452.109375 520.1875 C 454.019531 515.589844 455.214844 510.8125 455.691406 505.855469 C 456.167969 500.898438 455.90625 495.980469 454.902344 491.105469 C 452.445312 479.386719 446.363281 469.660156 436.371094 461.527344 L 436.371094 378.09375 C 441.945312 383.613281 447.519531 389.160156 453.125 394.679688 C 452.378906 398.289062 452.0625 401.933594 452.167969 405.613281 C 452.269531 409.296875 452.796875 412.917969 453.746094 416.476562 C 459.8125 439.179688 479.175781 454.453125 501.941406 454.453125 C 505.609375 454.433594 509.242188 454.054688 512.839844 453.324219 C 539.910156 447.75 557.167969 422.253906 552.117188 395.214844 C 547.628906 371.214844 526.996094 353.796875 503.042969 353.796875 C 500.460938 353.796875 497.878906 353.980469 495.335938 354.402344 C 482.070312 340.972656 468.714844 327.632812 455.269531 314.378906 C 457.484375 301.109375 453.773438 286.921875 445.050781 275.851562 C 443.882812 274.371094 442.636719 272.957031 441.3125 271.617188 C 439.984375 270.277344 438.585938 269.015625 437.117188 267.832031 C 435.644531 266.652344 434.113281 265.554688 432.519531 264.550781 C 430.925781 263.542969 429.277344 262.628906 427.578125 261.808594 C 425.878906 260.988281 424.140625 260.265625 422.359375 259.644531 C 420.578125 259.023438 418.769531 258.503906 416.929688 258.089844 C 415.089844 257.671875 413.234375 257.363281 411.359375 257.15625 C 409.484375 256.953125 407.601562 256.855469 405.714844 256.863281 C 403.390625 256.867188 401.078125 257.019531 398.773438 257.316406 C 388.554688 246.972656 378.300781 236.664062 368.003906 226.398438 L 361.117188 219.550781 C 369.78125 210.867188 378.378906 202.257812 386.988281 193.6875 C 389.457031 191.246094 392.011719 188.859375 394.621094 186.460938 C 396.554688 184.636719 400.167969 183.523438 404.023438 183.523438 C 407.789062 183.523438 411.433594 184.652344 413.335938 186.375 L 414.847656 187.785156 C 416.316406 189.097656 417.769531 190.410156 419.152344 191.808594 L 605.464844 378.132812 L 614.328125 387.027344 L 615.472656 388.15625 C 616.207031 388.863281 616.953125 389.597656 617.644531 390.375 C 621.65625 394.878906 622.304688 397.558594 622.386719 399.605469 C 622.429688 400.425781 622.53125 401.175781 622.671875 401.910156 C 622.589844 402.503906 622.542969 403.101562 622.53125 403.703125 M 636.5 398.945312 C 636.148438 391.800781 632.761719 386.109375 628.1875 380.984375 C 626.960938 379.601562 625.621094 378.332031 624.308594 377.035156 L 429.128906 181.84375 C 427.113281 179.824219 424.96875 177.917969 422.863281 175.984375 C 418.09375 171.636719 411.066406 169.417969 404.007812 169.417969 C 396.921875 169.417969 389.824219 171.636719 385.011719 176.109375 C 382.328125 178.609375 379.621094 181.09375 377.007812 183.691406 C 365.152344 195.523438 353.328125 207.367188 341.300781 219.394531 C 342.570312 220.777344 343.617188 222.019531 344.746094 223.152344 C 359.917969 238.328125 375.160156 253.449219 390.234375 268.75 C 392.292969 270.867188 394.128906 271.714844 396.699219 271.714844 C 397.488281 271.714844 398.335938 271.644531 399.28125 271.488281 C 401.480469 271.152344 403.628906 270.980469 405.703125 270.980469 C 430.5 270.980469 445.671875 294.417969 440.902344 314.179688 C 440.109375 317.527344 440.71875 319.855469 443.246094 322.355469 C 458.101562 336.996094 472.851562 351.738281 487.503906 366.585938 C 489.199219 368.28125 490.820312 369.128906 492.867188 369.128906 C 493.621094 369.125 494.367188 369.027344 495.097656 368.84375 C 497.707031 368.222656 500.375 367.914062 503.03125 367.914062 C 519.035156 367.914062 534.730469 379.09375 538.230469 397.8125 C 541.574219 415.671875 531.085938 435.15625 510 439.476562 C 507.222656 440.039062 504.527344 440.324219 501.929688 440.324219 C 484.765625 440.324219 471.585938 428.578125 467.363281 412.820312 C 466.570312 409.765625 466.203125 406.65625 466.269531 403.5 C 466.335938 400.339844 466.828125 397.25 467.746094 394.226562 C 468.410156 391.96875 468.480469 390.050781 466.53125 388.117188 C 451.964844 373.742188 437.515625 359.300781 423.019531 344.875 C 422.890625 344.761719 422.625 344.816406 422.242188 344.773438 L 422.242188 468.714844 C 431.628906 474.796875 438.683594 482.617188 441.070312 493.984375 C 441.789062 497.503906 441.972656 501.050781 441.617188 504.621094 C 441.261719 508.195312 440.390625 511.640625 438.996094 514.949219 C 433.859375 527.738281 419.632812 537.691406 406.886719 537.691406 C 406.214844 537.691406 405.542969 537.667969 404.871094 537.621094 C 384.828125 535.898438 373.820312 523.800781 370.332031 509.582031 C 366.523438 493.957031 372.589844 477.648438 390.796875 467.726562 C 390.867188 466.117188 391.039062 464.308594 391.039062 462.5 C 391.050781 423.832031 390.96875 385.164062 391.136719 346.523438 C 391.164062 342.105469 389.753906 339.789062 385.941406 337.40625 C 374.960938 330.488281 369.8125 319.84375 369.148438 307.109375 C 368.964844 303.75 370.078125 300.304688 370.882812 296.945312 C 371.449219 294.601562 371.460938 292.75 369.558594 290.859375 C 353.042969 274.453125 336.574219 257.9375 319.734375 241.109375 C 318.324219 242.492188 317.011719 243.691406 315.785156 244.933594 C 271.511719 289.179688 227.304688 333.464844 183.03125 377.683594 C 178.191406 382.539062 174.480469 387.890625 172.828125 394.738281 C 170.359375 405 173.265625 413.582031 179.953125 421.277344 C 181.296875 422.816406 182.820312 424.1875 184.273438 425.640625 C 249.621094 491.003906 314.980469 556.355469 380.253906 621.75 C 385.6875 627.199219 391.265625 632.097656 399.027344 633.707031 C 399.308594 633.777344 399.476562 634.3125 399.691406 634.636719 L 409.511719 634.636719 C 409.765625 634.355469 409.992188 633.820312 410.289062 633.777344 C 418.574219 632.292969 424.445312 627.085938 430.148438 621.382812 C 494.984375 556.425781 559.863281 491.527344 624.800781 426.683594 C 631.210938 420.277344 636.402344 413.511719 636.601562 403.996094 C 636.601562 403.558594 637.320312 403.136719 637.730469 402.714844 L 637.730469 401.472656 C 637.277344 400.625 636.5 399.820312 636.460938 398.957031 " fill-opacity="1" fill-rule="evenodd"/></g></svg>