<svg xmlns="http://www.w3.org/2000/svg" xmlns:xlink="http://www.w3.org/1999/xlink" width="1080" zoomAndPan="magnify" viewBox="0 0 810 809.999993" height="1080" preserveAspectRatio="xMidYMid meet" version="1.0"><defs><clipPath id="c37024530f"><path d="M 105.261719 62 L 704.511719 62 L 704.511719 748 L 105.261719 748 Z M 105.261719 62 " clip-rule="nonzero"/></clipPath><clipPath id="5f25111d81"><path d="M 425.742188 68.28125 L 683.988281 218.535156 C 696.832031 226.007812 704.734375 239.746094 704.734375 254.605469 L 704.734375 555.390625 C 704.734375 570.25 696.832031 583.984375 683.988281 591.457031 L 425.742188 741.710938 C 412.917969 749.171875 397.074219 749.171875 384.253906 741.710938 L 126.003906 591.457031 C 113.160156 583.984375 105.261719 570.25 105.261719 555.390625 L 105.261719 254.605469 C 105.261719 239.746094 113.160156 226.007812 126.003906 218.535156 L 384.253906 68.28125 C 397.074219 60.820312 412.917969 60.820312 425.742188 68.28125 Z M 425.742188 68.28125 " clip-rule="nonzero"/></clipPath><clipPath id="a219f67170"><path d="M 249.050781 294.101562 L 607 294.101562 L 607 555.648438 L 249.050781 555.648438 Z M 249.050781 294.101562 " clip-rule="nonzero"/></clipPath><clipPath id="68f6164efd"><path d="M 301.550781 294.101562 L 554.382812 294.101562 C 568.304688 294.101562 581.660156 299.632812 591.503906 309.476562 C 601.351562 319.324219 606.882812 332.675781 606.882812 346.601562 L 606.882812 503.148438 C 606.882812 517.074219 601.351562 530.425781 591.503906 540.273438 C 581.660156 550.117188 568.304688 555.648438 554.382812 555.648438 L 301.550781 555.648438 C 287.625 555.648438 274.273438 550.117188 264.425781 540.273438 C 254.582031 530.425781 249.050781 517.074219 249.050781 503.148438 L 249.050781 346.601562 C 249.050781 332.675781 254.582031 319.324219 264.425781 309.476562 C 274.273438 299.632812 287.625 294.101562 301.550781 294.101562 Z M 301.550781 294.101562 " clip-rule="nonzero"/></clipPath><clipPath id="fd29e6e4db"><path d="M 0.0507812 0.101562 L 357.960938 0.101562 L 357.960938 261.648438 L 0.0507812 261.648438 Z M 0.0507812 0.101562 " clip-rule="nonzero"/></clipPath><clipPath id="f0ffe93e02"><path d="M 52.550781 0.101562 L 305.382812 0.101562 C 319.304688 0.101562 332.660156 5.632812 342.503906 15.476562 C 352.351562 25.324219 357.882812 38.675781 357.882812 52.601562 L 357.882812 209.148438 C 357.882812 223.074219 352.351562 236.425781 342.503906 246.273438 C 332.660156 256.117188 319.304688 261.648438 305.382812 261.648438 L 52.550781 261.648438 C 38.625 261.648438 25.273438 256.117188 15.425781 246.273438 C 5.582031 236.425781 0.0507812 223.074219 0.0507812 209.148438 L 0.0507812 52.601562 C 0.0507812 38.675781 5.582031 25.324219 15.425781 15.476562 C 25.273438 5.632812 38.625 0.101562 52.550781 0.101562 Z M 52.550781 0.101562 " clip-rule="nonzero"/></clipPath><clipPath id="301b25c5c4"><rect x="0" width="358" y="0" height="262"/></clipPath><clipPath id="da160cce09"><path d="M 331.375 409.371094 L 449.714844 409.371094 L 449.714844 627 L 331.375 627 Z M 331.375 409.371094 " clip-rule="nonzero"/></clipPath><clipPath id="1923388156"><path d="M 442.894531 502.558594 L 347.683594 412.058594 C 344.886719 409.402344 340.769531 408.664062 337.222656 410.1875 C 333.675781 411.707031 331.375 415.199219 331.375 419.058594 L 331.375 617.058594 C 331.375 620.921875 333.675781 624.410156 337.222656 625.933594 C 340.769531 627.457031 344.886719 626.71875 347.683594 624.058594 L 442.894531 533.558594 C 447.140625 529.523438 449.546875 523.917969 449.546875 518.058594 C 449.546875 512.199219 447.140625 506.59375 442.894531 502.558594 Z M 442.894531 502.558594 " clip-rule="nonzero"/></clipPath><clipPath id="28830bf2f2"><path d="M 0.375 0.371094 L 118.714844 0.371094 L 118.714844 218 L 0.375 218 Z M 0.375 0.371094 " clip-rule="nonzero"/></clipPath><clipPath id="16944db54c"><path d="M 111.894531 93.558594 L 16.683594 3.058594 C 13.886719 0.402344 9.769531 -0.335938 6.222656 1.1875 C 2.675781 2.707031 0.375 6.199219 0.375 10.058594 L 0.375 208.058594 C 0.375 211.921875 2.675781 215.410156 6.222656 216.933594 C 9.769531 218.457031 13.886719 217.71875 16.683594 215.058594 L 111.894531 124.558594 C 116.140625 120.523438 118.546875 114.917969 118.546875 109.058594 C 118.546875 103.199219 116.140625 97.59375 111.894531 93.558594 Z M 111.894531 93.558594 " clip-rule="nonzero"/></clipPath><clipPath id="476b4e1e3a"><rect x="0" width="119" y="0" height="218"/></clipPath><clipPath id="e05714f491"><path d="M 378 195 L 559 195 L 559 443 L 378 443 Z M 378 195 " clip-rule="nonzero"/></clipPath><clipPath id="0011b32f9e"><path d="M 502.105469 192.492188 L 560.800781 226.378906 L 434.375 445.34375 L 375.679688 411.453125 Z M 502.105469 192.492188 " clip-rule="nonzero"/></clipPath><clipPath id="505447dab2"><path d="M 508.597656 196.242188 L 554.304688 222.628906 C 556.027344 223.625 557.285156 225.261719 557.796875 227.183594 C 558.3125 229.105469 558.042969 231.152344 557.050781 232.875 L 438.171875 438.769531 C 437.175781 440.492188 435.539062 441.746094 433.617188 442.261719 C 431.695312 442.777344 429.648438 442.507812 427.925781 441.511719 L 382.222656 415.125 C 380.5 414.128906 379.242188 412.492188 378.726562 410.570312 C 378.210938 408.648438 378.480469 406.601562 379.476562 404.878906 L 498.351562 198.984375 C 499.347656 197.261719 500.984375 196.007812 502.90625 195.492188 C 504.828125 194.976562 506.875 195.246094 508.597656 196.242188 Z M 508.597656 196.242188 " clip-rule="nonzero"/></clipPath><clipPath id="7d27c526f2"><path d="M 0 0 L 180.480469 0 L 180.480469 247.800781 L 0 247.800781 Z M 0 0 " clip-rule="nonzero"/></clipPath><clipPath id="ecd2170cc3"><path d="M 124.105469 -2.507812 L 182.800781 31.378906 L 56.375 250.34375 L -2.320312 216.453125 Z M 124.105469 -2.507812 " clip-rule="nonzero"/></clipPath><clipPath id="81758d4f1f"><path d="M 130.597656 1.242188 L 176.304688 27.628906 C 178.027344 28.625 179.285156 30.261719 179.796875 32.183594 C 180.3125 34.105469 180.042969 36.152344 179.050781 37.875 L 60.171875 243.769531 C 59.175781 245.492188 57.539062 246.746094 55.617188 247.261719 C 53.695312 247.777344 51.648438 247.507812 49.925781 246.511719 L 4.222656 220.125 C 2.5 219.128906 1.242188 217.492188 0.726562 215.570312 C 0.210938 213.648438 0.480469 211.601562 1.476562 209.878906 L 120.351562 3.984375 C 121.347656 2.261719 122.984375 1.007812 124.90625 0.492188 C 126.828125 -0.0234375 128.875 0.246094 130.597656 1.242188 Z M 130.597656 1.242188 " clip-rule="nonzero"/></clipPath><clipPath id="45e9f1709c"><rect x="0" width="181" y="0" height="248"/></clipPath><clipPath id="5c54e4b67b"><path d="M 219.53125 162.71875 L 590.78125 162.71875 L 590.78125 616.46875 L 219.53125 616.46875 Z M 219.53125 162.71875 " clip-rule="nonzero"/></clipPath></defs><g clip-path="url(#c37024530f)"><g clip-path="url(#5f25111d81)"><path stroke-linecap="butt" transform="matrix(0.75, 0, 0, 0.75, 105.260439, 56.212176)" fill="none" stroke-linejoin="miter" d="M 427.309047 16.0921 L 771.637211 216.430665 C 788.762213 226.394207 799.298673 244.711918 799.298673 264.52442 L 799.298673 665.571341 C 799.298673 685.383843 788.762213 703.696345 771.637211 713.659888 L 427.309047 913.998453 C 410.210087 923.94637 389.085084 923.94637 371.991332 913.998453 L 27.657959 713.659888 C 10.532958 703.696345 0.00170633 685.383843 0.00170633 665.571341 L 0.00170633 264.52442 C 0.00170633 244.711918 10.532958 226.394207 27.657959 216.430665 L 371.991332 16.0921 C 389.085084 6.144182 410.210087 6.144182 427.309047 16.0921 Z M 427.309047 16.0921 " stroke="#5bc0ff" stroke-width="30" stroke-opacity="1" stroke-miterlimit="4"/></g></g><g clip-path="url(#a219f67170)"><g clip-path="url(#68f6164efd)"><g transform="matrix(1, 0, 0, 1, 249, 294)"><g clip-path="url(#301b25c5c4)"><g clip-path="url(#fd29e6e4db)"><g clip-path="url(#f0ffe93e02)"><path fill="#2a536d" d="M 0.0507812 0.101562 L 357.636719 0.101562 L 357.636719 261.648438 L 0.0507812 261.648438 Z M 0.0507812 0.101562 " fill-opacity="1" fill-rule="nonzero"/></g></g></g></g></g></g><g clip-path="url(#da160cce09)"><g clip-path="url(#1923388156)"><g transform="matrix(1, 0, 0, 1, 331, 409)"><g clip-path="url(#476b4e1e3a)"><g clip-path="url(#28830bf2f2)"><g clip-path="url(#16944db54c)"><path fill="#2a536d" d="M 0.375 230.558594 L 0.375 -12.609375 L 128.203125 -12.609375 L 128.203125 230.558594 Z M 0.375 230.558594 " fill-opacity="1" fill-rule="nonzero"/></g></g></g></g></g></g><g clip-path="url(#e05714f491)"><g clip-path="url(#0011b32f9e)"><g clip-path="url(#505447dab2)"><g transform="matrix(1, 0, 0, 1, 378, 195)"><g clip-path="url(#45e9f1709c)"><g clip-path="url(#7d27c526f2)"><g clip-path="url(#ecd2170cc3)"><g clip-path="url(#81758d4f1f)"><path fill="#2a536d" d="M 124.105469 -2.507812 L 182.800781 31.378906 L 56.375 250.34375 L -2.320312 216.453125 Z M 124.105469 -2.507812 " fill-opacity="1" fill-rule="nonzero"/></g></g></g></g></g></g></g></g><g clip-path="url(#5c54e4b67b)"><path fill="#5bc0ff" d="M 590.433594 324.671875 L 590.433594 483.96875 C 590.433594 516.570312 563.921875 543.089844 531.339844 543.089844 L 406.164062 543.089844 L 337.324219 611.929688 C 334.3125 614.90625 330.46875 616.464844 326.511719 616.464844 C 324.503906 616.464844 322.46875 616.0625 320.496094 615.242188 C 314.734375 612.867188 310.996094 607.277344 310.996094 601.007812 L 310.996094 543.085938 L 278.65625 543.085938 C 246.070312 543.085938 219.5625 516.566406 219.5625 483.96875 L 219.5625 324.671875 C 219.5625 292.074219 246.070312 265.554688 278.65625 265.554688 L 406.625 265.554688 C 410.171875 265.554688 413.050781 268.429688 413.050781 271.980469 C 413.050781 275.53125 410.171875 278.410156 406.625 278.410156 L 278.652344 278.410156 C 253.160156 278.410156 232.417969 299.164062 232.417969 324.671875 L 232.417969 483.96875 C 232.417969 509.480469 253.160156 530.234375 278.652344 530.234375 L 317.425781 530.234375 C 320.972656 530.234375 323.851562 533.109375 323.851562 536.660156 L 323.851562 601.007812 C 323.851562 602.113281 324.40625 602.953125 325.417969 603.367188 C 326.460938 603.804688 327.460938 603.601562 328.253906 602.816406 L 398.957031 532.113281 C 400.160156 530.910156 401.796875 530.230469 403.5 530.230469 L 531.339844 530.230469 C 556.835938 530.230469 577.578125 509.480469 577.578125 483.96875 L 577.578125 324.671875 C 577.578125 299.160156 556.835938 278.40625 531.339844 278.40625 C 527.789062 278.40625 524.910156 275.53125 524.910156 271.980469 C 524.910156 268.429688 527.789062 265.554688 531.339844 265.554688 C 563.921875 265.554688 590.433594 292.074219 590.433594 324.671875 Z M 498.085938 324.671875 C 498.085938 328.222656 500.960938 331.101562 504.511719 331.101562 L 523.195312 331.101562 C 526.746094 331.101562 529.621094 328.222656 529.621094 324.671875 C 529.621094 321.125 526.746094 318.246094 523.195312 318.246094 L 504.511719 318.246094 C 500.960938 318.246094 498.085938 321.125 498.085938 324.671875 Z M 286.800781 331.101562 L 331.242188 331.101562 C 334.792969 331.101562 337.667969 328.222656 337.667969 324.671875 C 337.667969 321.125 334.792969 318.246094 331.242188 318.246094 L 286.800781 318.246094 C 283.25 318.246094 280.371094 321.125 280.371094 324.671875 C 280.371094 328.222656 283.25 331.101562 286.800781 331.101562 Z M 286.800781 382.492188 L 337.644531 382.492188 C 341.191406 382.492188 344.070312 379.613281 344.070312 376.0625 C 344.070312 372.515625 341.191406 369.636719 337.644531 369.636719 L 286.800781 369.636719 C 283.25 369.636719 280.371094 372.515625 280.371094 376.0625 C 280.371094 379.613281 283.25 382.492188 286.800781 382.492188 Z M 523.195312 421.027344 L 476.851562 421.027344 C 473.300781 421.027344 470.425781 423.902344 470.425781 427.453125 C 470.425781 431.003906 473.300781 433.878906 476.851562 433.878906 L 523.195312 433.878906 C 526.742188 433.878906 529.621094 431.003906 529.621094 427.453125 C 529.621094 423.902344 526.742188 421.027344 523.195312 421.027344 Z M 449.425781 421.027344 C 445.875 421.027344 443 423.902344 443 427.453125 C 443 431.003906 445.875 433.878906 449.425781 433.878906 L 456.113281 433.878906 C 459.664062 433.878906 462.539062 431.003906 462.539062 427.453125 C 462.539062 423.902344 459.664062 421.027344 456.113281 421.027344 Z M 523.195312 472.414062 L 493.765625 472.414062 C 490.214844 472.414062 487.335938 475.292969 487.335938 478.84375 C 487.335938 482.390625 490.214844 485.269531 493.765625 485.269531 L 523.195312 485.269531 C 526.742188 485.269531 529.621094 482.390625 529.621094 478.84375 C 529.621094 475.292969 526.742188 472.414062 523.195312 472.414062 Z M 466.417969 205.355469 C 466.429688 205.335938 466.441406 205.320312 466.453125 205.304688 L 489.03125 166.195312 C 489.882812 164.71875 491.289062 163.640625 492.933594 163.199219 C 494.582031 162.757812 496.335938 162.992188 497.8125 163.84375 L 549.355469 193.609375 C 552.429688 195.386719 553.484375 199.316406 551.707031 202.390625 L 455.152344 369.632812 L 523.191406 369.632812 C 526.742188 369.632812 529.621094 372.511719 529.621094 376.0625 C 529.621094 379.613281 526.742188 382.488281 523.191406 382.488281 L 447.730469 382.488281 L 410.390625 447.160156 C 410.363281 447.214844 410.328125 447.261719 410.296875 447.3125 C 410.226562 447.425781 410.152344 447.542969 410.074219 447.65625 C 410.03125 447.71875 409.980469 447.773438 409.9375 447.835938 C 409.855469 447.941406 409.773438 448.046875 409.6875 448.152344 C 409.632812 448.214844 409.574219 448.273438 409.515625 448.335938 C 409.429688 448.425781 409.347656 448.515625 409.253906 448.601562 C 409.179688 448.671875 409.101562 448.738281 409.027344 448.804688 C 408.945312 448.875 408.867188 448.945312 408.78125 449.011719 C 408.679688 449.089844 408.574219 449.164062 408.46875 449.234375 C 408.410156 449.277344 408.355469 449.320312 408.289062 449.363281 L 372.273438 472.414062 L 464.203125 472.414062 C 467.753906 472.414062 470.632812 475.292969 470.632812 478.84375 C 470.632812 482.394531 467.753906 485.269531 464.203125 485.269531 L 286.800781 485.269531 C 283.25 485.269531 280.371094 482.394531 280.371094 478.84375 C 280.371094 475.292969 283.25 472.414062 286.800781 472.414062 L 344.175781 472.414062 L 345.945312 433.878906 L 286.800781 433.878906 C 283.25 433.878906 280.371094 431.003906 280.371094 427.453125 C 280.371094 423.902344 283.25 421.027344 286.800781 421.027344 L 346.535156 421.027344 L 346.855469 414.011719 C 346.855469 414.011719 346.855469 414.007812 346.855469 414.003906 L 346.859375 413.886719 C 346.863281 413.835938 346.871094 413.789062 346.875 413.734375 C 346.886719 413.585938 346.898438 413.4375 346.917969 413.289062 C 346.929688 413.214844 346.941406 413.144531 346.957031 413.074219 C 346.980469 412.9375 347.003906 412.800781 347.039062 412.664062 C 347.054688 412.585938 347.078125 412.511719 347.101562 412.433594 C 347.136719 412.308594 347.175781 412.179688 347.21875 412.054688 C 347.246094 411.980469 347.277344 411.902344 347.304688 411.828125 C 347.355469 411.707031 347.40625 411.582031 347.460938 411.460938 C 347.492188 411.398438 347.523438 411.335938 347.554688 411.273438 C 347.609375 411.171875 347.65625 411.070312 347.710938 410.96875 L 393.824219 331.097656 L 365.273438 331.097656 C 361.722656 331.097656 358.847656 328.222656 358.847656 324.671875 C 358.847656 321.121094 361.722656 318.246094 365.273438 318.246094 L 399.75 318.246094 C 400.234375 318.246094 400.703125 318.300781 401.152344 318.402344 L 466.390625 205.410156 C 466.398438 205.390625 466.40625 205.371094 466.417969 205.355469 Z M 362.058594 411.832031 L 402.472656 435.171875 L 514.753906 240.691406 L 474.339844 217.351562 Z M 357.304688 466.738281 L 392.464844 444.230469 L 359.214844 425.03125 L 359.105469 427.40625 C 359.105469 427.421875 359.109375 427.4375 359.109375 427.449219 C 359.109375 427.679688 359.097656 427.902344 359.074219 428.121094 L 357.300781 466.734375 Z M 480.765625 206.21875 L 521.183594 229.558594 L 537.363281 201.527344 L 496.949219 178.191406 Z M 480.765625 206.21875 " fill-opacity="1" fill-rule="nonzero"/></g></svg>