<svg xmlns="http://www.w3.org/2000/svg" xmlns:xlink="http://www.w3.org/1999/xlink" width="1080" zoomAndPan="magnify" viewBox="0 0 810 809.999993" height="1080" preserveAspectRatio="xMidYMid meet" version="1.0"><defs><filter x="0%" y="0%" width="100%" height="100%" id="9a056ef928"><feColorMatrix values="0 0 0 0 1 0 0 0 0 1 0 0 0 0 1 0 0 0 1 0" color-interpolation-filters="sRGB"/></filter><clipPath id="4e1246f17b"><path d="M 105.261719 56.214844 L 704.511719 56.214844 L 704.511719 753.710938 L 105.261719 753.710938 Z M 105.261719 56.214844 " clip-rule="nonzero"/></clipPath><clipPath id="4082c3af7b"><path d="M 404.996094 56.214844 L 704.734375 230.605469 L 704.734375 579.390625 L 404.996094 753.78125 L 105.261719 579.390625 L 105.261719 230.605469 Z M 404.996094 56.214844 " clip-rule="nonzero"/></clipPath><mask id="d680605058"><g filter="url(#9a056ef928)"><rect x="-81" width="972" fill="#000000" y="-80.999999" height="971.999992" fill-opacity="0.2"/></g></mask><clipPath id="6c3603a2e9"><path d="M 4 6 L 389.441406 6 L 389.441406 283 L 4 283 Z M 4 6 " clip-rule="nonzero"/></clipPath><clipPath id="455ea9f1b7"><rect x="0" width="390" y="0" height="284"/></clipPath></defs><g clip-path="url(#4e1246f17b)"><g clip-path="url(#4082c3af7b)"><path stroke-linecap="butt" transform="matrix(0.75, 0, 0, 0.75, 105.260439, 56.212176)" fill="none" stroke-linejoin="miter" d="M 399.647585 0.0035565 L 799.298673 232.524416 L 799.298673 697.571345 L 399.647585 930.092204 L 0.00170633 697.571345 L 0.00170633 232.524416 Z M 399.647585 0.0035565 " stroke="#ffffff" stroke-width="100" stroke-opacity="1" stroke-miterlimit="4"/></g></g><path fill="#ffffff" d="M 408.292969 508.730469 C 408.269531 510.210938 408.078125 511.667969 407.71875 513.101562 C 407.359375 514.535156 406.84375 515.910156 406.171875 517.226562 C 405.496094 518.542969 404.683594 519.765625 403.730469 520.898438 C 402.777344 522.027344 401.707031 523.035156 400.523438 523.917969 L 395.082031 528.226562 C 393.804688 529.253906 392.34375 529.773438 390.703125 529.78125 C 389.972656 529.777344 389.261719 529.664062 388.566406 529.4375 C 387.875 529.214844 387.230469 528.886719 386.636719 528.464844 C 386.042969 528.039062 385.527344 527.535156 385.089844 526.953125 C 384.652344 526.367188 384.3125 525.730469 384.074219 525.042969 C 383.832031 524.351562 383.703125 523.644531 383.683594 522.914062 C 383.664062 522.183594 383.753906 521.46875 383.957031 520.769531 C 384.15625 520.066406 384.460938 519.410156 384.863281 518.804688 C 385.269531 518.195312 385.753906 517.664062 386.324219 517.207031 L 391.761719 512.898438 C 392.511719 512.472656 393.097656 511.886719 393.53125 511.140625 C 393.960938 510.394531 394.179688 509.59375 394.179688 508.730469 C 394.179688 507.871094 393.960938 507.066406 393.53125 506.324219 C 393.097656 505.578125 392.511719 504.992188 391.761719 504.5625 L 386.324219 500.253906 C 385.917969 499.984375 385.542969 499.675781 385.199219 499.328125 C 384.855469 498.976562 384.550781 498.597656 384.289062 498.1875 C 384.023438 497.773438 383.804688 497.339844 383.632812 496.882812 C 383.457031 496.425781 383.332031 495.957031 383.257812 495.472656 C 383.179688 494.988281 383.15625 494.503906 383.179688 494.015625 C 383.203125 493.527344 383.28125 493.046875 383.402344 492.574219 C 383.527344 492.101562 383.699219 491.644531 383.921875 491.207031 C 384.140625 490.769531 384.402344 490.359375 384.707031 489.976562 C 385.007812 489.59375 385.351562 489.246094 385.726562 488.933594 C 386.101562 488.621094 386.507812 488.351562 386.941406 488.125 C 387.371094 487.898438 387.824219 487.714844 388.292969 487.582031 C 388.765625 487.445312 389.242188 487.363281 389.730469 487.328125 C 390.21875 487.292969 390.707031 487.308594 391.191406 487.375 C 391.675781 487.441406 392.148438 487.554688 392.609375 487.71875 C 393.070312 487.882812 393.507812 488.09375 393.925781 488.347656 C 394.339844 488.605469 394.726562 488.902344 395.082031 489.234375 L 400.523438 493.546875 C 401.707031 494.429688 402.777344 495.4375 403.730469 496.566406 C 404.683594 497.695312 405.496094 498.921875 406.171875 500.234375 C 406.84375 501.550781 407.359375 502.929688 407.71875 504.363281 C 408.078125 505.796875 408.269531 507.253906 408.292969 508.730469 Z M 372.972656 501.667969 L 358.070312 501.667969 C 357.609375 501.640625 357.148438 501.65625 356.691406 501.71875 C 356.234375 501.777344 355.785156 501.882812 355.347656 502.03125 C 354.910156 502.183594 354.492188 502.371094 354.09375 502.605469 C 353.691406 502.835938 353.320312 503.105469 352.972656 503.410156 C 352.625 503.714844 352.308594 504.046875 352.027344 504.414062 C 351.746094 504.78125 351.503906 505.171875 351.296875 505.585938 C 351.09375 506 350.929688 506.429688 350.808594 506.875 C 350.691406 507.324219 350.613281 507.777344 350.582031 508.238281 C 350.546875 508.703125 350.5625 509.164062 350.617188 509.625 C 350.675781 510.085938 350.777344 510.539062 350.925781 510.980469 C 351.074219 511.421875 351.261719 511.84375 351.492188 512.25 C 351.722656 512.652344 351.992188 513.03125 352.296875 513.382812 C 352.601562 513.734375 352.9375 514.050781 353.304688 514.335938 C 353.675781 514.621094 354.066406 514.867188 354.484375 515.074219 C 354.898438 515.28125 355.332031 515.445312 355.78125 515.566406 C 356.230469 515.6875 356.6875 515.765625 357.152344 515.796875 L 372.832031 515.796875 C 373.296875 515.796875 373.757812 515.75 374.210938 515.660156 C 374.664062 515.570312 375.109375 515.433594 375.535156 515.257812 C 375.964844 515.082031 376.371094 514.863281 376.757812 514.605469 C 377.144531 514.347656 377.5 514.054688 377.828125 513.726562 C 378.15625 513.398438 378.449219 513.042969 378.707031 512.65625 C 378.964844 512.269531 379.179688 511.863281 379.359375 511.433594 C 379.535156 511.007812 379.671875 510.566406 379.761719 510.109375 C 379.851562 509.65625 379.894531 509.195312 379.894531 508.730469 C 379.894531 508.269531 379.851562 507.808594 379.761719 507.355469 C 379.671875 506.898438 379.535156 506.457031 379.359375 506.027344 C 379.179688 505.601562 378.964844 505.191406 378.707031 504.808594 C 378.449219 504.421875 378.15625 504.066406 377.828125 503.738281 C 377.5 503.410156 377.144531 503.117188 376.757812 502.859375 C 376.371094 502.601562 375.964844 502.382812 375.535156 502.207031 C 375.109375 502.027344 374.664062 501.894531 374.210938 501.804688 C 373.757812 501.714844 373.296875 501.667969 372.832031 501.667969 Z M 325.082031 468.75 C 325.082031 467.972656 325.082031 467.199219 325.082031 466.351562 L 325.082031 453.988281 C 325.082031 453.523438 325.039062 453.066406 324.945312 452.609375 C 324.855469 452.15625 324.722656 451.714844 324.542969 451.285156 C 324.367188 450.855469 324.148438 450.449219 323.890625 450.0625 C 323.632812 449.679688 323.339844 449.320312 323.011719 448.992188 C 322.6875 448.664062 322.328125 448.371094 321.941406 448.117188 C 321.558594 447.859375 321.152344 447.640625 320.722656 447.460938 C 320.292969 447.285156 319.851562 447.152344 319.398438 447.0625 C 318.941406 446.96875 318.484375 446.925781 318.019531 446.925781 C 317.554688 446.925781 317.09375 446.96875 316.640625 447.0625 C 316.1875 447.152344 315.746094 447.285156 315.316406 447.460938 C 314.886719 447.640625 314.480469 447.859375 314.09375 448.117188 C 313.707031 448.371094 313.351562 448.664062 313.023438 448.992188 C 312.695312 449.320312 312.402344 449.679688 312.144531 450.0625 C 311.886719 450.449219 311.671875 450.855469 311.492188 451.285156 C 311.316406 451.714844 311.179688 452.15625 311.089844 452.609375 C 311 453.066406 310.957031 453.523438 310.957031 453.988281 L 310.957031 466.351562 C 310.957031 467.480469 310.957031 468.609375 310.957031 469.742188 C 310.984375 470.183594 311.058594 470.617188 311.171875 471.046875 C 311.285156 471.476562 311.4375 471.890625 311.628906 472.292969 C 311.820312 472.691406 312.046875 473.070312 312.308594 473.429688 C 312.574219 473.785156 312.867188 474.117188 313.191406 474.417969 C 313.515625 474.722656 313.867188 474.988281 314.242188 475.226562 C 314.617188 475.460938 315.011719 475.660156 315.425781 475.824219 C 315.839844 475.984375 316.261719 476.105469 316.699219 476.1875 C 317.136719 476.269531 317.574219 476.3125 318.019531 476.308594 L 318.511719 476.308594 C 318.976562 476.277344 319.433594 476.203125 319.882812 476.082031 C 320.332031 475.957031 320.765625 475.792969 321.183594 475.585938 C 321.597656 475.378906 321.992188 475.132812 322.359375 474.847656 C 322.726562 474.566406 323.0625 474.246094 323.367188 473.894531 C 323.675781 473.542969 323.941406 473.167969 324.171875 472.761719 C 324.402344 472.359375 324.589844 471.9375 324.738281 471.496094 C 324.886719 471.054688 324.988281 470.601562 325.046875 470.140625 C 325.105469 469.679688 325.117188 469.214844 325.082031 468.75 Z M 318.019531 438.09375 C 318.484375 438.09375 318.941406 438.050781 319.398438 437.960938 C 319.851562 437.867188 320.292969 437.734375 320.722656 437.558594 C 321.152344 437.378906 321.558594 437.164062 321.941406 436.90625 C 322.328125 436.648438 322.6875 436.355469 323.011719 436.027344 C 323.339844 435.699219 323.632812 435.339844 323.890625 434.957031 C 324.148438 434.570312 324.367188 434.164062 324.542969 433.734375 C 324.722656 433.304688 324.855469 432.863281 324.945312 432.410156 C 325.039062 431.953125 325.082031 431.496094 325.082031 431.03125 L 325.082031 416.90625 C 325.082031 416.441406 325.039062 415.980469 324.945312 415.527344 C 324.855469 415.070312 324.722656 414.628906 324.542969 414.199219 C 324.367188 413.773438 324.148438 413.367188 323.890625 412.980469 C 323.632812 412.59375 323.339844 412.238281 323.011719 411.910156 C 322.6875 411.582031 322.328125 411.289062 321.941406 411.03125 C 321.558594 410.773438 321.152344 410.554688 320.722656 410.378906 C 320.292969 410.199219 319.851562 410.066406 319.398438 409.976562 C 318.941406 409.886719 318.484375 409.839844 318.019531 409.839844 C 317.554688 409.839844 317.09375 409.886719 316.640625 409.976562 C 316.1875 410.066406 315.746094 410.199219 315.316406 410.378906 C 314.886719 410.554688 314.480469 410.773438 314.09375 411.03125 C 313.707031 411.289062 313.351562 411.582031 313.023438 411.910156 C 312.695312 412.238281 312.402344 412.59375 312.144531 412.980469 C 311.886719 413.367188 311.671875 413.773438 311.492188 414.199219 C 311.316406 414.628906 311.179688 415.070312 311.089844 415.527344 C 311 415.980469 310.957031 416.441406 310.957031 416.90625 L 310.957031 431.03125 C 310.957031 431.496094 311 431.953125 311.089844 432.410156 C 311.179688 432.863281 311.316406 433.304688 311.492188 433.734375 C 311.671875 434.164062 311.886719 434.570312 312.144531 434.957031 C 312.402344 435.339844 312.695312 435.699219 313.023438 436.027344 C 313.351562 436.355469 313.707031 436.648438 314.09375 436.90625 C 314.480469 437.164062 314.886719 437.378906 315.316406 437.558594 C 315.746094 437.734375 316.1875 437.867188 316.640625 437.960938 C 317.09375 438.050781 317.554688 438.09375 318.019531 438.09375 Z M 331.367188 486.480469 C 331.101562 486.101562 330.800781 485.75 330.464844 485.429688 C 330.128906 485.109375 329.765625 484.824219 329.375 484.574219 C 328.980469 484.324219 328.570312 484.117188 328.136719 483.949219 C 327.703125 483.78125 327.257812 483.65625 326.800781 483.574219 C 326.34375 483.496094 325.882812 483.460938 325.417969 483.46875 C 324.953125 483.480469 324.496094 483.535156 324.042969 483.636719 C 323.585938 483.738281 323.148438 483.882812 322.722656 484.070312 C 322.296875 484.257812 321.894531 484.484375 321.515625 484.75 C 321.136719 485.015625 320.785156 485.320312 320.464844 485.65625 C 320.140625 485.988281 319.855469 486.355469 319.609375 486.746094 C 319.359375 487.136719 319.148438 487.550781 318.980469 487.984375 C 318.8125 488.417969 318.691406 488.863281 318.609375 489.320312 C 318.527344 489.777344 318.492188 490.238281 318.503906 490.703125 C 318.515625 491.167969 318.570312 491.625 318.671875 492.078125 C 318.773438 492.53125 318.917969 492.972656 319.105469 493.398438 C 319.292969 493.820312 319.519531 494.222656 319.785156 494.605469 C 323.160156 499.492188 327.277344 503.636719 332.144531 507.035156 C 332.527344 507.273438 332.925781 507.472656 333.34375 507.632812 C 333.765625 507.792969 334.195312 507.910156 334.636719 507.988281 C 335.078125 508.066406 335.523438 508.105469 335.96875 508.097656 C 336.417969 508.089844 336.863281 508.042969 337.300781 507.953125 C 337.742188 507.863281 338.167969 507.730469 338.582031 507.558594 C 338.996094 507.386719 339.390625 507.175781 339.761719 506.929688 C 340.136719 506.683594 340.484375 506.402344 340.804688 506.089844 C 341.125 505.777344 341.414062 505.433594 341.671875 505.066406 C 341.925781 504.699219 342.144531 504.308594 342.328125 503.898438 C 342.507812 503.488281 342.652344 503.066406 342.753906 502.628906 C 342.851562 502.191406 342.914062 501.75 342.929688 501.300781 C 342.945312 500.855469 342.921875 500.410156 342.851562 499.964844 C 342.785156 499.523438 342.675781 499.089844 342.527344 498.667969 C 342.375 498.246094 342.1875 497.839844 341.960938 497.453125 C 341.730469 497.066406 341.46875 496.707031 341.175781 496.371094 C 340.878906 496.03125 340.554688 495.726562 340.199219 495.453125 C 336.726562 492.984375 333.78125 489.992188 331.367188 486.480469 Z M 572.3125 373.460938 L 572.3125 530.984375 C 572.308594 531.839844 572.226562 532.691406 572.058594 533.53125 C 571.890625 534.375 571.644531 535.191406 571.316406 535.984375 C 570.988281 536.777344 570.585938 537.527344 570.109375 538.242188 C 569.632812 538.957031 569.089844 539.617188 568.484375 540.222656 C 567.875 540.828125 567.214844 541.371094 566.503906 541.847656 C 565.789062 542.324219 565.035156 542.726562 564.242188 543.054688 C 563.449219 543.382812 562.632812 543.632812 561.792969 543.800781 C 560.949219 543.964844 560.101562 544.050781 559.242188 544.050781 L 458.234375 544.050781 C 457.375 544.050781 456.523438 543.964844 455.683594 543.800781 C 454.839844 543.632812 454.023438 543.382812 453.230469 543.054688 C 452.4375 542.726562 451.6875 542.324219 450.972656 541.847656 C 450.257812 541.371094 449.597656 540.828125 448.992188 540.222656 C 448.386719 539.617188 447.84375 538.957031 447.367188 538.242188 C 446.890625 537.527344 446.488281 536.777344 446.160156 535.984375 C 445.832031 535.191406 445.582031 534.375 445.414062 533.53125 C 445.25 532.691406 445.164062 531.839844 445.164062 530.984375 L 445.164062 373.460938 C 445.164062 372.605469 445.25 371.753906 445.414062 370.914062 C 445.582031 370.070312 445.832031 369.253906 446.160156 368.460938 C 446.488281 367.667969 446.890625 366.917969 447.367188 366.203125 C 447.84375 365.488281 448.386719 364.828125 448.992188 364.222656 C 449.597656 363.617188 450.257812 363.074219 450.972656 362.597656 C 451.6875 362.121094 452.4375 361.71875 453.230469 361.390625 C 454.023438 361.0625 454.839844 360.8125 455.683594 360.644531 C 456.523438 360.480469 457.375 360.394531 458.234375 360.394531 L 559.242188 360.394531 C 560.101562 360.394531 560.949219 360.480469 561.792969 360.644531 C 562.632812 360.8125 563.449219 361.0625 564.242188 361.390625 C 565.035156 361.71875 565.789062 362.121094 566.503906 362.597656 C 567.214844 363.074219 567.875 363.617188 568.484375 364.222656 C 569.089844 364.828125 569.632812 365.488281 570.109375 366.203125 C 570.585938 366.917969 570.988281 367.667969 571.316406 368.460938 C 571.644531 369.253906 571.890625 370.070312 572.058594 370.914062 C 572.226562 371.753906 572.308594 372.605469 572.3125 373.460938 Z M 565.246094 373.460938 C 565.246094 373.070312 565.207031 372.679688 565.132812 372.292969 C 565.054688 371.90625 564.941406 371.53125 564.789062 371.164062 C 564.640625 370.800781 564.453125 370.453125 564.234375 370.128906 C 564.015625 369.800781 563.765625 369.496094 563.488281 369.21875 C 563.210938 368.9375 562.90625 368.691406 562.578125 368.46875 C 562.25 368.25 561.90625 368.066406 561.539062 367.914062 C 561.175781 367.765625 560.800781 367.652344 560.414062 367.574219 C 560.027344 367.496094 559.636719 367.457031 559.242188 367.457031 L 458.234375 367.457031 C 457.839844 367.457031 457.449219 367.496094 457.0625 367.574219 C 456.675781 367.652344 456.300781 367.765625 455.933594 367.914062 C 455.570312 368.066406 455.222656 368.25 454.898438 368.46875 C 454.570312 368.691406 454.265625 368.9375 453.988281 369.21875 C 453.707031 369.496094 453.460938 369.800781 453.238281 370.128906 C 453.019531 370.453125 452.835938 370.800781 452.683594 371.164062 C 452.535156 371.53125 452.421875 371.90625 452.34375 372.292969 C 452.265625 372.679688 452.226562 373.070312 452.226562 373.460938 L 452.226562 530.984375 C 452.226562 531.375 452.265625 531.765625 452.34375 532.152344 C 452.421875 532.539062 452.535156 532.914062 452.683594 533.28125 C 452.835938 533.644531 453.019531 533.992188 453.238281 534.316406 C 453.460938 534.644531 453.707031 534.949219 453.988281 535.226562 C 454.265625 535.507812 454.570312 535.753906 454.898438 535.976562 C 455.222656 536.195312 455.570312 536.378906 455.933594 536.53125 C 456.300781 536.679688 456.675781 536.792969 457.0625 536.871094 C 457.449219 536.949219 457.839844 536.988281 458.234375 536.988281 L 559.242188 536.988281 C 559.636719 536.988281 560.027344 536.949219 560.414062 536.871094 C 560.800781 536.792969 561.175781 536.679688 561.539062 536.53125 C 561.90625 536.378906 562.25 536.195312 562.578125 535.976562 C 562.90625 535.753906 563.210938 535.507812 563.488281 535.226562 C 563.765625 534.949219 564.015625 534.644531 564.234375 534.316406 C 564.453125 533.992188 564.640625 533.644531 564.789062 533.28125 C 564.941406 532.914062 565.054688 532.539062 565.132812 532.152344 C 565.207031 531.765625 565.246094 531.375 565.246094 530.984375 Z M 521.453125 451.585938 C 521.28125 451.765625 521.195312 451.976562 521.195312 452.222656 C 521.195312 452.46875 521.28125 452.679688 521.453125 452.859375 L 537.34375 468.820312 C 538.1875 469.640625 538.816406 470.597656 539.222656 471.703125 C 539.632812 472.804688 539.785156 473.9375 539.675781 475.109375 C 539.59375 476.261719 539.277344 477.339844 538.71875 478.351562 C 538.164062 479.363281 537.425781 480.214844 536.496094 480.902344 C 533.691406 482.925781 530.652344 484.503906 527.378906 485.632812 C 524.109375 486.765625 520.742188 487.398438 517.285156 487.539062 L 515.800781 487.539062 C 514.644531 487.539062 513.492188 487.484375 512.339844 487.371094 C 511.1875 487.257812 510.046875 487.089844 508.910156 486.863281 C 507.777344 486.636719 506.65625 486.355469 505.550781 486.019531 C 504.441406 485.683594 503.355469 485.296875 502.285156 484.851562 C 501.21875 484.410156 500.171875 483.914062 499.152344 483.371094 C 498.132812 482.824219 497.140625 482.230469 496.179688 481.589844 C 495.21875 480.945312 494.289062 480.257812 493.394531 479.523438 C 492.5 478.789062 491.644531 478.015625 490.828125 477.195312 C 490.007812 476.378906 489.234375 475.523438 488.5 474.628906 C 487.765625 473.734375 487.078125 472.804688 486.433594 471.84375 C 485.792969 470.882812 485.199219 469.890625 484.652344 468.871094 C 484.109375 467.851562 483.613281 466.808594 483.171875 465.738281 C 482.730469 464.667969 482.339844 463.582031 482.003906 462.476562 C 481.667969 461.367188 481.386719 460.246094 481.160156 459.113281 C 480.9375 457.976562 480.765625 456.835938 480.652344 455.683594 C 480.539062 454.535156 480.484375 453.378906 480.484375 452.222656 C 480.484375 451.066406 480.539062 449.910156 480.652344 448.761719 C 480.765625 447.609375 480.9375 446.46875 481.160156 445.332031 C 481.386719 444.199219 481.667969 443.078125 482.003906 441.96875 C 482.339844 440.863281 482.730469 439.777344 483.171875 438.707031 C 483.613281 437.636719 484.109375 436.59375 484.652344 435.574219 C 485.199219 434.554688 485.792969 433.5625 486.433594 432.601562 C 487.078125 431.640625 487.765625 430.710938 488.5 429.816406 C 489.234375 428.921875 490.007812 428.066406 490.828125 427.25 C 491.644531 426.429688 492.5 425.65625 493.394531 424.921875 C 494.289062 424.1875 495.21875 423.5 496.179688 422.855469 C 497.140625 422.214844 498.132812 421.621094 499.152344 421.074219 C 500.171875 420.53125 501.21875 420.035156 502.285156 419.59375 C 503.355469 419.148438 504.441406 418.761719 505.550781 418.425781 C 506.65625 418.089844 507.777344 417.808594 508.910156 417.582031 C 510.046875 417.355469 511.1875 417.1875 512.339844 417.074219 C 513.492188 416.960938 514.644531 416.90625 515.800781 416.90625 C 519.503906 416.882812 523.121094 417.4375 526.644531 418.570312 C 530.171875 419.707031 533.433594 421.363281 536.425781 423.542969 C 537.371094 424.222656 538.128906 425.066406 538.695312 426.078125 C 539.265625 427.09375 539.589844 428.179688 539.675781 429.335938 C 539.777344 430.515625 539.625 431.664062 539.21875 432.773438 C 538.8125 433.886719 538.1875 434.859375 537.34375 435.695312 Z M 516.4375 446.570312 L 532.332031 431.03125 C 532.441406 430.773438 532.441406 430.515625 532.332031 430.253906 C 532.324219 429.980469 532.207031 429.769531 531.976562 429.617188 C 529.636719 427.863281 527.089844 426.503906 524.328125 425.539062 C 521.566406 424.574219 518.726562 424.050781 515.800781 423.96875 C 514.417969 423.992188 513.042969 424.113281 511.675781 424.339844 C 510.308594 424.566406 508.96875 424.886719 507.648438 425.3125 C 506.332031 425.734375 505.050781 426.25 503.808594 426.859375 C 502.566406 427.46875 501.375 428.167969 500.234375 428.953125 C 499.09375 429.738281 498.019531 430.605469 497.007812 431.546875 C 495.992188 432.492188 495.054688 433.503906 494.191406 434.585938 C 493.328125 435.667969 492.546875 436.804688 491.851562 438.003906 C 491.152344 439.199219 490.546875 440.441406 490.035156 441.726562 C 489.519531 443.011719 489.101562 444.328125 488.78125 445.671875 C 488.460938 447.019531 488.242188 448.382812 488.121094 449.761719 C 488 451.140625 487.980469 452.519531 488.0625 453.902344 C 488.148438 455.285156 488.328125 456.652344 488.613281 458.007812 C 488.898438 459.363281 489.277344 460.691406 489.757812 461.988281 C 490.234375 463.289062 490.804688 464.546875 491.46875 465.761719 C 492.132812 466.976562 492.882812 468.136719 493.714844 469.238281 C 494.550781 470.34375 495.460938 471.382812 496.445312 472.355469 C 497.023438 472.933594 497.625 473.488281 498.25 474.011719 C 498.875 474.539062 499.523438 475.035156 500.191406 475.503906 C 500.859375 475.972656 501.550781 476.414062 502.257812 476.820312 C 502.964844 477.226562 503.691406 477.601562 504.433594 477.945312 C 505.175781 478.289062 505.929688 478.597656 506.699219 478.875 C 507.46875 479.152344 508.25 479.394531 509.039062 479.601562 C 509.828125 479.808594 510.628906 479.980469 511.433594 480.113281 C 512.238281 480.25 513.050781 480.351562 513.863281 480.414062 C 514.679688 480.480469 515.496094 480.507812 516.3125 480.5 C 517.128906 480.492188 517.945312 480.445312 518.757812 480.367188 C 519.570312 480.285156 520.378906 480.167969 521.183594 480.015625 C 521.984375 479.863281 522.78125 479.675781 523.566406 479.453125 C 524.351562 479.230469 525.128906 478.972656 525.890625 478.679688 C 526.65625 478.390625 527.402344 478.0625 528.140625 477.707031 C 528.875 477.347656 529.589844 476.957031 530.289062 476.535156 C 530.992188 476.113281 531.671875 475.660156 532.332031 475.179688 C 532.332031 474.402344 532.332031 474.050781 532.332031 473.765625 L 516.4375 457.875 C 516.066406 457.503906 515.734375 457.097656 515.441406 456.664062 C 515.148438 456.226562 514.902344 455.765625 514.703125 455.28125 C 514.5 454.796875 514.347656 454.296875 514.246094 453.78125 C 514.144531 453.265625 514.09375 452.746094 514.09375 452.222656 C 514.09375 451.699219 514.144531 451.179688 514.246094 450.664062 C 514.347656 450.148438 514.5 449.648438 514.703125 449.164062 C 514.902344 448.679688 515.148438 448.21875 515.441406 447.78125 C 515.734375 447.347656 516.066406 446.941406 516.4375 446.570312 Z M 505.136719 438.09375 C 504.875 438.089844 504.617188 438.113281 504.359375 438.15625 C 504.101562 438.203125 503.851562 438.277344 503.609375 438.371094 C 503.367188 438.46875 503.136719 438.585938 502.917969 438.726562 C 502.699219 438.867188 502.496094 439.03125 502.308594 439.210938 C 502.121094 439.394531 501.953125 439.589844 501.808594 439.804688 C 501.660156 440.019531 501.535156 440.25 501.429688 440.488281 C 501.328125 440.726562 501.25 440.972656 501.195312 441.230469 C 501.140625 441.484375 501.113281 441.742188 501.109375 442.003906 C 501.105469 442.265625 501.128906 442.523438 501.175781 442.777344 C 501.222656 443.035156 501.296875 443.285156 501.394531 443.527344 C 501.492188 443.769531 501.613281 443.996094 501.753906 444.214844 C 501.898438 444.433594 502.058594 444.636719 502.242188 444.820312 C 502.425781 445.007812 502.625 445.175781 502.839844 445.320312 C 503.054688 445.46875 503.28125 445.59375 503.523438 445.695312 C 503.761719 445.796875 504.011719 445.871094 504.265625 445.925781 C 504.523438 445.976562 504.78125 446.003906 505.039062 446.007812 C 505.300781 446.007812 505.558594 445.984375 505.816406 445.933594 C 506.070312 445.882812 506.320312 445.808594 506.5625 445.710938 C 506.804688 445.613281 507.03125 445.492188 507.25 445.347656 C 507.46875 445.203125 507.667969 445.039062 507.851562 444.855469 C 508.039062 444.671875 508.203125 444.472656 508.347656 444.253906 C 508.492188 444.039062 508.617188 443.8125 508.714844 443.570312 C 508.816406 443.328125 508.890625 443.082031 508.945312 442.824219 C 508.996094 442.570312 509.019531 442.3125 509.019531 442.050781 C 509.019531 441.53125 508.921875 441.035156 508.726562 440.554688 C 508.53125 440.074219 508.25 439.648438 507.886719 439.277344 C 507.523438 438.910156 507.105469 438.621094 506.628906 438.417969 C 506.152344 438.210938 505.652344 438.105469 505.136719 438.09375 Z M 522.863281 561.710938 C 522.863281 562.40625 522.796875 563.09375 522.660156 563.777344 C 522.527344 564.457031 522.324219 565.121094 522.058594 565.765625 C 521.792969 566.40625 521.464844 567.015625 521.078125 567.597656 C 520.691406 568.175781 520.253906 568.710938 519.761719 569.203125 C 519.269531 569.695312 518.734375 570.132812 518.15625 570.519531 C 517.578125 570.90625 516.96875 571.230469 516.324219 571.5 C 515.679688 571.765625 515.019531 571.964844 514.335938 572.101562 C 513.652344 572.238281 512.964844 572.304688 512.269531 572.304688 C 511.574219 572.304688 510.882812 572.238281 510.203125 572.101562 C 509.519531 571.964844 508.859375 571.765625 508.214844 571.5 C 507.570312 571.230469 506.960938 570.90625 506.382812 570.519531 C 505.804688 570.132812 505.269531 569.695312 504.777344 569.203125 C 504.285156 568.710938 503.847656 568.175781 503.460938 567.597656 C 503.074219 567.015625 502.746094 566.40625 502.480469 565.765625 C 502.214844 565.121094 502.011719 564.457031 501.878906 563.777344 C 501.742188 563.09375 501.675781 562.40625 501.675781 561.710938 C 501.675781 561.011719 501.742188 560.324219 501.878906 559.640625 C 502.011719 558.960938 502.214844 558.296875 502.480469 557.65625 C 502.746094 557.011719 503.074219 556.402344 503.460938 555.824219 C 503.847656 555.246094 504.285156 554.710938 504.777344 554.21875 C 505.269531 553.726562 505.804688 553.285156 506.382812 552.898438 C 506.960938 552.511719 507.570312 552.1875 508.214844 551.921875 C 508.859375 551.652344 509.519531 551.453125 510.203125 551.316406 C 510.882812 551.183594 511.574219 551.113281 512.269531 551.113281 C 512.964844 551.113281 513.652344 551.183594 514.335938 551.316406 C 515.019531 551.453125 515.679688 551.652344 516.324219 551.921875 C 516.96875 552.1875 517.578125 552.511719 518.15625 552.898438 C 518.734375 553.285156 519.269531 553.726562 519.761719 554.21875 C 520.253906 554.710938 520.691406 555.246094 521.078125 555.824219 C 521.464844 556.402344 521.792969 557.011719 522.058594 557.65625 C 522.324219 558.296875 522.527344 558.960938 522.660156 559.640625 C 522.796875 560.324219 522.863281 561.011719 522.863281 561.710938 Z M 515.800781 561.710938 C 515.800781 561.242188 515.710938 560.789062 515.53125 560.359375 C 515.351562 559.925781 515.097656 559.542969 514.765625 559.210938 C 514.4375 558.878906 514.054688 558.625 513.621094 558.445312 C 513.1875 558.265625 512.738281 558.175781 512.269531 558.175781 C 511.800781 558.175781 511.351562 558.265625 510.917969 558.445312 C 510.484375 558.625 510.101562 558.878906 509.773438 559.210938 C 509.441406 559.542969 509.1875 559.925781 509.007812 560.359375 C 508.828125 560.789062 508.738281 561.242188 508.738281 561.710938 C 508.738281 562.175781 508.828125 562.628906 509.007812 563.0625 C 509.1875 563.492188 509.441406 563.875 509.773438 564.207031 C 510.101562 564.539062 510.484375 564.792969 510.917969 564.972656 C 511.351562 565.152344 511.800781 565.242188 512.269531 565.242188 C 512.738281 565.242188 513.1875 565.152344 513.621094 564.972656 C 514.054688 564.792969 514.4375 564.539062 514.765625 564.207031 C 515.097656 563.875 515.351562 563.492188 515.53125 563.0625 C 515.710938 562.628906 515.800781 562.175781 515.800781 561.710938 Z M 593.5 353.898438 L 593.5 564.675781 C 593.5 565.621094 593.457031 566.5625 593.363281 567.5 C 593.269531 568.441406 593.132812 569.371094 592.949219 570.296875 C 592.761719 571.222656 592.535156 572.140625 592.261719 573.042969 C 591.988281 573.945312 591.667969 574.832031 591.308594 575.703125 C 590.945312 576.578125 590.542969 577.429688 590.097656 578.261719 C 589.652344 579.09375 589.167969 579.902344 588.644531 580.6875 C 588.121094 581.472656 587.558594 582.230469 586.960938 582.960938 C 586.359375 583.6875 585.726562 584.386719 585.058594 585.054688 C 584.394531 585.722656 583.695312 586.355469 582.964844 586.953125 C 582.234375 587.554688 581.476562 588.113281 580.691406 588.640625 C 579.910156 589.164062 579.101562 589.648438 578.265625 590.09375 C 577.433594 590.539062 576.582031 590.941406 575.710938 591.300781 C 574.839844 591.664062 573.949219 591.980469 573.046875 592.253906 C 572.144531 592.527344 571.230469 592.757812 570.304688 592.941406 C 569.378906 593.125 568.445312 593.265625 567.507812 593.355469 C 566.566406 593.449219 565.625 593.496094 564.683594 593.496094 L 452.792969 593.496094 C 451.847656 593.496094 450.90625 593.449219 449.96875 593.355469 C 449.03125 593.265625 448.097656 593.125 447.171875 592.941406 C 446.246094 592.757812 445.332031 592.527344 444.425781 592.253906 C 443.523438 591.980469 442.636719 591.664062 441.765625 591.300781 C 440.894531 590.941406 440.039062 590.539062 439.207031 590.09375 C 438.375 589.648438 437.566406 589.164062 436.78125 588.640625 C 435.996094 588.113281 435.238281 587.554688 434.511719 586.953125 C 433.78125 586.355469 433.082031 585.722656 432.414062 585.054688 C 431.746094 584.386719 431.113281 583.6875 430.515625 582.960938 C 429.917969 582.230469 429.355469 581.472656 428.832031 580.6875 C 428.304688 579.902344 427.820312 579.09375 427.375 578.261719 C 426.933594 577.429688 426.527344 576.578125 426.167969 575.703125 C 425.804688 574.832031 425.488281 573.945312 425.214844 573.042969 C 424.941406 572.140625 424.710938 571.222656 424.527344 570.296875 C 424.34375 569.371094 424.203125 568.441406 424.113281 567.5 C 424.019531 566.5625 423.972656 565.621094 423.972656 564.675781 L 423.972656 402.777344 L 242.933594 402.777344 C 241.804688 402.777344 240.679688 402.746094 239.554688 402.691406 C 238.429688 402.632812 237.304688 402.550781 236.183594 402.4375 C 235.0625 402.328125 233.945312 402.1875 232.832031 402.023438 C 231.714844 401.855469 230.605469 401.664062 229.5 401.441406 C 228.394531 401.222656 227.296875 400.972656 226.203125 400.699219 C 225.113281 400.425781 224.027344 400.125 222.949219 399.796875 C 221.871094 399.46875 220.800781 399.113281 219.738281 398.734375 C 218.679688 398.351562 217.628906 397.949219 216.585938 397.515625 C 215.546875 397.082031 214.515625 396.628906 213.5 396.144531 C 212.480469 395.664062 211.472656 395.15625 210.480469 394.625 C 209.488281 394.09375 208.507812 393.535156 207.539062 392.957031 C 206.574219 392.378906 205.621094 391.773438 204.6875 391.148438 C 203.75 390.523438 202.828125 389.875 201.921875 389.203125 C 201.019531 388.53125 200.132812 387.835938 199.261719 387.121094 C 198.390625 386.40625 197.535156 385.671875 196.703125 384.914062 C 195.867188 384.15625 195.050781 383.382812 194.253906 382.585938 C 193.457031 381.789062 192.679688 380.972656 191.921875 380.136719 C 191.167969 379.300781 190.429688 378.449219 189.714844 377.578125 C 189 376.707031 188.308594 375.820312 187.636719 374.914062 C 186.964844 374.007812 186.316406 373.089844 185.691406 372.152344 C 185.0625 371.214844 184.460938 370.265625 183.882812 369.296875 C 183.300781 368.332031 182.746094 367.351562 182.214844 366.359375 C 181.683594 365.363281 181.175781 364.359375 180.695312 363.339844 C 180.210938 362.320312 179.753906 361.292969 179.324219 360.25 C 178.890625 359.210938 178.484375 358.160156 178.105469 357.097656 C 177.722656 356.039062 177.371094 354.96875 177.042969 353.890625 C 176.714844 352.8125 176.414062 351.726562 176.140625 350.632812 C 175.863281 349.542969 175.617188 348.441406 175.394531 347.335938 C 175.175781 346.234375 174.980469 345.121094 174.816406 344.007812 C 174.648438 342.894531 174.511719 341.777344 174.398438 340.65625 C 174.289062 339.535156 174.203125 338.410156 174.148438 337.285156 C 174.089844 336.160156 174.0625 335.03125 174.0625 333.90625 C 174.0625 332.421875 174.0625 330.867188 174.0625 329.316406 C 174.0625 327.761719 174.0625 326.136719 174.554688 324.582031 C 175.050781 323.027344 174.910156 322.25 175.121094 320.910156 L 175.121094 319.921875 C 175.121094 318.507812 175.757812 317.234375 176.109375 315.894531 C 176.464844 314.550781 176.816406 313.421875 177.3125 311.9375 C 179 307.03125 181.226562 302.378906 183.996094 297.988281 C 186.761719 293.597656 189.996094 289.582031 193.699219 285.945312 C 195.519531 283.957031 197.496094 282.144531 199.632812 280.503906 C 204.140625 276.84375 209.039062 273.816406 214.328125 271.421875 C 219.621094 269.03125 225.128906 267.347656 230.851562 266.378906 C 231.035156 264.078125 231.320312 261.789062 231.714844 259.515625 C 232.105469 257.242188 232.605469 254.992188 233.207031 252.765625 C 233.8125 250.535156 234.515625 248.339844 235.324219 246.179688 C 236.132812 244.019531 237.039062 241.898438 238.046875 239.820312 C 239.050781 237.746094 240.152344 235.71875 241.34375 233.746094 C 242.539062 231.769531 243.824219 229.855469 245.195312 228 C 246.570312 226.144531 248.027344 224.359375 249.566406 222.640625 C 251.105469 220.921875 252.722656 219.277344 254.414062 217.707031 C 256.105469 216.140625 257.867188 214.652344 259.699219 213.25 C 261.53125 211.847656 263.425781 210.53125 265.378906 209.304688 C 267.332031 208.074219 269.339844 206.941406 271.398438 205.902344 C 273.460938 204.863281 275.5625 203.917969 277.710938 203.074219 C 279.859375 202.230469 282.042969 201.488281 284.257812 200.847656 C 286.476562 200.207031 288.71875 199.671875 290.984375 199.238281 C 293.253906 198.808594 295.535156 198.484375 297.832031 198.265625 C 300.128906 198.046875 302.429688 197.933594 304.738281 197.929688 C 313.15625 197.921875 321.324219 199.332031 329.25 202.167969 C 330.714844 199.953125 332.261719 197.800781 333.890625 195.703125 C 335.519531 193.605469 337.226562 191.574219 339.011719 189.609375 C 340.796875 187.644531 342.652344 185.75 344.582031 183.925781 C 346.511719 182.101562 348.507812 180.355469 350.570312 178.683594 C 352.636719 177.015625 354.757812 175.425781 356.945312 173.917969 C 359.128906 172.410156 361.367188 170.988281 363.664062 169.648438 C 365.957031 168.3125 368.296875 167.066406 370.6875 165.910156 C 373.078125 164.75 375.507812 163.6875 377.976562 162.714844 C 380.449219 161.746094 382.953125 160.871094 385.492188 160.089844 C 388.027344 159.308594 390.59375 158.628906 393.183594 158.046875 C 395.773438 157.460938 398.382812 156.976562 401.007812 156.59375 C 403.636719 156.210938 406.273438 155.929688 408.921875 155.746094 C 411.570312 155.566406 414.222656 155.484375 416.878906 155.503906 C 419.53125 155.527344 422.183594 155.648438 424.828125 155.875 C 427.472656 156.097656 430.105469 156.421875 432.726562 156.847656 C 435.347656 157.273438 437.949219 157.800781 440.527344 158.425781 C 443.109375 159.046875 445.660156 159.769531 448.1875 160.589844 C 450.710938 161.410156 453.203125 162.328125 455.65625 163.335938 C 458.113281 164.347656 460.523438 165.453125 462.894531 166.648438 C 465.265625 167.84375 467.585938 169.125 469.859375 170.5 C 472.132812 171.871094 474.347656 173.332031 476.507812 174.875 C 478.667969 176.417969 480.769531 178.039062 482.804688 179.742188 C 484.839844 181.445312 486.808594 183.226562 488.710938 185.078125 C 490.609375 186.933594 492.4375 188.859375 494.1875 190.851562 C 495.941406 192.84375 497.617188 194.902344 499.210938 197.027344 C 500.808594 199.148438 502.320312 201.328125 503.746094 203.566406 C 505.175781 205.804688 506.515625 208.09375 507.769531 210.433594 C 509.023438 212.773438 510.183594 215.160156 511.253906 217.589844 C 512.328125 220.015625 513.304688 222.484375 514.183594 224.988281 C 515.066406 227.492188 515.851562 230.027344 516.539062 232.589844 C 517.226562 235.15625 517.816406 237.742188 518.304688 240.351562 C 518.796875 242.960938 519.183594 245.585938 519.472656 248.222656 L 521.804688 249.070312 C 523.640625 249.707031 525.480469 250.554688 527.316406 251.402344 C 529.980469 252.652344 532.570312 254.039062 535.085938 255.570312 L 538.335938 257.691406 C 543.628906 261.320312 548.417969 265.523438 552.703125 270.300781 C 556.992188 275.074219 560.652344 280.289062 563.691406 285.945312 C 564.683594 287.78125 565.601562 289.757812 566.449219 291.664062 C 569.160156 297.519531 571.117188 303.617188 572.3125 309.960938 C 572.3125 311.65625 572.875 313.703125 573.085938 315.753906 C 573.300781 317.800781 573.085938 320.839844 573.085938 323.3125 C 573.15625 324.347656 573.15625 325.382812 573.085938 326.417969 C 574.554688 326.863281 575.972656 327.421875 577.351562 328.089844 C 578.726562 328.761719 580.039062 329.539062 581.292969 330.417969 C 582.542969 331.300781 583.71875 332.273438 584.816406 333.34375 C 585.910156 334.410156 586.917969 335.558594 587.828125 336.789062 C 588.742188 338.015625 589.550781 339.3125 590.257812 340.667969 C 590.964844 342.027344 591.558594 343.433594 592.042969 344.886719 C 592.523438 346.339844 592.886719 347.820312 593.132812 349.332031 C 593.375 350.84375 593.5 352.367188 593.5 353.898438 Z M 452.792969 325.078125 L 558.75 325.078125 C 558.785156 324.488281 558.785156 323.898438 558.75 323.3125 C 558.75 321.191406 558.75 319.074219 558.75 316.953125 C 558.667969 315.480469 558.480469 314.019531 558.183594 312.574219 C 557.3125 307.277344 555.808594 302.167969 553.664062 297.246094 C 552.886719 295.621094 552.179688 294.066406 551.332031 292.511719 C 548.851562 287.921875 545.871094 283.6875 542.382812 279.808594 C 538.898438 275.925781 535.003906 272.511719 530.707031 269.554688 L 527.738281 267.578125 C 525.726562 266.359375 523.65625 265.25 521.523438 264.257812 C 520.058594 263.519531 518.550781 262.882812 517.003906 262.351562 C 515.660156 261.785156 514.246094 261.292969 512.90625 260.867188 L 512.199219 260.867188 L 510.433594 260.230469 L 506.476562 259.171875 L 505.839844 254.015625 C 505.695312 251.625 505.453125 249.246094 505.113281 246.875 C 504.777344 244.503906 504.347656 242.152344 503.820312 239.816406 C 503.296875 237.480469 502.675781 235.167969 501.96875 232.882812 C 501.257812 230.597656 500.457031 228.339844 499.566406 226.117188 C 498.675781 223.894531 497.699219 221.710938 496.636719 219.566406 C 495.570312 217.421875 494.421875 215.324219 493.191406 213.273438 C 491.957031 211.21875 490.644531 209.21875 489.253906 207.269531 C 487.863281 205.320312 486.394531 203.433594 484.851562 201.601562 C 483.308594 199.769531 481.695312 198.003906 480.011719 196.300781 C 478.328125 194.601562 476.578125 192.96875 474.765625 191.40625 C 472.949219 189.84375 471.074219 188.355469 469.140625 186.945312 C 467.210938 185.53125 465.222656 184.199219 463.183594 182.945312 C 461.144531 181.691406 459.058594 180.519531 456.921875 179.433594 C 454.789062 178.34375 452.617188 177.34375 450.40625 176.429688 C 448.191406 175.515625 445.945312 174.691406 443.667969 173.960938 C 441.386719 173.226562 439.082031 172.582031 436.753906 172.03125 C 434.421875 171.480469 432.074219 171.027344 429.707031 170.664062 C 427.339844 170.300781 424.964844 170.035156 422.574219 169.859375 C 420.1875 169.6875 417.796875 169.609375 415.402344 169.628906 C 413.007812 169.648438 410.617188 169.761719 408.234375 169.972656 C 405.847656 170.179688 403.472656 170.484375 401.113281 170.882812 C 398.753906 171.28125 396.410156 171.773438 394.089844 172.359375 C 391.769531 172.945312 389.472656 173.625 387.207031 174.390625 C 384.9375 175.160156 382.707031 176.019531 380.507812 176.96875 C 378.308594 177.914062 376.152344 178.949219 374.035156 180.066406 C 371.917969 181.1875 369.851562 182.390625 367.828125 183.675781 C 365.808594 184.960938 363.84375 186.324219 361.933594 187.765625 C 360.019531 189.207031 358.171875 190.722656 356.378906 192.3125 C 354.589844 193.902344 352.867188 195.5625 351.207031 197.289062 C 349.550781 199.019531 347.964844 200.808594 346.449219 202.664062 C 344.933594 204.519531 343.496094 206.429688 342.136719 208.398438 C 340.773438 210.367188 339.492188 212.386719 338.292969 214.460938 L 335.113281 219.898438 L 329.320312 217.355469 C 325.460938 215.601562 321.460938 214.277344 317.316406 213.386719 C 313.171875 212.492188 308.980469 212.050781 304.738281 212.058594 C 302.773438 212.058594 300.8125 212.160156 298.855469 212.355469 C 296.898438 212.546875 294.957031 212.839844 293.03125 213.222656 C 291.101562 213.609375 289.199219 214.085938 287.316406 214.660156 C 285.4375 215.230469 283.589844 215.894531 281.773438 216.648438 C 279.957031 217.402344 278.183594 218.242188 276.449219 219.167969 C 274.714844 220.097656 273.03125 221.105469 271.398438 222.199219 C 269.765625 223.292969 268.1875 224.460938 266.667969 225.707031 C 265.148438 226.957031 263.695312 228.273438 262.304688 229.664062 C 260.914062 231.054688 259.59375 232.507812 258.347656 234.027344 C 257.101562 235.546875 255.929688 237.125 254.839844 238.757812 C 253.746094 240.394531 252.734375 242.078125 251.808594 243.808594 C 250.882812 245.542969 250.039062 247.316406 249.289062 249.132812 C 248.535156 250.949219 247.871094 252.796875 247.300781 254.679688 C 246.726562 256.558594 246.25 258.464844 245.863281 260.390625 C 245.476562 262.320312 245.1875 264.261719 244.992188 266.214844 C 244.800781 268.171875 244.699219 270.132812 244.699219 272.097656 L 244.699219 278.597656 L 238.199219 279.445312 C 235.484375 279.667969 232.800781 280.09375 230.148438 280.726562 C 227.5 281.359375 224.914062 282.191406 222.390625 283.222656 C 219.867188 284.253906 217.441406 285.46875 215.105469 286.875 C 212.769531 288.277344 210.554688 289.851562 208.460938 291.59375 C 206.820312 292.761719 205.335938 294.105469 204.011719 295.621094 C 201.035156 298.515625 198.4375 301.71875 196.214844 305.230469 C 193.996094 308.738281 192.214844 312.457031 190.871094 316.386719 C 190.511719 317.40625 190.207031 318.445312 189.953125 319.496094 C 189.53125 320.910156 189.320312 321.757812 189.105469 322.675781 L 189.105469 323.242188 C 189.105469 323.242188 189.105469 323.664062 189.105469 323.875 C 189.105469 324.085938 189.105469 325.5 188.683594 326.558594 C 188.625 327.738281 188.625 328.914062 188.683594 330.09375 C 188.683594 331.363281 188.683594 332.636719 188.683594 333.90625 C 188.683594 335.6875 188.773438 337.464844 188.949219 339.238281 C 189.125 341.011719 189.386719 342.773438 189.734375 344.519531 C 190.082031 346.269531 190.511719 347.996094 191.027344 349.703125 C 191.542969 351.40625 192.140625 353.082031 192.820312 354.730469 C 193.5 356.378906 194.257812 357.988281 195.09375 359.5625 C 195.929688 361.136719 196.839844 362.664062 197.828125 364.152344 C 198.8125 365.636719 199.867188 367.070312 200.992188 368.449219 C 202.117188 369.832031 203.308594 371.15625 204.5625 372.421875 C 205.816406 373.6875 207.128906 374.890625 208.5 376.027344 C 209.871094 377.164062 211.296875 378.234375 212.773438 379.230469 C 214.246094 380.230469 215.769531 381.15625 217.335938 382.007812 C 218.902344 382.855469 220.503906 383.628906 222.144531 384.324219 C 223.785156 385.015625 225.457031 385.628906 227.160156 386.160156 C 228.859375 386.691406 230.582031 387.140625 232.328125 387.503906 C 234.070312 387.867188 235.828125 388.144531 237.601562 388.335938 C 239.375 388.527344 241.148438 388.632812 242.933594 388.648438 L 423.972656 388.648438 L 423.972656 353.898438 C 423.867188 352.53125 423.867188 351.164062 423.972656 349.800781 C 424.097656 348.945312 424.261719 348.097656 424.460938 347.257812 C 424.660156 346.417969 424.898438 345.585938 425.175781 344.769531 C 425.449219 343.949219 425.761719 343.144531 426.109375 342.355469 C 426.453125 341.5625 426.835938 340.789062 427.253906 340.03125 C 427.671875 339.277344 428.121094 338.539062 428.601562 337.824219 C 429.085938 337.105469 429.597656 336.414062 430.144531 335.742188 C 430.6875 335.074219 431.261719 334.429688 431.863281 333.808594 C 432.46875 333.191406 433.097656 332.601562 433.75 332.039062 C 434.40625 331.476562 435.085938 330.945312 435.789062 330.441406 C 436.492188 329.941406 437.21875 329.472656 437.960938 329.035156 C 438.707031 328.597656 439.472656 328.199219 440.253906 327.828125 C 441.035156 327.460938 441.832031 327.128906 442.640625 326.832031 C 443.453125 326.535156 444.277344 326.277344 445.109375 326.054688 C 445.945312 325.832031 446.789062 325.644531 447.640625 325.5 C 448.488281 325.351562 449.347656 325.242188 450.207031 325.171875 C 451.066406 325.101562 451.929688 325.070312 452.792969 325.078125 Z M 579.375 353.898438 C 579.371094 352.933594 579.273438 351.980469 579.082031 351.035156 C 578.890625 350.089844 578.609375 349.175781 578.238281 348.285156 C 577.867188 347.394531 577.414062 346.550781 576.875 345.75 C 576.339844 344.949219 575.730469 344.210938 575.050781 343.527344 C 574.371094 342.847656 573.628906 342.238281 572.828125 341.703125 C 572.027344 341.164062 571.183594 340.710938 570.292969 340.339844 C 569.402344 339.96875 568.488281 339.6875 567.542969 339.496094 C 566.597656 339.308594 565.644531 339.207031 564.683594 339.203125 L 452.792969 339.203125 C 451.828125 339.207031 450.875 339.308594 449.933594 339.496094 C 448.988281 339.6875 448.070312 339.96875 447.183594 340.339844 C 446.292969 340.710938 445.449219 341.164062 444.648438 341.703125 C 443.847656 342.238281 443.105469 342.847656 442.425781 343.527344 C 441.742188 344.210938 441.136719 344.949219 440.597656 345.75 C 440.0625 346.550781 439.609375 347.394531 439.238281 348.285156 C 438.867188 349.175781 438.585938 350.089844 438.394531 351.035156 C 438.203125 351.980469 438.105469 352.933594 438.101562 353.898438 L 438.101562 564.675781 C 438.105469 565.640625 438.203125 566.59375 438.394531 567.539062 C 438.585938 568.480469 438.867188 569.398438 439.238281 570.289062 C 439.609375 571.175781 440.0625 572.023438 440.597656 572.820312 C 441.136719 573.621094 441.742188 574.363281 442.425781 575.042969 C 443.105469 575.726562 443.847656 576.335938 444.648438 576.871094 C 445.449219 577.40625 446.292969 577.859375 447.183594 578.230469 C 448.070312 578.601562 448.988281 578.882812 449.933594 579.074219 C 450.875 579.265625 451.828125 579.363281 452.792969 579.367188 L 564.683594 579.367188 C 565.644531 579.363281 566.597656 579.265625 567.542969 579.074219 C 568.488281 578.882812 569.402344 578.601562 570.292969 578.230469 C 571.183594 577.859375 572.027344 577.40625 572.828125 576.871094 C 573.628906 576.335938 574.371094 575.726562 575.050781 575.042969 C 575.730469 574.363281 576.339844 573.621094 576.875 572.820312 C 577.414062 572.023438 577.867188 571.175781 578.238281 570.289062 C 578.609375 569.398438 578.890625 568.480469 579.082031 567.539062 C 579.273438 566.59375 579.371094 565.640625 579.375 564.675781 Z M 579.375 353.898438 " fill-opacity="1" fill-rule="nonzero"/><g mask="url(#d680605058)"><g transform="matrix(1, 0, 0, 1, 176, 247)"><g clip-path="url(#455ea9f1b7)"><g clip-path="url(#6c3603a2e9)"><path fill="#ffffff" d="M 71.382812 106.332031 C 70.433594 106.328125 69.480469 106.300781 68.535156 106.238281 C 67.585938 106.179688 66.640625 106.089844 65.695312 105.96875 C 64.753906 105.851562 63.816406 105.703125 62.882812 105.527344 C 61.949219 105.347656 61.019531 105.144531 60.097656 104.910156 C 59.179688 104.675781 58.265625 104.410156 57.359375 104.121094 C 56.457031 103.828125 55.5625 103.511719 54.675781 103.164062 C 53.792969 102.816406 52.917969 102.441406 52.054688 102.042969 C 51.195312 101.640625 50.347656 101.214844 49.511719 100.761719 C 48.675781 100.308594 47.855469 99.828125 47.050781 99.324219 C 46.242188 98.820312 45.453125 98.289062 44.679688 97.738281 C 43.910156 97.183594 43.152344 96.609375 42.417969 96.007812 C 41.679688 95.40625 40.960938 94.785156 40.261719 94.140625 C 39.566406 93.496094 38.886719 92.832031 38.230469 92.144531 C 37.574219 91.457031 36.9375 90.75 36.324219 90.023438 C 35.710938 89.300781 35.121094 88.554688 34.554688 87.792969 C 33.984375 87.03125 33.441406 86.25 32.925781 85.453125 C 32.40625 84.65625 31.910156 83.847656 31.441406 83.019531 C 30.972656 82.191406 30.53125 81.351562 30.113281 80.496094 C 29.699219 79.644531 29.308594 78.777344 28.945312 77.898438 C 28.582031 77.019531 28.25 76.132812 27.941406 75.230469 C 27.632812 74.332031 27.351562 73.425781 27.101562 72.507812 C 26.851562 71.589844 26.628906 70.667969 26.433594 69.738281 C 26.238281 68.808594 26.074219 67.871094 25.9375 66.929688 C 25.800781 65.988281 25.695312 65.046875 25.617188 64.097656 C 25.539062 63.152344 25.492188 62.203125 25.472656 61.253906 C 25.457031 60.300781 25.464844 59.351562 25.507812 58.402344 C 25.546875 57.453125 25.617188 56.507812 25.714844 55.5625 C 25.8125 54.617188 25.941406 53.675781 26.097656 52.738281 C 26.257812 51.800781 26.441406 50.867188 26.65625 49.941406 C 26.871094 49.015625 27.117188 48.097656 27.386719 47.1875 C 27.660156 46.277344 27.960938 45.375 28.289062 44.484375 C 28.617188 43.589844 28.972656 42.710938 29.351562 41.839844 C 30.425781 39.363281 31.722656 37.007812 33.238281 34.777344 C 31.082031 36.117188 29.007812 37.574219 27.023438 39.15625 C 25.179688 40.648438 23.4375 42.25 21.796875 43.960938 C 18.574219 47.234375 15.769531 50.832031 13.382812 54.757812 C 10.996094 58.683594 9.089844 62.832031 7.667969 67.199219 C 7.179688 68.449219 6.753906 69.71875 6.398438 71.011719 C 6.046875 72.152344 5.765625 73.304688 5.550781 74.472656 C 5.550781 74.472656 5.550781 74.898438 5.550781 75.179688 C 5.550781 75.464844 5.125 77.582031 4.984375 78.78125 C 4.773438 80.09375 4.632812 81.414062 4.558594 82.738281 C 4.558594 84.152344 4.558594 85.5625 4.558594 86.976562 C 4.5625 88.992188 4.664062 91.003906 4.863281 93.011719 C 5.0625 95.019531 5.359375 97.011719 5.753906 98.992188 C 6.148438 100.96875 6.636719 102.921875 7.222656 104.851562 C 7.808594 106.78125 8.488281 108.679688 9.257812 110.542969 C 10.027344 112.40625 10.890625 114.226562 11.839844 116.007812 C 12.789062 117.785156 13.824219 119.515625 14.941406 121.195312 C 16.0625 122.871094 17.257812 124.492188 18.535156 126.050781 C 19.8125 127.613281 21.164062 129.105469 22.585938 130.535156 C 24.011719 131.964844 25.5 133.320312 27.058594 134.601562 C 28.613281 135.886719 30.230469 137.089844 31.902344 138.214844 C 33.578125 139.339844 35.304688 140.378906 37.078125 141.335938 C 38.855469 142.289062 40.675781 143.15625 42.535156 143.933594 C 44.394531 144.710938 46.289062 145.398438 48.21875 145.988281 C 50.144531 146.582031 52.097656 147.078125 54.074219 147.480469 C 56.050781 147.878906 58.042969 148.183594 60.050781 148.390625 C 62.054688 148.597656 64.066406 148.703125 66.085938 148.714844 L 247.972656 148.714844 L 247.972656 110.429688 C 247.867188 109.0625 247.867188 107.695312 247.972656 106.332031 Z M 389.246094 69.316406 C 389.121094 67.5625 388.882812 65.820312 388.539062 64.089844 C 387.574219 58.300781 385.902344 52.71875 383.523438 47.351562 C 382.75 45.511719 381.902344 43.816406 380.984375 42.121094 C 378.246094 37.035156 374.953125 32.34375 371.09375 28.042969 C 367.238281 23.746094 362.929688 19.960938 358.167969 16.695312 L 354.917969 14.574219 C 352.632812 13.195312 350.277344 11.949219 347.855469 10.832031 L 342.699219 8.640625 L 337.398438 6.875 C 338.957031 8.511719 340.414062 10.230469 341.777344 12.03125 C 343.695312 14.550781 345.398438 17.210938 346.878906 20.011719 C 348.363281 22.8125 349.609375 25.710938 350.617188 28.714844 C 351.628906 31.71875 352.386719 34.78125 352.894531 37.910156 C 353.402344 41.035156 353.652344 44.183594 353.644531 47.351562 C 353.640625 50.421875 353.390625 53.472656 352.890625 56.503906 C 352.394531 59.535156 351.65625 62.503906 350.675781 65.414062 C 349.699219 68.328125 348.492188 71.140625 347.058594 73.859375 C 345.625 76.574219 343.984375 79.15625 342.132812 81.609375 L 389.246094 81.609375 C 389.246094 79.867188 389.246094 78.101562 389.246094 76.3125 C 389.246094 73.980469 389.246094 71.648438 389.246094 69.316406 Z M 378.652344 127.523438 L 286.824219 127.523438 C 286.355469 127.523438 285.90625 127.613281 285.472656 127.792969 C 285.039062 127.96875 284.65625 128.226562 284.328125 128.558594 C 283.996094 128.886719 283.738281 129.269531 283.5625 129.703125 C 283.382812 130.136719 283.292969 130.585938 283.292969 131.054688 L 283.292969 279.390625 C 283.292969 279.859375 283.382812 280.308594 283.5625 280.742188 C 283.738281 281.175781 283.996094 281.558594 284.328125 281.886719 C 284.65625 282.21875 285.039062 282.476562 285.472656 282.652344 C 285.90625 282.832031 286.355469 282.921875 286.824219 282.921875 L 378.652344 282.921875 C 379.121094 282.921875 379.570312 282.832031 380.003906 282.652344 C 380.4375 282.476562 380.816406 282.21875 381.148438 281.886719 C 381.480469 281.558594 381.734375 281.175781 381.914062 280.742188 C 382.09375 280.308594 382.183594 279.859375 382.183594 279.390625 L 382.183594 131.054688 C 382.183594 130.585938 382.09375 130.136719 381.914062 129.703125 C 381.734375 129.269531 381.480469 128.886719 381.148438 128.558594 C 380.816406 128.226562 380.4375 127.96875 380.003906 127.792969 C 379.570312 127.613281 379.121094 127.523438 378.652344 127.523438 Z M 366.359375 216.808594 C 366.746094 217.191406 367.105469 217.59375 367.445312 218.015625 C 367.789062 218.4375 368.105469 218.875 368.398438 219.332031 C 368.691406 219.789062 368.957031 220.257812 369.199219 220.742188 C 369.441406 221.230469 369.65625 221.726562 369.84375 222.234375 C 370.035156 222.742188 370.195312 223.261719 370.328125 223.785156 C 370.460938 224.3125 370.5625 224.84375 370.636719 225.378906 C 370.710938 225.917969 370.757812 226.457031 370.773438 227 C 370.792969 227.539062 370.78125 228.082031 370.738281 228.621094 C 370.695312 229.164062 370.625 229.699219 370.523438 230.230469 C 370.425781 230.765625 370.296875 231.292969 370.140625 231.808594 C 369.984375 232.328125 369.800781 232.839844 369.585938 233.335938 C 369.375 233.835938 369.136719 234.324219 368.875 234.796875 C 368.609375 235.269531 368.320312 235.726562 368.003906 236.167969 C 367.691406 236.613281 367.355469 237.035156 366.996094 237.441406 C 366.636719 237.847656 366.253906 238.230469 365.855469 238.597656 C 365.453125 238.960938 365.03125 239.304688 364.59375 239.621094 C 361.242188 242.078125 357.605469 243.984375 353.679688 245.34375 C 349.757812 246.703125 345.71875 247.457031 341.566406 247.605469 L 339.800781 247.605469 C 338.414062 247.605469 337.027344 247.535156 335.648438 247.402344 C 334.265625 247.265625 332.894531 247.0625 331.53125 246.789062 C 330.171875 246.519531 328.828125 246.183594 327.5 245.78125 C 326.171875 245.375 324.863281 244.910156 323.582031 244.378906 C 322.300781 243.847656 321.046875 243.253906 319.824219 242.601562 C 318.597656 241.945312 317.410156 241.234375 316.253906 240.460938 C 315.101562 239.691406 313.988281 238.863281 312.914062 237.984375 C 311.839844 237.105469 310.8125 236.171875 309.832031 235.191406 C 308.851562 234.210938 307.921875 233.183594 307.039062 232.109375 C 306.160156 231.035156 305.332031 229.921875 304.5625 228.769531 C 303.789062 227.613281 303.078125 226.425781 302.421875 225.203125 C 301.769531 223.976562 301.175781 222.722656 300.644531 221.441406 C 300.113281 220.160156 299.648438 218.855469 299.246094 217.527344 C 298.839844 216.195312 298.503906 214.851562 298.234375 213.492188 C 297.960938 212.128906 297.757812 210.757812 297.625 209.375 C 297.488281 207.996094 297.417969 206.609375 297.417969 205.222656 C 297.417969 203.835938 297.488281 202.449219 297.625 201.070312 C 297.757812 199.6875 297.960938 198.316406 298.234375 196.953125 C 298.503906 195.59375 298.839844 194.25 299.246094 192.917969 C 299.648438 191.589844 300.113281 190.285156 300.644531 189.003906 C 301.175781 187.722656 301.769531 186.46875 302.421875 185.242188 C 303.078125 184.019531 303.789062 182.832031 304.5625 181.675781 C 305.332031 180.523438 306.160156 179.410156 307.039062 178.335938 C 307.921875 177.261719 308.851562 176.234375 309.832031 175.253906 C 310.8125 174.273438 311.839844 173.339844 312.914062 172.460938 C 313.988281 171.582031 315.101562 170.753906 316.253906 169.984375 C 317.410156 169.210938 318.597656 168.5 319.824219 167.84375 C 321.046875 167.191406 322.300781 166.597656 323.582031 166.066406 C 324.863281 165.535156 326.171875 165.070312 327.5 164.664062 C 328.828125 164.261719 330.171875 163.925781 331.53125 163.65625 C 332.894531 163.382812 334.265625 163.179688 335.648438 163.042969 C 337.027344 162.910156 338.414062 162.839844 339.800781 162.839844 C 344.242188 162.824219 348.574219 163.5 352.796875 164.863281 C 357.023438 166.226562 360.933594 168.214844 364.523438 170.824219 C 365.410156 171.453125 366.222656 172.167969 366.949219 172.976562 C 367.679688 173.78125 368.3125 174.660156 368.851562 175.605469 C 369.386719 176.550781 369.816406 177.542969 370.136719 178.585938 C 370.453125 179.625 370.65625 180.6875 370.738281 181.769531 C 370.828125 182.859375 370.796875 183.945312 370.648438 185.027344 C 370.5 186.109375 370.234375 187.164062 369.859375 188.1875 C 369.480469 189.210938 368.996094 190.183594 368.40625 191.101562 C 367.816406 192.023438 367.132812 192.867188 366.359375 193.636719 L 354.777344 205.222656 Z M 366.359375 216.808594 " fill-opacity="1" fill-rule="nonzero"/></g></g></g></g></svg>