<svg xmlns="http://www.w3.org/2000/svg" xmlns:xlink="http://www.w3.org/1999/xlink" width="1080" zoomAndPan="magnify" viewBox="0 0 810 809.999993" height="1080" preserveAspectRatio="xMidYMid meet" version="1.0"><defs><clipPath id="1a32767e0a"><path d="M 105.261719 62 L 704.511719 62 L 704.511719 748 L 105.261719 748 Z M 105.261719 62 " clip-rule="nonzero"/></clipPath><clipPath id="a9126f9775"><path d="M 425.742188 68.28125 L 683.988281 218.535156 C 696.832031 226.007812 704.734375 239.746094 704.734375 254.605469 L 704.734375 555.390625 C 704.734375 570.25 696.832031 583.984375 683.988281 591.457031 L 425.742188 741.710938 C 412.917969 749.171875 397.074219 749.171875 384.253906 741.710938 L 126.003906 591.457031 C 113.160156 583.984375 105.261719 570.25 105.261719 555.390625 L 105.261719 254.605469 C 105.261719 239.746094 113.160156 226.007812 126.003906 218.535156 L 384.253906 68.28125 C 397.074219 60.820312 412.917969 60.820312 425.742188 68.28125 Z M 425.742188 68.28125 " clip-rule="nonzero"/></clipPath><clipPath id="819525328d"><path d="M 229 250 L 611 250 L 611 616.550781 L 229 616.550781 Z M 229 250 " clip-rule="nonzero"/></clipPath><clipPath id="351de6f2d1"><path d="M 176 208.085938 L 634 208.085938 L 634 627.335938 L 176 627.335938 Z M 176 208.085938 " clip-rule="nonzero"/></clipPath></defs><g clip-path="url(#1a32767e0a)"><g clip-path="url(#a9126f9775)"><path stroke-linecap="butt" transform="matrix(0.75, 0, 0, 0.75, 105.260439, 56.212176)" fill="none" stroke-linejoin="miter" d="M 427.309047 16.0921 L 771.637211 216.430665 C 788.762213 226.394207 799.298673 244.711918 799.298673 264.52442 L 799.298673 665.571341 C 799.298673 685.383843 788.762213 703.696345 771.637211 713.659888 L 427.309047 913.998453 C 410.210087 923.94637 389.085084 923.94637 371.991332 913.998453 L 27.657959 713.659888 C 10.532958 703.696345 0.00170633 685.383843 0.00170633 665.571341 L 0.00170633 264.52442 C 0.00170633 244.711918 10.532958 226.394207 27.657959 216.430665 L 371.991332 16.0921 C 389.085084 6.144182 410.210087 6.144182 427.309047 16.0921 Z M 427.309047 16.0921 " stroke="#5bc0ff" stroke-width="30" stroke-opacity="1" stroke-miterlimit="4"/></g></g><g clip-path="url(#819525328d)"><path fill="#2a536d" d="M 419.386719 616.855469 C 415.417969 616.855469 411.453125 615.835938 407.894531 613.789062 C 363.601562 588.328125 325.710938 556.089844 295.273438 517.976562 C 274.957031 492.539062 227.378906 432.964844 229.113281 359.140625 C 229.695312 334.371094 235.890625 312.453125 247.023438 295.75 C 251.890625 288.453125 266.691406 266.253906 296.589844 255.765625 C 317.757812 248.339844 336.53125 250.53125 343.617188 251.820312 C 368.585938 256.355469 383.863281 270.613281 396.136719 282.070312 L 396.4375 282.351562 C 405.359375 290.679688 413.199219 300.082031 419.800781 310.363281 C 426.371094 300.082031 434.1875 290.683594 443.09375 282.355469 L 443.386719 282.082031 C 455.636719 270.625 470.886719 256.367188 495.914062 251.820312 C 503.003906 250.53125 521.773438 248.339844 542.941406 255.765625 C 572.84375 266.253906 587.644531 288.453125 592.507812 295.75 C 600.3125 307.453125 609.753906 327.953125 610.421875 359.152344 C 611.949219 430.796875 564.640625 489.378906 541.902344 517.527344 C 511.601562 555.046875 474.433594 587.328125 431.433594 613.476562 C 427.734375 615.726562 423.558594 616.855469 419.386719 616.855469 Z M 419.386719 616.855469 " fill-opacity="1" fill-rule="nonzero"/></g><g clip-path="url(#351de6f2d1)"><path fill="#5bc0ff" d="M 500.273438 208.121094 C 462.953125 208.121094 429.203125 223.457031 405 248.171875 C 380.78125 223.457031 347.039062 208.121094 309.707031 208.121094 C 236.03125 208.121094 176.3125 267.84375 176.3125 341.519531 C 176.3125 493.976562 405 627.371094 405 627.371094 C 405 627.371094 633.683594 493.976562 633.683594 341.519531 C 633.683594 267.84375 573.957031 208.121094 500.273438 208.121094 Z M 506.960938 527.109375 C 465.449219 565.246094 423.394531 593.355469 405 605.011719 C 386.601562 593.355469 344.539062 565.242188 303.03125 527.109375 C 271.207031 497.871094 245.957031 468.585938 227.972656 440.03125 C 206.335938 405.691406 195.367188 372.550781 195.367188 341.519531 C 195.367188 310.980469 207.257812 282.265625 228.859375 260.671875 C 250.457031 239.070312 279.171875 227.179688 309.710938 227.179688 C 325.355469 227.179688 340.515625 230.277344 354.75 236.390625 C 368.519531 242.300781 380.839844 250.753906 391.375 261.507812 L 405 275.402344 L 418.605469 261.507812 C 429.144531 250.753906 441.46875 242.300781 455.230469 236.390625 C 469.484375 230.277344 484.628906 227.179688 500.273438 227.179688 C 530.828125 227.179688 559.539062 239.070312 581.132812 260.671875 C 602.726562 282.261719 614.617188 310.980469 614.617188 341.519531 C 614.617188 372.546875 603.648438 405.691406 582.011719 440.03125 C 564.035156 468.585938 538.785156 497.871094 506.960938 527.109375 Z M 506.960938 527.109375 " fill-opacity="1" fill-rule="nonzero"/></g><path fill="#5bc0ff" d="M 309.707031 246.230469 C 257.085938 246.230469 214.425781 288.890625 214.425781 341.519531 C 214.425781 343.957031 215.351562 346.398438 217.21875 348.257812 C 220.9375 351.976562 226.964844 351.976562 230.691406 348.257812 C 232.550781 346.398438 233.484375 343.957031 233.484375 341.519531 C 233.484375 321.15625 241.414062 302.011719 255.808594 287.613281 C 270.207031 273.21875 289.351562 265.289062 309.707031 265.289062 C 312.152344 265.289062 314.585938 264.359375 316.449219 262.5 C 320.167969 258.777344 320.167969 252.75 316.449219 249.023438 C 314.585938 247.164062 312.152344 246.230469 309.707031 246.230469 Z M 309.707031 246.230469 " fill-opacity="1" fill-rule="nonzero"/></svg>