<svg xmlns="http://www.w3.org/2000/svg" xmlns:xlink="http://www.w3.org/1999/xlink" width="1080" zoomAndPan="magnify" viewBox="0 0 810 809.999993" height="1080" preserveAspectRatio="xMidYMid meet" version="1.0"><defs><filter x="0%" y="0%" width="100%" height="100%" id="b6b352f966"><feColorMatrix values="0 0 0 0 1 0 0 0 0 1 0 0 0 0 1 0 0 0 1 0" color-interpolation-filters="sRGB"/></filter><clipPath id="af3349734c"><path d="M 105.261719 62 L 704.511719 62 L 704.511719 748 L 105.261719 748 Z M 105.261719 62 " clip-rule="nonzero"/></clipPath><clipPath id="873692c70f"><path d="M 425.742188 68.28125 L 683.988281 218.535156 C 696.832031 226.007812 704.734375 239.746094 704.734375 254.605469 L 704.734375 555.390625 C 704.734375 570.25 696.832031 583.984375 683.988281 591.457031 L 425.742188 741.710938 C 412.917969 749.171875 397.074219 749.171875 384.253906 741.710938 L 126.003906 591.457031 C 113.160156 583.984375 105.261719 570.25 105.261719 555.390625 L 105.261719 254.605469 C 105.261719 239.746094 113.160156 226.007812 126.003906 218.535156 L 384.253906 68.28125 C 397.074219 60.820312 412.917969 60.820312 425.742188 68.28125 Z M 425.742188 68.28125 " clip-rule="nonzero"/></clipPath><clipPath id="f5b05912b5"><path d="M 237 214 L 568 214 L 568 620.210938 L 237 620.210938 Z M 237 214 " clip-rule="nonzero"/></clipPath><mask id="6468bcbcf6"><g filter="url(#b6b352f966)"><rect x="-81" width="972" fill="#000000" y="-80.999999" height="971.999992" fill-opacity="0.15"/></g></mask><clipPath id="643388062b"><path d="M 0.601562 1 L 330.121094 1 L 330.121094 406.210938 L 0.601562 406.210938 Z M 0.601562 1 " clip-rule="nonzero"/></clipPath><clipPath id="fdb717cc17"><rect x="0" width="331" y="0" height="407"/></clipPath><clipPath id="4536074e6a"><path d="M 225.160156 189.710938 L 642.910156 189.710938 L 642.910156 595 L 225.160156 595 Z M 225.160156 189.710938 " clip-rule="nonzero"/></clipPath></defs><g clip-path="url(#af3349734c)"><g clip-path="url(#873692c70f)"><path stroke-linecap="butt" transform="matrix(0.75, 0, 0, 0.75, 105.260439, 56.212176)" fill="none" stroke-linejoin="miter" d="M 427.309047 16.0921 L 771.637211 216.430665 C 788.762213 226.394207 799.298673 244.711918 799.298673 264.52442 L 799.298673 665.571341 C 799.298673 685.383843 788.762213 703.696345 771.637211 713.659888 L 427.309047 913.998453 C 410.210087 923.94637 389.085084 923.94637 371.991332 913.998453 L 27.657959 713.659888 C 10.532958 703.696345 0.00170633 685.383843 0.00170633 665.571341 L 0.00170633 264.52442 C 0.00170633 244.711918 10.532958 226.394207 27.657959 216.430665 L 371.991332 16.0921 C 389.085084 6.144182 410.210087 6.144182 427.309047 16.0921 Z M 427.309047 16.0921 " stroke="#5bc0ff" stroke-width="30" stroke-opacity="1" stroke-miterlimit="4"/></g></g><g clip-path="url(#f5b05912b5)"><g mask="url(#6468bcbcf6)"><g transform="matrix(1, 0, 0, 1, 237, 214)"><g clip-path="url(#fdb717cc17)"><g clip-path="url(#643388062b)"><path fill="#5bc0ff" d="M 0.828125 257.707031 L 0.828125 153.003906 C 0.828125 152.171875 0.910156 151.347656 1.070312 150.53125 C 1.234375 149.714844 1.472656 148.925781 1.792969 148.15625 C 2.109375 147.386719 2.5 146.660156 2.960938 145.96875 C 3.425781 145.277344 3.949219 144.636719 4.539062 144.046875 C 5.125 143.460938 5.765625 142.933594 6.457031 142.472656 C 7.148438 142.011719 7.878906 141.621094 8.644531 141.304688 C 9.414062 140.984375 10.207031 140.746094 11.023438 140.582031 C 11.835938 140.421875 12.660156 140.339844 13.492188 140.339844 L 317.425781 140.339844 C 318.253906 140.339844 319.078125 140.421875 319.894531 140.582031 C 320.710938 140.746094 321.503906 140.984375 322.269531 141.304688 C 323.039062 141.621094 323.769531 142.011719 324.460938 142.472656 C 325.152344 142.933594 325.789062 143.460938 326.378906 144.046875 C 326.96875 144.636719 327.492188 145.277344 327.953125 145.96875 C 328.414062 146.660156 328.804688 147.386719 329.125 148.15625 C 329.441406 148.925781 329.683594 149.714844 329.84375 150.53125 C 330.007812 151.347656 330.089844 152.171875 330.089844 153.003906 L 330.089844 192.515625 C 324.148438 190.105469 318.503906 187.140625 313.148438 183.617188 C 307.796875 180.09375 302.839844 176.082031 298.277344 171.582031 C 297.988281 171.304688 297.679688 171.058594 297.347656 170.84375 C 297.011719 170.625 296.660156 170.441406 296.292969 170.292969 C 295.921875 170.144531 295.542969 170.035156 295.152344 169.957031 C 294.761719 169.882812 294.367188 169.84375 293.972656 169.84375 C 293.574219 169.84375 293.179688 169.882812 292.789062 169.957031 C 292.398438 170.035156 292.019531 170.144531 291.648438 170.292969 C 291.28125 170.441406 290.929688 170.625 290.59375 170.84375 C 290.261719 171.058594 289.953125 171.304688 289.664062 171.582031 C 266.171875 194.402344 235.25 203.9375 203.804688 195.566406 C 203.011719 195.359375 202.214844 195.308594 201.402344 195.414062 C 200.589844 195.519531 199.832031 195.773438 199.117188 196.175781 C 198.417969 196.574219 197.820312 197.097656 197.324219 197.738281 C 196.832031 198.378906 196.480469 199.089844 196.269531 199.871094 C 191.535156 217.71875 189.574219 235.867188 190.394531 254.3125 L 13.492188 254.3125 C 11.269531 254.3125 9.082031 254.597656 6.9375 255.171875 C 4.789062 255.75 2.753906 256.59375 0.828125 257.707031 Z M 0.828125 323.964844 L 0.828125 279.640625 C 0.828125 278.808594 0.910156 277.984375 1.070312 277.171875 C 1.234375 276.355469 1.472656 275.5625 1.792969 274.796875 C 2.109375 274.027344 2.5 273.296875 2.960938 272.605469 C 3.425781 271.914062 3.949219 271.273438 4.539062 270.6875 C 5.125 270.097656 5.765625 269.574219 6.457031 269.113281 C 7.148438 268.648438 7.878906 268.257812 8.644531 267.941406 C 9.414062 267.625 10.207031 267.382812 11.023438 267.222656 C 11.835938 267.058594 12.660156 266.976562 13.492188 266.976562 L 191.394531 266.976562 C 197.953125 324.15625 231.058594 372.898438 277.632812 393.617188 L 89.476562 393.617188 C 89.476562 394.449219 89.394531 395.269531 89.230469 396.085938 C 89.070312 396.902344 88.828125 397.695312 88.511719 398.460938 C 88.191406 399.230469 87.804688 399.960938 87.339844 400.652344 C 86.878906 401.34375 86.355469 401.984375 85.765625 402.570312 C 85.179688 403.160156 84.539062 403.683594 83.847656 404.144531 C 83.15625 404.605469 82.425781 404.996094 81.65625 405.316406 C 80.890625 405.632812 80.097656 405.875 79.28125 406.035156 C 78.464844 406.199219 77.644531 406.28125 76.8125 406.28125 L 38.820312 406.28125 C 37.988281 406.28125 37.164062 406.199219 36.347656 406.035156 C 35.535156 405.875 34.742188 405.632812 33.972656 405.316406 C 33.207031 404.996094 32.476562 404.605469 31.785156 404.144531 C 31.09375 403.683594 30.453125 403.160156 29.867188 402.570312 C 29.277344 401.984375 28.753906 401.34375 28.289062 400.652344 C 27.828125 399.960938 27.4375 399.230469 27.121094 398.460938 C 26.800781 397.695312 26.5625 396.902344 26.398438 396.085938 C 26.238281 395.269531 26.15625 394.449219 26.15625 393.617188 C 25.328125 393.617188 24.5 393.574219 23.671875 393.492188 C 22.847656 393.414062 22.027344 393.289062 21.214844 393.128906 C 20.402344 392.96875 19.597656 392.765625 18.804688 392.523438 C 18.011719 392.285156 17.230469 392.003906 16.464844 391.6875 C 15.699219 391.371094 14.949219 391.015625 14.214844 390.625 C 13.484375 390.234375 12.773438 389.808594 12.085938 389.347656 C 11.394531 388.886719 10.730469 388.394531 10.089844 387.867188 C 9.445312 387.339844 8.832031 386.785156 8.246094 386.199219 C 7.660156 385.609375 7.105469 384.996094 6.578125 384.355469 C 6.050781 383.714844 5.558594 383.050781 5.097656 382.359375 C 4.636719 381.667969 4.210938 380.960938 3.820312 380.226562 C 3.429688 379.496094 3.074219 378.746094 2.757812 377.980469 C 2.4375 377.214844 2.160156 376.433594 1.917969 375.640625 C 1.679688 374.847656 1.476562 374.042969 1.316406 373.230469 C 1.152344 372.414062 1.03125 371.597656 0.949219 370.769531 C 0.867188 369.945312 0.828125 369.117188 0.828125 368.289062 Z M 0.828125 131.070312 L 0.828125 26.363281 C 0.828125 25.535156 0.867188 24.707031 0.949219 23.882812 C 1.03125 23.054688 1.152344 22.238281 1.316406 21.421875 C 1.476562 20.609375 1.679688 19.804688 1.917969 19.011719 C 2.160156 18.21875 2.4375 17.4375 2.757812 16.671875 C 3.074219 15.90625 3.429688 15.15625 3.820312 14.425781 C 4.210938 13.695312 4.636719 12.984375 5.097656 12.292969 C 5.558594 11.605469 6.050781 10.9375 6.578125 10.296875 C 7.105469 9.65625 7.660156 9.042969 8.246094 8.457031 C 8.832031 7.867188 9.445312 7.3125 10.089844 6.785156 C 10.730469 6.261719 11.394531 5.765625 12.085938 5.304688 C 12.773438 4.84375 13.484375 4.417969 14.214844 4.027344 C 14.949219 3.636719 15.699219 3.28125 16.464844 2.964844 C 17.230469 2.648438 18.011719 2.367188 18.804688 2.128906 C 19.597656 1.886719 20.402344 1.683594 21.214844 1.523438 C 22.027344 1.363281 22.847656 1.238281 23.671875 1.160156 C 24.5 1.078125 25.328125 1.035156 26.15625 1.035156 L 304.761719 1.035156 C 305.589844 1.035156 306.417969 1.078125 307.242188 1.160156 C 308.070312 1.238281 308.886719 1.363281 309.703125 1.523438 C 310.515625 1.683594 311.320312 1.886719 312.113281 2.128906 C 312.90625 2.367188 313.6875 2.648438 314.453125 2.964844 C 315.21875 3.28125 315.96875 3.636719 316.699219 4.027344 C 317.429688 4.417969 318.140625 4.84375 318.832031 5.304688 C 319.519531 5.765625 320.1875 6.261719 320.828125 6.785156 C 321.46875 7.3125 322.082031 7.867188 322.667969 8.457031 C 323.257812 9.042969 323.8125 9.65625 324.339844 10.296875 C 324.863281 10.9375 325.359375 11.605469 325.820312 12.292969 C 326.28125 12.984375 326.707031 13.695312 327.097656 14.425781 C 327.488281 15.15625 327.84375 15.90625 328.160156 16.671875 C 328.476562 17.4375 328.757812 18.21875 328.996094 19.011719 C 329.238281 19.804688 329.441406 20.609375 329.601562 21.421875 C 329.761719 22.238281 329.886719 23.054688 329.964844 23.882812 C 330.046875 24.707031 330.089844 25.535156 330.089844 26.363281 L 330.089844 131.070312 C 328.164062 129.953125 326.128906 129.109375 323.980469 128.535156 C 321.832031 127.957031 319.648438 127.671875 317.425781 127.675781 L 13.492188 127.675781 C 11.269531 127.671875 9.082031 127.957031 6.9375 128.535156 C 4.789062 129.109375 2.753906 129.953125 0.828125 131.070312 Z M 318.019531 389.867188 C 316.855469 390.589844 315.613281 391.222656 314.347656 391.742188 C 315.574219 391.132812 316.804688 390.511719 318.019531 389.867188 Z M 45.152344 77.019531 C 45.566406 77.019531 45.980469 76.980469 46.386719 76.898438 C 46.796875 76.816406 47.191406 76.695312 47.574219 76.539062 C 47.960938 76.378906 48.324219 76.183594 48.667969 75.953125 C 49.015625 75.722656 49.335938 75.460938 49.628906 75.164062 C 49.921875 74.871094 50.1875 74.550781 50.417969 74.207031 C 50.648438 73.859375 50.84375 73.496094 51 73.109375 C 51.160156 72.726562 51.28125 72.332031 51.363281 71.921875 C 51.441406 71.515625 51.484375 71.105469 51.484375 70.6875 C 51.484375 70.273438 51.441406 69.859375 51.363281 69.453125 C 51.28125 69.046875 51.160156 68.648438 51 68.265625 C 50.84375 67.878906 50.648438 67.515625 50.417969 67.171875 C 50.1875 66.824219 49.921875 66.503906 49.628906 66.210938 C 49.335938 65.917969 49.015625 65.652344 48.667969 65.421875 C 48.324219 65.191406 47.960938 64.996094 47.574219 64.839844 C 47.191406 64.679688 46.796875 64.558594 46.386719 64.476562 C 45.980469 64.398438 45.566406 64.355469 45.152344 64.355469 C 44.734375 64.355469 44.324219 64.398438 43.917969 64.476562 C 43.507812 64.558594 43.113281 64.679688 42.730469 64.839844 C 42.34375 64.996094 41.980469 65.191406 41.632812 65.421875 C 41.289062 65.652344 40.96875 65.917969 40.675781 66.210938 C 40.378906 66.503906 40.117188 66.824219 39.886719 67.171875 C 39.65625 67.515625 39.460938 67.878906 39.300781 68.265625 C 39.144531 68.648438 39.023438 69.046875 38.941406 69.453125 C 38.859375 69.859375 38.820312 70.273438 38.820312 70.6875 C 38.820312 71.105469 38.859375 71.515625 38.941406 71.921875 C 39.023438 72.332031 39.144531 72.726562 39.300781 73.109375 C 39.460938 73.496094 39.65625 73.859375 39.886719 74.207031 C 40.117188 74.550781 40.378906 74.871094 40.675781 75.164062 C 40.96875 75.460938 41.289062 75.722656 41.632812 75.953125 C 41.980469 76.183594 42.34375 76.378906 42.730469 76.539062 C 43.113281 76.695312 43.507812 76.816406 43.917969 76.898438 C 44.324219 76.980469 44.734375 77.019531 45.152344 77.019531 Z M 45.152344 203.660156 C 45.566406 203.660156 45.980469 203.617188 46.386719 203.535156 C 46.796875 203.457031 47.191406 203.335938 47.574219 203.175781 C 47.960938 203.015625 48.324219 202.820312 48.667969 202.589844 C 49.015625 202.359375 49.335938 202.097656 49.628906 201.804688 C 49.921875 201.507812 50.1875 201.191406 50.417969 200.84375 C 50.648438 200.5 50.84375 200.132812 51 199.75 C 51.160156 199.367188 51.28125 198.96875 51.363281 198.5625 C 51.441406 198.152344 51.484375 197.742188 51.484375 197.328125 C 51.484375 196.910156 51.441406 196.5 51.363281 196.089844 C 51.28125 195.683594 51.160156 195.289062 51 194.902344 C 50.84375 194.519531 50.648438 194.152344 50.417969 193.808594 C 50.1875 193.460938 49.921875 193.144531 49.628906 192.847656 C 49.335938 192.554688 49.015625 192.292969 48.667969 192.0625 C 48.324219 191.832031 47.960938 191.636719 47.574219 191.476562 C 47.191406 191.316406 46.796875 191.195312 46.386719 191.117188 C 45.980469 191.035156 45.566406 190.996094 45.152344 190.996094 C 44.734375 190.996094 44.324219 191.035156 43.917969 191.117188 C 43.507812 191.195312 43.113281 191.316406 42.730469 191.476562 C 42.34375 191.636719 41.980469 191.832031 41.632812 192.0625 C 41.289062 192.292969 40.96875 192.554688 40.675781 192.847656 C 40.378906 193.144531 40.117188 193.460938 39.886719 193.808594 C 39.65625 194.152344 39.460938 194.519531 39.300781 194.902344 C 39.144531 195.289062 39.023438 195.683594 38.941406 196.089844 C 38.859375 196.5 38.820312 196.910156 38.820312 197.328125 C 38.820312 197.742188 38.859375 198.152344 38.941406 198.5625 C 39.023438 198.96875 39.144531 199.367188 39.300781 199.75 C 39.460938 200.132812 39.65625 200.5 39.886719 200.84375 C 40.117188 201.191406 40.378906 201.507812 40.675781 201.804688 C 40.96875 202.097656 41.289062 202.359375 41.632812 202.589844 C 41.980469 202.820312 42.34375 203.015625 42.730469 203.175781 C 43.113281 203.335938 43.507812 203.457031 43.917969 203.535156 C 44.324219 203.617188 44.734375 203.660156 45.152344 203.660156 Z M 95.808594 77.019531 C 96.222656 77.019531 96.632812 76.980469 97.042969 76.898438 C 97.449219 76.816406 97.847656 76.695312 98.230469 76.539062 C 98.613281 76.378906 98.980469 76.183594 99.324219 75.953125 C 99.671875 75.722656 99.992188 75.460938 100.285156 75.164062 C 100.578125 74.871094 100.839844 74.550781 101.070312 74.207031 C 101.304688 73.859375 101.496094 73.496094 101.65625 73.109375 C 101.816406 72.726562 101.9375 72.332031 102.015625 71.921875 C 102.097656 71.515625 102.140625 71.105469 102.140625 70.6875 C 102.140625 70.273438 102.097656 69.859375 102.015625 69.453125 C 101.9375 69.046875 101.816406 68.648438 101.65625 68.265625 C 101.496094 67.878906 101.304688 67.515625 101.070312 67.171875 C 100.839844 66.824219 100.578125 66.503906 100.285156 66.210938 C 99.992188 65.917969 99.671875 65.652344 99.324219 65.421875 C 98.980469 65.191406 98.613281 64.996094 98.230469 64.839844 C 97.847656 64.679688 97.449219 64.558594 97.042969 64.476562 C 96.632812 64.398438 96.222656 64.355469 95.808594 64.355469 C 95.390625 64.355469 94.980469 64.398438 94.570312 64.476562 C 94.164062 64.558594 93.769531 64.679688 93.382812 64.839844 C 93 64.996094 92.636719 65.191406 92.289062 65.421875 C 91.945312 65.652344 91.625 65.917969 91.328125 66.210938 C 91.035156 66.503906 90.773438 66.824219 90.542969 67.171875 C 90.3125 67.515625 90.117188 67.878906 89.957031 68.265625 C 89.796875 68.648438 89.679688 69.046875 89.597656 69.453125 C 89.515625 69.859375 89.476562 70.273438 89.476562 70.6875 C 89.476562 71.105469 89.515625 71.515625 89.597656 71.921875 C 89.679688 72.332031 89.796875 72.726562 89.957031 73.109375 C 90.117188 73.496094 90.3125 73.859375 90.542969 74.207031 C 90.773438 74.550781 91.035156 74.871094 91.328125 75.164062 C 91.625 75.460938 91.945312 75.722656 92.289062 75.953125 C 92.636719 76.183594 93 76.378906 93.382812 76.539062 C 93.769531 76.695312 94.164062 76.816406 94.570312 76.898438 C 94.980469 76.980469 95.390625 77.019531 95.808594 77.019531 Z M 95.808594 203.660156 C 96.222656 203.660156 96.632812 203.617188 97.042969 203.535156 C 97.449219 203.457031 97.847656 203.335938 98.230469 203.175781 C 98.613281 203.015625 98.980469 202.820312 99.324219 202.589844 C 99.671875 202.359375 99.992188 202.097656 100.285156 201.804688 C 100.578125 201.507812 100.839844 201.191406 101.070312 200.84375 C 101.304688 200.5 101.496094 200.132812 101.65625 199.75 C 101.816406 199.367188 101.9375 198.96875 102.015625 198.5625 C 102.097656 198.152344 102.140625 197.742188 102.140625 197.328125 C 102.140625 196.910156 102.097656 196.5 102.015625 196.089844 C 101.9375 195.683594 101.816406 195.289062 101.65625 194.902344 C 101.496094 194.519531 101.304688 194.152344 101.070312 193.808594 C 100.839844 193.460938 100.578125 193.144531 100.285156 192.847656 C 99.992188 192.554688 99.671875 192.292969 99.324219 192.0625 C 98.980469 191.832031 98.613281 191.636719 98.230469 191.476562 C 97.847656 191.316406 97.449219 191.195312 97.042969 191.117188 C 96.632812 191.035156 96.222656 190.996094 95.808594 190.996094 C 95.390625 190.996094 94.980469 191.035156 94.570312 191.117188 C 94.164062 191.195312 93.769531 191.316406 93.382812 191.476562 C 93 191.636719 92.636719 191.832031 92.289062 192.0625 C 91.945312 192.292969 91.625 192.554688 91.328125 192.847656 C 91.035156 193.144531 90.773438 193.460938 90.542969 193.808594 C 90.3125 194.152344 90.117188 194.519531 89.957031 194.902344 C 89.796875 195.289062 89.679688 195.683594 89.597656 196.089844 C 89.515625 196.5 89.476562 196.910156 89.476562 197.328125 C 89.476562 197.742188 89.515625 198.152344 89.597656 198.5625 C 89.679688 198.96875 89.796875 199.367188 89.957031 199.75 C 90.117188 200.132812 90.3125 200.5 90.542969 200.84375 C 90.773438 201.191406 91.035156 201.507812 91.328125 201.804688 C 91.625 202.097656 91.945312 202.359375 92.289062 202.589844 C 92.636719 202.820312 93 203.015625 93.382812 203.175781 C 93.769531 203.335938 94.164062 203.457031 94.570312 203.535156 C 94.980469 203.617188 95.390625 203.660156 95.808594 203.660156 Z M 45.152344 330.296875 C 45.566406 330.296875 45.980469 330.257812 46.386719 330.175781 C 46.796875 330.09375 47.191406 329.972656 47.574219 329.816406 C 47.960938 329.65625 48.324219 329.460938 48.667969 329.230469 C 49.015625 329 49.335938 328.734375 49.628906 328.441406 C 49.921875 328.148438 50.1875 327.828125 50.417969 327.484375 C 50.648438 327.136719 50.84375 326.773438 51 326.386719 C 51.160156 326.003906 51.28125 325.609375 51.363281 325.199219 C 51.441406 324.792969 51.484375 324.378906 51.484375 323.964844 C 51.484375 323.550781 51.441406 323.136719 51.363281 322.730469 C 51.28125 322.320312 51.160156 321.925781 51 321.542969 C 50.84375 321.15625 50.648438 320.792969 50.417969 320.445312 C 50.1875 320.101562 49.921875 319.78125 49.628906 319.488281 C 49.335938 319.191406 49.015625 318.929688 48.667969 318.699219 C 48.324219 318.46875 47.960938 318.273438 47.574219 318.113281 C 47.191406 317.957031 46.796875 317.835938 46.386719 317.753906 C 45.980469 317.671875 45.566406 317.632812 45.152344 317.632812 C 44.734375 317.632812 44.324219 317.671875 43.917969 317.753906 C 43.507812 317.835938 43.113281 317.957031 42.730469 318.113281 C 42.34375 318.273438 41.980469 318.46875 41.632812 318.699219 C 41.289062 318.929688 40.96875 319.191406 40.675781 319.488281 C 40.378906 319.78125 40.117188 320.101562 39.886719 320.445312 C 39.65625 320.792969 39.460938 321.15625 39.300781 321.542969 C 39.144531 321.925781 39.023438 322.320312 38.941406 322.730469 C 38.859375 323.136719 38.820312 323.550781 38.820312 323.964844 C 38.820312 324.378906 38.859375 324.792969 38.941406 325.199219 C 39.023438 325.609375 39.144531 326.003906 39.300781 326.386719 C 39.460938 326.773438 39.65625 327.136719 39.886719 327.484375 C 40.117188 327.828125 40.378906 328.148438 40.675781 328.441406 C 40.96875 328.734375 41.289062 329 41.632812 329.230469 C 41.980469 329.460938 42.34375 329.65625 42.730469 329.816406 C 43.113281 329.972656 43.507812 330.09375 43.917969 330.175781 C 44.324219 330.257812 44.734375 330.296875 45.152344 330.296875 Z M 95.808594 330.296875 C 96.222656 330.296875 96.632812 330.257812 97.042969 330.175781 C 97.449219 330.09375 97.847656 329.972656 98.230469 329.816406 C 98.613281 329.65625 98.980469 329.460938 99.324219 329.230469 C 99.671875 329 99.992188 328.734375 100.285156 328.441406 C 100.578125 328.148438 100.839844 327.828125 101.070312 327.484375 C 101.304688 327.136719 101.496094 326.773438 101.65625 326.386719 C 101.816406 326.003906 101.9375 325.609375 102.015625 325.199219 C 102.097656 324.792969 102.140625 324.378906 102.140625 323.964844 C 102.140625 323.550781 102.097656 323.136719 102.015625 322.730469 C 101.9375 322.320312 101.816406 321.925781 101.65625 321.542969 C 101.496094 321.15625 101.304688 320.792969 101.070312 320.445312 C 100.839844 320.101562 100.578125 319.78125 100.285156 319.488281 C 99.992188 319.191406 99.671875 318.929688 99.324219 318.699219 C 98.980469 318.46875 98.613281 318.273438 98.230469 318.113281 C 97.847656 317.957031 97.449219 317.835938 97.042969 317.753906 C 96.632812 317.671875 96.222656 317.632812 95.808594 317.632812 C 95.390625 317.632812 94.980469 317.671875 94.570312 317.753906 C 94.164062 317.835938 93.769531 317.957031 93.382812 318.113281 C 93 318.273438 92.636719 318.46875 92.289062 318.699219 C 91.945312 318.929688 91.625 319.191406 91.328125 319.488281 C 91.035156 319.78125 90.773438 320.101562 90.542969 320.445312 C 90.3125 320.792969 90.117188 321.15625 89.957031 321.542969 C 89.796875 321.925781 89.679688 322.320312 89.597656 322.730469 C 89.515625 323.136719 89.476562 323.550781 89.476562 323.964844 C 89.476562 324.378906 89.515625 324.792969 89.597656 325.199219 C 89.679688 325.609375 89.796875 326.003906 89.957031 326.386719 C 90.117188 326.773438 90.3125 327.136719 90.542969 327.484375 C 90.773438 327.828125 91.035156 328.148438 91.328125 328.441406 C 91.625 328.734375 91.945312 329 92.289062 329.230469 C 92.636719 329.460938 93 329.65625 93.382812 329.816406 C 93.769531 329.972656 94.164062 330.09375 94.570312 330.175781 C 94.980469 330.257812 95.390625 330.296875 95.808594 330.296875 Z M 222.445312 64.355469 C 222.03125 64.355469 221.617188 64.398438 221.210938 64.476562 C 220.800781 64.558594 220.40625 64.679688 220.023438 64.839844 C 219.636719 64.996094 219.273438 65.191406 218.925781 65.421875 C 218.582031 65.652344 218.261719 65.917969 217.96875 66.210938 C 217.675781 66.503906 217.410156 66.824219 217.179688 67.171875 C 216.949219 67.515625 216.753906 67.878906 216.59375 68.265625 C 216.4375 68.648438 216.316406 69.046875 216.234375 69.453125 C 216.152344 69.859375 216.113281 70.273438 216.113281 70.6875 C 216.113281 71.105469 216.152344 71.515625 216.234375 71.921875 C 216.316406 72.332031 216.4375 72.726562 216.59375 73.109375 C 216.753906 73.496094 216.949219 73.859375 217.179688 74.207031 C 217.410156 74.550781 217.675781 74.871094 217.96875 75.164062 C 218.261719 75.460938 218.582031 75.722656 218.925781 75.953125 C 219.273438 76.183594 219.636719 76.378906 220.023438 76.539062 C 220.40625 76.695312 220.800781 76.816406 221.210938 76.898438 C 221.617188 76.980469 222.03125 77.019531 222.445312 77.019531 L 285.765625 77.019531 C 286.179688 77.019531 286.59375 76.980469 287 76.898438 C 287.40625 76.816406 287.804688 76.695312 288.1875 76.539062 C 288.570312 76.378906 288.9375 76.183594 289.28125 75.953125 C 289.628906 75.722656 289.949219 75.460938 290.242188 75.164062 C 290.535156 74.871094 290.796875 74.550781 291.03125 74.207031 C 291.261719 73.859375 291.457031 73.496094 291.613281 73.109375 C 291.773438 72.726562 291.894531 72.332031 291.976562 71.921875 C 292.054688 71.515625 292.097656 71.105469 292.097656 70.6875 C 292.097656 70.273438 292.054688 69.859375 291.976562 69.453125 C 291.894531 69.046875 291.773438 68.648438 291.613281 68.265625 C 291.457031 67.878906 291.261719 67.515625 291.03125 67.171875 C 290.796875 66.824219 290.535156 66.503906 290.242188 66.210938 C 289.949219 65.917969 289.628906 65.652344 289.28125 65.421875 C 288.9375 65.191406 288.570312 64.996094 288.1875 64.839844 C 287.804688 64.679688 287.40625 64.558594 287 64.476562 C 286.59375 64.398438 286.179688 64.355469 285.765625 64.355469 Z M 222.445312 64.355469 " fill-opacity="1" fill-rule="evenodd"/></g></g></g></g></g><g clip-path="url(#4536074e6a)"><path fill="#5bc0ff" d="M 339.140625 512.636719 C 339.140625 516.121094 336.289062 518.96875 332.808594 518.96875 C 332.390625 518.96875 331.980469 518.925781 331.574219 518.84375 C 331.164062 518.761719 330.769531 518.644531 330.386719 518.484375 C 330.003906 518.324219 329.636719 518.128906 329.292969 517.898438 C 328.945312 517.667969 328.628906 517.40625 328.332031 517.109375 C 328.039062 516.816406 327.777344 516.496094 327.546875 516.152344 C 327.316406 515.804688 327.121094 515.441406 326.960938 515.058594 C 326.800781 514.675781 326.679688 514.277344 326.597656 513.871094 C 326.515625 513.464844 326.476562 513.050781 326.476562 512.636719 C 326.476562 509.15625 329.324219 506.304688 332.808594 506.304688 C 336.289062 506.304688 339.140625 509.15625 339.140625 512.636719 M 288.484375 512.636719 C 288.484375 516.121094 285.632812 518.96875 282.152344 518.96875 C 281.738281 518.96875 281.324219 518.925781 280.917969 518.84375 C 280.511719 518.761719 280.113281 518.644531 279.730469 518.484375 C 279.347656 518.324219 278.980469 518.128906 278.636719 517.898438 C 278.292969 517.667969 277.972656 517.40625 277.679688 517.109375 C 277.382812 516.816406 277.121094 516.496094 276.890625 516.152344 C 276.660156 515.804688 276.464844 515.441406 276.304688 515.058594 C 276.144531 514.675781 276.023438 514.277344 275.945312 513.871094 C 275.863281 513.464844 275.820312 513.050781 275.820312 512.636719 C 275.820312 509.15625 278.667969 506.304688 282.152344 506.304688 C 285.632812 506.304688 288.484375 509.15625 288.484375 512.636719 M 237.828125 303.683594 L 237.828125 215.035156 C 237.828125 214.207031 237.910156 213.382812 238.070312 212.566406 C 238.234375 211.75 238.472656 210.957031 238.792969 210.191406 C 239.109375 209.421875 239.5 208.691406 239.960938 208 C 240.425781 207.308594 240.949219 206.671875 241.539062 206.082031 C 242.125 205.496094 242.765625 204.96875 243.457031 204.507812 C 244.148438 204.046875 244.878906 203.65625 245.644531 203.335938 C 246.414062 203.019531 247.207031 202.777344 248.023438 202.617188 C 248.835938 202.453125 249.660156 202.375 250.492188 202.375 L 554.425781 202.375 C 555.253906 202.375 556.078125 202.453125 556.894531 202.617188 C 557.710938 202.777344 558.503906 203.019531 559.269531 203.335938 C 560.039062 203.65625 560.769531 204.046875 561.460938 204.507812 C 562.152344 204.96875 562.789062 205.496094 563.378906 206.082031 C 563.96875 206.671875 564.492188 207.308594 564.953125 208 C 565.414062 208.691406 565.804688 209.421875 566.125 210.191406 C 566.441406 210.957031 566.683594 211.75 566.84375 212.566406 C 567.007812 213.382812 567.089844 214.207031 567.089844 215.035156 L 567.089844 303.683594 C 567.089844 304.515625 567.007812 305.339844 566.84375 306.15625 C 566.683594 306.96875 566.441406 307.761719 566.125 308.53125 C 565.804688 309.296875 565.414062 310.027344 564.953125 310.71875 C 564.492188 311.410156 563.96875 312.050781 563.378906 312.636719 C 562.789062 313.226562 562.152344 313.75 561.460938 314.214844 C 560.769531 314.675781 560.039062 315.066406 559.269531 315.382812 C 558.503906 315.703125 557.710938 315.941406 556.894531 316.105469 C 556.078125 316.265625 555.253906 316.347656 554.425781 316.347656 L 250.492188 316.347656 C 249.660156 316.347656 248.835938 316.265625 248.023438 316.105469 C 247.207031 315.941406 246.414062 315.703125 245.644531 315.382812 C 244.878906 315.066406 244.148438 314.675781 243.457031 314.214844 C 242.765625 313.75 242.125 313.226562 241.539062 312.636719 C 240.949219 312.050781 240.425781 311.410156 239.960938 310.71875 C 239.5 310.027344 239.109375 309.296875 238.792969 308.53125 C 238.472656 307.761719 238.234375 306.96875 238.070312 306.15625 C 237.910156 305.339844 237.828125 304.515625 237.828125 303.683594 M 250.492188 569.625 C 249.660156 569.625 248.835938 569.542969 248.023438 569.382812 C 247.207031 569.21875 246.414062 568.976562 245.644531 568.660156 C 244.878906 568.34375 244.148438 567.953125 243.457031 567.488281 C 242.765625 567.027344 242.125 566.503906 241.539062 565.914062 C 240.949219 565.328125 240.425781 564.6875 239.960938 563.996094 C 239.5 563.304688 239.109375 562.574219 238.792969 561.804688 C 238.472656 561.039062 238.234375 560.246094 238.070312 559.429688 C 237.910156 558.617188 237.828125 557.792969 237.828125 556.960938 L 237.828125 468.3125 C 237.828125 467.480469 237.910156 466.660156 238.070312 465.84375 C 238.234375 465.027344 238.472656 464.234375 238.792969 463.46875 C 239.109375 462.699219 239.5 461.96875 239.960938 461.277344 C 240.425781 460.585938 240.949219 459.945312 241.539062 459.359375 C 242.125 458.769531 242.765625 458.246094 243.457031 457.785156 C 244.148438 457.320312 244.878906 456.933594 245.644531 456.613281 C 246.414062 456.296875 247.207031 456.054688 248.023438 455.894531 C 248.835938 455.730469 249.660156 455.648438 250.492188 455.648438 L 402.457031 455.648438 C 402.875 455.648438 403.285156 455.609375 403.695312 455.527344 C 404.101562 455.445312 404.496094 455.328125 404.882812 455.167969 C 405.265625 455.007812 405.628906 454.8125 405.976562 454.582031 C 406.320312 454.351562 406.640625 454.089844 406.9375 453.796875 C 407.230469 453.5 407.492188 453.179688 407.722656 452.835938 C 407.953125 452.488281 408.148438 452.125 408.308594 451.742188 C 408.46875 451.355469 408.585938 450.960938 408.667969 450.554688 C 408.75 450.144531 408.789062 449.734375 408.789062 449.316406 C 408.789062 448.902344 408.75 448.492188 408.667969 448.082031 C 408.585938 447.675781 408.46875 447.277344 408.308594 446.894531 C 408.148438 446.511719 407.953125 446.144531 407.722656 445.800781 C 407.492188 445.453125 407.230469 445.132812 406.9375 444.839844 C 406.640625 444.546875 406.320312 444.285156 405.976562 444.054688 C 405.628906 443.820312 405.265625 443.628906 404.882812 443.46875 C 404.496094 443.308594 404.101562 443.1875 403.695312 443.109375 C 403.285156 443.027344 402.875 442.984375 402.457031 442.984375 L 250.492188 442.984375 C 249.660156 442.984375 248.835938 442.90625 248.023438 442.742188 C 247.207031 442.582031 246.414062 442.339844 245.644531 442.023438 C 244.878906 441.703125 244.148438 441.3125 243.457031 440.851562 C 242.765625 440.390625 242.125 439.863281 241.539062 439.277344 C 240.949219 438.6875 240.425781 438.050781 239.960938 437.359375 C 239.5 436.667969 239.109375 435.9375 238.792969 435.167969 C 238.472656 434.398438 238.234375 433.609375 238.070312 432.792969 C 237.910156 431.976562 237.828125 431.152344 237.828125 430.320312 L 237.828125 341.675781 C 237.828125 340.84375 237.910156 340.019531 238.070312 339.203125 C 238.234375 338.390625 238.472656 337.597656 238.792969 336.828125 C 239.109375 336.0625 239.5 335.332031 239.960938 334.640625 C 240.425781 333.949219 240.949219 333.308594 241.539062 332.71875 C 242.125 332.132812 242.765625 331.609375 243.457031 331.144531 C 244.148438 330.683594 244.878906 330.292969 245.644531 329.976562 C 246.414062 329.65625 247.207031 329.417969 248.023438 329.253906 C 248.835938 329.09375 249.660156 329.011719 250.492188 329.011719 L 554.425781 329.011719 C 555.253906 329.011719 556.078125 329.09375 556.894531 329.253906 C 557.710938 329.417969 558.503906 329.65625 559.269531 329.976562 C 560.039062 330.292969 560.769531 330.683594 561.460938 331.144531 C 562.152344 331.609375 562.789062 332.132812 563.378906 332.71875 C 563.96875 333.308594 564.492188 333.949219 564.953125 334.640625 C 565.414062 335.332031 565.804688 336.0625 566.125 336.828125 C 566.441406 337.597656 566.683594 338.390625 566.84375 339.203125 C 567.007812 340.019531 567.089844 340.84375 567.089844 341.675781 L 567.089844 348.007812 C 567.089844 348.421875 567.128906 348.835938 567.210938 349.242188 C 567.289062 349.648438 567.410156 350.046875 567.570312 350.429688 C 567.730469 350.8125 567.925781 351.179688 568.15625 351.523438 C 568.386719 351.871094 568.648438 352.191406 568.941406 352.484375 C 569.238281 352.777344 569.554688 353.039062 569.902344 353.273438 C 570.246094 353.503906 570.613281 353.699219 570.996094 353.855469 C 571.382812 354.015625 571.777344 354.136719 572.183594 354.21875 C 572.59375 354.296875 573.003906 354.339844 573.421875 354.339844 C 573.835938 354.339844 574.246094 354.296875 574.65625 354.21875 C 575.0625 354.136719 575.457031 354.015625 575.84375 353.855469 C 576.226562 353.699219 576.59375 353.503906 576.9375 353.273438 C 577.285156 353.039062 577.601562 352.777344 577.898438 352.484375 C 578.191406 352.191406 578.453125 351.871094 578.683594 351.523438 C 578.914062 351.179688 579.109375 350.8125 579.269531 350.429688 C 579.429688 350.046875 579.550781 349.648438 579.628906 349.242188 C 579.710938 348.835938 579.75 348.421875 579.75 348.007812 L 579.75 341.675781 C 579.75 334.078125 576.320312 327.328125 571 322.679688 C 576.320312 318.03125 579.75 311.28125 579.75 303.683594 L 579.75 215.035156 C 579.75 201.070312 568.390625 189.710938 554.425781 189.710938 L 250.492188 189.710938 C 236.523438 189.710938 225.164062 201.070312 225.164062 215.035156 L 225.164062 303.683594 C 225.164062 311.28125 228.597656 318.03125 233.914062 322.679688 C 228.597656 327.328125 225.164062 334.078125 225.164062 341.675781 L 225.164062 430.320312 C 225.164062 437.921875 228.597656 444.671875 233.914062 449.316406 C 228.597656 453.964844 225.164062 460.714844 225.164062 468.3125 L 225.164062 556.960938 C 225.164062 570.929688 236.523438 582.289062 250.492188 582.289062 L 263.15625 582.289062 C 263.15625 583.121094 263.238281 583.941406 263.398438 584.757812 C 263.5625 585.574219 263.800781 586.367188 264.121094 587.132812 C 264.4375 587.902344 264.828125 588.632812 265.289062 589.324219 C 265.753906 590.015625 266.277344 590.65625 266.867188 591.242188 C 267.453125 591.832031 268.09375 592.355469 268.785156 592.816406 C 269.476562 593.28125 270.207031 593.667969 270.972656 593.988281 C 271.742188 594.304688 272.535156 594.546875 273.347656 594.707031 C 274.164062 594.871094 274.988281 594.953125 275.820312 594.953125 L 313.8125 594.953125 C 314.644531 594.953125 315.464844 594.871094 316.28125 594.707031 C 317.097656 594.546875 317.890625 594.304688 318.65625 593.988281 C 319.425781 593.667969 320.15625 593.28125 320.847656 592.816406 C 321.539062 592.355469 322.179688 591.832031 322.765625 591.242188 C 323.355469 590.65625 323.878906 590.015625 324.339844 589.324219 C 324.804688 588.632812 325.191406 587.902344 325.511719 587.132812 C 325.828125 586.367188 326.070312 585.574219 326.230469 584.757812 C 326.394531 583.941406 326.476562 583.121094 326.476562 582.289062 L 446.78125 582.289062 C 447.199219 582.289062 447.609375 582.246094 448.015625 582.167969 C 448.425781 582.085938 448.820312 581.964844 449.203125 581.804688 C 449.589844 581.648438 449.953125 581.453125 450.300781 581.222656 C 450.644531 580.988281 450.964844 580.726562 451.257812 580.433594 C 451.554688 580.140625 451.816406 579.820312 452.046875 579.472656 C 452.277344 579.128906 452.472656 578.761719 452.632812 578.378906 C 452.789062 577.996094 452.910156 577.597656 452.992188 577.191406 C 453.074219 576.785156 453.113281 576.371094 453.113281 575.957031 C 453.113281 575.539062 453.074219 575.128906 452.992188 574.722656 C 452.910156 574.3125 452.789062 573.917969 452.632812 573.53125 C 452.472656 573.148438 452.277344 572.785156 452.046875 572.4375 C 451.816406 572.09375 451.554688 571.773438 451.257812 571.480469 C 450.964844 571.183594 450.644531 570.921875 450.300781 570.691406 C 449.953125 570.460938 449.589844 570.265625 449.203125 570.105469 C 448.820312 569.945312 448.425781 569.828125 448.015625 569.746094 C 447.609375 569.664062 447.199219 569.625 446.78125 569.625 Z M 339.140625 386 C 339.140625 389.480469 336.289062 392.332031 332.808594 392.332031 C 332.390625 392.328125 331.980469 392.289062 331.574219 392.207031 C 331.164062 392.125 330.769531 392.003906 330.386719 391.84375 C 330.003906 391.6875 329.636719 391.492188 329.292969 391.257812 C 328.945312 391.027344 328.628906 390.765625 328.332031 390.472656 C 328.039062 390.179688 327.777344 389.859375 327.546875 389.511719 C 327.316406 389.167969 327.121094 388.804688 326.960938 388.417969 C 326.800781 388.035156 326.679688 387.640625 326.597656 387.234375 C 326.515625 386.824219 326.476562 386.414062 326.476562 386 C 326.476562 382.515625 329.324219 379.667969 332.808594 379.667969 C 336.289062 379.667969 339.140625 382.515625 339.140625 386 M 288.484375 386 C 288.484375 389.480469 285.632812 392.332031 282.152344 392.332031 C 281.738281 392.328125 281.324219 392.289062 280.917969 392.207031 C 280.511719 392.125 280.113281 392.003906 279.730469 391.84375 C 279.347656 391.6875 278.984375 391.492188 278.636719 391.257812 C 278.292969 391.027344 277.972656 390.765625 277.679688 390.472656 C 277.382812 390.179688 277.121094 389.859375 276.890625 389.511719 C 276.660156 389.167969 276.464844 388.804688 276.304688 388.417969 C 276.144531 388.035156 276.023438 387.640625 275.945312 387.234375 C 275.863281 386.824219 275.820312 386.414062 275.820312 386 C 275.820312 382.515625 278.667969 379.667969 282.152344 379.667969 C 285.632812 379.667969 288.484375 382.515625 288.484375 386 M 522.765625 265.691406 L 459.445312 265.691406 C 459.03125 265.691406 458.617188 265.648438 458.210938 265.570312 C 457.804688 265.488281 457.40625 265.367188 457.023438 265.207031 C 456.640625 265.046875 456.277344 264.851562 455.929688 264.621094 C 455.585938 264.390625 455.265625 264.128906 454.972656 263.835938 C 454.679688 263.539062 454.414062 263.21875 454.183594 262.875 C 453.953125 262.53125 453.757812 262.164062 453.597656 261.78125 C 453.441406 261.398438 453.320312 261.003906 453.238281 260.59375 C 453.15625 260.1875 453.113281 259.777344 453.113281 259.359375 C 453.113281 255.878906 455.964844 253.027344 459.445312 253.027344 L 522.765625 253.027344 C 526.246094 253.027344 529.097656 255.878906 529.097656 259.359375 C 529.097656 262.84375 526.246094 265.691406 522.765625 265.691406 M 332.808594 265.691406 C 332.390625 265.691406 331.980469 265.648438 331.574219 265.570312 C 331.164062 265.488281 330.769531 265.367188 330.386719 265.207031 C 330.003906 265.046875 329.636719 264.851562 329.292969 264.621094 C 328.945312 264.390625 328.628906 264.128906 328.332031 263.835938 C 328.039062 263.539062 327.777344 263.21875 327.546875 262.875 C 327.316406 262.53125 327.121094 262.164062 326.960938 261.78125 C 326.800781 261.398438 326.679688 261.003906 326.597656 260.59375 C 326.515625 260.1875 326.476562 259.777344 326.476562 259.359375 C 326.476562 255.878906 329.324219 253.027344 332.808594 253.027344 C 336.289062 253.027344 339.140625 255.878906 339.140625 259.359375 C 339.140625 262.84375 336.289062 265.691406 332.808594 265.691406 M 282.152344 265.691406 C 281.738281 265.691406 281.324219 265.648438 280.917969 265.570312 C 280.511719 265.488281 280.113281 265.367188 279.730469 265.207031 C 279.347656 265.046875 278.984375 264.851562 278.636719 264.621094 C 278.292969 264.390625 277.972656 264.128906 277.679688 263.835938 C 277.382812 263.539062 277.121094 263.21875 276.890625 262.875 C 276.660156 262.53125 276.464844 262.164062 276.304688 261.78125 C 276.144531 261.398438 276.023438 261.003906 275.945312 260.59375 C 275.863281 260.1875 275.820312 259.777344 275.820312 259.359375 C 275.820312 255.878906 278.667969 253.027344 282.152344 253.027344 C 285.632812 253.027344 288.484375 255.878906 288.484375 259.359375 C 288.484375 262.84375 285.632812 265.691406 282.152344 265.691406 M 593.734375 435.335938 C 594.027344 435.632812 594.289062 435.953125 594.519531 436.300781 C 594.75 436.644531 594.941406 437.011719 595.101562 437.394531 C 595.261719 437.78125 595.378906 438.175781 595.460938 438.582031 C 595.542969 438.992188 595.582031 439.402344 595.582031 439.820312 C 595.582031 440.234375 595.542969 440.648438 595.460938 441.054688 C 595.378906 441.464844 595.261719 441.859375 595.101562 442.246094 C 594.941406 442.628906 594.75 442.996094 594.519531 443.339844 C 594.289062 443.6875 594.027344 444.007812 593.734375 444.304688 L 524.082031 513.953125 C 523.785156 514.246094 523.464844 514.507812 523.121094 514.738281 C 522.773438 514.96875 522.40625 515.164062 522.023438 515.324219 C 521.640625 515.480469 521.242188 515.601562 520.835938 515.683594 C 520.425781 515.761719 520.015625 515.804688 519.597656 515.804688 C 519.183594 515.804688 518.769531 515.761719 518.363281 515.683594 C 517.953125 515.601562 517.558594 515.480469 517.175781 515.324219 C 516.789062 515.164062 516.425781 514.96875 516.078125 514.738281 C 515.730469 514.507812 515.410156 514.246094 515.117188 513.953125 L 480.289062 479.128906 C 480.03125 478.828125 479.800781 478.503906 479.601562 478.160156 C 479.402344 477.816406 479.238281 477.457031 479.105469 477.082031 C 478.972656 476.707031 478.878906 476.320312 478.820312 475.929688 C 478.757812 475.535156 478.738281 475.140625 478.75 474.742188 C 478.765625 474.34375 478.816406 473.953125 478.90625 473.566406 C 478.996094 473.175781 479.117188 472.800781 479.277344 472.4375 C 479.4375 472.070312 479.628906 471.726562 479.851562 471.398438 C 480.074219 471.066406 480.328125 470.761719 480.609375 470.480469 C 480.890625 470.199219 481.195312 469.949219 481.523438 469.722656 C 481.851562 469.5 482.199219 469.308594 482.5625 469.148438 C 482.929688 468.992188 483.304688 468.867188 483.691406 468.777344 C 484.082031 468.691406 484.472656 468.640625 484.871094 468.625 C 485.265625 468.609375 485.664062 468.632812 486.054688 468.691406 C 486.449219 468.75 486.832031 468.847656 487.207031 468.976562 C 487.585938 469.109375 487.945312 469.273438 488.289062 469.472656 C 488.632812 469.671875 488.953125 469.902344 489.257812 470.164062 L 519.597656 500.519531 L 584.765625 435.335938 C 585.0625 435.042969 585.382812 434.78125 585.730469 434.550781 C 586.074219 434.320312 586.441406 434.125 586.824219 433.96875 C 587.210938 433.808594 587.605469 433.6875 588.015625 433.609375 C 588.421875 433.527344 588.832031 433.488281 589.25 433.488281 C 589.664062 433.488281 590.078125 433.527344 590.484375 433.609375 C 590.894531 433.6875 591.289062 433.808594 591.675781 433.96875 C 592.058594 434.125 592.425781 434.320312 592.769531 434.550781 C 593.117188 434.78125 593.4375 435.042969 593.734375 435.335938 M 535.859375 581.984375 C 480.085938 563.875 441.296875 503.46875 441.296875 434.3125 C 441.296875 421.203125 442.78125 408.019531 445.679688 395.054688 C 478.441406 401.816406 510.53125 391.9375 535.847656 369.359375 C 561.160156 391.9375 593.214844 401.816406 626.039062 395.054688 C 628.9375 407.996094 630.40625 421.179688 630.40625 434.3125 C 630.40625 503.46875 591.617188 563.875 535.859375 581.984375 M 636.828125 385.835938 C 636.617188 385.015625 636.257812 384.269531 635.746094 383.597656 C 635.230469 382.925781 634.609375 382.378906 633.878906 381.957031 C 633.148438 381.53125 632.367188 381.265625 631.527344 381.152344 C 630.691406 381.042969 629.867188 381.101562 629.050781 381.324219 C 596.480469 390.113281 564.566406 380.097656 540.304688 356.164062 C 540.011719 355.875 539.691406 355.613281 539.347656 355.386719 C 539.003906 355.160156 538.640625 354.96875 538.257812 354.8125 C 537.875 354.65625 537.484375 354.539062 537.078125 354.457031 C 536.671875 354.378906 536.265625 354.339844 535.851562 354.339844 C 535.441406 354.339844 535.03125 354.378906 534.628906 354.457031 C 534.222656 354.539062 533.828125 354.65625 533.449219 354.8125 C 533.066406 354.96875 532.703125 355.160156 532.359375 355.386719 C 532.015625 355.613281 531.695312 355.875 531.402344 356.164062 C 507.136719 380.097656 475.175781 390.101562 442.679688 381.324219 C 442.273438 381.21875 441.863281 381.152344 441.449219 381.125 C 441.03125 381.097656 440.617188 381.113281 440.203125 381.167969 C 439.789062 381.222656 439.382812 381.316406 438.988281 381.453125 C 438.59375 381.589844 438.214844 381.761719 437.851562 381.96875 C 437.492188 382.179688 437.152344 382.421875 436.839844 382.695312 C 436.523438 382.972656 436.242188 383.277344 435.988281 383.609375 C 435.734375 383.9375 435.515625 384.292969 435.328125 384.667969 C 435.144531 385.042969 435 385.429688 434.890625 385.835938 C 430.734375 401.726562 428.652344 417.886719 428.632812 434.3125 C 428.632812 509.75 471.96875 575.691406 534.011719 594.6875 C 535.246094 595.050781 536.484375 595.050781 537.71875 594.6875 C 599.75 575.691406 643.070312 509.75 643.070312 434.3125 C 643.058594 417.886719 640.976562 401.726562 636.828125 385.835938 " fill-opacity="1" fill-rule="evenodd"/></g></svg>