<svg xmlns="http://www.w3.org/2000/svg" xmlns:xlink="http://www.w3.org/1999/xlink" width="1080" zoomAndPan="magnify" viewBox="0 0 810 809.999993" height="1080" preserveAspectRatio="xMidYMid meet" version="1.0"><defs><clipPath id="6dcd1d76ef"><path d="M 105.261719 56.214844 L 704.511719 56.214844 L 704.511719 753.710938 L 105.261719 753.710938 Z M 105.261719 56.214844 " clip-rule="nonzero"/></clipPath><clipPath id="2564bd7eb0"><path d="M 404.996094 56.214844 L 704.734375 230.605469 L 704.734375 579.390625 L 404.996094 753.78125 L 105.261719 579.390625 L 105.261719 230.605469 Z M 404.996094 56.214844 " clip-rule="nonzero"/></clipPath><clipPath id="722f310c9d"><path d="M 195 246 L 613 246 L 613 563.972656 L 195 563.972656 Z M 195 246 " clip-rule="nonzero"/></clipPath></defs><g clip-path="url(#6dcd1d76ef)"><g clip-path="url(#2564bd7eb0)"><path stroke-linecap="butt" transform="matrix(0.75, 0, 0, 0.75, 105.260439, 56.213242)" fill="none" stroke-linejoin="miter" d="M 399.647585 0.0021357 L 799.298673 232.522996 L 799.298673 697.569924 L 399.647585 930.090784 L 0.00170633 697.569924 L 0.00170633 232.522996 Z M 399.647585 0.0021357 " stroke="#ffffff" stroke-width="100" stroke-opacity="1" stroke-miterlimit="4"/></g></g><g clip-path="url(#722f310c9d)"><path fill="#ffffff" d="M 548.824219 272.433594 C 549.054688 272.515625 549.253906 272.691406 549.371094 272.917969 C 596.449219 342.1875 619.699219 420.324219 611 510.273438 C 610.972656 510.648438 610.773438 510.992188 610.457031 511.222656 C 574.808594 537.421875 540.265625 553.324219 506.199219 563.867188 C 505.65625 564.027344 505.066406 563.839844 504.734375 563.363281 C 496.867188 552.421875 489.722656 540.859375 483.453125 528.738281 C 483.09375 528.015625 483.425781 527.171875 484.15625 526.882812 C 495.515625 522.597656 506.316406 517.464844 516.699219 511.394531 C 517.519531 510.921875 517.574219 509.738281 516.8125 509.179688 C 514.617188 507.542969 512.429688 505.816406 510.339844 504.105469 C 509.941406 503.789062 509.421875 503.71875 508.976562 503.929688 C 441.550781 535.09375 367.691406 535.09375 299.460938 503.929688 C 299.015625 503.730469 298.484375 503.800781 298.109375 504.117188 C 296.027344 505.832031 293.839844 507.542969 291.652344 509.179688 C 290.90625 509.738281 290.964844 510.921875 291.78125 511.394531 C 302.167969 517.347656 312.964844 522.597656 324.308594 526.898438 C 325.042969 527.183594 325.386719 528.015625 325.03125 528.738281 C 318.902344 540.886719 311.757812 552.433594 303.730469 563.378906 C 303.390625 563.839844 302.8125 564.027344 302.265625 563.867188 C 268.375 553.324219 233.832031 537.421875 198.171875 511.222656 C 197.871094 510.992188 197.667969 510.632812 197.625 510.257812 C 190.359375 432.449219 205.171875 353.664062 259.214844 272.90625 C 259.34375 272.691406 259.542969 272.515625 259.773438 272.433594 C 286.363281 260.207031 314.863281 251.222656 344.628906 246.101562 C 345.175781 246.015625 345.722656 246.257812 345.996094 246.746094 C 349.675781 253.265625 353.886719 261.617188 356.722656 268.449219 C 388.113281 263.660156 419.992188 263.660156 452.035156 268.449219 C 454.878906 261.761719 458.9375 253.265625 462.601562 246.746094 C 462.875 246.242188 463.421875 246 463.96875 246.101562 C 493.761719 251.25 522.25 260.222656 548.824219 272.433594 Z M 335.222656 462.878906 C 356.089844 462.878906 372.683594 444.011719 372.683594 420.84375 C 373.015625 397.851562 356.25 378.828125 335.222656 378.828125 C 314.34375 378.828125 297.75 397.679688 297.75 420.84375 C 297.75 444.011719 314.675781 462.878906 335.222656 462.878906 Z M 473.746094 462.878906 C 494.785156 462.878906 511.207031 444.011719 511.207031 420.84375 C 511.539062 397.851562 494.785156 378.828125 473.746094 378.828125 C 452.878906 378.828125 436.269531 397.679688 436.269531 420.84375 C 436.269531 444.011719 453.199219 462.878906 473.746094 462.878906 Z M 473.746094 462.878906 " fill-opacity="1" fill-rule="evenodd"/></g></svg>