<svg xmlns="http://www.w3.org/2000/svg" xmlns:xlink="http://www.w3.org/1999/xlink" width="1080" zoomAndPan="magnify" viewBox="0 0 810 809.999993" height="1080" preserveAspectRatio="xMidYMid meet" version="1.0"><defs><clipPath id="c99ec6b6ea"><path d="M 105.261719 56.214844 L 704.511719 56.214844 L 704.511719 753.710938 L 105.261719 753.710938 Z M 105.261719 56.214844 " clip-rule="nonzero"/></clipPath><clipPath id="4606142bbf"><path d="M 404.996094 56.214844 L 704.734375 230.605469 L 704.734375 579.390625 L 404.996094 753.78125 L 105.261719 579.390625 L 105.261719 230.605469 Z M 404.996094 56.214844 " clip-rule="nonzero"/></clipPath><clipPath id="51f57a00d2"><path d="M 391 308 L 622.21875 308 L 622.21875 549 L 391 549 Z M 391 308 " clip-rule="nonzero"/></clipPath><clipPath id="5089abe207"><path d="M 242 399 L 417 399 L 417 607.96875 L 242 607.96875 Z M 242 399 " clip-rule="nonzero"/></clipPath><clipPath id="cb40db55a6"><path d="M 222.46875 208.21875 L 453 208.21875 L 453 406 L 222.46875 406 Z M 222.46875 208.21875 " clip-rule="nonzero"/></clipPath></defs><g clip-path="url(#c99ec6b6ea)"><g clip-path="url(#4606142bbf)"><path stroke-linecap="butt" transform="matrix(0.75, 0, 0, 0.75, 105.260439, 56.212176)" fill="none" stroke-linejoin="miter" d="M 399.647585 0.0035565 L 799.298673 232.524416 L 799.298673 697.571345 L 399.647585 930.092204 L 0.00170633 697.571345 L 0.00170633 232.524416 Z M 399.647585 0.0035565 " stroke="#ffffff" stroke-width="100" stroke-opacity="1" stroke-miterlimit="4"/></g></g><g clip-path="url(#51f57a00d2)"><path fill="#ffffff" d="M 548.425781 317.136719 C 546.40625 314.074219 542.277344 313.21875 539.207031 315.242188 L 503.960938 338.457031 C 498.242188 312.421875 465.046875 299.324219 443.167969 314.71875 C 420.300781 329.179688 419.289062 363.996094 440.992188 379.945312 L 405.75 403.167969 C 402.675781 405.1875 401.828125 409.316406 403.851562 412.390625 L 428.796875 450.25 C 399.039062 450.976562 380.527344 487.761719 397.765625 512.09375 C 413.304688 537.515625 454.429688 535.039062 466.828125 507.988281 L 491.773438 545.851562 C 493.683594 548.867188 498.042969 549.777344 500.996094 547.746094 L 601.089844 481.800781 C 622.554688 467.667969 628.511719 438.703125 614.375 417.230469 Z M 593.765625 470.679688 L 499.230469 532.960938 L 469.921875 488.472656 C 466.644531 483.160156 457.90625 485.527344 457.714844 491.726562 C 456.4375 516.910156 422.511719 526.003906 408.886719 504.761719 C 400.769531 492.980469 404.359375 475.488281 416.472656 467.867188 C 423.417969 463.285156 432.269531 462.238281 440.136719 465.042969 C 445.917969 467.34375 451.527344 460.171875 447.941406 455.109375 C 447.941406 455.109375 418.632812 410.625 418.632812 410.625 L 457.558594 384.976562 C 459.675781 383.585938 460.820312 381.117188 460.507812 378.605469 C 460.199219 376.09375 458.496094 373.976562 456.109375 373.136719 C 435.90625 366.542969 432.300781 337.0625 450.492188 325.839844 C 467.796875 313.515625 493.808594 328.582031 491.734375 349.664062 C 491.566406 352.183594 492.839844 354.589844 495.023438 355.863281 C 497.214844 357.136719 499.941406 357.0625 502.042969 355.671875 L 540.96875 330.027344 L 603.253906 424.558594 C 613.355469 439.890625 609.09375 460.582031 593.765625 470.679688 Z M 593.765625 470.679688 " fill-opacity="1" fill-rule="nonzero"/></g><g clip-path="url(#5089abe207)"><path fill="#ffffff" d="M 285.652344 414.085938 L 403.46875 445.089844 C 411.933594 447.210938 415.304688 434.558594 406.863281 432.207031 C 406.863281 432.207031 282.601562 399.507812 282.601562 399.507812 C 279.148438 398.535156 275.308594 400.777344 274.464844 404.257812 L 244.039062 520.195312 C 237.507812 545.066406 252.425781 570.609375 277.289062 577.140625 L 393.21875 607.570312 C 396.652344 608.542969 400.515625 606.300781 401.355469 602.816406 L 416.539062 544.882812 C 418.285156 538.921875 410.730469 533.976562 405.972656 537.964844 C 399.398438 543.152344 390.683594 544.960938 382.683594 542.8125 C 357.753906 536.636719 355.996094 500.539062 380.296875 492.132812 C 388.492188 489.074219 384.125 476.78125 375.835938 479.585938 C 328.425781 497.972656 350.726562 567.753906 399.957031 555.597656 L 390.15625 592.996094 L 280.671875 564.257812 C 262.910156 559.59375 252.253906 541.34375 256.914062 523.578125 Z M 285.652344 414.085938 " fill-opacity="1" fill-rule="nonzero"/></g><g clip-path="url(#cb40db55a6)"><path fill="#ffffff" d="M 243.109375 400.199219 C 243.707031 403.84375 247.234375 406.273438 250.777344 405.660156 L 264.296875 403.394531 C 272.90625 401.804688 270.742188 388.941406 262.097656 390.257812 C 262.097656 390.257812 255.132812 391.425781 255.132812 391.425781 L 236.265625 279.851562 C 233.21875 261.726562 245.46875 244.496094 263.574219 241.441406 L 375.210938 222.574219 L 381.882812 261.957031 C 382.308594 264.457031 384.113281 266.496094 386.535156 267.222656 C 388.960938 267.964844 391.59375 267.242188 393.316406 265.390625 C 397.238281 261.195312 402.347656 258.488281 408.144531 257.554688 C 422.59375 255.089844 436.375 264.882812 438.820312 279.335938 C 441.507812 293.386719 431.160156 307.992188 417.019531 310.074219 C 411.207031 311.019531 405.445312 310.125 400.390625 307.484375 C 398.15625 306.320312 395.429688 306.507812 393.394531 308.003906 C 391.347656 309.488281 390.324219 312.007812 390.742188 314.496094 L 399.625 367 L 299.511719 383.9375 C 290.960938 385.5 293.015625 398.421875 301.734375 397.066406 C 301.734375 397.066406 408.410156 379.019531 408.410156 379.019531 C 412.03125 378.410156 414.476562 374.972656 413.867188 371.347656 L 405.71875 323.183594 C 431.867188 328.503906 457.210938 303.347656 451.953125 277.117188 C 447.914062 250.332031 416.503906 235.488281 393.167969 248.8125 L 387.230469 213.789062 C 386.613281 210.164062 383.222656 207.679688 379.550781 208.335938 L 261.355469 228.3125 C 236.015625 232.585938 218.867188 256.699219 223.132812 282.066406 Z M 243.109375 400.199219 " fill-opacity="1" fill-rule="nonzero"/></g></svg>