<svg xmlns="http://www.w3.org/2000/svg" xmlns:xlink="http://www.w3.org/1999/xlink" width="1080" zoomAndPan="magnify" viewBox="0 0 810 809.999993" height="1080" preserveAspectRatio="xMidYMid meet" version="1.0"><defs><filter x="0%" y="0%" width="100%" height="100%" id="b0419e9448"><feColorMatrix values="0 0 0 0 1 0 0 0 0 1 0 0 0 0 1 0 0 0 1 0" color-interpolation-filters="sRGB"/></filter><mask id="aa73254561"><g filter="url(#b0419e9448)"><rect x="-81" width="972" fill="#000000" y="-80.999999" height="971.999992" fill-opacity="0.2"/></g></mask><clipPath id="d61daa1485"><path d="M 6 11 L 652.519531 11 L 652.519531 475.320312 L 6 475.320312 Z M 6 11 " clip-rule="nonzero"/></clipPath><clipPath id="5372082b41"><rect x="0" width="653" y="0" height="476"/></clipPath></defs><path fill="#ffffff" d="M 437.949219 604.566406 C 437.910156 607.046875 437.589844 609.492188 436.988281 611.898438 C 436.386719 614.308594 435.519531 616.613281 434.390625 618.824219 C 433.261719 621.03125 431.894531 623.085938 430.292969 624.980469 C 428.695312 626.878906 426.898438 628.570312 424.910156 630.054688 L 415.785156 637.285156 C 414.742188 638.121094 413.589844 638.761719 412.328125 639.210938 C 411.070312 639.65625 409.769531 639.882812 408.433594 639.890625 C 407.824219 639.890625 407.21875 639.839844 406.621094 639.742188 C 406.019531 639.644531 405.429688 639.503906 404.851562 639.316406 C 404.269531 639.128906 403.710938 638.898438 403.164062 638.625 C 402.621094 638.347656 402.101562 638.035156 401.609375 637.679688 C 401.113281 637.328125 400.648438 636.9375 400.210938 636.511719 C 399.777344 636.085938 399.378906 635.628906 399.011719 635.144531 C 398.648438 634.65625 398.324219 634.144531 398.035156 633.605469 C 397.75 633.066406 397.507812 632.511719 397.308594 631.9375 C 397.109375 631.363281 396.953125 630.777344 396.84375 630.175781 C 396.734375 629.578125 396.667969 628.976562 396.652344 628.367188 C 396.636719 627.757812 396.664062 627.152344 396.742188 626.546875 C 396.820312 625.945312 396.941406 625.351562 397.109375 624.765625 C 397.277344 624.179688 397.488281 623.613281 397.746094 623.058594 C 398 622.507812 398.296875 621.976562 398.632812 621.46875 C 398.972656 620.964844 399.34375 620.484375 399.757812 620.035156 C 400.167969 619.585938 400.609375 619.171875 401.085938 618.792969 L 410.210938 611.5625 C 410.828125 611.207031 411.386719 610.78125 411.890625 610.28125 C 412.394531 609.78125 412.824219 609.222656 413.179688 608.609375 C 413.535156 607.996094 413.804688 607.34375 413.988281 606.660156 C 414.171875 605.972656 414.265625 605.277344 414.265625 604.566406 C 414.265625 603.855469 414.171875 603.160156 413.988281 602.472656 C 413.804688 601.789062 413.535156 601.140625 413.179688 600.523438 C 412.824219 599.910156 412.394531 599.351562 411.890625 598.851562 C 411.386719 598.351562 410.828125 597.925781 410.210938 597.574219 L 401.085938 590.339844 C 400.402344 589.886719 399.769531 589.367188 399.195312 588.78125 C 398.621094 588.195312 398.109375 587.558594 397.667969 586.867188 C 397.226562 586.175781 396.855469 585.449219 396.566406 584.679688 C 396.273438 583.914062 396.066406 583.125 395.9375 582.3125 C 395.808594 581.503906 395.765625 580.6875 395.808594 579.867188 C 395.847656 579.050781 395.972656 578.242188 396.183594 577.449219 C 396.394531 576.65625 396.679688 575.890625 397.050781 575.15625 C 397.417969 574.421875 397.855469 573.734375 398.367188 573.09375 C 398.878906 572.449219 399.449219 571.867188 400.082031 571.34375 C 400.710938 570.820312 401.390625 570.367188 402.117188 569.984375 C 402.84375 569.601562 403.601562 569.296875 404.390625 569.070312 C 405.179688 568.847656 405.984375 568.703125 406.800781 568.644531 C 407.621094 568.585938 408.4375 568.613281 409.25 568.722656 C 410.0625 568.835938 410.855469 569.027344 411.628906 569.304688 C 412.402344 569.578125 413.136719 569.933594 413.839844 570.359375 C 414.539062 570.789062 415.1875 571.285156 415.785156 571.847656 L 424.910156 579.078125 C 426.898438 580.566406 428.695312 582.253906 430.292969 584.152344 C 431.894531 586.046875 433.261719 588.101562 434.390625 590.308594 C 435.519531 592.519531 436.386719 594.828125 436.988281 597.234375 C 437.589844 599.640625 437.910156 602.085938 437.949219 604.566406 Z M 378.679688 592.710938 L 353.667969 592.710938 C 352.894531 592.664062 352.121094 592.691406 351.351562 592.792969 C 350.585938 592.898438 349.832031 593.074219 349.097656 593.324219 C 348.367188 593.574219 347.664062 593.894531 346.992188 594.28125 C 346.320312 594.671875 345.695312 595.121094 345.109375 595.632812 C 344.527344 596.144531 344 596.707031 343.527344 597.324219 C 343.054688 597.9375 342.648438 598.59375 342.304688 599.289062 C 341.960938 599.984375 341.6875 600.703125 341.484375 601.453125 C 341.28125 602.203125 341.15625 602.964844 341.101562 603.738281 C 341.046875 604.515625 341.066406 605.292969 341.164062 606.066406 C 341.261719 606.84375 341.433594 607.601562 341.679688 608.339844 C 341.925781 609.082031 342.242188 609.789062 342.628906 610.46875 C 343.015625 611.148438 343.464844 611.78125 343.976562 612.371094 C 344.488281 612.960938 345.054688 613.492188 345.671875 613.96875 C 346.289062 614.449219 346.949219 614.859375 347.648438 615.207031 C 348.347656 615.554688 349.074219 615.832031 349.828125 616.035156 C 350.582031 616.238281 351.347656 616.367188 352.125 616.421875 L 378.441406 616.421875 C 379.222656 616.421875 379.992188 616.34375 380.753906 616.191406 C 381.519531 616.042969 382.261719 615.816406 382.980469 615.519531 C 383.699219 615.21875 384.382812 614.855469 385.027344 614.421875 C 385.675781 613.992188 386.273438 613.5 386.824219 612.949219 C 387.375 612.398438 387.867188 611.800781 388.300781 611.152344 C 388.730469 610.503906 389.097656 609.820312 389.394531 609.101562 C 389.691406 608.382812 389.917969 607.640625 390.070312 606.878906 C 390.222656 606.117188 390.296875 605.34375 390.296875 604.566406 C 390.296875 603.789062 390.222656 603.015625 390.070312 602.253906 C 389.917969 601.492188 389.691406 600.75 389.394531 600.03125 C 389.097656 599.3125 388.730469 598.628906 388.300781 597.980469 C 387.867188 597.332031 387.375 596.734375 386.824219 596.183594 C 386.273438 595.632812 385.675781 595.140625 385.027344 594.710938 C 384.382812 594.277344 383.699219 593.914062 382.980469 593.613281 C 382.261719 593.316406 381.519531 593.09375 380.753906 592.941406 C 379.992188 592.789062 379.222656 592.710938 378.441406 592.710938 Z M 298.308594 537.472656 C 298.308594 536.167969 298.308594 534.863281 298.308594 533.441406 L 298.308594 512.695312 C 298.308594 511.917969 298.230469 511.148438 298.082031 510.382812 C 297.929688 509.621094 297.703125 508.878906 297.40625 508.160156 C 297.109375 507.441406 296.742188 506.757812 296.308594 506.109375 C 295.878906 505.464844 295.386719 504.863281 294.835938 504.3125 C 294.285156 503.761719 293.6875 503.273438 293.039062 502.839844 C 292.390625 502.40625 291.710938 502.042969 290.988281 501.746094 C 290.269531 501.445312 289.53125 501.222656 288.765625 501.070312 C 288.003906 500.917969 287.230469 500.84375 286.453125 500.84375 C 285.675781 500.84375 284.90625 500.917969 284.140625 501.070312 C 283.378906 501.222656 282.636719 501.445312 281.917969 501.746094 C 281.199219 502.042969 280.515625 502.40625 279.867188 502.839844 C 279.21875 503.273438 278.621094 503.761719 278.070312 504.3125 C 277.519531 504.863281 277.03125 505.464844 276.597656 506.109375 C 276.164062 506.757812 275.800781 507.441406 275.5 508.160156 C 275.203125 508.878906 274.980469 509.621094 274.828125 510.382812 C 274.675781 511.148438 274.597656 511.917969 274.597656 512.695312 L 274.597656 533.441406 C 274.597656 535.335938 274.597656 537.234375 274.597656 539.132812 C 274.652344 539.875 274.773438 540.605469 274.960938 541.324219 C 275.152344 542.046875 275.40625 542.742188 275.730469 543.414062 C 276.050781 544.085938 276.429688 544.722656 276.871094 545.320312 C 277.3125 545.921875 277.804688 546.476562 278.351562 546.980469 C 278.898438 547.488281 279.484375 547.941406 280.117188 548.335938 C 280.746094 548.734375 281.40625 549.066406 282.101562 549.339844 C 282.792969 549.609375 283.507812 549.816406 284.238281 549.953125 C 284.972656 550.089844 285.710938 550.15625 286.453125 550.15625 L 287.285156 550.15625 C 288.0625 550.101562 288.828125 549.976562 289.582031 549.769531 C 290.335938 549.566406 291.0625 549.289062 291.761719 548.941406 C 292.460938 548.59375 293.121094 548.183594 293.738281 547.707031 C 294.355469 547.226562 294.917969 546.695312 295.433594 546.105469 C 295.945312 545.515625 296.394531 544.882812 296.78125 544.203125 C 297.167969 543.523438 297.484375 542.816406 297.730469 542.074219 C 297.976562 541.335938 298.148438 540.578125 298.246094 539.800781 C 298.34375 539.027344 298.363281 538.25 298.308594 537.472656 Z M 286.453125 486.023438 C 287.230469 486.023438 288.003906 485.949219 288.765625 485.796875 C 289.53125 485.644531 290.269531 485.417969 290.988281 485.121094 C 291.710938 484.824219 292.390625 484.457031 293.039062 484.027344 C 293.6875 483.59375 294.285156 483.101562 294.835938 482.550781 C 295.386719 482 295.878906 481.402344 296.308594 480.753906 C 296.742188 480.109375 297.109375 479.425781 297.40625 478.707031 C 297.703125 477.988281 297.929688 477.246094 298.082031 476.484375 C 298.230469 475.71875 298.308594 474.949219 298.308594 474.167969 L 298.308594 450.460938 C 298.308594 449.683594 298.230469 448.910156 298.082031 448.148438 C 297.929688 447.386719 297.703125 446.644531 297.40625 445.925781 C 297.109375 445.207031 296.742188 444.523438 296.308594 443.875 C 295.878906 443.226562 295.386719 442.628906 294.835938 442.078125 C 294.285156 441.527344 293.6875 441.039062 293.039062 440.605469 C 292.390625 440.171875 291.710938 439.808594 290.988281 439.507812 C 290.269531 439.210938 289.53125 438.988281 288.765625 438.835938 C 288.003906 438.683594 287.230469 438.605469 286.453125 438.605469 C 285.675781 438.605469 284.90625 438.683594 284.140625 438.835938 C 283.378906 438.988281 282.636719 439.210938 281.917969 439.507812 C 281.199219 439.808594 280.515625 440.171875 279.867188 440.605469 C 279.21875 441.039062 278.621094 441.527344 278.070312 442.078125 C 277.519531 442.628906 277.03125 443.226562 276.597656 443.875 C 276.164062 444.523438 275.800781 445.207031 275.5 445.925781 C 275.203125 446.644531 274.980469 447.386719 274.828125 448.148438 C 274.675781 448.910156 274.597656 449.683594 274.597656 450.460938 L 274.597656 474.167969 C 274.597656 474.949219 274.675781 475.71875 274.828125 476.484375 C 274.980469 477.246094 275.203125 477.988281 275.5 478.707031 C 275.800781 479.425781 276.164062 480.109375 276.597656 480.753906 C 277.03125 481.402344 277.519531 482 278.070312 482.550781 C 278.621094 483.101562 279.21875 483.59375 279.867188 484.027344 C 280.515625 484.457031 281.199219 484.824219 281.917969 485.121094 C 282.636719 485.417969 283.378906 485.644531 284.140625 485.796875 C 284.90625 485.949219 285.675781 486.023438 286.453125 486.023438 Z M 308.859375 567.226562 C 308.410156 566.585938 307.90625 566 307.339844 565.460938 C 306.777344 564.921875 306.167969 564.441406 305.511719 564.023438 C 304.851562 563.605469 304.160156 563.257812 303.433594 562.972656 C 302.707031 562.691406 301.960938 562.484375 301.191406 562.347656 C 300.421875 562.214844 299.648438 562.15625 298.871094 562.171875 C 298.089844 562.191406 297.320312 562.285156 296.558594 562.453125 C 295.800781 562.621094 295.0625 562.863281 294.347656 563.179688 C 293.636719 563.492188 292.960938 563.875 292.320312 564.320312 C 291.683594 564.769531 291.09375 565.273438 290.554688 565.839844 C 290.015625 566.402344 289.539062 567.011719 289.121094 567.667969 C 288.703125 568.328125 288.351562 569.019531 288.070312 569.746094 C 287.789062 570.472656 287.578125 571.21875 287.445312 571.988281 C 287.308594 572.757812 287.25 573.53125 287.269531 574.308594 C 287.285156 575.089844 287.378906 575.859375 287.546875 576.621094 C 287.71875 577.378906 287.960938 578.117188 288.273438 578.832031 C 288.589844 579.542969 288.96875 580.21875 289.417969 580.859375 C 295.078125 589.058594 301.996094 596.011719 310.164062 601.722656 C 310.800781 602.117188 311.472656 602.453125 312.175781 602.71875 C 312.878906 602.988281 313.601562 603.191406 314.339844 603.320312 C 315.082031 603.453125 315.828125 603.511719 316.582031 603.503906 C 317.332031 603.492188 318.078125 603.410156 318.8125 603.257812 C 319.550781 603.105469 320.265625 602.886719 320.960938 602.597656 C 321.65625 602.308594 322.316406 601.957031 322.945312 601.542969 C 323.574219 601.125 324.15625 600.65625 324.695312 600.128906 C 325.234375 599.605469 325.71875 599.035156 326.148438 598.414062 C 326.578125 597.796875 326.945312 597.144531 327.25 596.457031 C 327.554688 595.769531 327.792969 595.058594 327.960938 594.324219 C 328.132812 593.59375 328.230469 592.851562 328.257812 592.097656 C 328.289062 591.347656 328.246094 590.597656 328.132812 589.855469 C 328.015625 589.109375 327.835938 588.386719 327.582031 587.675781 C 327.328125 586.96875 327.011719 586.289062 326.632812 585.640625 C 326.25 584.992188 325.8125 584.382812 325.3125 583.820312 C 324.816406 583.253906 324.269531 582.742188 323.675781 582.28125 C 317.847656 578.136719 312.910156 573.117188 308.859375 567.226562 Z M 713.207031 377.558594 L 713.207031 641.90625 C 713.207031 642.625 713.171875 643.34375 713.101562 644.058594 C 713.03125 644.773438 712.925781 645.480469 712.785156 646.1875 C 712.644531 646.890625 712.472656 647.585938 712.261719 648.273438 C 712.054688 648.960938 711.8125 649.636719 711.539062 650.300781 C 711.261719 650.964844 710.957031 651.613281 710.617188 652.246094 C 710.277344 652.878906 709.910156 653.496094 709.511719 654.089844 C 709.113281 654.6875 708.683594 655.265625 708.230469 655.820312 C 707.773438 656.375 707.292969 656.90625 706.785156 657.414062 C 706.277344 657.921875 705.742188 658.402344 705.1875 658.859375 C 704.632812 659.316406 704.058594 659.742188 703.460938 660.140625 C 702.863281 660.539062 702.246094 660.910156 701.613281 661.25 C 700.980469 661.585938 700.332031 661.894531 699.667969 662.167969 C 699.003906 662.441406 698.328125 662.683594 697.640625 662.894531 C 696.953125 663.101562 696.257812 663.277344 695.554688 663.417969 C 694.851562 663.554688 694.140625 663.660156 693.425781 663.730469 C 692.710938 663.800781 691.996094 663.835938 691.277344 663.835938 L 521.761719 663.835938 C 521.042969 663.835938 520.324219 663.800781 519.609375 663.730469 C 518.894531 663.660156 518.1875 663.554688 517.480469 663.417969 C 516.777344 663.277344 516.082031 663.101562 515.394531 662.894531 C 514.707031 662.683594 514.03125 662.441406 513.367188 662.167969 C 512.703125 661.894531 512.054688 661.585938 511.421875 661.25 C 510.789062 660.910156 510.171875 660.539062 509.578125 660.140625 C 508.980469 659.742188 508.402344 659.316406 507.847656 658.859375 C 507.292969 658.402344 506.761719 657.921875 506.253906 657.414062 C 505.746094 656.90625 505.265625 656.375 504.808594 655.820312 C 504.351562 655.265625 503.925781 654.6875 503.527344 654.089844 C 503.128906 653.496094 502.757812 652.878906 502.417969 652.246094 C 502.082031 651.613281 501.773438 650.964844 501.5 650.300781 C 501.226562 649.636719 500.984375 648.960938 500.773438 648.273438 C 500.566406 647.585938 500.390625 646.890625 500.25 646.1875 C 500.113281 645.480469 500.007812 644.773438 499.9375 644.058594 C 499.867188 643.34375 499.832031 642.625 499.832031 641.90625 L 499.832031 377.558594 C 499.832031 376.839844 499.867188 376.125 499.9375 375.410156 C 500.007812 374.695312 500.113281 373.984375 500.25 373.28125 C 500.390625 372.574219 500.566406 371.878906 500.773438 371.191406 C 500.984375 370.503906 501.226562 369.828125 501.5 369.164062 C 501.773438 368.5 502.082031 367.851562 502.417969 367.21875 C 502.757812 366.585938 503.128906 365.972656 503.527344 365.375 C 503.925781 364.777344 504.351562 364.199219 504.808594 363.644531 C 505.265625 363.089844 505.746094 362.558594 506.253906 362.050781 C 506.761719 361.542969 507.292969 361.0625 507.847656 360.605469 C 508.402344 360.148438 508.980469 359.722656 509.578125 359.324219 C 510.175781 358.925781 510.789062 358.554688 511.421875 358.21875 C 512.054688 357.878906 512.703125 357.570312 513.367188 357.296875 C 514.03125 357.023438 514.707031 356.78125 515.394531 356.570312 C 516.082031 356.363281 516.777344 356.1875 517.480469 356.046875 C 518.1875 355.910156 518.894531 355.804688 519.609375 355.734375 C 520.324219 355.664062 521.042969 355.628906 521.761719 355.628906 L 691.277344 355.628906 C 691.996094 355.628906 692.710938 355.664062 693.425781 355.734375 C 694.140625 355.804688 694.851562 355.910156 695.554688 356.046875 C 696.257812 356.1875 696.953125 356.363281 697.640625 356.570312 C 698.328125 356.78125 699.003906 357.023438 699.667969 357.296875 C 700.332031 357.570312 700.980469 357.878906 701.613281 358.21875 C 702.246094 358.554688 702.863281 358.925781 703.460938 359.324219 C 704.058594 359.722656 704.632812 360.148438 705.1875 360.605469 C 705.742188 361.0625 706.277344 361.542969 706.785156 362.050781 C 707.292969 362.558594 707.773438 363.089844 708.230469 363.644531 C 708.683594 364.199219 709.113281 364.777344 709.511719 365.375 C 709.910156 365.972656 710.277344 366.585938 710.617188 367.21875 C 710.957031 367.851562 711.261719 368.5 711.539062 369.164062 C 711.8125 369.828125 712.054688 370.503906 712.261719 371.191406 C 712.472656 371.878906 712.644531 372.574219 712.785156 373.28125 C 712.925781 373.984375 713.03125 374.695312 713.101562 375.410156 C 713.171875 376.121094 713.207031 376.839844 713.207031 377.558594 Z M 701.351562 377.558594 C 701.351562 376.894531 701.289062 376.242188 701.160156 375.59375 C 701.03125 374.941406 700.839844 374.3125 700.585938 373.703125 C 700.332031 373.089844 700.023438 372.511719 699.652344 371.960938 C 699.285156 371.410156 698.867188 370.902344 698.402344 370.433594 C 697.933594 369.964844 697.425781 369.546875 696.875 369.179688 C 696.324219 368.8125 695.742188 368.5 695.132812 368.25 C 694.519531 367.996094 693.890625 367.804688 693.242188 367.675781 C 692.59375 367.546875 691.9375 367.480469 691.277344 367.480469 L 521.761719 367.480469 C 521.097656 367.480469 520.445312 367.546875 519.792969 367.675781 C 519.144531 367.804688 518.515625 367.996094 517.90625 368.25 C 517.292969 368.5 516.710938 368.8125 516.164062 369.179688 C 515.613281 369.546875 515.101562 369.964844 514.636719 370.433594 C 514.167969 370.902344 513.75 371.410156 513.382812 371.960938 C 513.015625 372.511719 512.703125 373.089844 512.453125 373.703125 C 512.199219 374.3125 512.007812 374.941406 511.878906 375.59375 C 511.75 376.242188 511.683594 376.894531 511.683594 377.558594 L 511.683594 641.90625 C 511.683594 642.570312 511.75 643.222656 511.878906 643.875 C 512.007812 644.523438 512.199219 645.152344 512.453125 645.761719 C 512.703125 646.375 513.015625 646.957031 513.382812 647.503906 C 513.75 648.054688 514.167969 648.566406 514.636719 649.03125 C 515.101562 649.5 515.613281 649.917969 516.164062 650.285156 C 516.710938 650.652344 517.292969 650.964844 517.90625 651.214844 C 518.515625 651.46875 519.144531 651.660156 519.792969 651.789062 C 520.445312 651.917969 521.097656 651.984375 521.761719 651.984375 L 691.277344 651.984375 C 691.9375 651.984375 692.59375 651.917969 693.242188 651.789062 C 693.890625 651.660156 694.519531 651.46875 695.132812 651.214844 C 695.742188 650.964844 696.324219 650.652344 696.875 650.285156 C 697.425781 649.917969 697.933594 649.5 698.402344 649.03125 C 698.867188 648.566406 699.285156 648.054688 699.652344 647.503906 C 700.023438 646.957031 700.332031 646.375 700.585938 645.761719 C 700.839844 645.152344 701.03125 644.523438 701.160156 643.875 C 701.289062 643.222656 701.351562 642.570312 701.351562 641.90625 Z M 627.855469 508.664062 C 627.71875 508.808594 627.613281 508.972656 627.539062 509.15625 C 627.464844 509.34375 627.425781 509.535156 627.425781 509.734375 C 627.425781 509.929688 627.464844 510.125 627.539062 510.308594 C 627.613281 510.492188 627.71875 510.65625 627.855469 510.800781 L 654.527344 537.589844 C 655.226562 538.265625 655.84375 539.015625 656.375 539.828125 C 656.90625 540.644531 657.34375 541.507812 657.679688 542.421875 C 658.019531 543.335938 658.253906 544.273438 658.378906 545.238281 C 658.507812 546.203125 658.527344 547.171875 658.441406 548.140625 C 658.371094 549.09375 658.203125 550.03125 657.933594 550.949219 C 657.660156 551.867188 657.296875 552.746094 656.835938 553.585938 C 656.375 554.421875 655.832031 555.203125 655.203125 555.925781 C 654.574219 556.644531 653.875 557.289062 653.105469 557.859375 C 648.394531 561.257812 643.292969 563.90625 637.804688 565.800781 C 632.3125 567.699219 626.664062 568.765625 620.863281 569.003906 L 618.371094 569.003906 C 616.429688 569.003906 614.496094 568.910156 612.5625 568.71875 C 610.632812 568.527344 608.714844 568.242188 606.808594 567.863281 C 604.90625 567.484375 603.023438 567.015625 601.167969 566.453125 C 599.308594 565.886719 597.484375 565.234375 595.691406 564.492188 C 593.898438 563.75 592.144531 562.921875 590.433594 562.003906 C 588.71875 561.089844 587.058594 560.09375 585.441406 559.015625 C 583.828125 557.9375 582.273438 556.78125 580.769531 555.550781 C 579.269531 554.320312 577.835938 553.015625 576.460938 551.644531 C 575.089844 550.269531 573.785156 548.835938 572.554688 547.332031 C 571.324219 545.832031 570.167969 544.277344 569.089844 542.660156 C 568.011719 541.046875 567.015625 539.386719 566.101562 537.671875 C 565.183594 535.960938 564.355469 534.207031 563.613281 532.414062 C 562.871094 530.621094 562.21875 528.796875 561.652344 526.9375 C 561.089844 525.082031 560.617188 523.199219 560.242188 521.296875 C 559.863281 519.390625 559.578125 517.472656 559.386719 515.542969 C 559.195312 513.609375 559.101562 511.675781 559.101562 509.734375 C 559.101562 507.792969 559.195312 505.855469 559.386719 503.921875 C 559.578125 501.992188 559.863281 500.074219 560.242188 498.167969 C 560.617188 496.265625 561.089844 494.382812 561.652344 492.527344 C 562.21875 490.667969 562.871094 488.84375 563.613281 487.050781 C 564.355469 485.257812 565.183594 483.503906 566.101562 481.792969 C 567.015625 480.082031 568.011719 478.417969 569.089844 476.804688 C 570.167969 475.1875 571.324219 473.632812 572.554688 472.132812 C 573.785156 470.628906 575.089844 469.195312 576.460938 467.820312 C 577.835938 466.449219 579.269531 465.148438 580.769531 463.914062 C 582.273438 462.683594 583.828125 461.527344 585.441406 460.449219 C 587.058594 459.371094 588.71875 458.375 590.433594 457.460938 C 592.144531 456.542969 593.898438 455.714844 595.691406 454.972656 C 597.484375 454.230469 599.308594 453.578125 601.167969 453.011719 C 603.023438 452.449219 604.90625 451.980469 606.808594 451.601562 C 608.714844 451.222656 610.632812 450.9375 612.5625 450.746094 C 614.496094 450.554688 616.429688 450.460938 618.371094 450.460938 C 621.460938 450.441406 624.53125 450.667969 627.582031 451.136719 C 630.636719 451.605469 633.632812 452.3125 636.574219 453.261719 C 639.511719 454.207031 642.359375 455.378906 645.113281 456.777344 C 647.863281 458.179688 650.488281 459.785156 652.988281 461.605469 C 653.769531 462.164062 654.480469 462.804688 655.125 463.523438 C 655.765625 464.242188 656.324219 465.019531 656.792969 465.859375 C 657.265625 466.699219 657.640625 467.578125 657.917969 468.5 C 658.195312 469.421875 658.367188 470.363281 658.441406 471.324219 C 658.523438 472.304688 658.503906 473.277344 658.371094 474.25 C 658.242188 475.226562 658.007812 476.171875 657.671875 477.09375 C 657.332031 478.015625 656.898438 478.890625 656.367188 479.71875 C 655.839844 480.542969 655.226562 481.300781 654.527344 481.992188 Z M 619.441406 500.25 L 646.113281 474.167969 C 646.296875 473.734375 646.296875 473.300781 646.113281 472.867188 C 646.101562 472.40625 645.90625 472.050781 645.519531 471.800781 C 641.59375 468.851562 637.316406 466.570312 632.683594 464.949219 C 628.046875 463.332031 623.277344 462.453125 618.371094 462.316406 C 616.050781 462.355469 613.742188 462.5625 611.449219 462.941406 C 609.15625 463.316406 606.90625 463.859375 604.691406 464.570312 C 602.480469 465.277344 600.332031 466.144531 598.246094 467.167969 C 596.160156 468.191406 594.164062 469.363281 592.25 470.683594 C 590.335938 472 588.53125 473.453125 586.832031 475.035156 C 585.132812 476.621094 583.554688 478.320312 582.105469 480.132812 C 580.65625 481.949219 579.347656 483.859375 578.179688 485.867188 C 577.007812 487.875 575.992188 489.957031 575.132812 492.117188 C 574.269531 494.273438 573.566406 496.480469 573.03125 498.742188 C 572.492188 501 572.121094 503.289062 571.917969 505.601562 C 571.71875 507.917969 571.683594 510.234375 571.824219 512.554688 C 571.960938 514.871094 572.269531 517.167969 572.746094 519.441406 C 573.222656 521.714844 573.863281 523.941406 574.664062 526.121094 C 575.46875 528.304688 576.425781 530.414062 577.539062 532.453125 C 578.652344 534.488281 579.910156 536.4375 581.308594 538.292969 C 582.707031 540.144531 584.238281 541.886719 585.890625 543.515625 C 586.859375 544.488281 587.867188 545.417969 588.917969 546.300781 C 589.964844 547.183594 591.050781 548.019531 592.175781 548.804688 C 593.300781 549.59375 594.457031 550.328125 595.644531 551.011719 C 596.832031 551.695312 598.050781 552.324219 599.292969 552.902344 C 600.539062 553.476562 601.808594 553.996094 603.097656 554.460938 C 604.390625 554.925781 605.699219 555.332031 607.023438 555.675781 C 608.351562 556.023438 609.691406 556.3125 611.042969 556.542969 C 612.394531 556.769531 613.757812 556.9375 615.125 557.046875 C 616.492188 557.152344 617.859375 557.199219 619.230469 557.1875 C 620.601562 557.171875 621.972656 557.097656 623.335938 556.960938 C 624.699219 556.828125 626.058594 556.632812 627.40625 556.375 C 628.753906 556.121094 630.085938 555.804688 631.40625 555.429688 C 632.726562 555.054688 634.023438 554.625 635.304688 554.136719 C 636.585938 553.644531 637.84375 553.101562 639.078125 552.5 C 640.308594 551.898438 641.515625 551.242188 642.6875 550.535156 C 643.863281 549.828125 645.003906 549.066406 646.113281 548.257812 C 646.113281 546.953125 646.113281 546.363281 646.113281 545.886719 L 619.441406 519.214844 C 618.816406 518.59375 618.257812 517.917969 617.769531 517.183594 C 617.277344 516.453125 616.863281 515.679688 616.527344 514.867188 C 616.191406 514.050781 615.933594 513.214844 615.761719 512.351562 C 615.589844 511.484375 615.503906 510.613281 615.503906 509.734375 C 615.503906 508.851562 615.589844 507.980469 615.761719 507.117188 C 615.933594 506.25 616.191406 505.414062 616.527344 504.597656 C 616.863281 503.785156 617.277344 503.011719 617.769531 502.28125 C 618.257812 501.546875 618.816406 500.871094 619.441406 500.25 Z M 600.472656 486.023438 C 600.035156 486.015625 599.601562 486.050781 599.171875 486.128906 C 598.742188 486.207031 598.320312 486.328125 597.914062 486.488281 C 597.507812 486.648438 597.121094 486.847656 596.753906 487.085938 C 596.386719 487.320312 596.042969 487.59375 595.730469 487.898438 C 595.417969 488.203125 595.136719 488.535156 594.886719 488.894531 C 594.640625 489.257812 594.429688 489.636719 594.253906 490.039062 C 594.082031 490.441406 593.953125 490.855469 593.859375 491.285156 C 593.769531 491.710938 593.722656 492.144531 593.714844 492.582031 C 593.710938 493.019531 593.75 493.453125 593.828125 493.882812 C 593.910156 494.3125 594.03125 494.730469 594.195312 495.136719 C 594.359375 495.542969 594.558594 495.929688 594.800781 496.296875 C 595.039062 496.660156 595.3125 497 595.617188 497.3125 C 595.925781 497.625 596.257812 497.90625 596.621094 498.152344 C 596.980469 498.398438 597.363281 498.605469 597.769531 498.773438 C 598.171875 498.945312 598.585938 499.074219 599.015625 499.164062 C 599.445312 499.25 599.875 499.296875 600.3125 499.300781 C 600.75 499.300781 601.183594 499.261719 601.613281 499.179688 C 602.042969 499.097656 602.460938 498.972656 602.867188 498.804688 C 603.273438 498.640625 603.65625 498.4375 604.019531 498.195312 C 604.386719 497.953125 604.722656 497.679688 605.035156 497.371094 C 605.34375 497.0625 605.621094 496.726562 605.863281 496.363281 C 606.109375 496 606.316406 495.617188 606.484375 495.210938 C 606.652344 494.808594 606.777344 494.390625 606.863281 493.960938 C 606.949219 493.535156 606.992188 493.101562 606.992188 492.664062 C 606.992188 492.230469 606.953125 491.804688 606.867188 491.382812 C 606.785156 490.960938 606.660156 490.546875 606.5 490.148438 C 606.335938 489.75 606.136719 489.371094 605.898438 489.011719 C 605.660156 488.652344 605.390625 488.316406 605.089844 488.011719 C 604.789062 487.703125 604.460938 487.425781 604.105469 487.183594 C 603.75 486.941406 603.371094 486.734375 602.976562 486.5625 C 602.582031 486.394531 602.171875 486.261719 601.75 486.171875 C 601.328125 486.082031 600.902344 486.03125 600.472656 486.023438 Z M 630.226562 693.472656 C 630.226562 694.054688 630.199219 694.636719 630.140625 695.214844 C 630.085938 695.796875 630 696.371094 629.886719 696.941406 C 629.773438 697.511719 629.628906 698.078125 629.460938 698.636719 C 629.292969 699.191406 629.097656 699.738281 628.875 700.277344 C 628.652344 700.816406 628.402344 701.34375 628.128906 701.855469 C 627.851562 702.367188 627.554688 702.867188 627.230469 703.351562 C 626.90625 703.835938 626.558594 704.304688 626.191406 704.753906 C 625.820312 705.203125 625.429688 705.636719 625.019531 706.046875 C 624.605469 706.457031 624.175781 706.847656 623.726562 707.21875 C 623.277344 707.589844 622.808594 707.933594 622.324219 708.257812 C 621.839844 708.582031 621.339844 708.878906 620.828125 709.15625 C 620.3125 709.429688 619.789062 709.679688 619.25 709.902344 C 618.710938 710.125 618.164062 710.320312 617.605469 710.488281 C 617.050781 710.660156 616.484375 710.800781 615.914062 710.914062 C 615.34375 711.027344 614.769531 711.113281 614.1875 711.167969 C 613.609375 711.226562 613.027344 711.253906 612.445312 711.253906 C 611.863281 711.253906 611.28125 711.226562 610.703125 711.167969 C 610.125 711.113281 609.546875 711.027344 608.976562 710.914062 C 608.40625 710.800781 607.839844 710.660156 607.285156 710.488281 C 606.726562 710.320312 606.179688 710.125 605.640625 709.902344 C 605.101562 709.679688 604.578125 709.429688 604.0625 709.15625 C 603.550781 708.878906 603.050781 708.582031 602.566406 708.257812 C 602.082031 707.933594 601.617188 707.589844 601.164062 707.21875 C 600.714844 706.847656 600.285156 706.457031 599.871094 706.046875 C 599.460938 705.636719 599.070312 705.203125 598.699219 704.753906 C 598.332031 704.304688 597.984375 703.835938 597.660156 703.351562 C 597.335938 702.867188 597.039062 702.367188 596.765625 701.855469 C 596.488281 701.34375 596.242188 700.816406 596.019531 700.277344 C 595.792969 699.738281 595.597656 699.191406 595.429688 698.636719 C 595.261719 698.078125 595.121094 697.511719 595.003906 696.941406 C 594.890625 696.371094 594.808594 695.796875 594.75 695.214844 C 594.691406 694.636719 594.664062 694.054688 594.664062 693.472656 C 594.664062 692.890625 594.691406 692.308594 594.75 691.730469 C 594.808594 691.152344 594.890625 690.574219 595.003906 690.003906 C 595.121094 689.433594 595.261719 688.867188 595.429688 688.3125 C 595.597656 687.753906 595.792969 687.207031 596.019531 686.667969 C 596.242188 686.128906 596.488281 685.605469 596.765625 685.089844 C 597.039062 684.578125 597.335938 684.078125 597.660156 683.59375 C 597.984375 683.109375 598.332031 682.644531 598.699219 682.191406 C 599.070312 681.742188 599.460938 681.3125 599.871094 680.898438 C 600.285156 680.488281 600.714844 680.097656 601.164062 679.726562 C 601.617188 679.359375 602.082031 679.011719 602.566406 678.6875 C 603.050781 678.363281 603.550781 678.066406 604.0625 677.792969 C 604.578125 677.515625 605.101562 677.269531 605.640625 677.046875 C 606.179688 676.824219 606.726562 676.625 607.285156 676.457031 C 607.839844 676.289062 608.40625 676.148438 608.976562 676.035156 C 609.546875 675.921875 610.125 675.835938 610.703125 675.777344 C 611.28125 675.71875 611.863281 675.691406 612.445312 675.691406 C 613.027344 675.691406 613.609375 675.71875 614.1875 675.777344 C 614.769531 675.835938 615.34375 675.921875 615.914062 676.035156 C 616.484375 676.148438 617.050781 676.289062 617.605469 676.457031 C 618.164062 676.625 618.710938 676.824219 619.25 677.046875 C 619.789062 677.269531 620.3125 677.515625 620.828125 677.792969 C 621.339844 678.066406 621.839844 678.363281 622.324219 678.6875 C 622.808594 679.011719 623.277344 679.359375 623.726562 679.726562 C 624.175781 680.097656 624.605469 680.488281 625.019531 680.898438 C 625.429688 681.3125 625.820312 681.742188 626.191406 682.191406 C 626.558594 682.644531 626.90625 683.109375 627.230469 683.59375 C 627.554688 684.078125 627.851562 684.578125 628.128906 685.089844 C 628.402344 685.605469 628.652344 686.128906 628.875 686.667969 C 629.097656 687.207031 629.292969 687.753906 629.460938 688.3125 C 629.628906 688.867188 629.773438 689.433594 629.886719 690.003906 C 630 690.574219 630.085938 691.152344 630.140625 691.730469 C 630.199219 692.308594 630.226562 692.890625 630.226562 693.472656 Z M 618.371094 693.472656 C 618.371094 693.085938 618.335938 692.699219 618.257812 692.316406 C 618.183594 691.933594 618.070312 691.566406 617.921875 691.207031 C 617.773438 690.84375 617.589844 690.503906 617.375 690.179688 C 617.15625 689.855469 616.910156 689.558594 616.636719 689.28125 C 616.363281 689.007812 616.0625 688.761719 615.738281 688.546875 C 615.414062 688.328125 615.074219 688.144531 614.714844 687.996094 C 614.355469 687.847656 613.984375 687.734375 613.601562 687.660156 C 613.21875 687.585938 612.835938 687.546875 612.445312 687.546875 C 612.054688 687.546875 611.671875 687.585938 611.289062 687.660156 C 610.90625 687.734375 610.535156 687.847656 610.175781 687.996094 C 609.816406 688.144531 609.476562 688.328125 609.152344 688.546875 C 608.828125 688.761719 608.53125 689.007812 608.253906 689.28125 C 607.980469 689.558594 607.734375 689.855469 607.515625 690.179688 C 607.300781 690.503906 607.117188 690.84375 606.96875 691.207031 C 606.820312 691.566406 606.707031 691.933594 606.632812 692.316406 C 606.554688 692.699219 606.519531 693.085938 606.519531 693.472656 C 606.519531 693.863281 606.554688 694.25 606.632812 694.628906 C 606.707031 695.011719 606.820312 695.382812 606.96875 695.742188 C 607.117188 696.101562 607.300781 696.441406 607.515625 696.765625 C 607.734375 697.089844 607.980469 697.390625 608.253906 697.664062 C 608.53125 697.941406 608.828125 698.183594 609.152344 698.402344 C 609.476562 698.617188 609.816406 698.800781 610.175781 698.949219 C 610.535156 699.097656 610.90625 699.210938 611.289062 699.285156 C 611.671875 699.363281 612.054688 699.402344 612.445312 699.402344 C 612.835938 699.402344 613.21875 699.363281 613.601562 699.285156 C 613.984375 699.210938 614.355469 699.097656 614.714844 698.949219 C 615.074219 698.800781 615.414062 698.617188 615.738281 698.402344 C 616.0625 698.183594 616.363281 697.941406 616.636719 697.664062 C 616.910156 697.390625 617.15625 697.089844 617.375 696.765625 C 617.589844 696.441406 617.773438 696.101562 617.921875 695.742188 C 618.070312 695.382812 618.183594 695.011719 618.257812 694.628906 C 618.335938 694.25 618.371094 693.863281 618.371094 693.472656 Z M 748.769531 344.722656 L 748.769531 698.453125 C 748.769531 700.035156 748.691406 701.617188 748.535156 703.191406 C 748.382812 704.769531 748.148438 706.335938 747.839844 707.886719 C 747.53125 709.441406 747.148438 710.976562 746.6875 712.492188 C 746.226562 714.007812 745.695312 715.496094 745.085938 716.960938 C 744.480469 718.425781 743.804688 719.855469 743.058594 721.25 C 742.3125 722.648438 741.5 724.003906 740.617188 725.324219 C 739.738281 726.640625 738.796875 727.910156 737.789062 729.136719 C 736.785156 730.359375 735.722656 731.53125 734.601562 732.652344 C 733.484375 733.773438 732.3125 734.835938 731.085938 735.839844 C 729.863281 736.84375 728.589844 737.785156 727.273438 738.667969 C 725.957031 739.546875 724.601562 740.359375 723.203125 741.105469 C 721.804688 741.851562 720.375 742.53125 718.914062 743.136719 C 717.449219 743.742188 715.960938 744.273438 714.445312 744.734375 C 712.929688 745.195312 711.394531 745.578125 709.839844 745.886719 C 708.285156 746.199219 706.722656 746.429688 705.144531 746.585938 C 703.566406 746.738281 701.988281 746.816406 700.402344 746.816406 L 512.632812 746.816406 C 511.046875 746.816406 509.46875 746.738281 507.890625 746.585938 C 506.316406 746.429688 504.75 746.199219 503.195312 745.886719 C 501.644531 745.578125 500.109375 745.195312 498.59375 744.734375 C 497.078125 744.273438 495.585938 743.742188 494.125 743.136719 C 492.660156 742.53125 491.230469 741.851562 489.832031 741.105469 C 488.4375 740.359375 487.078125 739.546875 485.761719 738.667969 C 484.445312 737.785156 483.175781 736.84375 481.949219 735.839844 C 480.726562 734.835938 479.554688 733.773438 478.433594 732.652344 C 477.3125 731.53125 476.25 730.359375 475.246094 729.136719 C 474.242188 727.910156 473.296875 726.640625 472.417969 725.324219 C 471.539062 724.003906 470.726562 722.648438 469.976562 721.25 C 469.230469 719.855469 468.554688 718.425781 467.949219 716.960938 C 467.34375 715.496094 466.808594 714.007812 466.351562 712.492188 C 465.890625 710.976562 465.503906 709.441406 465.195312 707.886719 C 464.886719 706.335938 464.65625 704.769531 464.5 703.191406 C 464.34375 701.617188 464.265625 700.035156 464.265625 698.453125 L 464.265625 426.753906 L 160.441406 426.753906 C 158.550781 426.75 156.664062 426.703125 154.773438 426.609375 C 152.886719 426.511719 151 426.371094 149.117188 426.1875 C 147.238281 426 145.359375 425.765625 143.488281 425.488281 C 141.621094 425.207031 139.757812 424.882812 137.902344 424.511719 C 136.046875 424.140625 134.203125 423.726562 132.371094 423.265625 C 130.535156 422.804688 128.714844 422.300781 126.90625 421.75 C 125.097656 421.199219 123.300781 420.605469 121.523438 419.96875 C 119.742188 419.328125 117.976562 418.648438 116.230469 417.921875 C 114.484375 417.199219 112.757812 416.433594 111.046875 415.621094 C 109.339844 414.8125 107.648438 413.960938 105.984375 413.070312 C 104.316406 412.179688 102.671875 411.246094 101.050781 410.273438 C 99.429688 409.300781 97.832031 408.289062 96.257812 407.238281 C 94.6875 406.1875 93.140625 405.097656 91.621094 403.972656 C 90.105469 402.84375 88.613281 401.679688 87.152344 400.480469 C 85.691406 399.28125 84.257812 398.046875 82.859375 396.777344 C 81.457031 395.507812 80.089844 394.203125 78.75 392.867188 C 77.414062 391.527344 76.109375 390.160156 74.839844 388.757812 C 73.570312 387.359375 72.335938 385.925781 71.136719 384.464844 C 69.9375 383.003906 68.773438 381.511719 67.644531 379.996094 C 66.519531 378.476562 65.429688 376.929688 64.378906 375.359375 C 63.328125 373.785156 62.316406 372.1875 61.34375 370.566406 C 60.371094 368.945312 59.4375 367.300781 58.546875 365.632812 C 57.65625 363.964844 56.804688 362.277344 55.996094 360.570312 C 55.183594 358.859375 54.417969 357.132812 53.695312 355.386719 C 52.96875 353.640625 52.289062 351.875 51.648438 350.09375 C 51.011719 348.316406 50.417969 346.519531 49.867188 344.710938 C 49.316406 342.902344 48.8125 341.082031 48.351562 339.246094 C 47.890625 337.414062 47.476562 335.570312 47.105469 333.714844 C 46.734375 331.859375 46.410156 329.996094 46.128906 328.128906 C 45.851562 326.257812 45.617188 324.378906 45.429688 322.5 C 45.246094 320.617188 45.105469 318.730469 45.007812 316.84375 C 44.914062 314.953125 44.867188 313.066406 44.863281 311.175781 C 44.863281 308.683594 44.863281 306.078125 44.863281 303.46875 C 44.863281 300.859375 44.863281 298.132812 45.695312 295.527344 C 46.523438 292.917969 46.285156 291.613281 46.640625 289.363281 L 46.640625 287.703125 C 46.640625 285.332031 47.710938 283.199219 48.300781 280.945312 C 48.894531 278.695312 49.488281 276.796875 50.316406 274.308594 C 53.148438 266.070312 56.890625 258.265625 61.535156 250.898438 C 66.179688 243.53125 71.609375 236.792969 77.820312 230.683594 C 80.871094 227.351562 84.191406 224.308594 87.777344 221.554688 C 91.542969 218.496094 95.492188 215.691406 99.617188 213.140625 C 103.746094 210.589844 108.019531 208.316406 112.441406 206.316406 C 116.863281 204.316406 121.394531 202.605469 126.035156 201.1875 C 130.675781 199.773438 135.386719 198.65625 140.171875 197.847656 C 140.324219 195.917969 140.519531 193.992188 140.761719 192.074219 C 141 190.152344 141.285156 188.238281 141.617188 186.332031 C 141.945312 184.425781 142.320312 182.527344 142.738281 180.636719 C 143.15625 178.746094 143.617188 176.867188 144.125 175 C 144.628906 173.132812 145.179688 171.277344 145.773438 169.433594 C 146.363281 167.59375 147 165.765625 147.675781 163.953125 C 148.355469 162.140625 149.074219 160.34375 149.835938 158.5625 C 150.597656 156.785156 151.398438 155.023438 152.242188 153.28125 C 153.085938 151.539062 153.96875 149.816406 154.890625 148.117188 C 155.816406 146.417969 156.777344 144.738281 157.78125 143.082031 C 158.78125 141.425781 159.820312 139.792969 160.898438 138.1875 C 161.976562 136.578125 163.089844 134.996094 164.242188 133.441406 C 165.394531 131.886719 166.582031 130.359375 167.804688 128.859375 C 169.027344 127.359375 170.285156 125.886719 171.574219 124.445312 C 172.867188 123.003906 174.191406 121.59375 175.546875 120.214844 C 176.902344 118.832031 178.292969 117.484375 179.710938 116.171875 C 181.132812 114.855469 182.582031 113.574219 184.0625 112.328125 C 185.539062 111.078125 187.046875 109.867188 188.582031 108.6875 C 190.121094 107.511719 191.683594 106.371094 193.273438 105.265625 C 194.859375 104.160156 196.476562 103.09375 198.113281 102.066406 C 199.753906 101.035156 201.414062 100.042969 203.097656 99.09375 C 204.785156 98.140625 206.492188 97.230469 208.21875 96.355469 C 209.945312 95.484375 211.691406 94.652344 213.460938 93.859375 C 215.226562 93.070312 217.007812 92.320312 218.808594 91.613281 C 220.613281 90.90625 222.429688 90.238281 224.261719 89.617188 C 226.09375 88.992188 227.9375 88.414062 229.796875 87.875 C 231.65625 87.339844 233.527344 86.84375 235.410156 86.394531 C 237.292969 85.945312 239.183594 85.539062 241.085938 85.175781 C 242.988281 84.816406 244.894531 84.496094 246.8125 84.222656 C 248.726562 83.953125 250.648438 83.722656 252.574219 83.539062 C 254.503906 83.355469 256.433594 83.21875 258.363281 83.125 C 260.296875 83.03125 262.230469 82.984375 264.167969 82.980469 C 278.292969 82.960938 292.003906 85.332031 305.300781 90.09375 C 307.757812 86.375 310.355469 82.757812 313.089844 79.242188 C 315.824219 75.722656 318.6875 72.3125 321.683594 69.015625 C 324.675781 65.714844 327.792969 62.535156 331.03125 59.476562 C 334.269531 56.417969 337.621094 53.484375 341.082031 50.679688 C 344.546875 47.878906 348.113281 45.210938 351.777344 42.679688 C 355.445312 40.148438 359.203125 37.761719 363.054688 35.519531 C 366.902344 33.277344 370.832031 31.183594 374.84375 29.242188 C 378.851562 27.296875 382.929688 25.511719 387.078125 23.882812 C 391.222656 22.25 395.425781 20.78125 399.6875 19.472656 C 403.945312 18.164062 408.246094 17.023438 412.59375 16.042969 C 416.941406 15.0625 421.320312 14.253906 425.726562 13.609375 C 430.136719 12.964844 434.5625 12.492188 439.007812 12.1875 C 443.453125 11.878906 447.902344 11.746094 452.359375 11.78125 C 456.8125 11.816406 461.261719 12.023438 465.703125 12.398438 C 470.140625 12.773438 474.558594 13.320312 478.957031 14.035156 C 483.355469 14.75 487.71875 15.628906 492.050781 16.679688 C 496.378906 17.726562 500.664062 18.941406 504.902344 20.316406 C 509.140625 21.691406 513.316406 23.230469 517.4375 24.925781 C 521.558594 26.621094 525.605469 28.472656 529.585938 30.480469 C 533.5625 32.484375 537.460938 34.640625 541.273438 36.945312 C 545.085938 39.25 548.804688 41.695312 552.429688 44.285156 C 556.058594 46.875 559.578125 49.597656 562.996094 52.457031 C 566.414062 55.316406 569.71875 58.300781 572.90625 61.414062 C 576.09375 64.523438 579.160156 67.753906 582.101562 71.097656 C 585.042969 74.445312 587.855469 77.898438 590.53125 81.460938 C 593.207031 85.023438 595.746094 88.679688 598.144531 92.4375 C 600.539062 96.191406 602.792969 100.03125 604.894531 103.960938 C 606.996094 107.890625 608.949219 111.890625 610.746094 115.96875 C 612.542969 120.046875 614.179688 124.183594 615.660156 128.386719 C 617.140625 132.589844 618.457031 136.84375 619.613281 141.144531 C 620.765625 145.449219 621.753906 149.789062 622.578125 154.171875 C 623.398438 158.550781 624.050781 162.953125 624.535156 167.382812 L 628.449219 168.804688 C 631.53125 169.871094 634.613281 171.292969 637.695312 172.714844 C 642.167969 174.8125 646.515625 177.140625 650.734375 179.710938 L 656.1875 183.265625 C 665.070312 189.359375 673.109375 196.414062 680.304688 204.429688 C 687.496094 212.445312 693.644531 221.195312 698.746094 230.683594 C 700.402344 233.765625 701.945312 237.085938 703.367188 240.285156 C 707.921875 250.109375 711.203125 260.34375 713.207031 270.988281 C 713.207031 273.832031 714.15625 277.269531 714.511719 280.707031 C 714.867188 284.144531 714.511719 289.242188 714.511719 293.394531 C 714.628906 295.132812 714.628906 296.871094 714.511719 298.609375 C 715.738281 298.980469 716.949219 299.402344 718.144531 299.867188 C 719.335938 300.335938 720.511719 300.851562 721.664062 301.414062 C 722.816406 301.976562 723.945312 302.582031 725.050781 303.234375 C 726.152344 303.886719 727.230469 304.582031 728.28125 305.320312 C 729.328125 306.058594 730.347656 306.835938 731.332031 307.65625 C 732.320312 308.476562 733.273438 309.332031 734.191406 310.226562 C 735.109375 311.121094 735.992188 312.050781 736.835938 313.019531 C 737.679688 313.984375 738.484375 314.980469 739.25 316.011719 C 740.015625 317.039062 740.738281 318.097656 741.417969 319.1875 C 742.101562 320.273438 742.734375 321.386719 743.328125 322.523438 C 743.917969 323.660156 744.464844 324.820312 744.964844 326.003906 C 745.464844 327.183594 745.914062 328.382812 746.320312 329.601562 C 746.722656 330.816406 747.078125 332.050781 747.382812 333.296875 C 747.6875 334.542969 747.941406 335.796875 748.148438 337.0625 C 748.351562 338.328125 748.507812 339.601562 748.609375 340.878906 C 748.714844 342.160156 748.769531 343.4375 748.769531 344.722656 Z M 512.632812 296.355469 L 690.445312 296.355469 C 690.507812 295.367188 690.507812 294.378906 690.445312 293.394531 C 690.445312 289.835938 690.445312 286.28125 690.445312 282.722656 C 690.3125 280.25 689.996094 277.800781 689.5 275.375 C 688.039062 266.484375 685.511719 257.910156 681.910156 249.652344 C 680.609375 246.925781 679.421875 244.316406 678 241.707031 C 673.839844 234.003906 668.835938 226.898438 662.984375 220.386719 C 657.132812 213.875 650.601562 208.140625 643.386719 203.183594 L 638.40625 199.863281 C 635.03125 197.816406 631.554688 195.957031 627.976562 194.292969 C 625.519531 193.050781 622.988281 191.984375 620.386719 191.089844 C 618.136719 190.140625 615.765625 189.3125 613.511719 188.601562 L 612.328125 188.601562 L 609.363281 187.535156 L 602.726562 185.757812 L 601.65625 177.101562 C 601.410156 173.09375 601.003906 169.097656 600.4375 165.121094 C 599.871094 161.140625 599.148438 157.191406 598.265625 153.273438 C 597.382812 149.351562 596.347656 145.472656 595.15625 141.636719 C 593.964844 137.796875 592.621094 134.015625 591.128906 130.285156 C 589.636719 126.554688 587.996094 122.890625 586.207031 119.289062 C 584.421875 115.691406 582.496094 112.167969 580.425781 108.722656 C 578.359375 105.277344 576.15625 101.921875 573.820312 98.652344 C 571.484375 95.382812 569.023438 92.210938 566.433594 89.140625 C 563.84375 86.066406 561.136719 83.101562 558.308594 80.246094 C 555.484375 77.390625 552.546875 74.652344 549.503906 72.03125 C 546.457031 69.40625 543.3125 66.910156 540.070312 64.539062 C 536.824219 62.171875 533.492188 59.933594 530.070312 57.828125 C 526.644531 55.722656 523.144531 53.761719 519.5625 51.933594 C 515.984375 50.109375 512.335938 48.433594 508.625 46.898438 C 504.910156 45.363281 501.140625 43.980469 497.316406 42.75 C 493.492188 41.519531 489.625 40.441406 485.710938 39.515625 C 481.800781 38.59375 477.859375 37.828125 473.890625 37.21875 C 469.917969 36.609375 465.929688 36.160156 461.921875 35.871094 C 457.914062 35.582031 453.898438 35.453125 449.882812 35.484375 C 445.863281 35.515625 441.851562 35.707031 437.851562 36.058594 C 433.847656 36.40625 429.867188 36.917969 425.902344 37.585938 C 421.941406 38.257812 418.011719 39.082031 414.117188 40.066406 C 410.21875 41.050781 406.371094 42.1875 402.566406 43.476562 C 398.757812 44.769531 395.011719 46.207031 391.320312 47.796875 C 387.632812 49.386719 384.011719 51.125 380.460938 53.003906 C 376.90625 54.882812 373.4375 56.898438 370.046875 59.054688 C 366.65625 61.210938 363.359375 63.5 360.148438 65.921875 C 356.941406 68.339844 353.835938 70.886719 350.832031 73.554688 C 347.828125 76.222656 344.933594 79.003906 342.152344 81.90625 C 339.371094 84.804688 336.707031 87.808594 334.167969 90.921875 C 331.625 94.035156 329.210938 97.242188 326.925781 100.546875 C 324.640625 103.851562 322.488281 107.242188 320.476562 110.71875 L 315.140625 119.847656 L 305.421875 115.578125 C 298.945312 112.636719 292.226562 110.414062 285.273438 108.914062 C 278.316406 107.417969 271.28125 106.675781 264.167969 106.6875 C 262.519531 106.691406 260.871094 106.734375 259.226562 106.816406 C 257.578125 106.898438 255.933594 107.019531 254.296875 107.183594 C 252.65625 107.347656 251.019531 107.550781 249.390625 107.792969 C 247.757812 108.039062 246.136719 108.320312 244.519531 108.644531 C 242.902344 108.96875 241.292969 109.328125 239.695312 109.730469 C 238.097656 110.132812 236.507812 110.574219 234.929688 111.054688 C 233.355469 111.535156 231.789062 112.050781 230.238281 112.609375 C 228.6875 113.164062 227.148438 113.757812 225.625 114.390625 C 224.105469 115.023438 222.597656 115.691406 221.109375 116.394531 C 219.617188 117.101562 218.144531 117.84375 216.691406 118.621094 C 215.238281 119.398438 213.804688 120.210938 212.390625 121.058594 C 210.976562 121.90625 209.585938 122.789062 208.214844 123.707031 C 206.84375 124.621094 205.5 125.570312 204.175781 126.554688 C 202.851562 127.535156 201.550781 128.550781 200.277344 129.597656 C 199.003906 130.640625 197.753906 131.71875 196.535156 132.824219 C 195.3125 133.933594 194.121094 135.070312 192.953125 136.234375 C 191.789062 137.402344 190.652344 138.59375 189.542969 139.816406 C 188.4375 141.035156 187.359375 142.285156 186.316406 143.558594 C 185.269531 144.832031 184.253906 146.132812 183.273438 147.457031 C 182.289062 148.78125 181.339844 150.128906 180.425781 151.496094 C 179.507812 152.867188 178.625 154.261719 177.777344 155.671875 C 176.929688 157.085938 176.117188 158.519531 175.339844 159.972656 C 174.5625 161.429688 173.820312 162.898438 173.113281 164.390625 C 172.410156 165.878906 171.738281 167.386719 171.109375 168.90625 C 170.476562 170.429688 169.882812 171.96875 169.324219 173.519531 C 168.769531 175.070312 168.25 176.636719 167.773438 178.214844 C 167.292969 179.789062 166.851562 181.378906 166.449219 182.976562 C 166.046875 184.574219 165.683594 186.183594 165.363281 187.800781 C 165.039062 189.417969 164.757812 191.039062 164.511719 192.671875 C 164.269531 194.300781 164.066406 195.9375 163.902344 197.578125 C 163.738281 199.21875 163.617188 200.859375 163.535156 202.507812 C 163.449219 204.152344 163.410156 205.800781 163.40625 207.449219 L 163.40625 218.355469 L 152.5 219.777344 C 147.941406 220.148438 143.441406 220.863281 138.992188 221.925781 C 134.546875 222.988281 130.203125 224.386719 125.972656 226.113281 C 121.738281 227.84375 117.664062 229.886719 113.742188 232.242188 C 109.824219 234.597656 106.109375 237.238281 102.59375 240.167969 C 99.839844 242.128906 97.351562 244.378906 95.125 246.925781 C 90.132812 251.785156 85.769531 257.160156 82.042969 263.046875 C 78.320312 268.9375 75.328125 275.179688 73.078125 281.777344 C 72.46875 283.488281 71.957031 285.226562 71.535156 286.992188 C 70.824219 289.363281 70.46875 290.785156 70.113281 292.324219 L 70.113281 293.273438 C 70.113281 293.273438 70.113281 293.984375 70.113281 294.339844 C 70.113281 294.695312 70.113281 297.066406 69.402344 298.84375 C 69.304688 300.820312 69.304688 302.796875 69.402344 304.773438 C 69.402344 306.90625 69.402344 309.039062 69.402344 311.175781 C 69.40625 312.667969 69.441406 314.160156 69.515625 315.65625 C 69.59375 317.148438 69.703125 318.636719 69.851562 320.125 C 69.996094 321.609375 70.179688 323.09375 70.398438 324.570312 C 70.621094 326.050781 70.875 327.523438 71.167969 328.988281 C 71.457031 330.453125 71.785156 331.910156 72.148438 333.359375 C 72.507812 334.8125 72.90625 336.25 73.339844 337.679688 C 73.769531 339.113281 74.238281 340.53125 74.738281 341.9375 C 75.242188 343.347656 75.777344 344.742188 76.347656 346.121094 C 76.917969 347.503906 77.519531 348.871094 78.15625 350.222656 C 78.792969 351.574219 79.460938 352.910156 80.160156 354.230469 C 80.863281 355.550781 81.597656 356.851562 82.359375 358.136719 C 83.125 359.421875 83.921875 360.683594 84.746094 361.929688 C 85.574219 363.175781 86.429688 364.398438 87.316406 365.601562 C 88.203125 366.804688 89.117188 367.988281 90.0625 369.144531 C 91.003906 370.304688 91.976562 371.441406 92.976562 372.550781 C 93.972656 373.664062 95 374.75 96.050781 375.8125 C 97.101562 376.871094 98.179688 377.90625 99.28125 378.917969 C 100.382812 379.925781 101.511719 380.90625 102.660156 381.859375 C 103.8125 382.816406 104.984375 383.742188 106.179688 384.636719 C 107.375 385.535156 108.589844 386.402344 109.828125 387.238281 C 111.066406 388.078125 112.324219 388.882812 113.601562 389.660156 C 114.878906 390.4375 116.171875 391.183594 117.484375 391.894531 C 118.796875 392.609375 120.128906 393.289062 121.476562 393.9375 C 122.820312 394.585938 124.183594 395.203125 125.558594 395.785156 C 126.933594 396.367188 128.324219 396.914062 129.726562 397.429688 C 131.132812 397.941406 132.546875 398.421875 133.972656 398.867188 C 135.398438 399.3125 136.835938 399.722656 138.28125 400.097656 C 139.726562 400.476562 141.183594 400.816406 142.644531 401.117188 C 144.109375 401.421875 145.578125 401.691406 147.054688 401.925781 C 148.53125 402.15625 150.011719 402.355469 151.496094 402.515625 C 152.984375 402.675781 154.472656 402.800781 155.964844 402.890625 C 157.457031 402.976562 158.949219 403.027344 160.441406 403.042969 L 464.265625 403.042969 L 464.265625 344.722656 C 464.085938 342.429688 464.085938 340.136719 464.265625 337.847656 C 464.476562 336.410156 464.75 334.988281 465.085938 333.578125 C 465.421875 332.167969 465.820312 330.777344 466.28125 329.402344 C 466.746094 328.03125 467.265625 326.679688 467.847656 325.351562 C 468.433594 324.023438 469.074219 322.726562 469.773438 321.457031 C 470.46875 320.1875 471.226562 318.949219 472.035156 317.75 C 472.84375 316.546875 473.707031 315.382812 474.621094 314.257812 C 475.535156 313.132812 476.5 312.050781 477.507812 311.011719 C 478.519531 309.972656 479.578125 308.984375 480.675781 308.039062 C 481.777344 307.097656 482.917969 306.203125 484.097656 305.363281 C 485.277344 304.519531 486.492188 303.734375 487.742188 303 C 488.996094 302.269531 490.277344 301.59375 491.585938 300.976562 C 492.898438 300.359375 494.234375 299.800781 495.597656 299.300781 C 496.957031 298.804688 498.339844 298.367188 499.738281 297.996094 C 501.140625 297.621094 502.554688 297.3125 503.980469 297.0625 C 505.410156 296.816406 506.847656 296.632812 508.292969 296.515625 C 509.734375 296.398438 511.183594 296.34375 512.632812 296.355469 Z M 725.0625 344.722656 C 725.058594 343.914062 725.015625 343.109375 724.929688 342.308594 C 724.847656 341.507812 724.726562 340.710938 724.566406 339.917969 C 724.40625 339.128906 724.210938 338.347656 723.972656 337.578125 C 723.738281 336.804688 723.464844 336.046875 723.152344 335.304688 C 722.84375 334.558594 722.496094 333.832031 722.113281 333.121094 C 721.734375 332.410156 721.316406 331.722656 720.871094 331.050781 C 720.421875 330.378906 719.941406 329.734375 719.429688 329.109375 C 718.917969 328.488281 718.375 327.890625 717.804688 327.320312 C 717.234375 326.75 716.636719 326.210938 716.015625 325.699219 C 715.390625 325.1875 714.746094 324.707031 714.074219 324.257812 C 713.40625 323.808594 712.714844 323.390625 712.003906 323.011719 C 711.292969 322.628906 710.566406 322.285156 709.820312 321.972656 C 709.078125 321.664062 708.320312 321.390625 707.546875 321.152344 C 706.777344 320.917969 705.996094 320.71875 705.207031 320.558594 C 704.414062 320.398438 703.621094 320.277344 702.816406 320.195312 C 702.015625 320.113281 701.210938 320.070312 700.402344 320.066406 L 512.632812 320.066406 C 511.828125 320.070312 511.023438 320.113281 510.21875 320.195312 C 509.417969 320.277344 508.621094 320.398438 507.832031 320.558594 C 507.039062 320.71875 506.257812 320.917969 505.488281 321.152344 C 504.71875 321.390625 503.960938 321.664062 503.214844 321.972656 C 502.472656 322.285156 501.742188 322.628906 501.03125 323.011719 C 500.324219 323.390625 499.632812 323.808594 498.960938 324.257812 C 498.292969 324.707031 497.644531 325.183594 497.023438 325.699219 C 496.398438 326.210938 495.800781 326.75 495.230469 327.320312 C 494.660156 327.890625 494.121094 328.488281 493.609375 329.109375 C 493.097656 329.734375 492.617188 330.378906 492.167969 331.050781 C 491.71875 331.722656 491.304688 332.410156 490.921875 333.121094 C 490.539062 333.832031 490.195312 334.558594 489.882812 335.304688 C 489.574219 336.046875 489.300781 336.804688 489.0625 337.578125 C 488.828125 338.347656 488.628906 339.128906 488.46875 339.917969 C 488.308594 340.710938 488.1875 341.507812 488.105469 342.308594 C 488.023438 343.109375 487.980469 343.914062 487.976562 344.722656 L 487.976562 698.453125 C 487.980469 699.257812 488.023438 700.0625 488.105469 700.867188 C 488.1875 701.667969 488.308594 702.464844 488.46875 703.253906 C 488.628906 704.042969 488.828125 704.824219 489.0625 705.597656 C 489.300781 706.367188 489.574219 707.125 489.882812 707.871094 C 490.195312 708.613281 490.539062 709.339844 490.921875 710.050781 C 491.304688 710.761719 491.71875 711.453125 492.167969 712.121094 C 492.617188 712.792969 493.097656 713.441406 493.609375 714.0625 C 494.121094 714.6875 494.660156 715.28125 495.230469 715.851562 C 495.800781 716.421875 496.398438 716.964844 497.023438 717.476562 C 497.644531 717.988281 498.292969 718.46875 498.960938 718.917969 C 499.632812 719.367188 500.324219 719.78125 501.03125 720.164062 C 501.742188 720.542969 502.472656 720.890625 503.214844 721.199219 C 503.960938 721.511719 504.71875 721.785156 505.488281 722.019531 C 506.257812 722.257812 507.039062 722.457031 507.832031 722.617188 C 508.621094 722.777344 509.417969 722.898438 510.21875 722.980469 C 511.023438 723.0625 511.828125 723.105469 512.632812 723.109375 L 700.402344 723.109375 C 701.210938 723.105469 702.015625 723.0625 702.816406 722.980469 C 703.621094 722.898438 704.414062 722.777344 705.207031 722.617188 C 705.996094 722.457031 706.777344 722.257812 707.546875 722.019531 C 708.320312 721.785156 709.078125 721.511719 709.820312 721.199219 C 710.566406 720.890625 711.292969 720.542969 712.003906 720.164062 C 712.714844 719.78125 713.40625 719.367188 714.074219 718.917969 C 714.746094 718.46875 715.390625 717.988281 716.015625 717.476562 C 716.636719 716.964844 717.234375 716.421875 717.804688 715.851562 C 718.375 715.28125 718.917969 714.6875 719.429688 714.0625 C 719.941406 713.441406 720.421875 712.792969 720.871094 712.125 C 721.316406 711.453125 721.734375 710.761719 722.113281 710.050781 C 722.496094 709.339844 722.84375 708.613281 723.152344 707.871094 C 723.464844 707.125 723.738281 706.367188 723.972656 705.597656 C 724.210938 704.824219 724.40625 704.042969 724.566406 703.253906 C 724.726562 702.464844 724.847656 701.667969 724.929688 700.867188 C 725.015625 700.0625 725.058594 699.257812 725.0625 698.453125 Z M 725.0625 344.722656 " fill-opacity="1" fill-rule="nonzero"/><g mask="url(#aa73254561)"><g transform="matrix(1, 0, 0, 1, 49, 165)"><g clip-path="url(#5372082b41)"><g clip-path="url(#d61daa1485)"><path fill="#ffffff" d="M 118.910156 178.773438 C 117.316406 178.769531 115.722656 178.71875 114.132812 178.617188 C 112.539062 178.515625 110.953125 178.367188 109.371094 178.167969 C 107.789062 177.96875 106.210938 177.71875 104.644531 177.421875 C 103.078125 177.125 101.523438 176.78125 99.976562 176.386719 C 98.429688 175.992188 96.898438 175.550781 95.378906 175.0625 C 93.863281 174.574219 92.359375 174.039062 90.875 173.457031 C 89.390625 172.875 87.925781 172.246094 86.476562 171.574219 C 85.03125 170.902344 83.609375 170.183594 82.207031 169.425781 C 80.804688 168.664062 79.425781 167.859375 78.074219 167.011719 C 76.722656 166.167969 75.398438 165.28125 74.101562 164.351562 C 72.804688 163.421875 71.539062 162.453125 70.300781 161.449219 C 69.066406 160.441406 67.859375 159.394531 66.6875 158.316406 C 65.515625 157.234375 64.378906 156.117188 63.273438 154.964844 C 62.171875 153.8125 61.105469 152.625 60.078125 151.40625 C 59.046875 150.191406 58.054688 148.941406 57.105469 147.660156 C 56.152344 146.382812 55.242188 145.074219 54.371094 143.738281 C 53.5 142.398438 52.671875 141.039062 51.882812 139.652344 C 51.097656 138.261719 50.355469 136.851562 49.65625 135.417969 C 48.957031 133.984375 48.304688 132.53125 47.695312 131.058594 C 47.085938 129.582031 46.523438 128.089844 46.007812 126.582031 C 45.492188 125.074219 45.023438 123.546875 44.601562 122.011719 C 44.179688 120.472656 43.804688 118.921875 43.480469 117.359375 C 43.152344 115.800781 42.875 114.230469 42.648438 112.652344 C 42.417969 111.074219 42.238281 109.488281 42.109375 107.898438 C 41.980469 106.308594 41.898438 104.71875 41.867188 103.121094 C 41.835938 101.527344 41.855469 99.933594 41.921875 98.339844 C 41.988281 96.746094 42.105469 95.15625 42.273438 93.570312 C 42.4375 91.984375 42.652344 90.402344 42.917969 88.832031 C 43.179688 87.257812 43.492188 85.695312 43.855469 84.140625 C 44.214844 82.585938 44.625 81.046875 45.082031 79.519531 C 45.535156 77.988281 46.039062 76.476562 46.589844 74.980469 C 47.140625 73.484375 47.738281 72.003906 48.378906 70.542969 C 50.179688 66.386719 52.351562 62.433594 54.898438 58.691406 C 51.277344 60.9375 47.800781 63.386719 44.464844 66.039062 C 41.375 68.542969 38.449219 71.230469 35.695312 74.101562 C 30.285156 79.59375 25.582031 85.636719 21.574219 92.222656 C 17.570312 98.8125 14.375 105.769531 11.984375 113.101562 C 11.164062 115.199219 10.453125 117.332031 9.851562 119.503906 C 9.265625 121.410156 8.792969 123.347656 8.429688 125.308594 C 8.429688 125.308594 8.429688 126.023438 8.429688 126.496094 C 8.429688 126.96875 7.71875 130.527344 7.480469 132.542969 C 7.128906 134.742188 6.890625 136.953125 6.769531 139.179688 C 6.769531 141.550781 6.769531 143.921875 6.769531 146.292969 C 6.773438 147.984375 6.816406 149.675781 6.898438 151.363281 C 6.984375 153.054688 7.109375 154.738281 7.277344 156.421875 C 7.445312 158.105469 7.652344 159.78125 7.902344 161.457031 C 8.152344 163.128906 8.441406 164.792969 8.773438 166.453125 C 9.101562 168.113281 9.472656 169.761719 9.882812 171.402344 C 10.296875 173.042969 10.746094 174.671875 11.238281 176.292969 C 11.730469 177.910156 12.257812 179.515625 12.828125 181.109375 C 13.398438 182.699219 14.007812 184.277344 14.652344 185.839844 C 15.300781 187.402344 15.984375 188.949219 16.707031 190.480469 C 17.429688 192.007812 18.191406 193.519531 18.984375 195.011719 C 19.78125 196.503906 20.613281 197.976562 21.484375 199.425781 C 22.351562 200.878906 23.253906 202.308594 24.191406 203.714844 C 25.132812 205.121094 26.101562 206.503906 27.109375 207.863281 C 28.113281 209.226562 29.152344 210.558594 30.226562 211.867188 C 31.296875 213.175781 32.398438 214.457031 33.53125 215.714844 C 34.667969 216.96875 35.832031 218.195312 37.023438 219.394531 C 38.21875 220.589844 39.441406 221.757812 40.691406 222.898438 C 41.941406 224.035156 43.222656 225.144531 44.527344 226.21875 C 45.832031 227.292969 47.164062 228.335938 48.519531 229.347656 C 49.875 230.359375 51.253906 231.335938 52.660156 232.277344 C 54.0625 233.222656 55.488281 234.128906 56.9375 235.003906 C 58.386719 235.875 59.855469 236.714844 61.34375 237.515625 C 62.832031 238.316406 64.34375 239.082031 65.867188 239.808594 C 67.394531 240.535156 68.9375 241.226562 70.5 241.878906 C 72.058594 242.53125 73.636719 243.144531 75.226562 243.71875 C 76.816406 244.296875 78.421875 244.832031 80.039062 245.328125 C 81.65625 245.824219 83.28125 246.28125 84.921875 246.699219 C 86.5625 247.113281 88.210938 247.492188 89.867188 247.828125 C 91.523438 248.164062 93.1875 248.460938 94.859375 248.714844 C 96.53125 248.96875 98.210938 249.183594 99.894531 249.355469 C 101.574219 249.53125 103.261719 249.660156 104.949219 249.75 C 106.640625 249.84375 108.328125 249.890625 110.019531 249.898438 L 415.265625 249.898438 L 415.265625 185.648438 C 415.085938 183.355469 415.085938 181.066406 415.265625 178.773438 Z M 652.351562 116.65625 C 652.140625 113.707031 651.746094 110.785156 651.167969 107.886719 C 649.546875 98.164062 646.742188 88.800781 642.75 79.789062 C 641.445312 76.707031 640.023438 73.863281 638.484375 71.019531 C 633.894531 62.480469 628.363281 54.605469 621.890625 47.390625 C 615.417969 40.179688 608.183594 33.828125 600.195312 28.34375 L 594.742188 24.785156 C 590.90625 22.472656 586.953125 20.378906 582.886719 18.503906 L 574.234375 14.828125 L 565.34375 11.867188 C 567.953125 14.613281 570.402344 17.496094 572.691406 20.519531 C 575.910156 24.75 578.765625 29.214844 581.253906 33.910156 C 583.742188 38.609375 585.832031 43.476562 587.527344 48.515625 C 589.21875 53.554688 590.492188 58.699219 591.34375 63.945312 C 592.195312 69.191406 592.617188 74.472656 592.605469 79.789062 C 592.597656 84.945312 592.175781 90.066406 591.339844 95.152344 C 590.503906 100.238281 589.265625 105.222656 587.621094 110.109375 C 585.980469 114.996094 583.957031 119.714844 581.550781 124.277344 C 579.148438 128.835938 576.390625 133.171875 573.285156 137.285156 L 652.351562 137.285156 C 652.351562 134.359375 652.351562 131.394531 652.351562 128.394531 C 652.351562 124.480469 652.351562 120.570312 652.351562 116.65625 Z M 634.570312 214.335938 L 480.464844 214.335938 C 480.078125 214.335938 479.691406 214.375 479.308594 214.449219 C 478.929688 214.527344 478.558594 214.636719 478.199219 214.785156 C 477.839844 214.9375 477.496094 215.117188 477.171875 215.335938 C 476.847656 215.550781 476.550781 215.796875 476.273438 216.070312 C 476 216.347656 475.753906 216.648438 475.539062 216.96875 C 475.320312 217.292969 475.140625 217.636719 474.988281 217.996094 C 474.839844 218.355469 474.730469 218.726562 474.652344 219.105469 C 474.578125 219.488281 474.539062 219.875 474.539062 220.261719 L 474.539062 469.203125 C 474.539062 469.589844 474.578125 469.976562 474.652344 470.359375 C 474.726562 470.742188 474.839844 471.109375 474.988281 471.46875 C 475.140625 471.828125 475.320312 472.171875 475.539062 472.496094 C 475.753906 472.820312 476 473.117188 476.273438 473.394531 C 476.550781 473.667969 476.847656 473.914062 477.171875 474.128906 C 477.496094 474.347656 477.839844 474.527344 478.199219 474.679688 C 478.558594 474.828125 478.929688 474.9375 479.308594 475.015625 C 479.691406 475.089844 480.078125 475.128906 480.464844 475.128906 L 634.570312 475.128906 C 634.960938 475.128906 635.34375 475.089844 635.726562 475.015625 C 636.109375 474.941406 636.480469 474.828125 636.839844 474.679688 C 637.199219 474.527344 637.539062 474.347656 637.863281 474.128906 C 638.1875 473.914062 638.488281 473.667969 638.761719 473.394531 C 639.039062 473.117188 639.28125 472.820312 639.5 472.496094 C 639.714844 472.171875 639.898438 471.828125 640.046875 471.46875 C 640.195312 471.109375 640.308594 470.742188 640.382812 470.359375 C 640.460938 469.976562 640.5 469.589844 640.5 469.203125 L 640.5 220.261719 C 640.5 219.875 640.460938 219.488281 640.382812 219.105469 C 640.308594 218.726562 640.195312 218.355469 640.046875 217.996094 C 639.898438 217.636719 639.714844 217.292969 639.5 216.96875 C 639.28125 216.648438 639.039062 216.347656 638.761719 216.070312 C 638.488281 215.796875 638.1875 215.550781 637.863281 215.335938 C 637.539062 215.117188 637.199219 214.9375 636.839844 214.785156 C 636.480469 214.636719 636.109375 214.527344 635.726562 214.449219 C 635.34375 214.375 634.960938 214.335938 634.570312 214.335938 Z M 613.945312 364.171875 C 614.589844 364.816406 615.195312 365.492188 615.769531 366.199219 C 616.339844 366.90625 616.871094 367.644531 617.363281 368.410156 C 617.855469 369.175781 618.304688 369.964844 618.710938 370.78125 C 619.117188 371.59375 619.476562 372.429688 619.792969 373.28125 C 620.109375 374.136719 620.378906 375.003906 620.601562 375.886719 C 620.824219 376.765625 620.996094 377.660156 621.121094 378.558594 C 621.25 379.460938 621.324219 380.367188 621.351562 381.277344 C 621.382812 382.1875 621.359375 383.09375 621.289062 384 C 621.21875 384.910156 621.101562 385.808594 620.933594 386.703125 C 620.765625 387.597656 620.550781 388.480469 620.289062 389.351562 C 620.023438 390.222656 619.714844 391.078125 619.359375 391.914062 C 619.003906 392.753906 618.605469 393.570312 618.160156 394.363281 C 617.71875 395.15625 617.230469 395.925781 616.707031 396.667969 C 616.179688 397.410156 615.613281 398.121094 615.011719 398.800781 C 614.40625 399.484375 613.769531 400.128906 613.09375 400.742188 C 612.421875 401.351562 611.714844 401.925781 610.980469 402.460938 C 608.183594 404.511719 605.25 406.339844 602.183594 407.949219 C 599.113281 409.558594 595.941406 410.929688 592.664062 412.0625 C 589.390625 413.199219 586.050781 414.085938 582.640625 414.71875 C 579.234375 415.355469 575.800781 415.734375 572.335938 415.859375 L 569.371094 415.859375 C 568.207031 415.859375 567.046875 415.828125 565.882812 415.773438 C 564.71875 415.714844 563.558594 415.628906 562.402344 415.515625 C 561.242188 415.402344 560.085938 415.257812 558.9375 415.089844 C 557.785156 414.917969 556.636719 414.71875 555.496094 414.492188 C 554.355469 414.265625 553.21875 414.007812 552.089844 413.726562 C 550.960938 413.445312 549.839844 413.132812 548.726562 412.796875 C 547.613281 412.457031 546.507812 412.09375 545.410156 411.699219 C 544.316406 411.308594 543.230469 410.890625 542.152344 410.445312 C 541.078125 410 540.015625 409.527344 538.960938 409.027344 C 537.910156 408.53125 536.871094 408.007812 535.84375 407.460938 C 534.816406 406.910156 533.804688 406.335938 532.808594 405.738281 C 531.808594 405.140625 530.824219 404.519531 529.855469 403.871094 C 528.890625 403.222656 527.9375 402.554688 527.003906 401.859375 C 526.066406 401.167969 525.152344 400.453125 524.25 399.714844 C 523.351562 398.976562 522.46875 398.214844 521.609375 397.433594 C 520.746094 396.652344 519.902344 395.847656 519.078125 395.027344 C 518.257812 394.203125 517.453125 393.359375 516.671875 392.496094 C 515.890625 391.636719 515.128906 390.753906 514.390625 389.855469 C 513.652344 388.953125 512.9375 388.035156 512.246094 387.101562 C 511.550781 386.167969 510.878906 385.214844 510.234375 384.246094 C 509.585938 383.28125 508.964844 382.296875 508.367188 381.296875 C 507.769531 380.300781 507.195312 379.289062 506.644531 378.261719 C 506.097656 377.234375 505.574219 376.195312 505.074219 375.144531 C 504.578125 374.089844 504.105469 373.027344 503.660156 371.949219 C 503.214844 370.875 502.796875 369.789062 502.40625 368.695312 C 502.011719 367.597656 501.648438 366.492188 501.308594 365.378906 C 500.972656 364.265625 500.660156 363.144531 500.378906 362.015625 C 500.097656 360.886719 499.839844 359.75 499.613281 358.609375 C 499.386719 357.46875 499.1875 356.320312 499.015625 355.167969 C 498.847656 354.015625 498.703125 352.863281 498.589844 351.703125 C 498.476562 350.546875 498.390625 349.386719 498.332031 348.222656 C 498.277344 347.058594 498.246094 345.898438 498.246094 344.734375 C 498.246094 343.570312 498.277344 342.40625 498.332031 341.242188 C 498.390625 340.078125 498.476562 338.917969 498.589844 337.761719 C 498.703125 336.601562 498.847656 335.449219 499.015625 334.296875 C 499.1875 333.144531 499.386719 332 499.613281 330.855469 C 499.839844 329.714844 500.097656 328.578125 500.378906 327.449219 C 500.660156 326.320312 500.972656 325.199219 501.308594 324.085938 C 501.648438 322.972656 502.011719 321.867188 502.40625 320.769531 C 502.796875 319.675781 503.214844 318.589844 503.660156 317.515625 C 504.105469 316.4375 504.578125 315.375 505.074219 314.324219 C 505.574219 313.269531 506.097656 312.230469 506.644531 311.203125 C 507.195312 310.179688 507.769531 309.164062 508.367188 308.167969 C 508.964844 307.167969 509.585938 306.183594 510.234375 305.21875 C 510.878906 304.25 511.550781 303.296875 512.242188 302.363281 C 512.9375 301.429688 513.652344 300.511719 514.390625 299.609375 C 515.128906 298.710938 515.890625 297.832031 516.671875 296.96875 C 517.453125 296.105469 518.257812 295.261719 519.078125 294.4375 C 519.902344 293.617188 520.746094 292.8125 521.609375 292.03125 C 522.46875 291.25 523.351562 290.492188 524.25 289.75 C 525.152344 289.011719 526.066406 288.296875 527.003906 287.605469 C 527.9375 286.910156 528.890625 286.242188 529.855469 285.59375 C 530.824219 284.945312 531.808594 284.324219 532.808594 283.726562 C 533.804688 283.128906 534.816406 282.554688 535.84375 282.003906 C 536.871094 281.457031 537.910156 280.933594 538.960938 280.4375 C 540.015625 279.9375 541.078125 279.464844 542.152344 279.019531 C 543.230469 278.574219 544.316406 278.15625 545.410156 277.765625 C 546.507812 277.371094 547.613281 277.007812 548.726562 276.667969 C 549.839844 276.332031 550.960938 276.023438 552.089844 275.738281 C 553.21875 275.457031 554.355469 275.199219 555.496094 274.972656 C 556.636719 274.746094 557.785156 274.546875 558.9375 274.378906 C 560.085938 274.207031 561.242188 274.0625 562.402344 273.949219 C 563.558594 273.835938 564.71875 273.75 565.882812 273.691406 C 567.046875 273.636719 568.207031 273.605469 569.371094 273.605469 C 573.074219 273.59375 576.753906 273.871094 580.414062 274.441406 C 584.070312 275.011719 587.660156 275.863281 591.183594 277 C 594.707031 278.136719 598.117188 279.546875 601.417969 281.222656 C 604.71875 282.902344 607.867188 284.828125 610.863281 287.003906 C 612.351562 288.058594 613.710938 289.261719 614.933594 290.617188 C 616.160156 291.96875 617.222656 293.441406 618.125 295.027344 C 619.027344 296.617188 619.742188 298.28125 620.277344 300.027344 C 620.8125 301.773438 621.152344 303.554688 621.292969 305.375 C 621.441406 307.203125 621.390625 309.023438 621.140625 310.839844 C 620.890625 312.65625 620.449219 314.425781 619.8125 316.144531 C 619.179688 317.863281 618.367188 319.496094 617.378906 321.039062 C 616.386719 322.582031 615.242188 324 613.945312 325.292969 L 594.503906 344.734375 Z M 613.945312 364.171875 " fill-opacity="1" fill-rule="nonzero"/></g></g></g></g></svg>