<svg id="Layer_1" data-name="Layer 1" xmlns="http://www.w3.org/2000/svg" viewBox="0 0 47 47"><defs><style>.cls-1{fill:#231f20;}</style></defs>
<path
   d="M 23.5,3.34 6,13.42 V 33.66 L 23.5,43.74 41,33.66 V 13.42 Z M 39,32.5 23.5,41.43 8,32.5 V 14.58 L 23.5,5.65 39,14.58 Z"
   id="path1" />
<path
   class="cls-1"
   d="m 32.134616,19.947945 c -0.820722,0 -1.576747,0.276771 -2.180608,0.741647 -1.643842,-1.017218 -3.719014,-1.657023 -5.98948,-1.74209 0,-0.0036 0,-0.006 0,-0.0096 0,-1.521633 1.13104,-2.784468 2.597558,-2.991745 0.265986,1.127446 1.278411,1.967339 2.48733,1.967339 1.411404,0 2.555624,-1.144221 2.555624,-2.555625 0,-1.411403 -1.14422,-2.555623 -2.555624,-2.555623 -1.23408,0 -2.263279,0.874639 -2.502906,2.03803 -2.066784,0.221654 -3.680674,1.974527 -3.680674,4.098823 0,0.0048 0,0.0084 0,0.01318 -2.247702,0.09466 -4.300109,0.734457 -5.929574,1.744486 -0.605059,-0.468472 -1.364677,-0.747636 -2.188994,-0.747636 -1.978122,0 -3.581228,1.603104 -3.581228,3.581228 0,1.435367 0.843488,2.671842 2.061991,3.243353 0.118619,4.157531 4.648768,7.501529 10.221298,7.501529 5.57253,0 10.108673,-3.347592 10.221297,-7.508718 1.20892,-0.575104 2.045218,-1.807987 2.045218,-3.234967 0,-1.978122 -1.603106,-3.581228 -3.581228,-3.581228 z"
   id="path1-3"
    />
<path
   d="m 21.898188,34.162223 c -3.853495,-0.46683 -6.991811,-2.490879 -8.176569,-5.273459 -0.223017,-0.523787 -0.401773,-1.237627 -0.439385,-1.754628 l -0.02815,-0.386954 -0.184502,-0.09005 c -0.101476,-0.04953 -0.309745,-0.184438 -0.46282,-0.299797 -0.685237,-0.516399 -1.145951,-1.244235 -1.340165,-2.117191 -0.10333,-0.464447 -0.07103,-1.255566 0.06951,-1.702475 0.484728,-1.541429 1.81843,-2.543855 3.389701,-2.547739 0.741929,-0.0018 1.351433,0.17259 1.93759,0.554486 l 0.281536,0.183428 0.259757,-0.156411 c 1.407016,-0.847227 3.315534,-1.414681 5.318557,-1.581352 l 0.344747,-0.02869 0.02941,-0.299515 c 0.105325,-1.072659 0.534417,-1.967038 1.286433,-2.68138 0.584303,-0.55503 1.222054,-0.888886 2.005142,-1.049669 l 0.373922,-0.07677 0.09748,-0.288602 c 0.290377,-0.859679 1.00473,-1.493614 1.893312,-1.680174 0.423141,-0.08884 0.661506,-0.08414 1.073188,0.02115 0.484767,0.123982 0.853398,0.331569 1.195713,0.67334 0.62187,0.620881 0.875289,1.455191 0.6972,2.295336 -0.199685,0.94203 -0.971432,1.724178 -1.922512,1.948423 -1.223561,0.288491 -2.558517,-0.471873 -2.938886,-1.673931 -0.07271,-0.229773 -0.07949,-0.236484 -0.212298,-0.210094 -0.467277,0.09285 -1.050573,0.363547 -1.381966,0.641339 -0.654991,0.549051 -1.108335,1.443135 -1.111473,2.192042 l -7.79e-4,0.186041 0.415285,0.03037 c 1.873058,0.136983 3.764085,0.685943 5.207091,1.511602 l 0.392021,0.224307 0.146728,-0.110249 c 0.244714,-0.183876 0.788018,-0.435263 1.150791,-0.532473 0.479275,-0.128428 1.241599,-0.127159 1.734576,0.0029 1.594987,0.420754 2.675981,1.810911 2.674969,3.440005 -4.86e-4,0.782589 -0.209598,1.443849 -0.65316,2.065446 -0.262667,0.368094 -0.760779,0.824717 -1.092555,1.001552 l -0.266568,0.142078 -0.02991,0.325979 c -0.333638,3.63616 -3.891538,6.545495 -8.691287,7.106964 -0.699855,0.08187 -2.346323,0.07907 -3.041673,-0.0052 z"
   id="path3" />
</svg>
