<svg id="Layer_1" data-name="Layer 1" xmlns="http://www.w3.org/2000/svg" viewBox="0 0 47 47"><defs><style>.cls-1{fill:#3FA5E3;}</style></defs><path class="cls-1" d="M28.9,16.17a6.63,6.63,0,0,0,4.31,0c1.17-.47,1.35-1.24,1.35-1.64v-1c0-.41-.19-1.15-1.36-1.63a6.4,6.4,0,0,0-4.29,0c-1.17.48-1.35,1.22-1.35,1.63v1C27.56,14.93,27.73,15.7,28.9,16.17Zm.38-3.36a5.43,5.43,0,0,1,3.53,0c1,.4,1,1,0,1.42a5,5,0,0,1-1.75.28,5.21,5.21,0,0,1-1.79-.29C28.31,13.83,28.3,13.2,29.28,12.81ZM41,13.43,23.5,3.34,6,13.43v7.05l5.32,3.07L6,26.61v7L23.5,43.74,41,33.67V26.61l-5.3-3.06L41,20.5ZM23.5,5.65,39,14.57,23.5,23.48,8,14.57ZM39,32.51,23.5,41.43,8,32.5V28.89l15.5,8.92L39,28.88Zm0-4.76L23.5,36.66,8,27.75l5.29-3.05.6.35-.07,0c-1.17.48-1.35,1.23-1.35,1.64v1c0,.4.17,1.17,1.34,1.64a6.14,6.14,0,0,0,2.16.36,6.13,6.13,0,0,0,2.15-.36,2,2,0,0,0,1.26-1.14l2,1.14h0C20.19,29.84,20,30.59,20,31v1a1.8,1.8,0,0,0,1.34,1.64,6.66,6.66,0,0,0,4.32,0A1.8,1.8,0,0,0,27,32V31c0-.41-.19-1.16-1.35-1.64h0l2-1.16a2,2,0,0,0,1.26,1.16,6.63,6.63,0,0,0,4.31,0c1.17-.47,1.35-1.24,1.35-1.64v-1c0-.41-.19-1.16-1.36-1.64l-.09,0,.58-.33Zm-23.82-2,2.77,1.59-.15.06A5,5,0,0,1,16,27.7a4.94,4.94,0,0,1-1.79-.3c-1-.39-1-1,0-1.41A3.62,3.62,0,0,1,15.15,25.76Zm10.11,4.53c1,.39,1,1,0,1.41a4.72,4.72,0,0,1-1.75.29,5,5,0,0,1-1.79-.3c-1-.39-1-1,0-1.41a4.35,4.35,0,0,1,.88-.23l.9.52.89-.51A4.42,4.42,0,0,1,25.26,30.29Zm6.59-4.53a4.35,4.35,0,0,1,1,.24c1,.39,1,1,0,1.41a5.46,5.46,0,0,1-3.54,0,.69.69,0,0,1-.15-.07ZM39,19.34,23.5,28.26,8,19.33V15.71l15.5,8.93L39,15.71ZM21.34,11.83a6.66,6.66,0,0,0,4.32,0A1.78,1.78,0,0,0,27,10.2v-1c0-.41-.19-1.16-1.35-1.64a6.43,6.43,0,0,0-4.3,0C20.19,8,20,8.79,20,9.2v1A1.78,1.78,0,0,0,21.34,11.83Zm.38-3.36a4.94,4.94,0,0,1,1.75-.28,5.25,5.25,0,0,1,1.79.29c1,.4,1,1,0,1.42a4.94,4.94,0,0,1-1.75.29,5,5,0,0,1-1.79-.3C20.75,9.5,20.75,8.86,21.72,8.47ZM19.5,14.53v-1c0-.41-.19-1.15-1.36-1.63A5.84,5.84,0,0,0,16,11.53a5.86,5.86,0,0,0-2.15.37c-1.17.48-1.35,1.22-1.35,1.63v1c0,.4.17,1.17,1.34,1.64a6.14,6.14,0,0,0,2.16.36,6.13,6.13,0,0,0,2.15-.36C19.32,15.7,19.5,14.93,19.5,14.53Zm-3.48,0a5.17,5.17,0,0,1-1.79-.29c-1-.4-1-1,0-1.42A4.92,4.92,0,0,1,16,12.52a4.94,4.94,0,0,1,1.79.3c1,.4,1,1,0,1.42A5,5,0,0,1,16,14.52ZM21,20.29a1.82,1.82,0,0,0,.37.18,4.15,4.15,0,0,0,.7.2,6.74,6.74,0,0,0,2.92,0,4.15,4.15,0,0,0,.7-.2,1.82,1.82,0,0,0,.37-.18,1.68,1.68,0,0,0,1-1.46v-1c0-.41-.19-1.16-1.35-1.64a6.43,6.43,0,0,0-4.3,0c-1.16.48-1.35,1.23-1.35,1.64v1A1.68,1.68,0,0,0,21,20.29Zm.75-3.18a4,4,0,0,1,1.21-.26,4.89,4.89,0,0,1,.54,0,4.17,4.17,0,0,1,.61,0,3.86,3.86,0,0,1,1.18.26c.57.23.81.54.72.83a1.14,1.14,0,0,1-.71.58,4.94,4.94,0,0,1-1.75.29,5,5,0,0,1-1.79-.3A1.14,1.14,0,0,1,21,18C20.91,17.65,21.15,17.33,21.72,17.11Z"/></svg>
