<svg xmlns="http://www.w3.org/2000/svg" xmlns:xlink="http://www.w3.org/1999/xlink" width="1080" zoomAndPan="magnify" viewBox="0 0 810 809.999993" height="1080" preserveAspectRatio="xMidYMid meet" version="1.0"><defs><clipPath id="ddf4844593"><path d="M 105.261719 56.214844 L 704.511719 56.214844 L 704.511719 753.710938 L 105.261719 753.710938 Z M 105.261719 56.214844 " clip-rule="nonzero"/></clipPath><clipPath id="3f2ad587ca"><path d="M 404.996094 56.214844 L 704.734375 230.605469 L 704.734375 579.390625 L 404.996094 753.78125 L 105.261719 579.390625 L 105.261719 230.605469 Z M 404.996094 56.214844 " clip-rule="nonzero"/></clipPath></defs><g clip-path="url(#ddf4844593)"><g clip-path="url(#3f2ad587ca)"><path stroke-linecap="butt" transform="matrix(0.75, 0, 0, 0.75, 105.260439, 56.212176)" fill="none" stroke-linejoin="miter" d="M 399.647585 0.0035565 L 799.298673 232.524416 L 799.298673 697.571345 L 399.647585 930.092204 L 0.00170633 697.571345 L 0.00170633 232.524416 Z M 399.647585 0.0035565 " stroke="#ffffff" stroke-width="100" stroke-opacity="1" stroke-miterlimit="4"/></g></g><path fill="#ffffff" d="M 402.148438 233.085938 L 403.480469 233.085938 C 435.597656 233.085938 465.65625 241.867188 491.398438 257.15625 L 490.609375 256.710938 C 517.414062 272.382812 539.117188 294.085938 554.347656 320.058594 L 554.789062 320.890625 C 569.6875 346.234375 578.484375 376.703125 578.484375 409.222656 C 578.484375 486.671875 528.589844 552.484375 459.191406 576.234375 L 457.945312 576.609375 C 457.042969 576.894531 456.011719 577.054688 454.953125 577.054688 C 452.632812 577.054688 450.484375 576.277344 448.75 574.988281 L 448.777344 575.003906 C 446.945312 573.355469 445.796875 570.980469 445.796875 568.328125 C 445.796875 568.257812 445.796875 568.183594 445.796875 568.128906 L 445.796875 568.140625 C 445.796875 567.683594 445.835938 561.828125 445.914062 550.578125 C 445.988281 539.328125 446.027344 529.042969 446.027344 519.71875 C 446.128906 518.644531 446.183594 517.414062 446.183594 516.152344 C 446.183594 504.808594 441.558594 494.550781 434.09375 487.144531 C 442.949219 486.269531 450.941406 484.808594 458.707031 482.773438 L 457.617188 483.015625 C 465.828125 480.726562 472.988281 477.671875 479.636719 473.820312 L 479.191406 474.0625 C 486.46875 470.050781 492.628906 464.953125 497.703125 458.90625 L 497.789062 458.804688 C 503.117188 451.988281 507.285156 443.964844 509.820312 435.242188 L 509.949219 434.738281 C 512.945312 424.953125 514.664062 413.707031 514.664062 402.0625 C 514.664062 401.417969 514.664062 400.757812 514.648438 400.113281 L 514.648438 400.214844 C 514.648438 399.898438 514.664062 399.539062 514.664062 399.183594 C 514.664062 381.304688 507.757812 365.042969 496.484375 352.910156 L 496.527344 352.953125 C 498.933594 346.648438 500.324219 339.371094 500.324219 331.765625 C 500.324219 322.464844 498.246094 313.671875 494.535156 305.777344 L 494.691406 306.148438 C 493.046875 305.835938 491.167969 305.648438 489.234375 305.648438 C 484.449219 305.648438 479.9375 306.765625 475.925781 308.742188 L 476.097656 308.671875 C 467.960938 311.679688 461 315.089844 454.4375 319.070312 L 454.980469 318.757812 L 446.257812 324.257812 C 433.046875 320.476562 417.878906 318.296875 402.203125 318.296875 C 386.53125 318.296875 371.359375 320.476562 356.976562 324.542969 L 358.136719 324.257812 C 355.691406 322.578125 352.441406 320.507812 348.382812 318.054688 C 343.039062 314.988281 336.722656 312.023438 330.160156 309.53125 L 329.214844 309.214844 C 325.015625 307.007812 320.046875 305.71875 314.757812 305.71875 C 312.984375 305.71875 311.234375 305.863281 309.542969 306.148438 L 309.730469 306.121094 C 306.179688 313.628906 304.101562 322.4375 304.101562 331.734375 C 304.101562 339.34375 305.492188 346.632812 308.039062 353.351562 L 307.898438 352.9375 C 296.652344 365.027344 289.761719 381.289062 289.761719 399.167969 C 289.761719 399.527344 289.761719 399.898438 289.773438 400.257812 L 289.773438 400.199219 C 289.761719 400.757812 289.761719 401.402344 289.761719 402.0625 C 289.761719 413.652344 291.480469 424.855469 294.6875 435.398438 L 294.472656 434.582031 C 297.179688 443.792969 301.292969 451.800781 306.652344 458.835938 L 306.523438 458.648438 C 311.59375 464.878906 317.726562 470.007812 324.671875 473.863281 L 324.988281 474.019531 C 331.175781 477.628906 338.355469 480.683594 345.902344 482.816406 L 346.5625 482.972656 C 353.238281 484.765625 361.234375 486.226562 369.414062 487.042969 L 370.070312 487.101562 C 363.898438 493.230469 359.785156 501.425781 358.839844 510.566406 L 358.824219 510.738281 C 355.859375 512.183594 352.40625 513.359375 348.8125 514.117188 L 348.511719 514.175781 C 344.84375 514.90625 340.644531 515.324219 336.335938 515.324219 C 336.019531 515.324219 335.703125 515.324219 335.386719 515.324219 L 335.429688 515.324219 C 329.785156 515.207031 324.601562 513.375 320.316406 510.335938 L 320.402344 510.394531 C 315.089844 506.683594 310.789062 501.871094 307.78125 496.269531 L 307.683594 496.054688 C 304.84375 491.242188 301.105469 487.257812 296.679688 484.207031 L 296.550781 484.121094 C 293.328125 481.699219 289.53125 479.808594 285.433594 478.675781 L 285.203125 478.621094 L 280.621094 477.933594 C 280.289062 477.902344 279.902344 477.890625 279.515625 477.890625 C 277.511719 477.890625 275.605469 478.289062 273.871094 478.992188 L 273.972656 478.949219 C 272.75 479.636719 272.367188 480.515625 272.828125 481.585938 C 273.386719 482.816406 274.074219 483.875 274.90625 484.808594 L 274.890625 484.792969 C 275.765625 485.824219 276.753906 486.726562 277.828125 487.515625 L 277.871094 487.542969 L 279.472656 488.691406 C 283.527344 490.8125 286.867188 493.761719 289.402344 497.328125 L 289.460938 497.414062 C 292.195312 500.808594 294.601562 504.648438 296.535156 508.761719 L 296.679688 509.105469 L 298.972656 514.375 C 300.90625 520.136719 304.414062 524.949219 309 528.429688 L 309.070312 528.488281 C 313.371094 531.839844 318.554688 534.246094 324.214844 535.335938 L 324.445312 535.363281 C 329.171875 536.28125 334.671875 536.855469 340.289062 536.96875 L 340.386719 536.96875 C 341.03125 536.996094 341.777344 536.996094 342.539062 536.996094 C 346.277344 536.996094 349.945312 536.695312 353.523438 536.109375 L 353.136719 536.167969 L 358.410156 535.25 C 358.410156 541.066406 358.449219 547.835938 358.523438 555.5625 C 358.601562 563.289062 358.640625 567.460938 358.640625 568.070312 L 358.640625 568.269531 C 358.640625 570.921875 357.492188 573.300781 355.660156 574.945312 L 355.644531 574.945312 C 353.941406 576.222656 351.804688 576.996094 349.472656 576.996094 C 348.398438 576.996094 347.363281 576.839844 346.40625 576.539062 L 346.476562 576.550781 C 275.863281 552.355469 226.011719 486.542969 226.011719 409.082031 C 226.011719 376.589844 234.777344 346.148438 250.09375 319.988281 L 249.632812 320.820312 C 265.304688 294.015625 287.011719 272.3125 312.984375 257.082031 L 313.8125 256.640625 C 338.726562 241.824219 368.753906 233.074219 400.816406 233.074219 L 402.21875 233.074219 L 402.148438 233.074219 Z M 292.695312 486.167969 C 293.15625 485.097656 292.621094 484.183594 291.09375 483.417969 C 289.566406 482.960938 288.570312 483.113281 288.113281 483.875 C 287.65625 484.945312 288.1875 485.863281 289.71875 486.628906 C 291.09375 487.542969 292.085938 487.390625 292.695312 486.167969 Z M 299.816406 493.976562 C 300.886719 493.210938 300.734375 491.988281 299.359375 490.308594 C 297.832031 488.933594 296.609375 488.703125 295.691406 489.621094 C 294.621094 490.386719 294.773438 491.609375 296.148438 493.289062 C 297.667969 494.789062 298.890625 495.011719 299.816406 493.960938 Z M 306.695312 504.292969 C 308.070312 503.222656 308.070312 501.769531 306.695312 499.9375 C 305.472656 497.949219 304.171875 497.492188 302.796875 498.5625 C 301.421875 499.324219 301.421875 500.699219 302.796875 502.6875 C 304.171875 504.671875 305.472656 505.207031 306.695312 504.292969 Z M 316.320312 513.933594 C 317.542969 512.710938 317.238281 511.257812 315.402344 509.578125 C 313.570312 507.742188 312.042969 507.515625 310.820312 508.890625 C 309.445312 510.113281 309.75 511.5625 311.738281 513.246094 C 313.570312 515.078125 315.097656 515.289062 316.320312 513.875 Z M 329.398438 519.664062 C 329.859375 517.980469 328.867188 516.757812 326.421875 515.996094 C 324.128906 515.382812 322.675781 515.917969 322.066406 517.601562 C 321.453125 519.28125 322.449219 520.425781 325.046875 521.039062 C 327.335938 521.964844 328.789062 521.507812 329.398438 519.664062 Z M 343.855469 520.808594 C 343.855469 518.824219 342.554688 517.980469 339.957031 518.289062 C 337.511719 518.289062 336.292969 519.128906 336.292969 520.808594 C 336.292969 522.796875 337.589844 523.636719 340.1875 523.332031 C 342.632812 523.339844 343.855469 522.503906 343.855469 520.824219 Z M 357.164062 518.515625 C 356.859375 516.835938 355.484375 516.148438 353.039062 516.453125 C 350.59375 516.914062 349.523438 518.058594 349.828125 519.890625 C 350.132812 521.726562 351.511719 522.335938 353.953125 521.726562 C 356.398438 521.113281 357.472656 520.046875 357.179688 518.515625 Z M 357.164062 518.515625 " fill-opacity="1" fill-rule="nonzero"/></svg>