<svg xmlns="http://www.w3.org/2000/svg" xmlns:xlink="http://www.w3.org/1999/xlink" width="1080" zoomAndPan="magnify" viewBox="0 0 810 809.999993" height="1080" preserveAspectRatio="xMidYMid meet" version="1.0"><defs><clipPath id="1b4ee9bf0f"><path d="M 105.261719 56.214844 L 704.511719 56.214844 L 704.511719 753.710938 L 105.261719 753.710938 Z M 105.261719 56.214844 " clip-rule="nonzero"/></clipPath><clipPath id="2790a6c5e8"><path d="M 404.996094 56.214844 L 704.734375 230.605469 L 704.734375 579.390625 L 404.996094 753.78125 L 105.261719 579.390625 L 105.261719 230.605469 Z M 404.996094 56.214844 " clip-rule="nonzero"/></clipPath><clipPath id="9e06b64903"><path d="M 178.742188 187.445312 L 630.992188 187.445312 L 630.992188 622.445312 L 178.742188 622.445312 Z M 178.742188 187.445312 " clip-rule="nonzero"/></clipPath></defs><g clip-path="url(#1b4ee9bf0f)"><g clip-path="url(#2790a6c5e8)"><path stroke-linecap="butt" transform="matrix(0.75, 0, 0, 0.75, 105.260439, 56.212176)" fill="none" stroke-linejoin="miter" d="M 399.647585 0.0035565 L 799.298673 232.524416 L 799.298673 697.571345 L 399.647585 930.092204 L 0.00170633 697.571345 L 0.00170633 232.524416 Z M 399.647585 0.0035565 " stroke="#ffffff" stroke-width="100" stroke-opacity="1" stroke-miterlimit="4"/></g></g><g clip-path="url(#9e06b64903)"><path fill="#f0f2f6" d="M 623.367188 440.988281 L 549.261719 398.367188 L 549.261719 483.609375 L 482.785156 445.375 L 482.785156 360.128906 L 408.679688 317.507812 L 408.679688 241.035156 L 482.78125 283.65625 L 482.785156 198.410156 L 549.261719 236.648438 L 549.261719 321.890625 L 623.367188 364.515625 Z M 556.886719 483.609375 L 556.886719 411.523438 L 619.554688 447.566406 Z M 549.261719 568.855469 L 486.597656 532.8125 L 549.261719 496.769531 Z M 478.96875 613.671875 L 404.867188 571.050781 L 330.761719 613.671875 L 264.285156 575.433594 L 338.390625 532.8125 L 264.285156 490.1875 L 330.761719 451.953125 L 404.867188 494.574219 L 478.96875 451.953125 L 545.449219 490.1875 L 471.34375 532.8125 L 545.449219 575.433594 Z M 190.179688 447.566406 L 252.84375 411.523438 L 252.84375 483.609375 Z M 397.242188 234.453125 L 334.574219 270.496094 L 334.574219 198.410156 Z M 334.574219 368.902344 L 401.054688 407.136719 L 401.054688 483.609375 L 334.574219 445.375 Z M 471.34375 362.320312 L 404.867188 400.558594 L 338.390625 362.320312 L 404.867188 324.085938 Z M 556.886719 317.507812 L 556.886719 232.261719 L 478.96875 187.445312 L 404.867188 230.066406 L 330.761719 187.445312 L 252.84375 232.261719 L 252.84375 317.507812 L 178.742188 360.128906 L 178.742188 449.761719 L 252.84375 492.382812 L 252.84375 577.628906 L 330.761719 622.441406 L 404.867188 579.820312 L 478.96875 622.441406 L 556.886719 577.625 L 556.886719 492.382812 L 630.992188 449.761719 L 630.992188 360.128906 Z M 556.886719 317.507812 " fill-opacity="1" fill-rule="nonzero"/></g></svg>