<svg xmlns="http://www.w3.org/2000/svg" xmlns:xlink="http://www.w3.org/1999/xlink" width="1080" zoomAndPan="magnify" viewBox="0 0 810 809.999993" height="1080" preserveAspectRatio="xMidYMid meet" version="1.0"><defs><clipPath id="9302dd10c9"><path d="M 105.261719 56.214844 L 704.511719 56.214844 L 704.511719 753.710938 L 105.261719 753.710938 Z M 105.261719 56.214844 " clip-rule="nonzero"/></clipPath><clipPath id="698a28bf61"><path d="M 404.996094 56.214844 L 704.734375 230.605469 L 704.734375 579.390625 L 404.996094 753.78125 L 105.261719 579.390625 L 105.261719 230.605469 Z M 404.996094 56.214844 " clip-rule="nonzero"/></clipPath><clipPath id="9ba057c017"><path d="M 202.320312 266.417969 L 607.320312 266.417969 L 607.320312 543.917969 L 202.320312 543.917969 Z M 202.320312 266.417969 " clip-rule="nonzero"/></clipPath></defs><g clip-path="url(#9302dd10c9)"><g clip-path="url(#698a28bf61)"><path stroke-linecap="butt" transform="matrix(0.75, 0, 0, 0.75, 105.260439, 56.213242)" fill="none" stroke-linejoin="miter" d="M 399.647585 0.0021357 L 799.298673 232.522996 L 799.298673 697.569924 L 399.647585 930.090784 L 0.00170633 697.569924 L 0.00170633 232.522996 Z M 399.647585 0.0021357 " stroke="#ffffff" stroke-width="100" stroke-opacity="1" stroke-miterlimit="4"/></g></g><g clip-path="url(#9ba057c017)"><path fill="#ffffff" d="M 590.464844 293.152344 C 579.484375 273.707031 567.5625 270.140625 543.308594 268.777344 C 519.070312 267.140625 458.125 266.457031 405.332031 266.457031 C 352.433594 266.457031 291.464844 267.136719 267.253906 268.746094 C 243.050781 270.140625 230.816406 273.6875 219.738281 293.152344 C 208.425781 312.566406 202.320312 346.007812 202.320312 404.882812 L 202.320312 405.085938 C 202.320312 463.703125 208.425781 497.394531 219.738281 516.609375 C 230.816406 536.050781 242.875 539.578125 267.085938 541.210938 C 291.320312 542.621094 352.359375 543.457031 405.257812 543.457031 C 458.050781 543.457031 519.027344 542.621094 543.289062 541.238281 C 567.550781 539.601562 579.484375 536.074219 590.46875 516.636719 C 601.875 497.421875 607.671875 463.730469 607.671875 405.105469 L 607.671875 404.90625 C 607.671875 346.007812 601.894531 312.566406 590.464844 293.152344 Z M 354.328125 480.503906 L 354.328125 329.414062 L 480.8125 404.957031 Z M 354.328125 480.503906 " fill-opacity="1" fill-rule="nonzero"/></g></svg>