<?xml version="1.0" encoding="UTF-8" standalone="no"?>
<svg
   id="Layer_1"
   data-name="Layer 1"
   viewBox="0 0 47 47"
   version="1.1"
   sodipodi:docname="icons-discord.svg"
   inkscape:version="1.4.3 (0d15f75042, 2025-12-25)"
   xml:space="preserve"
   xmlns:inkscape="http://www.inkscape.org/namespaces/inkscape"
   xmlns:sodipodi="http://sodipodi.sourceforge.net/DTD/sodipodi-0.dtd"
   xmlns="http://www.w3.org/2000/svg"
   xmlns:svg="http://www.w3.org/2000/svg"><sodipodi:namedview
     id="namedview1"
     pagecolor="#505050"
     bordercolor="#ffffff"
     borderopacity="1"
     inkscape:showpageshadow="0"
     inkscape:pageopacity="0"
     inkscape:pagecheckerboard="1"
     inkscape:deskcolor="#505050"
     inkscape:zoom="16.865249"
     inkscape:cx="23.420941"
     inkscape:cy="26.059503"
     inkscape:window-width="2560"
     inkscape:window-height="1371"
     inkscape:window-x="0"
     inkscape:window-y="0"
     inkscape:window-maximized="1"
     inkscape:current-layer="Layer_1" /><defs
     id="defs1"><style
       id="style1">.cls-1{fill:#231f20;}</style></defs><path
     d="M 23.5,3.34 6,13.42 V 33.66 L 23.5,43.74 41,33.66 V 13.42 Z M 39,32.5 23.5,41.43 8,32.5 V 14.58 L 23.5,5.65 39,14.58 Z"
     style="fill:#231f20;fill-rule:nonzero"
     id="path1" /><style
     id="style3"
     type="text/css">
    .st2{fill:#282828}
  </style><style
     id="style3-6"
     type="text/css">
    .st0{fill:red}.st1{fill:#fff}.st2{fill:#282828}
  </style><g
     id="g5-2"
     transform="matrix(0.22551175,0,0,0.22551175,9.7734009,14.008553)"
     style="fill:#231f20;fill-opacity:1">
    <path
   id="path7-9"
   fill="#ffffff"
   fill-opacity="1"
   d="m 35.705078,0 c 0,0 -22.351218,1.149e-4 -27.939453,1.4707031 -3,0.8235294 -5.4713925,3.2946921 -6.2949219,6.3535157 C 1.149e-4,13.412454 0,25 0,25 0,25 1.149e-4,36.64637 1.4707031,42.175781 2.2942325,45.234605 4.7068015,47.647174 7.765625,48.470703 13.412684,50.000115 35.705078,50 35.705078,50 c 0,0 22.353171,-1.15e-4 27.941406,-1.470703 3.058824,-0.82353 5.471393,-3.236098 6.294922,-6.294922 1.470588,-5.588235 1.470703,-17.175781 1.470703,-17.175781 0,0 0.05871,-11.64614 -1.470703,-17.2343752 C 69.117877,4.7653952 66.705308,2.3528263 63.646484,1.5292969 58.058249,-1.1488e-4 35.705078,0 35.705078,0 Z M 28.587891,14.294922 47.175781,25 28.587891,35.705078 Z"
   transform="scale(1.7)"
   style="fill:#231f20;fill-opacity:1" />
  </g></svg>
