<svg xmlns="http://www.w3.org/2000/svg" viewBox="0 0 115 93"><defs><style>.cls-1{fill:#5bc0ff}.cls-1,.cls-3{opacity:.2}.cls-2,.cls-3{fill:#39a4e6}</style></defs><title>img_assets-on-light</title><g id="Layer_15" data-name="Layer 15"><path class="cls-1" d="M104.21 22.48a2 2 0 0 1 .29 1 2 2 0 0 1 .15-.77z"/><path class="cls-2" d="M76.91 5.09a.5.5 0 0 1 .18-.68l6.6-3.84a4.32 4.32 0 0 1 4.3 0l7.87 4.56a.5.5 0 1 1-.5.87l-7.87-4.56a3.28 3.28 0 0 0-3.3 0l-6.6 3.84a.5.5 0 0 1-.68-.19zM91.5 20.5a1 1 0 1 0 1-1 1 1 0 0 0-1 1zm3-12a1 1 0 1 0 1-1 1 1 0 0 0-1 1zM68 8.5a2.5 2.5 0 1 1 2.5 2.5A2.5 2.5 0 0 1 68 8.5zm1 0A1.5 1.5 0 1 0 70.5 7 1.5 1.5 0 0 0 69 8.5zm19.5 13a1 1 0 1 0-1-1 1 1 0 0 0 1 1zm-4-13a1 1 0 1 0-1 1 1 1 0 0 0 1-1zm-4 0a1 1 0 1 0-1 1 1 1 0 0 0 1-1zm0 13a1 1 0 1 0-1-1 1 1 0 0 0 1 1zm4 0a1 1 0 1 0-1-1 1 1 0 0 0 1 1zm-9-.75a1 1 0 0 0 1 .75.72.72 0 0 0 .25 0 1 1 0 1 0-1.22-.71zm27 19.94a1 1 0 0 0 1 .81h.19a1 1 0 0 0-.4-2 1 1 0 0 0-.77 1.19zm4.42-29.23a1 1 0 0 0 .67-.26 1 1 0 1 0-1.41-.06 1 1 0 0 0 .76.32zm-3.39 8.85a1 1 0 0 0 1 .7 1 1 0 0 0 .3 0 1 1 0 1 0-1.25-.65zm4-6.24a1 1 0 0 0 1 .93h.07a1 1 0 1 0-1.07-.93zm1 19.43a1 1 0 1 0 1 1 1 1 0 0 0-1.03-1zm0-4a1 1 0 1 0 1 1 1 1 0 0 0-1.03-1zm-.2-11.08a1 1 0 0 0-1.66-1.12 1 1 0 0 0 .27 1.39.94.94 0 0 0 .56.17 1 1 0 0 0 .83-.43zm-5-8.85h.17a1 1 0 0 0 .16-2 1 1 0 0 0-1.15.82 1 1 0 0 0 .82 1.18zM99.5 20.5a1 1 0 1 0 1-1 1 1 0 0 0-1 1zm0-11a1 1 0 1 0-1-1 1 1 0 0 0 1 1zm.64 34.85a.92.92 0 0 0 .36.07 1 1 0 1 0-.36-.07zm2.35-16.85a1 1 0 0 0 .33 0 1 1 0 1 0-.33 0zm-4 0a1 1 0 0 0 .33 0 1 1 0 1 0-.33 0zm-3-7a1 1 0 1 0 1-1 1 1 0 0 0-.99 1zm5 26a1 1 0 1 0 1 1 1 1 0 0 0-.99-1zm0 4a1 1 0 1 0 1 1 1 1 0 0 0-.99-1zm-12-42a1 1 0 1 0-1 1 1 1 0 0 0 1.01-1zM75.26 77.09c6.47 8.3 5.52 9.25 4.9 9.87a1.42 1.42 0 0 1-1 .4c-3.08 0-15.31-10.09-24.37-19.15-5-5-8-8.45-9.34-10.88a7.23 7.23 0 0 1-.9-2.36l-.26-.26L42 52.46l-.15-.15a5.79 5.79 0 0 1-1.54.22 7 7 0 0 1-4.9-2.11c-4-4-6.08-12.25-2.81-15.52.2-.2.5-.5.88-.37s.4.48.44.82a5.07 5.07 0 0 0 1.64 3.29A5.66 5.66 0 0 0 38.88 40a8 8 0 0 1 4.74 2.17 6.68 6.68 0 0 1 1.89 6.43l.15.15L47.91 51l.26.26c1.9.3 5.11 2.14 13.23 10.27a177.89 177.89 0 0 1 13.86 15.56zM42 51l2.25-2.25.26-.26a5.73 5.73 0 0 0-1.59-5.62A7.08 7.08 0 0 0 38.7 41a6.61 6.61 0 0 1-3.85-1.67A6.08 6.08 0 0 1 33 36c-2.19 2.91-.66 10 3.13 13.74a5.69 5.69 0 0 0 5.61 1.6zm5.17.67L45 49.5l-2.3 2.25.77.77L44.92 54zM60.7 62.25c-7.13-7.13-10.63-9.59-12.62-10l-.17.17-2.25 2.25-.17.17c.37 2 2.83 5.49 10 12.62 9.84 9.84 21.31 18.86 23.67 18.86a.41.41 0 0 0 .33-.11C80.7 85 71.16 72.71 60.7 62.25zM91.5 9.5a1 1 0 1 0-1-1 1 1 0 0 0 1 1zM64.11 59.92a.5.5 0 0 0 .35-.15l3-3a.5.5 0 0 0-.71-.71l-3 3a.5.5 0 0 0 .35.85zm-6.68-5a.5.5 0 1 0 .71.71l4-4c.68-.68.3-2 0-3l-.08-.31a8.37 8.37 0 0 1-.11-4 6.91 6.91 0 0 1 1.86-3.42l3.07-3.07a5.93 5.93 0 0 1 5.56-1.43l1.56.4-6.3 6.32a2 2 0 0 0-.47 2.1L69 50.28a2 2 0 0 0 1.23 1.23l5.06 1.79a2 2 0 0 0 2.1-.47l6.32-6.32.42 1.55a5.93 5.93 0 0 1-1.43 5.56l-3.95 3.95a5.07 5.07 0 0 1-4.89 1.31l-1.77-.47c-1.27-.34-2.58-.62-3.23 0l-3.39 3.39a.5.5 0 1 0 .71.71l3.39-3.39c.14-.14.64-.21 2.27.22l1.77.47a6.07 6.07 0 0 0 5.85-1.57l3.95-3.95a7 7 0 0 0 1.69-6.53l-.54-2a.73.73 0 0 0-1.22-.33l-6.64 6.69a1 1 0 0 1-1.06.24l-5.06-1.79a1 1 0 0 1-.62-.62l-1.79-5.06a1 1 0 0 1 .24-1.06l6.65-6.65a.73.73 0 0 0-.33-1.18l-2-.54a7 7 0 0 0-6.53 1.69l-3.07 3.07A8 8 0 0 0 61 44.08a9.37 9.37 0 0 0 .12 4.46l.09.32c.12.43.5 1.75.23 2zm7-1.83a.5.5 0 0 0-.71 0l-3 3a.5.5 0 1 0 .71.71l3-3a.5.5 0 0 0 .03-.73zm27.98-24.16a1 1 0 1 0-1.34.47 1 1 0 0 0 .43.1 1 1 0 0 0 .91-.57zm-29.8 29.49a.5.5 0 0 0 .35-.15l3-3a.5.5 0 0 0-.71-.71l-3 3a.5.5 0 0 0 .35.85zm25.25-25.7L59.64 16.59a4.32 4.32 0 0 0-4.27 0L27.14 32.72A4.24 4.24 0 0 0 25 36.39v32.26a4.24 4.24 0 0 0 2.14 3.67l5.19 3a.51.51 0 0 0 .68-.19.5.5 0 0 0-.19-.68l-5.19-3a3.24 3.24 0 0 1-1.63-2.8V36.39a3.24 3.24 0 0 1 1.64-2.8l28.22-16.14a3.31 3.31 0 0 1 3.28 0l28.22 16.13A3.24 3.24 0 0 1 89 36.39v32.26a3.24 3.24 0 0 1-1.64 2.8l-1 .55-7.78 4.44a.5.5 0 0 0 .5.87L87 72.83l.87-.5A4.24 4.24 0 0 0 90 68.65V36.39a4.24 4.24 0 0 0-2.14-3.67zm20.36 6.48a1 1 0 1 0-1.44-1.39 1 1 0 0 0 0 1.41 1 1 0 0 0 .69.28 1 1 0 0 0 .75-.31zm4.63-24.27l-1.26-.72a.5.5 0 0 0-.5.87l1.26.72a3.3 3.3 0 0 1 1.65 2.85v28.71a3.3 3.3 0 0 1-1.65 2.86l-4.66 2.72a.5.5 0 0 0 .5.87l4.65-2.71a4.31 4.31 0 0 0 2.16-3.74V18.65a4.31 4.31 0 0 0-2.15-3.73zM93.2 61.37l-1.28.69a.5.5 0 0 0 .5.87l1.28-.69a.5.5 0 1 0-.5-.87zM107.33 28a1 1 0 1 0-1.39.28 1 1 0 0 0 .56.17 1 1 0 0 0 .83-.45zm-13.16-2.5a1 1 0 0 0 .32 2 1 1 0 0 0 .33 0 1 1 0 0 0-.65-1.9zm10.74 30.86L103.33 58l1.59 1.59a2 2 0 1 1-2.83 2.83l-1.59-1.59-1.59 1.59a2 2 0 0 1-2.83 0 2 2 0 0 1 0-2.83L97.67 58l-1.59-1.59a2 2 0 0 1 2.83-2.83l1.59 1.59 1.59-1.59a2 2 0 0 1 2.83 2.83zm-.71-2.12a1 1 0 0 0-1.41 0l-2.29 2.29-2.29-2.29a1 1 0 0 0-1.41 0 1 1 0 0 0 0 1.41L99.08 58l-2.29 2.29a1 1 0 0 0 0 1.41 1 1 0 0 0 1.41 0l2.29-2.29 2.29 2.29a1 1 0 0 0 1.41 0 1 1 0 0 0 0-1.41L101.91 58l2.29-2.29a1 1 0 0 0 .01-1.42zM42 78.57a3.68 3.68 0 1 1-5.21 0 3.69 3.69 0 0 1 5.21 0zm-.71.71a2.68 2.68 0 1 0-3.79 3.79 2.75 2.75 0 0 0 3.79 0 2.69 2.69 0 0 0-.03-3.8zM17 20a2 2 0 1 1-2 2 2 2 0 0 1 2-2zm0 1a1 1 0 1 0 1 1 1 1 0 0 0-1-1zm6-1a2 2 0 1 1-2 2 2 2 0 0 1 2-2zm0 1a1 1 0 1 0 1 1 1 1 0 0 0-1-1zm-12-1a2 2 0 1 1-2 2 2 2 0 0 1 2-2zm0 1a1 1 0 1 0 1 1 1 1 0 0 0-1-1zm-1 14.71a.5.5 0 0 0 .66.25l4.77-2.2a.81.81 0 0 0 0-1.51L10.71 30a.5.5 0 0 0-.42.91l4.43 2-4.43 2a.5.5 0 0 0-.29.8zm52-21.56a.5.5 0 0 0 .25-.07l1.77-1a.5.5 0 0 0-.5-.87l-1.77 1a.5.5 0 0 0 .25.93zM23 54.5a.5.5 0 0 0-.5-.5H9.08A2.08 2.08 0 0 1 7 51.92V51h15.5a.5.5 0 0 0 0-1H7V27h26.5a.5.5 0 0 0 0-1H7v-5.92A2.08 2.08 0 0 1 9.08 18h38.84a2.07 2.07 0 0 1 .87.19.5.5 0 0 0 .42-.91 3.05 3.05 0 0 0-1.29-.28H9.08A3.08 3.08 0 0 0 6 20.08v31.84A3.08 3.08 0 0 0 9.08 55H22.5a.5.5 0 0 0 .5-.5zm27.09.23a.5.5 0 0 0-.55.83c1.47 1 4.31 3.21 9.48 8.38 3.51 3.51 7 7.28 10 10.9a.5.5 0 0 0 .76-.65c-3.08-3.64-6.57-7.42-10.1-11a72.29 72.29 0 0 0-9.59-8.47zM2.65 50.21A3.3 3.3 0 0 1 1 47.36V18.65a3.31 3.31 0 0 1 1.65-2.86L27.51 1.44a3.28 3.28 0 0 1 3.3 0l21.87 12.64a.5.5 0 1 0 .5-.87L31.31.57a4.32 4.32 0 0 0-4.3 0L2.15 14.92A4.31 4.31 0 0 0 0 18.65v28.71a4.31 4.31 0 0 0 2.15 3.72.5.5 0 1 0 .5-.87zM16.5 36h4a.5.5 0 0 0 0-1h-4a.5.5 0 0 0 0 1zM67 83.08l-7.88 4.5a3.32 3.32 0 0 1-3.28 0l-6.92-4a.5.5 0 1 0-.5.87l6.92 4a4.31 4.31 0 0 0 4.26 0l7.88-4.5a.5.5 0 1 0-.5-.87zM38.28 42.33a11.69 11.69 0 0 1-2.44-.65.5.5 0 0 0-.38.92 12.59 12.59 0 0 0 2.65.71 5.08 5.08 0 0 1 3.09 1.31 3.76 3.76 0 0 1 1.17 3.13.5.5 0 0 0 .42.57h.08a.5.5 0 0 0 .49-.42 4.77 4.77 0 0 0-1.45-4 6 6 0 0 0-3.63-1.57zM65 8.5a5.5 5.5 0 1 1 5.5 5.5A5.51 5.51 0 0 1 65 8.5zm1 0A4.5 4.5 0 1 0 70.5 4 4.51 4.51 0 0 0 66 8.5zM23.25 62.12l-9-5.23a.5.5 0 1 0-.5.87l9 5.23a.49.49 0 0 0 .25.07.5.5 0 0 0 .25-.93zm32.44 10.21a.5.5 0 0 0-.71 0l-8.77 8.78a6.82 6.82 0 0 0-.66-2.9.5.5 0 1 0-.9.43 5.87 5.87 0 0 1-1.08 6.59 6.3 6.3 0 0 1-4.38 1.71 5.7 5.7 0 0 1-4.1-1.74 5.88 5.88 0 0 1 .12-8.2 5.88 5.88 0 0 1 6.67-1.15.5.5 0 0 0 .43-.9 6.83 6.83 0 0 0-2.9-.66l9.17-9.17a.5.5 0 0 0-.71-.71l-10 10v.05a6.85 6.85 0 0 0-3.47 11.4 6.68 6.68 0 0 0 4.81 2h.09a7.29 7.29 0 0 0 4.86-1.87l.08-.05.07-.08.12-.11a.49.49 0 0 0 .1-.14 6.84 6.84 0 0 0 1.54-3h.05L55.69 73a.5.5 0 0 0 0-.67z"/><path class="cls-3" d="M23.5 60.82v2.36a.62.62 0 0 1-.93.54l-7.94-4.57a.35.35 0 0 1 .17-.65h6.36a2.33 2.33 0 0 1 2.34 2.32zm25.76-43.28a.92.92 0 0 0 .69-.08l1.89-1.08-20.6-11.85a4 4 0 0 0-4 0L2.51 18.77a4 4 0 0 0-2 3.46v25.45a4 4 0 0 0 2 3.46l.54.31.22.13h.16A.56.56 0 0 0 4 51V22.5a5.13 5.13 0 0 1 5.12-5.12H48a4.73 4.73 0 0 1 1.26.16zm39.79 20.4L59.41 21a3.8 3.8 0 0 0-1.82-.5h-.18a3.62 3.62 0 0 0-1.82.5L25.95 38a.9.9 0 0 0-.45.78v35.5a.89.89 0 0 0 .45.78l6.1 3.49a.87.87 0 0 0 1.13-.21c.14-.17.27-.34.42-.5v-.6h.61a7.83 7.83 0 0 1 3-1.66.87.87 0 0 0 .37-.22l10.17-10.18a.91.91 0 0 0 0-1.22 33.4 33.4 0 0 1-2.67-3.56c-.14-.22-.27-.42-.38-.62a9.74 9.74 0 0 1-.93-2.18.88.88 0 0 0-.22-.4L42 55.64a.88.88 0 0 0-.77-.25 6.79 6.79 0 0 1-.77 0A8.16 8.16 0 0 1 34.83 53a17.62 17.62 0 0 1-4.43-8.57c-.75-3.61-.17-6.69 1.6-8.46a1.88 1.88 0 0 1 1.92-.61 1.79 1.79 0 0 1 1.08 1.7 4.17 4.17 0 0 0 1.37 2.71 4.72 4.72 0 0 0 2.8 1.12 9 9 0 0 1 5.31 2.47 7.87 7.87 0 0 1 2.36 6.43.89.89 0 0 0 .25.75l1.55 1.56a1 1 0 0 0 .41.23 14.78 14.78 0 0 1 5 2.89c.42.33.87.7 1.34 1.09a.89.89 0 0 0 1.21 0L58.88 54l1.51-1.51a.87.87 0 0 0 .25-.81c0-.18-.1-.41-.18-.71l-.11-.39a10.48 10.48 0 0 1-.14-5 8.93 8.93 0 0 1 2.42-4.4l3.07-3.08a8 8 0 0 1 7.52-2l2 .55A1.74 1.74 0 0 1 76.45 38a1.72 1.72 0 0 1-.45 1.67l-6.27 6.27a.87.87 0 0 0-.21.93L71 51a.88.88 0 0 0 .55.55l4.15 1.48a.93.93 0 0 0 .94-.21l6.29-6.28a1.73 1.73 0 0 1 2.89.77l.55 2a8.08 8.08 0 0 1-1.95 7.52l-4 4A7.19 7.19 0 0 1 74 62.74l-.37-.08-1.78-.47a10.55 10.55 0 0 0-1-.23.91.91 0 0 0-.78.25l-3.53 3.54a.9.9 0 0 0 0 1.25c3.73 4 7.23 8 10 11.56.55.7 1 1.35 1.49 2a.89.89 0 0 0 1.17.24l10-5.7a.89.89 0 0 0 .45-.78v-35.6a.9.9 0 0 0-.6-.78zM59.38 76.61a2.3 2.3 0 0 0-3.18.06l-8.27 8.28c-.43.67-.4 1 .19 1.41l8.93 5.11a.9.9 0 0 0 .9 0c1.66-1 7.57-4.33 10.07-5.76a.9.9 0 0 0 .12-1.48c-3.06-2.48-6.19-5.23-8.76-7.62zm55.12-54.38v27.45a4 4 0 0 1-2 3.46l-5.1 2.94a.69.69 0 0 1-1-.4 3 3 0 0 0-4-2 2 2 0 0 0 .14-.73 2 2 0 0 0-2-2 2 2 0 1 0-2-2 2 2 0 0 0 2 2 2 2 0 0 0-2 2 2 2 0 0 0 .14.73 3 3 0 0 0-3.5.92 3.1 3.1 0 0 0 .35 4.08l.77.77-.88.88a3 3 0 0 0-.87 2.67.64.64 0 0 1-.34.67l-1 .59a.7.7 0 0 1-1-.61V37.33a7 7 0 0 0-3.5-6L63.05 16.67a.53.53 0 0 1-.16-.13l3.16-1.82a6.45 6.45 0 0 0 9.85-1.14 6.36 6.36 0 0 0 .92-5.06l6.94-4a4 4 0 0 1 4 0l6.64 3.82a2 2 0 0 0-.9 1.66 2 2 0 1 0-4 0 2 2 0 1 0-4 0 2 2 0 1 0-4 0 2 2 0 1 0-2 2 2 2 0 0 0 2-2 2 2 0 0 0 4 0 2 2 0 0 0 4 0 2 2 0 0 0 4 0 2 2 0 0 0 3.94.51.06.06 0 0 1 .12 0A2 2 0 0 0 99.5 12a1.81 1.81 0 0 0 .87-.21l6.1 3.52a3.1 3.1 0 0 1 0 .32 2 2 0 0 0 2 1.86h.14a2 2 0 0 0 1-.36l2.84 1.63a3.9 3.9 0 0 1 1.6 1.72 3.84 3.84 0 0 1 .45 1.75zm-11.9-.11a2 2 0 0 0 3.68.3 1.94 1.94 0 0 0 .16-1.36 1.94 1.94 0 0 0 1 .3 2 2 0 0 0 1.64-.85l.19-.27v-.07a2.05 2.05 0 0 0 .14-1.18 2 2 0 0 0-.85-1.28 2 2 0 0 0-3.09 2 2 2 0 0 0-2.81.82 1.94 1.94 0 0 0-.06 1.59zM90.5 22a2 2 0 0 0 4 0 2 2 0 0 0 4 0 2 2 0 1 0 2-2 2 2 0 0 0-2 2 2 2 0 1 0-4 0 2 2 0 1 0-4 0 2 2 0 1 0-4 0 2 2 0 1 0-4 0 2 2 0 1 0-4 0 1.79 1.79 0 0 0-.07-.51A2 2 0 0 0 76 20.07a2 2 0 0 0-1.44 2.43A2 2 0 0 0 76.5 24a1.85 1.85 0 0 0 .54-.08A2 2 0 0 0 78.5 22a2 2 0 0 0 4 0 2 2 0 0 0 4 0 2 2 0 0 0 4 0zm8.65 7.9a2 2 0 0 0 1.14-1 2 2 0 0 0 .21-.87 1.94 1.94 0 0 0 .11.63 2 2 0 0 0 3.68.24 1.94 1.94 0 0 0 .1-1.51 2 2 0 0 0-3.89.62 1.88 1.88 0 0 0-.11-.62 2 2 0 0 0-3.89.61 1.87 1.87 0 0 0-.1-.62 2 2 0 0 0-2.55-1.26 2 2 0 0 0-1.32 2.18l-.16-.09a2 2 0 0 0-1.53-.08 2 2 0 0 0-1.14 1 2 2 0 0 0 .92 2.66 2 2 0 0 0 2.7-1 2 2 0 0 0 .16-1.15 2 2 0 0 0 1 .3 1.94 1.94 0 0 0 .65-.1 2 2 0 0 0 1.15-1 2.1 2.1 0 0 0 .2-.88 2 2 0 0 0 2.65 1.9zm2.08 13.16a2 2 0 1 0-.73 3.86 2 2 0 0 0 .73-3.86zm4.23-1.46a2 2 0 0 0-2-1.6 1.81 1.81 0 0 0-.4 0 2 2 0 0 0-1.26.84 1.94 1.94 0 0 0-.3 1.5 2 2 0 0 0 2 1.62h.4a2 2 0 0 0 1.27-.85 2 2 0 0 0 .29-1.51zm3.43-3a2 2 0 0 0-2.83.06 2 2 0 0 0 0 2.82 1.94 1.94 0 0 0 1.39.57 2 2 0 0 0 1.43-.6 2 2 0 0 0 .01-2.9zm-.39-4.6a2 2 0 0 0 0-4h-.3a2 2 0 0 0-.58-2.69 2 2 0 0 0-2.78.54 2 2 0 0 0 .54 2.78 2 2 0 0 0 1.1.33 1.54 1.54 0 0 0 .3 0 2 2 0 0 0-.3 1 2 2 0 0 0 2 2 2 2 0 1 0 2 2A2 2 0 0 0 108.5 34z"/><path class="cls-1" d="M107.5 68.5a2 2 0 0 1-.29 0l.29.29.29-.29z"/></g></svg>