<svg xmlns="http://www.w3.org/2000/svg" xmlns:xlink="http://www.w3.org/1999/xlink" width="1080" zoomAndPan="magnify" viewBox="0 0 810 809.999993" height="1080" preserveAspectRatio="xMidYMid meet" version="1.0"><defs><clipPath id="2e7353ca50"><path d="M 309.320312 585 L 606 585 L 606 795.398438 L 309.320312 795.398438 Z M 309.320312 585 " clip-rule="nonzero"/></clipPath><clipPath id="a0ceab6003"><path d="M 553 266.648438 L 793.820312 266.648438 L 793.820312 506 L 553 506 Z M 553 266.648438 " clip-rule="nonzero"/></clipPath><clipPath id="e9c3f1de10"><path d="M 113.625 173.113281 L 178.433594 173.113281 L 178.433594 237.917969 L 113.625 237.917969 Z M 113.625 173.113281 " clip-rule="nonzero"/></clipPath><clipPath id="709cbe3080"><path d="M 146.03125 173.113281 C 128.132812 173.113281 113.625 187.621094 113.625 205.515625 C 113.625 223.410156 128.132812 237.917969 146.03125 237.917969 C 163.925781 237.917969 178.433594 223.410156 178.433594 205.515625 C 178.433594 187.621094 163.925781 173.113281 146.03125 173.113281 Z M 146.03125 173.113281 " clip-rule="nonzero"/></clipPath><clipPath id="40efa84f8c"><path d="M 0.625 0.113281 L 65.433594 0.113281 L 65.433594 64.917969 L 0.625 64.917969 Z M 0.625 0.113281 " clip-rule="nonzero"/></clipPath><clipPath id="93a23b302c"><path d="M 33.03125 0.113281 C 15.132812 0.113281 0.625 14.621094 0.625 32.515625 C 0.625 50.410156 15.132812 64.917969 33.03125 64.917969 C 50.925781 64.917969 65.433594 50.410156 65.433594 32.515625 C 65.433594 14.621094 50.925781 0.113281 33.03125 0.113281 Z M 33.03125 0.113281 " clip-rule="nonzero"/></clipPath><clipPath id="97d59bcd56"><rect x="0" width="66" y="0" height="65"/></clipPath><clipPath id="e08199a6f5"><path d="M 220.375 95.492188 L 285.179688 95.492188 L 285.179688 160.296875 L 220.375 160.296875 Z M 220.375 95.492188 " clip-rule="nonzero"/></clipPath><clipPath id="bc865bf354"><path d="M 252.777344 95.492188 C 234.882812 95.492188 220.375 110 220.375 127.894531 C 220.375 145.789062 234.882812 160.296875 252.777344 160.296875 C 270.671875 160.296875 285.179688 145.789062 285.179688 127.894531 C 285.179688 110 270.671875 95.492188 252.777344 95.492188 Z M 252.777344 95.492188 " clip-rule="nonzero"/></clipPath><clipPath id="9a99a3fda5"><path d="M 0.375 0.492188 L 65.179688 0.492188 L 65.179688 65.296875 L 0.375 65.296875 Z M 0.375 0.492188 " clip-rule="nonzero"/></clipPath><clipPath id="c9a2ad4727"><path d="M 32.777344 0.492188 C 14.882812 0.492188 0.375 15 0.375 32.894531 C 0.375 50.789062 14.882812 65.296875 32.777344 65.296875 C 50.671875 65.296875 65.179688 50.789062 65.179688 32.894531 C 65.179688 15 50.671875 0.492188 32.777344 0.492188 Z M 32.777344 0.492188 " clip-rule="nonzero"/></clipPath><clipPath id="c9106c6e9a"><rect x="0" width="66" y="0" height="66"/></clipPath><clipPath id="5b967dc07d"><path d="M 365.390625 108.308594 L 430.195312 108.308594 L 430.195312 173.113281 L 365.390625 173.113281 Z M 365.390625 108.308594 " clip-rule="nonzero"/></clipPath><clipPath id="5548010c28"><path d="M 397.792969 108.308594 C 379.898438 108.308594 365.390625 122.816406 365.390625 140.710938 C 365.390625 158.605469 379.898438 173.113281 397.792969 173.113281 C 415.6875 173.113281 430.195312 158.605469 430.195312 140.710938 C 430.195312 122.816406 415.6875 108.308594 397.792969 108.308594 Z M 397.792969 108.308594 " clip-rule="nonzero"/></clipPath><clipPath id="7fa6cea520"><path d="M 0.390625 0.308594 L 65.195312 0.308594 L 65.195312 65.113281 L 0.390625 65.113281 Z M 0.390625 0.308594 " clip-rule="nonzero"/></clipPath><clipPath id="29e40e8944"><path d="M 32.792969 0.308594 C 14.898438 0.308594 0.390625 14.816406 0.390625 32.710938 C 0.390625 50.605469 14.898438 65.113281 32.792969 65.113281 C 50.6875 65.113281 65.195312 50.605469 65.195312 32.710938 C 65.195312 14.816406 50.6875 0.308594 32.792969 0.308594 Z M 32.792969 0.308594 " clip-rule="nonzero"/></clipPath><clipPath id="61de5414f2"><rect x="0" width="66" y="0" height="66"/></clipPath><clipPath id="da3eafe11c"><path d="M 468.039062 196.546875 L 532.84375 196.546875 L 532.84375 261.351562 L 468.039062 261.351562 Z M 468.039062 196.546875 " clip-rule="nonzero"/></clipPath><clipPath id="8078bb65ab"><path d="M 500.441406 196.546875 C 482.542969 196.546875 468.039062 211.050781 468.039062 228.949219 C 468.039062 246.84375 482.542969 261.351562 500.441406 261.351562 C 518.335938 261.351562 532.84375 246.84375 532.84375 228.949219 C 532.84375 211.050781 518.335938 196.546875 500.441406 196.546875 Z M 500.441406 196.546875 " clip-rule="nonzero"/></clipPath><clipPath id="ccc5938861"><path d="M 0.0390625 0.546875 L 64.84375 0.546875 L 64.84375 65.351562 L 0.0390625 65.351562 Z M 0.0390625 0.546875 " clip-rule="nonzero"/></clipPath><clipPath id="1830e21ad2"><path d="M 32.441406 0.546875 C 14.542969 0.546875 0.0390625 15.050781 0.0390625 32.949219 C 0.0390625 50.84375 14.542969 65.351562 32.441406 65.351562 C 50.335938 65.351562 64.84375 50.84375 64.84375 32.949219 C 64.84375 15.050781 50.335938 0.546875 32.441406 0.546875 Z M 32.441406 0.546875 " clip-rule="nonzero"/></clipPath><clipPath id="e8d3cad07f"><rect x="0" width="65" y="0" height="66"/></clipPath><clipPath id="d6ccd1ec34"><path d="M 286 341 L 375 341 L 375 407 L 286 407 Z M 286 341 " clip-rule="nonzero"/></clipPath><clipPath id="c66cbe833d"><path d="M 290.957031 335.359375 L 379.144531 348.121094 L 369.863281 412.257812 L 281.675781 399.496094 Z M 290.957031 335.359375 " clip-rule="nonzero"/></clipPath><clipPath id="88d87aede4"><path d="M 334.972656 341.726562 C 310.664062 338.210938 288.878906 349.714844 286.316406 367.425781 C 283.753906 385.136719 301.382812 402.347656 325.691406 405.863281 C 350 409.382812 371.78125 397.875 374.34375 380.164062 C 376.90625 362.453125 359.28125 345.246094 334.972656 341.726562 Z M 334.972656 341.726562 " clip-rule="nonzero"/></clipPath><clipPath id="08754c3a87"><path d="M 0 0 L 89 0 L 89 66 L 0 66 Z M 0 0 " clip-rule="nonzero"/></clipPath><clipPath id="21a491fc94"><path d="M 4.957031 -5.640625 L 93.144531 7.121094 L 83.863281 71.257812 L -4.324219 58.496094 Z M 4.957031 -5.640625 " clip-rule="nonzero"/></clipPath><clipPath id="868986ade8"><path d="M 48.972656 0.726562 C 24.664062 -2.789062 2.878906 8.714844 0.316406 26.425781 C -2.246094 44.136719 15.382812 61.347656 39.691406 64.863281 C 64 68.382812 85.78125 56.875 88.34375 39.164062 C 90.90625 21.453125 73.28125 4.246094 48.972656 0.726562 Z M 48.972656 0.726562 " clip-rule="nonzero"/></clipPath><clipPath id="3477dec24f"><rect x="0" width="89" y="0" height="66"/></clipPath><clipPath id="37f3bf7def"><path d="M 36 11 L 611 11 L 611 502 L 36 502 Z M 36 11 " clip-rule="nonzero"/></clipPath><clipPath id="73c0e49281"><path d="M 521.027344 576.527344 L -52.335938 389.816406 L 97.449219 -70.15625 L 670.816406 116.554688 Z M 521.027344 576.527344 " clip-rule="nonzero"/></clipPath><clipPath id="e7ae63a2fa"><path d="M 521.027344 576.527344 L -52.335938 389.816406 L 97.449219 -70.15625 L 670.816406 116.554688 Z M 521.027344 576.527344 " clip-rule="nonzero"/></clipPath></defs><g clip-path="url(#2e7353ca50)"><path fill="#2a536d" d="M 602.113281 659.105469 C 599.734375 663.527344 595.609375 667.195312 590.605469 668.234375 C 585.9375 669.519531 580.847656 667.878906 577.289062 664.761719 C 573.464844 661.1875 571.421875 656.058594 570.894531 650.914062 C 570.1875 645.71875 570.820312 640.46875 570.523438 635.253906 C 570.292969 632.523438 569.308594 629.71875 567.246094 627.851562 C 564.8125 625.757812 561.042969 625.617188 558.332031 627.234375 C 554.191406 629.578125 551.917969 634.160156 550.71875 638.601562 C 547.988281 650.703125 550.667969 663.070312 550.542969 675.28125 C 550.316406 681.570312 549.804688 688.035156 547.300781 693.886719 C 544.570312 700.402344 539.550781 706.078125 533.050781 708.964844 C 526.652344 712.066406 518.847656 711.925781 512.59375 708.5625 C 507.257812 706.042969 503.238281 701.390625 500.597656 696.191406 C 497.054688 689.355469 495.644531 681.480469 491.03125 675.191406 C 487.910156 670.804688 483.332031 667.210938 477.90625 666.296875 C 472.636719 665.0625 466.964844 666.839844 463.054688 670.488281 C 458.488281 674.574219 456.359375 680.617188 455.546875 686.539062 C 454.527344 696.527344 457.273438 706.5 461.398438 715.519531 C 465.378906 724.292969 469.78125 732.945312 472.179688 742.335938 C 475.050781 752.359375 475.367188 763.246094 472.179688 773.21875 C 469.519531 781.113281 463.953125 788.28125 456.324219 791.894531 C 448.414062 796.105469 438.492188 796.296875 430.425781 792.40625 C 424.59375 789.515625 419.554688 784.792969 416.769531 778.855469 C 413.089844 771.367188 412.523438 762.699219 413.757812 754.542969 C 415.378906 743.515625 418.921875 732.820312 419.785156 721.667969 C 420.046875 715.042969 419.394531 707.804688 415.148438 702.410156 C 411.871094 698.128906 406.199219 695.59375 400.84375 696.722656 C 395.542969 697.585938 391.472656 701.566406 388.316406 705.671875 C 382.644531 713.351562 379.648438 722.550781 374.964844 730.8125 C 370.875 738.441406 364.78125 745.363281 356.710938 748.871094 C 349.3125 752.113281 340.660156 751.867188 333.277344 748.695312 C 325.6875 745.859375 319.574219 739.867188 315.539062 732.945312 C 310.550781 724.082031 308.84375 713.582031 310.042969 703.523438 C 311.539062 687.171875 319.414062 672.25 328.433594 658.84375 C 332.820312 652.429688 337.101562 645.382812 337.4375 637.382812 C 337.773438 632.769531 335.9375 627.941406 332.203125 625.085938 C 327.957031 621.808594 322.375 621.15625 317.175781 621.121094 C 313.792969 621.121094 309.953125 594.679688 309.53125 591.085938 C 309.140625 588.246094 311.714844 585.515625 314.550781 585.726562 C 324.929688 585.710938 335.304688 585.710938 345.683594 585.710938 C 346.316406 587.367188 347.160156 588.953125 348.203125 590.449219 C 367.316406 617.703125 394.570312 638.863281 424.945312 650.050781 L 425.386719 650.191406 C 436.765625 654.066406 448.535156 656.535156 460.359375 657.558594 L 460.5 657.574219 C 463.6875 657.820312 466.945312 657.945312 470.171875 657.945312 C 496.316406 657.945312 521.613281 649.769531 541.488281 634.898438 C 558.613281 622.777344 571.015625 605.054688 576 585.691406 L 588.84375 585.691406 C 590.625 585.515625 592.070312 586.714844 592.949219 588.125 C 599.046875 596.6875 604.03125 630.652344 605.019531 641.261719 C 605.742188 647.304688 605.125 653.734375 602.113281 659.105469 Z M 602.113281 659.105469 " fill-opacity="1" fill-rule="nonzero"/></g><path fill="#5bc0ff" d="M 559.230469 577.554688 C 561.695312 566.066406 560.234375 554.105469 556.234375 543.144531 C 556.023438 542.5625 556.234375 541.929688 556.746094 541.59375 C 571.386719 532.011719 585.78125 521.808594 600.351562 512.066406 C 582.785156 494.308594 564.921875 476.867188 547.371094 459.109375 C 537.347656 473.519531 527.515625 488 517.632812 502.484375 C 517.28125 503.011719 516.59375 503.1875 516.011719 502.941406 C 499.558594 495.769531 479.703125 496.527344 464.144531 505.636719 C 455 511.046875 446.738281 518.550781 442.121094 528.257812 C 436.835938 538.757812 437.03125 550.898438 432.769531 561.734375 C 429.421875 569.679688 423.675781 576.707031 416.207031 581.128906 C 410.253906 584.917969 403.0625 586.203125 396.085938 585.796875 C 387.929688 585.253906 376.40625 579.71875 367.652344 574.894531 C 364.355469 573.078125 360.886719 576.953125 363.054688 580.039062 C 379.84375 603.960938 403.75 622.902344 431.21875 633.03125 C 441.136719 636.398438 451.460938 638.582031 461.90625 639.480469 C 486.148438 641.367188 511.253906 634.933594 530.792969 620.242188 C 545.117188 610.164062 555.882812 594.855469 559.230469 577.554688 Z M 559.230469 577.554688 " fill-opacity="1" fill-rule="nonzero"/><g clip-path="url(#a0ceab6003)"><path fill="#5bc0ff" d="M 747.742188 371.917969 C 747.742188 371.917969 748.710938 370.542969 750.382812 368.09375 C 752.324219 365.257812 754.207031 362.402344 756.074219 359.53125 C 765.765625 344.660156 781.710938 318.605469 791.925781 293.886719 C 794.976562 286.523438 793.300781 278.046875 787.664062 272.410156 C 781.816406 266.5625 772.972656 265.011719 765.464844 268.464844 C 756.390625 272.640625 747.40625 277.007812 738.546875 281.605469 C 706.9375 298.132812 677.394531 318.410156 649.890625 341.085938 C 626.953125 359.988281 605.425781 380.707031 586.484375 403.664062 C 580.230469 410.886719 574.820312 418.78125 568.953125 426.320312 C 563.792969 433.667969 558.472656 440.910156 553.734375 448.554688 C 572.585938 467.8125 591.804688 486.699219 610.78125 505.832031 C 665.800781 472.214844 711.027344 424.523438 747.742188 371.917969 Z M 747.742188 371.917969 " fill-opacity="1" fill-rule="nonzero"/></g><g clip-path="url(#e9c3f1de10)"><g clip-path="url(#709cbe3080)"><g transform="matrix(1, 0, 0, 1, 113, 173)"><g clip-path="url(#97d59bcd56)"><g clip-path="url(#40efa84f8c)"><g clip-path="url(#93a23b302c)"><path fill="#2a536d" d="M 0.625 0.113281 L 65.433594 0.113281 L 65.433594 64.917969 L 0.625 64.917969 Z M 0.625 0.113281 " fill-opacity="1" fill-rule="nonzero"/></g></g></g></g></g></g><g clip-path="url(#e08199a6f5)"><g clip-path="url(#bc865bf354)"><g transform="matrix(1, 0, 0, 1, 220, 95)"><g clip-path="url(#c9106c6e9a)"><g clip-path="url(#9a99a3fda5)"><g clip-path="url(#c9a2ad4727)"><path fill="#2a536d" d="M 0.375 0.492188 L 65.179688 0.492188 L 65.179688 65.296875 L 0.375 65.296875 Z M 0.375 0.492188 " fill-opacity="1" fill-rule="nonzero"/></g></g></g></g></g></g><g clip-path="url(#5b967dc07d)"><g clip-path="url(#5548010c28)"><g transform="matrix(1, 0, 0, 1, 365, 108)"><g clip-path="url(#61de5414f2)"><g clip-path="url(#7fa6cea520)"><g clip-path="url(#29e40e8944)"><path fill="#2a536d" d="M 0.390625 0.308594 L 65.195312 0.308594 L 65.195312 65.113281 L 0.390625 65.113281 Z M 0.390625 0.308594 " fill-opacity="1" fill-rule="nonzero"/></g></g></g></g></g></g><g clip-path="url(#da3eafe11c)"><g clip-path="url(#8078bb65ab)"><g transform="matrix(1, 0, 0, 1, 468, 196)"><g clip-path="url(#e8d3cad07f)"><g clip-path="url(#ccc5938861)"><g clip-path="url(#1830e21ad2)"><path fill="#2a536d" d="M 0.0390625 0.546875 L 64.84375 0.546875 L 64.84375 65.351562 L 0.0390625 65.351562 Z M 0.0390625 0.546875 " fill-opacity="1" fill-rule="nonzero"/></g></g></g></g></g></g><g clip-path="url(#d6ccd1ec34)"><g clip-path="url(#c66cbe833d)"><g clip-path="url(#88d87aede4)"><g transform="matrix(1, 0, 0, 1, 286, 341)"><g clip-path="url(#3477dec24f)"><g clip-path="url(#08754c3a87)"><g clip-path="url(#21a491fc94)"><g clip-path="url(#868986ade8)"><path fill="#2a536d" d="M 4.957031 -5.640625 L 92.894531 7.082031 L 83.613281 71.21875 L -4.324219 58.496094 Z M 4.957031 -5.640625 " fill-opacity="1" fill-rule="nonzero"/></g></g></g></g></g></g></g></g><g clip-path="url(#37f3bf7def)"><g clip-path="url(#73c0e49281)"><g clip-path="url(#e7ae63a2fa)"><path fill="#5bc0ff" d="M 400.78125 101.082031 C 418.984375 107.007812 428.960938 126.707031 423.003906 144.996094 C 417.050781 163.28125 397.386719 173.332031 379.183594 167.40625 C 360.972656 161.472656 351 141.773438 356.953125 123.488281 C 362.910156 105.199219 382.566406 95.152344 400.78125 101.082031 Z M 373.5 184.851562 C 401.328125 193.910156 431.367188 178.589844 440.453125 150.675781 C 449.546875 122.761719 434.289062 92.6875 406.464844 83.628906 C 378.632812 74.566406 348.59375 89.886719 339.5 117.804688 C 330.414062 145.714844 345.671875 175.789062 373.5 184.851562 Z M 337.65625 333.234375 C 363.195312 341.550781 379.046875 363.429688 372.992188 382.027344 C 366.941406 400.613281 341.238281 408.984375 315.699219 400.664062 C 290.160156 392.351562 274.3125 370.449219 280.363281 351.863281 C 286.417969 333.265625 312.121094 324.921875 337.65625 333.234375 Z M 310.015625 418.117188 C 345.179688 429.566406 381.257812 415.929688 390.445312 387.710938 C 399.628906 359.507812 378.503906 327.238281 343.339844 315.785156 C 308.175781 304.335938 272.097656 317.976562 262.914062 346.179688 C 253.726562 374.394531 274.855469 406.664062 310.015625 418.117188 Z M 148.898438 162.996094 C 167.105469 168.925781 177.085938 188.625 171.128906 206.914062 C 165.175781 225.199219 145.507812 235.253906 127.300781 229.324219 C 109.09375 223.394531 99.117188 203.6875 105.074219 185.402344 C 111.027344 167.113281 130.691406 157.066406 148.898438 162.996094 Z M 121.617188 246.765625 C 149.449219 255.828125 179.488281 240.503906 188.574219 212.59375 C 197.664062 184.679688 182.410156 154.613281 154.578125 145.550781 C 126.753906 136.488281 96.710938 151.804688 87.621094 179.71875 C 78.535156 207.632812 93.792969 237.703125 121.617188 246.765625 Z M 255.054688 88.207031 C 273.257812 94.136719 283.238281 113.839844 277.28125 132.128906 C 271.328125 150.414062 251.660156 160.464844 233.457031 154.535156 C 215.238281 148.601562 205.257812 128.898438 211.210938 110.613281 C 217.167969 92.324219 236.835938 82.277344 255.054688 88.207031 Z M 227.777344 171.980469 C 255.609375 181.046875 285.644531 165.722656 294.734375 137.808594 C 303.820312 109.898438 288.570312 79.828125 260.738281 70.761719 C 232.890625 61.695312 202.855469 77.019531 193.765625 104.929688 C 184.675781 132.84375 199.929688 162.914062 227.777344 171.980469 Z M 294.394531 30.191406 C 330.789062 30.753906 365.960938 36.488281 398.910156 47.21875 C 506.867188 82.375 571.628906 164.042969 587.921875 229.398438 C 596.988281 265.769531 591.621094 296.535156 572.792969 316.054688 C 563.617188 325.566406 547.234375 322.75 523.765625 315.109375 L 506.867188 309.5 C 486.175781 302.761719 451.566406 291.492188 435.578125 322 C 420.511719 350.769531 437.941406 373.183594 451.949219 391.210938 C 459.78125 401.277344 467.171875 410.789062 467.011719 418.726562 C 466.75 432.027344 461.746094 443.171875 451.71875 452.777344 C 427.667969 475.84375 379.402344 483.554688 354.625 483.011719 C 310.824219 482.03125 270.386719 475.605469 234.480469 463.914062 C 106 422.074219 51.539062 317.980469 55.304688 238.976562 C 61.636719 106.027344 151.015625 27.964844 294.394531 30.191406 Z M 36.972656 238.089844 C 32.875 323.851562 91.164062 436.546875 228.796875 481.367188 C 266.421875 493.617188 308.617188 500.347656 354.222656 501.347656 C 379.019531 501.902344 433.953125 495.230469 464.417969 466.019531 C 477.949219 453.046875 484.992188 437.269531 485.363281 419.105469 C 485.65625 404.671875 475.882812 392.105469 466.4375 379.941406 C 451.390625 360.582031 442.890625 347.601562 451.839844 330.515625 C 458.492188 317.808594 470.472656 316.945312 501.183594 326.945312 L 518.085938 332.558594 C 536.386719 338.519531 567.007812 348.492188 586 328.804688 C 609.378906 304.554688 616.382812 267.691406 605.730469 224.957031 C 588.210938 154.707031 519.222656 67.101562 404.59375 29.773438 C 369.882812 18.472656 332.910156 12.441406 294.679688 11.847656 C 142.480469 9.484375 43.738281 96.1875 36.972656 238.089844 Z M 504.542969 188.753906 C 522.75 194.679688 532.722656 214.382812 526.769531 232.667969 C 520.816406 250.953125 501.152344 261.003906 482.949219 255.074219 C 464.726562 249.144531 454.746094 229.4375 460.703125 211.152344 C 466.65625 192.867188 486.324219 182.820312 504.542969 188.753906 Z M 477.265625 272.527344 C 505.097656 281.59375 535.132812 266.269531 544.222656 238.351562 C 553.3125 210.441406 538.058594 180.367188 510.226562 171.304688 C 482.378906 162.234375 452.339844 177.5625 443.253906 205.46875 C 434.160156 233.390625 449.417969 263.460938 477.265625 272.527344 " fill-opacity="1" fill-rule="nonzero"/></g></g></g></svg>