<svg xmlns="http://www.w3.org/2000/svg" xmlns:xlink="http://www.w3.org/1999/xlink" width="1080" zoomAndPan="magnify" viewBox="0 0 810 809.999993" height="1080" preserveAspectRatio="xMidYMid meet" version="1.0"><defs><clipPath id="0151e05e44"><path d="M 105.261719 62 L 704.511719 62 L 704.511719 748 L 105.261719 748 Z M 105.261719 62 " clip-rule="nonzero"/></clipPath><clipPath id="7c7955638c"><path d="M 425.742188 68.28125 L 683.988281 218.535156 C 696.832031 226.007812 704.734375 239.746094 704.734375 254.605469 L 704.734375 555.390625 C 704.734375 570.25 696.832031 583.984375 683.988281 591.457031 L 425.742188 741.710938 C 412.917969 749.171875 397.074219 749.171875 384.253906 741.710938 L 126.003906 591.457031 C 113.160156 583.984375 105.261719 570.25 105.261719 555.390625 L 105.261719 254.605469 C 105.261719 239.746094 113.160156 226.007812 126.003906 218.535156 L 384.253906 68.28125 C 397.074219 60.820312 412.917969 60.820312 425.742188 68.28125 Z M 425.742188 68.28125 " clip-rule="nonzero"/></clipPath><clipPath id="f43442396c"><path d="M 146 254 L 298 254 L 298 407 L 146 407 Z M 146 254 " clip-rule="nonzero"/></clipPath><clipPath id="28aa54fdde"><path d="M 140.730469 351.695312 L 243.28125 249.148438 L 303.21875 309.085938 L 200.667969 411.632812 Z M 140.730469 351.695312 " clip-rule="nonzero"/></clipPath><clipPath id="07991aa5d2"><path d="M 149.746094 342.679688 L 234.160156 258.265625 C 236.550781 255.875 239.796875 254.53125 243.175781 254.53125 C 246.558594 254.53125 249.800781 255.875 252.191406 258.265625 L 294.097656 300.171875 C 296.488281 302.566406 297.832031 305.808594 297.832031 309.1875 C 297.832031 312.570312 296.488281 315.8125 294.097656 318.203125 L 209.683594 402.617188 C 207.292969 405.011719 204.050781 406.351562 200.667969 406.351562 C 197.289062 406.351562 194.042969 405.011719 191.652344 402.617188 L 149.746094 360.710938 C 147.355469 358.320312 146.011719 355.078125 146.011719 351.695312 C 146.011719 348.316406 147.355469 345.074219 149.746094 342.679688 Z M 149.746094 342.679688 " clip-rule="nonzero"/></clipPath><clipPath id="7a4abd0964"><path d="M 0 0.398438 L 151.839844 0.398438 L 151.839844 152.558594 L 0 152.558594 Z M 0 0.398438 " clip-rule="nonzero"/></clipPath><clipPath id="9b27b32f24"><path d="M -5.269531 97.695312 L 97.28125 -4.851562 L 157.21875 55.085938 L 54.667969 157.632812 Z M -5.269531 97.695312 " clip-rule="nonzero"/></clipPath><clipPath id="9b7f36857a"><path d="M 3.746094 88.679688 L 88.160156 4.265625 C 90.550781 1.875 93.796875 0.53125 97.175781 0.53125 C 100.558594 0.53125 103.800781 1.875 106.191406 4.265625 L 148.097656 46.171875 C 150.488281 48.566406 151.832031 51.808594 151.832031 55.1875 C 151.832031 58.570312 150.488281 61.8125 148.097656 64.203125 L 63.683594 148.617188 C 61.292969 151.011719 58.050781 152.351562 54.667969 152.351562 C 51.289062 152.351562 48.042969 151.011719 45.652344 148.617188 L 3.746094 106.710938 C 1.355469 104.320312 0.0117188 101.078125 0.0117188 97.695312 C 0.0117188 94.316406 1.355469 91.074219 3.746094 88.679688 Z M 3.746094 88.679688 " clip-rule="nonzero"/></clipPath><clipPath id="23f499fd8e"><rect x="0" width="152" y="0" height="153"/></clipPath><clipPath id="ea0538f853"><path d="M 512 254 L 664 254 L 664 407 L 512 407 Z M 512 254 " clip-rule="nonzero"/></clipPath><clipPath id="4fb969456d"><path d="M 566.824219 249.253906 L 669.371094 351.800781 L 609.433594 411.738281 L 506.886719 309.191406 Z M 566.824219 249.253906 " clip-rule="nonzero"/></clipPath><clipPath id="5a52359524"><path d="M 575.839844 258.269531 L 660.253906 342.683594 C 662.644531 345.074219 663.988281 348.316406 663.988281 351.699219 C 663.988281 355.078125 662.644531 358.320312 660.253906 360.714844 L 618.347656 402.621094 C 615.953125 405.011719 612.710938 406.355469 609.332031 406.355469 C 605.949219 406.355469 602.707031 405.011719 600.316406 402.621094 L 515.902344 318.207031 C 513.507812 315.8125 512.167969 312.570312 512.167969 309.191406 C 512.167969 305.808594 513.507812 302.566406 515.902344 300.175781 L 557.808594 258.269531 C 560.199219 255.875 563.441406 254.535156 566.824219 254.535156 C 570.203125 254.535156 573.449219 255.875 575.839844 258.269531 Z M 575.839844 258.269531 " clip-rule="nonzero"/></clipPath><clipPath id="ad62c7b83f"><path d="M 0.160156 0.398438 L 152 0.398438 L 152 152.558594 L 0.160156 152.558594 Z M 0.160156 0.398438 " clip-rule="nonzero"/></clipPath><clipPath id="c9494e94c2"><path d="M 54.824219 -4.746094 L 157.371094 97.800781 L 97.433594 157.738281 L -5.113281 55.191406 Z M 54.824219 -4.746094 " clip-rule="nonzero"/></clipPath><clipPath id="85edbf4d24"><path d="M 63.839844 4.269531 L 148.253906 88.683594 C 150.644531 91.074219 151.988281 94.316406 151.988281 97.699219 C 151.988281 101.078125 150.644531 104.320312 148.253906 106.714844 L 106.347656 148.621094 C 103.953125 151.011719 100.710938 152.355469 97.332031 152.355469 C 93.949219 152.355469 90.707031 151.011719 88.316406 148.621094 L 3.902344 64.207031 C 1.507812 61.8125 0.167969 58.570312 0.167969 55.191406 C 0.167969 51.808594 1.507812 48.566406 3.902344 46.175781 L 45.808594 4.269531 C 48.199219 1.875 51.441406 0.535156 54.824219 0.535156 C 58.203125 0.535156 61.449219 1.875 63.839844 4.269531 Z M 63.839844 4.269531 " clip-rule="nonzero"/></clipPath><clipPath id="847d96295f"><rect x="0" width="152" y="0" height="153"/></clipPath><clipPath id="676e108458"><path d="M 140.730469 234.019531 L 669.480469 234.019531 L 669.480469 603 L 140.730469 603 Z M 140.730469 234.019531 " clip-rule="nonzero"/></clipPath></defs><g clip-path="url(#0151e05e44)"><g clip-path="url(#7c7955638c)"><path stroke-linecap="butt" transform="matrix(0.75, 0, 0, 0.75, 105.260439, 56.212176)" fill="none" stroke-linejoin="miter" d="M 427.309047 16.0921 L 771.637211 216.430665 C 788.762213 226.394207 799.298673 244.711918 799.298673 264.52442 L 799.298673 665.571341 C 799.298673 685.383843 788.762213 703.696345 771.637211 713.659888 L 427.309047 913.998453 C 410.210087 923.94637 389.085084 923.94637 371.991332 913.998453 L 27.657959 713.659888 C 10.532958 703.696345 0.00170633 685.383843 0.00170633 665.571341 L 0.00170633 264.52442 C 0.00170633 244.711918 10.532958 226.394207 27.657959 216.430665 L 371.991332 16.0921 C 389.085084 6.144182 410.210087 6.144182 427.309047 16.0921 Z M 427.309047 16.0921 " stroke="#5bc0ff" stroke-width="30" stroke-opacity="1" stroke-miterlimit="4"/></g></g><g clip-path="url(#f43442396c)"><g clip-path="url(#28aa54fdde)"><g clip-path="url(#07991aa5d2)"><g transform="matrix(1, 0, 0, 1, 146, 254)"><g clip-path="url(#23f499fd8e)"><g clip-path="url(#7a4abd0964)"><g clip-path="url(#9b27b32f24)"><g clip-path="url(#9b7f36857a)"><path fill="#2a536d" d="M -5.269531 97.695312 L 97.28125 -4.851562 L 157.21875 55.085938 L 54.667969 157.632812 Z M -5.269531 97.695312 " fill-opacity="1" fill-rule="nonzero"/></g></g></g></g></g></g></g></g><g clip-path="url(#ea0538f853)"><g clip-path="url(#4fb969456d)"><g clip-path="url(#5a52359524)"><g transform="matrix(1, 0, 0, 1, 512, 254)"><g clip-path="url(#847d96295f)"><g clip-path="url(#ad62c7b83f)"><g clip-path="url(#c9494e94c2)"><g clip-path="url(#85edbf4d24)"><path fill="#2a536d" d="M 54.824219 -4.746094 L 157.371094 97.800781 L 97.433594 157.738281 L -5.113281 55.191406 Z M 54.824219 -4.746094 " fill-opacity="1" fill-rule="nonzero"/></g></g></g></g></g></g></g></g><g clip-path="url(#676e108458)"><path fill="#5bc0ff" d="M 660.421875 330.3125 L 572.523438 242.550781 C 561.148438 231.175781 541.511719 231.175781 530.132812 242.550781 L 485.304688 287.378906 C 477.042969 295.640625 474.605469 307.964844 478.261719 318.53125 L 452.9375 343.855469 C 438.71875 345.210938 379.53125 351.035156 379.53125 351.035156 C 377.230469 351.167969 375.0625 351.847656 372.898438 352.523438 L 331.859375 317.988281 C 335.382812 307.425781 332.808594 295.507812 324.683594 287.378906 L 279.855469 242.550781 C 268.476562 231.175781 248.839844 231.175781 237.464844 242.550781 L 149.566406 330.3125 C 137.921875 341.960938 137.921875 361.054688 149.566406 372.703125 L 194.53125 417.53125 C 200.355469 423.355469 208.074219 426.335938 215.792969 426.335938 C 219.179688 426.335938 222.429688 425.65625 225.679688 424.574219 L 251.007812 449.898438 C 253.582031 470.351562 262.789062 489.582031 277.144531 504.34375 C 277.417969 504.75 277.824219 505.019531 278.09375 505.425781 L 366.261719 593.457031 C 372.355469 599.554688 380.480469 602.667969 388.605469 602.667969 C 396.734375 602.667969 404.722656 599.554688 410.953125 593.457031 C 414.339844 590.074219 416.914062 586.011719 418.539062 581.539062 C 421.921875 582.757812 425.578125 583.300781 429.101562 583.300781 C 437.5 583.300781 445.488281 580.050781 451.449219 573.957031 C 455.105469 570.300781 457.675781 565.832031 459.167969 561.089844 C 463.5 562.308594 468.242188 562.714844 472.847656 561.902344 C 479.347656 560.953125 485.578125 557.703125 490.179688 553.101562 C 494.109375 549.171875 496.953125 544.296875 498.441406 539.148438 C 508.871094 541.589844 520.113281 538.472656 527.832031 530.753906 C 535.957031 522.628906 538.9375 510.84375 535.957031 500.144531 L 545.574219 487.550781 C 545.574219 487.414062 545.710938 487.414062 545.710938 487.28125 C 545.84375 487.144531 545.980469 487.007812 546.117188 486.738281 C 552.886719 475.363281 557.222656 462.902344 558.847656 449.628906 L 584.171875 424.304688 C 587.421875 425.386719 590.671875 426.0625 594.058594 426.0625 C 601.777344 426.0625 609.496094 423.085938 615.320312 417.261719 L 660.285156 372.296875 C 671.933594 360.921875 671.933594 341.960938 660.421875 330.3125 Z M 206.179688 405.882812 L 161.214844 361.054688 C 155.933594 355.773438 155.933594 347.242188 161.214844 341.960938 L 248.976562 254.199219 C 254.121094 249.054688 262.925781 249.054688 268.070312 254.199219 L 312.898438 299.027344 C 317.367188 303.496094 318.183594 310.539062 314.660156 315.957031 C 314.117188 316.769531 313.578125 317.445312 312.898438 318.125 L 225.140625 405.882812 C 224.460938 406.5625 223.785156 407.101562 222.703125 407.78125 C 217.691406 411.167969 210.648438 410.355469 206.179688 405.882812 Z M 519.164062 502.3125 C 521.738281 508 520.519531 514.773438 516.050781 519.242188 C 511.578125 523.710938 504.945312 524.929688 499.121094 522.222656 C 498.035156 521.679688 496.953125 521.136719 496.003906 520.324219 C 493.296875 518.160156 489.640625 517.886719 486.660156 519.648438 C 483.679688 521.410156 482.191406 524.792969 482.734375 528.179688 C 483.003906 529.941406 483.003906 531.703125 482.734375 533.460938 C 482.328125 536.441406 480.835938 539.421875 478.398438 541.722656 C 476.230469 544.027344 473.386719 545.378906 470.273438 545.921875 C 465.53125 546.734375 460.929688 545.246094 457.542969 541.996094 C 454.96875 539.558594 451.175781 539.015625 447.925781 540.777344 C 444.8125 542.402344 443.050781 545.921875 443.726562 549.441406 C 444.539062 554.320312 442.914062 559.195312 439.53125 562.582031 C 436.683594 565.425781 432.894531 567.050781 428.832031 567.050781 C 424.765625 567.050781 420.976562 565.425781 418.265625 562.582031 L 417.453125 561.769531 C 414.878906 559.195312 411.089844 558.515625 407.839844 560.277344 C 404.585938 561.902344 402.828125 565.425781 403.367188 568.945312 C 404.179688 573.6875 402.554688 578.5625 399.035156 582.082031 C 393.210938 587.90625 383.597656 587.90625 377.773438 581.945312 L 289.875 494.1875 C 289.605469 493.914062 289.335938 493.507812 289.0625 493.238281 C 276.332031 480.238281 268.75 463.714844 266.988281 445.429688 C 266.851562 443.535156 265.90625 441.773438 264.550781 440.417969 L 239.359375 415.230469 L 322.515625 331.9375 L 358.945312 362.679688 L 325.496094 395.589844 C 320.347656 400.738281 317.367188 407.644531 317.367188 414.824219 C 317.367188 422.136719 320.078125 429.042969 325.222656 434.191406 C 330.371094 439.472656 337.277344 442.316406 344.726562 442.316406 C 351.90625 442.316406 358.675781 439.472656 363.28125 435.003906 L 396.597656 407.375 L 454.96875 410.21875 L 527.96875 483.214844 L 519.707031 493.914062 C 518.214844 496.21875 517.945312 499.605469 519.164062 502.3125 Z M 545.167969 440.285156 C 543.8125 441.636719 543 443.398438 542.730469 445.296875 C 541.917969 453.421875 540.019531 461.140625 537.042969 468.453125 L 464.71875 396.132812 C 463.230469 394.644531 461.335938 393.832031 459.304688 393.695312 L 394.566406 390.582031 C 394.429688 390.582031 394.296875 390.582031 394.160156 390.582031 C 392.261719 390.582031 390.367188 391.257812 388.878906 392.476562 L 352.582031 422.542969 C 348.519531 426.605469 341.476562 426.605469 337.277344 422.40625 C 335.246094 420.375 334.164062 417.667969 334.164062 414.824219 C 334.164062 411.980469 335.382812 409.269531 337.414062 407.238281 L 374.65625 370.535156 C 376.417969 368.777344 378.585938 367.691406 381.15625 367.558594 C 381.15625 367.558594 455.917969 360.242188 457.542969 360.109375 C 459.4375 359.972656 461.335938 359.160156 462.6875 357.671875 L 487.878906 332.480469 L 570.628906 415.09375 Z M 648.636719 361.054688 L 603.675781 405.882812 C 599.203125 410.355469 592.164062 411.167969 586.746094 407.644531 C 585.933594 407.101562 585.253906 406.5625 584.578125 405.882812 L 496.953125 318.125 C 496.277344 317.445312 495.734375 316.769531 495.058594 315.820312 C 491.671875 310.539062 492.484375 303.632812 496.953125 299.164062 L 541.78125 254.335938 C 544.355469 251.761719 547.742188 250.40625 551.261719 250.40625 C 554.917969 250.40625 558.304688 251.761719 560.742188 254.335938 L 648.503906 342.09375 C 653.917969 347.105469 653.917969 355.773438 648.636719 361.054688 Z M 648.636719 361.054688 " fill-opacity="1" fill-rule="nonzero"/></g><path fill="#5bc0ff" d="M 610.175781 333.96875 C 606.925781 330.71875 601.777344 330.71875 598.527344 333.96875 C 595.277344 337.21875 595.277344 342.367188 598.527344 345.617188 L 619.382812 366.472656 C 621.007812 368.097656 623.042969 368.910156 625.207031 368.910156 C 627.375 368.910156 629.40625 368.097656 631.03125 366.472656 C 634.28125 363.222656 634.28125 358.078125 631.03125 354.824219 Z M 610.175781 333.96875 " fill-opacity="1" fill-rule="nonzero"/><path fill="#5bc0ff" d="M 199.8125 333.96875 L 178.957031 354.691406 C 175.707031 357.941406 175.707031 363.085938 178.957031 366.339844 C 180.582031 367.964844 182.613281 368.777344 184.78125 368.777344 C 186.945312 368.777344 188.980469 367.964844 190.605469 366.339844 L 211.460938 345.480469 C 214.710938 342.230469 214.710938 337.085938 211.460938 333.835938 C 208.210938 330.71875 203.0625 330.71875 199.8125 333.96875 Z M 199.8125 333.96875 " fill-opacity="1" fill-rule="nonzero"/></svg>