<svg xmlns="http://www.w3.org/2000/svg" xmlns:xlink="http://www.w3.org/1999/xlink" width="1080" zoomAndPan="magnify" viewBox="0 0 810 809.999993" height="1080" preserveAspectRatio="xMidYMid meet" version="1.0"><defs><clipPath id="8a51413bfc"><path d="M 105.261719 56.214844 L 704.511719 56.214844 L 704.511719 753.710938 L 105.261719 753.710938 Z M 105.261719 56.214844 " clip-rule="nonzero"/></clipPath><clipPath id="79b9f7c2f4"><path d="M 404.996094 56.214844 L 704.734375 230.605469 L 704.734375 579.390625 L 404.996094 753.78125 L 105.261719 579.390625 L 105.261719 230.605469 Z M 404.996094 56.214844 " clip-rule="nonzero"/></clipPath><clipPath id="ebf4129687"><path d="M 346.4375 178.6875 L 463.4375 178.6875 L 463.4375 295.6875 L 346.4375 295.6875 Z M 346.4375 178.6875 " clip-rule="nonzero"/></clipPath><clipPath id="e3296b2c4a"><path d="M 404.996094 178.6875 C 372.652344 178.6875 346.4375 204.902344 346.4375 237.246094 C 346.4375 269.585938 372.652344 295.804688 404.996094 295.804688 C 437.335938 295.804688 463.554688 269.585938 463.554688 237.246094 C 463.554688 204.902344 437.335938 178.6875 404.996094 178.6875 Z M 404.996094 178.6875 " clip-rule="nonzero"/></clipPath></defs><g clip-path="url(#8a51413bfc)"><g clip-path="url(#79b9f7c2f4)"><path stroke-linecap="butt" transform="matrix(0.75, 0, 0, 0.75, 105.260439, 56.212176)" fill="none" stroke-linejoin="miter" d="M 399.647585 0.0035565 L 799.298673 232.524416 L 799.298673 697.571345 L 399.647585 930.092204 L 0.00170633 697.571345 L 0.00170633 232.524416 Z M 399.647585 0.0035565 " stroke="#ffffff" stroke-width="100" stroke-opacity="1" stroke-miterlimit="4"/></g></g><path stroke-linecap="round" transform="matrix(0.649519, 0.375, -0.375, 0.649519, 219.735828, 475.6739)" fill="none" stroke-linejoin="miter" d="M 16.001029 15.999718 L 292.979175 16.000315 " stroke="#ffffff" stroke-width="32" stroke-opacity="1" stroke-miterlimit="4"/><path stroke-linecap="round" transform="matrix(-0.651434, 0.371664, -0.371664, -0.651434, 602.255829, 497.881219)" fill="none" stroke-linejoin="miter" d="M 16.000365 15.998143 L 292.978395 16.000238 " stroke="#ffffff" stroke-width="32" stroke-opacity="1" stroke-miterlimit="4"/><path stroke-linecap="round" transform="matrix(-0.493618, 0.56466, -0.56466, -0.493618, 414.025711, 291.482086)" fill="none" stroke-linejoin="miter" d="M 15.997999 16.00088 L 360.920241 15.997116 " stroke="#ffffff" stroke-width="32" stroke-opacity="1" stroke-miterlimit="4"/><path stroke-linecap="round" transform="matrix(0.494105, 0.564234, -0.564234, 0.494105, 405.563167, 267.675535)" fill="none" stroke-linejoin="miter" d="M 16.000683 16.000057 L 375.385977 15.99982 " stroke="#ffffff" stroke-width="32" stroke-opacity="1" stroke-miterlimit="4"/><g clip-path="url(#ebf4129687)"><g clip-path="url(#e3296b2c4a)"><path stroke-linecap="butt" transform="matrix(0.75, 0, 0, 0.75, 346.436206, 178.685665)" fill="none" stroke-linejoin="miter" d="M 78.079854 0.00244612 C 34.954852 0.00244612 0.00172524 34.955573 0.00172524 78.080575 C 0.00172524 121.200369 34.954852 156.158704 78.079854 156.158704 C 121.199648 156.158704 156.157983 121.200369 156.157983 78.080575 C 156.157983 34.955573 121.199648 0.00244612 78.079854 0.00244612 Z M 78.079854 0.00244612 " stroke="#ffffff" stroke-width="64" stroke-opacity="1" stroke-miterlimit="4"/></g></g><path stroke-linecap="round" transform="matrix(0.00451233, 0.749986, -0.749986, 0.00451233, 416.993983, 295.74686)" fill="none" stroke-linejoin="miter" d="M 16.001965 16.000001 L 379.373168 15.998704 " stroke="#ffffff" stroke-width="32" stroke-opacity="1" stroke-miterlimit="4"/></svg>