<svg xmlns="http://www.w3.org/2000/svg" xmlns:xlink="http://www.w3.org/1999/xlink" width="1080" zoomAndPan="magnify" viewBox="0 0 810 809.999993" height="1080" preserveAspectRatio="xMidYMid meet" version="1.0"><defs><clipPath id="465b0147d1"><path d="M 60.042969 119.140625 L 291.363281 119.140625 L 291.363281 388.410156 L 60.042969 388.410156 Z M 60.042969 119.140625 " clip-rule="nonzero"/></clipPath><clipPath id="2c679e73a3"><path d="M 175.703125 119.140625 L 291.363281 186.433594 L 291.363281 321.019531 L 175.703125 388.3125 L 60.042969 321.019531 L 60.042969 186.433594 Z M 175.703125 119.140625 " clip-rule="nonzero"/></clipPath><clipPath id="2be088a39b"><path d="M 0.0429688 0.140625 L 231.363281 0.140625 L 231.363281 269.320312 L 0.0429688 269.320312 Z M 0.0429688 0.140625 " clip-rule="nonzero"/></clipPath><clipPath id="aa45cead0c"><path d="M 115.703125 0.140625 L 231.363281 67.433594 L 231.363281 202.019531 L 115.703125 269.3125 L 0.0429688 202.019531 L 0.0429688 67.433594 Z M 115.703125 0.140625 " clip-rule="nonzero"/></clipPath><clipPath id="da71248b26"><rect x="0" width="232" y="0" height="270"/></clipPath><clipPath id="1be6ad5a68"><path d="M 371.046875 119.140625 L 602.363281 119.140625 L 602.363281 388.410156 L 371.046875 388.410156 Z M 371.046875 119.140625 " clip-rule="nonzero"/></clipPath><clipPath id="dce6320bf3"><path d="M 486.703125 119.140625 L 602.363281 186.433594 L 602.363281 321.019531 L 486.703125 388.3125 L 371.046875 321.019531 L 371.046875 186.433594 Z M 486.703125 119.140625 " clip-rule="nonzero"/></clipPath><clipPath id="b17ec49e33"><path d="M 0.046875 0.140625 L 231.363281 0.140625 L 231.363281 269.320312 L 0.046875 269.320312 Z M 0.046875 0.140625 " clip-rule="nonzero"/></clipPath><clipPath id="2883f11dd7"><path d="M 115.703125 0.140625 L 231.363281 67.433594 L 231.363281 202.019531 L 115.703125 269.3125 L 0.046875 202.019531 L 0.046875 67.433594 Z M 115.703125 0.140625 " clip-rule="nonzero"/></clipPath><clipPath id="895741ee0c"><rect x="0" width="232" y="0" height="270"/></clipPath><clipPath id="e9c80f62de"><path d="M 210.199219 388.3125 L 441.515625 388.3125 L 441.515625 657.582031 L 210.199219 657.582031 Z M 210.199219 388.3125 " clip-rule="nonzero"/></clipPath><clipPath id="b64d9a4e17"><path d="M 325.859375 388.3125 L 441.515625 455.605469 L 441.515625 590.191406 L 325.859375 657.484375 L 210.199219 590.191406 L 210.199219 455.605469 Z M 325.859375 388.3125 " clip-rule="nonzero"/></clipPath><clipPath id="cda6160252"><path d="M 0.199219 0.3125 L 231.515625 0.3125 L 231.515625 269.582031 L 0.199219 269.582031 Z M 0.199219 0.3125 " clip-rule="nonzero"/></clipPath><clipPath id="d245f6abf4"><path d="M 115.859375 0.3125 L 231.515625 67.605469 L 231.515625 202.191406 L 115.859375 269.484375 L 0.199219 202.191406 L 0.199219 67.605469 Z M 115.859375 0.3125 " clip-rule="nonzero"/></clipPath><clipPath id="da501ce211"><rect x="0" width="232" y="0" height="270"/></clipPath><clipPath id="0fe9fd413d"><path d="M 522.1875 388.3125 L 753.507812 388.3125 L 753.507812 657.582031 L 522.1875 657.582031 Z M 522.1875 388.3125 " clip-rule="nonzero"/></clipPath><clipPath id="10c4580166"><path d="M 637.847656 388.3125 L 753.507812 455.605469 L 753.507812 590.191406 L 637.847656 657.484375 L 522.1875 590.191406 L 522.1875 455.605469 Z M 637.847656 388.3125 " clip-rule="nonzero"/></clipPath><clipPath id="b8646854bc"><path d="M 0.1875 0.3125 L 231.507812 0.3125 L 231.507812 269.582031 L 0.1875 269.582031 Z M 0.1875 0.3125 " clip-rule="nonzero"/></clipPath><clipPath id="73aac8d13a"><path d="M 115.847656 0.3125 L 231.507812 67.605469 L 231.507812 202.191406 L 115.847656 269.484375 L 0.1875 202.191406 L 0.1875 67.605469 Z M 115.847656 0.3125 " clip-rule="nonzero"/></clipPath><clipPath id="4e12af4d6a"><rect x="0" width="232" y="0" height="270"/></clipPath><clipPath id="57cf4c778e"><path d="M 14.527344 47.625 L 405 47.625 L 405 440 L 14.527344 440 Z M 14.527344 47.625 " clip-rule="nonzero"/></clipPath><clipPath id="b1139c7040"><path d="M 477 320 L 795.277344 320 L 795.277344 729 L 477 729 Z M 477 320 " clip-rule="nonzero"/></clipPath></defs><g clip-path="url(#465b0147d1)"><g clip-path="url(#2c679e73a3)"><g transform="matrix(1, 0, 0, 1, 60, 119)"><g clip-path="url(#da71248b26)"><g clip-path="url(#2be088a39b)"><g clip-path="url(#aa45cead0c)"><path fill="#2a536d" d="M 0.0429688 0.140625 L 231.363281 0.140625 L 231.363281 269.410156 L 0.0429688 269.410156 Z M 0.0429688 0.140625 " fill-opacity="1" fill-rule="nonzero"/></g></g></g></g></g></g><g clip-path="url(#1be6ad5a68)"><g clip-path="url(#dce6320bf3)"><g transform="matrix(1, 0, 0, 1, 371, 119)"><g clip-path="url(#895741ee0c)"><g clip-path="url(#b17ec49e33)"><g clip-path="url(#2883f11dd7)"><path fill="#2a536d" d="M 0.046875 0.140625 L 231.363281 0.140625 L 231.363281 269.410156 L 0.046875 269.410156 Z M 0.046875 0.140625 " fill-opacity="1" fill-rule="nonzero"/></g></g></g></g></g></g><g clip-path="url(#e9c80f62de)"><g clip-path="url(#b64d9a4e17)"><g transform="matrix(1, 0, 0, 1, 210, 388)"><g clip-path="url(#da501ce211)"><g clip-path="url(#cda6160252)"><g clip-path="url(#d245f6abf4)"><path fill="#2a536d" d="M 0.199219 0.3125 L 231.515625 0.3125 L 231.515625 269.582031 L 0.199219 269.582031 Z M 0.199219 0.3125 " fill-opacity="1" fill-rule="nonzero"/></g></g></g></g></g></g><g clip-path="url(#0fe9fd413d)"><g clip-path="url(#10c4580166)"><g transform="matrix(1, 0, 0, 1, 522, 388)"><g clip-path="url(#4e12af4d6a)"><g clip-path="url(#b8646854bc)"><g clip-path="url(#73aac8d13a)"><path fill="#2a536d" d="M 0.1875 0.3125 L 231.507812 0.3125 L 231.507812 269.582031 L 0.1875 269.582031 Z M 0.1875 0.3125 " fill-opacity="1" fill-rule="nonzero"/></g></g></g></g></g></g><path fill="#5bc0ff" d="M 379.472656 457.355469 C 372.253906 457.355469 364.625 455.398438 357.542969 451.316406 C 339.058594 440.636719 331.246094 419.445312 340.125 404.070312 C 344.621094 396.277344 352.894531 391.078125 362.824219 389.808594 C 364.207031 389.632812 365.546875 389.136719 366.703125 388.378906 C 367.867188 387.613281 368.804688 386.621094 369.484375 385.429688 C 371.941406 381.164062 370.484375 375.714844 366.246094 373.269531 L 325.476562 349.714844 C 324.019531 348.875 323.121094 347.320312 323.121094 345.644531 L 323.121094 288.09375 C 323.121094 287.085938 323.195312 286.160156 323.339844 285.261719 C 323.410156 284.753906 323.535156 284.148438 323.683594 283.546875 C 323.699219 283.496094 323.710938 283.445312 323.726562 283.394531 L 323.941406 282.664062 C 324.089844 282.148438 324.304688 281.558594 324.558594 280.957031 C 324.828125 280.316406 325.085938 279.796875 325.355469 279.320312 C 325.554688 278.949219 325.773438 278.589844 326.007812 278.234375 C 326.179688 277.945312 326.367188 277.671875 326.558594 277.417969 C 326.789062 277.085938 327.042969 276.761719 327.300781 276.445312 C 327.660156 275.976562 328.109375 275.507812 328.492188 275.125 C 328.925781 274.695312 329.347656 274.316406 329.8125 273.933594 C 329.851562 273.902344 329.910156 273.855469 329.945312 273.828125 C 330.34375 273.519531 330.742188 273.214844 331.160156 272.921875 C 331.726562 272.550781 332.210938 272.253906 332.707031 271.988281 C 333.179688 271.71875 333.703125 271.46875 334.335938 271.195312 C 334.925781 270.949219 335.511719 270.734375 336.085938 270.566406 C 337.800781 270.035156 339.628906 269.757812 341.46875 269.757812 C 347.234375 269.757812 352.574219 272.425781 356.109375 277.070312 C 360.457031 282.746094 366.222656 285.878906 372.347656 285.878906 C 384.910156 285.878906 395.128906 272.726562 395.128906 256.554688 C 395.128906 240.402344 384.910156 227.261719 372.347656 227.261719 C 366.21875 227.261719 360.449219 230.390625 356.101562 236.066406 C 352.605469 240.636719 347.140625 243.367188 341.484375 243.367188 C 331.351562 243.367188 323.121094 235.136719 323.121094 225.019531 L 323.121094 167.46875 C 323.121094 165.789062 324.019531 164.234375 325.476562 163.394531 L 479.777344 74.328125 C 481.234375 73.484375 483.027344 73.484375 484.484375 74.328125 L 638.769531 163.394531 C 640.226562 164.238281 641.121094 165.789062 641.121094 167.46875 L 641.121094 225.019531 C 641.121094 227.394531 642.058594 229.636719 643.757812 231.339844 C 645.421875 233.003906 647.726562 233.957031 650.078125 233.957031 C 652.863281 233.957031 655.453125 232.71875 657 230.644531 C 663.09375 222.511719 671.816406 217.855469 680.9375 217.855469 C 698.691406 217.855469 713.128906 235.214844 713.128906 256.554688 C 713.128906 277.914062 698.691406 295.289062 680.9375 295.289062 C 671.804688 295.289062 663.078125 290.617188 657 282.464844 C 656.234375 281.441406 655.210938 280.605469 654.035156 280.046875 C 652.128906 279.148438 650.039062 278.925781 648 279.40625 C 644.015625 280.339844 641.121094 284.234375 641.121094 288.671875 L 641.121094 345.640625 C 641.121094 347.320312 640.226562 348.875 638.773438 349.714844 L 584.359375 381.15625 C 580.121094 383.605469 575.179688 384.257812 570.449219 382.992188 C 565.808594 381.746094 561.914062 378.792969 559.46875 374.667969 C 559.417969 374.59375 559.375 374.519531 559.332031 374.445312 C 556.503906 369.539062 556.136719 363.445312 558.34375 358.148438 C 561.101562 351.542969 560.933594 344.988281 557.871094 339.679688 C 551.59375 328.808594 535.097656 326.535156 521.097656 334.613281 C 507.109375 342.695312 500.835938 358.121094 507.109375 369.007812 C 510.171875 374.3125 515.753906 377.730469 522.84375 378.640625 C 525.609375 378.988281 528.324219 379.988281 530.691406 381.53125 C 533.085938 383.105469 535.085938 385.230469 536.488281 387.683594 C 541.527344 396.378906 538.53125 407.589844 529.792969 412.652344 L 484.484375 438.816406 C 483.027344 439.65625 481.234375 439.65625 479.777344 438.816406 L 420.800781 404.757812 C 419.433594 403.96875 417.941406 403.566406 416.363281 403.566406 C 413.183594 403.566406 410.226562 405.273438 408.648438 408.015625 C 407.25 410.433594 407.082031 413.332031 408.1875 415.976562 C 412.046875 425.214844 411.675781 434.980469 407.167969 442.773438 C 401.695312 452.261719 391.117188 457.355469 379.472656 457.355469 Z M 332.53125 342.925781 L 370.949219 365.121094 C 379.675781 370.15625 382.679688 381.367188 377.644531 390.109375 C 376.25 392.550781 374.253906 394.675781 371.875 396.242188 C 369.519531 397.785156 366.804688 398.789062 364.011719 399.140625 C 356.925781 400.050781 351.332031 403.46875 348.273438 408.773438 C 341.988281 419.65625 348.257812 435.085938 362.246094 443.167969 C 376.242188 451.242188 392.742188 448.953125 399.023438 438.066406 C 402.089844 432.757812 402.265625 426.203125 399.507812 419.605469 C 397.261719 414.230469 397.617188 408.292969 400.5 403.3125 C 403.746094 397.667969 409.828125 394.160156 416.363281 394.160156 C 419.566406 394.160156 422.726562 395.007812 425.503906 396.605469 L 482.128906 429.3125 L 525.082031 404.511719 C 529.324219 402.054688 530.785156 396.605469 528.332031 392.378906 C 527.636719 391.160156 526.703125 390.167969 525.539062 389.402344 C 524.378906 388.644531 523.03125 388.148438 521.65625 387.976562 C 511.726562 386.699219 503.457031 381.503906 498.960938 373.710938 C 490.097656 358.332031 497.917969 337.136719 516.390625 326.46875 C 534.886719 315.792969 557.148438 319.613281 566.019531 334.976562 C 570.515625 342.769531 570.882812 352.535156 567.023438 361.773438 C 565.945312 364.363281 566.082031 367.203125 567.398438 369.59375 C 567.429688 369.648438 567.464844 369.707031 567.5 369.765625 C 568.679688 371.820312 570.597656 373.289062 572.886719 373.902344 C 575.1875 374.519531 577.589844 374.203125 579.648438 373.011719 L 631.714844 342.925781 L 631.714844 288.671875 C 631.714844 279.914062 637.660156 272.164062 645.851562 270.246094 C 649.921875 269.292969 654.257812 269.75 658.058594 271.542969 C 660.628906 272.761719 662.867188 274.59375 664.542969 276.84375 C 668.890625 282.671875 674.710938 285.878906 680.9375 285.878906 C 693.503906 285.878906 703.722656 272.726562 703.722656 256.554688 C 703.722656 240.402344 693.503906 227.261719 680.9375 227.261719 C 674.71875 227.261719 668.890625 230.464844 664.535156 236.277344 C 661.222656 240.714844 655.816406 243.367188 650.078125 243.367188 C 645.25 243.367188 640.523438 241.410156 637.105469 237.992188 C 633.628906 234.515625 631.714844 229.90625 631.714844 225.019531 L 631.714844 170.1875 L 482.128906 83.832031 L 332.53125 170.1875 L 332.53125 225.019531 C 332.53125 229.949219 336.542969 233.957031 341.46875 233.957031 C 344.269531 233.957031 346.875 232.644531 348.628906 230.347656 C 354.796875 222.289062 363.222656 217.855469 372.34375 217.855469 C 390.097656 217.855469 404.539062 235.214844 404.539062 256.554688 C 404.539062 277.914062 390.097656 295.289062 372.34375 295.289062 C 363.359375 295.289062 354.71875 290.726562 348.632812 282.78125 C 346.882812 280.480469 344.273438 279.167969 341.46875 279.167969 C 340.570312 279.167969 339.675781 279.304688 338.8125 279.570312 C 338.503906 279.660156 338.25 279.757812 338.003906 279.863281 C 337.777344 279.957031 337.550781 280.054688 337.34375 280.175781 C 337.28125 280.210938 337.21875 280.25 337.152344 280.28125 C 336.894531 280.414062 336.652344 280.570312 336.414062 280.722656 C 336.246094 280.847656 335.972656 281.0625 335.691406 281.277344 C 335.554688 281.386719 335.351562 281.570312 335.148438 281.773438 C 334.984375 281.941406 334.816406 282.105469 334.671875 282.292969 C 334.496094 282.507812 334.398438 282.621094 334.316406 282.746094 C 334.230469 282.871094 334.101562 283.050781 334.007812 283.167969 C 333.960938 283.246094 333.957031 283.269531 333.90625 283.347656 C 333.804688 283.492188 333.714844 283.636719 333.632812 283.792969 C 333.605469 283.851562 333.574219 283.90625 333.539062 283.960938 C 333.417969 284.171875 333.320312 284.402344 333.222656 284.625 C 333.121094 284.867188 333.023438 285.121094 332.949219 285.375 L 332.792969 285.910156 C 332.734375 286.160156 332.679688 286.410156 332.640625 286.664062 C 332.5625 287.171875 332.53125 287.601562 332.53125 288.09375 Z M 332.53125 342.925781 " fill-opacity="1" fill-rule="nonzero"/><path fill="#5bc0ff" d="M 327.828125 706.703125 C 327.011719 706.703125 326.203125 706.492188 325.476562 706.074219 L 171.171875 616.988281 C 169.714844 616.148438 168.816406 614.59375 168.816406 612.914062 L 168.816406 553.921875 C 168.816406 550.074219 166.007812 546.820312 162.417969 546.519531 C 162.171875 546.496094 161.925781 546.46875 161.667969 546.46875 C 158.925781 546.46875 156.410156 547.667969 154.921875 549.667969 C 148.8125 557.855469 140.058594 562.542969 130.898438 562.542969 C 113.15625 562.527344 98.722656 545.160156 98.722656 523.828125 C 98.757812 502.476562 113.203125 485.125 130.925781 485.125 L 130.953125 485.125 C 140.140625 485.125 148.890625 489.839844 154.960938 498.0625 C 155.6875 499.050781 156.65625 499.832031 157.847656 500.40625 C 159.03125 500.980469 160.289062 501.269531 161.660156 501.261719 C 161.988281 501.261719 162.285156 501.25 162.5625 501.234375 C 166.003906 500.964844 168.816406 497.707031 168.816406 493.832031 L 168.816406 434.742188 C 168.816406 433.0625 169.714844 431.507812 171.167969 430.667969 L 216.457031 404.511719 C 216.621094 404.414062 216.8125 404.289062 217.003906 404.167969 C 217.300781 403.964844 217.625 403.710938 217.914062 403.449219 C 218.117188 403.273438 218.242188 403.144531 218.386719 403 C 219.984375 401.382812 220.910156 399.113281 220.910156 396.792969 C 220.910156 395.214844 220.511719 393.722656 219.722656 392.355469 C 218.320312 389.941406 215.882812 388.34375 213.03125 387.972656 C 203.117188 386.699219 194.847656 381.503906 190.351562 373.710938 C 181.484375 358.324219 189.308594 337.128906 207.785156 326.464844 C 216.578125 321.386719 226.496094 319.386719 235.722656 320.835938 C 245.316406 322.347656 253.019531 327.367188 257.414062 334.976562 C 261.894531 342.769531 262.257812 352.53125 258.421875 361.765625 C 257.300781 364.425781 257.46875 367.324219 258.867188 369.734375 C 258.90625 369.800781 258.941406 369.867188 258.976562 369.933594 C 261.480469 374.046875 266.839844 375.429688 271.023438 373.011719 L 325.476562 341.566406 C 326.929688 340.726562 328.722656 340.726562 330.179688 341.566406 L 370.949219 365.121094 C 379.675781 370.15625 382.679688 381.367188 377.644531 390.109375 C 376.25 392.550781 374.253906 394.675781 371.875 396.238281 C 369.519531 397.785156 366.800781 398.789062 364.011719 399.140625 C 356.925781 400.050781 351.332031 403.46875 348.269531 408.773438 C 341.984375 419.65625 348.253906 435.085938 362.246094 443.167969 C 376.242188 451.238281 392.742188 448.953125 399.023438 438.066406 C 402.089844 432.757812 402.265625 426.203125 399.507812 419.605469 C 397.261719 414.230469 397.617188 408.292969 400.5 403.3125 C 403.746094 397.667969 409.828125 394.160156 416.363281 394.160156 C 419.566406 394.160156 422.726562 395.007812 425.503906 396.605469 L 484.484375 430.667969 C 485.9375 431.507812 486.835938 433.0625 486.835938 434.742188 L 486.835938 612.914062 C 486.835938 614.59375 485.9375 616.148438 484.484375 616.988281 L 330.175781 706.074219 C 329.453125 706.492188 328.636719 706.703125 327.828125 706.703125 Z M 178.226562 610.199219 L 327.828125 696.566406 L 477.425781 610.199219 L 477.425781 437.457031 L 420.800781 404.757812 C 419.433594 403.96875 417.941406 403.566406 416.363281 403.566406 C 413.183594 403.566406 410.226562 405.273438 408.648438 408.015625 C 407.25 410.433594 407.082031 413.332031 408.191406 415.976562 C 412.046875 425.214844 411.675781 434.980469 407.167969 442.777344 C 398.300781 458.148438 376.039062 461.984375 357.542969 451.316406 C 339.058594 440.636719 331.246094 419.445312 340.125 404.070312 C 344.617188 396.277344 352.894531 391.078125 362.824219 389.808594 C 364.207031 389.632812 365.546875 389.136719 366.703125 388.378906 C 367.867188 387.613281 368.804688 386.621094 369.484375 385.429688 C 371.941406 381.164062 370.484375 375.714844 366.246094 373.269531 L 327.824219 351.074219 L 275.734375 381.15625 C 267 386.207031 255.78125 383.207031 250.726562 374.464844 C 250.675781 374.378906 250.628906 374.289062 250.582031 374.203125 C 247.867188 369.332031 247.546875 363.351562 249.738281 358.136719 C 252.480469 351.542969 252.3125 344.984375 249.261719 339.675781 C 246.320312 334.582031 240.992188 331.191406 234.261719 330.132812 C 227.160156 329.019531 219.425781 330.609375 212.492188 334.613281 C 198.5 342.6875 192.226562 358.117188 198.5 369.007812 C 201.558594 374.3125 207.148438 377.730469 214.234375 378.640625 C 220.011719 379.386719 224.976562 382.667969 227.867188 387.640625 C 229.472656 390.429688 230.320312 393.589844 230.320312 396.792969 C 230.320312 401.570312 228.402344 406.246094 225.058594 409.636719 C 224.738281 409.953125 224.457031 410.226562 224.140625 410.503906 C 223.605469 410.988281 222.957031 411.488281 222.273438 411.960938 C 222.234375 411.988281 222.144531 412.050781 222.105469 412.074219 C 221.800781 412.269531 221.492188 412.46875 221.1875 412.644531 L 178.226562 437.457031 L 178.226562 493.832031 C 178.226562 502.582031 171.605469 509.957031 163.148438 510.625 C 162.523438 510.65625 162.039062 510.667969 161.5625 510.671875 C 158.875 510.671875 156.167969 510.054688 153.757812 508.878906 C 151.179688 507.644531 149.027344 505.875 147.382812 503.636719 C 143.050781 497.773438 137.210938 494.535156 130.949219 494.535156 L 130.929688 494.535156 C 118.378906 494.535156 108.15625 507.671875 108.128906 523.835938 C 108.128906 539.976562 118.347656 553.125 130.90625 553.136719 C 137.148438 553.136719 143 549.910156 147.375 544.050781 C 150.621094 539.679688 155.960938 537.0625 161.652344 537.0625 C 162.191406 537.0625 162.695312 537.101562 163.199219 537.140625 C 171.628906 537.851562 178.226562 545.222656 178.226562 553.921875 Z M 178.226562 610.199219 " fill-opacity="1" fill-rule="nonzero"/><g clip-path="url(#57cf4c778e)"><path fill="#5bc0ff" d="M 173.523438 439.445312 C 172.710938 439.445312 171.898438 439.238281 171.171875 438.816406 L 16.882812 349.714844 C 15.425781 348.875 14.53125 347.324219 14.53125 345.644531 L 14.53125 167.46875 C 14.53125 165.789062 15.429688 164.234375 16.882812 163.394531 L 120.378906 103.636719 C 120.488281 103.574219 120.597656 103.515625 120.707031 103.460938 C 120.746094 103.441406 120.78125 103.421875 120.816406 103.402344 L 171.171875 74.328125 C 172.625 73.484375 174.417969 73.484375 175.875 74.328125 L 221.75 100.808594 C 225.804688 102.414062 230.457031 100.800781 232.648438 96.984375 C 232.6875 96.914062 232.730469 96.847656 232.769531 96.785156 C 234.0625 94.417969 234.246094 91.664062 233.261719 89.375 C 229.253906 80.011719 229.574219 70.113281 234.125 62.207031 C 242.988281 46.832031 265.246094 43 283.742188 53.664062 C 293.769531 59.441406 301.070312 68.53125 303.773438 78.605469 C 305.882812 86.46875 304.964844 94.394531 301.199219 100.914062 C 296.664062 108.808594 288.253906 114.03125 278.125 115.242188 C 277.066406 115.355469 276.074219 115.691406 275.109375 116.25 C 273.769531 117.023438 272.636719 118.167969 271.832031 119.558594 C 269.59375 123.441406 270.660156 128.480469 274.253906 131.113281 L 330.179688 163.394531 C 331.636719 164.234375 332.53125 165.789062 332.53125 167.46875 L 332.53125 225.019531 C 332.53125 229.949219 336.542969 233.957031 341.472656 233.957031 C 344.273438 233.957031 346.875 232.640625 348.632812 230.347656 C 354.800781 222.289062 363.222656 217.855469 372.347656 217.855469 C 390.097656 217.855469 404.539062 235.214844 404.539062 256.554688 C 404.539062 277.914062 390.097656 295.289062 372.347656 295.289062 C 363.359375 295.289062 354.71875 290.726562 348.632812 282.78125 C 346.882812 280.480469 344.273438 279.167969 341.472656 279.167969 C 340.570312 279.167969 339.679688 279.304688 338.8125 279.570312 C 338.503906 279.660156 338.25 279.753906 338.003906 279.863281 C 337.777344 279.957031 337.554688 280.054688 337.347656 280.175781 C 337.28125 280.210938 337.21875 280.25 337.152344 280.28125 C 336.941406 280.394531 336.734375 280.507812 336.535156 280.644531 C 336.296875 280.8125 336.066406 280.960938 335.863281 281.140625 C 335.558594 281.386719 335.355469 281.570312 335.152344 281.773438 C 334.984375 281.941406 334.816406 282.105469 334.671875 282.292969 C 334.496094 282.507812 334.398438 282.621094 334.316406 282.746094 C 334.230469 282.871094 334.101562 283.050781 334.007812 283.167969 C 333.960938 283.246094 333.957031 283.269531 333.90625 283.34375 C 333.808594 283.492188 333.71875 283.636719 333.632812 283.792969 C 333.605469 283.851562 333.574219 283.90625 333.542969 283.960938 C 333.417969 284.171875 333.320312 284.402344 333.226562 284.625 C 333.125 284.867188 333.023438 285.121094 332.949219 285.375 L 332.792969 285.910156 C 332.734375 286.160156 332.679688 286.410156 332.644531 286.664062 C 332.5625 287.171875 332.53125 287.601562 332.53125 288.089844 L 332.53125 345.640625 C 332.53125 347.320312 331.636719 348.875 330.179688 349.714844 L 275.734375 381.15625 C 267.003906 386.207031 255.78125 383.207031 250.726562 374.464844 C 250.675781 374.378906 250.628906 374.289062 250.582031 374.199219 C 247.867188 369.332031 247.546875 363.347656 249.742188 358.136719 C 252.480469 351.542969 252.3125 344.980469 249.261719 339.675781 C 246.320312 334.582031 240.992188 331.191406 234.261719 330.132812 C 227.160156 329.019531 219.425781 330.609375 212.492188 334.613281 C 198.5 342.6875 192.226562 358.117188 198.503906 369.007812 C 201.5625 374.3125 207.148438 377.730469 214.234375 378.640625 C 220.011719 379.386719 224.980469 382.667969 227.867188 387.640625 C 229.472656 390.429688 230.320312 393.589844 230.320312 396.792969 C 230.320312 401.570312 228.402344 406.246094 225.058594 409.632812 C 224.738281 409.953125 224.460938 410.226562 224.140625 410.503906 C 223.605469 410.984375 222.960938 411.488281 222.273438 411.960938 C 222.238281 411.988281 222.144531 412.050781 222.105469 412.074219 C 221.800781 412.269531 221.496094 412.464844 221.1875 412.644531 L 175.875 438.816406 C 175.148438 439.234375 174.335938 439.445312 173.523438 439.445312 Z M 23.9375 342.925781 L 173.523438 429.3125 L 216.457031 404.511719 C 216.625 404.414062 216.8125 404.289062 217.003906 404.167969 C 217.300781 403.964844 217.628906 403.710938 217.914062 403.449219 C 218.117188 403.273438 218.246094 403.144531 218.386719 403 C 219.984375 401.382812 220.910156 399.113281 220.910156 396.792969 C 220.910156 395.214844 220.511719 393.722656 219.722656 392.355469 C 218.324219 389.941406 215.882812 388.34375 213.03125 387.972656 C 203.117188 386.703125 194.847656 381.503906 190.351562 373.710938 C 181.484375 358.324219 189.308594 337.128906 207.789062 326.464844 C 216.578125 321.386719 226.496094 319.386719 235.722656 320.839844 C 245.316406 322.347656 253.019531 327.367188 257.414062 334.976562 C 261.894531 342.773438 262.257812 352.53125 258.421875 361.765625 C 257.304688 364.425781 257.46875 367.324219 258.867188 369.734375 C 258.90625 369.800781 258.941406 369.867188 258.976562 369.933594 C 261.484375 374.046875 266.839844 375.429688 271.027344 373.011719 L 323.121094 342.925781 L 323.121094 288.089844 C 323.121094 287.085938 323.195312 286.160156 323.339844 285.261719 C 323.410156 284.753906 323.539062 284.148438 323.6875 283.546875 C 323.699219 283.496094 323.710938 283.445312 323.726562 283.394531 L 323.941406 282.664062 C 324.09375 282.148438 324.304688 281.558594 324.558594 280.957031 C 324.828125 280.316406 325.085938 279.796875 325.355469 279.320312 C 325.558594 278.949219 325.773438 278.589844 326.007812 278.234375 C 326.179688 277.945312 326.367188 277.671875 326.5625 277.417969 C 326.792969 277.085938 327.046875 276.761719 327.304688 276.445312 C 327.664062 275.976562 328.113281 275.507812 328.492188 275.125 C 328.925781 274.695312 329.347656 274.316406 329.816406 273.933594 C 330.179688 273.617188 330.660156 273.273438 331.144531 272.933594 C 331.628906 272.597656 332.140625 272.289062 332.710938 271.988281 C 333.183594 271.714844 333.703125 271.464844 334.335938 271.195312 C 334.925781 270.949219 335.515625 270.734375 336.085938 270.566406 C 337.800781 270.035156 339.628906 269.757812 341.472656 269.757812 C 347.238281 269.757812 352.574219 272.425781 356.113281 277.070312 C 360.457031 282.746094 366.226562 285.878906 372.347656 285.878906 C 384.910156 285.878906 395.128906 272.726562 395.128906 256.554688 C 395.128906 240.402344 384.910156 227.261719 372.347656 227.261719 C 366.21875 227.261719 360.449219 230.390625 356.101562 236.066406 C 352.605469 240.636719 347.140625 243.367188 341.484375 243.367188 C 331.351562 243.367188 323.121094 235.136719 323.121094 225.019531 L 323.121094 170.1875 L 269.351562 139.148438 C 269.234375 139.082031 269.117188 139.007812 269.003906 138.925781 C 261.207031 133.464844 258.917969 123.113281 263.683594 114.851562 C 265.320312 112.027344 267.640625 109.699219 270.398438 108.101562 C 272.515625 106.878906 274.765625 106.136719 277.078125 105.894531 C 284.261719 105.035156 289.957031 101.59375 293.046875 96.21875 C 295.597656 91.800781 296.164062 86.558594 294.683594 81.042969 C 292.625 73.363281 286.921875 66.355469 279.042969 61.816406 C 265.039062 53.742188 248.546875 56.023438 242.277344 66.902344 C 239.171875 72.296875 239.039062 78.960938 241.90625 85.664062 C 244.082031 90.714844 243.675781 96.703125 240.816406 101.667969 C 240.765625 101.757812 240.710938 101.84375 240.65625 101.929688 C 235.976562 109.769531 226.210938 112.964844 217.808594 109.359375 C 217.636719 109.285156 217.472656 109.203125 217.3125 109.109375 L 173.523438 83.832031 L 125.445312 111.59375 C 125.363281 111.640625 125.28125 111.6875 125.195312 111.726562 C 125.113281 111.777344 125.011719 111.832031 124.902344 111.886719 L 23.9375 170.1875 Z M 23.9375 342.925781 " fill-opacity="1" fill-rule="nonzero"/></g><g clip-path="url(#b1139c7040)"><path fill="#5bc0ff" d="M 541.929688 728.964844 C 534.714844 728.96875 527.09375 727.011719 520.019531 722.929688 C 511.214844 717.84375 504.519531 710.246094 501.167969 701.535156 C 497.675781 692.476562 498.179688 683.292969 502.585938 675.679688 C 507.160156 667.726562 515.617188 662.496094 525.769531 661.335938 C 527 661.203125 528.167969 660.757812 529.269531 660.007812 C 530.335938 659.273438 531.253906 658.273438 531.910156 657.125 C 533.078125 655.101562 533.386719 652.773438 532.789062 650.539062 C 532.1875 648.292969 530.742188 646.414062 528.722656 645.246094 L 479.777344 616.988281 C 478.320312 616.148438 477.425781 614.59375 477.425781 612.914062 L 477.425781 434.742188 C 477.425781 433.0625 478.320312 431.507812 479.777344 430.667969 L 525.082031 404.511719 C 529.324219 402.050781 530.785156 396.605469 528.332031 392.378906 C 527.636719 391.160156 526.703125 390.167969 525.539062 389.402344 C 524.378906 388.644531 523.03125 388.148438 521.65625 387.976562 C 511.726562 386.699219 503.457031 381.503906 498.960938 373.710938 C 490.097656 358.328125 497.917969 337.136719 516.390625 326.46875 C 534.886719 315.792969 557.148438 319.613281 566.019531 334.976562 C 570.515625 342.769531 570.882812 352.535156 567.023438 361.773438 C 565.945312 364.363281 566.082031 367.203125 567.398438 369.59375 C 567.429688 369.648438 567.464844 369.707031 567.5 369.765625 C 568.679688 371.816406 570.59375 373.289062 572.886719 373.902344 C 575.1875 374.519531 577.589844 374.203125 579.648438 373.011719 L 634.066406 341.566406 C 635.496094 340.742188 637.375 340.742188 638.804688 341.570312 L 758.765625 410.832031 L 793.105469 430.667969 C 794.5625 431.507812 795.457031 433.0625 795.457031 434.742188 L 795.457031 612.914062 C 795.457031 614.59375 794.5625 616.148438 793.105469 616.988281 L 638.800781 706.074219 C 637.347656 706.914062 635.554688 706.914062 634.097656 706.074219 L 582.929688 676.53125 C 580.914062 675.367188 578.566406 675.058594 576.332031 675.664062 C 574.09375 676.261719 572.230469 677.699219 571.078125 679.710938 C 571.023438 679.800781 570.96875 679.886719 570.910156 679.976562 C 569.667969 682.277344 569.496094 684.9375 570.449219 687.144531 C 574.519531 696.519531 574.214844 706.457031 569.605469 714.394531 C 564.140625 723.875 553.566406 728.964844 541.929688 728.964844 Z M 486.835938 610.199219 L 533.425781 637.097656 C 537.625 639.519531 540.625 643.429688 541.875 648.109375 C 543.125 652.769531 542.484375 657.636719 540.066406 661.808594 C 538.726562 664.164062 536.824219 666.238281 534.578125 667.773438 C 532.175781 669.414062 529.566406 670.390625 526.808594 670.6875 C 519.578125 671.515625 513.859375 674.957031 510.730469 680.382812 C 507.777344 685.492188 507.5 691.800781 509.945312 698.15625 C 512.527344 704.863281 517.777344 710.769531 524.722656 714.785156 C 538.703125 722.847656 555.191406 720.5625 561.464844 709.683594 C 564.609375 704.265625 564.730469 697.59375 561.820312 690.886719 C 559.644531 685.871094 560.054688 679.933594 562.910156 675.003906 C 562.976562 674.890625 563.050781 674.777344 563.125 674.667969 C 565.542969 670.664062 569.351562 667.796875 573.882812 666.578125 C 578.554688 665.320312 583.4375 665.957031 587.632812 668.378906 L 636.449219 696.566406 L 786.046875 610.199219 L 786.046875 437.457031 L 636.433594 351.066406 L 584.359375 381.15625 C 580.121094 383.605469 575.179688 384.257812 570.449219 382.992188 C 565.808594 381.746094 561.914062 378.792969 559.46875 374.667969 C 559.417969 374.59375 559.375 374.519531 559.332031 374.445312 C 556.503906 369.539062 556.136719 363.449219 558.34375 358.148438 C 561.101562 351.542969 560.933594 344.988281 557.871094 339.679688 C 551.59375 328.808594 535.097656 326.535156 521.097656 334.613281 C 507.109375 342.695312 500.835938 358.121094 507.109375 369.007812 C 510.171875 374.3125 515.753906 377.730469 522.84375 378.640625 C 525.609375 378.988281 528.324219 379.988281 530.691406 381.53125 C 533.085938 383.105469 535.085938 385.230469 536.488281 387.683594 C 541.527344 396.378906 538.53125 407.589844 529.792969 412.652344 L 486.835938 437.457031 Z M 486.835938 610.199219 " fill-opacity="1" fill-rule="nonzero"/></g></svg>