<svg xmlns="http://www.w3.org/2000/svg" xmlns:xlink="http://www.w3.org/1999/xlink" width="1080" zoomAndPan="magnify" viewBox="0 0 810 809.999993" height="1080" preserveAspectRatio="xMidYMid meet" version="1.0"><path fill="#ffffff" d="M 405 59.871094 L 105.410156 232.4375 L 105.410156 578.929688 L 405 751.496094 L 704.585938 578.929688 L 704.585938 232.4375 Z M 670.347656 486.144531 L 405 638.847656 L 139.648438 486.144531 L 139.648438 427.253906 L 405 580.128906 L 670.347656 427.253906 Z M 670.347656 407.566406 L 405 560.441406 L 139.648438 407.566406 L 139.648438 348.847656 L 405 501.722656 L 670.347656 348.847656 Z M 670.347656 329.160156 L 405 482.035156 L 139.648438 329.160156 L 139.648438 270.269531 L 405 423.144531 L 670.347656 270.269531 Z M 668.980469 251.4375 L 405 403.457031 L 141.019531 251.4375 L 405 99.417969 Z M 405 711.949219 L 139.648438 559.074219 L 139.648438 505.832031 L 405 658.535156 L 670.347656 505.832031 L 670.347656 559.074219 Z M 210.523438 248.1875 L 405 136.226562 L 422.117188 146.152344 L 227.8125 258.113281 Z M 347.476562 224.5625 L 452.761719 163.957031 L 469.882812 173.714844 L 364.769531 234.320312 Z M 330.359375 254.519531 L 276.605469 285.675781 L 259.484375 275.917969 L 313.925781 244.761719 Z M 306.90625 303.480469 L 501.039062 191.007812 L 518.15625 200.9375 L 323.683594 313.410156 Z M 499.15625 247.328125 L 516.273438 257.257812 L 370.929688 340.972656 L 353.8125 331.042969 Z M 499.15625 247.328125 " fill-opacity="1" fill-rule="nonzero"/></svg>