<svg xmlns="http://www.w3.org/2000/svg" xmlns:xlink="http://www.w3.org/1999/xlink" width="1080" zoomAndPan="magnify" viewBox="0 0 810 809.999993" height="1080" preserveAspectRatio="xMidYMid meet" version="1.0"><defs><clipPath id="f37c3dd20f"><path d="M 105.261719 56.214844 L 704.511719 56.214844 L 704.511719 753.710938 L 105.261719 753.710938 Z M 105.261719 56.214844 " clip-rule="nonzero"/></clipPath><clipPath id="980f65a1bc"><path d="M 404.996094 56.214844 L 704.734375 230.605469 L 704.734375 579.390625 L 404.996094 753.78125 L 105.261719 579.390625 L 105.261719 230.605469 Z M 404.996094 56.214844 " clip-rule="nonzero"/></clipPath><clipPath id="dbb1e422fb"><path d="M 243 263.105469 L 567 263.105469 L 567 546.605469 L 243 546.605469 Z M 243 263.105469 " clip-rule="nonzero"/></clipPath></defs><g clip-path="url(#f37c3dd20f)"><g clip-path="url(#980f65a1bc)"><path stroke-linecap="butt" transform="matrix(0.75, 0, 0, 0.75, 105.260439, 56.212176)" fill="none" stroke-linejoin="miter" d="M 399.647585 0.0035565 L 799.298673 232.524416 L 799.298673 697.571345 L 399.647585 930.092204 L 0.00170633 697.571345 L 0.00170633 232.524416 Z M 399.647585 0.0035565 " stroke="#ffffff" stroke-width="100" stroke-opacity="1" stroke-miterlimit="4"/></g></g><g clip-path="url(#dbb1e422fb)"><path fill="#ffffff" d="M 506.21875 303.890625 C 506.21875 326.234375 488.066406 344.371094 465.722656 344.371094 C 450.746094 344.371094 437.628906 336.191406 430.648438 324.070312 L 263.371094 324.070312 C 252.21875 324.070312 243.132812 314.984375 243.132812 303.832031 C 243.132812 292.660156 252.21875 283.589844 263.371094 283.589844 L 430.6875 283.589844 C 437.710938 271.507812 450.765625 263.414062 465.722656 263.414062 C 488.066406 263.414062 506.21875 281.546875 506.21875 303.890625 Z M 566.9375 303.851562 C 566.9375 315.003906 557.871094 324.089844 546.699219 324.089844 L 522.976562 324.089844 C 525.183594 317.777344 526.398438 310.976562 526.398438 303.910156 C 526.398438 296.789062 525.183594 289.96875 522.917969 283.613281 L 546.699219 283.613281 C 557.871094 283.613281 566.9375 292.679688 566.9375 303.851562 Z M 384.90625 404.925781 C 384.90625 427.269531 366.753906 445.402344 344.40625 445.402344 C 329.492188 445.402344 316.417969 437.308594 309.414062 425.265625 L 263.371094 425.265625 C 252.21875 425.265625 243.132812 416.179688 243.132812 405.027344 C 243.132812 393.855469 252.21875 384.789062 263.371094 384.789062 L 309.273438 384.789062 C 316.296875 372.625 329.410156 364.445312 344.40625 364.445312 C 366.730469 364.445312 384.90625 382.582031 384.90625 404.925781 Z M 566.9375 405.046875 C 566.9375 416.199219 557.871094 425.285156 546.699219 425.285156 L 401.542969 425.285156 C 403.808594 418.910156 405.023438 412.089844 405.023438 404.984375 C 405.023438 397.882812 403.808594 391.082031 401.605469 384.808594 L 546.699219 384.808594 C 557.871094 384.808594 566.9375 393.875 566.9375 405.046875 Z M 465.742188 506.121094 C 465.742188 528.464844 447.585938 546.601562 425.242188 546.601562 C 410.347656 546.601562 397.292969 538.503906 390.25 526.460938 L 263.371094 526.460938 C 252.21875 526.460938 243.132812 517.375 243.132812 506.222656 C 243.132812 495.050781 252.21875 485.984375 263.371094 485.984375 L 390.128906 485.984375 C 397.132812 473.820312 410.246094 465.644531 425.242188 465.644531 C 447.585938 465.644531 465.742188 483.777344 465.742188 506.121094 Z M 566.9375 506.242188 C 566.9375 517.394531 557.871094 526.480469 546.699219 526.480469 L 482.5 526.480469 C 484.765625 520.105469 485.980469 513.285156 485.980469 506.183594 C 485.980469 499.078125 484.765625 492.277344 482.558594 486.003906 L 546.699219 486.003906 C 557.871094 486.003906 566.9375 495.070312 566.9375 506.242188 Z M 566.9375 506.242188 " fill-opacity="1" fill-rule="nonzero"/></g></svg>