<svg xmlns="http://www.w3.org/2000/svg" xmlns:xlink="http://www.w3.org/1999/xlink" width="1080" zoomAndPan="magnify" viewBox="0 0 810 809.999993" height="1080" preserveAspectRatio="xMidYMid meet" version="1.0"><defs><clipPath id="d46690b83b"><path d="M 105.261719 56.214844 L 704.511719 56.214844 L 704.511719 753.710938 L 105.261719 753.710938 Z M 105.261719 56.214844 " clip-rule="nonzero"/></clipPath><clipPath id="1547f570b3"><path d="M 404.996094 56.214844 L 704.734375 230.605469 L 704.734375 579.390625 L 404.996094 753.78125 L 105.261719 579.390625 L 105.261719 230.605469 Z M 404.996094 56.214844 " clip-rule="nonzero"/></clipPath><clipPath id="7fc11790f5"><path d="M 210.203125 354.566406 L 273.765625 354.566406 L 273.765625 418.132812 L 210.203125 418.132812 Z M 210.203125 354.566406 " clip-rule="nonzero"/></clipPath><clipPath id="b96204e1b8"><path d="M 241.984375 354.566406 C 224.429688 354.566406 210.203125 368.796875 210.203125 386.347656 C 210.203125 403.902344 224.429688 418.132812 241.984375 418.132812 C 259.539062 418.132812 273.765625 403.902344 273.765625 386.347656 C 273.765625 368.796875 259.539062 354.566406 241.984375 354.566406 Z M 241.984375 354.566406 " clip-rule="nonzero"/></clipPath><clipPath id="90076c8ced"><path d="M 0.203125 0.566406 L 63.765625 0.566406 L 63.765625 64.132812 L 0.203125 64.132812 Z M 0.203125 0.566406 " clip-rule="nonzero"/></clipPath><clipPath id="e0de19b7a5"><path d="M 31.984375 0.566406 C 14.429688 0.566406 0.203125 14.796875 0.203125 32.347656 C 0.203125 49.902344 14.429688 64.132812 31.984375 64.132812 C 49.539062 64.132812 63.765625 49.902344 63.765625 32.347656 C 63.765625 14.796875 49.539062 0.566406 31.984375 0.566406 Z M 31.984375 0.566406 " clip-rule="nonzero"/></clipPath><clipPath id="2ef29174f4"><rect x="0" width="64" y="0" height="65"/></clipPath><clipPath id="edca5e64a3"><path d="M 295.765625 488.113281 L 359.332031 488.113281 L 359.332031 551.679688 L 295.765625 551.679688 Z M 295.765625 488.113281 " clip-rule="nonzero"/></clipPath><clipPath id="394ac935d2"><path d="M 327.550781 488.113281 C 309.996094 488.113281 295.765625 502.34375 295.765625 519.898438 C 295.765625 537.449219 309.996094 551.679688 327.550781 551.679688 C 345.101562 551.679688 359.332031 537.449219 359.332031 519.898438 C 359.332031 502.34375 345.101562 488.113281 327.550781 488.113281 Z M 327.550781 488.113281 " clip-rule="nonzero"/></clipPath><clipPath id="37bd1dccbe"><path d="M 0.765625 0.113281 L 64.332031 0.113281 L 64.332031 63.679688 L 0.765625 63.679688 Z M 0.765625 0.113281 " clip-rule="nonzero"/></clipPath><clipPath id="e449e3f9de"><path d="M 32.550781 0.113281 C 14.996094 0.113281 0.765625 14.34375 0.765625 31.898438 C 0.765625 49.449219 14.996094 63.679688 32.550781 63.679688 C 50.101562 63.679688 64.332031 49.449219 64.332031 31.898438 C 64.332031 14.34375 50.101562 0.113281 32.550781 0.113281 Z M 32.550781 0.113281 " clip-rule="nonzero"/></clipPath><clipPath id="3cce4e9416"><rect x="0" width="65" y="0" height="64"/></clipPath><clipPath id="6debcdb1b2"><path d="M 215.453125 523.648438 L 279.015625 523.648438 L 279.015625 587.214844 L 215.453125 587.214844 Z M 215.453125 523.648438 " clip-rule="nonzero"/></clipPath><clipPath id="111a876e53"><path d="M 247.234375 523.648438 C 229.679688 523.648438 215.453125 537.875 215.453125 555.429688 C 215.453125 572.984375 229.679688 587.214844 247.234375 587.214844 C 264.789062 587.214844 279.015625 572.984375 279.015625 555.429688 C 279.015625 537.875 264.789062 523.648438 247.234375 523.648438 Z M 247.234375 523.648438 " clip-rule="nonzero"/></clipPath><clipPath id="7c65e2255e"><path d="M 0.453125 0.648438 L 64.015625 0.648438 L 64.015625 64.214844 L 0.453125 64.214844 Z M 0.453125 0.648438 " clip-rule="nonzero"/></clipPath><clipPath id="6df960d174"><path d="M 32.234375 0.648438 C 14.679688 0.648438 0.453125 14.875 0.453125 32.429688 C 0.453125 49.984375 14.679688 64.214844 32.234375 64.214844 C 49.789062 64.214844 64.015625 49.984375 64.015625 32.429688 C 64.015625 14.875 49.789062 0.648438 32.234375 0.648438 Z M 32.234375 0.648438 " clip-rule="nonzero"/></clipPath><clipPath id="1f3ae5fa5b"><rect x="0" width="65" y="0" height="65"/></clipPath></defs><g clip-path="url(#d46690b83b)"><g clip-path="url(#1547f570b3)"><path stroke-linecap="butt" transform="matrix(0.75, 0, 0, 0.75, 105.260439, 56.212176)" fill="none" stroke-linejoin="miter" d="M 399.647585 0.0035565 L 799.298673 232.524416 L 799.298673 697.571345 L 399.647585 930.092204 L 0.00170633 697.571345 L 0.00170633 232.524416 Z M 399.647585 0.0035565 " stroke="#ffffff" stroke-width="100" stroke-opacity="1" stroke-miterlimit="4"/></g></g><path stroke-linecap="round" transform="matrix(0.649519, 0.375, -0.375, 0.649519, 189.311142, 344.176056)" fill="none" stroke-linejoin="miter" d="M 16.000931 16.002469 L 292.979076 16.003066 " stroke="#ffffff" stroke-width="32" stroke-opacity="1" stroke-miterlimit="4"/><path stroke-linecap="round" transform="matrix(0.649519, 0.375, -0.375, 0.649519, 195.311142, 429.057766)" fill="none" stroke-linejoin="miter" d="M 15.999062 15.999231 L 292.977207 15.999829 " stroke="#ffffff" stroke-width="32" stroke-opacity="1" stroke-miterlimit="4"/><path stroke-linecap="round" transform="matrix(0.649519, 0.375, -0.375, 0.649519, 195.311142, 511.006458)" fill="none" stroke-linejoin="miter" d="M 15.999413 15.999839 L 292.977559 16.000437 " stroke="#ffffff" stroke-width="32" stroke-opacity="1" stroke-miterlimit="4"/><g clip-path="url(#7fc11790f5)"><g clip-path="url(#b96204e1b8)"><g transform="matrix(1, 0, 0, 1, 210, 354)"><g clip-path="url(#2ef29174f4)"><g clip-path="url(#90076c8ced)"><g clip-path="url(#e0de19b7a5)"><path fill="#ffffff" d="M 0.203125 0.566406 L 63.765625 0.566406 L 63.765625 64.132812 L 0.203125 64.132812 Z M 0.203125 0.566406 " fill-opacity="1" fill-rule="nonzero"/></g></g></g></g></g></g><g clip-path="url(#edca5e64a3)"><g clip-path="url(#394ac935d2)"><g transform="matrix(1, 0, 0, 1, 295, 488)"><g clip-path="url(#3cce4e9416)"><g clip-path="url(#37bd1dccbe)"><g clip-path="url(#e449e3f9de)"><path fill="#ffffff" d="M 0.765625 0.113281 L 64.332031 0.113281 L 64.332031 63.679688 L 0.765625 63.679688 Z M 0.765625 0.113281 " fill-opacity="1" fill-rule="nonzero"/></g></g></g></g></g></g><g clip-path="url(#6debcdb1b2)"><g clip-path="url(#111a876e53)"><g transform="matrix(1, 0, 0, 1, 215, 523)"><g clip-path="url(#1f3ae5fa5b)"><g clip-path="url(#7c65e2255e)"><g clip-path="url(#6df960d174)"><path fill="#ffffff" d="M 0.453125 0.648438 L 64.015625 0.648438 L 64.015625 64.214844 L 0.453125 64.214844 Z M 0.453125 0.648438 " fill-opacity="1" fill-rule="nonzero"/></g></g></g></g></g></g><path stroke-linecap="round" transform="matrix(0.649519, 0.375, -0.375, 0.649519, 399.556625, 253.060788)" fill="none" stroke-linejoin="miter" d="M 16.000356 15.999845 L 118.185977 16.000934 " stroke="#ffffff" stroke-width="32" stroke-opacity="1" stroke-miterlimit="4"/><path stroke-linecap="round" transform="matrix(0.649519, 0.375, -0.375, 0.649519, 399.556625, 253.060788)" fill-opacity="1" fill="#ffffff" fill-rule="nonzero" stroke-linejoin="round" d="M 134.189304 -31.999246 L 198.189816 15.99872 L 134.187794 63.998144 Z M 134.189304 -31.999246 " stroke="#ffffff" stroke-width="32" stroke-opacity="1" stroke-miterlimit="4"/><path stroke-linecap="round" transform="matrix(0, -0.75, 0.75, 0, 393.556448, 277.052437)" fill="none" stroke-linejoin="miter" d="M 16.002209 15.997654 L 118.189714 15.997654 " stroke="#ffffff" stroke-width="32" stroke-opacity="1" stroke-miterlimit="4"/><path stroke-linecap="round" transform="matrix(0, -0.75, 0.75, 0, 393.556448, 277.052437)" fill-opacity="1" fill="#ffffff" fill-rule="nonzero" stroke-linejoin="round" d="M 134.189715 -32.002349 L 198.189718 15.997654 L 134.189715 63.997656 Z M 134.189715 -32.002349 " stroke="#ffffff" stroke-width="32" stroke-opacity="1" stroke-miterlimit="4"/><path stroke-linecap="round" transform="matrix(-0.656993, 0.361746, -0.361746, -0.656993, 423.619662, 271.051734)" fill="none" stroke-linejoin="miter" d="M 15.999675 15.999288 L 118.186775 16.000652 " stroke="#ffffff" stroke-width="32" stroke-opacity="1" stroke-miterlimit="4"/><path stroke-linecap="round" transform="matrix(-0.656993, 0.361746, -0.361746, -0.656993, 423.619662, 271.051734)" fill-opacity="1" fill="#ffffff" fill-rule="nonzero" stroke-linejoin="round" d="M 134.187568 -31.99985 L 198.1869 15.998053 L 134.187038 63.99829 Z M 134.187568 -31.99985 " stroke="#ffffff" stroke-width="32" stroke-opacity="1" stroke-miterlimit="4"/></svg>