<?xml version="1.0" encoding="UTF-8" standalone="no"?>
<!DOCTYPE svg PUBLIC "-//W3C//DTD SVG 1.1//EN" "http://www.w3.org/Graphics/SVG/1.1/DTD/svg11.dtd">
<svg width="100%" height="100%" viewBox="0 0 734 517" version="1.1" xmlns="http://www.w3.org/2000/svg" xmlns:xlink="http://www.w3.org/1999/xlink" xml:space="preserve" xmlns:serif="http://www.serif.com/" style="fill-rule:evenodd;clip-rule:evenodd;stroke-linejoin:round;stroke-miterlimit:2;">
    <g transform="matrix(4.16667,0,0,4.16667,0,0)">
        <path d="M172.322,19.363C170.298,11.742 164.335,5.739 156.762,3.702C143.037,0 88,0 88,0C88,0 32.963,0 19.237,3.702C11.665,5.739 5.701,11.742 3.677,19.363C0,33.178 0,62 0,62C0,62 0,90.823 3.677,104.638C5.701,112.259 11.665,118.261 19.237,120.299C32.963,124 88,124 88,124C88,124 143.037,124 156.762,120.299C164.335,118.261 170.298,112.259 172.322,104.638C176,90.823 176,62 176,62C176,62 176,33.178 172.322,19.363Z" style="fill:rgb(237,31,36);fill-rule:nonzero;"/>
        <path d="M70,88.169L116,62.001L70,35.832L70,88.169Z" style="fill:white;fill-rule:nonzero;"/>
    </g>
</svg>
