<?xml version="1.0" encoding="UTF-8" standalone="no"?>
<!DOCTYPE svg PUBLIC "-//W3C//DTD SVG 1.1//EN" "http://www.w3.org/Graphics/SVG/1.1/DTD/svg11.dtd">
<svg width="100%" height="100%" viewBox="0 0 312 300" version="1.1" xmlns="http://www.w3.org/2000/svg" xmlns:xlink="http://www.w3.org/1999/xlink" xml:space="preserve" xmlns:serif="http://www.serif.com/" style="fill-rule:evenodd;clip-rule:evenodd;stroke-linejoin:round;stroke-miterlimit:2;">
    <g transform="matrix(1,0,0,1,-144,-217)">
        <g transform="matrix(1,0,0,1,450.739,342.143)">
            <path d="M0,49.714L-51.123,20.319L-51.123,79.109L-96.985,52.739L-96.985,-6.051L-148.109,-35.446L-148.109,-88.186L-96.986,-58.791L-96.985,-117.581L-51.123,-91.211L-51.123,-32.421L0,-3.026L0,49.714ZM-51.123,137.899L-94.355,113.041L-51.123,88.184L-51.123,137.899ZM-250.355,88.184L-207.123,113.042L-250.355,137.899L-250.355,88.184ZM-301.478,49.714L-301.478,-3.026L-250.355,-32.421L-250.355,-91.211L-204.493,-117.581L-204.492,-58.791L-153.37,-88.186L-153.37,-35.446L-204.493,-6.051L-204.493,52.739L-250.355,79.109L-250.355,20.319L-301.478,49.714ZM-156,-92.724L-199.231,-67.866L-199.232,-117.581L-156,-92.724ZM-102.246,52.739L-148.109,79.109L-148.109,26.369L-102.246,-0.001L-102.246,52.739ZM-153.37,26.369L-153.37,79.109L-199.232,52.739L-199.232,-0.001L-153.37,26.369ZM-102.246,-117.581L-102.247,-67.866L-145.478,-92.724L-102.246,-117.581ZM-45.862,-35.446L-45.862,-94.236L-99.616,-125.143L-150.739,-95.748L-201.862,-125.143L-255.616,-94.236L-255.616,-35.446L-306.739,-6.051L-306.739,55.764L-255.616,85.159L-255.616,143.949L-201.862,174.857L-150.739,145.462L-99.616,174.857L-45.862,143.949L-45.862,85.159L5.261,55.764L5.261,-6.051L-45.862,-35.446Z" style="fill:rgb(21,36,74);fill-rule:nonzero;"/>
        </g>
    </g>
</svg>
