<?xml version="1.0" encoding="utf-8"?>
<!-- Generator: Adobe Illustrator 19.1.0, SVG Export Plug-In . SVG Version: 6.00 Build 0)  -->
<svg version="1.1" id="Layer_1" xmlns="http://www.w3.org/2000/svg" xmlns:xlink="http://www.w3.org/1999/xlink" x="0px" y="0px"
	 viewBox="-184 254 242 233" style="enable-background:new -184 254 242 233;" xml:space="preserve">
<style type="text/css">
	.st0{fill:#15244A;}
	.st1{fill:url(#SVGID_1_);}
	.st2{fill:url(#SVGID_2_);}
</style>
<g>
	<path class="st0" d="M-22.667,347.115L-63,370.394l-40.333-23.279L-63,323.836C-63,323.836-22.667,347.115-22.667,347.115z
		 M17.667,370.394v46.558L58,393.673L17.667,370.394z M-183.959,393.673l40.333,23.279v-46.558L-183.959,393.673z M-63,463.509
		l40.333,23.279l40.333-23.279l-40.333-23.279l40.333-23.279l-40.333-23.278L-63,416.952l-40.333-23.279l-40.333,23.279
		l40.333,23.279l-40.333,23.279l40.333,23.279L-63,463.509z"/>
	
		<linearGradient id="SVGID_1_" gradientUnits="userSpaceOnUse" x1="-124.5723" y1="507.3206" x2="39.1188" y2="413.3376" gradientTransform="matrix(1 0 0 -1 0 796)">
		<stop  offset="0" style="stop-color:#1C68EC"/>
		<stop  offset="1" style="stop-color:#00E9DF"/>
	</linearGradient>
	<path class="st1" d="M17.625,416.952v46.558l-40.333-23.279C-22.708,440.231,17.625,416.952,17.625,416.952z M-63,416.952v-46.558
		l-40.333-23.279v46.558L-63,416.952z M-103.333,254v46.558L-63,277.279L-103.333,254z M-22.667,393.673l40.333,23.279v-46.558
		L58,393.673v-46.558l-40.333-23.279v-46.558L-22.667,254v46.558L-63,277.279v46.558l40.333,23.279
		C-22.667,347.116-22.667,393.673-22.667,393.673z"/>
	
		<linearGradient id="SVGID_2_" gradientUnits="userSpaceOnUse" x1="-178.1252" y1="492.0077" x2="-23.7672" y2="403.0087" gradientTransform="matrix(1 0 0 -1 0 796)">
		<stop  offset="0" style="stop-color:#FF3C2A"/>
		<stop  offset="1" style="stop-color:#FFD215"/>
	</linearGradient>
	<path class="st2" d="M-63,416.952v-46.558l40.333-23.279v46.558L-63,416.952z M-63,277.279l40.333,23.279V254
		C-22.667,254-63,277.279-63,277.279z M-103.333,347.115L-63,323.836v-46.558l-40.333,23.279V254l-40.333,23.279v46.558
		L-184,347.115v46.558l40.333-23.279v46.558l40.333-23.279L-103.333,347.115L-103.333,347.115z M-143.625,416.952v46.558
		l40.333-23.279L-143.625,416.952L-143.625,416.952z"/>
</g>
</svg>
