<?xml version="1.0" encoding="UTF-8" standalone="no"?>
<!DOCTYPE svg PUBLIC "-//W3C//DTD SVG 1.1//EN" "http://www.w3.org/Graphics/SVG/1.1/DTD/svg11.dtd">
<svg width="100%" height="100%" viewBox="0 0 312 300" version="1.1" xmlns="http://www.w3.org/2000/svg" xmlns:xlink="http://www.w3.org/1999/xlink" xml:space="preserve" xmlns:serif="http://www.serif.com/" style="fill-rule:evenodd;clip-rule:evenodd;stroke-linejoin:round;stroke-miterlimit:2;">
    <g transform="matrix(1,0,0,1,-144,-217)">
        <g transform="matrix(1,0,0,1,450.739,342.142)">
            <path d="M0,49.716L-51.123,20.321L-51.123,79.111L-96.985,52.741L-96.985,-6.049L-148.109,-35.444L-148.109,-88.184L-96.986,-58.789L-96.985,-117.579L-51.123,-91.209L-51.123,-32.419L0,-3.024L0,49.716ZM-45.862,79.111L-45.862,29.396L-2.63,54.253L-45.862,79.111ZM-51.123,137.901L-94.355,113.043L-51.123,88.185L-51.123,137.901ZM-99.616,168.809L-150.739,139.414L-201.862,168.809L-247.724,142.438L-196.601,113.044L-247.724,83.648L-201.863,57.278L-150.739,86.673L-99.616,57.278L-53.753,83.648L-104.877,113.043L-53.754,142.438L-99.616,168.809ZM-298.848,54.253L-255.616,29.396L-255.616,79.111L-298.848,54.253ZM-156,-92.722L-199.232,-67.864L-199.232,-117.579L-156,-92.722ZM-199.232,0.001L-153.37,26.371L-153.37,79.111L-199.232,52.741L-199.232,0.001ZM-104.877,-4.537L-150.739,21.833L-196.601,-4.537L-150.739,-30.907L-104.877,-4.537ZM-45.862,-35.444L-45.862,-94.234L-99.616,-125.142L-150.739,-95.747L-201.862,-125.141L-255.616,-94.234L-255.616,-35.444L-306.739,-6.049L-306.739,55.766L-255.616,85.161L-255.616,143.951L-201.862,174.858L-150.739,145.464L-99.616,174.858L-45.862,143.95L-45.862,85.161L5.261,55.766L5.261,-6.049L-45.862,-35.444Z" style="fill:rgb(240,242,246);fill-rule:nonzero;"/>
        </g>
    </g>
</svg>
