<svg xmlns="http://www.w3.org/2000/svg" viewBox="0 0 64 64"><defs><style>.cls-1{opacity:0.2;}</style></defs><title>icons-landingPage-64px</title><g id="OUTLINES"><path d="M34.78,51a2.74,2.74,0,0,1-1.1,2.15l-.77.61a1,1,0,0,1-.62.22,1,1,0,0,1-.62-1.78l.77-.61a.68.68,0,0,0,0-1.18l-.77-.61a1,1,0,1,1,1.24-1.56l.77.61A2.74,2.74,0,0,1,34.78,51Zm-5-1H27.67a1,1,0,0,0-1.06.93A1,1,0,0,0,27.54,52h2.22a1,1,0,1,0,0-2ZM23,45.34c0-.11,0-.22,0-.34V43.25a1,1,0,0,0-2,0V45c0,.16,0,.32,0,.48a1,1,0,0,0,1,.93h.07A1,1,0,0,0,23,45.34ZM22,41a1,1,0,0,0,1-1V38a1,1,0,0,0-2,0v2A1,1,0,0,0,22,41Zm1.89,6.85A1,1,0,1,0,22.25,49,7,7,0,0,0,24,50.76a1,1,0,0,0,1.14-1.64A5.11,5.11,0,0,1,23.89,47.85ZM58,31.85v22.3A1.85,1.85,0,0,1,56.15,56H41.85A1.85,1.85,0,0,1,40,54.15V31.85A1.85,1.85,0,0,1,41.85,30h14.3A1.85,1.85,0,0,1,58,31.85Zm-1,0a.85.85,0,0,0-.85-.85H41.85a.85.85,0,0,0-.85.85v22.3a.85.85,0,0,0,.85.85h14.3a.85.85,0,0,0,.85-.85ZM50.8,42.91a.13.13,0,0,0,0,.18l2.25,2.26a1.1,1.1,0,0,1,.33.89,1.12,1.12,0,0,1-.45.82,5,5,0,0,1-2.72.94H50a5,5,0,1,1,0-10,4.91,4.91,0,0,1,2.92.94,1.11,1.11,0,0,1,.46.82,1.13,1.13,0,0,1-.33.9Zm-.71-.71L52.34,40a.14.14,0,0,0,0-.11.11.11,0,0,0-.05-.09A4,4,0,0,0,50,39a4,4,0,0,0-2.74,6.85,3.91,3.91,0,0,0,5.08.4c0-.11,0-.16,0-.2L50.09,43.8A1.13,1.13,0,0,1,50.09,42.2ZM48.49,41a.56.56,0,1,0,.55.56A.56.56,0,0,0,48.49,41ZM51,58.5A1.5,1.5,0,1,1,49.5,57,1.5,1.5,0,0,1,51,58.5Zm-1,0a.5.5,0,1,0-.5.5A.5.5,0,0,0,50,58.5ZM61,29.08V58.92A4.08,4.08,0,0,1,56.92,63H41.08A4.08,4.08,0,0,1,37,58.92V36H11.37a9.76,9.76,0,0,1-9.75-9.75c0-.21,0-.43,0-.65s0-.45.07-.67.05-.33.08-.52l0-.14c0-.2.09-.38.14-.57s.1-.35.17-.56A9.49,9.49,0,0,1,4.4,19.46a6.56,6.56,0,0,1,.84-.77,9.54,9.54,0,0,1,4.42-2A10.51,10.51,0,0,1,20.12,7a10.26,10.26,0,0,1,3.47.6,14.73,14.73,0,0,1,26.93,6.52l.33.12c.26.09.52.21.78.33a11.46,11.46,0,0,1,1.1.59l.46.3a11.39,11.39,0,0,1,3.59,4c.14.26.27.54.39.81A11,11,0,0,1,58,22.86c0,.24.08.53.11.82s0,.72,0,1.07a3.24,3.24,0,0,1,0,.44A4.07,4.07,0,0,1,61,29.08ZM41.08,25h15a2,2,0,0,0,0-.25c0-.3,0-.6,0-.9a4.2,4.2,0,0,0-.08-.62,9.13,9.13,0,0,0-.64-2.17c-.11-.23-.21-.45-.33-.67a9.31,9.31,0,0,0-2.92-3.25l-.42-.28a9.1,9.1,0,0,0-.88-.47,5.11,5.11,0,0,0-.64-.27c-.19-.08-.39-.15-.58-.21h-.1l-.25-.09-.56-.15-.09-.73a12.73,12.73,0,0,0-23.72-5.6l-.45.77-.82-.36A8.37,8.37,0,0,0,20.12,9a8.51,8.51,0,0,0-8.5,8.5v.92l-.92.12a7.53,7.53,0,0,0-4.21,1.72,3.65,3.65,0,0,0-.63.57A7.47,7.47,0,0,0,4,23.77a4.29,4.29,0,0,0-.13.44c-.06.2-.09.32-.12.45v.08s0,.06,0,.09,0,.23-.06.38a5,5,0,0,0,0,.5c0,.18,0,.36,0,.54A7.76,7.76,0,0,0,11.37,34H37V29.08a3.69,3.69,0,0,1,0-.58A4.09,4.09,0,0,1,41.08,25ZM59,29.08A2.09,2.09,0,0,0,56.92,27H41.08A2.09,2.09,0,0,0,39,29.08V58.92A2.09,2.09,0,0,0,41.08,61H56.92A2.09,2.09,0,0,0,59,58.92Z"/></g><g id="SHADING"><path class="cls-1" d="M12,29a6.51,6.51,0,0,1-5.95-9.13h0a6.06,6.06,0,0,1,.55-1,9.25,9.25,0,0,0-.88.62,8,8,0,0,0-.74.68,8.4,8.4,0,0,0-2,3.29A5.52,5.52,0,0,0,2.8,24a4.37,4.37,0,0,0-.12.49s0,.06,0,.1-.06.34-.08.51a5.32,5.32,0,0,0-.06.56c0,.2,0,.4,0,.6A8.75,8.75,0,0,0,11.25,35H37V29.58A3.69,3.69,0,0,1,37,29Zm45-5.24a6,6,0,0,0-.1-.74,9.86,9.86,0,0,0-.71-2.37c-.11-.26-.23-.5-.36-.74a10.26,10.26,0,0,0-3.23-3.6l-.46-.3a10.18,10.18,0,0,0-1-.53l-.73-.31-.75-.25h0a8.54,8.54,0,0,1,.62.73,8.23,8.23,0,0,1,1.68,5,8.07,8.07,0,0,1-1.63,4.85H57q0-.37,0-.75C57,24.42,57,24.09,57,23.76ZM55.5,32h-13a.5.5,0,0,0-.5.5v21a.5.5,0,0,0,.5.5h13a.5.5,0,0,0,.5-.5v-21A.5.5,0,0,0,55.5,32ZM53.76,44.64a2.13,2.13,0,0,1-.25,3.23A5.87,5.87,0,0,1,50.25,49H50a6,6,0,1,1,0-12,5.92,5.92,0,0,1,3.5,1.13,2.1,2.1,0,0,1,.88,1.55,2.13,2.13,0,0,1-.62,1.68L52.12,43Z"/></g></svg>