<svg id="Layer_1" data-name="Layer 1" xmlns="http://www.w3.org/2000/svg" viewBox="0 0 47 47"><defs><style>.cls-1{fill:#231f20;}</style></defs><path class="cls-1" d="M23.5,3.34,6,13.42v9.72l1,.57V34.15l16.5,9.5L40,34.15V23.71l1-.57V13.42ZM28,11.71v2l0,2.64-1.48.84L25,16.36V13.7l-6-3.47,0,1.14,1.82,1.06-1.3.74L18,12.3V7.68l1.5-.88ZM23,41.05,9,33V24.87l4,2.28,0,0v2.72l4,2.29V29.47l6,3.46ZM14,29.31V25.93l2,1.14v3.38Zm9,2.46-6-3.46V26.49L13,24.2V26L8,23.14V15.79l15,8.64ZM38,33,24,41.05V32.93l14-8.06Zm1-9.85L24,31.77V24.43l15-8.64Zm0-8.5L23.5,23.56,8,14.64v-.07L17,9.4v3.48l2.51,1.44L21.8,13,24,14.28v2.66l2.52,1.43L29,17V11.14L21.51,6.8l2-1.15L39,14.57Z"/></svg>