<svg id="Layer_1" data-name="Layer 1" xmlns="http://www.w3.org/2000/svg" viewBox="0 0 47 47"><defs><style>.cls-1{fill:#231f20;}</style></defs><path class="cls-1" d="M41,28.78l-3-1.71V20l3-1.73v-4.8L23.5,3.35,6,13.42V33.66L23.5,43.73,41,33.66V28.8h0Zm-29,.6L11,30V21.1l1,.58Zm.51.86,11,6.34L37,28.8l1,.56L23.5,37.72l-12-6.9Zm23.49-2L23.52,35.42,13,29.37V22.25L16,24v5.69l1.74-.77L20,32V26.28l3.5,2L36,21.1ZM17,24.56l2,1.15v3.22l-.95-1.37L17,28.14Zm22-10L23.5,23.49,8,14.57,23.5,5.65ZM39,32.5,23.5,41.43,8,32.5V15.72l15.5,8.93L39,15.71v2.5h0L23.5,27.14,10,19.38V31.11l13.5,7.77L39,30Z"/></svg>
