<svg id="Layer_1" data-name="Layer 1" xmlns="http://www.w3.org/2000/svg" viewBox="0 0 47 47"><defs><style>.cls-1{fill:#231f20;}</style></defs><path class="cls-1" d="M41,13.42,23.5,3.34,6,13.42v7.07l5.31,3.05L6,26.6v7.06L17,40v4.57l1,.57,2.91-2.9,2.6,1.5L41,33.67V26.6l-5.31-3.06L41,20.48ZM8,19.32V15.74l15.5,8.92,2.6-1.5L29,26v3.58l-2.73-3-2.77,1.6Zm9,18.35L8,32.5V28.92l9,5.18ZM39,32.5,23.5,41.43l-2.77-1.6L18,42.8V39.22l2.9-2.88,2.6,1.5L39,28.92Zm0-4.74L23.5,36.69l-2.77-1.6L18,37.82v-4.3L8,27.76l5.31-3.06L23.5,30.56l2.6-1.5L29,32l1-.57V26.82l3.68-2.12Zm0-8.44L30,24.5V20.92l9-5.18Zm-10,1v4.3l-2.73-2.73-2.77,1.6L8,14.58,23.5,5.65,39,14.58Z"/></svg>