<svg xmlns="http://www.w3.org/2000/svg" viewBox="0 0 32 32"><defs><style>.cls-1{fill:#231f20;opacity:0.3;}</style></defs><title>i-</title><g id="OUTLINES"><path d="M22.69,10.3C20.06,7.81,17.58,5.46,17.1,2a1,1,0,0,0-.51-.74,1,1,0,0,0-.9,0C7.82,4.9,3.3,11.14,3.3,18.34c0,5.58,2.86,10.06,7.65,12a1,1,0,1,0,.74-1.86,10.42,10.42,0,0,1-1.34-.66,7.56,7.56,0,0,1-1.61-4.86c.1-2.85,1.61-5.54,4.5-8-.34,5,2.42,6.3,2.55,6.36a.56.56,0,0,0,.36,0,5.26,5.26,0,0,0,2.92-2.94l.06.05c2.12,1.77,4.13,3.44,4.13,6A5.26,5.26,0,0,1,22,27.93a10.94,10.94,0,0,1-1.25.54,1,1,0,0,0-.61,1.28,1,1,0,0,0,.94.66,1,1,0,0,0,.34-.06c4.57-1.62,7.3-5.27,7.3-9.74C28.7,16,25.64,13.1,22.69,10.3Zm1.17,16.4a6.57,6.57,0,0,0,.4-2.27c0-3-2.28-4.92-4.49-6.76l-.59-.5a.48.48,0,0,0-.46-.1.51.51,0,0,0-.34.33A4.53,4.53,0,0,1,16,20.29c-.58-.38-2.36-2-1.68-6.42a.49.49,0,0,0-.79-.47c-3.75,2.84-5.71,6-5.83,9.52a9.36,9.36,0,0,0,.57,3.27,11,11,0,0,1-3-7.85C5.3,12.3,9,7,15.39,3.59c.94,3.44,3.47,5.84,5.92,8.16,2.77,2.63,5.39,5.1,5.39,8.86A7.74,7.74,0,0,1,23.86,26.7Z"/></g><g id="SHADING"><path class="cls-1" d="M26,22.54a6.85,6.85,0,0,1-3.91,6,5.72,5.72,0,0,0,1.7-4.15c0-3-2.54-4.88-4.9-6.88A4.94,4.94,0,0,1,16,20.85s-3-1.39-2.13-7.06c-3.32,2.53-5.5,5.56-5.63,9.12a7.8,7.8,0,0,0,2.47,6A8.4,8.4,0,0,1,6.07,21c0-5.19,2.4-9.16,6.84-12.31a1.52,1.52,0,0,1,2.18.51C18.38,14.84,26,16.81,26,22.54Z"/></g></svg>
