<svg xmlns="http://www.w3.org/2000/svg" viewBox="0 0 32 32"><defs><style>.cls-1{fill:#231f20;opacity:0.3;}</style></defs><title>i-</title><g id="OUTLINES"><path d="M30.35,11.31a3.13,3.13,0,0,0-2.26-2.08L21.6,7.68,18.17,2a3.12,3.12,0,0,0-5.34,0L9.35,7.72,2.91,9.23A3.13,3.13,0,0,0,.65,11.31a3.09,3.09,0,0,0,.61,3L5.6,19.38,5.05,26a3.12,3.12,0,0,0,4.32,3.14l6.1-2.55h.06l6.1,2.55a3.05,3.05,0,0,0,1.21.25A3.12,3.12,0,0,0,26,26l-.53-6.65,4.32-5A3.09,3.09,0,0,0,30.35,11.31ZM28.23,13l-4.32,5a2.13,2.13,0,0,0-.5,1.54L24,26.14a1.1,1.1,0,0,1-.46,1,1.12,1.12,0,0,1-1.1.13l-6.09-2.56a2.13,2.13,0,0,0-1.62,0h0L8.6,27.27a1.12,1.12,0,0,1-1.1-.13,1.1,1.1,0,0,1-.46-1l.55-6.59A2.09,2.09,0,0,0,7.09,18L2.77,13a1.13,1.13,0,0,1,.6-1.83L9.8,9.67a2.15,2.15,0,0,0,1.31-.95l3.43-5.66a1.12,1.12,0,0,1,1.92,0l3.43,5.66a2.15,2.15,0,0,0,1.31.95l6.43,1.51a1.13,1.13,0,0,1,.6,1.83Z"/></g><g id="SHADING"><path class="cls-1" d="M30,20.83a.51.51,0,0,1-.48.35.4.4,0,0,1-.15,0l-1.81-.58a.5.5,0,0,1-.32-.63.49.49,0,0,1,.63-.32l1.8.58A.51.51,0,0,1,30,20.83ZM23.72,4.12,22.6,5.66a.51.51,0,0,0,.11.7.55.55,0,0,0,.3.09.51.51,0,0,0,.4-.2l1.12-1.54a.5.5,0,0,0-.81-.59Zm-16,2.09a.49.49,0,0,0,.7.11.51.51,0,0,0,.11-.7l-1-1.35a.5.5,0,0,0-.81.59ZM3.15,19.61l-1.8.58a.51.51,0,0,0-.33.63.51.51,0,0,0,.48.35.4.4,0,0,0,.15,0l1.81-.58a.5.5,0,0,0,.32-.63A.49.49,0,0,0,3.15,19.61ZM15.5,28.13a.5.5,0,0,0-.5.5v1.9a.5.5,0,0,0,1,0v-1.9A.5.5,0,0,0,15.5,28.13Zm-.71-9.32L6.89,28.1l6.42-2.7a5.73,5.73,0,0,1,4.38,0l6.42,2.7-7.9-9.29A.94.94,0,0,0,14.79,18.81Zm-.22-5.35L15.5,1.3l-3.62,6A5.69,5.69,0,0,1,8.36,9.82l-6.8,1.6,11.86,2.87A.94.94,0,0,0,14.57,13.46Z"/></g></svg>