<svg xmlns="http://www.w3.org/2000/svg" viewBox="0 0 32 32"><defs><style>.cls-1{opacity:0.3;}</style></defs><title>i-</title><g id="OUTLINES"><path d="M31.7,22.77l-6.52-6.06a1,1,0,0,0-1.08-.19,1,1,0,0,0-.6.92V19h-.88a.72.72,0,0,1-.58-.28L11.42,5.5A4,4,0,0,0,8.3,4H3.5A2.5,2.5,0,0,0,1,6.5v4A2.5,2.5,0,0,0,3.5,13H6.16a.76.76,0,0,1,.59.28L17.36,26.5A4,4,0,0,0,20.48,28h3v1.5a1,1,0,0,0,.6.92,1.1,1.1,0,0,0,.4.08,1,1,0,0,0,.68-.26l6.52-6A1,1,0,0,0,32,23.5,1,1,0,0,0,31.7,22.77Zm-6.2,4.45V27a1,1,0,0,0-1-1h-4a2,2,0,0,1-1.56-.75L8.3,12a2.7,2.7,0,0,0-2.14-1H3.5a.51.51,0,0,1-.5-.5v-4A.51.51,0,0,1,3.5,6H8.3a2,2,0,0,1,1.56.75L20.48,20a2.73,2.73,0,0,0,2.14,1H24.5a1,1,0,0,0,1-1v-.27l4.05,3.77ZM13.26,22.63a.49.49,0,0,1,.13.69l-2.13,3.14A3.49,3.49,0,0,1,8.37,28H3a2,2,0,0,1-2-2V23a2,2,0,0,1,2-2H6.21A1,1,0,0,0,7,20.56L8.76,18a.5.5,0,1,1,.82.56L7.86,21.12A2,2,0,0,1,6.21,22H3a1,1,0,0,0-1,1v3a1,1,0,0,0,1,1H8.37a2.47,2.47,0,0,0,2.06-1.1l2.14-3.14A.49.49,0,0,1,13.26,22.63ZM31,7.5a.49.49,0,0,1-.18.38l-6,5A.5.5,0,0,1,24,12.5V11H22.29a1,1,0,0,0-.83.44l-1.59,2.35a.5.5,0,1,1-.82-.56l1.59-2.35A2,2,0,0,1,22.29,10H24.5a.5.5,0,0,1,.5.5v.93L29.72,7.5,25,3.52v1a.5.5,0,0,1-.14.35A.51.51,0,0,1,24.5,5H20.13a2.47,2.47,0,0,0-2.06,1.1L16.06,9a.5.5,0,1,1-.82-.56l2-2.94A3.49,3.49,0,0,1,20.13,4H24l0-1.55A.5.5,0,0,1,24.27,2a.47.47,0,0,1,.53.07l6,5.06A.49.49,0,0,1,31,7.5Z"/></g><g id="SHADING"><path class="cls-1" d="M30.5,24l-.89-.53a13.1,13.1,0,0,1-2.49-.13,2,2,0,0,1-1.49-1.84c0,1.2-.13,1.3-1.59,1.3H22.5a3.67,3.67,0,0,1-3.05-1.68L9.17,8.36A1.53,1.53,0,0,0,8,7.8H3.72A.81.81,0,0,0,3,8.6H2.46V7.79c-.56,0-1-.15-1-.79A1.5,1.5,0,0,1,3,5.5H8a4.45,4.45,0,0,1,3.5,1.68L21.79,19.94c.45.56.48.56.71.56h.13a1.5,1.5,0,0,1,1.41-1,1.47,1.47,0,0,1,1.07.46L25,19.5l2-.5ZM17,10.63a.52.52,0,0,0,.41-.22l2.07-3A.8.8,0,0,1,20.19,7H23.5a.5.5,0,0,0,0-1H20.19a1.8,1.8,0,0,0-1.49.79L16.62,9.84a.51.51,0,0,0,.42.79ZM6.35,24h-3a.51.51,0,0,1-.5-.5.5.5,0,0,1,.5-.5h3a2.64,2.64,0,0,0,2.19-1.17L9.81,20a.5.5,0,0,1,.83.57L9.37,22.4A3.65,3.65,0,0,1,6.35,24Z"/></g></svg>