<svg xmlns="http://www.w3.org/2000/svg" viewBox="0 0 64 64"><defs><style>.cls-1{opacity:0.3;}</style></defs><title>i-</title><g id="OUTLINES"><path d="M57,55.58V38.5l-7-7V49.3l-2-2V29.5l-1-1V46.3l-3-3V23.5l-9-9V34.3l-2-2V12.5L22.5,2H2V22.5L12.5,33H32.3l2,2H14.5l9,9H43.3l3,3H28.5l1,1H47.3l2,2H31.5l7,7H55.58l5,5H62V60.58ZM13.33,31,4,21.67V4.7L30.3,31ZM31,30.3,4.7,4h17L31,13.33ZM24.33,42l-5-5h17l5,5ZM42,41.3l-5-5v-17l5,5ZM39.33,55l-3-3h15l3,3ZM55,54.3l-3-3v-15l3,3Z"/></g><g id="SHADING"><path class="cls-1" d="M28,11.5V27H27l1,1H11.5l2,2H30V13.5Zm3,3V30H30l2.5,2.5V16ZM42.5,42.25V26L40,23.5V39h-.75L39,38.75V22.5L36.5,20V36.5H20.25l2.5,2.5H39l.25.25V40H23.75l2.5,2.5h16.5Zm8-4.25V50.5L53,53V40.5ZM25,8.5V24H24l1,1H8.5l2,2H27V10.5Zm-5-5H19V18H18l3,3V4.5ZM3.5,3.5,9,9V3.5Zm6.5,0V9H9l3,3V3.5Zm44,38V54l2.5,2.5V44ZM22,5.5V21H21l3,3V7.5Zm-9-2V12H12l3,3V3.5Zm3,0V15H15l3,3V3.5Z"/></g></svg>