<svg width="60" height="152" viewBox="0 0 60 152" xmlns="http://www.w3.org/2000/svg" xmlns:xlink="http://www.w3.org/1999/xlink"><title>assets-content</title><defs><path id="b" d="M0 0h60v24H0z"/><filter x="-.8%" y="-2.1%" width="101.7%" height="104.2%" filterUnits="objectBoundingBox" id="a"><feOffset dy="1" in="SourceAlpha" result="shadowOffsetInner1"/><feComposite in="shadowOffsetInner1" in2="SourceAlpha" operator="arithmetic" k2="-1" k3="1" result="shadowInnerInner1"/><feColorMatrix values="0 0 0 0 0.17254902 0 0 0 0 0.180392157 0 0 0 0 0.2 0 0 0 0.01 0" in="shadowInnerInner1"/></filter></defs><g fill="none" fill-rule="evenodd"><rect width="28" height="4" rx="2" transform="translate(5 5)" fill="#FFF" opacity=".1"/><use filter="url(#a)" xlink:href="#b" fill="#000"/><rect width="29" height="4" rx="2" transform="translate(13 22)" fill="#FFF" opacity=".1"/><rect width="4" height="4" rx="2" transform="translate(5 22)" fill="#FFF" opacity=".1"/><rect width="20" height="4" rx="2" transform="translate(13 36)" fill="#FFF" opacity=".1"/><rect width="4" height="4" rx="2" transform="translate(5 36)" fill="#FFF" opacity=".1"/><rect width="28" height="4" rx="2" transform="translate(13 50)" fill="#FFF" opacity=".1"/><rect width="4" height="4" rx="2" transform="translate(5 50)" fill="#FFF" opacity=".1"/><rect width="16" height="4" rx="2" transform="translate(13 120)" fill="#FFF" opacity=".1"/><rect width="4" height="4" rx="2" transform="translate(5 120)" fill="#FFF" opacity=".1"/><g fill="#FFF"><rect width="21" height="4" rx="2" transform="translate(13 134)" opacity=".1"/><rect width="4" height="4" rx="2" transform="translate(5 134)" opacity=".1"/></g><rect width="32" height="4" rx="2" transform="translate(21 64)" fill="#FFF" opacity=".3"/><rect width="4" height="4" rx="2" transform="translate(13 64)" fill="#FACE30" opacity=".5"/><path fill="#954D35" d="M0 59h2v14H0z"/><path fill-opacity=".05" fill="#FFF" d="M2 59h58v14H2z"/><rect width="23" height="4" rx="2" transform="translate(21 78)" fill="#FFF" opacity=".1"/><rect width="4" height="4" rx="2" transform="translate(13 78)" fill="#0AAFD4" opacity=".2"/><rect width="20" height="4" rx="2" transform="translate(21 92)" fill="#FFF" opacity=".1"/><rect width="4" height="4" rx="2" transform="translate(13 92)" fill="#0AAFD4" opacity=".2"/><rect width="25" height="4" rx="2" transform="translate(21 106)" fill="#FFF" opacity=".1"/><rect width="4" height="4" rx="2" transform="translate(13 106)" fill="#0AAFD4" opacity=".2"/><rect width="20" height="4" rx="2" transform="translate(21 148)" fill="#FFF" opacity=".1"/><rect width="4" height="4" rx="2" transform="translate(13 148)" fill="#45DD4C" opacity=".2"/></g></svg>