<?xml version="1.0" encoding="UTF-8" standalone="no"?>
<!DOCTYPE svg PUBLIC "-//W3C//DTD SVG 1.1//EN" "http://www.w3.org/Graphics/SVG/1.1/DTD/svg11.dtd">
<svg width="100%" height="100%" viewBox="0 0 908 567" version="1.1" xmlns="http://www.w3.org/2000/svg" xmlns:xlink="http://www.w3.org/1999/xlink" xml:space="preserve" xmlns:serif="http://www.serif.com/" style="fill-rule:evenodd;clip-rule:evenodd;stroke-linejoin:round;stroke-miterlimit:2;">
    <g id="NINTENDO-SWITCH-LOGO" serif:id="NINTENDO SWITCH LOGO">
        <g transform="matrix(1,0,0,1,581.916,225.098)">
            <path d="M0,116.736L-3.469,116.736L-3.469,107.522L0,107.522C2.541,107.522 4.607,109.588 4.607,112.128C4.607,114.669 2.541,116.736 0,116.736M-0.161,104.182L-6.733,104.182L-6.733,120.076L-0.161,120.076C4.345,120.076 8.011,116.511 8.011,112.128C8.011,107.747 4.345,104.182 -0.161,104.182M-12.337,133.893C-8.951,133.893 -5.794,135.7 -4.104,138.549L0.776,134.305C-2.21,129.862 -7.142,127.224 -12.512,127.224C-21.338,127.224 -28.52,134.404 -28.52,143.23C-28.52,152.056 -21.338,159.236 -12.512,159.236C-7.142,159.236 -2.21,156.598 0.776,152.155L-4.104,147.912C-5.794,150.761 -8.952,152.568 -12.337,152.568C-17.582,152.568 -21.85,148.379 -21.85,143.23C-21.85,138.082 -17.582,133.893 -12.337,133.893M-58.591,134.568L-49.007,134.568L-49.007,158.194L-42.555,158.194L-42.555,134.568L-33.187,134.568L-33.187,128.204L-58.591,128.204L-58.591,134.568ZM27.841,140.023L13.833,140.023L13.833,128.204L7.631,128.204L7.631,158.194L13.833,158.194L13.833,146.231L27.841,146.231L27.841,158.194L34.047,158.194L34.047,128.204L27.841,128.204L27.841,140.023ZM45.106,153.731L43.982,156.996L42.858,153.731L41.62,153.731L41.62,158.195L42.418,158.195L42.418,154.769L43.583,158.154L43.597,158.195L44.367,158.195L44.381,158.154L45.546,154.769L45.546,158.195L46.344,158.195L46.344,153.731L45.106,153.731ZM26.757,117.076C24.034,117.076 21.819,114.857 21.819,112.128C21.819,109.401 24.034,107.181 26.757,107.181C29.48,107.181 31.695,109.401 31.695,112.128C31.695,114.857 29.48,117.076 26.757,117.076M26.757,103.646C22.09,103.646 18.291,107.452 18.291,112.129C18.291,116.806 22.09,120.611 26.757,120.611C31.425,120.611 35.223,116.806 35.223,112.129C35.223,107.452 31.425,103.646 26.757,103.646M36.983,154.586L38.357,154.586L38.357,158.195L39.225,158.195L39.225,154.586L40.566,154.586L40.566,153.731L36.983,153.731L36.983,154.586ZM-47.606,117.131L-56.741,117.131L-56.741,113.404L-48.294,113.404L-48.294,110.529L-56.741,110.529L-56.741,107.1L-47.606,107.1L-47.606,104.182L-59.967,104.187L-59.967,120.076L-47.606,120.071L-47.606,117.131ZM-20.18,120.076L-20.18,104.182L-23.405,104.182L-23.405,114.622L-31.223,104.182L-34.434,104.182L-34.434,120.076L-31.212,120.076L-31.212,109.446L-23.317,120.076L-20.18,120.076ZM-122.631,104.182L-126.168,104.182L-126.168,120.076L-122.631,120.076L-122.631,104.182ZM-139.959,139.978C-144.293,139.266 -147.091,138.463 -147.091,136.445C-147.091,134.113 -143.975,133.217 -139.793,133.217C-135.906,133.217 -132.007,134.698 -130.616,135.283L-128.485,130.092C-129.995,129.493 -134.786,127.782 -140.099,127.782C-146.578,127.782 -153.464,130.942 -153.464,136.798C-153.464,141.547 -150.114,143.973 -141.517,145.452C-135.457,146.495 -132.119,147.07 -132.213,149.676C-132.267,151.111 -133.376,153.519 -140.208,153.519C-145.703,153.519 -149.575,151.527 -150.92,150.718L-153.759,155.842C-152.246,156.637 -147.17,159.018 -140.639,159.018C-131.098,159.018 -126.055,155.712 -126.055,149.459C-126.055,145.835 -127.278,142.059 -139.959,139.978M-92.348,149.962L-98.701,128.204L-104.024,128.204L-110.342,149.883L-116.11,128.204L-122.639,128.204L-114.153,158.194L-106.947,158.194L-101.355,138.435L-95.8,158.194L-88.563,158.194L-80.032,128.204L-86.557,128.204L-92.348,149.962ZM-107.42,109.446L-99.527,120.076L-96.389,120.076L-96.389,104.182L-99.615,104.182L-99.615,114.622L-107.433,104.182L-110.643,104.182L-110.643,120.076L-107.42,120.076L-107.42,109.446ZM-72.581,158.194L-65.907,158.194L-65.907,128.204L-72.581,128.204L-72.581,158.194ZM-71.604,104.182L-85.068,104.182L-85.068,107.555L-79.987,107.555L-79.987,120.076L-76.568,120.076L-76.568,107.555L-71.604,107.555L-71.604,104.182ZM-149.185,109.446L-141.291,120.076L-138.153,120.076L-138.153,104.182L-141.379,104.182L-141.379,114.622L-149.197,104.182L-152.407,104.182L-152.407,120.076L-149.185,120.076L-149.185,109.446ZM-102.451,-4.315C-102.451,2.294 -97.093,7.652 -90.484,7.652C-83.874,7.652 -78.516,2.294 -78.516,-4.315C-78.516,-10.925 -83.874,-16.282 -90.484,-16.282C-97.093,-16.282 -102.451,-10.925 -102.451,-4.315M-71.138,74.521L-89.63,74.521C-95.608,74.521 -101.227,72.195 -105.451,67.969C-109.678,63.745 -112.004,58.126 -112.004,52.146L-112.004,-9.863C-112.004,-15.843 -109.678,-21.461 -105.453,-25.684C-101.228,-29.91 -95.608,-32.238 -89.63,-32.238L-71.138,-32.238L-71.138,74.521ZM-61.81,-42.5L-89.63,-42.5C-107.655,-42.5 -122.266,-27.888 -122.266,-9.863L-122.266,52.146C-122.266,70.17 -107.655,84.782 -89.63,84.782L-61.81,84.782C-61.293,84.782 -60.876,84.364 -60.876,83.849L-60.876,-41.567C-60.876,-42.082 -61.293,-42.5 -61.81,-42.5M-22.96,14.637C-15.853,14.637 -10.091,20.398 -10.091,27.506C-10.091,34.613 -15.853,40.374 -22.96,40.374C-30.067,40.374 -35.829,34.613 -35.829,27.506C-35.829,20.398 -30.067,14.637 -22.96,14.637M-47.209,84.782L-27.621,84.782C-9.596,84.782 5.015,70.17 5.015,52.146L5.015,-9.863C5.015,-27.888 -9.596,-42.5 -27.621,-42.5L-47.312,-42.5C-47.77,-42.5 -48.141,-42.129 -48.141,-41.67L-48.141,83.849C-48.141,84.364 -47.724,84.782 -47.209,84.782" style="fill:white;fill-rule:nonzero;"/>
        </g>
        <g transform="matrix(-1,0,0,1,396.851,-1.13687e-13)">
            <rect x="56.693" y="141.732" width="283.465" height="283.465" style="fill:rgb(230,0,18);"/>
        </g>
        <g transform="matrix(1,0,0,1,257.694,225.098)">
            <path d="M0,116.736L-3.469,116.736L-3.469,107.522L0,107.522C2.541,107.522 4.607,109.588 4.607,112.128C4.607,114.669 2.541,116.736 0,116.736M-0.161,104.182L-6.733,104.182L-6.733,120.076L-0.161,120.076C4.345,120.076 8.011,116.511 8.011,112.128C8.011,107.747 4.345,104.182 -0.161,104.182M-12.337,133.893C-8.951,133.893 -5.794,135.7 -4.104,138.549L0.776,134.305C-2.21,129.862 -7.142,127.224 -12.512,127.224C-21.338,127.224 -28.52,134.404 -28.52,143.23C-28.52,152.056 -21.338,159.236 -12.512,159.236C-7.142,159.236 -2.21,156.598 0.776,152.155L-4.104,147.912C-5.794,150.761 -8.952,152.568 -12.337,152.568C-17.582,152.568 -21.85,148.379 -21.85,143.23C-21.85,138.082 -17.582,133.893 -12.337,133.893M-58.591,134.568L-49.007,134.568L-49.007,158.194L-42.555,158.194L-42.555,134.568L-33.187,134.568L-33.187,128.204L-58.591,128.204L-58.591,134.568ZM27.841,140.023L13.833,140.023L13.833,128.204L7.631,128.204L7.631,158.194L13.833,158.194L13.833,146.231L27.841,146.231L27.841,158.194L34.047,158.194L34.047,128.204L27.841,128.204L27.841,140.023ZM45.106,153.731L43.982,156.996L42.858,153.731L41.62,153.731L41.62,158.195L42.418,158.195L42.418,154.769L43.583,158.154L43.597,158.195L44.367,158.195L44.381,158.154L45.546,154.769L45.546,158.195L46.344,158.195L46.344,153.731L45.106,153.731ZM26.757,117.076C24.033,117.076 21.819,114.857 21.819,112.128C21.819,109.401 24.033,107.181 26.757,107.181C29.48,107.181 31.695,109.401 31.695,112.128C31.695,114.857 29.48,117.076 26.757,117.076M26.757,103.646C22.09,103.646 18.291,107.452 18.291,112.129C18.291,116.806 22.09,120.611 26.757,120.611C31.425,120.611 35.223,116.806 35.223,112.129C35.223,107.452 31.425,103.646 26.757,103.646M36.983,154.586L38.357,154.586L38.357,158.195L39.225,158.195L39.225,154.586L40.566,154.586L40.566,153.731L36.983,153.731L36.983,154.586ZM-47.606,117.131L-56.741,117.131L-56.741,113.404L-48.294,113.404L-48.294,110.529L-56.741,110.529L-56.741,107.1L-47.606,107.1L-47.606,104.182L-59.967,104.187L-59.967,120.076L-47.606,120.071L-47.606,117.131ZM-20.18,120.076L-20.18,104.182L-23.405,104.182L-23.405,114.622L-31.223,104.182L-34.434,104.182L-34.434,120.076L-31.212,120.076L-31.212,109.446L-23.317,120.076L-20.18,120.076ZM-122.631,104.182L-126.168,104.182L-126.168,120.076L-122.631,120.076L-122.631,104.182ZM-139.959,139.978C-144.293,139.266 -147.091,138.463 -147.091,136.445C-147.091,134.113 -143.975,133.217 -139.793,133.217C-135.906,133.217 -132.007,134.698 -130.616,135.283L-128.485,130.092C-129.995,129.493 -134.786,127.782 -140.099,127.782C-146.578,127.782 -153.464,130.942 -153.464,136.798C-153.464,141.547 -150.114,143.973 -141.517,145.452C-135.457,146.495 -132.119,147.07 -132.213,149.676C-132.267,151.111 -133.376,153.519 -140.208,153.519C-145.703,153.519 -149.575,151.527 -150.92,150.718L-153.759,155.842C-152.246,156.637 -147.17,159.018 -140.639,159.018C-131.098,159.018 -126.055,155.712 -126.055,149.459C-126.055,145.835 -127.278,142.059 -139.959,139.978M-92.348,149.962L-98.701,128.204L-104.024,128.204L-110.342,149.883L-116.11,128.204L-122.639,128.204L-114.153,158.194L-106.947,158.194L-101.355,138.435L-95.8,158.194L-88.563,158.194L-80.032,128.204L-86.557,128.204L-92.348,149.962ZM-107.42,109.446L-99.527,120.076L-96.389,120.076L-96.389,104.182L-99.615,104.182L-99.615,114.622L-107.433,104.182L-110.643,104.182L-110.643,120.076L-107.42,120.076L-107.42,109.446ZM-72.581,158.194L-65.907,158.194L-65.907,128.204L-72.581,128.204L-72.581,158.194ZM-71.604,104.182L-85.068,104.182L-85.068,107.555L-79.987,107.555L-79.987,120.076L-76.568,120.076L-76.568,107.555L-71.604,107.555L-71.604,104.182ZM-149.185,109.446L-141.291,120.076L-138.153,120.076L-138.153,104.182L-141.379,104.182L-141.379,114.622L-149.197,104.182L-152.407,104.182L-152.407,120.076L-149.185,120.076L-149.185,109.446ZM-102.451,-4.315C-102.451,2.294 -97.093,7.652 -90.484,7.652C-83.874,7.652 -78.516,2.294 -78.516,-4.315C-78.516,-10.925 -83.874,-16.282 -90.484,-16.282C-97.093,-16.282 -102.451,-10.925 -102.451,-4.315M-71.138,74.521L-89.63,74.521C-95.608,74.521 -101.227,72.195 -105.451,67.969C-109.678,63.745 -112.004,58.126 -112.004,52.146L-112.004,-9.863C-112.004,-15.843 -109.678,-21.461 -105.453,-25.684C-101.228,-29.91 -95.608,-32.238 -89.63,-32.238L-71.138,-32.238L-71.138,74.521ZM-61.81,-42.5L-89.63,-42.5C-107.655,-42.5 -122.266,-27.888 -122.266,-9.863L-122.266,52.146C-122.266,70.17 -107.655,84.782 -89.63,84.782L-61.81,84.782C-61.293,84.782 -60.876,84.364 -60.876,83.849L-60.876,-41.567C-60.876,-42.082 -61.293,-42.5 -61.81,-42.5M-22.96,14.637C-15.853,14.637 -10.091,20.398 -10.091,27.506C-10.091,34.613 -15.853,40.374 -22.96,40.374C-30.067,40.374 -35.829,34.613 -35.829,27.506C-35.829,20.398 -30.067,14.637 -22.96,14.637M-47.209,84.782L-27.621,84.782C-9.596,84.782 5.015,70.17 5.015,52.146L5.015,-9.863C5.015,-27.888 -9.596,-42.5 -27.621,-42.5L-47.312,-42.5C-47.77,-42.5 -48.141,-42.129 -48.141,-41.67L-48.141,83.849C-48.141,84.364 -47.724,84.782 -47.209,84.782" style="fill:white;fill-rule:nonzero;"/>
        </g>
    </g>
</svg>
