<svg height="147" viewBox="0 0 451 147" width="451" xmlns="http://www.w3.org/2000/svg" xmlns:xlink="http://www.w3.org/1999/xlink"><defs><filter id="a" height="105%" width="110.7%" x="-5.2%" y="-1.7%"><feOffset dy="1" in="SourceAlpha" result="shadowOffsetOuter1"/><feGaussianBlur in="shadowOffsetOuter1" result="shadowBlurOuter1" stdDeviation=".5"/><feColorMatrix in="shadowBlurOuter1" result="shadowMatrixOuter1" values="0 0 0 0 0 0 0 0 0 0 0 0 0 0 0 0 0 0 0.15 0"/><feMerge><feMergeNode in="shadowMatrixOuter1"/><feMergeNode in="SourceGraphic"/></feMerge></filter><linearGradient id="b" x1="0%" x2="98.445%" y1="50%" y2="50%"><stop offset="0" stop-color="#ff9a00"/><stop offset="1" stop-color="#fff" stop-opacity="0"/></linearGradient><path id="c" d="m57.813 120.98c-31.929 0-57.813-25.686-57.813-57.372s25.884-57.372 57.813-57.372c31.93 0 57.814 25.686 57.814 57.372s-25.884 57.372-57.814 57.372zm0-36.169c11.8 0 21.366-9.493 21.366-21.203s-9.566-21.203-21.366-21.203-21.365 9.493-21.365 21.203 9.565 21.203 21.365 21.203z"/><linearGradient id="d"><stop offset="0" stop-color="#fff" stop-opacity="0"/><stop offset="1" stop-color="#fff"/></linearGradient><linearGradient id="e" x1="83.747%" x2="13.039%" xlink:href="#d" y1="91.194%" y2="9.392%"/><path id="f" d="m57.813 114.744c-31.929 0-57.813-25.686-57.813-57.372s25.884-57.372 57.813-57.372c31.93 0 57.814 25.686 57.814 57.372s-25.884 57.372-57.814 57.372zm0-36.17c11.8 0 21.366-9.492 21.366-21.202s-9.566-21.202-21.366-21.202-21.365 9.493-21.365 21.203 9.565 21.203 21.365 21.203z"/><filter id="g" height="113.1%" width="113%" x="-6.5%" y="-3.9%"><feOffset dy="3" in="SourceAlpha" result="shadowOffsetOuter1"/><feGaussianBlur in="shadowOffsetOuter1" result="shadowBlurOuter1" stdDeviation="2"/><feColorMatrix in="shadowBlurOuter1" values="0 0 0 0 0.780392157 0 0 0 0 0.482352941 0 0 0 0 0.062745098 0 0 0 0.2 0"/></filter><filter id="h" height="116.6%" width="116.4%" x="-8.2%" y="-5.7%"><feGaussianBlur in="SourceAlpha" result="shadowBlurInner1" stdDeviation="4"/><feOffset dy="-3" in="shadowBlurInner1" result="shadowOffsetInner1"/><feComposite in="shadowOffsetInner1" in2="SourceAlpha" k2="-1" k3="1" operator="arithmetic" result="shadowInnerInner1"/><feColorMatrix in="shadowInnerInner1" result="shadowMatrixInner1" values="0 0 0 0 1 0 0 0 0 1 0 0 0 0 1 0 0 0 0.3 0"/><feOffset dy="-1" in="SourceAlpha" result="shadowOffsetInner2"/><feComposite in="shadowOffsetInner2" in2="SourceAlpha" k2="-1" k3="1" operator="arithmetic" result="shadowInnerInner2"/><feColorMatrix in="shadowInnerInner2" result="shadowMatrixInner2" values="0 0 0 0 1 0 0 0 0 1 0 0 0 0 1 0 0 0 0.2 0"/><feMerge><feMergeNode in="shadowMatrixInner1"/><feMergeNode in="shadowMatrixInner2"/></feMerge></filter><filter id="i" height="105%" width="110.7%" x="-5.2%" y="-1.7%"><feOffset dy="1" in="SourceAlpha" result="shadowOffsetOuter1"/><feGaussianBlur in="shadowOffsetOuter1" result="shadowBlurOuter1" stdDeviation=".5"/><feColorMatrix in="shadowBlurOuter1" result="shadowMatrixOuter1" values="0 0 0 0 0 0 0 0 0 0 0 0 0 0 0 0 0 0 0.15 0"/><feMerge><feMergeNode in="shadowMatrixOuter1"/><feMergeNode in="SourceGraphic"/></feMerge></filter><path id="j" d="m57.813 120.98c-31.929 0-57.813-25.686-57.813-57.372s25.884-57.372 57.813-57.372c31.93 0 57.814 25.686 57.814 57.372s-25.884 57.372-57.814 57.372zm0-36.169c11.8 0 21.366-9.493 21.366-21.203s-9.566-21.203-21.366-21.203-21.365 9.493-21.365 21.203 9.565 21.203 21.365 21.203z"/><path id="k" d="m57.813 114.744c-31.929 0-57.813-25.686-57.813-57.372s25.884-57.372 57.813-57.372c31.93 0 57.814 25.686 57.814 57.372s-25.884 57.372-57.814 57.372zm0-36.17c11.8 0 21.366-9.492 21.366-21.202s-9.566-21.202-21.366-21.202-21.365 9.493-21.365 21.203 9.565 21.203 21.365 21.203z"/><filter id="l" height="113.1%" width="113%" x="-6.5%" y="-3.9%"><feOffset dy="3" in="SourceAlpha" result="shadowOffsetOuter1"/><feGaussianBlur in="shadowOffsetOuter1" result="shadowBlurOuter1" stdDeviation="2"/><feColorMatrix in="shadowBlurOuter1" values="0 0 0 0 0.780392157 0 0 0 0 0.482352941 0 0 0 0 0.062745098 0 0 0 0.2 0"/></filter><filter id="m" height="116.6%" width="116.4%" x="-8.2%" y="-5.7%"><feGaussianBlur in="SourceAlpha" result="shadowBlurInner1" stdDeviation="4"/><feOffset dy="-3" in="shadowBlurInner1" result="shadowOffsetInner1"/><feComposite in="shadowOffsetInner1" in2="SourceAlpha" k2="-1" k3="1" operator="arithmetic" result="shadowInnerInner1"/><feColorMatrix in="shadowInnerInner1" result="shadowMatrixInner1" values="0 0 0 0 1 0 0 0 0 1 0 0 0 0 1 0 0 0 0.3 0"/><feOffset dy="-1" in="SourceAlpha" result="shadowOffsetInner2"/><feComposite in="shadowOffsetInner2" in2="SourceAlpha" k2="-1" k3="1" operator="arithmetic" result="shadowInnerInner2"/><feColorMatrix in="shadowInnerInner2" result="shadowMatrixInner2" values="0 0 0 0 1 0 0 0 0 1 0 0 0 0 1 0 0 0 0.2 0"/><feMerge><feMergeNode in="shadowMatrixInner1"/><feMergeNode in="shadowMatrixInner2"/></feMerge></filter><filter id="n" height="104.8%" width="104%" x="-1%" y="-2.5%"><feOffset dy="1" in="SourceAlpha" result="shadowOffsetOuter1"/><feGaussianBlur in="shadowOffsetOuter1" result="shadowBlurOuter1" stdDeviation=".5"/><feColorMatrix in="shadowBlurOuter1" result="shadowMatrixOuter1" values="0 0 0 0 0 0 0 0 0 0 0 0 0 0 0 0 0 0 0.15 0"/><feMerge><feMergeNode in="shadowMatrixOuter1"/><feMergeNode in="SourceGraphic"/></feMerge></filter><linearGradient id="o" x1="21.265%" x2="78.647%" y1="77.63%" y2="21.369%"><stop offset="0" stop-color="#10adcc"/><stop offset="1" stop-color="#fff" stop-opacity="0"/></linearGradient><path id="p" d="m117.743 164.14c-.168.167-.339.33-.513.492-.31.33-.633.65-.965.958-.311.33-.633.65-.966.959-.311.33-.633.65-.966.958a19.597 19.597 0 0 1 -14.317 6.19c-10.853 0-19.652-8.799-19.652-19.652v-30.349h-30.349c-10.853 0-19.652-8.798-19.652-19.652a19.6 19.6 0 0 1 6.301-14.42c.31-.33.633-.65.966-.958.31-.33.633-.65.966-.959.31-.33.632-.65.965-.958a19.775 19.775 0 0 1 .987-.98 19.597 19.597 0 0 1 14.296-6.169h25.52v-25.556a19.6 19.6 0 0 1 6.3-14.42c.312-.331.634-.65.966-.96.311-.33.633-.65.966-.957.311-.33.633-.65.966-.959a19.775 19.775 0 0 1 .986-.98 19.597 19.597 0 0 1 14.297-6.168c10.853 0 19.652 8.798 19.652 19.652v30.349h30.348c10.854 0 19.652 8.798 19.652 19.652a19.599 19.599 0 0 1 -6.278 14.4 19.775 19.775 0 0 1 -.988.978c-.311.33-.633.65-.966.959-.31.33-.633.65-.966.958-.31.33-.633.65-.965.958a19.597 19.597 0 0 1 -14.317 6.19h-25.52v25.557a19.599 19.599 0 0 1 -6.279 14.4c-.155.165-.314.327-.475.487z"/><linearGradient id="q" x1="50%" x2="50%" xlink:href="#d" y1="100%" y2="0%"/><path id="r" d="m82.778 78.608v-30.348c0-10.854 8.799-19.652 19.652-19.652 10.854 0 19.652 8.798 19.652 19.652v30.348h30.349c10.853 0 19.652 8.799 19.652 19.652 0 10.854-8.799 19.652-19.652 19.652h-30.349v30.349c0 10.853-8.798 19.652-19.652 19.652-10.853 0-19.652-8.799-19.652-19.652v-30.349h-30.348c-10.854 0-19.652-8.798-19.652-19.652 0-10.853 8.798-19.652 19.652-19.652z"/><filter id="s" height="110.9%" width="110.8%" x="-5.4%" y="-3.3%"><feOffset dy="3" in="SourceAlpha" result="shadowOffsetOuter1"/><feGaussianBlur in="shadowOffsetOuter1" result="shadowBlurOuter1" stdDeviation="2"/><feColorMatrix in="shadowBlurOuter1" values="0 0 0 0 0.062745098 0 0 0 0 0.45386762 0 0 0 0 0.780392157 0 0 0 0.2 0"/></filter><filter id="t" height="113.7%" width="113.6%" x="-6.8%" y="-4.7%"><feGaussianBlur in="SourceAlpha" result="shadowBlurInner1" stdDeviation="4"/><feOffset dy="-3" in="shadowBlurInner1" result="shadowOffsetInner1"/><feComposite in="shadowOffsetInner1" in2="SourceAlpha" k2="-1" k3="1" operator="arithmetic" result="shadowInnerInner1"/><feColorMatrix in="shadowInnerInner1" result="shadowMatrixInner1" values="0 0 0 0 1 0 0 0 0 1 0 0 0 0 1 0 0 0 0.3 0"/><feOffset dx="1" dy="-1" in="SourceAlpha" result="shadowOffsetInner2"/><feComposite in="shadowOffsetInner2" in2="SourceAlpha" k2="-1" k3="1" operator="arithmetic" result="shadowInnerInner2"/><feColorMatrix in="shadowInnerInner2" result="shadowMatrixInner2" values="0 0 0 0 1 0 0 0 0 1 0 0 0 0 1 0 0 0 0.2 0"/><feMerge><feMergeNode in="shadowMatrixInner1"/><feMergeNode in="shadowMatrixInner2"/></feMerge></filter><filter id="u" height="104.8%" width="104%" x="-1%" y="-2.5%"><feOffset dy="1" in="SourceAlpha" result="shadowOffsetOuter1"/><feGaussianBlur in="shadowOffsetOuter1" result="shadowBlurOuter1" stdDeviation=".5"/><feColorMatrix in="shadowBlurOuter1" result="shadowMatrixOuter1" values="0 0 0 0 0 0 0 0 0 0 0 0 0 0 0 0 0 0 0.15 0"/><feMerge><feMergeNode in="shadowMatrixOuter1"/><feMergeNode in="SourceGraphic"/></feMerge></filter><path id="v" d="m117.743 164.14c-.168.167-.339.33-.513.492-.31.33-.633.65-.965.958-.311.33-.633.65-.966.959-.311.33-.633.65-.966.958a19.597 19.597 0 0 1 -14.317 6.19c-10.853 0-19.652-8.799-19.652-19.652v-30.349h-30.349c-10.853 0-19.652-8.798-19.652-19.652a19.6 19.6 0 0 1 6.301-14.42c.31-.33.633-.65.966-.958.31-.33.633-.65.966-.959.31-.33.632-.65.965-.958a19.775 19.775 0 0 1 .987-.98 19.597 19.597 0 0 1 14.296-6.169h25.52v-25.556a19.6 19.6 0 0 1 6.3-14.42c.312-.331.634-.65.966-.96.311-.33.633-.65.966-.957.311-.33.633-.65.966-.959a19.775 19.775 0 0 1 .986-.98 19.597 19.597 0 0 1 14.297-6.168c10.853 0 19.652 8.798 19.652 19.652v30.349h30.348c10.854 0 19.652 8.798 19.652 19.652a19.599 19.599 0 0 1 -6.278 14.4 19.775 19.775 0 0 1 -.988.978c-.311.33-.633.65-.966.959-.31.33-.633.65-.966.958-.31.33-.633.65-.965.958a19.597 19.597 0 0 1 -14.317 6.19h-25.52v25.557a19.599 19.599 0 0 1 -6.279 14.4c-.155.165-.314.327-.475.487z"/><path id="w" d="m82.778 78.608v-30.348c0-10.854 8.799-19.652 19.652-19.652 10.854 0 19.652 8.798 19.652 19.652v30.348h30.349c10.853 0 19.652 8.799 19.652 19.652 0 10.854-8.799 19.652-19.652 19.652h-30.349v30.349c0 10.853-8.798 19.652-19.652 19.652-10.853 0-19.652-8.799-19.652-19.652v-30.349h-30.348c-10.854 0-19.652-8.798-19.652-19.652 0-10.853 8.798-19.652 19.652-19.652z"/><filter id="x" height="110.9%" width="110.8%" x="-5.4%" y="-3.3%"><feOffset dy="3" in="SourceAlpha" result="shadowOffsetOuter1"/><feGaussianBlur in="shadowOffsetOuter1" result="shadowBlurOuter1" stdDeviation="2"/><feColorMatrix in="shadowBlurOuter1" values="0 0 0 0 0.062745098 0 0 0 0 0.45386762 0 0 0 0 0.780392157 0 0 0 0.2 0"/></filter><filter id="y" height="113.7%" width="113.6%" x="-6.8%" y="-4.7%"><feGaussianBlur in="SourceAlpha" result="shadowBlurInner1" stdDeviation="4"/><feOffset dy="-3" in="shadowBlurInner1" result="shadowOffsetInner1"/><feComposite in="shadowOffsetInner1" in2="SourceAlpha" k2="-1" k3="1" operator="arithmetic" result="shadowInnerInner1"/><feColorMatrix in="shadowInnerInner1" result="shadowMatrixInner1" values="0 0 0 0 1 0 0 0 0 1 0 0 0 0 1 0 0 0 0.3 0"/><feOffset dx="1" dy="-1" in="SourceAlpha" result="shadowOffsetInner2"/><feComposite in="shadowOffsetInner2" in2="SourceAlpha" k2="-1" k3="1" operator="arithmetic" result="shadowInnerInner2"/><feColorMatrix in="shadowInnerInner2" result="shadowMatrixInner2" values="0 0 0 0 1 0 0 0 0 1 0 0 0 0 1 0 0 0 0.2 0"/><feMerge><feMergeNode in="shadowMatrixInner1"/><feMergeNode in="shadowMatrixInner2"/></feMerge></filter></defs><g fill="none" fill-rule="evenodd"><g filter="url(#a)" transform="matrix(.99756405 -.06975647 .06975647 .99756405 107.391673 20.979153)"><path d="m57.813 120.98c-31.929 0-57.813-25.686-57.813-57.372s25.884-57.372 57.813-57.372c31.93 0 57.814 25.686 57.814 57.372s-25.884 57.372-57.814 57.372zm0-36.169c11.8 0 21.366-9.493 21.366-21.203s-9.566-21.203-21.366-21.203-21.365 9.493-21.365 21.203 9.565 21.203 21.365 21.203z" fill="#faaf3e"/><use fill="#000" fill-opacity=".35" xlink:href="#c"/><use fill="url(#b)" xlink:href="#c"/><use fill="#000" filter="url(#g)" xlink:href="#f"/><use fill="#faaf3e" xlink:href="#f"/><use fill="url(#e)" fill-opacity=".3" xlink:href="#f"/><use fill="#000" filter="url(#h)" xlink:href="#f"/></g><g filter="url(#i)" transform="matrix(.99756405 -.06975647 .06975647 .99756405 327.030788 5.62047)"><path d="m57.813 120.98c-31.929 0-57.813-25.686-57.813-57.372s25.884-57.372 57.813-57.372c31.93 0 57.814 25.686 57.814 57.372s-25.884 57.372-57.814 57.372zm0-36.169c11.8 0 21.366-9.493 21.366-21.203s-9.566-21.203-21.366-21.203-21.365 9.493-21.365 21.203 9.565 21.203 21.365 21.203z" fill="#faaf3e"/><use fill="#000" fill-opacity=".35" xlink:href="#j"/><use fill="url(#b)" xlink:href="#j"/><use fill="#000" filter="url(#l)" xlink:href="#k"/><use fill="#faaf3e" xlink:href="#k"/><use fill="url(#e)" fill-opacity=".3" xlink:href="#k"/><use fill="#000" filter="url(#m)" xlink:href="#k"/></g><g filter="url(#n)" transform="matrix(.99756405 -.06975647 .06975647 .99756405 -50.010147 -10.523229)"><path d="m157.437 134.359c.014.453.012.907-.005 1.36.013.454.012.908-.006 1.36.014.454.012.908-.005 1.361.014.454.012.908-.005 1.361a19.597 19.597 0 0 1 -5.747 14.5c-7.674 7.675-20.117 7.675-27.792 0l-21.46-21.46-21.46 21.46c-7.674 7.675-20.117 7.675-27.792 0a19.6 19.6 0 0 1 -5.741-14.651c-.014-.454-.012-.908.005-1.361-.014-.453-.012-.907.005-1.36-.013-.454-.012-.908.006-1.361-.014-.453-.013-.907.005-1.36a19.597 19.597 0 0 1 5.747-14.501l18.045-18.046-18.072-18.07a19.6 19.6 0 0 1 -5.741-14.653c-.014-.453-.012-.907.005-1.36-.014-.454-.012-.908.005-1.361-.013-.453-.012-.907.006-1.36-.014-.454-.013-.908.005-1.361a19.597 19.597 0 0 1 5.747-14.5c7.674-7.675 20.117-7.675 27.792 0l21.46 21.459 21.46-21.46c7.674-7.674 20.117-7.674 27.791 0a19.6 19.6 0 0 1 5.742 14.652c.014.454.012.908-.005 1.36.013.454.012.908-.006 1.361.014.454.012.908-.005 1.36.014.454.012.908-.005 1.361a19.597 19.597 0 0 1 -5.747 14.501l-18.045 18.045 18.071 18.072a19.6 19.6 0 0 1 5.742 14.652z" fill="#12c9ed"/><g transform="matrix(.70710678 -.70710678 .70710678 .70710678 -41.874938 102.200958)"><use fill="#000" fill-opacity=".35" xlink:href="#p"/><use fill="url(#o)" xlink:href="#p"/></g><g transform="matrix(.70710678 -.70710678 .70710678 .70710678 -39.47926 101.208635)"><use fill="#000" filter="url(#s)" xlink:href="#r"/><use fill="#09c7ed" xlink:href="#r"/><use fill="url(#q)" fill-opacity=".4" xlink:href="#r"/><use fill="#000" filter="url(#t)" xlink:href="#r"/></g></g><g filter="url(#u)" transform="matrix(.99756405 -.06975647 .06975647 .99756405 169.628898 -25.881909)"><path d="m157.437 134.359c.014.453.012.907-.005 1.36.013.454.012.908-.006 1.36.014.454.012.908-.005 1.361.014.454.012.908-.005 1.361a19.597 19.597 0 0 1 -5.747 14.5c-7.674 7.675-20.117 7.675-27.792 0l-21.46-21.46-21.46 21.46c-7.674 7.675-20.117 7.675-27.792 0a19.6 19.6 0 0 1 -5.741-14.651c-.014-.454-.012-.908.005-1.361-.014-.453-.012-.907.005-1.36-.013-.454-.012-.908.006-1.361-.014-.453-.013-.907.005-1.36a19.597 19.597 0 0 1 5.747-14.501l18.045-18.046-18.072-18.07a19.6 19.6 0 0 1 -5.741-14.653c-.014-.453-.012-.907.005-1.36-.014-.454-.012-.908.005-1.361-.013-.453-.012-.907.006-1.36-.014-.454-.013-.908.005-1.361a19.597 19.597 0 0 1 5.747-14.5c7.674-7.675 20.117-7.675 27.792 0l21.46 21.459 21.46-21.46c7.674-7.674 20.117-7.674 27.791 0a19.6 19.6 0 0 1 5.742 14.652c.014.454.012.908-.005 1.36.013.454.012.908-.006 1.361.014.454.012.908-.005 1.36.014.454.012.908-.005 1.361a19.597 19.597 0 0 1 -5.747 14.501l-18.045 18.045 18.071 18.072a19.6 19.6 0 0 1 5.742 14.652z" fill="#12c9ed"/><g transform="matrix(.70710678 -.70710678 .70710678 .70710678 -41.874938 102.200958)"><use fill="#000" fill-opacity=".35" xlink:href="#v"/><use fill="url(#o)" xlink:href="#v"/></g><g transform="matrix(.70710678 -.70710678 .70710678 .70710678 -39.47926 101.208635)"><use fill="#000" filter="url(#x)" xlink:href="#w"/><use fill="#09c7ed" xlink:href="#w"/><use fill="url(#q)" fill-opacity=".4" xlink:href="#w"/><use fill="#000" filter="url(#y)" xlink:href="#w"/></g></g></g></svg>