<svg xmlns="http://www.w3.org/2000/svg" xmlns:xlink="http://www.w3.org/1999/xlink" width="451" height="147" viewBox="0 0 451 147">
    <defs>
        <filter id="a" width="110.7%" height="105%" x="-5.2%" y="-1.7%" filterUnits="objectBoundingBox">
            <feOffset dy="1" in="SourceAlpha" result="shadowOffsetOuter1"/>
            <feGaussianBlur in="shadowOffsetOuter1" result="shadowBlurOuter1" stdDeviation=".5"/>
            <feColorMatrix in="shadowBlurOuter1" result="shadowMatrixOuter1" values="0 0 0 0 0 0 0 0 0 0 0 0 0 0 0 0 0 0 0.15 0"/>
            <feMerge>
                <feMergeNode in="shadowMatrixOuter1"/>
                <feMergeNode in="SourceGraphic"/>
            </feMerge>
        </filter>
        <linearGradient id="c" x1="0%" x2="98.445%" y1="50%" y2="50%">
            <stop offset="0%" stop-color="#FF9A00"/>
            <stop offset="100%" stop-color="#FFF" stop-opacity="0"/>
        </linearGradient>
        <path id="b" d="M57.813 120.98C25.884 120.98 0 95.294 0 63.608S25.884 6.236 57.813 6.236c31.93 0 57.814 25.686 57.814 57.372S89.743 120.98 57.813 120.98zm0-36.169c11.8 0 21.366-9.493 21.366-21.203 0-11.71-9.566-21.203-21.366-21.203-11.8 0-21.365 9.493-21.365 21.203 0 11.71 9.565 21.203 21.365 21.203z"/>
        <linearGradient id="f" x1="83.747%" x2="13.039%" y1="91.194%" y2="9.392%">
            <stop offset="0%" stop-color="#FFF" stop-opacity="0"/>
            <stop offset="100%" stop-color="#FFF"/>
        </linearGradient>
        <path id="e" d="M57.813 114.744C25.884 114.744 0 89.058 0 57.372S25.884 0 57.813 0c31.93 0 57.814 25.686 57.814 57.372s-25.884 57.372-57.814 57.372zm0-36.17c11.8 0 21.366-9.492 21.366-21.202S69.613 36.17 57.813 36.17c-11.8 0-21.365 9.493-21.365 21.203 0 11.71 9.565 21.203 21.365 21.203z"/>
        <filter id="d" width="113%" height="113.1%" x="-6.5%" y="-3.9%" filterUnits="objectBoundingBox">
            <feOffset dy="3" in="SourceAlpha" result="shadowOffsetOuter1"/>
            <feGaussianBlur in="shadowOffsetOuter1" result="shadowBlurOuter1" stdDeviation="2"/>
            <feColorMatrix in="shadowBlurOuter1" values="0 0 0 0 0.780392157 0 0 0 0 0.482352941 0 0 0 0 0.062745098 0 0 0 0.2 0"/>
        </filter>
        <filter id="g" width="116.4%" height="116.6%" x="-8.2%" y="-5.7%" filterUnits="objectBoundingBox">
            <feGaussianBlur in="SourceAlpha" result="shadowBlurInner1" stdDeviation="4"/>
            <feOffset dy="-3" in="shadowBlurInner1" result="shadowOffsetInner1"/>
            <feComposite in="shadowOffsetInner1" in2="SourceAlpha" k2="-1" k3="1" operator="arithmetic" result="shadowInnerInner1"/>
            <feColorMatrix in="shadowInnerInner1" result="shadowMatrixInner1" values="0 0 0 0 1 0 0 0 0 1 0 0 0 0 1 0 0 0 0.3 0"/>
            <feOffset dy="-1" in="SourceAlpha" result="shadowOffsetInner2"/>
            <feComposite in="shadowOffsetInner2" in2="SourceAlpha" k2="-1" k3="1" operator="arithmetic" result="shadowInnerInner2"/>
            <feColorMatrix in="shadowInnerInner2" result="shadowMatrixInner2" values="0 0 0 0 1 0 0 0 0 1 0 0 0 0 1 0 0 0 0.2 0"/>
            <feMerge>
                <feMergeNode in="shadowMatrixInner1"/>
                <feMergeNode in="shadowMatrixInner2"/>
            </feMerge>
        </filter>
        <filter id="h" width="110.7%" height="105%" x="-5.2%" y="-1.7%" filterUnits="objectBoundingBox">
            <feOffset dy="1" in="SourceAlpha" result="shadowOffsetOuter1"/>
            <feGaussianBlur in="shadowOffsetOuter1" result="shadowBlurOuter1" stdDeviation=".5"/>
            <feColorMatrix in="shadowBlurOuter1" result="shadowMatrixOuter1" values="0 0 0 0 0 0 0 0 0 0 0 0 0 0 0 0 0 0 0.15 0"/>
            <feMerge>
                <feMergeNode in="shadowMatrixOuter1"/>
                <feMergeNode in="SourceGraphic"/>
            </feMerge>
        </filter>
        <path id="i" d="M57.813 120.98C25.884 120.98 0 95.294 0 63.608S25.884 6.236 57.813 6.236c31.93 0 57.814 25.686 57.814 57.372S89.743 120.98 57.813 120.98zm0-36.169c11.8 0 21.366-9.493 21.366-21.203 0-11.71-9.566-21.203-21.366-21.203-11.8 0-21.365 9.493-21.365 21.203 0 11.71 9.565 21.203 21.365 21.203z"/>
        <path id="k" d="M57.813 114.744C25.884 114.744 0 89.058 0 57.372S25.884 0 57.813 0c31.93 0 57.814 25.686 57.814 57.372s-25.884 57.372-57.814 57.372zm0-36.17c11.8 0 21.366-9.492 21.366-21.202S69.613 36.17 57.813 36.17c-11.8 0-21.365 9.493-21.365 21.203 0 11.71 9.565 21.203 21.365 21.203z"/>
        <filter id="j" width="113%" height="113.1%" x="-6.5%" y="-3.9%" filterUnits="objectBoundingBox">
            <feOffset dy="3" in="SourceAlpha" result="shadowOffsetOuter1"/>
            <feGaussianBlur in="shadowOffsetOuter1" result="shadowBlurOuter1" stdDeviation="2"/>
            <feColorMatrix in="shadowBlurOuter1" values="0 0 0 0 0.780392157 0 0 0 0 0.482352941 0 0 0 0 0.062745098 0 0 0 0.2 0"/>
        </filter>
        <filter id="l" width="116.4%" height="116.6%" x="-8.2%" y="-5.7%" filterUnits="objectBoundingBox">
            <feGaussianBlur in="SourceAlpha" result="shadowBlurInner1" stdDeviation="4"/>
            <feOffset dy="-3" in="shadowBlurInner1" result="shadowOffsetInner1"/>
            <feComposite in="shadowOffsetInner1" in2="SourceAlpha" k2="-1" k3="1" operator="arithmetic" result="shadowInnerInner1"/>
            <feColorMatrix in="shadowInnerInner1" result="shadowMatrixInner1" values="0 0 0 0 1 0 0 0 0 1 0 0 0 0 1 0 0 0 0.3 0"/>
            <feOffset dy="-1" in="SourceAlpha" result="shadowOffsetInner2"/>
            <feComposite in="shadowOffsetInner2" in2="SourceAlpha" k2="-1" k3="1" operator="arithmetic" result="shadowInnerInner2"/>
            <feColorMatrix in="shadowInnerInner2" result="shadowMatrixInner2" values="0 0 0 0 1 0 0 0 0 1 0 0 0 0 1 0 0 0 0.2 0"/>
            <feMerge>
                <feMergeNode in="shadowMatrixInner1"/>
                <feMergeNode in="shadowMatrixInner2"/>
            </feMerge>
        </filter>
        <filter id="m" width="104%" height="104.8%" x="-1%" y="-2.5%" filterUnits="objectBoundingBox">
            <feOffset dy="1" in="SourceAlpha" result="shadowOffsetOuter1"/>
            <feGaussianBlur in="shadowOffsetOuter1" result="shadowBlurOuter1" stdDeviation=".5"/>
            <feColorMatrix in="shadowBlurOuter1" result="shadowMatrixOuter1" values="0 0 0 0 0 0 0 0 0 0 0 0 0 0 0 0 0 0 0.15 0"/>
            <feMerge>
                <feMergeNode in="shadowMatrixOuter1"/>
                <feMergeNode in="SourceGraphic"/>
            </feMerge>
        </filter>
        <linearGradient id="o" x1="21.265%" x2="78.647%" y1="77.63%" y2="21.369%">
            <stop offset="0%" stop-color="#10ADCC"/>
            <stop offset="100%" stop-color="#FFF" stop-opacity="0"/>
        </linearGradient>
        <path id="n" d="M117.743 164.14c-.168.167-.339.33-.513.492-.31.33-.633.65-.965.958-.311.33-.633.65-.966.959-.311.33-.633.65-.966.958a19.597 19.597 0 0 1-14.317 6.19c-10.853 0-19.652-8.799-19.652-19.652v-30.349H50.015c-10.853 0-19.652-8.798-19.652-19.652a19.6 19.6 0 0 1 6.301-14.42c.31-.33.633-.65.966-.958.31-.33.633-.65.966-.959.31-.33.632-.65.965-.958a19.775 19.775 0 0 1 .987-.98A19.597 19.597 0 0 1 54.844 79.6h25.52V54.044a19.6 19.6 0 0 1 6.3-14.42c.312-.331.634-.65.966-.96.311-.33.633-.65.966-.957.311-.33.633-.65.966-.959a19.775 19.775 0 0 1 .986-.98 19.597 19.597 0 0 1 14.297-6.168c10.853 0 19.652 8.798 19.652 19.652v30.349h30.348c10.854 0 19.652 8.798 19.652 19.652a19.599 19.599 0 0 1-6.278 14.4 19.775 19.775 0 0 1-.988.978c-.311.33-.633.65-.966.959-.31.33-.633.65-.966.958-.31.33-.633.65-.965.958a19.597 19.597 0 0 1-14.317 6.19h-25.52v25.557a19.599 19.599 0 0 1-6.279 14.4c-.155.165-.314.327-.475.487z"/>
        <linearGradient id="r" x1="50%" x2="50%" y1="100%" y2="0%">
            <stop offset="0%" stop-color="#FFF" stop-opacity="0"/>
            <stop offset="100%" stop-color="#FFF"/>
        </linearGradient>
        <path id="q" d="M82.778 78.608V48.26c0-10.854 8.799-19.652 19.652-19.652 10.854 0 19.652 8.798 19.652 19.652v30.348h30.349c10.853 0 19.652 8.799 19.652 19.652 0 10.854-8.799 19.652-19.652 19.652h-30.349v30.349c0 10.853-8.798 19.652-19.652 19.652-10.853 0-19.652-8.799-19.652-19.652v-30.349H52.43c-10.854 0-19.652-8.798-19.652-19.652 0-10.853 8.798-19.652 19.652-19.652h30.348z"/>
        <filter id="p" width="110.8%" height="110.9%" x="-5.4%" y="-3.3%" filterUnits="objectBoundingBox">
            <feOffset dy="3" in="SourceAlpha" result="shadowOffsetOuter1"/>
            <feGaussianBlur in="shadowOffsetOuter1" result="shadowBlurOuter1" stdDeviation="2"/>
            <feColorMatrix in="shadowBlurOuter1" values="0 0 0 0 0.062745098 0 0 0 0 0.45386762 0 0 0 0 0.780392157 0 0 0 0.2 0"/>
        </filter>
        <filter id="s" width="113.6%" height="113.7%" x="-6.8%" y="-4.7%" filterUnits="objectBoundingBox">
            <feGaussianBlur in="SourceAlpha" result="shadowBlurInner1" stdDeviation="4"/>
            <feOffset dy="-3" in="shadowBlurInner1" result="shadowOffsetInner1"/>
            <feComposite in="shadowOffsetInner1" in2="SourceAlpha" k2="-1" k3="1" operator="arithmetic" result="shadowInnerInner1"/>
            <feColorMatrix in="shadowInnerInner1" result="shadowMatrixInner1" values="0 0 0 0 1 0 0 0 0 1 0 0 0 0 1 0 0 0 0.3 0"/>
            <feOffset dx="1" dy="-1" in="SourceAlpha" result="shadowOffsetInner2"/>
            <feComposite in="shadowOffsetInner2" in2="SourceAlpha" k2="-1" k3="1" operator="arithmetic" result="shadowInnerInner2"/>
            <feColorMatrix in="shadowInnerInner2" result="shadowMatrixInner2" values="0 0 0 0 1 0 0 0 0 1 0 0 0 0 1 0 0 0 0.2 0"/>
            <feMerge>
                <feMergeNode in="shadowMatrixInner1"/>
                <feMergeNode in="shadowMatrixInner2"/>
            </feMerge>
        </filter>
        <filter id="t" width="104%" height="104.8%" x="-1%" y="-2.5%" filterUnits="objectBoundingBox">
            <feOffset dy="1" in="SourceAlpha" result="shadowOffsetOuter1"/>
            <feGaussianBlur in="shadowOffsetOuter1" result="shadowBlurOuter1" stdDeviation=".5"/>
            <feColorMatrix in="shadowBlurOuter1" result="shadowMatrixOuter1" values="0 0 0 0 0 0 0 0 0 0 0 0 0 0 0 0 0 0 0.15 0"/>
            <feMerge>
                <feMergeNode in="shadowMatrixOuter1"/>
                <feMergeNode in="SourceGraphic"/>
            </feMerge>
        </filter>
        <path id="u" d="M117.743 164.14c-.168.167-.339.33-.513.492-.31.33-.633.65-.965.958-.311.33-.633.65-.966.959-.311.33-.633.65-.966.958a19.597 19.597 0 0 1-14.317 6.19c-10.853 0-19.652-8.799-19.652-19.652v-30.349H50.015c-10.853 0-19.652-8.798-19.652-19.652a19.6 19.6 0 0 1 6.301-14.42c.31-.33.633-.65.966-.958.31-.33.633-.65.966-.959.31-.33.632-.65.965-.958a19.775 19.775 0 0 1 .987-.98A19.597 19.597 0 0 1 54.844 79.6h25.52V54.044a19.6 19.6 0 0 1 6.3-14.42c.312-.331.634-.65.966-.96.311-.33.633-.65.966-.957.311-.33.633-.65.966-.959a19.775 19.775 0 0 1 .986-.98 19.597 19.597 0 0 1 14.297-6.168c10.853 0 19.652 8.798 19.652 19.652v30.349h30.348c10.854 0 19.652 8.798 19.652 19.652a19.599 19.599 0 0 1-6.278 14.4 19.775 19.775 0 0 1-.988.978c-.311.33-.633.65-.966.959-.31.33-.633.65-.966.958-.31.33-.633.65-.965.958a19.597 19.597 0 0 1-14.317 6.19h-25.52v25.557a19.599 19.599 0 0 1-6.279 14.4c-.155.165-.314.327-.475.487z"/>
        <path id="w" d="M82.778 78.608V48.26c0-10.854 8.799-19.652 19.652-19.652 10.854 0 19.652 8.798 19.652 19.652v30.348h30.349c10.853 0 19.652 8.799 19.652 19.652 0 10.854-8.799 19.652-19.652 19.652h-30.349v30.349c0 10.853-8.798 19.652-19.652 19.652-10.853 0-19.652-8.799-19.652-19.652v-30.349H52.43c-10.854 0-19.652-8.798-19.652-19.652 0-10.853 8.798-19.652 19.652-19.652h30.348z"/>
        <filter id="v" width="110.8%" height="110.9%" x="-5.4%" y="-3.3%" filterUnits="objectBoundingBox">
            <feOffset dy="3" in="SourceAlpha" result="shadowOffsetOuter1"/>
            <feGaussianBlur in="shadowOffsetOuter1" result="shadowBlurOuter1" stdDeviation="2"/>
            <feColorMatrix in="shadowBlurOuter1" values="0 0 0 0 0.062745098 0 0 0 0 0.45386762 0 0 0 0 0.780392157 0 0 0 0.2 0"/>
        </filter>
        <filter id="x" width="113.6%" height="113.7%" x="-6.8%" y="-4.7%" filterUnits="objectBoundingBox">
            <feGaussianBlur in="SourceAlpha" result="shadowBlurInner1" stdDeviation="4"/>
            <feOffset dy="-3" in="shadowBlurInner1" result="shadowOffsetInner1"/>
            <feComposite in="shadowOffsetInner1" in2="SourceAlpha" k2="-1" k3="1" operator="arithmetic" result="shadowInnerInner1"/>
            <feColorMatrix in="shadowInnerInner1" result="shadowMatrixInner1" values="0 0 0 0 1 0 0 0 0 1 0 0 0 0 1 0 0 0 0.3 0"/>
            <feOffset dx="1" dy="-1" in="SourceAlpha" result="shadowOffsetInner2"/>
            <feComposite in="shadowOffsetInner2" in2="SourceAlpha" k2="-1" k3="1" operator="arithmetic" result="shadowInnerInner2"/>
            <feColorMatrix in="shadowInnerInner2" result="shadowMatrixInner2" values="0 0 0 0 1 0 0 0 0 1 0 0 0 0 1 0 0 0 0.2 0"/>
            <feMerge>
                <feMergeNode in="shadowMatrixInner1"/>
                <feMergeNode in="shadowMatrixInner2"/>
            </feMerge>
        </filter>
    </defs>
    <g fill="none" fill-rule="evenodd">
        <g filter="url(#a)" transform="rotate(-4 354.078 -1527.158)">
            <path fill="#FAAF3E" d="M57.813 120.98C25.884 120.98 0 95.294 0 63.608S25.884 6.236 57.813 6.236c31.93 0 57.814 25.686 57.814 57.372S89.743 120.98 57.813 120.98zm0-36.169c11.8 0 21.366-9.493 21.366-21.203 0-11.71-9.566-21.203-21.366-21.203-11.8 0-21.365 9.493-21.365 21.203 0 11.71 9.565 21.203 21.365 21.203z"/>
            <use fill="#000" fill-opacity=".35" style="mix-blend-mode:overlay" xlink:href="#b"/>
            <use fill="url(#c)" xlink:href="#b"/>
            <g>
                <use fill="#000" filter="url(#d)" xlink:href="#e"/>
                <use fill="#FAAF3E" xlink:href="#e"/>
                <use fill="url(#f)" fill-opacity=".3" style="mix-blend-mode:overlay" xlink:href="#e"/>
                <use fill="#000" filter="url(#g)" xlink:href="#e"/>
            </g>
        </g>
        <g filter="url(#h)" transform="rotate(-4 243.99 -4679.658)">
            <path fill="#FAAF3E" d="M57.813 120.98C25.884 120.98 0 95.294 0 63.608S25.884 6.236 57.813 6.236c31.93 0 57.814 25.686 57.814 57.372S89.743 120.98 57.813 120.98zm0-36.169c11.8 0 21.366-9.493 21.366-21.203 0-11.71-9.566-21.203-21.366-21.203-11.8 0-21.365 9.493-21.365 21.203 0 11.71 9.565 21.203 21.365 21.203z"/>
            <use fill="#000" fill-opacity=".35" style="mix-blend-mode:overlay" xlink:href="#i"/>
            <use fill="url(#c)" xlink:href="#i"/>
            <g>
                <use fill="#000" filter="url(#j)" xlink:href="#k"/>
                <use fill="#FAAF3E" xlink:href="#k"/>
                <use fill="url(#f)" fill-opacity=".3" style="mix-blend-mode:overlay" xlink:href="#k"/>
                <use fill="#000" filter="url(#l)" xlink:href="#k"/>
            </g>
        </g>
        <g filter="url(#m)" transform="rotate(-4 -175.678 710.79)">
            <path fill="#12C9ED" d="M157.437 134.359c.014.453.012.907-.005 1.36.013.454.012.908-.006 1.36.014.454.012.908-.005 1.361.014.454.012.908-.005 1.361a19.597 19.597 0 0 1-5.747 14.5c-7.674 7.675-20.117 7.675-27.792 0l-21.46-21.46-21.46 21.46c-7.674 7.675-20.117 7.675-27.792 0a19.6 19.6 0 0 1-5.741-14.651c-.014-.454-.012-.908.005-1.361-.014-.453-.012-.907.005-1.36-.013-.454-.012-.908.006-1.361-.014-.453-.013-.907.005-1.36a19.597 19.597 0 0 1 5.747-14.501l18.045-18.046-18.072-18.07a19.6 19.6 0 0 1-5.741-14.653c-.014-.453-.012-.907.005-1.36-.014-.454-.012-.908.005-1.361-.013-.453-.012-.907.006-1.36-.014-.454-.013-.908.005-1.361a19.597 19.597 0 0 1 5.747-14.5c7.674-7.675 20.117-7.675 27.792 0l21.46 21.459 21.46-21.46c7.674-7.674 20.117-7.674 27.791 0a19.6 19.6 0 0 1 5.742 14.652c.014.454.012.908-.005 1.36.013.454.012.908-.006 1.361.014.454.012.908-.005 1.36.014.454.012.908-.005 1.361a19.597 19.597 0 0 1-5.747 14.501l-18.045 18.045 18.071 18.072a19.6 19.6 0 0 1 5.742 14.652z"/>
            <g transform="rotate(-45 102.43 101.648)">
                <use fill="#000" fill-opacity=".35" style="mix-blend-mode:overlay" xlink:href="#n"/>
                <use fill="url(#o)" xlink:href="#n"/>
            </g>
            <g transform="rotate(-45 102.43 98.26)">
                <use fill="#000" filter="url(#p)" xlink:href="#q"/>
                <use fill="#09C7ED" xlink:href="#q"/>
                <use fill="url(#r)" fill-opacity=".4" xlink:href="#q"/>
                <use fill="#000" filter="url(#s)" xlink:href="#q"/>
            </g>
        </g>
        <g filter="url(#t)" transform="rotate(-4 -285.766 -2441.709)">
            <path fill="#12C9ED" d="M157.437 134.359c.014.453.012.907-.005 1.36.013.454.012.908-.006 1.36.014.454.012.908-.005 1.361.014.454.012.908-.005 1.361a19.597 19.597 0 0 1-5.747 14.5c-7.674 7.675-20.117 7.675-27.792 0l-21.46-21.46-21.46 21.46c-7.674 7.675-20.117 7.675-27.792 0a19.6 19.6 0 0 1-5.741-14.651c-.014-.454-.012-.908.005-1.361-.014-.453-.012-.907.005-1.36-.013-.454-.012-.908.006-1.361-.014-.453-.013-.907.005-1.36a19.597 19.597 0 0 1 5.747-14.501l18.045-18.046-18.072-18.07a19.6 19.6 0 0 1-5.741-14.653c-.014-.453-.012-.907.005-1.36-.014-.454-.012-.908.005-1.361-.013-.453-.012-.907.006-1.36-.014-.454-.013-.908.005-1.361a19.597 19.597 0 0 1 5.747-14.5c7.674-7.675 20.117-7.675 27.792 0l21.46 21.459 21.46-21.46c7.674-7.674 20.117-7.674 27.791 0a19.6 19.6 0 0 1 5.742 14.652c.014.454.012.908-.005 1.36.013.454.012.908-.006 1.361.014.454.012.908-.005 1.36.014.454.012.908-.005 1.361a19.597 19.597 0 0 1-5.747 14.501l-18.045 18.045 18.071 18.072a19.6 19.6 0 0 1 5.742 14.652z"/>
            <g transform="rotate(-45 102.43 101.648)">
                <use fill="#000" fill-opacity=".35" style="mix-blend-mode:overlay" xlink:href="#u"/>
                <use fill="url(#o)" xlink:href="#u"/>
            </g>
            <g transform="rotate(-45 102.43 98.26)">
                <use fill="#000" filter="url(#v)" xlink:href="#w"/>
                <use fill="#09C7ED" xlink:href="#w"/>
                <use fill="url(#r)" fill-opacity=".4" xlink:href="#w"/>
                <use fill="#000" filter="url(#x)" xlink:href="#w"/>
            </g>
        </g>
    </g>
</svg>
