<?xml version="1.0" encoding="UTF-8" standalone="no"?>
<!DOCTYPE svg PUBLIC "-//W3C//DTD SVG 1.1//EN" "http://www.w3.org/Graphics/SVG/1.1/DTD/svg11.dtd">
<svg width="100%" height="100%" viewBox="0 0 504 669" version="1.1" xmlns="http://www.w3.org/2000/svg" xmlns:xlink="http://www.w3.org/1999/xlink" xml:space="preserve" xmlns:serif="http://www.serif.com/" style="fill-rule:evenodd;clip-rule:evenodd;stroke-linejoin:round;stroke-miterlimit:2;">
    <g transform="matrix(1,0,0,1,-168.3,0.2)">
        <path d="M168.5,289.1L168.5,289.1Z" style="fill:rgb(255,206,0);fill-rule:nonzero;"/>
    </g>
    <g transform="matrix(1,0,0,1,-168.3,0.2)">
        <path d="M671.8,289.1L671.8,289.1Z" style="fill:rgb(0,207,255);fill-rule:nonzero;"/>
    </g>
    <g transform="matrix(1,0,0,1,-168.3,0.2)">
        <path d="M252.4,435.6" style="fill:rgb(21,36,74);"/>
    </g>
    <g transform="matrix(1,0,0,1,-168.3,0.2)">
        <path d="M587.9,435.6" style="fill:rgb(0,207,255);"/>
    </g>
    <g transform="matrix(1,0,0,1,-168.3,0.2)">
        <path d="M587.9,242L587.9,338.8L671.8,290.4L587.9,242ZM587.9,338.8L504,290.4L420.1,338.8L336.2,290.4L252.3,338.8L336.2,387.2L252.3,435.6L336.2,484L420.1,435.6L504,484L587.9,435.6L504,387.2L587.9,338.8ZM252.4,242L168.5,290.4L252.4,338.8L252.4,242ZM336.3,193.6L420.2,145.2L504.1,193.6L420.2,242L336.3,193.6Z" style="fill:rgb(21,36,74);fill-rule:nonzero;"/>
    </g>
    <g transform="matrix(1,0,0,1,-168.3,0.2)">
        <path d="M587.9,145.4L588.1,48.4L503.9,-0.2L503.7,96.8L419.9,48.4L419.9,145L504.1,193.6L504.1,290.2L587.9,338.6L587.9,242L671.6,290.4L671.8,193.4L587.8,145.4L587.9,145.4ZM504.1,387.4L587.9,435.8L588.1,338.8L504.2,387.5L504.1,387.4ZM336.3,96.7L420,48.4L336.2,0L336.2,96.6L336.3,96.7ZM420.1,241.8L419.9,338.8L336.1,290.4L336.3,193.4L420.1,241.8Z" style="fill:url(#_Linear1);fill-rule:nonzero;"/>
    </g>
    <g transform="matrix(1,0,0,1,-168.3,0.2)">
        <path d="M252.5,241.9L252.2,338.8L336.2,290.2L336.4,193.6L420.2,145.3L420.2,48.3L336.2,96.9L336.2,-0.2L252.2,48.4L252.2,145.2C252.3,145.2 168.3,193.8 168.3,193.8L168.3,290.6C168.4,290.6 252.4,242 252.4,242L252.5,241.9ZM336.1,387.3L252.1,338.8L252.1,435.6C252.2,435.6 336.1,387.3 336.1,387.3ZM503.9,96.6L504.1,0L420.3,48.3L504,96.6L503.9,96.6ZM503.9,193.7L503.9,290.5C504,290.5 420.2,338.8 420.2,338.8L420.2,242C420.1,242 503.9,193.7 503.9,193.7Z" style="fill:url(#_Linear2);fill-rule:nonzero;"/>
    </g>
    <g transform="matrix(1,0,0,1,-168.3,0.2)">
        <path d="M461,571L461,555C461,554 460.5,553.1 459.6,552.6L445.8,544.6C445,544.1 443.9,544.1 443.1,544.6L429.3,552.6C428.5,553.1 427.9,554 427.9,555L427.9,571C427.9,572 428.4,572.9 429.3,573.4L443.1,581.4C443.9,581.9 445,581.9 445.8,581.4L459.6,573.4C460.4,572.9 461,572 461,571M475.2,563C475.2,579.9 461.4,593.7 444.5,593.7C427.6,593.7 413.8,580 413.8,563C413.8,546 427.6,532.3 444.5,532.3C461.4,532.3 475.2,546 475.2,563M573.5,562.5C573.5,552 566.4,545.4 554.9,545.4L547.6,545.4L547.6,579.8L554.9,579.8C566.3,579.8 573.5,573.2 573.5,562.7L573.5,562.5ZM588.5,562.2L588.5,562.4C588.5,571 585.4,578.4 579.6,583.8C573.5,589.4 564.8,592.3 554.4,592.3L533.2,592.3L533.2,532.9L554.8,532.9C575.3,532.9 588.6,544.4 588.6,562.3M498.6,532.9L484.1,532.9L484.1,592.3L524.5,592.3L524.5,579.9L498.6,579.9L498.6,532.8L498.6,532.9ZM367.1,532.8L367.1,592.3L381.6,592.3L381.6,570.1L404.8,570.1L404.8,558.5L381.6,558.5L381.6,545.2L410,545.2L410,532.8L367.1,532.8ZM329.9,568.7L354.6,568.7L354.6,556.9L329.9,556.9L329.9,544.7L358.8,544.7L358.8,532.8L315.6,532.8L315.6,592.2L359.2,592.2L359.2,580.3L329.9,580.3L329.9,568.6L329.9,568.7ZM293.6,562.5C293.6,552 286.5,545.4 275,545.4L267.7,545.4L267.7,579.8L275,579.8C286.5,579.8 293.6,573.2 293.6,562.7L293.6,562.5ZM308.5,562.2L308.5,562.4C308.5,571 305.4,578.4 299.6,583.8C293.5,589.4 284.8,592.3 274.4,592.3L253.2,592.3L253.2,532.9L274.8,532.9C295.3,532.9 308.6,544.4 308.6,562.3M599.6,535.9L597.7,532.9L596,532.9L596,540.1L597.6,540.1L597.6,535.4L599.6,538.4L601.6,535.3L601.6,540L603.2,540L603.2,532.8L601.5,532.8L599.6,535.8L599.6,535.9ZM588.5,532.9L594.5,532.9L594.5,534.4L592.3,534.4L592.3,540.1L590.7,540.1L590.7,534.4L588.5,534.4L588.5,532.9Z" style="fill:rgb(21,36,74);fill-rule:nonzero;"/>
    </g>
    <g transform="matrix(1,0,0,1,-168.3,0.2)">
        <path d="M269.3,633.2L283.9,633.2L283.9,653.1C281.5,653.9 279.2,654.4 277,654.8C274.8,655.1 272.4,655.3 269.9,655.3C263.9,655.3 259.3,653.5 256,650C252.7,646.4 251.1,641.4 251.1,635C251.1,628.6 252.9,623.6 256.6,620C260.3,616.4 265.3,614.6 271.8,614.6C278.3,614.6 279.9,615.4 283.6,617L281.3,622.4C278.1,620.9 274.9,620.2 271.6,620.2C268.3,620.2 264,621.5 261.6,624.2C259.1,626.9 257.9,630.5 257.9,635.1C257.9,639.7 259,643.6 261.2,646.1C263.4,648.6 266.6,649.9 270.8,649.9C275,649.9 275.1,649.6 277.5,649.1L277.5,638.9L269.3,638.9L269.3,633.2Z" style="fill:rgb(21,36,74);fill-rule:nonzero;"/>
    </g>
    <g transform="matrix(1,0,0,1,-168.3,0.2)">
        <path d="M310.4,654.7L309.1,650.5L308.9,650.5C307.5,652.3 306,653.6 304.5,654.2C303,654.9 301.2,655.2 298.9,655.2C296.6,655.2 293.7,654.4 292,652.8C290.3,651.2 289.5,649 289.5,646.1C289.5,643.2 290.6,640.7 292.9,639.1C295.2,637.5 298.7,636.7 303.4,636.5L308.6,636.3L308.6,634.7C308.6,632.8 308.2,631.4 307.3,630.4C306.4,629.5 305,629 303.1,629C301.2,629 300.1,629.2 298.7,629.7C297.3,630.2 295.9,630.7 294.6,631.3L292.5,626.7C294.1,625.9 295.9,625.2 297.8,624.8C299.7,624.4 301.6,624.1 303.3,624.1C307.1,624.1 310,624.9 311.9,626.6C313.8,628.3 314.8,630.9 314.8,634.4L314.8,654.6L310.2,654.6L310.4,654.7ZM300.9,650.3C303.2,650.3 305.1,649.7 306.5,648.4C307.9,647.1 308.6,645.3 308.6,643L308.6,640.4L304.8,640.6C301.8,640.7 299.6,641.2 298.3,642.1C296.9,643 296.3,644.4 296.3,646.2C296.3,648 296.7,648.6 297.5,649.3C298.3,650 299.5,650.4 301.1,650.4L300.9,650.3Z" style="fill:rgb(21,36,74);fill-rule:nonzero;"/>
    </g>
    <g transform="matrix(1,0,0,1,-168.3,0.2)">
        <path d="M348,654.7L341.6,654.7L341.6,636.2C341.6,633.9 341.2,632.2 340.3,631.1C339.4,630 338.1,629.4 336.2,629.4C334.3,629.4 331.9,630.2 330.8,631.8C329.7,633.4 329.1,636.1 329.1,639.8L329.1,654.7L322.7,654.7L322.7,624.7L327.7,624.7L328.6,628.6L328.9,628.6C329.7,627.2 330.9,626.1 332.5,625.3C334.1,624.5 335.8,624.1 337.7,624.1C342.3,624.1 345.4,625.7 346.9,628.8L347.3,628.8C348.2,627.3 349.4,626.2 351,625.3C352.6,624.5 354.5,624.1 356.5,624.1C360.1,624.1 362.7,625 364.3,626.8C365.9,628.6 366.8,631.4 366.8,635.1L366.8,654.6L360.4,654.6L360.4,636.1C360.4,633.8 360,632.1 359.1,631C358.2,629.9 356.9,629.3 355,629.3C353.1,629.3 350.7,630.1 349.6,631.6C348.5,633.1 347.9,635.5 347.9,638.7L347.9,654.6L348,654.7Z" style="fill:rgb(21,36,74);fill-rule:nonzero;"/>
    </g>
    <g transform="matrix(1,0,0,1,-168.3,0.2)">
        <path d="M387.8,655.2C383.1,655.2 379.5,653.8 376.9,651.1C374.3,648.4 373,644.6 373,639.9C373,635.2 374.2,631.2 376.7,628.4C379.1,625.6 382.5,624.2 386.8,624.2C391.1,624.2 393.9,625.4 396.2,627.8C398.5,630.2 399.6,633.5 399.6,637.7L399.6,641.1L379.6,641.1C379.6,644 380.5,646.2 382,647.8C383.5,649.4 385.6,650.1 388.3,650.1C391,650.1 391.7,649.9 393.2,649.6C394.7,649.3 396.4,648.7 398.1,647.9L398.1,653.1C396.5,653.8 395,654.4 393.4,654.7C391.8,655 390,655.2 388,655.2L387.8,655.2ZM386.6,629C384.6,629 383,629.6 381.7,630.9C380.5,632.2 379.8,634.1 379.5,636.5L393.1,636.5C393.1,634 392.5,632.1 391.3,630.9C390.1,629.6 388.6,629 386.5,629L386.6,629Z" style="fill:rgb(21,36,74);fill-rule:nonzero;"/>
    </g>
    <g transform="matrix(1,0,0,1,-168.3,0.2)">
        <path d="M442,654.7L419.6,654.7L419.6,615.1L442,615.1L442,620.6L426.1,620.6L426.1,631.4L441,631.4L441,636.8L426.1,636.8L426.1,649.2L442,649.2L442,654.7Z" style="fill:rgb(21,36,74);fill-rule:nonzero;"/>
    </g>
    <g transform="matrix(1,0,0,1,-168.3,0.2)">
        <path d="M475.1,654.7L468.7,654.7L468.7,636.3C468.7,634 468.2,632.3 467.3,631.1C466.4,630 464.9,629.4 462.9,629.4C460.9,629.4 458.2,630.2 457,631.8C455.8,633.4 455.1,636.1 455.1,639.8L455.1,654.7L448.7,654.7L448.7,624.7L453.7,624.7L454.6,628.6L454.9,628.6C455.8,627.2 457.1,626.1 458.7,625.3C460.4,624.5 462.2,624.1 464.2,624.1C471.4,624.1 475,627.8 475,635.1L475,654.6L475.1,654.7Z" style="fill:rgb(21,36,74);fill-rule:nonzero;"/>
    </g>
    <g transform="matrix(1,0,0,1,-168.3,0.2)">
        <path d="M508.2,624.7L508.2,628.2L503.1,629.1C503.6,629.7 504,630.5 504.3,631.4C504.6,632.3 504.8,633.3 504.8,634.3C504.8,637.4 503.7,639.8 501.6,641.6C499.5,643.4 496.5,644.3 492.8,644.3C489.1,644.3 491,644.3 490.2,644.1C488.8,644.9 488.1,645.9 488.1,647.1C488.1,648.3 488.4,648.3 489.1,648.6C489.7,648.9 490.9,649.1 492.6,649.1L497.8,649.1C501.1,649.1 503.6,649.8 505.3,651.2C507,652.6 507.9,654.6 507.9,657.3C507.9,660 506.5,663.3 503.7,665.2C500.9,667 496.9,668 491.6,668C486.3,668 484.4,667.3 482.2,665.8C480,664.4 479,662.3 479,659.6C479,656.9 479.6,656.2 480.7,655C481.9,653.7 483.5,652.9 485.6,652.4C484.8,652 484.1,651.5 483.5,650.7C482.9,649.9 482.7,649.1 482.7,648.2C482.7,647.3 483,646.1 483.6,645.4C484.2,644.6 485.2,643.9 486.4,643.1C484.8,642.4 483.6,641.3 482.6,639.8C481.6,638.3 481.1,636.5 481.1,634.5C481.1,631.2 482.1,628.7 484.2,626.9C486.3,625.1 489.2,624.2 493,624.2C496.8,624.2 494.7,624.2 495.7,624.4C496.6,624.5 497.3,624.6 497.8,624.8L508.2,624.8L508.2,624.7ZM484.7,659.3C484.7,660.7 485.3,661.7 486.6,662.5C487.8,663.2 489.6,663.6 491.8,663.6C495.3,663.6 497.9,663.1 499.6,662.1C501.3,661.1 502.1,659.8 502.1,658.1C502.1,656.4 501.6,655.9 500.7,655.3C499.8,654.7 498,654.5 495.5,654.5L490.7,654.5C488.9,654.5 487.4,654.9 486.3,655.8C485.2,656.7 484.7,657.8 484.7,659.3ZM487.4,634.4C487.4,636.3 487.9,637.7 488.9,638.7C489.9,639.7 491.3,640.2 493.1,640.2C496.8,640.2 498.6,638.2 498.6,634.3C498.6,630.4 498.1,630.8 497.2,629.8C496.3,628.7 494.9,628.2 493,628.2C491.1,628.2 489.8,628.7 488.8,629.8C487.9,630.8 487.4,632.4 487.4,634.4Z" style="fill:rgb(21,36,74);fill-rule:nonzero;"/>
    </g>
    <g transform="matrix(1,0,0,1,-168.3,0.2)">
        <path d="M512.3,616.7C512.3,615.6 512.6,614.7 513.2,614.1C513.8,613.5 514.7,613.2 515.9,613.2C517.1,613.2 517.9,613.5 518.5,614.1C519.1,614.7 519.4,615.6 519.4,616.7C519.4,617.8 519.1,618.6 518.5,619.3C517.9,619.9 517,620.2 515.9,620.2C514.8,620.2 513.9,619.9 513.2,619.3C512.5,618.7 512.3,617.8 512.3,616.7ZM519,654.7L512.6,654.7L512.6,624.7L519,624.7L519,654.7Z" style="fill:rgb(21,36,74);fill-rule:nonzero;"/>
    </g>
    <g transform="matrix(1,0,0,1,-168.3,0.2)">
        <path d="M553.4,654.7L547,654.7L547,636.3C547,634 546.5,632.3 545.6,631.1C544.7,630 543.2,629.4 541.2,629.4C539.2,629.4 536.5,630.2 535.3,631.8C534.1,633.4 533.4,636.1 533.4,639.8L533.4,654.7L527,654.7L527,624.7L532,624.7L532.9,628.6L533.2,628.6C534.1,627.2 535.4,626.1 537,625.3C538.7,624.5 540.5,624.1 542.5,624.1C549.7,624.1 553.3,627.8 553.3,635.1L553.3,654.6L553.4,654.7Z" style="fill:rgb(21,36,74);fill-rule:nonzero;"/>
    </g>
    <g transform="matrix(1,0,0,1,-168.3,0.2)">
        <path d="M574.3,655.2C569.6,655.2 566,653.8 563.4,651.1C560.8,648.4 559.5,644.6 559.5,639.9C559.5,635.2 560.7,631.2 563.2,628.4C565.6,625.6 569,624.2 573.3,624.2C577.6,624.2 580.4,625.4 582.7,627.8C585,630.2 586.1,633.5 586.1,637.7L586.1,641.1L566.1,641.1C566.1,644 567,646.2 568.5,647.8C570,649.4 572.1,650.1 574.8,650.1C577.5,650.1 578.2,649.9 579.7,649.6C581.2,649.3 582.9,648.7 584.6,647.9L584.6,653.1C583,653.8 581.5,654.4 579.9,654.7C578.3,655 576.5,655.2 574.5,655.2L574.3,655.2ZM573.1,629C571.1,629 569.5,629.6 568.2,630.9C567,632.2 566.3,634.1 566,636.5L579.6,636.5C579.6,634 579,632.1 577.8,630.9C576.6,629.6 575.1,629 573,629L573.1,629Z" style="fill:rgb(21,36,74);fill-rule:nonzero;"/>
    </g>
    <defs>
        <linearGradient id="_Linear1" x1="0" y1="0" x2="1" y2="0" gradientUnits="userSpaceOnUse" gradientTransform="matrix(377.414,217.9,-217.9,377.414,304.57,54.0226)"><stop offset="0" style="stop-color:rgb(28,104,236);stop-opacity:1"/><stop offset="1" style="stop-color:rgb(0,233,223);stop-opacity:1"/></linearGradient>
        <linearGradient id="_Linear2" x1="0" y1="0" x2="1" y2="0" gradientUnits="userSpaceOnUse" gradientTransform="matrix(293.583,169.5,-169.5,293.583,217.25,108.671)"><stop offset="0" style="stop-color:rgb(255,60,42);stop-opacity:1"/><stop offset="1" style="stop-color:rgb(255,210,21);stop-opacity:1"/></linearGradient>
    </defs>
</svg>
