<?xml version="1.0" encoding="UTF-8"?>
<svg id="Layer_1" xmlns="http://www.w3.org/2000/svg" xmlns:xlink="http://www.w3.org/1999/xlink" version="1.1" viewBox="0 0 1876.5 531.4">
  <!-- Generator: Adobe Illustrator 29.2.1, SVG Export Plug-In . SVG Version: 2.1.0 Build 116)  -->
  <defs>
    <style>
      .st0 {
        fill: #15244a;
      }

      .st1 {
        fill: url(#Namnlös_övertoning_2);
      }

      .st2 {
        fill: url(#Namnlös_övertoning);
      }
    </style>
    <linearGradient id="Namnlös_övertoning" data-name="Namnlös övertoning" x1="133.4" y1="-4332.4" x2="500.9" y2="-4121.4" gradientTransform="translate(0 4410.4)" gradientUnits="userSpaceOnUse">
      <stop offset="0" stop-color="#1c68ec"/>
      <stop offset="1" stop-color="#00e9df"/>
    </linearGradient>
    <linearGradient id="Namnlös_övertoning_2" data-name="Namnlös övertoning 2" x1="13.1" y1="-4298" x2="359.7" y2="-4098.2" gradientTransform="translate(0 4410.4)" gradientUnits="userSpaceOnUse">
      <stop offset="0" stop-color="#ff3c2a"/>
      <stop offset="1" stop-color="#ffd215"/>
    </linearGradient>
  </defs>
  <path class="st0" d="M362.1,209.2l-90.5,52.3-90.6-52.3,90.6-52.3,90.5,52.3ZM452.7,261.5v104.6l90.5-52.3-90.5-52.3ZM0,313.7l90.6,52.3v-104.5L0,313.7ZM271.6,470.6l90.5,52.3,90.6-52.3-90.6-52.3h0l90.6-52.3-90.6-52.3-90.5,52.3-90.6-52.3-90.5,52.3,90.5,52.3h0l-90.5,52.3,90.5,52.3,90.6-52.3Z"/>
  <path class="st2" d="M452.7,366v104.5l-90.6-52.3,90.6-52.3ZM271.6,366v-104.6l-90.6-52.3v104.5l90.6,52.3ZM181.1.1v104.5l90.6-52.4L181.1.1ZM452.7,156.9h0M362.1,313.7l90.6,52.3v-104.5l90.5,52.3v-104.5l-90.5-52.3V52.3h0L362.1,0v104.5l-90.5-52.3v104.5l90.5,52.3v104.5h0Z"/>
  <path class="st1" d="M271.6,366v-104.6l90.5-52.3v104.5l-90.5,52.3ZM271.6,52.4l90.5,52.3V.1l-90.5,52.3ZM90.6,156.9h0M181.1,209.2l90.6-52.3V52.3l-90.6,52.3V.1l-90.5,52.1h0v104.5L0,209.1v104.5l90.6-52.3v104.6l90.5-52.3v-104.5ZM90.6,366v104.5l90.5-52.3-90.5-52.3Z"/>
  <polygon class="st0" points="1824.6 77 1832.3 77 1832.3 97.3 1837.9 97.3 1837.9 77 1845.6 77 1845.6 71.9 1824.6 71.9 1824.6 77"/>
  <polygon class="st0" points="1863.8 82.6 1857.1 71.9 1851.1 71.9 1851.1 97.3 1856.6 97.3 1856.6 80.8 1863.7 91.5 1863.8 91.5 1871 80.7 1871 97.3 1876.5 97.3 1876.5 71.9 1870.5 71.9 1863.8 82.6"/>
  <path class="st0" d="M725.8,71.9h-76.1v210h74.9c36.7,0,67.5-10.4,89-30.2,20.5-18.9,31.4-45,31.4-75.5v-.6c0-63-46.8-103.7-119.2-103.7ZM792.2,177.2c0,37.3-25.1,60.4-65.5,60.4h-25.9v-121.5h25.9c40.4,0,65.5,23.2,65.5,60.4v.6Z"/>
  <polygon class="st0" points="920.2 198.7 1007.2 198.7 1007.2 157 920.2 157 920.2 113.9 1021.9 113.9 1021.9 71.9 869.6 71.9 869.6 281.9 1023.5 281.9 1023.5 239.9 920.2 239.9 920.2 198.7"/>
  <polygon class="st0" points="1051.6 71.9 1051.6 281.9 1102.7 281.9 1102.7 203.4 1184.4 203.4 1184.4 162.6 1102.7 162.6 1102.7 115.5 1202.9 115.5 1202.9 71.9 1051.6 71.9"/>
  <polygon class="st0" points="1515.2 71.9 1464 71.9 1464 281.9 1606.5 281.9 1606.5 238.3 1515.2 238.3 1515.2 71.9"/>
  <path class="st0" d="M1712.9,71.9h-76.1v210h74.9c36.8,0,67.5-10.4,89-30.2,20.5-18.9,31.4-45,31.4-75.5v-.6c0-63-46.8-103.7-119.1-103.7ZM1779.3,177.2c0,37.3-25.1,60.4-65.5,60.4h-25.9v-121.5h25.9c40.4,0,65.5,23.2,65.5,60.4v.6Z"/>
  <path class="st0" d="M1324.5,70.1c-59.8,0-108.3,48.5-108.3,108.3,0,59.8,48.5,108.3,108.3,108.3s108.3-48.5,108.3-108.3h0c0-59.8-48.5-108.3-108.3-108.3ZM1377.9,214.9l-48.6,28.2c-3,1.7-6.7,1.7-9.7,0l-48.6-28.2c-3-1.7-4.8-4.9-4.8-8.3v-56.3c0-3.4,1.8-6.6,4.8-8.3l48.6-28.2c3-1.7,6.7-1.7,9.7,0l48.6,28.2c3,1.7,4.8,4.9,4.8,8.3v56.4c0,3.4-1.8,6.6-4.8,8.3Z"/>
  <g>
    <path class="st0" d="M713.6,410.6h50.6v69c-8.3,2.7-16.2,4.6-23.8,5.7-7.6,1.1-15.8,1.7-24.7,1.7-20.8,0-36.8-6.2-48.1-18.5-11.3-12.3-16.9-29.7-16.9-52.1s6.4-39.4,19.1-51.9c12.7-12.5,30.2-18.8,52.5-18.8s27.9,2.8,40.8,8.3l-7.9,18.7c-11.2-5.1-22.3-7.7-33.5-7.7s-26.3,4.6-34.8,13.8c-8.5,9.2-12.8,21.8-12.8,37.8s3.8,29.6,11.5,38.3c7.7,8.7,18.7,13.1,33.1,13.1s15-.9,23.3-2.7v-35.4h-28.5v-19.3Z"/>
    <path class="st0" d="M856,485.2l-4.4-14.5h-.8c-5,6.3-10.1,10.6-15.1,12.9-5.1,2.3-11.6,3.4-19.6,3.4s-18.2-2.8-23.9-8.3c-5.7-5.5-8.6-13.3-8.6-23.4s4-18.8,11.9-24.2c8-5.5,20.1-8.4,36.4-8.9l18-.6v-5.5c0-6.6-1.6-11.6-4.7-14.9-3.1-3.3-7.9-4.9-14.4-4.9s-10.4.8-15.3,2.3c-4.9,1.6-9.6,3.4-14.1,5.5l-7.1-15.8c5.6-2.9,11.8-5.2,18.5-6.7,6.7-1.5,13-2.3,19-2.3,13.2,0,23.2,2.9,29.9,8.6,6.7,5.8,10.1,14.8,10.1,27.2v70h-15.8ZM823.1,470.1c8,0,14.5-2.2,19.3-6.7,4.9-4.5,7.3-10.8,7.3-18.8v-9l-13.3.6c-10.4.4-18,2.1-22.7,5.2-4.7,3.1-7.1,7.8-7.1,14.2s1.4,8.2,4.1,10.8c2.8,2.5,6.9,3.8,12.4,3.8Z"/>
    <path class="st0" d="M986.4,485.2h-22.2v-64.1c0-8-1.5-13.9-4.5-17.8s-7.7-5.9-14.1-5.9-14.8,2.8-18.8,8.3c-4,5.5-6,14.8-6,27.7v51.8h-22.1v-104h17.3l3.1,13.6h1.1c2.9-4.9,7.1-8.8,12.5-11.5,5.5-2.7,11.5-4,18.1-4,16,0,26.6,5.5,31.8,16.4h1.5c3.1-5.1,7.4-9.1,13-12,5.6-2.9,12-4.3,19.2-4.3,12.4,0,21.4,3.1,27.1,9.4,5.7,6.3,8.5,15.8,8.5,28.7v67.8h-22.1v-64.1c0-8-1.5-13.9-4.6-17.8-3-3.9-7.8-5.9-14.1-5.9s-14.9,2.7-18.8,8c-4,5.4-6,13.6-6,24.7v55.1Z"/>
    <path class="st0" d="M1124.4,487c-16.2,0-28.8-4.7-37.9-14.1-9.1-9.4-13.7-22.4-13.7-39s4.2-30.3,12.7-40c8.5-9.7,20.1-14.6,34.9-14.6s24.6,4.2,32.5,12.5c8,8.3,11.9,19.8,11.9,34.4v11.9h-69.3c.3,10.1,3,17.8,8.2,23.3,5.1,5.4,12.4,8.1,21.7,8.1s11.9-.6,17.2-1.7c5.3-1.2,11-3.1,17.1-5.8v18c-5.4,2.6-10.8,4.4-16.4,5.5-5.5,1.1-11.8,1.6-18.9,1.6ZM1120.3,396.1c-7,0-12.6,2.2-16.9,6.7-4.2,4.5-6.8,10.9-7.6,19.5h47.2c-.1-8.6-2.2-15.1-6.2-19.5-4-4.4-9.5-6.6-16.5-6.6Z"/>
    <path class="st0" d="M1312.3,485.2h-77.7v-137.4h77.7v19h-55.3v37.4h51.8v18.8h-51.8v43.1h55.3v19.1Z"/>
    <path class="st0" d="M1427.2,485.2h-22.2v-63.9c0-8-1.6-14-4.8-18-3.2-3.9-8.4-5.9-15.4-5.9s-16.2,2.8-20.5,8.3c-4.3,5.5-6.5,14.8-6.5,27.7v51.8h-22.1v-104h17.3l3.1,13.6h1.1c3.1-4.9,7.6-8.8,13.3-11.5,5.8-2.7,12.2-4,19.2-4,24.9,0,37.4,12.7,37.4,38.1v67.8Z"/>
    <path class="st0" d="M1541.9,381.2v12.1l-17.8,3.3c1.6,2.2,3,4.9,4,8.1,1.1,3.2,1.6,6.6,1.6,10.2,0,10.7-3.7,19.1-11.1,25.3-7.4,6.1-17.6,9.2-30.5,9.2s-6.3-.2-9-.8c-4.8,2.9-7.1,6.4-7.1,10.3s1.1,4.2,3.3,5.4c2.2,1.2,6.3,1.8,12.3,1.8h18.1c11.5,0,20.2,2.4,26.1,7.3,6,4.9,8.9,11.9,8.9,21.1s-4.9,20.9-14.6,27.3c-9.7,6.4-23.7,9.6-42.1,9.6s-25-2.5-32.4-7.5c-7.5-5-11.2-12.2-11.2-21.4s2-11.8,6.1-16.1c4-4.4,9.7-7.4,17-9.1-2.9-1.3-5.4-3.3-7.3-6.1-1.9-2.8-2.9-5.7-2.9-8.8s1.1-7.2,3.3-9.9c2.2-2.7,5.5-5.4,9.8-8-5.4-2.3-9.8-6.1-13.1-11.3-3.4-5.2-5-11.4-5-18.4,0-11.3,3.6-20,10.7-26.2,7.1-6.2,17.2-9.3,30.4-9.3s6,.2,9.3.6c3.2.4,5.7.8,7.3,1.3h36ZM1460.2,501.3c0,4.8,2.1,8.4,6.4,11,4.3,2.6,10.3,3.9,18.1,3.9,12,0,21-1.7,26.9-5.2,5.9-3.4,8.8-8,8.8-13.7s-1.6-7.7-4.8-9.6c-3.2-1.9-9.2-2.9-18-2.9h-16.7c-6.3,0-11.4,1.5-15.1,4.5-3.7,3-5.6,7-5.6,12.1ZM1469.7,414.9c0,6.5,1.7,11.5,5,15,3.4,3.5,8.2,5.3,14.4,5.3,12.8,0,19.2-6.8,19.2-20.5s-1.6-12-4.7-15.7c-3.2-3.7-8-5.5-14.4-5.5s-11.2,1.8-14.5,5.5c-3.3,3.6-4.9,8.9-4.9,15.9Z"/>
    <path class="st0" d="M1556,353.7c0-3.9,1.1-7,3.2-9.1,2.2-2.1,5.2-3.2,9.3-3.2s6.9,1.1,9.1,3.2c2.2,2.1,3.2,5.2,3.2,9.1s-1.1,6.7-3.2,8.9c-2.2,2.2-5.2,3.2-9.1,3.2s-7.1-1.1-9.3-3.2-3.2-5.1-3.2-8.9ZM1579.4,485.2h-22.1v-104h22.1v104Z"/>
    <path class="st0" d="M1698.6,485.2h-22.2v-63.9c0-8-1.6-14-4.8-18-3.2-3.9-8.4-5.9-15.4-5.9s-16.2,2.8-20.5,8.3c-4.3,5.5-6.5,14.8-6.5,27.7v51.8h-22.1v-104h17.3l3.1,13.6h1.1c3.1-4.9,7.6-8.8,13.3-11.5,5.8-2.7,12.2-4,19.2-4,24.9,0,37.4,12.7,37.4,38.1v67.8Z"/>
    <path class="st0" d="M1770.9,487c-16.2,0-28.8-4.7-37.9-14.1-9.1-9.4-13.7-22.4-13.7-39s4.2-30.3,12.7-40c8.5-9.7,20.1-14.6,34.9-14.6s24.6,4.2,32.5,12.5c8,8.3,11.9,19.8,11.9,34.4v11.9h-69.3c.3,10.1,3,17.8,8.2,23.3,5.1,5.4,12.4,8.1,21.7,8.1s11.9-.6,17.2-1.7c5.3-1.2,11-3.1,17.1-5.8v18c-5.4,2.6-10.8,4.4-16.4,5.5-5.5,1.1-11.8,1.6-18.9,1.6ZM1766.8,396.1c-7,0-12.6,2.2-16.9,6.7-4.2,4.5-6.8,10.9-7.6,19.5h47.2c-.1-8.6-2.2-15.1-6.2-19.5-4-4.4-9.5-6.6-16.5-6.6Z"/>
  </g>
</svg>