<?xml version="1.0" encoding="UTF-8"?>
<svg id="Layer_1" xmlns="http://www.w3.org/2000/svg" xmlns:xlink="http://www.w3.org/1999/xlink" version="1.1" viewBox="0 0 566.9 758">
  <!-- Generator: Adobe Illustrator 29.2.1, SVG Export Plug-In . SVG Version: 2.1.0 Build 116)  -->
  <defs>
    <style>
      .st0 {
        fill: #15244a;
      }

      .st1 {
        fill: url(#Namnlös_övertoning_2);
      }

      .st2 {
        fill: #fff;
      }

      .st3 {
        fill: url(#Namnlös_övertoning);
      }
    </style>
    <linearGradient id="Namnlös_övertoning" data-name="Namnlös övertoning" x1="139.2" y1="586" x2="522.8" y2="365.8" gradientTransform="translate(0 667.3) scale(1 -1)" gradientUnits="userSpaceOnUse">
      <stop offset="0" stop-color="#1c68ec"/>
      <stop offset="1" stop-color="#00e9df"/>
    </linearGradient>
    <linearGradient id="Namnlös_övertoning_2" data-name="Namnlös övertoning 2" x1="13.7" y1="550.1" x2="375.4" y2="341.5" gradientTransform="translate(0 667.3) scale(1 -1)" gradientUnits="userSpaceOnUse">
      <stop offset="0" stop-color="#ff3c2a"/>
      <stop offset="1" stop-color="#ffd215"/>
    </linearGradient>
  </defs>
  <path class="st0" d="M378,218.2l-94.5,54.6-94.5-54.6,94.5-54.6,94.5,54.6ZM472.5,272.8v109.1l94.5-54.5-94.5-54.6ZM0,327.3l94.5,54.5v-109.1L0,327.3ZM283.5,491l94.5,54.5,94.4-54.5-94.4-54.6h0l94.5-54.5-94.5-54.6-94.5,54.5-94.5-54.5-94.5,54.5,94.5,54.6h0l-94.5,54.6,94.5,54.5,94.5-54.5Z"/>
  <path class="st3" d="M472.4,381.9v109.1l-94.4-54.6,94.4-54.6ZM283.4,381.9v-109.1l-94.4-54.6v109.1l94.4,54.5ZM189,0v109.1l94.5-54.6L189,0ZM472.4,163.7h0M378,327.3l94.5,54.5v-109.1l94.5,54.6v-109.1l-94.5-54.6V54.5h0L378,0v109.1l-94.5-54.6v109.1l94.5,54.6v109.1Z"/>
  <path class="st1" d="M283.5,381.9v-109.1l94.5-54.6v109.1l-94.5,54.5ZM283.5,54.5l94.5,54.6V0l-94.5,54.5ZM94.5,163.7h0M189,218.2l94.5-54.6V54.5l-94.5,54.6V0l-94.5,54.5h0v109.1L0,218.2v109.1l94.5-54.6v109.1l94.5-54.5v-109.1ZM94.5,381.9v109.1l94.5-54.6-94.5-54.6Z"/>
  <path class="st2" d="M328.8,643.7v-18c0-1.1-.6-2.1-1.5-2.7l-15.5-9c-1-.6-2.1-.6-3.1,0l-15.5,9c-1,.6-1.5,1.6-1.5,2.7v18c0,1.1.6,2.1,1.5,2.7l15.5,9c1,.6,2.1.6,3.1,0l15.5-9c1-.6,1.5-1.6,1.5-2.7M344.8,634.7c0,19.1-15.5,34.5-34.6,34.5s-34.6-15.5-34.6-34.5,15.5-34.5,34.6-34.5,34.6,15.5,34.6,34.5M455.5,634.2c0-11.9-8-19.3-20.9-19.3h-8.3v38.8h8.3c12.9,0,20.9-7.4,20.9-19.3v-.2ZM472.4,633.9v.2c0,9.7-3.5,18-10,24.1-6.9,6.3-16.7,9.6-28.4,9.6h-23.9v-67h24.3c23.1,0,38.1,13,38.1,33.1M371.1,600.8h-16.4v67h45.5v-13.9h-29.2v-53.1ZM222.9,600.8v67h16.4v-25h26.1v-13h-26.1v-15h32v-13.9h-48.4ZM180.9,641.2h27.8v-13.3h-27.8v-13.7h32.5v-13.4h-48.7v67h49.2v-13.4h-33v-13.1ZM140.1,634.2c0-11.9-8-19.3-20.9-19.3h-8.3v38.8h8.3c12.9,0,20.9-7.4,20.9-19.3v-.2ZM156.9,633.9v.2c0,9.7-3.5,18-10,24.1-6.9,6.3-16.7,9.6-28.4,9.6h-23.9v-67h24.3c23.1,0,38.1,13,38.1,33.1M484.9,604.2l-2.1-3.4h-1.9v8.1h1.8v-5.3l2.3,3.4h0l2.3-3.5v5.3h1.8v-8.1h-1.9l-2.1,3.4ZM472.4,600.8h6.7v1.6h-2.5v6.5h-1.8v-6.5h-2.5v-1.6Z"/>
  <g>
    <path class="st2" d="M112.7,713.8h16.4v22.4c-2.7.9-5.3,1.5-7.7,1.9-2.5.4-5.1.6-8,.6-6.8,0-12-2-15.6-6-3.7-4-5.5-9.6-5.5-16.9s2.1-12.8,6.2-16.9c4.1-4.1,9.8-6.1,17.1-6.1s9.1.9,13.3,2.7l-2.6,6.1c-3.6-1.7-7.3-2.5-10.9-2.5s-8.5,1.5-11.3,4.5c-2.8,3-4.2,7.1-4.2,12.3s1.2,9.6,3.7,12.4c2.5,2.8,6.1,4.3,10.8,4.3s4.9-.3,7.6-.9v-11.5h-9.3v-6.3Z"/>
    <path class="st2" d="M159,738l-1.4-4.7h-.2c-1.6,2.1-3.3,3.5-4.9,4.2-1.6.7-3.8,1.1-6.4,1.1s-5.9-.9-7.8-2.7c-1.9-1.8-2.8-4.3-2.8-7.6s1.3-6.1,3.9-7.9c2.6-1.8,6.5-2.7,11.8-2.9l5.8-.2v-1.8c0-2.2-.5-3.8-1.5-4.8-1-1.1-2.6-1.6-4.7-1.6s-3.4.3-5,.8c-1.6.5-3.1,1.1-4.6,1.8l-2.3-5.1c1.8-1,3.8-1.7,6-2.2,2.2-.5,4.2-.7,6.2-.7,4.3,0,7.5.9,9.7,2.8,2.2,1.9,3.3,4.8,3.3,8.8v22.8h-5.1ZM148.3,733.1c2.6,0,4.7-.7,6.3-2.2,1.6-1.5,2.4-3.5,2.4-6.1v-2.9l-4.3.2c-3.4.1-5.8.7-7.4,1.7-1.5,1-2.3,2.6-2.3,4.6s.4,2.7,1.3,3.5c.9.8,2.2,1.2,4,1.2Z"/>
    <path class="st2" d="M201.4,738h-7.2v-20.8c0-2.6-.5-4.5-1.5-5.8s-2.5-1.9-4.6-1.9-4.8.9-6.1,2.7c-1.3,1.8-1.9,4.8-1.9,9v16.8h-7.2v-33.8h5.6l1,4.4h.4c.9-1.6,2.3-2.9,4.1-3.7,1.8-.9,3.7-1.3,5.9-1.3,5.2,0,8.6,1.8,10.3,5.3h.5c1-1.7,2.4-3,4.2-3.9,1.8-.9,3.9-1.4,6.2-1.4,4,0,7,1,8.8,3.1,1.8,2,2.8,5.1,2.8,9.3v22h-7.2v-20.8c0-2.6-.5-4.5-1.5-5.8-1-1.3-2.5-1.9-4.6-1.9s-4.8.9-6.1,2.6c-1.3,1.7-1.9,4.4-1.9,8v17.9Z"/>
    <path class="st2" d="M246.2,738.6c-5.3,0-9.4-1.5-12.3-4.6-3-3.1-4.4-7.3-4.4-12.7s1.4-9.9,4.1-13c2.7-3.2,6.5-4.7,11.3-4.7s8,1.4,10.6,4.1c2.6,2.7,3.9,6.4,3.9,11.2v3.9h-22.5c.1,3.3,1,5.8,2.7,7.6,1.7,1.8,4,2.6,7.1,2.6s3.9-.2,5.6-.6c1.7-.4,3.6-1,5.5-1.9v5.8c-1.8.8-3.5,1.4-5.3,1.8-1.8.3-3.8.5-6.1.5ZM244.9,709.1c-2.3,0-4.1.7-5.5,2.2-1.4,1.4-2.2,3.6-2.5,6.3h15.3c0-2.8-.7-4.9-2-6.3-1.3-1.4-3.1-2.2-5.4-2.2Z"/>
    <path class="st2" d="M307.3,738h-25.3v-44.7h25.3v6.2h-18v12.2h16.8v6.1h-16.8v14h18v6.2Z"/>
    <path class="st2" d="M344.6,738h-7.2v-20.8c0-2.6-.5-4.6-1.6-5.8-1-1.3-2.7-1.9-5-1.9s-5.3.9-6.7,2.7c-1.4,1.8-2.1,4.8-2.1,9v16.8h-7.2v-33.8h5.6l1,4.4h.4c1-1.6,2.5-2.9,4.3-3.7,1.9-.9,4-1.3,6.2-1.3,8.1,0,12.2,4.1,12.2,12.4v22Z"/>
    <path class="st2" d="M381.9,704.2v3.9l-5.8,1.1c.5.7,1,1.6,1.3,2.6.3,1,.5,2.1.5,3.3,0,3.5-1.2,6.2-3.6,8.2-2.4,2-5.7,3-9.9,3s-2.1,0-2.9-.2c-1.5,1-2.3,2.1-2.3,3.4s.4,1.4,1.1,1.7c.7.4,2.1.6,4,.6h5.9c3.7,0,6.6.8,8.5,2.4,1.9,1.6,2.9,3.9,2.9,6.9s-1.6,6.8-4.7,8.9c-3.2,2.1-7.7,3.1-13.7,3.1s-8.1-.8-10.5-2.4c-2.4-1.6-3.6-4-3.6-7s.7-3.8,2-5.2c1.3-1.4,3.2-2.4,5.5-2.9-1-.4-1.7-1.1-2.4-2-.6-.9-.9-1.9-.9-2.9s.4-2.3,1.1-3.2c.7-.9,1.8-1.7,3.2-2.6-1.8-.8-3.2-2-4.3-3.7-1.1-1.7-1.6-3.7-1.6-6,0-3.7,1.2-6.5,3.5-8.5,2.3-2,5.6-3,9.9-3s2,0,3,.2c1,.1,1.8.3,2.4.4h11.7ZM355.4,743.3c0,1.5.7,2.7,2.1,3.6,1.4.8,3.4,1.3,5.9,1.3,3.9,0,6.8-.6,8.7-1.7,1.9-1.1,2.9-2.6,2.9-4.5s-.5-2.5-1.6-3.1c-1-.6-3-.9-5.8-.9h-5.4c-2.1,0-3.7.5-4.9,1.5-1.2,1-1.8,2.3-1.8,3.9ZM358.5,715.2c0,2.1.5,3.7,1.6,4.9,1.1,1.1,2.7,1.7,4.7,1.7,4.2,0,6.2-2.2,6.2-6.7s-.5-3.9-1.5-5.1c-1-1.2-2.6-1.8-4.7-1.8s-3.7.6-4.7,1.8c-1.1,1.2-1.6,2.9-1.6,5.2Z"/>
    <path class="st2" d="M386.5,695.3c0-1.3.4-2.3,1.1-3,.7-.7,1.7-1,3-1s2.2.3,2.9,1c.7.7,1.1,1.7,1.1,3s-.4,2.2-1.1,2.9c-.7.7-1.7,1.1-2.9,1.1s-2.3-.4-3-1.1-1.1-1.7-1.1-2.9ZM394.1,738h-7.2v-33.8h7.2v33.8Z"/>
    <path class="st2" d="M432.8,738h-7.2v-20.8c0-2.6-.5-4.6-1.6-5.8-1-1.3-2.7-1.9-5-1.9s-5.3.9-6.7,2.7c-1.4,1.8-2.1,4.8-2.1,9v16.8h-7.2v-33.8h5.6l1,4.4h.4c1-1.6,2.5-2.9,4.3-3.7,1.9-.9,4-1.3,6.2-1.3,8.1,0,12.2,4.1,12.2,12.4v22Z"/>
    <path class="st2" d="M456.3,738.6c-5.3,0-9.4-1.5-12.3-4.6-3-3.1-4.4-7.3-4.4-12.7s1.4-9.9,4.1-13c2.7-3.2,6.5-4.7,11.3-4.7s8,1.4,10.6,4.1c2.6,2.7,3.9,6.4,3.9,11.2v3.9h-22.5c.1,3.3,1,5.8,2.7,7.6,1.7,1.8,4,2.6,7.1,2.6s3.9-.2,5.6-.6c1.7-.4,3.6-1,5.5-1.9v5.8c-1.8.8-3.5,1.4-5.3,1.8-1.8.3-3.8.5-6.1.5ZM455,709.1c-2.3,0-4.1.7-5.5,2.2-1.4,1.4-2.2,3.6-2.5,6.3h15.3c0-2.8-.7-4.9-2-6.3-1.3-1.4-3.1-2.2-5.4-2.2Z"/>
  </g>
</svg>